<svg width="20" height="20" viewBox="0 0 20 20" fill="none" xmlns="http://www.w3.org/2000/svg"><path d="M7.679 2.047 C 7.206 2.162,6.798 2.514,6.605 2.975 C 6.530 3.153,6.516 3.242,6.506 3.592 L 6.495 4.000 5.421 4.000 C 4.260 4.000,4.133 4.014,3.794 4.186 C 3.577 4.296,3.298 4.573,3.190 4.786 C 2.991 5.181,3.000 4.974,3.000 8.982 C 3.000 12.974,2.993 12.825,3.186 13.206 C 3.296 13.423,3.573 13.702,3.786 13.810 C 4.187 14.013,3.772 14.000,10.000 14.000 C 15.134 14.000,15.706 13.995,15.869 13.946 C 16.423 13.782,16.782 13.423,16.946 12.869 C 16.994 12.707,17.000 12.296,17.000 9.018 C 17.000 5.026,17.007 5.175,16.814 4.794 C 16.702 4.574,16.426 4.298,16.206 4.186 C 15.867 4.014,15.741 4.000,14.576 4.000 L 13.500 4.000 13.500 3.725 C 13.499 3.197,13.345 2.786,13.029 2.465 C 12.823 2.255,12.532 2.098,12.240 2.037 C 11.978 1.982,7.909 1.991,7.679 2.047 M15.000 9.000 L 15.000 12.000 10.000 12.000 L 5.000 12.000 5.000 9.000 L 5.000 6.000 10.000 6.000 L 15.000 6.000 15.000 9.000 M2.644 16.062 C 2.220 16.208,1.967 16.559,1.967 16.998 C 1.967 17.378,2.171 17.713,2.513 17.893 L 2.683 17.983 10.000 17.983 L 17.317 17.983 17.487 17.893 C 18.224 17.505,18.216 16.475,17.474 16.110 L 17.283 16.017 10.050 16.009 C 3.174 16.002,2.808 16.005,2.644 16.062 " fill="#1A1C1F" stroke="none" fill-rule="evenodd"></path></svg>