<svg width="24" height="24" viewBox="0 0 24 24" fill="none" xmlns="http://www.w3.org/2000/svg"><path d="M9.284 2.063 C 8.671 2.228,8.180 2.726,8.042 3.325 C 8.020 3.421,8.002 3.837,8.001 4.250 L 8.000 5.000 6.282 5.000 C 5.161 5.000,4.490 5.016,4.352 5.045 C 3.757 5.171,3.255 5.622,3.081 6.186 C 3.001 6.444,3.000 6.538,3.000 11.500 C 3.000 16.448,3.002 16.557,3.080 16.812 C 3.230 17.295,3.599 17.697,4.066 17.886 L 4.300 17.980 12.020 17.980 L 19.740 17.980 20.009 17.853 C 20.383 17.676,20.649 17.414,20.831 17.046 L 20.980 16.744 20.980 11.522 L 20.980 6.300 20.889 6.080 C 20.704 5.629,20.371 5.296,19.920 5.111 C 19.704 5.022,19.664 5.020,17.850 5.008 L 16.000 4.996 16.000 4.248 C 15.999 3.432,15.966 3.229,15.778 2.884 C 15.647 2.643,15.323 2.324,15.088 2.204 C 14.695 2.004,14.638 2.000,11.982 2.003 C 9.945 2.005,9.461 2.016,9.284 2.063 M14.000 4.500 L 14.000 5.000 12.000 5.000 L 10.000 5.000 10.000 4.500 L 10.000 4.000 12.000 4.000 L 14.000 4.000 14.000 4.500 M19.000 11.500 L 19.000 16.000 12.000 16.000 L 5.000 16.000 5.000 11.500 L 5.000 7.000 12.000 7.000 L 19.000 7.000 19.000 11.500 M7.556 9.099 C 7.311 9.227,7.137 9.434,7.062 9.687 C 6.966 10.007,6.971 13.060,7.067 13.341 C 7.152 13.591,7.439 13.884,7.665 13.951 C 7.902 14.022,8.234 14.010,8.422 13.925 C 8.625 13.832,8.891 13.533,8.953 13.328 C 9.019 13.108,9.019 9.892,8.953 9.672 C 8.891 9.466,8.642 9.188,8.427 9.083 C 8.182 8.965,7.802 8.972,7.556 9.099 M15.620 9.073 C 15.382 9.184,15.220 9.337,15.115 9.550 C 15.021 9.739,15.020 9.752,15.007 11.320 C 15.000 12.189,15.006 12.993,15.020 13.106 C 15.055 13.398,15.251 13.707,15.497 13.859 C 15.674 13.968,15.727 13.980,16.020 13.980 C 16.313 13.980,16.366 13.968,16.542 13.859 C 16.778 13.713,16.943 13.462,16.999 13.165 C 17.022 13.043,17.040 12.314,17.040 11.500 C 17.040 10.686,17.022 9.957,16.999 9.835 C 16.943 9.538,16.778 9.287,16.543 9.142 C 16.291 8.986,15.872 8.954,15.620 9.073 M2.696 20.053 C 1.857 20.369,1.764 21.475,2.540 21.894 L 2.700 21.980 11.920 21.991 C 19.112 22.000,21.180 21.992,21.320 21.954 C 21.571 21.885,21.886 21.567,21.958 21.309 C 22.105 20.782,21.787 20.180,21.289 20.042 C 21.064 19.979,2.862 19.990,2.696 20.053 " fill="#1A1C1F" stroke="none" fill-rule="evenodd"></path></svg>