<svg width="20" height="20" viewBox="0 0 20 20" fill="none" xmlns="http://www.w3.org/2000/svg"><path d="M3.632 2.096 C 2.976 2.306,2.479 2.816,2.280 3.483 C 2.185 3.801,2.198 4.284,2.311 4.609 C 2.506 5.176,2.909 5.618,3.429 5.836 C 4.190 6.156,5.014 5.991,5.607 5.400 C 5.902 5.106,6.063 4.814,6.153 4.409 C 6.376 3.405,5.721 2.346,4.715 2.084 C 4.442 2.013,3.871 2.019,3.632 2.096 M15.254 3.034 C 14.949 3.087,14.650 3.253,14.410 3.500 C 14.106 3.816,14.002 4.157,14.000 4.850 L 13.998 5.283 13.826 5.400 C 13.653 5.518,13.338 5.867,13.243 6.048 C 13.215 6.102,13.153 6.252,13.105 6.381 L 13.018 6.617 13.007 9.850 C 13.000 11.976,13.009 13.173,13.032 13.346 C 13.123 14.037,13.721 14.701,14.450 14.922 C 14.621 14.974,14.776 14.983,15.533 14.983 L 16.417 14.983 16.650 14.890 C 17.249 14.652,17.684 14.205,17.890 13.617 L 17.983 13.350 17.983 9.983 L 17.983 6.617 17.877 6.340 C 17.739 5.984,17.518 5.675,17.230 5.440 L 17.000 5.252 17.000 4.814 C 17.000 4.573,16.985 4.298,16.967 4.204 C 16.900 3.846,16.632 3.459,16.314 3.259 C 16.008 3.067,15.583 2.977,15.254 3.034 M8.070 4.319 C 7.082 4.585,6.656 5.735,7.227 6.596 C 7.542 7.071,8.174 7.336,8.723 7.221 C 9.044 7.154,9.277 7.029,9.507 6.798 C 9.851 6.455,10.015 5.969,9.936 5.536 C 9.773 4.650,8.917 4.092,8.070 4.319 M3.683 7.067 C 2.855 7.167,2.091 8.020,2.011 8.933 C 1.986 9.219,2.031 9.445,2.431 11.056 C 2.864 12.796,3.013 13.330,3.136 13.588 C 3.355 14.048,3.854 14.546,4.313 14.762 C 4.757 14.972,4.781 14.975,6.369 14.991 L 7.821 15.006 8.231 16.028 C 8.728 17.266,8.867 17.565,9.015 17.713 C 9.267 17.965,9.827 18.064,10.121 17.909 C 10.297 17.816,10.539 17.574,10.620 17.411 C 10.665 17.319,10.682 17.212,10.681 17.033 C 10.680 16.820,10.657 16.723,10.525 16.367 C 10.330 15.841,9.696 14.288,9.560 14.003 C 9.420 13.709,9.080 13.377,8.759 13.218 C 8.430 13.056,8.228 13.037,6.580 13.007 L 5.210 12.982 5.089 12.890 C 4.935 12.773,4.915 12.707,4.399 10.657 C 4.138 9.623,4.015 9.078,4.038 9.064 C 4.058 9.052,4.273 9.035,4.516 9.027 C 4.913 9.013,4.978 9.002,5.144 8.921 C 5.556 8.719,5.780 8.255,5.665 7.843 C 5.607 7.638,5.408 7.436,5.035 7.207 L 4.753 7.033 4.318 7.038 C 4.079 7.040,3.793 7.053,3.683 7.067 M7.392 8.014 C 7.148 8.101,6.927 8.306,6.815 8.550 C 6.721 8.753,6.314 10.367,6.251 10.787 C 6.181 11.247,6.246 11.449,6.552 11.732 C 6.834 11.992,6.771 11.983,8.400 11.983 C 9.542 11.983,9.884 11.973,10.010 11.937 C 10.202 11.881,10.463 11.658,10.591 11.441 C 10.667 11.310,10.680 11.251,10.680 11.019 C 10.680 10.871,10.661 10.691,10.636 10.619 C 10.580 10.456,10.361 10.215,10.187 10.127 C 10.032 10.048,9.615 10.003,9.000 10.001 C 8.771 10.000,8.565 9.987,8.543 9.973 C 8.513 9.954,8.522 9.864,8.584 9.599 C 8.740 8.924,8.728 8.684,8.521 8.400 C 8.371 8.194,8.168 8.063,7.923 8.011 C 7.664 7.957,7.550 7.958,7.392 8.014 " fill="#1A1C1F" stroke="none" fill-rule="evenodd"></path></svg>