<svg width="24" height="24" viewBox="0 0 24 24" fill="none" xmlns="http://www.w3.org/2000/svg"><path d="M5.002 2.044 C 4.904 2.063,4.691 2.142,4.527 2.220 C 3.717 2.604,3.261 3.526,3.444 4.408 C 3.602 5.169,4.309 5.838,5.094 5.968 C 5.799 6.084,6.608 5.740,7.014 5.152 C 7.579 4.331,7.488 3.275,6.795 2.598 C 6.327 2.141,5.620 1.922,5.002 2.044 M17.889 4.137 C 17.606 4.272,17.262 4.622,17.131 4.909 C 17.037 5.114,17.022 5.205,17.002 5.727 C 16.990 6.050,16.970 6.323,16.959 6.334 C 16.948 6.345,16.804 6.443,16.640 6.551 C 15.883 7.047,15.456 7.608,15.141 8.519 L 14.996 8.939 15.010 13.439 C 15.025 18.456,15.007 18.138,15.304 18.669 C 15.683 19.348,16.287 19.792,17.036 19.942 C 17.325 20.000,17.559 20.007,18.676 19.991 C 19.973 19.971,19.982 19.971,20.273 19.863 C 21.084 19.562,21.586 19.059,21.877 18.257 L 22.000 17.916 22.000 13.445 L 22.000 8.975 21.863 8.551 C 21.787 8.318,21.686 8.049,21.637 7.954 C 21.365 7.419,20.895 6.899,20.380 6.563 C 20.205 6.448,20.052 6.345,20.041 6.334 C 20.030 6.323,20.010 6.050,19.998 5.727 C 19.978 5.205,19.963 5.114,19.869 4.909 C 19.741 4.628,19.413 4.292,19.140 4.161 C 18.977 4.083,18.862 4.062,18.520 4.051 C 18.137 4.038,18.081 4.045,17.889 4.137 M9.094 5.282 C 8.548 5.390,8.088 5.849,7.938 6.437 C 7.852 6.773,7.887 7.044,8.063 7.396 C 8.226 7.721,8.474 7.965,8.793 8.112 C 8.987 8.202,9.075 8.217,9.400 8.218 C 9.740 8.219,9.805 8.207,10.020 8.102 C 10.324 7.953,10.593 7.685,10.742 7.379 C 10.848 7.163,10.860 7.101,10.860 6.740 C 10.860 6.379,10.849 6.318,10.745 6.114 C 10.533 5.695,10.121 5.383,9.648 5.284 C 9.411 5.235,9.333 5.234,9.094 5.282 M3.933 7.037 C 3.487 7.080,3.086 7.271,2.737 7.605 C 2.420 7.910,2.269 8.142,2.138 8.524 C 1.914 9.178,1.927 9.265,2.702 12.360 C 3.440 15.303,3.742 16.423,3.869 16.673 C 4.081 17.093,4.638 17.602,5.106 17.802 C 5.472 17.960,5.592 17.969,7.620 17.995 C 9.265 18.017,9.641 18.032,9.740 18.081 C 9.843 18.132,9.985 18.387,10.740 19.886 C 11.224 20.847,11.656 21.673,11.700 21.722 C 11.911 21.958,12.503 22.055,12.800 21.903 C 13.163 21.717,13.377 21.390,13.376 21.020 C 13.376 20.808,13.343 20.708,13.089 20.152 C 12.657 19.206,11.772 17.453,11.588 17.181 C 11.315 16.774,10.934 16.431,10.541 16.236 L 10.193 16.063 9.546 16.035 C 9.191 16.019,8.342 16.004,7.660 16.001 C 6.189 15.995,5.813 15.965,5.718 15.847 C 5.637 15.747,5.546 15.419,4.883 12.820 C 4.205 10.161,3.991 9.252,4.020 9.162 C 4.032 9.121,4.074 9.075,4.112 9.060 C 4.149 9.046,4.633 9.020,5.186 9.003 C 6.179 8.973,6.195 8.971,6.375 8.865 C 7.034 8.479,7.042 7.526,6.389 7.143 C 6.225 7.047,6.193 7.044,5.240 7.025 C 4.701 7.014,4.113 7.020,3.933 7.037 M18.762 8.040 C 19.246 8.132,19.619 8.405,19.856 8.841 L 19.973 9.054 19.976 13.257 C 19.978 15.569,19.965 17.546,19.947 17.651 C 19.892 17.978,19.892 17.978,18.522 17.992 L 17.340 18.004 17.207 17.867 C 17.028 17.682,17.002 17.539,17.001 16.714 L 17.000 16.008 17.630 15.992 C 18.326 15.974,18.453 15.941,18.673 15.721 C 18.888 15.506,18.977 15.295,18.977 15.000 C 18.978 14.703,18.896 14.499,18.699 14.301 C 18.463 14.066,18.326 14.028,17.630 14.008 L 17.000 13.989 17.000 12.999 L 17.000 12.008 17.630 11.992 C 18.326 11.974,18.453 11.941,18.673 11.721 C 18.888 11.506,18.977 11.295,18.977 11.000 C 18.978 10.703,18.896 10.499,18.699 10.301 C 18.463 10.066,18.326 10.028,17.625 10.008 L 16.989 9.989 17.011 9.585 C 17.023 9.362,17.063 9.090,17.100 8.979 C 17.243 8.546,17.631 8.184,18.080 8.064 C 18.348 7.993,18.485 7.988,18.762 8.040 M8.258 9.156 C 8.169 9.171,8.028 9.225,7.945 9.277 C 7.752 9.396,7.495 9.720,7.441 9.912 C 7.363 10.192,7.153 11.819,6.937 13.830 C 6.887 14.286,7.097 14.703,7.467 14.885 L 7.660 14.980 9.460 14.993 C 10.450 15.001,11.481 14.994,11.752 14.979 C 12.215 14.953,12.254 14.944,12.430 14.826 C 12.534 14.756,12.672 14.612,12.739 14.503 C 12.846 14.329,12.860 14.271,12.860 14.000 C 12.860 13.729,12.846 13.671,12.739 13.497 C 12.672 13.389,12.535 13.244,12.434 13.176 C 12.254 13.055,12.239 13.052,11.615 13.027 C 11.266 13.012,10.542 13.000,10.007 13.000 L 9.034 13.000 9.055 12.890 C 9.067 12.830,9.105 12.537,9.139 12.240 C 9.173 11.943,9.211 11.635,9.223 11.555 L 9.245 11.411 9.788 11.625 C 10.449 11.887,10.808 12.000,10.974 12.000 C 11.148 11.999,11.474 11.837,11.628 11.675 C 12.076 11.202,11.980 10.499,11.421 10.167 C 11.234 10.055,9.394 9.302,9.080 9.208 C 8.886 9.150,8.453 9.122,8.258 9.156 " fill="#1A1C1F" stroke="none" fill-rule="evenodd"></path></svg>