<svg width="32" height="32" viewBox="0 0 32 32" fill="none" xmlns="http://www.w3.org/2000/svg"><path d="M6.137 2.185 C 5.150 2.550,4.419 3.401,4.183 4.460 C 3.851 5.955,4.900 7.550,6.456 7.917 C 7.454 8.153,8.458 7.855,9.233 7.093 C 9.813 6.524,10.097 5.817,10.093 4.960 C 10.087 3.986,9.656 3.176,8.826 2.584 C 8.243 2.168,8.076 2.118,7.200 2.097 C 6.528 2.080,6.389 2.092,6.137 2.185 M7.636 4.185 C 8.174 4.551,8.244 5.250,7.787 5.707 C 7.523 5.970,7.215 6.064,6.909 5.973 C 6.283 5.789,5.977 5.172,6.234 4.613 C 6.407 4.237,6.705 4.054,7.148 4.054 C 7.373 4.053,7.487 4.084,7.636 4.185 M24.480 5.094 C 23.891 5.256,23.285 5.824,23.116 6.373 C 23.071 6.520,23.020 6.846,23.003 7.099 L 22.972 7.558 22.629 7.811 C 21.942 8.320,21.426 9.063,21.125 9.981 L 21.009 10.335 21.024 16.221 L 21.040 22.107 21.164 22.413 C 21.401 23.000,22.018 23.616,22.600 23.847 C 22.895 23.965,22.977 23.970,24.779 23.989 C 26.839 24.010,27.074 23.988,27.604 23.728 C 28.197 23.435,28.613 22.960,28.859 22.293 L 28.987 21.947 28.985 16.160 C 28.982 9.717,29.004 10.118,28.613 9.317 C 28.318 8.712,27.924 8.229,27.431 7.867 L 26.995 7.547 26.991 7.163 C 26.985 6.612,26.898 6.277,26.675 5.948 C 26.186 5.226,25.281 4.874,24.480 5.094 M12.607 7.603 C 12.097 7.792,11.703 8.299,11.646 8.838 C 11.581 9.467,11.868 10.008,12.434 10.322 C 12.681 10.458,12.775 10.480,13.120 10.479 C 13.714 10.477,14.139 10.226,14.420 9.710 C 14.938 8.758,14.287 7.614,13.187 7.544 C 12.945 7.529,12.755 7.548,12.607 7.603 M5.227 9.063 C 4.041 9.181,3.209 10.005,3.029 11.240 C 2.940 11.851,3.003 12.167,3.603 14.133 C 4.978 18.639,5.935 21.595,6.106 21.864 C 6.381 22.299,7.010 22.749,7.600 22.935 C 7.757 22.984,8.708 23.011,11.200 23.035 C 15.024 23.072,14.825 23.049,15.031 23.486 C 15.139 23.715,15.345 24.360,16.366 27.654 C 16.944 29.517,17.001 29.657,17.237 29.803 C 17.767 30.131,18.397 29.969,18.669 29.435 C 18.873 29.035,18.877 29.048,17.619 24.960 C 17.254 23.772,16.904 22.692,16.841 22.560 C 16.658 22.173,15.990 21.545,15.512 21.310 C 14.963 21.039,14.678 21.020,11.120 21.009 C 9.536 21.005,8.171 20.986,8.086 20.967 C 8.001 20.948,7.886 20.873,7.831 20.798 C 7.723 20.654,7.402 19.674,6.402 16.427 C 5.545 13.644,5.013 11.831,5.013 11.688 C 5.013 11.501,5.154 11.214,5.277 11.148 C 5.347 11.111,5.931 11.071,6.789 11.044 C 8.353 10.996,8.457 10.974,8.739 10.633 C 9.068 10.236,9.088 9.846,8.800 9.448 C 8.517 9.057,8.466 9.046,6.960 9.034 C 6.227 9.028,5.447 9.042,5.227 9.063 M25.706 9.168 C 26.093 9.315,26.353 9.506,26.562 9.797 C 26.793 10.119,26.984 10.589,26.985 10.840 L 26.987 11.040 25.013 11.040 L 23.040 11.040 23.040 10.831 C 23.040 10.562,23.212 10.118,23.434 9.813 C 23.657 9.507,23.971 9.290,24.419 9.133 C 24.837 8.987,25.259 8.998,25.706 9.168 M11.808 12.268 C 11.717 12.296,11.533 12.416,11.398 12.535 C 11.125 12.774,11.083 12.872,9.948 15.867 C 9.177 17.901,9.154 17.977,9.190 18.367 C 9.240 18.917,9.316 19.086,9.672 19.441 C 10.215 19.983,10.071 19.961,13.337 19.987 C 16.454 20.012,16.483 20.009,16.806 19.686 C 17.210 19.283,17.196 18.634,16.776 18.242 C 16.648 18.122,16.575 18.107,15.984 18.073 C 15.626 18.052,14.427 18.033,13.320 18.031 C 11.617 18.027,11.307 18.015,11.307 17.951 C 11.307 17.909,11.525 17.315,11.791 16.631 C 12.058 15.947,12.324 15.260,12.382 15.105 L 12.489 14.824 13.015 15.325 C 13.305 15.600,13.625 15.865,13.726 15.913 C 14.295 16.183,14.984 15.787,15.072 15.138 C 15.135 14.684,15.056 14.565,14.006 13.515 C 13.475 12.984,12.940 12.484,12.817 12.403 C 12.569 12.241,12.099 12.178,11.808 12.268 M26.987 17.356 L 26.987 21.698 26.849 21.863 L 26.711 22.027 25.018 22.027 L 23.325 22.027 23.201 21.894 C 23.044 21.728,22.994 21.426,22.990 20.632 L 22.987 20.011 23.671 19.992 C 24.320 19.974,24.365 19.966,24.546 19.828 C 25.125 19.386,25.139 18.681,24.578 18.227 C 24.395 18.079,24.359 18.072,23.687 18.042 L 22.987 18.011 22.987 17.512 L 22.987 17.013 23.533 17.013 C 24.215 17.013,24.434 16.953,24.688 16.698 C 25.081 16.305,25.087 15.762,24.701 15.349 C 24.468 15.099,24.268 15.046,23.541 15.042 L 23.055 15.040 23.021 14.712 C 23.002 14.532,22.987 14.076,22.987 13.699 L 22.987 13.013 24.987 13.013 L 26.987 13.013 26.987 17.356 " fill="#1A1C1F" stroke="none" fill-rule="evenodd"></path></svg>