<svg width="32" height="32" viewBox="0 0 32 32" fill="none" xmlns="http://www.w3.org/2000/svg"><path d="M15.513 2.157 C 15.183 2.381,15.147 2.528,15.147 3.634 L 15.147 4.612 14.573 4.044 C 13.929 3.407,13.769 3.307,13.402 3.307 C 12.805 3.307,12.417 3.918,12.640 4.507 C 12.673 4.595,13.251 5.220,13.924 5.896 L 15.148 7.125 15.134 8.737 L 15.120 10.350 13.627 9.488 C 12.805 9.014,12.124 8.618,12.112 8.608 C 12.100 8.597,11.916 7.934,11.702 7.134 C 11.488 6.334,11.262 5.582,11.200 5.461 C 10.982 5.039,10.403 4.878,10.022 5.135 C 9.754 5.316,9.600 5.575,9.600 5.847 C 9.600 5.974,9.673 6.346,9.762 6.673 C 9.851 7.000,9.912 7.279,9.899 7.292 C 9.885 7.306,9.553 7.135,9.161 6.912 C 8.349 6.450,8.117 6.403,7.782 6.628 C 7.471 6.838,7.347 7.075,7.371 7.417 C 7.403 7.869,7.513 7.979,8.485 8.540 L 9.342 9.033 8.429 9.281 C 7.525 9.526,7.325 9.617,7.135 9.871 C 6.894 10.195,6.993 10.758,7.338 11.021 C 7.669 11.273,7.812 11.257,9.694 10.753 C 10.636 10.500,11.433 10.293,11.466 10.293 C 11.517 10.293,13.896 11.642,14.149 11.815 C 14.233 11.872,14.044 11.996,12.656 12.798 L 11.067 13.716 9.523 13.305 C 7.823 12.854,7.664 12.838,7.338 13.086 C 6.992 13.350,6.894 13.911,7.137 14.239 C 7.313 14.477,7.547 14.591,8.237 14.773 L 8.913 14.951 8.763 15.041 C 8.681 15.091,8.383 15.266,8.101 15.430 C 7.820 15.593,7.545 15.795,7.491 15.877 C 7.354 16.087,7.326 16.525,7.436 16.757 C 7.585 17.072,7.811 17.200,8.213 17.199 C 8.550 17.198,8.581 17.185,9.270 16.780 C 9.660 16.550,9.992 16.374,10.007 16.389 C 10.022 16.404,9.937 16.780,9.817 17.225 C 9.566 18.160,9.549 18.416,9.720 18.667 C 9.906 18.941,10.097 19.055,10.411 19.080 C 10.722 19.105,10.955 18.991,11.163 18.710 C 11.226 18.625,11.461 17.854,11.738 16.824 C 11.996 15.866,12.214 15.076,12.223 15.069 C 12.232 15.061,12.888 14.681,13.680 14.225 L 15.120 13.395 15.134 15.188 L 15.148 16.982 13.900 18.238 C 12.556 19.591,12.489 19.685,12.562 20.121 C 12.612 20.416,12.952 20.768,13.239 20.821 C 13.634 20.894,13.825 20.789,14.511 20.123 L 15.147 19.505 15.147 20.292 C 15.147 21.005,15.158 21.098,15.265 21.289 C 15.487 21.685,15.932 21.843,16.328 21.666 C 16.803 21.453,16.901 21.207,16.904 20.216 L 16.907 19.499 17.533 20.118 C 18.039 20.618,18.199 20.744,18.360 20.774 C 18.929 20.881,19.422 20.485,19.422 19.920 C 19.422 19.795,19.386 19.623,19.341 19.539 C 19.297 19.455,18.731 18.859,18.084 18.214 L 16.907 17.041 16.907 15.240 C 16.907 14.250,16.925 13.441,16.947 13.442 C 16.969 13.443,17.622 13.812,18.399 14.262 L 19.811 15.080 20.221 16.620 C 20.447 17.467,20.670 18.284,20.717 18.436 C 20.952 19.193,21.899 19.354,22.296 18.704 C 22.485 18.393,22.477 18.255,22.218 17.297 C 22.083 16.800,21.973 16.379,21.973 16.361 C 21.973 16.343,22.327 16.532,22.760 16.782 C 23.535 17.228,23.551 17.235,23.854 17.214 C 24.050 17.201,24.214 17.154,24.307 17.087 C 24.480 16.961,24.693 16.567,24.693 16.373 C 24.693 16.298,24.639 16.129,24.573 15.998 C 24.447 15.748,24.306 15.640,23.536 15.205 L 23.120 14.969 23.333 14.902 C 23.451 14.866,23.775 14.772,24.053 14.695 C 24.428 14.591,24.604 14.512,24.728 14.392 C 24.918 14.208,25.041 13.846,24.990 13.617 C 24.904 13.222,24.529 12.906,24.149 12.907 C 24.052 12.907,23.303 13.088,22.483 13.309 C 21.664 13.530,20.959 13.697,20.917 13.681 C 20.804 13.638,17.757 11.878,17.773 11.865 C 17.872 11.785,20.506 10.293,20.549 10.293 C 20.580 10.293,21.367 10.497,22.296 10.747 C 23.226 10.996,24.064 11.200,24.158 11.200 C 24.852 11.200,25.258 10.336,24.813 9.807 C 24.627 9.586,24.400 9.491,23.481 9.251 C 23.064 9.141,22.734 9.035,22.747 9.013 C 22.760 8.992,23.101 8.787,23.505 8.556 C 23.909 8.326,24.316 8.063,24.409 7.972 C 24.825 7.564,24.719 6.871,24.199 6.606 C 23.836 6.421,23.597 6.479,22.798 6.945 C 22.418 7.167,22.100 7.342,22.092 7.334 C 22.083 7.327,22.152 7.048,22.245 6.714 C 22.338 6.380,22.415 5.997,22.417 5.863 C 22.428 5.033,21.346 4.708,20.844 5.390 C 20.791 5.461,20.562 6.214,20.334 7.061 L 19.920 8.602 18.427 9.467 L 16.933 10.331 16.919 8.701 L 16.905 7.071 18.126 5.842 C 19.411 4.549,19.515 4.407,19.445 4.037 C 19.399 3.791,19.227 3.535,19.027 3.413 C 18.833 3.294,18.412 3.270,18.223 3.366 C 18.159 3.398,17.839 3.690,17.511 4.014 L 16.915 4.603 16.898 3.621 C 16.878 2.525,16.839 2.387,16.483 2.147 C 16.227 1.974,15.775 1.979,15.513 2.157 M19.219 23.303 C 18.656 23.455,18.309 23.653,17.916 24.047 C 17.274 24.691,17.045 25.370,17.044 26.640 C 17.042 27.552,17.110 27.893,17.418 28.523 C 17.951 29.612,19.259 30.178,20.779 29.976 C 21.620 29.864,21.893 29.672,21.893 29.190 C 21.893 28.943,21.873 28.881,21.762 28.791 C 21.658 28.707,21.580 28.690,21.389 28.714 C 21.256 28.730,20.871 28.758,20.533 28.777 C 19.985 28.808,19.888 28.799,19.617 28.696 C 19.253 28.559,19.045 28.339,18.872 27.911 C 18.756 27.622,18.747 27.528,18.748 26.587 C 18.750 25.649,18.759 25.549,18.876 25.253 C 19.137 24.589,19.622 24.333,20.503 24.392 C 20.769 24.410,21.112 24.440,21.264 24.459 C 21.523 24.491,21.552 24.482,21.704 24.331 C 21.843 24.192,21.867 24.128,21.867 23.895 C 21.867 23.376,21.599 23.253,20.400 23.221 C 19.730 23.203,19.538 23.216,19.219 23.303 M12.987 23.407 C 12.869 23.461,12.731 23.553,12.679 23.611 C 12.548 23.759,10.453 29.159,10.453 29.350 C 10.453 29.698,10.824 30.018,11.147 29.947 C 11.441 29.882,11.551 29.735,11.789 29.094 L 12.016 28.480 13.141 28.480 L 14.267 28.481 14.472 29.039 C 14.628 29.463,14.721 29.636,14.857 29.756 C 15.362 30.199,16.107 29.861,16.106 29.190 C 16.106 28.955,14.144 23.787,13.988 23.612 C 13.867 23.476,13.507 23.309,13.333 23.309 C 13.260 23.309,13.104 23.353,12.987 23.407 M13.523 26.416 C 13.719 26.967,13.868 27.430,13.854 27.444 C 13.840 27.458,13.503 27.463,13.107 27.455 L 12.385 27.440 12.672 26.640 C 13.059 25.559,13.128 25.377,13.149 25.397 C 13.158 25.407,13.326 25.865,13.523 26.416 " fill="#1A1C1F" stroke="none" fill-rule="evenodd"></path></svg>