<svg width="20" height="20" viewBox="0 0 20 20" fill="none" xmlns="http://www.w3.org/2000/svg"><path d="M6.598 2.078 C 6.176 2.251,5.426 2.795,5.347 2.986 C 5.222 3.284,5.340 3.659,5.600 3.792 C 5.870 3.929,5.964 3.905,6.480 3.567 L 6.937 3.267 7.235 3.267 L 7.533 3.267 7.533 4.128 L 7.533 4.990 7.137 5.011 C 6.636 5.038,6.442 5.079,6.147 5.218 C 5.510 5.521,5.087 6.017,4.828 6.767 L 4.753 6.983 4.735 10.806 L 4.717 14.628 3.448 15.906 C 2.750 16.608,2.137 17.247,2.085 17.324 C 2.008 17.442,1.996 17.486,2.016 17.591 C 2.066 17.860,2.301 18.031,2.561 17.985 C 2.670 17.966,3.473 17.173,9.896 10.740 C 13.863 6.767,17.283 3.331,17.496 3.104 L 17.883 2.691 17.883 2.496 C 17.883 2.322,17.872 2.290,17.779 2.197 C 17.634 2.052,17.422 2.028,17.244 2.136 C 17.174 2.178,16.419 2.905,15.567 3.751 L 14.017 5.289 13.796 5.196 C 13.528 5.082,13.082 5.000,12.729 5.000 L 12.467 5.000 12.467 4.133 L 12.467 3.267 12.702 3.267 L 12.937 3.267 13.404 3.549 C 13.660 3.704,13.922 3.841,13.985 3.853 C 14.372 3.925,14.714 3.565,14.652 3.151 C 14.610 2.869,14.484 2.760,13.654 2.281 L 13.263 2.055 11.006 2.030 C 9.765 2.016,8.307 2.004,7.767 2.003 C 6.817 2.002,6.777 2.004,6.598 2.078 M11.300 4.133 L 11.300 5.000 10.000 5.000 L 8.700 5.000 8.700 4.133 L 8.700 3.267 10.000 3.267 L 11.300 3.267 11.300 4.133 M14.332 7.622 L 13.533 8.410 13.531 9.847 C 13.529 11.670,13.510 11.954,13.373 12.247 C 13.243 12.525,12.998 12.772,12.725 12.901 L 12.517 13.000 10.750 13.000 L 8.983 13.000 8.004 13.980 L 7.024 14.960 7.570 14.972 C 7.925 14.981,8.143 15.000,8.192 15.027 C 8.297 15.086,8.400 15.305,8.400 15.471 C 8.400 15.655,8.271 15.874,8.121 15.946 C 8.029 15.989,7.899 16.000,7.462 15.998 C 7.130 15.997,6.872 15.981,6.803 15.956 C 6.675 15.911,6.583 15.803,6.521 15.623 L 6.479 15.501 5.842 16.143 C 5.456 16.532,5.196 16.821,5.183 16.875 C 5.154 16.988,5.228 17.095,5.514 17.356 C 5.781 17.600,6.025 17.747,6.394 17.888 L 6.683 17.998 9.986 17.999 L 13.288 18.000 13.519 17.921 C 14.351 17.639,14.907 17.067,15.175 16.221 L 15.250 15.983 15.250 11.567 C 15.250 9.137,15.238 7.079,15.223 6.992 C 15.208 6.905,15.181 6.833,15.163 6.833 C 15.145 6.833,14.771 7.188,14.332 7.622 M10.167 9.152 C 8.984 10.336,7.737 11.574,7.394 11.904 L 6.772 12.503 6.652 12.290 L 6.533 12.077 6.533 10.001 L 6.533 7.926 6.641 7.721 C 6.771 7.475,7.007 7.235,7.219 7.132 C 7.442 7.024,7.756 7.011,10.200 7.005 L 12.316 7.000 10.167 9.152 M13.313 15.063 C 13.497 15.237,13.549 15.586,13.419 15.784 C 13.302 15.964,13.230 15.982,12.619 15.995 C 11.966 16.008,11.842 15.983,11.716 15.819 C 11.545 15.594,11.565 15.308,11.766 15.097 L 11.895 14.961 12.562 14.972 C 13.212 14.983,13.230 14.985,13.313 15.063 " fill="#1A1C1F" stroke="none" fill-rule="evenodd"></path></svg>