<svg width="24" height="24" viewBox="0 0 24 24" fill="none" xmlns="http://www.w3.org/2000/svg"><path d="M8.220 2.038 C 7.936 2.059,7.814 2.088,7.641 2.177 C 7.363 2.321,6.521 2.885,6.436 2.985 C 6.362 3.071,6.280 3.295,6.280 3.410 C 6.280 3.554,6.412 3.768,6.573 3.885 C 6.862 4.094,7.056 4.039,7.834 3.527 L 8.209 3.280 8.804 3.280 L 9.400 3.280 9.400 4.634 L 9.400 5.988 8.670 6.011 C 7.823 6.038,7.498 6.106,6.987 6.362 C 6.071 6.820,5.449 7.567,5.131 8.588 L 5.022 8.940 5.009 13.579 L 4.996 18.218 3.521 19.702 C 1.925 21.308,1.933 21.297,2.039 21.616 C 2.128 21.887,2.476 22.060,2.733 21.963 C 2.851 21.918,15.123 9.689,19.385 5.370 C 22.261 2.455,22.092 2.658,21.919 2.319 C 21.838 2.160,21.603 2.000,21.449 2.000 C 21.267 2.000,20.851 2.378,18.940 4.280 L 16.900 6.311 16.720 6.232 C 16.419 6.100,16.054 6.044,15.310 6.015 L 14.600 5.988 14.600 4.634 L 14.600 3.280 15.185 3.280 L 15.770 3.280 16.347 3.617 C 16.667 3.803,16.995 3.966,17.082 3.980 C 17.293 4.016,17.491 3.944,17.636 3.778 C 17.876 3.506,17.839 3.142,17.549 2.906 C 17.357 2.750,16.756 2.380,16.387 2.192 L 16.140 2.065 13.320 2.036 C 10.066 2.002,8.727 2.003,8.220 2.038 M13.320 4.640 L 13.320 6.000 12.000 6.000 L 10.680 6.000 10.680 4.640 L 10.680 3.280 12.000 3.280 L 13.320 3.280 13.320 4.640 M17.714 8.514 L 16.932 9.315 16.911 11.569 L 16.891 13.823 16.778 14.061 C 16.641 14.351,16.330 14.672,16.037 14.826 L 15.820 14.940 13.604 14.960 L 11.387 14.980 10.073 16.319 L 8.758 17.658 8.973 17.767 C 9.242 17.903,9.338 18.075,9.310 18.369 C 9.287 18.612,9.188 18.753,8.959 18.870 C 8.798 18.952,8.728 18.960,8.141 18.960 L 7.499 18.960 6.640 19.820 L 5.782 20.679 6.021 20.923 C 6.582 21.495,7.298 21.862,8.040 21.959 C 8.216 21.981,9.944 21.998,12.208 21.999 L 16.076 22.000 16.519 21.844 C 17.683 21.434,18.419 20.686,18.844 19.479 L 19.000 19.036 19.000 14.002 L 19.000 8.968 18.857 8.556 C 18.778 8.330,18.664 8.047,18.604 7.929 L 18.495 7.713 17.714 8.514 M12.240 10.983 C 10.601 12.623,9.030 14.182,8.749 14.448 L 8.239 14.930 7.982 14.804 C 7.679 14.655,7.429 14.395,7.264 14.057 L 7.148 13.821 7.130 11.841 C 7.105 9.142,7.132 8.904,7.518 8.469 C 7.793 8.160,7.986 8.070,8.436 8.039 C 8.647 8.024,10.260 8.010,12.020 8.006 L 15.220 8.000 12.240 10.983 M16.556 17.780 C 16.857 17.958,16.959 18.293,16.806 18.608 C 16.661 18.908,16.564 18.940,15.800 18.940 C 15.065 18.940,14.967 18.915,14.815 18.689 C 14.560 18.310,14.741 17.827,15.179 17.715 C 15.246 17.698,15.552 17.688,15.860 17.692 C 16.339 17.699,16.440 17.712,16.556 17.780 " fill="#1A1C1F" stroke="none" fill-rule="evenodd"></path></svg>