<svg width="32" height="32" viewBox="0 0 32 32" fill="none" xmlns="http://www.w3.org/2000/svg"><path d="M10.720 2.074 C 10.350 2.106,10.197 2.148,9.887 2.307 C 9.361 2.576,8.388 3.234,8.285 3.391 C 8.046 3.757,8.209 4.340,8.617 4.572 C 8.997 4.789,9.118 4.751,10.201 4.073 L 10.828 3.680 11.494 3.680 L 12.160 3.680 12.160 4.845 L 12.160 6.010 10.947 6.047 C 9.604 6.088,9.270 6.143,8.670 6.420 C 7.357 7.027,6.392 8.182,6.070 9.533 C 6.027 9.714,6.003 11.957,5.989 17.359 L 5.968 24.932 4.052 26.858 C 2.999 27.917,2.112 28.849,2.082 28.929 C 1.895 29.420,2.238 29.931,2.756 29.931 C 2.892 29.931,3.010 29.869,3.241 29.678 C 3.409 29.539,9.469 23.500,16.707 16.259 L 29.867 3.093 29.867 2.765 C 29.867 2.451,29.857 2.428,29.651 2.232 C 29.453 2.043,29.411 2.027,29.131 2.027 L 28.826 2.027 26.433 4.421 L 24.039 6.815 23.526 6.559 C 22.722 6.158,22.600 6.135,21.133 6.097 L 19.840 6.063 19.840 4.898 L 19.840 3.733 20.486 3.733 L 21.131 3.733 21.699 4.074 C 22.555 4.587,22.715 4.658,22.998 4.655 C 23.334 4.651,23.572 4.506,23.720 4.214 C 24.050 3.563,23.724 3.206,21.990 2.320 L 21.507 2.073 16.340 2.054 C 13.498 2.044,10.969 2.053,10.720 2.074 M18.133 4.853 L 18.133 6.027 16.000 6.027 L 13.867 6.027 13.867 4.853 L 13.867 3.680 16.000 3.680 L 18.133 3.680 18.133 4.853 M21.296 9.187 L 21.552 9.301 16.683 14.174 L 11.813 19.048 11.486 19.016 C 10.629 18.934,10.026 18.535,9.648 17.802 C 9.551 17.613,9.547 17.442,9.547 14.025 L 9.547 10.447 9.689 10.156 C 9.850 9.826,10.267 9.406,10.617 9.219 C 10.841 9.100,10.922 9.092,12.133 9.062 C 12.837 9.044,15.129 9.039,17.227 9.051 C 20.987 9.072,21.044 9.074,21.296 9.187 M24.173 10.999 L 22.507 12.667 22.503 14.507 C 22.499 16.952,22.462 17.482,22.267 17.878 C 21.968 18.489,21.413 18.884,20.711 18.985 C 20.510 19.014,19.396 19.038,18.234 19.039 L 16.122 19.040 13.101 22.079 C 11.439 23.751,10.080 25.137,10.080 25.159 C 10.080 25.182,10.590 25.200,11.213 25.200 C 12.523 25.200,12.625 25.228,12.840 25.653 C 12.986 25.942,12.991 26.130,12.859 26.389 C 12.696 26.708,12.582 26.777,12.124 26.837 C 11.638 26.900,10.173 26.861,9.962 26.780 C 9.882 26.749,9.742 26.621,9.650 26.495 C 9.503 26.293,9.486 26.235,9.506 25.987 C 9.519 25.833,9.514 25.707,9.496 25.707 C 9.477 25.707,8.894 26.292,8.199 27.008 L 6.935 28.309 7.304 28.657 C 7.949 29.265,8.585 29.634,9.412 29.876 C 9.779 29.984,9.917 29.987,15.947 30.011 L 22.107 30.036 22.613 29.869 C 23.690 29.514,24.253 29.151,24.948 28.361 C 25.344 27.912,25.598 27.480,25.795 26.926 C 25.930 26.545,25.936 26.477,25.984 24.693 C 26.059 21.952,26.000 9.853,25.910 9.559 L 25.840 9.331 24.173 10.999 M17.326 21.345 C 17.567 21.494,17.727 21.852,17.680 22.135 C 17.634 22.403,17.375 22.760,17.187 22.812 C 17.106 22.835,16.520 22.853,15.884 22.853 C 14.805 22.853,14.718 22.846,14.583 22.745 C 14.124 22.403,14.131 21.654,14.594 21.350 C 14.809 21.210,15.170 21.178,16.212 21.207 C 17.039 21.230,17.165 21.246,17.326 21.345 M22.081 25.334 C 22.280 25.476,22.454 25.804,22.452 26.038 C 22.451 26.254,22.264 26.592,22.063 26.742 C 21.924 26.844,21.828 26.855,20.872 26.872 C 20.152 26.886,19.759 26.871,19.595 26.825 C 19.339 26.754,19.065 26.492,19.008 26.265 C 18.950 26.033,19.038 25.657,19.190 25.488 C 19.449 25.200,19.636 25.167,20.840 25.194 C 21.838 25.217,21.931 25.227,22.081 25.334 " fill="#1A1C1F" stroke="none" fill-rule="evenodd"></path></svg>