<svg width="20" height="20" viewBox="0 0 20 20" fill="none" xmlns="http://www.w3.org/2000/svg"><path d="M13.843 2.299 C 13.639 2.347,13.363 2.507,13.163 2.692 C 12.191 3.592,12.867 5.233,14.209 5.233 C 15.373 5.233,16.088 3.878,15.432 2.916 C 15.311 2.738,15.072 2.521,14.904 2.436 C 14.624 2.293,14.134 2.230,13.843 2.299 M13.417 6.229 C 12.944 6.430,11.732 6.984,11.179 7.251 C 10.629 7.517,10.453 7.646,10.363 7.850 C 10.247 8.115,9.917 10.058,9.944 10.324 C 9.970 10.578,10.141 10.879,10.348 11.033 C 10.751 11.333,11.212 11.316,11.590 10.987 C 11.849 10.760,11.909 10.549,12.092 9.201 L 12.117 9.020 12.467 8.861 C 12.659 8.774,12.837 8.703,12.861 8.702 C 12.895 8.700,12.902 8.738,12.887 8.858 C 12.877 8.945,12.827 9.541,12.778 10.182 L 12.687 11.347 11.641 13.415 C 10.600 15.471,10.181 16.332,10.101 16.580 C 9.973 16.971,10.292 17.533,10.724 17.681 C 10.924 17.749,11.213 17.748,11.417 17.678 C 11.743 17.567,11.783 17.503,12.754 15.543 C 13.243 14.557,13.692 13.641,13.753 13.508 C 13.813 13.375,13.875 13.267,13.890 13.267 C 13.905 13.267,14.175 13.525,14.490 13.842 L 15.062 14.417 15.578 15.826 C 16.154 17.400,16.183 17.455,16.525 17.622 C 17.042 17.875,17.640 17.683,17.883 17.187 C 17.951 17.048,17.970 16.959,17.971 16.776 C 17.971 16.487,17.943 16.390,17.499 15.150 C 16.964 13.655,16.835 13.328,16.728 13.206 C 16.675 13.145,16.276 12.776,15.841 12.385 C 15.406 11.994,14.977 11.599,14.888 11.507 L 14.726 11.340 14.814 10.113 C 14.863 9.438,14.910 8.879,14.917 8.871 C 14.925 8.863,15.101 8.967,15.308 9.101 C 16.715 10.015,16.784 10.050,17.119 10.024 C 17.379 10.004,17.593 9.908,17.760 9.736 C 18.021 9.467,18.117 9.123,18.022 8.795 C 17.906 8.397,17.845 8.345,16.433 7.437 C 15.244 6.672,14.575 6.264,14.367 6.178 C 14.072 6.056,13.790 6.071,13.417 6.229 M2.950 9.298 C 2.498 9.319,2.396 9.360,2.184 9.608 C 1.748 10.117,1.922 10.860,2.550 11.169 L 2.764 11.275 4.790 11.258 C 6.252 11.245,6.854 11.229,6.950 11.200 C 7.269 11.102,7.516 10.826,7.617 10.454 C 7.671 10.255,7.671 10.231,7.618 10.046 C 7.489 9.598,7.223 9.351,6.812 9.298 C 6.568 9.267,3.621 9.267,2.950 9.298 M4.883 12.298 C 4.614 12.313,4.526 12.332,4.426 12.394 C 4.157 12.561,3.933 12.940,3.933 13.229 C 3.933 13.598,4.175 13.975,4.530 14.158 L 4.739 14.267 6.431 14.267 L 8.123 14.267 8.325 14.165 C 8.706 13.975,8.914 13.652,8.916 13.250 C 8.917 12.860,8.721 12.546,8.353 12.353 L 8.190 12.267 6.703 12.273 C 5.886 12.276,5.067 12.287,4.883 12.298 " fill="#1A1C1F" stroke="none" fill-rule="evenodd"></path></svg>