<svg width="24" height="24" viewBox="0 0 24 24" fill="none" xmlns="http://www.w3.org/2000/svg"><path d="M16.120 2.039 C 15.482 2.160,14.943 2.576,14.662 3.161 C 14.390 3.730,14.390 4.271,14.664 4.843 C 14.825 5.179,15.224 5.599,15.543 5.769 C 16.305 6.175,17.215 6.030,17.844 5.403 C 18.885 4.363,18.502 2.643,17.114 2.128 C 16.854 2.031,16.382 1.989,16.120 2.039 M15.400 7.513 C 15.124 7.605,12.687 8.617,12.429 8.747 C 12.225 8.849,11.949 9.108,11.859 9.281 C 11.796 9.405,11.727 9.786,11.561 10.935 C 11.433 11.815,11.413 12.202,11.482 12.387 C 11.596 12.691,12.077 13.000,12.435 13.000 C 12.641 13.000,13.049 12.790,13.200 12.607 C 13.355 12.420,13.369 12.364,13.545 11.273 L 13.692 10.366 14.222 10.143 C 14.513 10.020,14.771 9.920,14.794 9.920 C 14.820 9.920,14.830 9.992,14.819 10.110 C 14.809 10.215,14.753 11.158,14.694 12.206 C 14.602 13.844,14.595 14.132,14.642 14.246 C 14.675 14.328,15.274 14.964,16.182 15.880 L 17.668 17.380 18.073 19.000 C 18.614 21.168,18.696 21.437,18.869 21.640 C 19.133 21.948,19.501 22.058,19.890 21.945 C 20.168 21.864,20.437 21.616,20.540 21.345 C 20.610 21.162,20.610 21.139,20.543 20.747 C 20.466 20.306,19.705 17.229,19.539 16.689 C 19.408 16.267,19.294 16.134,17.786 14.655 L 16.645 13.537 16.782 11.398 C 16.933 9.036,16.952 8.274,16.864 8.062 C 16.790 7.886,16.539 7.637,16.339 7.542 C 16.111 7.434,15.677 7.421,15.400 7.513 M18.584 9.647 C 18.361 9.710,18.060 10.013,17.998 10.240 C 17.885 10.658,17.977 11.099,18.225 11.325 C 18.374 11.460,18.755 11.678,19.500 12.054 C 20.417 12.517,20.540 12.546,20.930 12.400 C 21.159 12.315,21.384 12.111,21.504 11.880 C 21.610 11.676,21.603 11.270,21.490 11.054 C 21.365 10.817,21.201 10.697,20.469 10.308 C 19.192 9.630,18.952 9.545,18.584 9.647 M3.376 12.037 C 3.001 12.061,2.973 12.073,2.726 12.298 C 2.433 12.567,2.326 13.001,2.473 13.333 C 2.597 13.613,2.746 13.786,2.953 13.888 L 3.140 13.980 5.900 13.980 L 8.660 13.980 8.849 13.887 C 9.084 13.771,9.302 13.484,9.366 13.205 C 9.428 12.938,9.366 12.657,9.192 12.415 C 9.001 12.149,8.860 12.080,8.430 12.038 C 8.028 11.999,3.968 11.998,3.376 12.037 M5.760 15.035 C 5.301 15.062,5.182 15.106,4.974 15.327 C 4.768 15.546,4.702 15.710,4.704 16.000 C 4.706 16.305,4.796 16.509,5.026 16.733 C 5.313 17.011,5.246 17.005,7.720 16.992 C 10.175 16.979,10.086 16.988,10.357 16.717 C 10.539 16.535,10.679 16.223,10.679 16.000 C 10.679 15.777,10.539 15.465,10.357 15.283 C 10.096 15.022,10.135 15.026,8.060 15.018 C 7.026 15.014,5.991 15.021,5.760 15.035 M13.762 16.103 C 13.382 16.268,13.329 16.352,12.683 17.816 C 11.976 19.417,11.438 20.747,11.415 20.947 C 11.361 21.436,11.762 21.913,12.290 21.985 C 12.537 22.019,12.881 21.913,13.040 21.753 C 13.207 21.587,13.524 20.927,14.398 18.927 C 14.927 17.717,15.120 17.233,15.120 17.119 C 15.120 16.460,14.737 16.039,14.140 16.042 C 14.008 16.043,13.838 16.070,13.762 16.103 " fill="#1A1C1F" stroke="none" fill-rule="evenodd"></path></svg>