<svg width="32" height="32" viewBox="0 0 32 32" fill="none" xmlns="http://www.w3.org/2000/svg"><path d="M21.450 2.083 C 20.654 2.225,19.797 2.903,19.392 3.711 C 18.541 5.410,19.559 7.474,21.472 7.925 C 22.967 8.277,24.574 7.246,24.982 5.672 C 25.349 4.256,24.458 2.656,23.040 2.185 C 22.642 2.053,21.888 2.004,21.450 2.083 M22.666 4.233 C 23.105 4.524,23.210 5.121,22.899 5.562 C 22.351 6.341,21.271 6.062,21.140 5.107 C 21.084 4.694,21.402 4.193,21.787 4.089 C 22.017 4.026,22.464 4.100,22.666 4.233 M20.882 9.683 C 20.583 9.758,17.415 11.332,16.479 11.871 C 15.917 12.194,15.801 12.331,15.708 12.777 C 15.616 13.218,15.389 14.787,15.303 15.578 C 15.245 16.106,15.248 16.159,15.349 16.387 C 15.562 16.869,16.154 17.086,16.654 16.864 C 17.078 16.677,17.158 16.455,17.446 14.661 L 17.623 13.561 18.878 12.863 C 19.568 12.478,20.175 12.149,20.227 12.130 C 20.301 12.102,20.320 12.124,20.320 12.235 C 20.320 12.313,20.188 13.697,20.027 15.311 C 19.865 16.926,19.733 18.334,19.733 18.440 C 19.733 18.859,19.884 19.041,21.866 21.022 L 23.769 22.924 24.444 25.609 C 24.815 27.085,25.199 28.576,25.297 28.922 C 25.503 29.643,25.626 29.814,26.040 29.951 C 26.382 30.065,26.702 29.983,26.988 29.711 C 27.330 29.385,27.351 29.205,27.149 28.310 C 26.901 27.211,25.957 23.335,25.761 22.613 C 25.566 21.895,25.815 22.196,23.378 19.733 L 21.769 18.107 21.949 16.293 C 22.310 12.651,22.462 10.901,22.440 10.661 C 22.366 9.867,21.735 9.470,20.882 9.683 M23.707 11.977 C 23.466 12.103,23.355 12.218,23.247 12.453 C 23.018 12.952,23.126 13.199,23.942 14.041 L 24.608 14.729 25.791 15.320 C 27.109 15.977,27.368 16.049,27.759 15.864 C 28.323 15.596,28.493 14.703,28.057 14.297 C 27.976 14.222,27.444 13.920,26.875 13.627 C 25.902 13.125,25.810 13.064,25.330 12.606 C 25.049 12.338,24.720 12.068,24.598 12.006 C 24.334 11.871,23.935 11.858,23.707 11.977 M4.880 16.048 C 4.274 16.081,4.162 16.115,3.963 16.329 C 3.683 16.628,3.613 17.048,3.782 17.420 C 3.934 17.755,4.179 17.912,4.646 17.972 C 4.863 18.000,6.571 18.024,8.442 18.025 C 11.724 18.027,11.852 18.023,12.050 17.922 C 12.306 17.791,12.573 17.475,12.641 17.222 C 12.703 16.992,12.597 16.575,12.418 16.348 C 12.163 16.024,12.230 16.029,8.693 16.022 C 6.919 16.019,5.203 16.030,4.880 16.048 M6.907 20.034 C 6.589 20.077,6.506 20.111,6.324 20.270 C 5.782 20.747,5.901 21.584,6.554 21.886 C 6.798 21.999,6.836 22.000,10.507 22.000 C 14.645 22.000,14.379 22.024,14.710 21.622 C 15.093 21.158,14.996 20.504,14.496 20.173 L 14.275 20.027 10.671 20.020 C 8.688 20.016,6.995 20.022,6.907 20.034 M18.969 20.783 C 18.567 20.849,18.432 21.106,16.428 25.627 C 15.093 28.639,14.988 28.920,15.066 29.277 C 15.182 29.805,15.934 30.136,16.454 29.889 C 16.781 29.734,16.917 29.469,18.506 25.893 C 19.717 23.170,20.167 22.115,20.233 21.851 C 20.311 21.535,20.065 21.051,19.740 20.883 C 19.576 20.799,19.186 20.748,18.969 20.783 " fill="#1A1C1F" stroke="none" fill-rule="evenodd"></path></svg>