<svg width="20" height="20" viewBox="0 0 20 20" fill="none" xmlns="http://www.w3.org/2000/svg"><path d="M9.383 3.537 C 8.119 3.655,6.777 4.220,5.807 5.042 C 3.841 6.708,3.055 9.323,3.769 11.814 C 4.072 12.872,4.617 13.790,5.414 14.586 C 6.379 15.551,7.543 16.159,8.900 16.408 C 9.451 16.508,10.518 16.508,11.067 16.407 C 12.022 16.231,12.858 15.901,13.594 15.409 C 15.215 14.325,16.247 12.615,16.466 10.650 C 16.639 9.103,16.165 7.406,15.197 6.099 C 14.942 5.754,14.273 5.082,13.933 4.829 C 12.626 3.855,10.983 3.388,9.383 3.537 M10.678 5.571 C 11.447 5.668,12.313 6.071,12.946 6.625 C 13.709 7.293,14.248 8.247,14.419 9.235 C 14.502 9.715,14.471 10.637,14.357 11.070 C 13.905 12.788,12.588 14.044,10.847 14.418 C 10.483 14.497,9.521 14.498,9.159 14.420 C 7.412 14.044,6.056 12.748,5.625 11.043 C 5.560 10.783,5.551 10.664,5.551 10.000 C 5.551 9.336,5.560 9.217,5.625 8.957 C 5.855 8.050,6.446 7.110,7.140 6.551 C 8.004 5.855,9.074 5.476,10.050 5.521 C 10.252 5.530,10.534 5.553,10.678 5.571 M9.733 8.033 C 9.416 8.073,9.012 8.242,8.712 8.461 C 8.545 8.583,8.305 8.911,8.166 9.207 C 7.951 9.667,7.962 10.352,8.193 10.842 C 8.422 11.326,8.698 11.595,9.214 11.837 C 9.658 12.045,10.367 12.035,10.829 11.816 C 11.652 11.425,12.074 10.646,11.968 9.712 C 11.916 9.256,11.617 8.710,11.276 8.450 C 10.858 8.130,10.256 7.968,9.733 8.033 " fill="#1A1C1F" stroke="none" fill-rule="evenodd"></path></svg>