<svg width="24" height="24" viewBox="0 0 24 24" fill="none" xmlns="http://www.w3.org/2000/svg"><path d="M10.880 4.585 C 8.931 4.947,7.338 5.871,6.164 7.323 C 5.074 8.669,4.521 10.244,4.521 12.000 C 4.521 13.753,5.073 15.323,6.163 16.679 C 7.360 18.167,9.088 19.153,10.969 19.420 C 11.509 19.497,12.531 19.496,13.050 19.419 C 14.773 19.162,16.307 18.352,17.497 17.071 C 18.791 15.677,19.480 13.915,19.480 12.000 C 19.480 9.804,18.577 7.818,16.920 6.368 C 16.023 5.583,14.798 4.958,13.600 4.673 C 13.309 4.603,13.096 4.590,12.120 4.579 C 11.493 4.572,10.935 4.575,10.880 4.585 M13.106 6.622 C 14.146 6.835,15.064 7.340,15.862 8.138 C 16.666 8.941,17.158 9.839,17.386 10.920 C 17.487 11.399,17.487 12.601,17.386 13.080 C 17.167 14.120,16.699 15.003,15.962 15.773 C 15.466 16.289,15.010 16.629,14.420 16.919 C 13.515 17.365,12.858 17.502,11.787 17.469 C 11.223 17.451,11.031 17.429,10.713 17.345 C 9.636 17.059,8.815 16.579,8.059 15.793 C 7.329 15.034,6.840 14.119,6.616 13.091 C 6.533 12.713,6.522 11.591,6.596 11.086 C 6.756 9.994,7.271 9.001,8.117 8.158 C 8.960 7.317,9.887 6.817,11.004 6.602 C 11.352 6.535,11.531 6.524,12.106 6.540 C 12.505 6.550,12.924 6.585,13.106 6.622 M11.628 10.043 C 11.058 10.160,10.483 10.600,10.217 11.127 C 9.821 11.908,9.981 12.781,10.635 13.412 C 11.465 14.214,12.612 14.194,13.412 13.365 C 14.045 12.710,14.173 11.861,13.757 11.081 C 13.536 10.665,13.086 10.280,12.636 10.122 C 12.368 10.028,11.888 9.990,11.628 10.043 " fill="#1A1C1F" stroke="none" fill-rule="evenodd"></path></svg>