<svg width="32" height="32" viewBox="0 0 32 32" fill="none" xmlns="http://www.w3.org/2000/svg"><path d="M14.800 6.589 C 13.248 6.798,12.026 7.256,10.761 8.102 C 7.490 10.289,5.903 14.181,6.724 18.000 C 7.140 19.938,8.113 21.607,9.653 23.028 C 10.922 24.198,12.488 24.978,14.293 25.342 C 14.817 25.448,15.066 25.465,16.000 25.464 C 16.923 25.464,17.189 25.444,17.707 25.341 C 20.647 24.754,23.091 22.945,24.420 20.373 C 27.090 15.209,24.572 8.937,19.062 7.023 C 18.234 6.735,17.605 6.620,16.549 6.561 C 15.427 6.499,15.477 6.498,14.800 6.589 M17.467 8.660 C 19.081 8.993,20.432 9.782,21.605 11.076 C 22.430 11.986,23.041 13.197,23.341 14.511 C 23.474 15.092,23.472 16.869,23.339 17.491 C 23.015 18.996,22.344 20.227,21.257 21.307 C 20.231 22.326,19.168 22.922,17.680 23.312 C 17.244 23.427,17.090 23.438,16.000 23.438 C 14.688 23.438,14.403 23.393,13.413 23.030 C 11.000 22.143,9.216 20.064,8.661 17.491 C 8.507 16.780,8.521 15.146,8.686 14.400 C 9.000 12.982,9.676 11.757,10.717 10.718 C 11.528 9.910,12.466 9.306,13.471 8.944 C 13.828 8.816,14.685 8.616,15.093 8.566 C 15.466 8.520,17.103 8.585,17.467 8.660 M15.288 13.095 C 14.501 13.293,13.743 13.886,13.379 14.587 C 12.735 15.829,12.953 17.183,13.951 18.131 C 14.565 18.713,15.219 18.984,16.019 18.986 C 17.615 18.989,18.987 17.609,18.987 16.000 C 18.987 14.700,18.058 13.464,16.839 13.143 C 16.403 13.028,15.646 13.004,15.288 13.095 " fill="#1A1C1F" stroke="none" fill-rule="evenodd"></path></svg>