<svg width="20" height="20" viewBox="0 0 20 20" fill="none" xmlns="http://www.w3.org/2000/svg"><path d="M16.738 2.036 C 16.540 2.075,16.448 2.150,15.711 2.877 L 15.071 3.507 14.960 3.422 C 14.899 3.375,14.780 3.319,14.696 3.296 C 14.521 3.250,14.233 3.288,13.268 3.485 C 12.644 3.612,12.520 3.675,12.352 3.947 C 12.209 4.177,12.222 4.326,12.447 5.050 C 12.549 5.380,12.633 5.676,12.633 5.707 C 12.633 5.775,12.560 5.800,10.207 6.504 C 9.285 6.780,8.512 6.999,8.490 6.991 C 8.451 6.976,8.099 6.154,8.100 6.080 C 8.100 6.060,8.159 6.026,8.232 6.004 C 8.709 5.862,8.886 5.215,8.557 4.816 C 8.374 4.594,8.337 4.588,7.183 4.573 C 5.743 4.556,5.608 4.580,5.384 4.896 C 5.303 5.011,5.283 5.077,5.273 5.260 C 5.264 5.446,5.275 5.508,5.342 5.633 C 5.500 5.930,5.788 6.067,6.252 6.067 C 6.370 6.067,6.467 6.071,6.467 6.077 C 6.467 6.083,6.653 6.543,6.881 7.099 L 7.296 8.109 7.024 8.446 C 6.875 8.632,6.644 8.914,6.510 9.073 L 6.266 9.363 6.086 9.283 C 5.727 9.124,5.516 9.086,5.000 9.088 C 4.438 9.090,4.229 9.134,3.821 9.333 C 3.247 9.615,2.810 10.044,2.549 10.583 C 2.327 11.042,2.285 11.236,2.285 11.800 C 2.284 12.349,2.324 12.538,2.536 12.986 C 2.816 13.579,3.381 14.108,3.976 14.336 L 4.167 14.409 3.158 15.430 C 2.553 16.041,2.122 16.504,2.083 16.583 C 1.983 16.786,1.990 17.197,2.097 17.414 C 2.201 17.624,2.398 17.821,2.595 17.910 C 2.800 18.003,3.230 18.009,3.395 17.921 C 3.456 17.888,4.281 17.099,5.228 16.167 C 6.923 14.498,13.485 7.933,16.421 4.966 C 17.890 3.482,17.924 3.446,17.966 3.271 C 18.014 3.071,17.993 2.794,17.917 2.611 C 17.742 2.193,17.226 1.942,16.738 2.036 M10.004 8.574 C 9.435 9.135,9.388 9.174,9.346 9.116 C 9.305 9.060,9.139 8.655,9.087 8.483 C 9.069 8.421,9.127 8.397,9.775 8.194 C 10.165 8.073,10.513 7.972,10.550 7.971 C 10.595 7.969,10.420 8.163,10.004 8.574 M13.808 10.372 L 12.500 11.684 12.500 11.860 C 12.500 11.957,12.524 12.152,12.553 12.293 C 12.674 12.883,12.951 13.385,13.377 13.790 C 13.868 14.256,14.433 14.497,15.103 14.526 C 15.553 14.545,15.823 14.505,16.215 14.363 C 16.825 14.143,17.408 13.616,17.712 13.010 C 17.760 12.915,17.838 12.705,17.885 12.544 C 18.259 11.259,17.633 9.902,16.397 9.319 C 16.066 9.163,15.813 9.099,15.433 9.078 L 15.117 9.061 13.808 10.372 M8.185 10.306 C 8.201 10.355,8.137 10.440,7.914 10.667 L 7.623 10.965 7.512 10.691 C 7.451 10.540,7.408 10.398,7.416 10.375 C 7.424 10.352,7.547 10.190,7.688 10.014 L 7.944 9.695 8.055 9.968 C 8.115 10.119,8.174 10.270,8.185 10.306 M5.518 10.680 C 5.770 10.795,5.981 11.003,6.108 11.262 C 6.209 11.466,6.217 11.506,6.217 11.816 C 6.217 12.133,6.211 12.161,6.103 12.360 C 5.974 12.598,5.745 12.821,5.509 12.937 C 5.372 13.005,5.301 13.016,5.000 13.016 C 4.698 13.017,4.628 13.006,4.489 12.937 C 4.275 12.832,3.996 12.555,3.887 12.341 C 3.809 12.186,3.800 12.132,3.800 11.800 C 3.800 11.471,3.809 11.413,3.885 11.264 C 4.048 10.941,4.330 10.705,4.664 10.610 C 4.890 10.546,5.299 10.579,5.518 10.680 M15.801 10.701 C 16.056 10.829,16.237 11.011,16.366 11.265 C 16.458 11.448,16.467 11.493,16.467 11.803 C 16.467 12.118,16.460 12.154,16.361 12.338 C 16.221 12.601,15.924 12.874,15.676 12.967 C 15.150 13.165,14.553 12.964,14.226 12.479 C 14.072 12.252,14.024 12.085,14.025 11.783 C 14.028 11.255,14.338 10.818,14.844 10.629 C 15.105 10.532,15.530 10.563,15.801 10.701 " fill="#1A1C1F" stroke="none" fill-rule="evenodd"></path></svg>