<svg width="24" height="24" viewBox="0 0 24 24" fill="none" xmlns="http://www.w3.org/2000/svg"><path d="M19.343 2.841 C 19.234 2.911,18.720 3.389,18.200 3.903 L 17.256 4.838 16.458 5.000 C 15.177 5.261,14.986 5.332,14.825 5.610 C 14.622 5.961,14.618 6.068,14.784 6.648 L 14.933 7.167 14.312 7.788 L 13.691 8.409 11.837 8.964 C 10.817 9.270,9.978 9.520,9.972 9.520 C 9.948 9.520,9.796 9.189,9.630 8.776 L 9.452 8.334 9.649 8.265 C 10.349 8.016,10.489 7.042,9.885 6.623 C 9.654 6.463,9.299 6.432,7.872 6.447 C 6.671 6.460,6.658 6.461,6.465 6.560 C 6.138 6.726,5.960 7.016,5.960 7.380 C 5.960 7.745,6.180 8.094,6.489 8.221 C 6.592 8.263,6.813 8.298,7.045 8.310 L 7.429 8.330 7.940 9.600 L 8.451 10.870 8.198 11.205 C 7.843 11.674,7.367 12.273,7.279 12.361 C 7.207 12.433,7.195 12.431,6.830 12.301 C 6.339 12.125,5.896 12.062,5.363 12.093 C 4.433 12.147,3.746 12.481,3.047 13.220 C 2.678 13.609,2.436 14.047,2.272 14.620 C 2.141 15.077,2.142 15.916,2.274 16.380 C 2.466 17.057,2.789 17.564,3.362 18.087 L 3.692 18.389 3.203 18.897 C 2.924 19.187,2.682 19.476,2.638 19.572 C 2.537 19.796,2.538 20.129,2.642 20.358 C 2.751 20.598,3.336 21.172,3.543 21.242 C 3.769 21.319,4.113 21.310,4.277 21.223 C 4.468 21.122,7.605 18.023,13.762 11.853 C 20.222 5.380,20.985 4.602,21.083 4.386 C 21.257 4.001,21.131 3.608,20.692 3.170 C 20.356 2.834,20.185 2.748,19.820 2.729 C 19.562 2.715,19.525 2.724,19.343 2.841 M17.327 11.751 C 16.474 12.636,16.478 12.631,16.034 13.055 C 15.280 13.774,14.966 14.568,15.011 15.637 C 15.036 16.221,15.122 16.569,15.368 17.080 C 15.511 17.378,15.591 17.479,16.016 17.902 C 16.433 18.318,16.547 18.408,16.840 18.552 C 18.276 19.256,20.021 18.913,21.014 17.732 C 22.202 16.319,22.097 14.302,20.769 13.034 C 20.216 12.505,19.573 12.198,18.833 12.109 L 18.438 12.062 18.278 11.553 C 18.190 11.272,18.102 11.034,18.084 11.022 C 18.065 11.011,17.724 11.338,17.327 11.751 M6.269 14.103 C 6.544 14.237,6.844 14.531,6.980 14.800 L 7.087 15.012 6.314 15.789 C 5.888 16.216,5.436 16.657,5.308 16.768 L 5.077 16.971 4.910 16.896 C 4.673 16.789,4.335 16.443,4.219 16.188 C 3.817 15.312,4.200 14.368,5.093 14.035 C 5.392 13.923,5.970 13.956,6.269 14.103 M19.067 14.123 C 19.352 14.260,19.621 14.536,19.777 14.849 C 19.869 15.033,19.880 15.103,19.880 15.490 C 19.880 15.873,19.868 15.951,19.778 16.140 C 19.414 16.910,18.498 17.259,17.730 16.920 C 17.465 16.803,17.109 16.439,16.975 16.148 C 16.871 15.925,16.860 15.858,16.860 15.480 C 16.860 15.101,16.872 15.037,16.973 14.831 C 17.114 14.542,17.371 14.277,17.646 14.136 C 17.935 13.988,18.080 13.961,18.480 13.984 C 18.751 13.999,18.871 14.027,19.067 14.123 " fill="#1A1C1F" stroke="none" fill-rule="evenodd"></path></svg>