<svg width="32" height="32" viewBox="0 0 32 32" fill="none" xmlns="http://www.w3.org/2000/svg"><path d="M26.731 4.036 C 26.584 4.066,25.629 4.946,24.409 6.173 L 23.511 7.077 23.262 7.053 C 22.804 7.010,20.630 7.513,20.319 7.734 C 20.240 7.791,20.122 7.959,20.058 8.109 C 19.920 8.428,19.941 8.588,20.250 9.563 C 20.434 10.143,20.434 10.149,20.331 10.252 C 20.183 10.401,19.824 10.508,18.122 10.909 C 14.585 11.743,13.631 11.943,13.568 11.863 C 13.535 11.821,13.384 11.411,13.231 10.952 C 13.035 10.362,12.971 10.106,13.015 10.079 C 13.048 10.058,13.332 10.029,13.645 10.014 C 14.285 9.983,14.527 9.905,14.731 9.662 C 15.131 9.187,15.038 8.513,14.524 8.161 C 14.346 8.039,14.333 8.038,12.119 8.012 L 9.893 7.985 9.618 8.124 C 9.022 8.426,8.847 9.023,9.199 9.555 C 9.394 9.849,9.709 9.981,10.299 10.014 C 10.555 10.029,10.787 10.056,10.816 10.074 C 10.880 10.114,11.628 12.468,11.664 12.740 C 11.687 12.923,11.647 12.984,10.937 13.851 L 10.185 14.768 9.840 14.613 C 9.650 14.528,9.296 14.392,9.054 14.310 C 8.629 14.167,8.573 14.162,7.520 14.161 C 6.521 14.160,6.392 14.171,6.027 14.285 C 4.016 14.914,2.602 16.414,2.135 18.416 C 1.979 19.084,1.952 19.627,2.046 20.240 C 2.354 22.271,3.477 23.767,5.352 24.644 C 5.547 24.735,5.707 24.820,5.707 24.833 C 5.707 24.845,5.385 25.189,4.991 25.597 C 4.136 26.484,3.975 26.727,4.014 27.075 C 4.050 27.397,4.285 27.727,4.587 27.884 C 4.931 28.061,5.260 28.018,5.592 27.752 C 5.940 27.474,27.030 6.377,27.564 5.774 C 27.957 5.330,28.000 5.259,28.000 5.065 C 28.000 4.685,27.776 4.295,27.466 4.133 C 27.311 4.053,26.908 3.999,26.731 4.036 M22.561 13.685 C 21.882 14.378,21.804 14.476,21.831 14.606 C 21.857 14.738,21.826 14.775,21.505 14.989 C 19.493 16.334,18.569 18.818,19.230 21.101 C 19.492 22.004,19.955 22.782,20.637 23.463 C 21.770 24.596,23.204 25.133,24.876 25.052 C 27.850 24.908,30.257 22.113,29.972 19.137 C 29.766 16.992,28.419 15.210,26.442 14.467 C 25.746 14.206,25.350 14.135,24.560 14.133 C 24.179 14.132,23.839 14.114,23.806 14.093 C 23.773 14.071,23.670 13.808,23.578 13.509 C 23.486 13.209,23.390 12.952,23.365 12.937 C 23.341 12.921,22.979 13.258,22.561 13.685 M17.287 13.267 C 17.228 13.347,16.643 13.949,15.987 14.603 L 14.793 15.792 14.513 14.896 C 14.358 14.403,14.224 13.974,14.214 13.942 C 14.199 13.892,14.964 13.692,17.040 13.204 C 17.216 13.163,17.368 13.127,17.377 13.124 C 17.386 13.122,17.346 13.186,17.287 13.267 M12.880 16.327 L 13.217 17.360 12.971 17.613 L 12.725 17.865 12.611 17.586 C 12.427 17.135,12.216 16.743,11.966 16.382 L 11.731 16.045 11.955 15.769 C 12.335 15.302,12.445 15.197,12.495 15.247 C 12.521 15.273,12.694 15.759,12.880 16.327 M8.406 16.219 C 8.923 16.318,8.929 16.298,8.101 17.307 C 7.023 18.620,6.728 19.021,6.689 19.229 C 6.563 19.905,7.192 20.530,7.871 20.403 C 8.133 20.354,8.406 20.089,9.242 19.074 C 10.142 17.981,10.343 17.760,10.436 17.760 C 10.596 17.760,10.987 18.911,10.987 19.382 C 10.987 19.598,10.965 19.622,9.240 21.347 C 7.273 23.313,7.484 23.174,6.742 22.987 C 6.032 22.807,5.583 22.551,5.065 22.031 C 4.340 21.301,4.053 20.610,4.054 19.602 C 4.055 18.739,4.221 18.224,4.724 17.513 C 5.223 16.810,6.093 16.276,6.924 16.164 C 7.313 16.111,7.978 16.136,8.406 16.219 M25.547 16.263 C 26.371 16.519,27.187 17.203,27.562 17.950 C 27.940 18.704,28.047 19.269,27.948 19.994 C 27.834 20.824,27.513 21.492,26.959 22.052 C 26.563 22.454,26.128 22.722,25.576 22.908 C 25.181 23.040,25.102 23.048,24.403 23.030 C 23.726 23.012,23.617 22.995,23.280 22.857 C 22.459 22.520,21.824 21.960,21.452 21.242 C 21.120 20.603,21.043 20.285,21.046 19.573 C 21.048 19.048,21.069 18.899,21.194 18.533 C 21.387 17.972,21.729 17.430,22.139 17.039 L 22.472 16.722 22.591 17.094 C 22.657 17.299,22.893 18.034,23.115 18.727 C 23.496 19.917,23.530 19.997,23.730 20.177 C 24.153 20.560,24.611 20.558,25.024 20.171 C 25.421 19.800,25.444 19.656,25.227 18.864 C 25.129 18.506,24.899 17.736,24.716 17.152 L 24.383 16.092 24.791 16.123 C 25.016 16.141,25.356 16.203,25.547 16.263 " fill="#1A1C1F" stroke="none" fill-rule="evenodd"></path></svg>