<svg width="24" height="24" viewBox="0 0 24 24" fill="none" xmlns="http://www.w3.org/2000/svg"><path d="M16.400 2.038 C 15.947 2.062,15.818 2.084,15.600 2.175 C 14.905 2.462,14.357 3.044,14.112 3.754 L 14.020 4.020 14.020 6.540 L 14.020 9.060 14.145 9.368 C 14.446 10.110,14.965 10.595,15.789 10.905 L 16.042 11.000 18.471 10.999 C 19.807 10.999,21.014 10.982,21.154 10.962 C 21.456 10.918,21.624 10.813,21.793 10.563 C 21.982 10.283,22.026 10.068,21.947 9.797 C 21.857 9.487,21.736 9.328,21.480 9.184 L 21.260 9.060 18.820 9.039 C 17.058 9.025,16.350 9.006,16.272 8.971 C 16.213 8.945,16.132 8.874,16.092 8.814 C 16.025 8.712,16.019 8.544,16.008 6.502 L 15.996 4.300 16.138 4.162 L 16.280 4.024 18.791 4.001 L 21.301 3.979 21.489 3.869 C 21.803 3.684,22.000 3.343,22.000 2.985 C 21.999 2.777,21.853 2.459,21.677 2.283 C 21.415 2.021,21.482 2.028,19.100 2.018 C 17.912 2.012,16.697 2.021,16.400 2.038 M2.773 3.039 C 2.460 3.087,2.152 3.380,2.039 3.736 C 1.926 4.093,2.089 4.570,2.401 4.796 C 2.563 4.913,2.724 4.964,3.160 5.036 C 3.483 5.089,3.702 5.236,3.830 5.484 C 3.959 5.735,3.998 6.290,3.999 7.907 L 4.000 9.195 4.677 12.547 C 5.575 16.997,5.734 17.737,5.854 18.033 C 6.198 18.879,7.019 19.601,7.962 19.885 C 8.255 19.973,8.302 19.975,10.760 19.989 L 13.260 20.002 13.471 19.880 C 14.149 19.486,14.151 18.616,13.476 18.160 L 13.269 18.020 10.965 18.009 C 9.697 18.003,8.603 17.989,8.533 17.978 C 8.348 17.948,7.949 17.667,7.825 17.480 C 7.674 17.252,7.582 16.836,6.499 11.480 L 6.034 9.180 6.000 7.380 C 5.968 5.606,5.966 5.575,5.863 5.220 C 5.805 5.022,5.697 4.734,5.621 4.580 C 5.380 4.087,4.852 3.550,4.380 3.318 C 3.948 3.106,3.192 2.974,2.773 3.039 M9.622 3.040 C 9.294 3.099,8.857 3.342,8.579 3.620 C 7.803 4.396,7.812 5.647,8.598 6.417 C 9.370 7.173,10.543 7.189,11.355 6.455 C 12.159 5.728,12.192 4.416,11.426 3.629 C 10.975 3.164,10.250 2.928,9.622 3.040 M9.140 9.045 C 8.512 9.192,8.206 9.976,8.560 10.534 C 8.761 10.850,9.078 10.997,9.565 10.999 C 9.906 11.001,10.037 11.039,10.178 11.181 C 10.332 11.334,10.351 11.415,10.762 13.660 C 10.916 14.496,11.070 15.259,11.106 15.355 C 11.177 15.548,11.402 15.796,11.608 15.908 C 11.729 15.974,11.911 15.982,13.727 16.000 C 14.819 16.011,15.723 16.029,15.734 16.041 C 15.746 16.053,16.054 17.259,16.419 18.721 C 17.138 21.598,17.131 21.578,17.461 21.809 C 17.549 21.870,17.723 21.942,17.848 21.968 C 18.163 22.034,18.446 21.945,18.696 21.702 C 19.026 21.381,19.061 21.163,18.903 20.429 C 18.742 19.687,17.670 15.449,17.475 14.787 C 17.381 14.468,17.204 14.248,16.936 14.118 C 16.762 14.034,16.702 14.031,14.818 14.010 C 12.889 13.988,12.878 13.987,12.860 13.904 C 12.849 13.858,12.750 13.332,12.640 12.735 C 12.398 11.424,12.270 10.838,12.176 10.599 C 11.943 10.013,11.483 9.505,10.945 9.238 C 10.647 9.090,10.566 9.069,10.195 9.038 C 9.676 8.995,9.346 8.997,9.140 9.045 " fill="#1A1C1F" stroke="none" fill-rule="evenodd"></path></svg>