<svg width="20" height="20" viewBox="0 0 20 20" fill="none" xmlns="http://www.w3.org/2000/svg"><path d="M9.637 2.074 C 9.576 2.095,9.373 2.250,9.187 2.418 C 8.611 2.941,7.152 4.441,7.088 4.576 C 6.999 4.767,6.980 5.115,7.048 5.347 C 7.103 5.536,7.134 5.571,8.210 6.649 C 8.819 7.259,9.392 7.808,9.483 7.870 C 9.632 7.971,9.678 7.984,9.917 7.994 C 10.130 8.003,10.223 7.991,10.380 7.932 C 10.786 7.780,11.020 7.403,10.992 6.950 C 10.974 6.662,10.899 6.508,10.642 6.231 L 10.450 6.023 12.369 6.042 C 13.977 6.058,14.309 6.069,14.410 6.112 C 14.564 6.176,14.807 6.418,14.905 6.605 L 14.981 6.750 14.993 8.983 L 15.005 11.217 15.081 11.383 C 15.169 11.578,15.390 11.810,15.581 11.907 C 15.766 12.002,16.075 12.022,16.307 11.954 C 16.536 11.888,16.795 11.665,16.906 11.441 L 16.983 11.283 16.983 8.900 L 16.983 6.517 16.905 6.250 C 16.733 5.666,16.478 5.238,16.050 4.817 C 15.755 4.527,15.554 4.393,15.127 4.206 L 14.850 4.085 14.217 4.062 C 13.868 4.050,12.882 4.038,12.025 4.036 C 11.168 4.035,10.467 4.024,10.467 4.013 C 10.467 4.003,10.556 3.896,10.665 3.777 C 10.798 3.632,10.882 3.504,10.921 3.389 C 10.989 3.187,10.995 2.836,10.933 2.650 C 10.877 2.480,10.620 2.206,10.441 2.127 C 10.269 2.050,9.800 2.019,9.637 2.074 M3.683 4.076 C 3.280 4.241,3.052 4.535,3.010 4.947 C 2.980 5.238,3.069 5.475,3.294 5.699 C 3.585 5.990,3.962 6.077,4.352 5.944 C 4.600 5.860,4.878 5.568,4.952 5.316 C 5.089 4.844,4.877 4.358,4.433 4.128 C 4.258 4.037,3.848 4.009,3.683 4.076 M3.686 8.066 C 3.541 8.113,3.295 8.291,3.191 8.426 C 3.016 8.653,3.017 8.640,3.017 11.150 L 3.017 13.483 3.096 13.767 C 3.257 14.341,3.507 14.774,3.914 15.184 C 4.296 15.570,4.660 15.786,5.177 15.938 C 5.406 16.004,5.509 16.008,7.474 16.025 L 9.531 16.041 9.363 16.229 C 9.087 16.537,9.017 16.699,9.018 17.033 C 9.018 17.282,9.030 17.338,9.114 17.492 C 9.263 17.762,9.491 17.908,9.858 17.968 C 10.059 18.001,10.305 17.966,10.490 17.878 C 10.622 17.815,11.958 16.520,12.489 15.939 C 12.862 15.531,12.946 15.399,12.980 15.165 C 13.014 14.928,12.951 14.709,12.782 14.483 C 12.593 14.230,11.021 12.587,10.733 12.341 C 10.428 12.080,10.286 12.024,9.971 12.039 C 9.785 12.048,9.673 12.074,9.554 12.134 C 9.338 12.243,9.126 12.484,9.056 12.701 C 8.936 13.071,9.006 13.340,9.316 13.706 C 9.436 13.847,9.533 13.980,9.533 14.001 C 9.533 14.029,9.050 14.036,7.658 14.025 C 5.935 14.013,5.770 14.007,5.617 13.950 C 5.391 13.866,5.119 13.593,5.066 13.396 C 5.038 13.295,5.018 12.562,5.001 11.017 C 4.973 8.572,4.979 8.634,4.770 8.371 C 4.616 8.176,4.375 8.069,4.049 8.050 C 3.903 8.042,3.740 8.049,3.686 8.066 M15.683 14.076 C 15.153 14.293,14.896 14.793,15.048 15.316 C 15.122 15.568,15.400 15.860,15.648 15.944 C 16.038 16.077,16.415 15.990,16.706 15.699 C 16.857 15.548,16.907 15.471,16.952 15.316 C 17.089 14.844,16.877 14.358,16.433 14.128 C 16.258 14.037,15.848 14.009,15.683 14.076 " fill="#1A1C1F" stroke="none" fill-rule="evenodd"></path></svg>