<svg width="24" height="24" viewBox="0 0 24 24" fill="none" xmlns="http://www.w3.org/2000/svg"><path d="M13.730 2.029 C 13.569 2.049,12.761 2.800,11.217 4.366 C 10.039 5.562,9.981 5.644,10.007 6.058 C 10.020 6.255,10.049 6.350,10.140 6.486 C 10.292 6.712,13.287 9.709,13.511 9.858 C 14.002 10.186,14.765 9.897,14.937 9.316 C 15.023 9.028,15.016 8.818,14.913 8.606 C 14.859 8.493,14.566 8.161,14.128 7.713 L 13.429 7.000 14.625 7.001 C 16.146 7.002,16.468 7.032,16.827 7.203 C 17.202 7.381,17.620 7.801,17.801 8.180 C 17.921 8.434,17.936 8.508,17.965 8.980 C 17.982 9.266,17.997 10.781,17.998 12.347 L 18.000 15.194 17.863 15.239 C 17.685 15.298,17.278 15.561,17.004 15.793 C 16.281 16.407,15.884 17.507,16.039 18.468 C 16.232 19.676,17.023 20.582,18.149 20.887 C 18.616 21.014,19.392 21.013,19.800 20.886 C 21.389 20.391,22.304 18.812,21.901 17.260 C 21.690 16.444,21.057 15.689,20.270 15.313 L 20.000 15.183 20.000 11.802 L 20.000 8.420 19.896 8.060 C 19.477 6.614,18.538 5.624,17.160 5.180 C 16.867 5.085,16.721 5.066,16.100 5.038 C 15.704 5.020,14.941 5.004,14.404 5.003 L 13.428 5.000 14.131 4.285 C 14.517 3.892,14.871 3.497,14.917 3.407 C 15.133 2.983,14.905 2.331,14.470 2.128 C 14.295 2.046,13.960 2.002,13.730 2.029 M4.459 3.058 C 3.613 3.212,2.705 3.879,2.350 4.607 C 2.092 5.138,2.020 5.439,2.021 5.980 C 2.022 6.544,2.087 6.831,2.319 7.300 C 2.617 7.905,3.096 8.384,3.686 8.669 L 3.997 8.820 3.999 12.202 L 4.000 15.583 4.098 15.922 C 4.457 17.158,5.212 18.094,6.260 18.599 C 6.984 18.948,7.341 18.995,9.276 18.998 L 10.572 19.000 9.869 19.715 C 9.483 20.108,9.129 20.503,9.083 20.593 C 8.939 20.876,8.999 21.334,9.218 21.621 C 9.394 21.852,9.650 21.976,9.957 21.977 C 10.439 21.978,10.387 22.019,12.141 20.264 C 13.023 19.382,13.797 18.582,13.861 18.486 C 13.950 18.351,13.980 18.254,13.993 18.058 C 14.021 17.619,14.007 17.601,12.263 15.855 C 11.403 14.994,10.624 14.236,10.530 14.170 C 10.091 13.858,9.394 14.030,9.125 14.515 C 9.065 14.624,9.023 14.780,9.010 14.940 C 8.978 15.333,9.061 15.462,9.877 16.293 L 10.578 17.006 9.099 16.992 C 7.684 16.978,7.609 16.974,7.367 16.887 C 7.228 16.838,7.043 16.752,6.955 16.697 C 6.608 16.478,6.270 16.046,6.114 15.620 C 6.027 15.381,6.026 15.362,6.011 12.100 L 5.996 8.820 6.308 8.672 C 7.472 8.122,8.182 6.766,7.949 5.539 C 7.816 4.842,7.545 4.339,7.032 3.839 C 6.362 3.185,5.388 2.889,4.459 3.058 M5.500 5.157 C 5.863 5.358,6.051 5.799,5.958 6.234 C 5.843 6.767,5.342 7.077,4.782 6.960 C 4.150 6.829,3.825 6.105,4.138 5.530 C 4.411 5.029,4.985 4.872,5.500 5.157 M19.500 17.157 C 19.863 17.358,20.051 17.799,19.958 18.234 C 19.843 18.767,19.342 19.077,18.782 18.960 C 18.150 18.829,17.825 18.105,18.138 17.530 C 18.411 17.029,18.985 16.872,19.500 17.157 " fill="#1A1C1F" stroke="none" fill-rule="evenodd"></path></svg>