<svg width="32" height="32" viewBox="0 0 32 32" fill="none" xmlns="http://www.w3.org/2000/svg"><path d="M16.593 2.084 C 16.447 2.143,13.569 4.980,12.664 5.959 C 12.127 6.539,12.056 6.637,12.024 6.854 C 11.952 7.333,12.030 7.441,13.647 9.081 C 14.457 9.903,15.451 10.883,15.855 11.258 C 16.500 11.856,16.619 11.945,16.819 11.975 C 17.094 12.016,17.426 11.935,17.626 11.777 C 17.958 11.517,18.078 10.869,17.862 10.507 C 17.801 10.404,17.219 9.796,16.569 9.155 L 15.387 7.990 18.934 8.014 C 21.804 8.034,22.536 8.053,22.774 8.116 C 23.790 8.384,24.738 9.375,24.908 10.349 C 24.946 10.571,24.978 12.054,24.997 14.533 L 25.026 18.373 25.206 18.596 C 25.439 18.882,25.765 19.014,26.136 18.970 C 26.451 18.932,26.665 18.795,26.836 18.519 L 26.960 18.320 26.975 14.253 L 26.990 10.186 26.796 9.601 C 26.268 8.013,25.245 6.934,23.653 6.288 L 23.227 6.115 21.680 6.075 C 20.829 6.054,19.109 6.034,17.856 6.031 C 16.247 6.028,15.569 6.009,15.543 5.967 C 15.522 5.933,15.949 5.461,16.570 4.834 C 17.998 3.393,17.973 3.424,17.973 3.063 C 17.973 2.755,17.854 2.448,17.670 2.282 C 17.422 2.057,16.900 1.961,16.593 2.084 M5.025 3.140 C 4.210 3.347,3.326 3.919,2.851 4.545 C 2.037 5.619,1.810 7.007,2.240 8.284 C 2.461 8.941,2.721 9.346,3.253 9.862 C 3.753 10.348,4.110 10.571,4.733 10.790 C 5.175 10.945,5.243 10.953,6.000 10.953 C 6.731 10.952,6.837 10.939,7.227 10.806 C 7.820 10.604,8.290 10.311,8.755 9.856 C 9.344 9.278,9.601 8.857,9.847 8.072 C 10.001 7.579,9.987 6.397,9.822 5.867 C 9.415 4.564,8.461 3.603,7.173 3.198 C 6.641 3.031,5.568 3.002,5.025 3.140 M6.340 5.069 C 6.760 5.137,7.035 5.274,7.358 5.577 C 8.359 6.513,8.077 8.204,6.822 8.798 C 6.074 9.152,5.223 9.001,4.633 8.411 C 3.849 7.627,3.819 6.489,4.561 5.663 C 4.795 5.403,5.225 5.133,5.517 5.063 C 5.756 5.006,5.959 5.007,6.340 5.069 M5.554 13.125 C 5.426 13.190,5.252 13.339,5.168 13.456 L 5.013 13.669 5.013 17.763 L 5.013 21.856 5.205 22.406 C 5.424 23.037,5.526 23.249,5.839 23.737 C 6.444 24.675,7.356 25.364,8.533 25.773 C 9.139 25.983,9.890 26.020,13.650 26.024 L 16.553 26.027 15.433 27.160 C 14.042 28.569,14.002 28.620,14.008 28.989 C 14.019 29.772,14.858 30.256,15.478 29.836 C 15.604 29.751,16.623 28.768,17.743 27.653 C 19.839 25.568,19.998 25.380,19.998 24.987 C 19.998 24.599,19.836 24.407,17.772 22.347 C 16.665 21.243,15.642 20.263,15.498 20.170 C 15.169 19.957,14.941 19.952,14.556 20.147 C 14.174 20.340,14.011 20.633,14.039 21.072 C 14.066 21.484,14.229 21.690,15.529 22.958 L 16.602 24.006 13.008 23.988 L 9.413 23.971 9.040 23.835 C 8.835 23.760,8.568 23.637,8.448 23.561 C 7.943 23.241,7.414 22.595,7.190 22.022 C 7.041 21.643,6.997 20.408,6.991 16.528 L 6.987 13.669 6.833 13.457 C 6.544 13.058,5.976 12.911,5.554 13.125 M25.253 21.089 C 24.021 21.329,22.997 22.108,22.433 23.234 C 22.112 23.876,22.053 24.150,22.053 25.013 C 22.053 25.682,22.070 25.837,22.178 26.160 C 22.637 27.536,23.608 28.467,24.998 28.865 C 25.578 29.031,26.422 29.031,27.002 28.865 C 28.390 28.467,29.350 27.546,29.820 26.160 C 29.930 25.834,29.947 25.688,29.946 25.013 C 29.946 24.277,29.937 24.216,29.770 23.735 C 29.673 23.457,29.543 23.145,29.480 23.042 C 28.913 22.104,28.027 21.419,27.059 21.171 C 26.512 21.032,25.730 20.996,25.253 21.089 M26.871 23.220 C 27.261 23.421,27.577 23.752,27.789 24.184 C 27.948 24.507,27.968 24.595,27.968 24.988 C 27.968 25.390,27.950 25.466,27.770 25.831 C 27.549 26.278,27.203 26.631,26.786 26.835 C 26.574 26.938,26.448 26.958,26.000 26.959 C 25.525 26.959,25.434 26.943,25.167 26.812 C 24.782 26.624,24.411 26.225,24.199 25.773 C 24.055 25.465,24.032 25.357,24.033 24.988 C 24.034 24.668,24.063 24.496,24.148 24.306 C 24.399 23.744,24.793 23.354,25.325 23.139 C 25.712 22.983,26.490 23.024,26.871 23.220 " fill="#1A1C1F" stroke="none" fill-rule="evenodd"></path></svg>