<svg width="20" height="20" viewBox="0 0 20 20" fill="none" xmlns="http://www.w3.org/2000/svg"><path d="M3.867 2.032 C 3.488 2.060,3.358 2.098,2.990 2.290 C 2.603 2.491,2.322 2.825,2.105 3.341 L 2.017 3.550 2.017 9.883 C 2.017 14.991,2.025 16.262,2.061 16.450 C 2.123 16.779,2.302 17.100,2.583 17.384 C 2.847 17.652,3.027 17.768,3.376 17.895 L 3.617 17.983 8.000 17.983 L 12.383 17.983 12.633 17.887 C 13.248 17.651,13.655 17.244,13.886 16.633 C 13.980 16.385,13.980 16.379,13.993 15.458 C 14.001 14.854,13.993 14.473,13.968 14.359 C 13.913 14.103,13.754 13.879,13.521 13.728 C 13.326 13.602,13.318 13.600,13.000 13.600 C 12.682 13.600,12.674 13.602,12.480 13.727 C 12.372 13.797,12.241 13.916,12.189 13.991 C 12.021 14.235,12.000 14.371,12.000 15.222 L 12.000 16.000 8.000 16.000 L 4.000 16.000 4.000 10.001 L 4.000 4.003 5.625 3.993 C 7.246 3.983,7.250 3.983,7.406 3.906 C 7.909 3.659,8.125 3.082,7.896 2.600 C 7.784 2.365,7.630 2.211,7.400 2.105 L 7.217 2.020 5.717 2.013 C 4.892 2.010,4.059 2.018,3.867 2.032 M12.517 2.034 C 11.714 2.108,10.954 2.380,10.258 2.844 C 9.161 3.575,8.436 4.624,8.117 5.939 C 8.042 6.250,8.033 6.351,8.033 6.976 C 8.033 7.734,8.061 7.940,8.240 8.500 C 8.450 9.157,8.797 9.760,9.271 10.292 C 10.022 11.135,10.863 11.630,12.000 11.900 C 12.275 11.965,12.408 11.974,13.000 11.974 C 13.760 11.974,13.989 11.938,14.650 11.709 C 16.037 11.231,17.230 10.034,17.714 8.638 C 18.340 6.831,17.899 4.888,16.550 3.514 C 15.710 2.659,14.640 2.146,13.465 2.036 C 13.050 1.997,12.922 1.997,12.517 2.034 M14.000 5.291 L 14.000 6.583 14.591 7.174 L 15.181 7.765 14.477 8.472 L 13.773 9.178 12.887 8.300 L 12.000 7.422 12.000 5.711 L 12.000 4.000 13.000 4.000 L 14.000 4.000 14.000 5.291 M5.798 12.031 C 5.710 12.043,5.571 12.099,5.469 12.165 C 4.924 12.515,4.849 13.241,5.310 13.702 C 5.528 13.920,5.672 13.979,5.983 13.977 C 6.334 13.974,6.486 13.910,6.709 13.669 C 6.982 13.374,7.053 13.092,6.946 12.731 C 6.800 12.235,6.345 11.958,5.798 12.031 M8.783 12.029 C 8.353 12.143,8.000 12.575,8.000 12.988 C 8.000 13.386,8.340 13.842,8.719 13.952 C 9.187 14.088,9.670 13.853,9.905 13.375 C 10.024 13.135,10.015 12.809,9.885 12.573 C 9.831 12.475,9.734 12.349,9.670 12.293 C 9.431 12.083,9.032 11.964,8.783 12.029 " fill="#1A1C1F" stroke="none" fill-rule="evenodd"></path></svg>