<svg width="20" height="20" viewBox="0 0 20 20" fill="none" xmlns="http://www.w3.org/2000/svg"><path d="M9.711 3.046 C 9.409 3.144,9.186 3.346,9.046 3.648 L 8.967 3.817 8.967 10.000 L 8.967 16.183 9.048 16.356 C 9.153 16.583,9.367 16.811,9.561 16.906 C 9.772 17.008,10.150 17.011,10.367 16.911 C 10.553 16.825,10.785 16.626,10.854 16.493 C 10.886 16.431,10.917 16.235,10.935 15.988 C 10.951 15.765,10.965 13.071,10.965 10.000 C 10.965 6.929,10.951 4.235,10.935 4.012 C 10.903 3.563,10.868 3.466,10.678 3.300 C 10.410 3.064,9.992 2.954,9.711 3.046 M14.762 5.968 C 13.836 6.070,12.855 6.616,12.686 7.124 C 12.495 7.701,12.799 8.263,13.386 8.416 C 13.659 8.487,13.793 8.457,14.283 8.214 C 14.522 8.095,14.802 7.982,14.906 7.962 C 15.407 7.864,15.711 8.092,15.713 8.567 C 15.714 8.980,15.499 9.450,15.044 10.024 C 14.789 10.345,14.192 10.955,13.304 11.801 C 12.899 12.186,12.606 12.492,12.578 12.557 C 12.478 12.798,12.459 12.985,12.514 13.200 C 12.609 13.572,12.883 13.850,13.233 13.931 C 13.327 13.952,14.109 13.965,15.326 13.966 L 17.269 13.967 17.432 13.884 C 17.970 13.612,18.169 12.981,17.878 12.474 C 17.780 12.304,17.511 12.083,17.340 12.033 C 17.272 12.013,16.958 11.988,16.642 11.977 C 16.325 11.966,16.067 11.950,16.067 11.941 C 16.067 11.933,16.207 11.759,16.379 11.555 C 17.304 10.457,17.663 9.702,17.720 8.733 C 17.760 8.065,17.595 7.485,17.223 6.992 C 16.651 6.232,15.753 5.859,14.762 5.968 M4.417 6.034 C 3.907 6.180,2.837 6.557,2.617 6.667 C 2.251 6.849,2.079 7.159,2.106 7.583 C 2.139 8.100,2.563 8.500,3.078 8.500 C 3.174 8.500,3.376 8.464,3.527 8.421 L 3.800 8.341 3.800 10.165 L 3.800 11.990 3.253 12.009 C 2.647 12.031,2.554 12.058,2.299 12.288 C 1.886 12.661,1.887 13.327,2.302 13.715 C 2.605 13.999,2.454 13.982,4.774 13.993 L 6.831 14.002 7.000 13.917 C 7.205 13.813,7.404 13.620,7.506 13.426 C 7.605 13.238,7.612 12.780,7.518 12.600 C 7.405 12.383,7.271 12.245,7.066 12.136 C 6.866 12.029,6.850 12.026,6.333 12.009 L 5.803 11.990 5.792 9.353 C 5.783 7.324,5.770 6.687,5.737 6.587 C 5.686 6.432,5.430 6.167,5.235 6.068 C 5.031 5.963,4.709 5.950,4.417 6.034 " fill="#1A1C1F" stroke="none" fill-rule="evenodd"></path></svg>