<svg width="24" height="24" viewBox="0 0 24 24" fill="none" xmlns="http://www.w3.org/2000/svg"><path d="M11.830 4.080 C 11.651 4.134,11.404 4.355,11.278 4.575 L 11.161 4.780 11.160 11.991 L 11.160 19.203 11.257 19.395 C 11.442 19.759,11.770 19.963,12.171 19.965 C 12.461 19.967,12.696 19.858,12.913 19.623 C 13.046 19.479,13.079 19.409,13.107 19.215 C 13.125 19.086,13.140 15.785,13.140 11.880 C 13.140 6.110,13.130 4.752,13.087 4.631 C 13.015 4.427,12.690 4.142,12.464 4.085 C 12.259 4.034,11.991 4.031,11.830 4.080 M4.620 7.260 C 2.703 7.885,2.574 7.945,2.390 8.294 C 2.269 8.524,2.267 8.954,2.387 9.181 C 2.495 9.385,2.656 9.545,2.859 9.652 C 3.112 9.784,3.407 9.763,4.000 9.570 L 4.500 9.407 4.527 9.574 C 4.542 9.665,4.555 10.921,4.557 12.365 L 4.560 14.991 3.730 15.009 C 3.255 15.019,2.854 15.046,2.792 15.072 C 2.631 15.138,2.365 15.394,2.276 15.567 C 2.040 16.031,2.237 16.640,2.703 16.879 L 2.898 16.980 5.559 16.980 L 8.220 16.980 8.409 16.887 C 8.644 16.771,8.862 16.484,8.926 16.205 C 8.987 15.941,8.927 15.658,8.760 15.426 C 8.498 15.063,8.274 15.001,7.230 15.000 L 6.560 15.000 6.560 11.378 C 6.560 8.092,6.554 7.744,6.494 7.628 C 6.308 7.268,6.013 7.058,5.637 7.020 C 5.446 7.001,5.325 7.030,4.620 7.260 M17.743 7.042 C 17.080 7.145,16.230 7.503,15.783 7.867 C 15.476 8.117,15.360 8.334,15.360 8.656 C 15.361 9.125,15.636 9.497,16.076 9.626 C 16.351 9.706,16.552 9.679,16.836 9.522 C 17.490 9.162,17.693 9.082,18.083 9.033 C 18.542 8.976,18.748 9.019,19.021 9.227 C 19.282 9.426,19.401 9.656,19.427 10.009 C 19.458 10.426,19.390 10.719,19.147 11.220 C 18.716 12.106,18.107 12.787,15.869 14.892 C 15.340 15.390,15.276 15.464,15.221 15.649 C 15.145 15.906,15.144 16.065,15.218 16.276 C 15.301 16.510,15.463 16.707,15.676 16.832 L 15.860 16.940 18.322 16.954 C 20.968 16.968,21.143 16.958,21.411 16.773 C 21.867 16.456,21.957 15.755,21.593 15.341 C 21.285 14.992,21.264 14.987,19.932 14.968 L 18.763 14.951 19.213 14.465 C 20.055 13.558,20.651 12.771,20.960 12.160 C 21.114 11.854,21.304 11.304,21.378 10.945 C 21.461 10.542,21.461 9.674,21.378 9.346 C 21.284 8.977,20.994 8.414,20.740 8.108 C 20.345 7.631,19.672 7.211,19.127 7.100 C 18.770 7.027,18.036 6.997,17.743 7.042 " fill="#1A1C1F" stroke="none" fill-rule="evenodd"></path></svg>