<svg width="32" height="32" viewBox="0 0 32 32" fill="none" xmlns="http://www.w3.org/2000/svg"><path d="M15.651 5.114 C 15.381 5.236,15.163 5.491,15.109 5.748 C 15.086 5.857,15.067 10.519,15.068 16.108 L 15.070 26.270 15.194 26.470 C 15.550 27.046,16.222 27.150,16.727 26.706 C 17.096 26.383,17.067 27.295,17.067 16.000 C 17.067 4.697,17.096 5.617,16.724 5.291 C 16.407 5.012,16.016 4.948,15.651 5.114 M7.440 10.157 C 6.915 10.300,5.634 10.730,4.957 10.991 C 4.595 11.131,4.506 11.190,4.384 11.374 C 4.264 11.556,4.240 11.650,4.240 11.951 C 4.240 12.272,4.257 12.331,4.403 12.511 C 4.615 12.773,4.927 12.934,5.203 12.924 C 5.369 12.917,6.529 12.576,7.027 12.387 C 7.080 12.367,7.093 13.148,7.093 16.181 L 7.093 20.000 6.173 20.000 C 5.061 20.001,4.694 20.053,4.441 20.246 C 3.888 20.668,3.973 21.544,4.600 21.879 L 4.827 22.000 8.053 22.000 C 11.213 22.000,11.284 21.998,11.490 21.890 C 11.606 21.829,11.772 21.691,11.859 21.583 C 12.191 21.173,12.067 20.525,11.595 20.196 L 11.376 20.044 10.224 20.014 L 9.072 19.984 9.056 15.339 C 9.038 10.170,9.064 10.505,8.667 10.231 C 8.356 10.016,8.030 9.997,7.440 10.157 M23.013 10.082 C 21.976 10.244,20.597 10.961,20.395 11.443 C 20.210 11.887,20.366 12.421,20.757 12.680 C 20.935 12.797,21.039 12.826,21.276 12.824 C 21.534 12.822,21.649 12.781,22.149 12.512 C 22.859 12.130,23.133 12.055,23.816 12.054 C 24.326 12.053,24.365 12.062,24.641 12.227 C 24.963 12.420,25.288 12.812,25.380 13.118 C 25.471 13.422,25.452 14.015,25.337 14.465 C 25.196 15.018,24.880 15.622,24.391 16.276 C 23.965 16.844,22.428 18.421,21.025 19.729 C 20.280 20.423,20.053 20.714,20.053 20.977 C 20.053 21.329,20.330 21.774,20.634 21.912 C 20.806 21.991,21.172 22.000,24.031 22.000 L 27.234 22.000 27.451 21.857 C 28.073 21.445,28.087 20.581,27.477 20.203 C 27.283 20.082,27.250 20.080,25.507 20.063 C 24.461 20.054,23.733 20.026,23.733 19.997 C 23.733 19.970,24.102 19.567,24.552 19.101 C 26.119 17.482,26.879 16.368,27.221 15.188 C 27.582 13.943,27.537 12.938,27.079 12.000 C 26.902 11.636,26.768 11.457,26.402 11.092 C 25.932 10.623,25.553 10.382,24.979 10.184 C 24.620 10.061,23.517 10.003,23.013 10.082 " fill="#1A1C1F" stroke="none" fill-rule="evenodd"></path></svg>