<svg width="24" height="24" viewBox="0 0 24 24" fill="none" xmlns="http://www.w3.org/2000/svg"><path d="M4.820 7.558 L 3.860 7.580 3.520 7.747 C 2.676 8.163,2.140 8.887,2.041 9.745 C 2.018 9.946,2.001 11.099,2.001 12.400 L 2.001 14.700 2.118 14.904 C 2.247 15.129,2.404 15.277,2.655 15.412 C 2.806 15.492,2.870 15.499,3.410 15.492 L 4.000 15.485 4.000 15.595 C 4.000 15.759,4.184 16.096,4.360 16.255 C 4.620 16.490,4.685 16.498,6.500 16.498 C 8.315 16.498,8.380 16.490,8.640 16.255 C 8.808 16.103,9.000 15.761,9.000 15.612 L 9.000 15.520 11.995 15.520 L 14.990 15.520 15.015 15.675 C 15.047 15.877,15.255 16.175,15.473 16.333 C 15.637 16.452,15.668 16.459,16.153 16.486 C 16.803 16.521,18.196 16.521,18.845 16.486 C 19.305 16.461,19.363 16.449,19.505 16.350 C 19.717 16.202,19.886 15.980,19.967 15.740 L 20.034 15.540 20.567 15.518 C 21.228 15.490,21.405 15.437,21.646 15.197 C 22.022 14.822,22.000 14.999,22.000 12.392 C 21.999 11.100,21.982 9.945,21.959 9.745 C 21.909 9.308,21.754 8.921,21.482 8.553 C 21.228 8.208,20.953 7.992,20.480 7.764 L 20.100 7.581 19.260 7.555 C 18.260 7.524,6.200 7.526,4.820 7.558 M19.731 9.611 C 19.979 9.773,19.979 9.772,19.992 11.208 L 20.005 12.520 11.999 12.520 L 3.993 12.520 4.007 11.230 C 4.019 9.999,4.024 9.933,4.104 9.806 C 4.151 9.733,4.241 9.638,4.304 9.596 C 4.418 9.520,4.571 9.519,12.022 9.529 C 19.207 9.539,19.629 9.544,19.731 9.611 " fill="#1A1C1F" stroke="none" fill-rule="evenodd"></path></svg>