<svg width="32" height="32" viewBox="0 0 32 32" fill="none" xmlns="http://www.w3.org/2000/svg"><path d="M6.027 10.078 L 4.347 10.107 3.834 10.357 C 3.404 10.568,3.263 10.672,2.952 11.005 C 2.569 11.415,2.317 11.825,2.123 12.359 C 2.014 12.656,2.009 12.778,1.986 15.759 C 1.958 19.296,1.958 19.294,2.320 19.656 C 2.453 19.789,2.636 19.909,2.755 19.942 C 2.877 19.976,3.544 20.000,4.400 20.000 L 5.840 20.001 5.565 20.159 C 5.160 20.391,5.040 20.587,5.041 21.013 C 5.042 21.404,5.118 21.557,5.423 21.791 C 5.701 22.002,6.209 22.035,8.880 22.016 C 11.138 22.000,11.177 21.998,11.397 21.880 C 11.713 21.711,11.904 21.441,11.935 21.117 C 11.971 20.746,11.833 20.407,11.569 20.216 L 11.363 20.067 11.561 20.034 C 11.821 19.991,20.179 19.991,20.439 20.034 L 20.637 20.067 20.437 20.212 C 19.778 20.689,19.862 21.546,20.604 21.928 C 20.800 22.029,20.910 22.032,23.457 22.016 L 26.107 22.000 26.373 21.867 C 26.969 21.569,27.105 20.854,26.661 20.349 C 26.577 20.252,26.429 20.140,26.334 20.100 C 26.180 20.035,26.348 20.024,27.813 20.000 C 29.871 19.967,29.871 19.967,29.971 19.276 C 30.036 18.831,30.039 14.568,29.976 13.333 C 29.936 12.557,29.914 12.412,29.786 12.107 C 29.460 11.324,28.889 10.715,28.126 10.337 L 27.662 10.107 25.924 10.072 C 23.863 10.032,8.440 10.036,6.027 10.078 M27.227 12.099 C 27.422 12.181,27.702 12.444,27.852 12.686 C 27.956 12.855,27.965 12.961,27.989 14.433 L 28.015 16.000 16.000 16.000 L 3.985 16.000 4.011 14.439 C 4.029 13.344,4.056 12.841,4.103 12.754 C 4.193 12.585,4.526 12.222,4.662 12.144 C 4.855 12.033,6.529 12.017,16.960 12.024 C 24.980 12.030,27.100 12.045,27.227 12.099 " fill="#1A1C1F" stroke="none" fill-rule="evenodd"></path></svg>