<svg width="20" height="20" viewBox="0 0 20 20" fill="none" xmlns="http://www.w3.org/2000/svg"><path d="M4.698 2.035 C 4.292 2.079,4.004 2.159,3.678 2.317 C 2.827 2.730,2.285 3.465,2.077 4.489 C 2.020 4.765,2.017 5.112,2.017 10.017 C 2.017 15.235,2.017 15.251,2.088 15.567 C 2.398 16.949,3.312 17.800,4.666 17.965 C 4.825 17.985,5.651 18.000,6.556 18.000 C 8.085 18.000,8.173 17.997,8.343 17.933 C 8.586 17.842,8.777 17.670,8.890 17.441 C 8.967 17.282,8.983 17.207,8.983 17.000 C 8.982 16.588,8.796 16.285,8.439 16.110 L 8.250 16.017 6.533 15.998 C 4.978 15.982,4.801 15.974,4.650 15.919 C 4.407 15.830,4.283 15.724,4.184 15.521 C 4.000 15.145,4.002 15.222,4.001 10.027 C 4.000 6.784,4.012 5.154,4.036 4.977 C 4.099 4.522,4.259 4.258,4.562 4.109 L 4.750 4.017 6.500 4.000 L 8.250 3.983 8.439 3.890 C 8.797 3.715,8.982 3.411,8.982 3.000 C 8.982 2.589,8.797 2.285,8.439 2.110 L 8.250 2.017 6.600 2.012 C 5.692 2.010,4.836 2.020,4.698 2.035 M14.417 6.901 C 14.157 6.942,13.803 7.050,13.542 7.168 C 13.063 7.385,12.487 7.891,12.213 8.335 L 12.091 8.533 9.377 8.533 C 7.104 8.533,6.649 8.541,6.573 8.580 C 6.418 8.662,5.345 9.774,5.327 9.872 C 5.290 10.070,5.380 10.199,5.943 10.757 C 6.243 11.054,6.531 11.313,6.583 11.333 C 6.768 11.403,6.860 11.348,7.318 10.897 L 7.752 10.468 8.168 10.886 C 8.610 11.332,8.703 11.400,8.867 11.400 C 9.029 11.400,9.123 11.332,9.549 10.903 L 9.947 10.502 10.249 10.796 C 10.414 10.958,10.585 11.108,10.627 11.131 C 10.684 11.161,10.864 11.165,11.329 11.148 L 11.954 11.124 12.013 11.279 C 12.098 11.500,12.375 11.912,12.595 12.143 C 13.031 12.602,13.499 12.874,14.167 13.055 C 14.497 13.145,15.260 13.138,15.627 13.041 C 16.184 12.894,16.694 12.600,17.092 12.195 C 17.372 11.910,17.514 11.708,17.688 11.345 C 18.051 10.589,18.095 9.749,17.812 8.956 C 17.435 7.900,16.614 7.180,15.520 6.948 C 15.224 6.885,14.673 6.862,14.417 6.901 M15.985 8.931 C 16.754 9.310,16.856 10.412,16.169 10.920 C 15.319 11.550,14.138 10.833,14.305 9.788 C 14.363 9.426,14.600 9.100,14.928 8.931 C 15.138 8.823,15.254 8.801,15.530 8.816 C 15.720 8.826,15.824 8.852,15.985 8.931 " fill="#1A1C1F" stroke="none" fill-rule="evenodd"></path></svg>