<svg width="24" height="24" viewBox="0 0 24 24" fill="none" xmlns="http://www.w3.org/2000/svg"><path d="M5.506 2.045 C 4.476 2.144,3.741 2.488,3.094 3.174 C 2.621 3.675,2.341 4.220,2.170 4.974 C 2.111 5.230,2.103 5.936,2.090 11.740 C 2.075 18.488,2.079 18.676,2.244 19.307 C 2.586 20.611,3.614 21.583,4.979 21.892 C 5.316 21.968,5.502 21.974,7.771 21.989 C 10.543 22.008,10.472 22.015,10.783 21.695 C 11.268 21.196,11.128 20.411,10.499 20.099 C 10.348 20.024,10.220 20.019,7.920 19.997 C 5.922 19.978,5.465 19.963,5.300 19.913 C 4.709 19.734,4.371 19.402,4.188 18.821 L 4.100 18.540 4.100 12.000 L 4.100 5.460 4.188 5.179 C 4.412 4.469,4.863 4.127,5.693 4.040 C 5.895 4.019,6.988 4.001,8.123 4.001 C 10.443 4.000,10.470 3.997,10.747 3.728 C 10.971 3.511,11.057 3.311,11.058 3.000 C 11.061 2.535,10.772 2.153,10.332 2.042 C 10.130 1.991,6.040 1.993,5.506 2.045 M17.092 7.684 C 16.471 7.756,15.916 7.939,15.398 8.241 C 15.094 8.419,14.615 8.791,14.402 9.015 L 14.264 9.160 11.380 9.160 L 8.496 9.160 8.293 9.261 C 8.142 9.336,7.823 9.633,7.046 10.419 C 6.472 11.000,5.966 11.535,5.921 11.607 C 5.805 11.797,5.810 12.173,5.930 12.390 C 5.980 12.480,6.504 13.094,7.095 13.755 C 8.252 15.046,8.301 15.088,8.680 15.089 C 8.938 15.089,9.091 15.012,9.514 14.666 C 9.719 14.498,9.901 14.360,9.917 14.360 C 9.933 14.360,10.142 14.512,10.382 14.699 C 10.849 15.061,11.053 15.145,11.321 15.084 C 11.507 15.042,11.615 14.981,12.180 14.602 L 12.660 14.280 13.266 14.280 L 13.873 14.280 14.062 14.545 C 14.486 15.139,15.217 15.730,15.859 15.997 C 17.883 16.840,20.133 16.119,21.284 14.260 C 21.944 13.194,22.099 11.825,21.696 10.619 C 21.322 9.500,20.551 8.630,19.460 8.098 C 18.974 7.861,18.565 7.742,18.020 7.681 C 17.616 7.636,17.503 7.636,17.092 7.684 M18.152 9.421 C 19.113 9.612,19.917 10.383,20.139 11.327 C 20.216 11.652,20.216 12.348,20.139 12.673 C 20.029 13.140,19.819 13.504,19.441 13.880 C 18.932 14.388,18.469 14.589,17.716 14.629 C 16.773 14.678,16.053 14.340,15.435 13.556 C 15.275 13.354,15.039 13.111,14.909 13.015 C 14.526 12.733,14.443 12.720,13.008 12.720 L 11.751 12.720 11.483 12.958 L 11.215 13.195 10.757 12.837 C 10.205 12.405,10.031 12.342,9.670 12.442 C 9.548 12.476,9.163 12.746,8.836 13.026 C 8.780 13.075,8.717 13.019,8.304 12.553 L 7.836 12.025 8.427 11.433 L 9.017 10.842 11.900 10.831 L 14.783 10.820 15.014 10.680 C 15.142 10.603,15.395 10.403,15.577 10.236 C 15.963 9.881,16.199 9.713,16.500 9.575 C 16.945 9.371,17.595 9.311,18.152 9.421 M17.240 10.795 C 16.880 10.913,16.581 11.174,16.433 11.500 C 16.305 11.781,16.306 12.219,16.437 12.511 C 16.721 13.150,17.546 13.430,18.158 13.097 C 19.038 12.618,19.036 11.381,18.156 10.902 C 17.985 10.808,17.884 10.783,17.642 10.774 C 17.476 10.767,17.295 10.777,17.240 10.795 " fill="#1A1C1F" stroke="none" fill-rule="evenodd"></path></svg>