<svg width="32" height="32" viewBox="0 0 32 32" fill="none" xmlns="http://www.w3.org/2000/svg"><path d="M5.493 5.077 C 4.189 5.239,3.039 6.033,2.484 7.152 C 2.330 7.463,2.193 7.846,2.121 8.160 C 2.008 8.661,2.007 8.742,1.987 15.387 C 1.965 22.394,1.986 23.295,2.184 24.070 C 2.354 24.736,2.675 25.292,3.173 25.787 C 3.642 26.253,4.026 26.505,4.564 26.700 C 5.303 26.969,5.581 26.987,9.017 26.987 C 11.141 26.987,12.257 26.968,12.357 26.930 C 12.688 26.805,13.011 26.346,13.011 26.000 C 13.011 25.654,12.688 25.195,12.357 25.070 C 12.257 25.032,11.213 25.013,9.262 25.013 C 7.574 25.013,6.124 24.990,5.865 24.959 C 4.807 24.830,4.189 24.228,4.054 23.194 C 3.986 22.668,3.986 9.332,4.054 8.806 C 4.170 7.915,4.683 7.304,5.495 7.089 C 5.659 7.046,6.771 7.016,9.044 6.993 L 12.355 6.960 12.552 6.827 C 12.776 6.675,13.014 6.249,13.012 6.003 C 13.010 5.652,12.689 5.195,12.357 5.070 C 12.167 4.999,6.073 5.005,5.493 5.077 M23.173 10.057 C 23.115 10.070,22.935 10.106,22.773 10.137 C 21.720 10.340,20.593 10.945,19.783 11.744 C 19.472 12.051,19.076 12.544,18.904 12.840 L 18.804 13.013 13.800 13.013 C 9.399 13.013,8.773 13.023,8.598 13.096 C 8.347 13.201,6.276 15.249,6.120 15.547 C 5.978 15.818,5.979 16.179,6.123 16.456 C 6.278 16.753,8.348 18.801,8.598 18.905 C 8.743 18.965,8.991 18.987,9.520 18.987 C 10.338 18.987,10.331 18.989,11.064 18.493 L 11.487 18.207 12.104 18.601 C 12.719 18.996,12.721 18.996,13.042 18.976 C 13.334 18.958,13.414 18.924,13.910 18.598 C 14.211 18.401,14.480 18.240,14.509 18.240 C 14.538 18.240,14.804 18.402,15.101 18.600 L 15.642 18.960 17.224 18.976 L 18.806 18.991 18.906 19.162 C 19.074 19.452,19.440 19.909,19.766 20.234 C 22.112 22.581,25.888 22.581,28.234 20.234 C 31.122 17.347,30.343 12.500,26.695 10.655 C 25.791 10.198,25.279 10.076,24.160 10.052 C 23.676 10.041,23.232 10.043,23.173 10.057 M25.228 12.211 C 27.240 12.885,28.381 14.952,27.866 16.991 C 27.574 18.146,26.625 19.245,25.533 19.689 C 23.588 20.481,21.380 19.668,20.450 17.817 C 20.270 17.458,20.081 17.243,19.835 17.118 C 19.645 17.021,19.513 17.013,17.979 17.013 L 16.327 17.013 15.591 16.533 C 15.187 16.270,14.777 16.039,14.681 16.021 C 14.385 15.965,14.168 16.043,13.594 16.409 C 13.289 16.603,13.016 16.762,12.986 16.763 C 12.957 16.764,12.683 16.598,12.378 16.396 C 11.840 16.038,11.814 16.027,11.493 16.028 C 11.164 16.028,11.154 16.033,10.419 16.521 C 9.982 16.811,9.622 17.013,9.544 17.013 C 9.447 17.013,9.274 16.875,8.907 16.507 L 8.402 16.000 8.907 15.493 L 9.411 14.987 14.515 14.987 C 18.001 14.987,19.667 14.969,19.770 14.930 C 20.006 14.840,20.142 14.683,20.494 14.091 C 20.680 13.780,20.963 13.397,21.145 13.214 C 21.685 12.668,22.432 12.247,23.106 12.111 C 23.260 12.080,23.435 12.043,23.493 12.030 C 23.552 12.016,23.859 12.015,24.175 12.028 C 24.630 12.046,24.851 12.085,25.228 12.211 M23.481 14.595 C 23.132 14.718,22.746 15.098,22.616 15.444 C 22.154 16.679,23.315 17.848,24.546 17.387 C 25.557 17.009,25.814 15.637,25.010 14.914 C 24.580 14.528,24.008 14.408,23.481 14.595 " fill="#1A1C1F" stroke="none" fill-rule="evenodd"></path></svg>