<svg width="20" height="20" viewBox="0 0 20 20" fill="none" xmlns="http://www.w3.org/2000/svg"><path d="M8.533 2.064 C 8.103 2.088,7.537 2.216,7.180 2.368 C 6.820 2.521,6.643 2.821,6.675 3.222 C 6.696 3.477,6.795 3.648,7.007 3.793 C 7.307 3.998,7.462 4.005,8.149 3.846 C 8.351 3.799,8.655 3.753,8.825 3.742 L 9.133 3.724 9.133 4.378 L 9.133 5.033 8.825 5.033 C 8.271 5.034,7.485 5.098,7.226 5.164 C 6.416 5.371,5.714 5.995,5.396 6.788 C 5.159 7.379,5.165 7.289,5.144 10.900 C 5.120 15.062,5.148 15.644,5.402 16.242 C 5.766 17.099,6.458 17.664,7.417 17.888 C 7.663 17.945,7.856 17.950,10.000 17.950 C 12.144 17.950,12.337 17.945,12.583 17.888 C 13.492 17.676,14.158 17.164,14.532 16.389 C 14.858 15.716,14.876 15.422,14.857 11.083 C 14.844 8.112,14.836 7.649,14.788 7.410 C 14.596 6.446,14.082 5.746,13.283 5.362 C 12.801 5.130,12.220 5.034,11.308 5.033 L 10.867 5.033 10.867 4.379 L 10.867 3.724 11.175 3.742 C 11.345 3.751,11.663 3.801,11.883 3.853 C 12.577 4.015,12.860 3.978,13.141 3.689 C 13.384 3.437,13.425 3.060,13.244 2.727 C 13.081 2.429,12.950 2.360,12.183 2.170 L 11.783 2.071 10.367 2.056 C 9.588 2.047,8.762 2.051,8.533 2.064 M11.433 6.762 C 12.313 6.782,12.357 6.787,12.514 6.864 C 12.726 6.969,12.896 7.146,13.014 7.388 L 13.109 7.581 13.126 10.270 L 13.143 12.959 13.046 12.979 C 12.825 13.025,12.184 13.068,11.139 13.106 C 10.262 13.138,9.803 13.138,8.956 13.105 C 7.917 13.065,7.250 13.023,6.992 12.981 L 6.867 12.961 6.870 11.139 C 6.872 10.137,6.883 8.912,6.895 8.417 C 6.916 7.561,6.920 7.509,6.995 7.367 C 7.101 7.162,7.284 6.978,7.483 6.875 C 7.624 6.802,7.713 6.785,8.050 6.766 C 8.571 6.737,10.274 6.735,11.433 6.762 M9.033 7.796 C 8.687 7.821,8.635 7.841,8.477 8.006 C 8.341 8.147,8.267 8.325,8.267 8.511 C 8.267 8.801,8.379 8.987,8.665 9.171 L 8.813 9.267 9.932 9.266 C 10.558 9.265,11.114 9.250,11.195 9.232 C 11.498 9.162,11.741 8.847,11.744 8.520 C 11.747 8.267,11.564 7.972,11.330 7.849 C 11.228 7.795,9.565 7.757,9.033 7.796 M8.233 15.150 L 8.233 16.000 7.500 16.000 L 6.767 16.000 6.767 15.150 L 6.767 14.300 7.500 14.300 L 8.233 14.300 8.233 15.150 M13.233 15.150 L 13.233 16.000 12.500 16.000 L 11.767 16.000 11.767 15.150 L 11.767 14.300 12.500 14.300 L 13.233 14.300 13.233 15.150 " fill="#1A1C1F" stroke="none" fill-rule="evenodd"></path></svg>