<svg width="32" height="32" viewBox="0 0 32 32" fill="none" xmlns="http://www.w3.org/2000/svg"><path d="M13.168 2.074 C 12.624 2.110,12.581 2.122,12.029 2.396 C 11.356 2.731,11.134 2.930,11.046 3.276 C 10.966 3.597,11.038 3.880,11.268 4.142 C 11.657 4.585,12.038 4.584,13.028 4.139 C 13.317 4.009,13.388 4.000,14.162 4.000 L 14.987 4.000 14.987 5.006 L 14.987 6.012 13.213 6.041 C 11.194 6.073,10.953 6.111,10.133 6.516 C 9.767 6.697,9.588 6.832,9.199 7.223 C 8.632 7.793,8.409 8.180,8.158 9.030 L 7.988 9.606 8.015 17.590 C 8.042 25.398,8.045 25.584,8.152 26.037 C 8.629 28.064,9.999 29.433,11.953 29.833 C 12.647 29.976,13.581 30.026,15.547 30.025 C 18.305 30.023,19.570 29.960,20.240 29.789 C 22.257 29.277,23.643 27.700,23.904 25.623 C 23.954 25.221,23.970 23.203,23.968 17.280 L 23.966 9.467 23.850 9.046 C 23.465 7.652,22.563 6.687,21.227 6.241 C 20.846 6.114,19.594 6.035,17.880 6.029 L 17.013 6.027 17.013 5.006 L 17.013 3.985 17.908 4.011 L 18.804 4.037 19.255 4.241 C 19.503 4.353,19.819 4.456,19.957 4.469 C 20.473 4.519,20.916 4.133,20.991 3.569 C 21.058 3.056,20.613 2.627,19.600 2.230 L 19.173 2.063 16.453 2.050 C 14.957 2.043,13.479 2.054,13.168 2.074 M19.520 8.050 C 20.280 8.085,20.510 8.114,20.757 8.209 C 21.153 8.361,21.556 8.727,21.739 9.100 C 21.866 9.359,21.889 9.491,21.933 10.204 C 21.977 10.926,21.958 18.967,21.912 19.012 C 21.882 19.040,20.205 19.247,19.307 19.334 C 17.008 19.555,15.062 19.554,12.693 19.331 C 11.776 19.244,10.118 19.040,10.086 19.010 C 10.075 18.999,10.055 17.148,10.041 14.895 C 10.015 10.496,10.045 9.575,10.229 9.159 C 10.393 8.789,10.772 8.413,11.161 8.235 C 11.471 8.094,11.553 8.082,12.400 8.051 C 13.774 8.002,18.464 8.001,19.520 8.050 M12.973 9.063 C 12.655 9.088,12.552 9.120,12.399 9.242 C 12.173 9.423,12.000 9.746,12.000 9.987 C 12.000 10.259,12.242 10.696,12.470 10.838 L 12.667 10.960 15.920 10.976 C 17.709 10.984,19.229 10.977,19.296 10.960 C 19.364 10.944,19.524 10.833,19.652 10.716 C 20.097 10.305,20.096 9.681,19.649 9.287 L 19.418 9.084 18.016 9.049 C 16.431 9.009,13.557 9.017,12.973 9.063 M10.907 21.148 C 14.488 21.607,17.784 21.600,21.238 21.127 C 21.812 21.048,21.921 21.045,21.945 21.108 C 21.961 21.149,21.973 21.588,21.973 22.084 L 21.973 22.987 21.267 22.989 C 20.198 22.994,19.883 23.041,19.642 23.232 C 19.531 23.320,19.383 23.505,19.314 23.643 C 19.156 23.959,19.189 24.268,19.415 24.580 C 19.687 24.955,19.784 24.982,20.948 25.004 L 21.976 25.023 21.944 25.218 C 21.738 26.448,21.239 27.202,20.350 27.625 C 19.601 27.981,19.693 27.973,15.947 27.973 C 12.822 27.972,12.535 27.964,12.240 27.874 C 10.995 27.496,10.249 26.596,10.058 25.244 L 10.027 25.021 11.169 25.004 L 12.311 24.987 12.537 24.827 C 13.145 24.397,13.117 23.511,12.484 23.155 C 12.279 23.040,12.185 23.029,11.145 23.001 L 10.027 22.970 10.027 21.991 L 10.027 21.011 10.147 21.039 C 10.213 21.054,10.555 21.103,10.907 21.148 " fill="#1A1C1F" stroke="none" fill-rule="evenodd"></path></svg>