<svg width="20" height="20" viewBox="0 0 20 20" fill="none" xmlns="http://www.w3.org/2000/svg"><path d="M15.728 3.046 C 15.643 3.069,15.535 3.113,15.489 3.143 C 15.443 3.173,13.748 4.849,11.722 6.866 C 9.696 8.883,8.026 10.533,8.011 10.533 C 7.996 10.533,7.942 10.421,7.891 10.285 C 7.710 9.804,7.400 9.452,6.959 9.230 C 6.558 9.027,6.478 9.018,5.050 9.017 C 4.076 9.017,3.700 9.028,3.550 9.062 C 2.931 9.201,2.292 9.773,2.092 10.367 C 2.020 10.580,2.018 10.618,2.007 12.889 L 1.996 15.195 2.079 15.356 C 2.161 15.516,2.404 15.773,2.570 15.875 C 2.618 15.904,2.729 15.950,2.817 15.975 C 2.976 16.022,2.979 16.024,3.034 16.225 C 3.097 16.458,3.150 16.548,3.318 16.712 C 3.559 16.945,3.911 17.044,4.229 16.968 C 4.365 16.935,4.459 16.875,4.691 16.673 C 5.052 16.359,14.341 7.095,15.808 5.587 C 16.452 4.924,16.895 4.442,16.926 4.370 C 16.994 4.213,16.991 3.858,16.921 3.647 C 16.843 3.412,16.698 3.253,16.457 3.137 C 16.212 3.020,15.945 2.986,15.728 3.046 M4.698 4.044 C 3.868 4.230,3.344 5.055,3.551 5.849 C 3.746 6.599,4.498 7.100,5.237 6.973 C 6.350 6.782,6.880 5.444,6.182 4.587 C 5.815 4.137,5.233 3.923,4.698 4.044 M10.200 4.045 C 9.665 4.162,9.239 4.545,9.065 5.067 C 8.878 5.627,9.115 6.316,9.625 6.698 C 9.898 6.901,10.129 6.978,10.483 6.981 C 10.993 6.985,11.371 6.803,11.672 6.408 C 12.260 5.636,12.014 4.574,11.150 4.163 C 10.819 4.006,10.541 3.971,10.200 4.045 M15.337 9.023 C 15.250 9.035,15.151 9.110,14.897 9.356 C 14.531 9.711,14.482 9.805,14.509 10.099 C 14.530 10.330,14.625 10.525,14.805 10.705 C 15.019 10.919,15.188 10.978,15.625 10.994 L 16.000 11.007 16.000 13.121 L 16.000 15.236 16.081 15.396 C 16.190 15.610,16.458 15.847,16.672 15.918 C 16.919 16.000,17.277 15.972,17.477 15.856 C 17.664 15.746,17.886 15.497,17.939 15.337 C 17.989 15.187,18.018 11.552,17.974 10.942 C 17.946 10.560,17.936 10.517,17.808 10.259 C 17.541 9.722,17.057 9.285,16.526 9.101 C 16.348 9.040,15.584 8.990,15.337 9.023 M6.000 11.792 L 6.000 12.584 5.000 13.583 L 4.000 14.583 4.000 12.791 L 4.000 11.000 5.000 11.000 L 6.000 11.000 6.000 11.792 M11.972 12.278 L 10.995 13.256 11.006 14.269 C 11.016 15.239,11.020 15.289,11.090 15.420 C 11.208 15.642,11.473 15.856,11.723 15.933 C 11.993 16.016,12.042 16.016,12.283 15.933 C 12.574 15.833,12.765 15.676,12.909 15.417 C 12.983 15.284,12.983 15.280,12.993 13.292 C 12.999 12.196,12.991 11.300,12.976 11.300 C 12.962 11.300,12.510 11.740,11.972 12.278 " fill="#1A1C1F" stroke="none" fill-rule="evenodd"></path></svg>