<svg width="24" height="24" viewBox="0 0 24 24" fill="none" xmlns="http://www.w3.org/2000/svg"><path d="M19.592 3.122 C 19.372 3.159,19.195 3.293,18.531 3.927 C 18.125 4.315,17.880 4.518,17.775 4.555 C 17.185 4.762,16.545 5.382,16.391 5.893 C 16.356 6.010,16.190 6.216,15.758 6.676 C 14.919 7.570,10.049 12.400,9.987 12.400 C 9.958 12.400,9.895 12.287,9.846 12.150 C 9.684 11.695,9.372 11.361,8.882 11.118 C 8.506 10.931,8.108 10.908,5.633 10.931 L 3.526 10.951 3.213 11.123 C 2.796 11.351,2.379 11.767,2.200 12.133 C 2.090 12.357,2.061 12.474,2.035 12.793 C 1.991 13.336,1.994 17.946,2.038 18.137 C 2.159 18.658,2.787 19.006,3.306 18.839 C 3.501 18.776,3.767 18.562,3.883 18.375 C 3.973 18.230,3.973 18.230,4.003 15.605 C 4.019 14.161,4.034 12.976,4.036 12.970 C 4.038 12.965,4.919 12.960,5.994 12.960 L 7.949 12.960 7.974 13.206 C 7.988 13.341,8.000 13.686,8.000 13.973 L 8.000 14.493 5.669 16.837 C 4.387 18.126,3.267 19.268,3.179 19.376 C 3.025 19.567,3.020 19.582,3.020 19.876 C 3.020 20.265,3.130 20.508,3.395 20.702 C 3.647 20.886,3.923 20.946,4.205 20.879 C 4.416 20.828,4.456 20.791,6.660 18.616 C 8.862 16.443,16.552 8.746,19.307 5.959 C 20.785 4.463,20.799 4.445,20.800 4.092 C 20.800 3.769,20.545 3.363,20.238 3.199 C 20.116 3.134,19.770 3.092,19.592 3.122 M5.580 4.478 C 4.942 4.616,4.287 5.110,4.021 5.655 C 3.883 5.936,3.762 6.405,3.761 6.657 C 3.759 7.146,4.027 7.811,4.371 8.169 C 5.283 9.118,6.601 9.167,7.530 8.284 C 8.014 7.825,8.240 7.312,8.240 6.675 C 8.240 6.057,8.034 5.561,7.596 5.125 C 7.298 4.829,7.027 4.653,6.720 4.557 C 6.429 4.467,5.825 4.425,5.580 4.478 M11.820 4.478 C 10.957 4.665,10.278 5.331,10.064 6.203 C 9.947 6.682,10.006 7.123,10.262 7.662 C 10.502 8.169,11.049 8.632,11.618 8.811 C 11.984 8.926,12.557 8.932,12.880 8.824 C 13.851 8.499,14.480 7.666,14.480 6.706 C 14.480 6.091,14.280 5.580,13.879 5.168 C 13.408 4.685,12.987 4.490,12.348 4.460 C 12.145 4.451,11.908 4.459,11.820 4.478 M18.758 10.954 C 18.680 10.971,18.533 11.042,18.431 11.112 C 17.946 11.446,17.892 12.218,18.325 12.628 C 18.548 12.839,18.719 12.887,19.348 12.916 C 19.660 12.930,19.929 12.956,19.946 12.973 C 19.963 12.990,19.987 14.168,20.000 15.592 C 20.024 18.142,20.025 18.182,20.110 18.345 C 20.248 18.609,20.574 18.841,20.888 18.900 C 21.232 18.965,21.699 18.705,21.893 18.343 C 21.980 18.180,21.980 18.180,21.980 15.380 C 21.980 12.754,21.975 12.566,21.905 12.360 C 21.696 11.742,21.245 11.278,20.620 11.041 C 20.407 10.960,20.295 10.948,19.640 10.937 C 19.233 10.930,18.836 10.938,18.758 10.954 M14.917 13.227 L 14.000 14.133 14.000 16.137 L 14.001 18.140 14.119 18.346 C 14.379 18.800,14.832 18.982,15.329 18.832 C 15.538 18.770,15.861 18.477,15.927 18.289 C 15.969 18.171,15.980 17.561,15.980 15.380 C 15.980 13.862,15.966 12.553,15.948 12.470 C 15.931 12.388,15.898 12.320,15.875 12.320 C 15.852 12.320,15.421 12.728,14.917 13.227 " fill="#1A1C1F" stroke="none" fill-rule="evenodd"></path></svg>