<svg width="32" height="32" viewBox="0 0 32 32" fill="none" xmlns="http://www.w3.org/2000/svg"><path d="M26.631 4.104 C 26.493 4.166,26.054 4.548,25.480 5.107 C 24.648 5.916,24.525 6.016,24.290 6.075 C 23.903 6.172,23.168 6.531,22.846 6.779 C 22.253 7.236,21.830 7.889,21.606 8.693 L 21.494 9.092 18.555 12.032 L 15.615 14.972 15.170 15.003 C 14.667 15.039,14.488 15.113,14.251 15.383 C 14.060 15.600,14.000 15.845,14.045 16.225 L 14.077 16.494 13.052 17.531 L 12.027 18.569 11.991 18.044 C 11.948 17.419,11.753 16.756,11.515 16.429 C 11.025 15.751,10.310 15.249,9.599 15.082 C 9.218 14.993,4.880 14.996,4.400 15.087 C 3.857 15.189,3.439 15.431,2.928 15.942 C 2.421 16.449,2.179 16.863,2.069 17.413 C 2.024 17.643,2.005 18.782,2.003 21.440 L 2.000 25.147 2.126 25.404 C 2.394 25.948,3.071 26.155,3.513 25.827 C 3.590 25.770,3.729 25.624,3.822 25.504 L 3.991 25.284 4.010 21.509 C 4.032 17.260,4.012 17.468,4.432 17.190 L 4.659 17.040 6.743 17.022 C 7.889 17.012,8.951 17.020,9.104 17.039 C 9.406 17.077,9.661 17.222,9.835 17.457 C 9.941 17.600,9.948 17.684,9.964 19.103 L 9.981 20.598 7.162 23.432 C 5.612 24.991,4.266 26.385,4.172 26.529 C 3.972 26.834,3.953 27.065,4.100 27.389 C 4.281 27.787,4.716 28.040,5.128 27.984 C 5.262 27.966,5.427 27.883,5.589 27.752 C 5.944 27.464,21.613 11.824,25.071 8.307 C 28.142 5.183,28.062 5.279,27.978 4.833 C 27.923 4.541,27.731 4.306,27.417 4.147 C 27.077 3.974,26.932 3.966,26.631 4.104 M6.560 6.061 C 5.176 6.263,4.146 7.100,3.700 8.384 C 3.514 8.922,3.470 9.716,3.597 10.252 C 3.841 11.275,4.502 12.120,5.440 12.608 C 5.995 12.896,6.349 12.980,7.013 12.980 C 7.516 12.981,7.661 12.960,8.027 12.833 C 8.659 12.615,8.991 12.405,9.475 11.919 C 9.819 11.573,9.955 11.388,10.125 11.034 C 10.510 10.234,10.589 9.449,10.369 8.606 C 10.200 7.956,9.691 7.193,9.146 6.773 C 8.802 6.508,8.041 6.149,7.677 6.079 C 7.411 6.029,6.843 6.019,6.560 6.061 M15.191 6.084 C 14.617 6.168,13.757 6.655,13.313 7.147 C 12.983 7.512,12.710 7.978,12.552 8.443 C 12.424 8.822,12.405 8.961,12.406 9.493 C 12.409 10.195,12.490 10.540,12.789 11.120 C 13.067 11.659,13.761 12.341,14.293 12.601 C 15.056 12.972,15.764 13.081,16.484 12.938 C 18.075 12.622,19.241 11.326,19.344 9.760 C 19.412 8.718,19.106 7.872,18.382 7.106 C 17.806 6.495,17.153 6.164,16.360 6.080 C 15.797 6.021,15.615 6.022,15.191 6.084 M7.664 8.191 C 7.963 8.336,8.151 8.527,8.335 8.874 C 8.507 9.200,8.500 9.801,8.320 10.153 C 7.993 10.795,7.233 11.129,6.558 10.926 C 6.236 10.830,5.863 10.513,5.696 10.194 C 5.572 9.956,5.547 9.842,5.547 9.513 C 5.547 9.015,5.674 8.727,6.039 8.399 C 6.505 7.980,7.079 7.907,7.664 8.191 M16.468 8.143 C 16.564 8.183,16.742 8.305,16.863 8.415 C 17.623 9.100,17.444 10.348,16.514 10.841 C 16.340 10.933,16.202 10.958,15.867 10.959 C 15.493 10.960,15.405 10.940,15.156 10.803 C 14.528 10.455,14.262 9.762,14.478 9.036 C 14.714 8.246,15.677 7.814,16.468 8.143 M27.324 8.924 C 26.775 9.489,26.482 9.834,26.377 10.041 C 26.180 10.431,25.878 10.730,25.503 10.908 C 25.273 11.016,25.007 11.242,24.407 11.839 C 23.959 12.284,23.629 12.653,23.649 12.686 C 23.668 12.718,23.845 12.794,24.042 12.855 C 24.488 12.994,25.412 13.008,25.880 12.883 C 27.368 12.487,28.476 11.071,28.479 9.565 C 28.480 8.989,28.292 8.107,28.168 8.107 C 28.141 8.107,27.762 8.474,27.324 8.924 M24.160 15.037 C 23.558 15.069,23.402 15.130,23.202 15.411 C 22.938 15.781,22.951 16.245,23.236 16.627 C 23.499 16.979,23.518 16.982,25.497 17.012 C 27.276 17.040,27.289 17.041,27.471 17.167 C 27.866 17.442,27.916 17.556,27.955 18.264 C 27.974 18.618,27.993 20.131,27.997 21.627 C 28.006 24.677,28.041 25.380,28.200 25.594 C 28.440 25.917,28.976 26.065,29.370 25.917 C 29.571 25.840,29.801 25.617,29.925 25.375 C 30.022 25.186,30.027 25.012,30.027 21.397 C 30.027 17.219,30.045 17.470,29.680 16.745 C 29.272 15.936,28.423 15.248,27.646 15.098 C 27.334 15.037,24.944 14.996,24.160 15.037 M19.523 16.717 C 18.842 17.399,18.818 17.431,18.888 17.553 C 18.946 17.655,18.965 18.420,18.987 21.493 C 19.011 24.902,19.023 25.324,19.101 25.467 C 19.452 26.106,20.435 26.148,20.836 25.541 L 20.987 25.314 20.987 21.417 L 20.987 17.520 20.859 17.147 C 20.701 16.683,20.616 16.514,20.401 16.230 L 20.231 16.008 19.523 16.717 M11.209 25.035 C 10.823 25.428,10.507 25.776,10.507 25.809 C 10.507 25.897,10.745 25.973,11.019 25.973 C 11.339 25.973,11.648 25.807,11.827 25.536 C 11.955 25.342,11.976 25.254,11.992 24.817 C 12.002 24.535,11.989 24.320,11.961 24.320 C 11.934 24.320,11.596 24.642,11.209 25.035 " fill="#1A1C1F" stroke="none" fill-rule="evenodd"></path></svg>