<svg width="20" height="20" viewBox="0 0 20 20" fill="none" xmlns="http://www.w3.org/2000/svg"><path d="M4.500 2.032 C 3.496 2.051,3.481 2.052,3.278 2.139 C 2.727 2.374,2.279 2.855,2.098 3.404 L 2.017 3.650 2.017 10.000 L 2.017 16.350 2.098 16.596 C 2.293 17.188,2.812 17.707,3.404 17.902 L 3.650 17.983 10.000 17.983 L 16.350 17.983 16.596 17.902 C 17.188 17.707,17.707 17.188,17.902 16.596 L 17.983 16.350 17.983 10.000 L 17.983 3.650 17.902 3.404 C 17.714 2.834,17.212 2.315,16.650 2.114 C 16.509 2.063,16.318 2.050,15.417 2.031 C 14.182 2.003,6.005 2.005,4.500 2.032 M16.000 10.000 L 16.000 16.000 10.000 16.000 L 4.000 16.000 4.000 10.000 L 4.000 4.000 10.000 4.000 L 16.000 4.000 16.000 10.000 M7.831 6.364 C 7.526 6.387,7.387 6.476,7.233 6.744 L 7.134 6.917 7.136 9.433 C 7.138 12.257,7.160 13.063,7.242 13.217 C 7.383 13.486,7.662 13.642,8.001 13.643 C 8.271 13.643,8.475 13.559,8.629 13.383 C 8.846 13.136,8.847 13.130,8.860 11.908 L 8.872 10.800 9.028 10.800 C 9.271 10.801,9.595 10.863,9.742 10.938 C 9.980 11.059,10.098 11.221,10.870 12.491 C 11.145 12.945,11.413 13.369,11.464 13.433 C 11.703 13.733,12.283 13.734,12.568 13.436 C 12.692 13.305,12.801 13.033,12.799 12.855 C 12.798 12.690,12.673 12.426,12.312 11.830 C 11.824 11.022,11.644 10.793,11.269 10.505 L 11.188 10.443 11.369 10.384 C 11.850 10.228,12.355 9.852,12.519 9.529 C 12.674 9.222,12.747 8.883,12.747 8.467 C 12.747 7.823,12.580 7.372,12.203 6.999 C 11.822 6.622,11.314 6.423,10.583 6.366 C 10.157 6.333,8.253 6.331,7.831 6.364 M10.291 7.600 C 10.892 7.678,11.095 7.967,11.060 8.694 C 11.035 9.204,10.887 9.452,10.517 9.604 C 10.452 9.630,10.146 9.650,9.642 9.659 L 8.867 9.674 8.867 8.620 L 8.867 7.567 9.458 7.568 C 9.784 7.568,10.158 7.583,10.291 7.600 " fill="#1A1C1F" stroke="none" fill-rule="evenodd"></path></svg>