<svg width="24" height="24" viewBox="0 0 24 24" fill="none" xmlns="http://www.w3.org/2000/svg"><path d="M5.020 2.035 C 3.926 2.059,3.894 2.062,3.649 2.166 C 2.844 2.505,2.380 2.993,2.115 3.780 L 2.020 4.060 2.020 12.000 C 2.020 18.490,2.030 19.973,2.073 20.120 C 2.192 20.522,2.403 20.884,2.700 21.194 C 3.030 21.539,3.299 21.716,3.727 21.873 L 4.020 21.980 12.000 21.980 L 19.980 21.980 20.273 21.873 C 20.701 21.716,20.970 21.539,21.300 21.194 C 21.597 20.884,21.808 20.522,21.927 20.120 C 22.006 19.853,22.006 4.147,21.927 3.880 C 21.817 3.509,21.604 3.134,21.341 2.850 C 21.032 2.516,20.730 2.306,20.341 2.155 L 20.057 2.045 13.099 2.028 C 9.271 2.018,5.636 2.021,5.020 2.035 M19.768 4.075 C 19.827 4.106,19.888 4.160,19.902 4.195 C 19.976 4.375,19.996 6.057,19.996 12.000 C 19.996 17.959,19.976 19.625,19.901 19.806 C 19.828 19.985,20.049 19.980,12.040 19.980 C 6.108 19.980,4.424 19.969,4.297 19.930 C 4.188 19.897,4.114 19.844,4.077 19.770 C 4.029 19.677,4.018 18.598,4.008 12.680 C 3.997 6.296,4.018 4.392,4.099 4.193 C 4.141 4.091,4.228 4.066,4.640 4.038 C 4.849 4.024,8.314 4.014,12.340 4.016 C 18.494 4.019,19.677 4.029,19.768 4.075 M8.780 7.014 C 8.416 7.216,8.325 7.371,8.274 7.880 C 8.247 8.148,8.237 9.715,8.246 12.298 L 8.260 16.300 8.370 16.487 C 8.517 16.737,8.733 16.909,8.997 16.986 C 9.385 17.100,9.742 17.001,10.056 16.693 C 10.344 16.410,10.337 16.458,10.352 14.530 L 10.366 12.800 10.653 12.800 C 11.270 12.801,11.630 12.912,11.906 13.189 C 12.067 13.350,12.626 14.192,13.502 15.592 C 13.809 16.083,14.135 16.580,14.226 16.697 C 14.449 16.981,14.688 17.099,14.981 17.068 C 15.375 17.028,15.649 16.830,15.825 16.460 C 16.038 16.010,15.972 15.858,14.717 13.900 C 14.158 13.027,13.904 12.713,13.595 12.513 C 13.430 12.406,13.406 12.378,13.467 12.356 C 14.445 12.011,14.959 11.648,15.248 11.096 C 15.482 10.652,15.538 10.384,15.534 9.740 C 15.531 9.304,15.512 9.111,15.446 8.866 C 15.242 8.111,14.852 7.624,14.195 7.304 C 13.445 6.940,12.944 6.882,10.520 6.881 L 9.020 6.881 8.780 7.014 M12.615 8.498 C 12.970 8.594,13.159 8.739,13.300 9.020 C 13.418 9.256,13.420 9.271,13.420 9.880 C 13.420 10.587,13.375 10.745,13.100 11.012 C 12.792 11.311,12.360 11.398,11.170 11.399 L 10.360 11.400 10.360 9.894 L 10.360 8.389 11.370 8.411 C 12.112 8.428,12.442 8.451,12.615 8.498 " fill="#1A1C1F" stroke="none" fill-rule="evenodd"></path></svg>