<svg width="32" height="32" viewBox="0 0 32 32" fill="none" xmlns="http://www.w3.org/2000/svg"><path d="M5.333 2.079 C 3.995 2.114,3.947 2.125,3.314 2.555 C 2.723 2.956,2.366 3.450,2.099 4.236 L 1.973 4.605 1.973 16.008 L 1.973 27.410 2.132 27.845 C 2.516 28.898,3.102 29.487,4.137 29.862 L 4.592 30.027 16.000 30.027 L 27.408 30.027 27.863 29.862 C 28.898 29.487,29.484 28.898,29.868 27.845 L 30.027 27.410 30.027 16.001 L 30.027 4.592 29.860 4.133 C 29.556 3.291,29.052 2.703,28.312 2.328 L 27.914 2.126 26.770 2.078 C 25.535 2.027,7.310 2.028,5.333 2.079 M27.506 4.173 C 27.633 4.256,27.784 4.418,27.852 4.547 L 27.973 4.773 27.973 16.035 L 27.973 27.297 27.813 27.526 C 27.724 27.652,27.568 27.804,27.466 27.864 C 27.280 27.973,27.272 27.973,16.000 27.973 C 5.360 27.973,4.710 27.968,4.549 27.880 C 4.456 27.829,4.312 27.700,4.231 27.593 C 4.088 27.406,4.082 27.370,4.040 26.486 C 4.015 25.984,4.003 20.881,4.011 15.147 L 4.027 4.720 4.173 4.495 C 4.397 4.151,4.564 4.085,5.307 4.049 C 5.659 4.031,10.747 4.019,16.613 4.022 L 27.280 4.027 27.506 4.173 M12.160 8.525 C 11.739 8.590,11.388 8.872,11.131 9.354 L 11.013 9.573 11.013 15.680 C 11.013 20.647,11.027 21.831,11.085 22.027 C 11.168 22.302,11.502 22.654,11.846 22.830 C 12.528 23.178,13.387 22.899,13.800 22.196 L 13.947 21.947 13.965 19.447 L 13.983 16.948 14.685 16.970 C 15.885 17.009,15.892 17.016,17.883 20.242 C 19.103 22.220,19.335 22.552,19.641 22.757 C 20.513 23.340,21.734 22.679,21.729 21.627 C 21.728 21.362,21.692 21.237,21.523 20.907 C 21.101 20.080,19.521 17.599,19.087 17.080 C 18.959 16.926,18.733 16.710,18.586 16.600 C 18.439 16.490,18.311 16.379,18.303 16.352 C 18.295 16.326,18.535 16.212,18.837 16.098 C 19.511 15.843,19.866 15.633,20.247 15.262 C 20.855 14.669,21.144 14.042,21.232 13.127 C 21.354 11.853,21.106 10.823,20.474 9.986 C 19.964 9.310,19.060 8.832,17.867 8.608 C 17.502 8.539,16.922 8.519,14.907 8.505 C 13.528 8.495,12.292 8.504,12.160 8.525 M16.298 10.716 C 16.950 10.754,17.092 10.779,17.381 10.908 C 18.062 11.214,18.267 11.654,18.262 12.800 C 18.258 13.663,18.154 14.008,17.788 14.375 C 17.348 14.815,16.791 14.929,15.080 14.932 L 13.973 14.933 13.973 12.800 L 13.973 10.667 14.760 10.670 C 15.193 10.671,15.885 10.692,16.298 10.716 " fill="#1A1C1F" stroke="none" fill-rule="evenodd"></path></svg>