<svg width="20" height="20" viewBox="0 0 20 20" fill="none" xmlns="http://www.w3.org/2000/svg"><path d="M4.500 2.032 C 3.496 2.051,3.481 2.052,3.278 2.139 C 2.727 2.374,2.279 2.855,2.098 3.404 L 2.017 3.650 2.017 10.000 L 2.017 16.350 2.098 16.596 C 2.293 17.188,2.812 17.707,3.404 17.902 L 3.650 17.983 10.000 17.983 L 16.350 17.983 16.596 17.902 C 17.188 17.707,17.707 17.188,17.902 16.596 L 17.983 16.350 17.983 10.000 L 17.983 3.650 17.902 3.404 C 17.714 2.834,17.212 2.315,16.650 2.114 C 16.509 2.063,16.318 2.050,15.417 2.031 C 14.182 2.003,6.005 2.005,4.500 2.032 M10.950 6.080 C 11.620 6.195,12.004 6.372,12.370 6.733 C 12.562 6.922,12.653 7.044,12.743 7.233 C 12.911 7.587,12.944 7.801,12.928 8.444 L 12.915 8.992 12.772 9.281 C 12.570 9.687,12.342 9.913,11.933 10.110 C 11.759 10.193,11.553 10.280,11.475 10.303 L 11.333 10.344 11.494 10.452 C 11.801 10.659,12.050 10.989,12.677 12.023 C 13.131 12.771,13.167 12.854,13.167 13.151 C 13.167 13.509,13.024 13.750,12.718 13.907 C 12.404 14.069,11.907 13.991,11.709 13.750 C 11.658 13.688,11.369 13.228,11.067 12.727 C 10.171 11.244,9.983 10.980,9.724 10.845 C 9.649 10.805,9.506 10.784,9.244 10.773 L 8.871 10.758 8.860 12.038 C 8.851 12.984,8.837 13.342,8.806 13.416 C 8.731 13.588,8.547 13.782,8.362 13.883 C 8.213 13.964,8.144 13.981,7.950 13.981 C 7.580 13.982,7.313 13.822,7.112 13.478 L 7.027 13.334 7.009 10.442 C 6.999 8.851,7.002 7.314,7.015 7.025 C 7.039 6.519,7.044 6.496,7.139 6.352 C 7.293 6.119,7.427 6.054,7.800 6.029 C 8.406 5.988,10.623 6.024,10.950 6.080 M8.967 7.461 L 8.883 7.486 8.883 8.535 L 8.883 9.583 9.617 9.575 C 10.461 9.566,10.612 9.536,10.848 9.328 C 11.064 9.138,11.117 8.973,11.117 8.483 C 11.117 8.115,11.109 8.069,11.026 7.900 C 10.921 7.689,10.779 7.579,10.524 7.509 C 10.329 7.456,9.105 7.418,8.967 7.461 " fill="#1A1C1F" stroke="none" fill-rule="evenodd"></path></svg>