<svg width="24" height="24" viewBox="0 0 24 24" fill="none" xmlns="http://www.w3.org/2000/svg"><path d="M2.733 3.554 C 2.564 3.585,2.508 3.617,2.306 3.798 C 2.042 4.035,1.942 4.443,2.060 4.800 C 2.149 5.069,2.436 5.374,2.660 5.438 C 2.749 5.463,3.385 5.500,4.100 5.522 C 5.588 5.566,6.046 5.603,6.840 5.745 C 11.320 6.542,16.222 9.444,18.736 12.787 C 19.581 13.910,19.968 14.838,19.965 15.733 C 19.964 16.179,19.897 16.459,19.707 16.817 C 19.214 17.746,17.905 18.254,15.520 18.443 C 15.144 18.473,12.803 18.500,8.860 18.519 C 4.817 18.539,2.728 18.563,2.626 18.591 C 2.329 18.672,2.050 19.045,2.013 19.408 C 1.970 19.839,2.234 20.256,2.674 20.450 C 2.856 20.531,2.889 20.531,9.019 20.509 C 13.102 20.493,15.335 20.470,15.640 20.441 C 18.810 20.131,20.766 19.178,21.590 17.540 C 22.000 16.726,22.099 15.615,21.854 14.604 C 21.103 11.512,17.561 7.959,12.980 5.702 C 10.718 4.588,8.456 3.899,6.140 3.617 C 5.571 3.548,3.027 3.501,2.733 3.554 M2.780 7.556 C 2.376 7.607,2.000 8.061,2.000 8.498 C 2.000 8.840,2.259 9.245,2.575 9.398 C 2.734 9.475,2.858 9.486,3.885 9.522 C 4.509 9.543,5.200 9.579,5.420 9.602 C 6.629 9.726,7.837 10.027,9.060 10.508 C 9.665 10.746,10.853 11.335,11.292 11.615 L 11.565 11.788 11.283 12.049 L 11.001 12.310 10.670 12.216 C 9.878 11.989,8.543 11.776,7.200 11.662 C 5.408 11.509,2.853 11.479,2.560 11.607 C 2.374 11.688,2.148 11.944,2.060 12.174 C 1.925 12.529,2.044 12.974,2.345 13.239 C 2.616 13.477,2.660 13.484,4.058 13.523 C 7.383 13.614,9.089 13.815,10.519 14.283 C 11.079 14.466,11.397 14.495,11.653 14.387 C 11.854 14.301,13.864 12.297,14.020 12.027 C 14.120 11.853,14.129 11.809,14.107 11.578 C 14.068 11.157,13.962 11.020,13.316 10.557 C 12.423 9.916,10.972 9.123,9.899 8.688 C 8.774 8.232,7.358 7.854,6.060 7.662 C 5.327 7.554,3.318 7.489,2.780 7.556 " fill="#1A1C1F" stroke="none" fill-rule="evenodd"></path></svg>