<svg width="32" height="32" viewBox="0 0 32 32" fill="none" xmlns="http://www.w3.org/2000/svg"><path d="M2.757 5.065 C 2.333 5.147,2.029 5.537,2.028 6.001 C 2.026 6.326,2.152 6.579,2.424 6.799 L 2.623 6.960 5.058 6.995 C 8.966 7.051,10.294 7.211,12.745 7.920 C 14.376 8.393,15.696 8.915,17.344 9.739 C 23.651 12.894,28.399 18.129,27.953 21.438 C 27.673 23.521,25.985 24.496,21.947 24.908 C 21.555 24.948,18.237 24.981,11.987 25.008 L 2.613 25.048 2.413 25.208 C 2.303 25.296,2.171 25.450,2.120 25.550 C 1.918 25.946,2.061 26.525,2.430 26.806 L 2.632 26.960 12.049 26.960 C 19.545 26.960,21.614 26.945,22.187 26.888 C 26.256 26.483,28.487 25.439,29.440 23.493 C 29.860 22.636,29.943 22.238,29.945 21.067 C 29.946 20.308,29.925 19.992,29.854 19.700 C 29.490 18.203,28.498 16.392,27.186 14.827 C 26.556 14.074,25.094 12.623,24.293 11.954 C 20.756 8.998,16.776 6.865,12.927 5.862 C 10.759 5.297,9.533 5.124,7.280 5.065 C 5.179 5.010,3.039 5.010,2.757 5.065 M2.757 9.065 C 2.495 9.116,2.298 9.264,2.145 9.525 C 1.969 9.824,1.997 10.308,2.205 10.581 C 2.503 10.971,2.490 10.969,4.933 11.010 C 6.136 11.031,7.406 11.070,7.756 11.097 C 9.500 11.234,11.398 11.646,13.058 12.248 C 14.104 12.627,16.267 13.660,16.267 13.780 C 16.267 13.807,16.069 14.029,15.827 14.275 L 15.387 14.722 14.133 14.564 C 11.976 14.292,10.340 14.163,8.027 14.081 C 6.223 14.017,3.049 14.014,2.729 14.076 C 2.455 14.129,2.164 14.387,2.075 14.655 C 1.977 14.952,2.038 15.375,2.211 15.602 C 2.477 15.950,2.522 15.957,4.773 16.006 C 9.779 16.116,11.388 16.221,14.560 16.647 C 15.931 16.831,16.002 16.825,16.459 16.475 C 16.940 16.105,18.769 14.208,18.881 13.961 C 19.172 13.320,18.950 13.028,17.521 12.175 C 14.888 10.603,12.118 9.639,8.960 9.199 C 7.963 9.060,3.303 8.959,2.757 9.065 " fill="#1A1C1F" stroke="none" fill-rule="evenodd"></path></svg>