<svg width="32" height="32" viewBox="0 0 32 32" fill="none" xmlns="http://www.w3.org/2000/svg"><path d="M6.560 6.061 C 5.176 6.263,4.146 7.100,3.700 8.384 C 3.514 8.922,3.470 9.716,3.597 10.252 C 3.841 11.275,4.502 12.120,5.440 12.608 C 5.995 12.896,6.349 12.980,7.013 12.980 C 7.516 12.981,7.661 12.960,8.027 12.833 C 8.659 12.615,8.991 12.405,9.475 11.919 C 9.819 11.573,9.955 11.388,10.125 11.034 C 10.510 10.234,10.589 9.449,10.369 8.606 C 10.200 7.956,9.691 7.193,9.146 6.773 C 8.802 6.508,8.041 6.149,7.677 6.079 C 7.411 6.029,6.843 6.019,6.560 6.061 M15.191 6.084 C 14.617 6.168,13.757 6.655,13.313 7.147 C 12.983 7.511,12.710 7.978,12.552 8.443 C 12.421 8.829,12.404 8.954,12.408 9.520 C 12.411 10.034,12.436 10.228,12.531 10.507 C 12.944 11.716,13.771 12.513,14.970 12.856 C 16.216 13.213,17.414 12.881,18.366 11.917 C 18.964 11.310,19.291 10.592,19.344 9.768 C 19.411 8.715,19.107 7.874,18.382 7.106 C 17.806 6.495,17.153 6.164,16.360 6.080 C 15.797 6.021,15.615 6.022,15.191 6.084 M24.302 6.085 C 23.679 6.176,22.807 6.716,22.304 7.324 C 21.833 7.892,21.493 8.815,21.493 9.527 C 21.493 9.941,21.653 10.572,21.877 11.040 C 22.167 11.647,22.817 12.306,23.413 12.599 C 24.496 13.130,25.478 13.132,26.556 12.605 C 27.380 12.202,27.978 11.520,28.309 10.605 C 28.433 10.264,28.451 10.131,28.452 9.573 C 28.452 9.213,28.421 8.805,28.380 8.640 C 28.254 8.125,27.976 7.618,27.594 7.205 C 26.932 6.490,26.309 6.163,25.450 6.080 C 24.857 6.022,24.730 6.023,24.302 6.085 M5.307 15.045 C 4.230 15.078,4.128 15.097,3.639 15.358 C 2.973 15.713,2.360 16.445,2.127 17.162 C 2.014 17.511,2.010 17.607,1.986 21.021 C 1.958 24.921,1.978 25.283,2.230 25.595 C 2.312 25.696,2.474 25.829,2.590 25.890 C 2.797 25.999,2.856 26.000,7.013 26.000 C 11.769 26.000,11.368 26.037,11.783 25.564 L 12.006 25.312 11.989 21.363 L 11.972 17.413 11.834 17.057 C 11.638 16.552,11.403 16.209,10.988 15.826 C 10.595 15.463,10.079 15.177,9.673 15.097 C 9.353 15.035,6.679 15.002,5.307 15.045 M15.227 15.037 C 14.520 15.073,14.317 15.169,14.124 15.562 L 14.000 15.813 13.984 20.226 C 13.974 22.942,13.988 24.786,14.020 25.020 C 14.082 25.462,14.250 25.721,14.590 25.893 C 14.790 25.995,14.924 26.001,17.475 26.017 C 20.052 26.033,20.158 26.030,20.355 25.928 C 20.595 25.805,20.805 25.591,20.930 25.343 C 21.012 25.182,21.018 24.831,21.001 21.290 C 20.982 17.421,20.982 17.413,20.862 17.087 C 20.466 16.013,19.433 15.144,18.461 15.067 C 17.936 15.025,15.836 15.006,15.227 15.037 M24.102 15.035 C 23.651 15.063,23.569 15.084,23.396 15.216 C 22.985 15.529,23.013 15.147,23.013 20.427 C 23.013 23.023,23.032 25.212,23.054 25.292 C 23.111 25.495,23.391 25.800,23.633 25.923 C 23.825 26.021,23.967 26.027,26.369 26.027 C 27.950 26.027,29.000 26.005,29.165 25.970 C 29.490 25.900,29.832 25.621,29.929 25.346 C 29.986 25.187,29.999 24.360,29.997 21.307 L 29.995 17.467 29.873 17.120 C 29.692 16.608,29.428 16.208,29.019 15.830 C 28.622 15.463,28.106 15.177,27.699 15.098 C 27.383 15.036,24.808 14.992,24.102 15.035 " fill="#1A1C1F" stroke="none" fill-rule="evenodd"></path></svg>