<svg width="24" height="24" viewBox="0 0 24 24" fill="none" xmlns="http://www.w3.org/2000/svg"><path d="M8.726 2.059 C 8.395 2.134,8.191 2.236,7.902 2.469 C 6.973 3.218,6.910 4.548,7.761 5.403 C 8.567 6.212,9.789 6.193,10.575 5.359 C 10.882 5.034,11.023 4.759,11.110 4.318 C 11.171 4.010,11.171 3.963,11.109 3.663 C 10.992 3.097,10.675 2.615,10.242 2.341 C 9.798 2.061,9.205 1.951,8.726 2.059 M15.965 2.039 C 15.847 2.058,15.615 2.139,15.449 2.221 C 14.771 2.557,14.320 3.266,14.320 4.000 C 14.320 5.251,15.586 6.249,16.778 5.939 C 17.286 5.807,17.652 5.551,17.958 5.116 C 18.220 4.742,18.292 4.467,18.274 3.898 C 18.261 3.506,18.247 3.432,18.136 3.200 C 17.802 2.499,17.209 2.090,16.439 2.027 C 16.297 2.016,16.083 2.021,15.965 2.039 M14.460 7.276 C 13.838 7.301,13.812 7.305,13.540 7.437 C 12.973 7.711,12.469 8.343,12.361 8.916 C 12.311 9.177,12.309 13.152,12.358 13.760 C 12.395 14.218,12.458 14.399,12.728 14.827 C 13.023 15.295,13.480 15.641,14.164 15.911 C 14.265 15.952,14.268 15.963,14.294 16.443 C 14.308 16.712,14.320 17.902,14.320 19.088 C 14.320 21.167,14.323 21.249,14.400 21.401 C 14.629 21.848,15.131 22.086,15.582 21.960 C 15.799 21.899,16.118 21.627,16.225 21.411 C 16.296 21.267,16.300 21.105,16.300 17.980 L 16.300 14.700 16.207 14.550 C 16.099 14.376,15.829 14.144,15.661 14.081 C 15.597 14.056,15.400 14.027,15.223 14.016 C 14.710 13.982,14.534 13.931,14.430 13.786 L 14.340 13.660 14.328 11.452 L 14.316 9.245 15.948 9.232 L 17.580 9.220 17.766 9.111 C 18.122 8.901,18.290 8.614,18.290 8.212 C 18.290 8.017,18.268 7.926,18.186 7.786 C 18.077 7.601,17.904 7.435,17.725 7.344 C 17.600 7.280,15.485 7.236,14.460 7.276 M9.180 7.566 C 8.916 7.666,8.741 7.823,8.590 8.100 C 8.505 8.255,8.501 8.307,8.487 9.704 L 8.473 11.148 7.834 11.172 C 7.243 11.194,7.181 11.203,7.020 11.298 C 6.189 11.785,6.453 13.038,7.410 13.140 C 7.547 13.155,8.137 13.161,8.720 13.154 C 9.526 13.143,9.804 13.127,9.880 13.085 C 10.100 12.963,10.317 12.751,10.406 12.570 L 10.500 12.380 10.514 10.433 C 10.529 8.252,10.524 8.199,10.261 7.892 C 10.046 7.640,9.886 7.558,9.572 7.538 C 9.422 7.529,9.246 7.541,9.180 7.566 M5.130 8.740 C 4.907 8.836,4.470 9.137,4.224 9.362 C 3.891 9.668,3.623 10.037,3.399 10.500 C 2.455 12.455,3.287 14.694,5.306 15.626 C 5.870 15.887,6.275 15.965,7.188 15.989 L 7.995 16.011 8.008 18.635 L 8.020 21.260 8.113 21.449 C 8.344 21.918,8.965 22.123,9.432 21.884 C 9.621 21.788,9.907 21.482,9.949 21.332 C 9.966 21.271,9.980 19.960,9.980 18.420 L 9.980 15.620 9.884 15.360 C 9.832 15.217,9.744 15.029,9.689 14.942 C 9.461 14.582,8.933 14.188,8.537 14.084 C 8.447 14.060,7.958 14.023,7.451 14.001 C 6.667 13.968,6.494 13.949,6.294 13.875 C 5.425 13.554,4.895 12.716,5.039 11.890 C 5.130 11.365,5.373 10.988,5.852 10.627 C 6.350 10.252,6.480 10.049,6.480 9.646 C 6.480 9.204,6.193 8.830,5.772 8.723 C 5.544 8.665,5.287 8.672,5.130 8.740 M16.752 11.036 C 16.671 11.053,16.533 11.114,16.445 11.172 C 15.819 11.586,15.849 12.480,16.501 12.863 C 16.665 12.959,16.726 12.968,17.448 13.002 C 17.873 13.022,18.262 13.049,18.313 13.061 C 18.486 13.102,18.716 13.287,18.847 13.490 L 18.976 13.691 18.998 17.496 L 19.021 21.300 19.133 21.492 C 19.441 22.018,20.103 22.145,20.607 21.775 C 20.849 21.597,20.912 21.479,20.960 21.110 C 20.981 20.948,20.998 19.205,20.999 17.153 L 21.000 13.486 20.877 13.133 C 20.698 12.620,20.477 12.269,20.102 11.900 C 19.657 11.462,19.148 11.175,18.653 11.083 C 18.386 11.034,16.933 10.998,16.752 11.036 " fill="#282D37" stroke="none" fill-rule="evenodd"></path></svg>