<svg width="20" height="20" viewBox="0 0 20 20" fill="none" xmlns="http://www.w3.org/2000/svg"><path d="M4.700 4.046 C 4.428 4.107,4.109 4.285,3.913 4.485 C 3.092 5.326,3.573 6.738,4.759 6.968 C 5.296 7.073,5.850 6.849,6.186 6.393 C 6.756 5.618,6.504 4.569,5.650 4.163 C 5.317 4.005,5.039 3.971,4.700 4.046 M10.200 4.046 C 9.928 4.107,9.609 4.285,9.413 4.485 C 8.592 5.326,9.073 6.738,10.259 6.968 C 10.796 7.073,11.350 6.849,11.686 6.393 C 12.256 5.618,12.004 4.569,11.150 4.163 C 10.817 4.005,10.539 3.971,10.200 4.046 M15.167 4.043 C 14.790 4.130,14.333 4.473,14.170 4.793 C 13.770 5.578,14.148 6.582,14.967 6.907 C 15.231 7.012,15.738 7.010,16.008 6.904 C 16.399 6.750,16.750 6.399,16.904 6.009 C 17.010 5.738,17.012 5.231,16.907 4.967 C 16.754 4.580,16.344 4.200,15.955 4.082 C 15.717 4.010,15.384 3.994,15.167 4.043 M3.832 9.030 C 3.552 9.051,3.479 9.071,3.218 9.197 C 2.977 9.314,2.869 9.393,2.633 9.629 C 2.398 9.862,2.316 9.971,2.205 10.200 C 2.005 10.609,1.995 10.772,2.007 13.200 L 2.017 15.250 2.094 15.406 C 2.192 15.606,2.394 15.808,2.594 15.906 L 2.750 15.983 4.991 15.993 L 7.231 16.002 7.400 15.917 C 7.641 15.794,7.817 15.623,7.924 15.405 L 8.017 15.217 8.007 12.967 C 7.997 10.478,8.009 10.612,7.773 10.150 C 7.622 9.854,7.172 9.396,6.883 9.245 C 6.488 9.037,6.422 9.028,5.233 9.016 C 4.638 9.011,4.007 9.017,3.832 9.030 M10.328 9.033 C 10.107 9.061,9.959 9.145,9.772 9.348 C 9.607 9.527,9.479 9.896,9.516 10.090 C 9.562 10.335,9.671 10.563,9.810 10.702 C 10.022 10.915,10.185 10.973,10.623 10.992 L 10.996 11.008 11.008 13.112 C 11.017 14.708,11.031 15.248,11.063 15.347 C 11.121 15.524,11.421 15.816,11.653 15.922 C 12.086 16.121,12.620 15.906,12.885 15.427 L 12.983 15.250 12.983 12.933 L 12.983 10.617 12.905 10.383 C 12.716 9.817,12.276 9.347,11.734 9.134 C 11.466 9.028,10.760 8.977,10.328 9.033 M15.317 9.031 C 15.108 9.058,14.968 9.132,14.795 9.305 C 14.596 9.504,14.518 9.699,14.517 10.000 C 14.517 10.294,14.594 10.483,14.801 10.697 C 15.023 10.926,15.161 10.977,15.607 10.993 L 15.996 11.008 16.008 13.112 C 16.018 14.720,16.031 15.248,16.064 15.349 C 16.127 15.542,16.449 15.844,16.669 15.917 C 16.917 16.000,17.160 15.990,17.382 15.888 C 17.624 15.778,17.882 15.518,17.939 15.329 C 17.974 15.214,17.983 14.696,17.983 12.900 L 17.983 10.617 17.904 10.383 C 17.713 9.819,17.364 9.436,16.803 9.175 C 16.582 9.072,16.513 9.057,16.137 9.031 C 15.671 8.999,15.560 8.999,15.317 9.031 " fill="#1A1C1F" stroke="none" fill-rule="evenodd"></path></svg>