<svg width="24" height="24" viewBox="0 0 24 24" fill="none" xmlns="http://www.w3.org/2000/svg"><path d="M5.540 4.807 C 5.193 4.873,4.781 5.101,4.462 5.404 C 3.960 5.880,3.731 6.451,3.773 7.120 C 3.809 7.709,4.037 8.195,4.471 8.607 C 4.873 8.990,5.305 9.185,5.847 9.227 C 6.503 9.279,7.070 9.061,7.558 8.571 C 8.268 7.857,8.432 6.954,8.016 6.046 C 7.912 5.820,7.810 5.680,7.571 5.442 C 7.003 4.875,6.315 4.660,5.540 4.807 M11.860 4.800 C 11.421 4.867,10.962 5.120,10.613 5.490 C 10.107 6.026,9.905 6.729,10.059 7.420 C 10.149 7.827,10.230 8.008,10.452 8.300 C 10.887 8.874,11.443 9.183,12.120 9.227 C 13.138 9.292,14.078 8.639,14.386 7.653 C 14.476 7.362,14.487 7.270,14.471 6.911 C 14.459 6.626,14.427 6.427,14.367 6.262 C 14.173 5.729,13.744 5.255,13.223 4.998 C 12.778 4.778,12.384 4.721,11.860 4.800 M17.776 4.874 C 17.146 5.108,16.571 5.694,16.356 6.320 C 16.226 6.699,16.226 7.238,16.358 7.638 C 16.547 8.217,17.026 8.773,17.548 9.021 C 18.221 9.342,19.072 9.295,19.662 8.904 C 21.099 7.951,21.102 6.021,19.669 5.104 C 19.272 4.850,19.191 4.829,18.560 4.813 C 18.066 4.801,17.950 4.810,17.776 4.874 M4.020 11.274 C 3.458 11.305,3.247 11.371,2.852 11.639 C 2.514 11.869,2.241 12.219,2.114 12.586 L 2.020 12.860 2.020 15.703 L 2.020 18.546 2.141 18.742 C 2.287 18.978,2.530 19.157,2.766 19.203 C 2.986 19.245,8.953 19.246,9.212 19.204 C 9.470 19.161,9.712 18.983,9.870 18.720 L 10.000 18.504 10.000 15.673 L 10.000 12.842 9.901 12.580 C 9.653 11.920,9.219 11.522,8.540 11.331 C 8.384 11.288,7.914 11.272,6.420 11.262 C 5.364 11.255,4.284 11.260,4.020 11.274 M12.955 11.278 C 12.599 11.308,12.394 11.418,12.200 11.687 C 11.907 12.091,11.949 12.549,12.314 12.933 C 12.559 13.191,12.633 13.214,13.307 13.238 C 13.640 13.250,13.928 13.275,13.947 13.293 C 13.965 13.312,13.989 14.491,14.000 15.914 L 14.020 18.502 14.122 18.701 C 14.388 19.216,15.067 19.391,15.548 19.068 C 15.654 18.996,15.791 18.853,15.859 18.743 L 15.980 18.546 15.994 15.938 C 16.003 14.230,15.992 13.207,15.964 12.975 C 15.906 12.500,15.752 12.189,15.404 11.842 C 15.108 11.548,14.806 11.379,14.480 11.324 C 14.181 11.273,13.328 11.248,12.955 11.278 M18.955 11.278 C 18.718 11.298,18.613 11.327,18.488 11.410 C 18.193 11.605,18.005 11.934,18.002 12.260 C 17.999 12.578,18.316 13.036,18.632 13.169 C 18.691 13.194,19.004 13.225,19.327 13.237 C 19.649 13.250,19.928 13.275,19.947 13.293 C 19.965 13.312,19.989 14.500,20.000 15.934 L 20.021 18.541 20.131 18.729 C 20.534 19.416,21.481 19.404,21.880 18.707 L 21.999 18.500 21.998 15.860 C 21.998 14.404,21.980 13.085,21.959 12.920 C 21.905 12.503,21.734 12.171,21.404 11.842 C 21.112 11.552,20.798 11.377,20.470 11.322 C 20.179 11.273,19.322 11.248,18.955 11.278 " fill="#1A1C1F" stroke="none" fill-rule="evenodd"></path></svg>