<svg width="32" height="32" viewBox="0 0 32 32" fill="none" xmlns="http://www.w3.org/2000/svg"><path d="M6.560 6.061 C 5.771 6.176,5.208 6.439,4.663 6.948 C 3.930 7.631,3.585 8.353,3.536 9.307 C 3.503 9.936,3.564 10.310,3.785 10.839 C 4.111 11.618,4.761 12.290,5.555 12.667 C 5.954 12.856,6.607 13.013,6.994 13.013 C 7.402 13.013,8.027 12.847,8.530 12.604 C 9.501 12.135,10.209 11.227,10.423 10.176 C 10.528 9.658,10.528 9.380,10.423 8.870 C 10.187 7.726,9.553 6.906,8.515 6.399 C 8.217 6.254,7.844 6.111,7.686 6.081 C 7.412 6.029,6.845 6.019,6.560 6.061 M15.156 6.083 C 14.526 6.196,13.705 6.709,13.191 7.312 C 12.883 7.673,12.721 7.956,12.552 8.432 C 12.430 8.777,12.413 8.911,12.412 9.493 C 12.412 10.045,12.432 10.220,12.530 10.507 C 12.946 11.718,13.771 12.513,14.970 12.856 C 16.216 13.213,17.414 12.881,18.366 11.917 C 19.153 11.119,19.489 10.050,19.312 8.913 C 19.119 7.677,18.092 6.530,16.853 6.164 C 16.497 6.058,15.545 6.013,15.156 6.083 M24.299 6.086 C 23.633 6.183,22.708 6.777,22.231 7.413 C 21.527 8.354,21.332 9.457,21.680 10.544 C 21.853 11.087,22.060 11.437,22.457 11.862 C 23.018 12.461,23.592 12.772,24.455 12.941 C 25.526 13.152,26.607 12.786,27.490 11.916 C 28.181 11.236,28.518 10.347,28.460 9.360 C 28.405 8.417,28.166 7.824,27.591 7.202 C 26.932 6.490,26.308 6.163,25.450 6.080 C 24.856 6.022,24.731 6.023,24.299 6.086 M25.481 8.117 C 25.612 8.150,25.812 8.266,25.955 8.392 C 26.632 8.988,26.630 10.083,25.950 10.640 C 25.335 11.144,24.533 11.100,23.964 10.531 C 23.750 10.317,23.667 10.184,23.598 9.946 C 23.424 9.350,23.599 8.731,24.039 8.386 C 24.522 8.007,24.824 7.951,25.481 8.117 M16.480 8.164 C 17.605 8.673,17.625 10.251,16.514 10.841 C 16.340 10.933,16.202 10.958,15.867 10.959 C 15.493 10.960,15.405 10.940,15.156 10.803 C 14.142 10.241,14.148 8.795,15.167 8.211 C 15.403 8.076,15.494 8.054,15.840 8.055 C 16.127 8.055,16.308 8.086,16.480 8.164 M5.307 15.045 C 4.230 15.078,4.128 15.097,3.639 15.358 C 2.960 15.720,2.352 16.454,2.121 17.191 C 2.001 17.572,2.000 17.583,2.000 21.333 C 2.000 24.838,2.007 25.110,2.097 25.344 C 2.225 25.677,2.486 25.901,2.811 25.956 C 2.952 25.980,4.903 26.000,7.147 26.000 C 11.752 26.000,11.368 26.036,11.783 25.564 L 12.006 25.312 11.989 21.363 L 11.972 17.413 11.834 17.057 C 11.638 16.552,11.403 16.209,10.988 15.826 C 10.595 15.463,10.079 15.177,9.673 15.097 C 9.353 15.035,6.679 15.002,5.307 15.045 M15.120 15.035 C 14.745 15.060,14.595 15.095,14.434 15.195 C 13.962 15.488,13.885 16.237,14.283 16.658 C 14.589 16.981,14.591 16.982,16.507 17.016 C 18.473 17.051,18.535 17.061,18.806 17.417 L 18.960 17.618 18.979 21.409 C 19.000 25.645,18.977 25.393,19.382 25.749 C 19.593 25.934,19.846 26.001,20.172 25.957 C 20.448 25.920,20.620 25.794,20.843 25.465 L 21.020 25.205 21.001 21.309 C 20.982 17.420,20.982 17.413,20.862 17.087 C 20.472 16.028,19.448 15.156,18.492 15.068 C 18.010 15.024,15.622 15.000,15.120 15.035 M24.160 15.037 C 23.560 15.070,23.398 15.133,23.206 15.407 C 22.891 15.856,22.948 16.329,23.362 16.717 C 23.505 16.851,23.629 16.963,23.638 16.967 C 23.646 16.971,24.481 16.989,25.493 17.007 C 27.292 17.039,27.338 17.043,27.531 17.163 C 27.639 17.230,27.783 17.374,27.851 17.483 L 27.973 17.680 28.000 21.497 L 28.027 25.315 28.170 25.531 C 28.490 26.015,29.237 26.123,29.645 25.743 C 29.714 25.679,29.822 25.531,29.885 25.413 C 30.000 25.200,30.000 25.192,29.997 21.333 L 29.994 17.467 29.872 17.120 C 29.693 16.608,29.428 16.208,29.019 15.830 C 28.622 15.463,28.106 15.177,27.699 15.098 C 27.384 15.037,24.934 14.995,24.160 15.037 " fill="#1A1C1F" stroke="none" fill-rule="evenodd"></path></svg>