<svg width="20" height="20" viewBox="0 0 20 20" fill="none" xmlns="http://www.w3.org/2000/svg"><path d="M11.954 1.999 C 10.849 2.238,9.904 2.791,9.188 3.618 C 8.611 4.284,8.248 5.011,8.060 5.877 C 7.959 6.344,7.951 7.434,8.045 7.867 C 8.479 9.844,9.908 11.312,11.839 11.765 C 12.926 12.020,14.162 11.872,15.169 11.366 C 15.858 11.019,16.520 10.460,16.998 9.819 C 17.927 8.576,18.194 6.836,17.687 5.322 C 17.328 4.248,16.661 3.383,15.689 2.730 C 15.221 2.416,14.792 2.224,14.150 2.043 C 13.874 1.965,13.785 1.958,13.050 1.946 C 12.355 1.936,12.211 1.943,11.954 1.999 M14.697 5.527 C 14.636 5.594,14.264 5.974,13.872 6.371 C 13.479 6.768,13.164 7.107,13.171 7.125 C 13.178 7.142,13.555 7.514,14.008 7.949 C 14.462 8.385,14.833 8.751,14.833 8.762 C 14.833 8.774,14.572 9.053,14.252 9.383 L 13.672 9.983 12.236 8.550 L 10.800 7.117 12.235 5.682 L 13.670 4.246 14.240 4.825 L 14.810 5.403 14.697 5.527 M4.693 6.831 C 4.334 6.903,3.539 7.665,3.033 8.422 C 2.475 9.256,2.165 10.189,2.061 11.339 C 2.026 11.733,2.028 11.864,2.077 12.313 C 2.400 15.273,4.449 17.548,7.217 18.019 C 7.645 18.092,8.477 18.116,8.917 18.069 C 10.510 17.898,11.928 17.172,12.968 15.995 C 13.261 15.662,13.356 15.442,13.323 15.165 C 13.286 14.852,13.055 14.533,12.758 14.385 C 12.619 14.316,12.539 14.300,12.335 14.301 C 11.979 14.302,11.874 14.360,11.424 14.809 C 10.757 15.474,10.151 15.821,9.250 16.054 C 8.908 16.142,8.840 16.149,8.250 16.147 C 7.536 16.146,7.274 16.100,6.722 15.879 C 5.148 15.249,4.108 13.773,4.013 12.033 C 3.961 11.075,4.173 10.232,4.647 9.520 C 4.751 9.363,5.048 9.013,5.306 8.742 C 5.564 8.471,5.799 8.197,5.827 8.133 C 5.894 7.980,5.893 7.587,5.824 7.433 C 5.628 6.993,5.152 6.739,4.693 6.831 M6.583 9.127 C 6.233 9.292,6.003 9.721,6.102 10.023 C 6.160 10.201,6.294 10.403,6.913 11.246 C 7.211 11.651,7.481 12.023,7.513 12.073 C 7.545 12.122,7.636 12.476,7.715 12.860 C 7.795 13.244,7.886 13.613,7.918 13.681 C 8.069 14.000,8.583 14.162,8.922 13.997 C 9.096 13.913,9.217 13.775,9.326 13.538 C 9.424 13.325,9.423 13.311,9.245 12.337 L 9.120 11.657 8.589 10.904 C 7.806 9.792,7.367 9.214,7.255 9.149 C 7.106 9.060,6.749 9.049,6.583 9.127 " fill="#1A1C1F" stroke="none" fill-rule="evenodd"></path></svg>