<svg width="24" height="24" viewBox="0 0 24 24" fill="none" xmlns="http://www.w3.org/2000/svg"><path d="M15.097 2.442 C 13.216 2.625,11.473 3.862,10.598 5.634 C 10.214 6.412,10.045 7.072,10.012 7.927 C 9.966 9.112,10.228 10.184,10.796 11.142 C 11.742 12.736,13.371 13.757,15.294 13.963 C 16.218 14.061,17.430 13.825,18.340 13.370 C 19.954 12.562,21.084 11.095,21.469 9.306 C 21.570 8.840,21.569 7.555,21.468 7.087 C 21.046 5.127,19.739 3.564,17.897 2.813 C 17.338 2.585,16.860 2.483,16.143 2.440 C 15.789 2.418,15.482 2.403,15.460 2.406 C 15.438 2.409,15.275 2.425,15.097 2.442 M16.940 4.924 C 17.413 5.053,17.733 5.626,17.603 6.110 C 17.544 6.327,17.379 6.528,16.610 7.320 L 15.969 7.980 16.678 8.700 C 17.567 9.604,17.621 9.681,17.617 10.057 C 17.612 10.622,17.295 10.966,16.727 11.026 C 16.324 11.068,16.254 11.015,14.893 9.669 C 14.229 9.012,13.658 8.414,13.623 8.341 C 13.586 8.262,13.560 8.102,13.560 7.945 L 13.560 7.682 13.794 7.411 C 13.922 7.262,14.526 6.650,15.136 6.051 C 15.904 5.296,16.283 4.950,16.372 4.924 C 16.550 4.873,16.752 4.873,16.940 4.924 M6.831 7.817 C 6.268 8.015,5.362 8.570,4.772 9.077 C 2.774 10.794,1.945 13.689,2.700 16.320 C 3.088 17.670,3.657 18.658,4.580 19.580 C 5.485 20.486,6.475 21.050,7.729 21.376 C 8.876 21.674,10.205 21.676,11.340 21.380 C 12.243 21.144,13.279 20.644,13.910 20.138 C 14.404 19.742,15.233 18.866,15.506 18.452 C 15.848 17.933,16.244 17.129,16.270 16.904 C 16.338 16.299,15.814 15.820,15.168 15.896 C 14.777 15.942,14.697 16.021,14.314 16.731 C 13.956 17.398,13.660 17.819,13.280 18.202 C 12.732 18.754,12.204 19.088,11.480 19.339 C 10.720 19.603,10.456 19.650,9.720 19.650 C 8.689 19.650,8.035 19.500,7.140 19.059 C 5.700 18.349,4.636 16.938,4.397 15.420 C 4.321 14.937,4.331 13.689,4.414 13.326 C 4.645 12.311,5.114 11.454,5.840 10.719 C 6.279 10.275,6.580 10.052,7.140 9.759 C 7.792 9.416,7.896 9.340,8.017 9.119 C 8.347 8.511,7.895 7.718,7.220 7.721 C 7.154 7.721,6.979 7.764,6.831 7.817 M7.731 11.564 C 7.401 11.727,7.195 12.056,7.191 12.423 C 7.189 12.716,7.258 12.840,8.017 13.896 L 8.675 14.813 8.777 15.256 C 8.975 16.109,9.082 16.404,9.259 16.581 C 9.870 17.191,10.910 16.664,10.824 15.788 C 10.800 15.547,10.566 14.530,10.455 14.180 C 10.368 13.909,9.192 12.158,8.847 11.785 C 8.580 11.498,8.069 11.396,7.731 11.564 " fill="#1A1C1F" stroke="none" fill-rule="evenodd"></path></svg>