<svg width="32" height="32" viewBox="0 0 32 32" fill="none" xmlns="http://www.w3.org/2000/svg"><path d="M22.187 2.082 C 21.151 2.154,19.987 2.586,19.004 3.264 C 18.450 3.646,17.366 4.783,17.051 5.314 C 16.491 6.256,16.140 7.287,16.048 8.266 C 15.886 9.970,16.280 11.519,17.241 12.960 C 17.593 13.486,18.584 14.467,19.120 14.820 C 19.877 15.317,20.741 15.678,21.639 15.871 C 22.158 15.983,23.762 15.999,24.240 15.897 C 25.690 15.588,26.961 14.911,27.947 13.922 C 28.923 12.942,29.543 11.815,29.841 10.480 C 29.973 9.891,30.002 8.508,29.896 7.867 C 29.482 5.342,27.737 3.260,25.321 2.408 C 25.065 2.318,24.669 2.208,24.441 2.165 C 23.949 2.072,22.893 2.033,22.187 2.082 M24.545 4.264 C 26.172 4.813,27.445 6.202,27.846 7.867 C 27.990 8.465,28.002 9.429,27.873 10.030 C 27.485 11.837,26.094 13.311,24.293 13.824 C 23.715 13.989,22.364 14.001,21.787 13.847 C 20.080 13.391,18.720 12.068,18.206 10.362 C 18.078 9.938,18.064 9.809,18.063 9.013 C 18.061 8.267,18.079 8.068,18.178 7.707 C 18.644 6.015,20.033 4.641,21.760 4.164 C 22.110 4.067,22.277 4.056,23.093 4.072 C 23.982 4.089,24.051 4.098,24.545 4.264 M23.253 6.297 C 22.930 6.442,21.025 8.365,20.853 8.720 C 20.603 9.237,20.686 9.373,22.187 10.887 C 23.312 12.023,23.552 12.149,24.091 11.888 C 24.393 11.742,24.593 11.476,24.626 11.176 C 24.681 10.696,24.637 10.619,23.859 9.815 L 23.135 9.067 23.816 8.360 C 24.190 7.972,24.529 7.577,24.568 7.482 C 24.666 7.247,24.657 7.001,24.539 6.747 C 24.300 6.229,23.797 6.053,23.253 6.297 M12.373 8.038 C 10.491 8.200,9.282 8.528,7.859 9.261 C 4.862 10.804,2.840 13.591,2.180 17.085 C 2.023 17.921,1.983 19.619,2.101 20.514 C 2.471 23.324,3.829 25.884,5.840 27.565 C 7.316 28.798,9.260 29.626,11.311 29.894 C 12.083 29.995,13.515 30.008,14.213 29.921 C 19.152 29.304,23.016 25.568,23.812 20.640 C 23.934 19.883,23.972 19.005,23.895 18.723 C 23.728 18.111,22.942 17.835,22.371 18.188 C 22.074 18.372,21.991 18.621,21.870 19.689 C 21.742 20.827,21.648 21.300,21.408 22.027 C 20.444 24.938,18.001 27.071,14.871 27.734 C 11.933 28.355,8.680 27.478,6.607 25.505 C 4.966 23.943,4.087 21.946,3.968 19.508 C 3.868 17.447,4.453 15.438,5.642 13.761 C 6.072 13.154,7.013 12.197,7.600 11.769 C 8.885 10.832,10.271 10.289,11.839 10.106 C 13.603 9.901,13.593 9.904,13.798 9.458 C 13.902 9.229,13.927 9.105,13.908 8.903 C 13.878 8.599,13.671 8.252,13.454 8.142 C 13.303 8.066,12.707 8.009,12.373 8.038 M9.708 14.083 C 9.142 14.321,8.865 14.940,9.110 15.420 C 9.163 15.524,9.823 16.475,10.578 17.534 L 11.950 19.458 12.291 20.926 C 12.479 21.733,12.680 22.502,12.738 22.633 C 12.917 23.038,13.383 23.263,13.806 23.149 C 14.224 23.036,14.560 22.612,14.560 22.197 C 14.560 21.851,13.988 19.202,13.817 18.756 C 13.689 18.420,10.815 14.384,10.574 14.200 C 10.371 14.045,9.937 13.987,9.708 14.083 " fill="#1A1C1F" stroke="none" fill-rule="evenodd"></path></svg>