<svg width="20" height="20" viewBox="0 0 20 20" fill="none" xmlns="http://www.w3.org/2000/svg"><path d="M6.753 4.038 C 5.867 4.152,4.544 4.601,4.176 4.913 C 4.046 5.024,3.878 5.361,3.849 5.570 C 3.788 6.006,4.148 6.542,4.584 6.663 C 4.871 6.743,5.058 6.704,5.846 6.401 C 6.403 6.187,6.731 6.124,7.300 6.120 C 7.661 6.118,7.837 6.132,7.993 6.175 C 8.634 6.351,8.986 6.703,9.157 7.340 C 9.243 7.662,9.233 8.301,9.135 8.681 C 8.767 10.123,7.533 11.545,4.900 13.565 C 4.093 14.184,3.949 14.313,3.851 14.511 C 3.740 14.733,3.736 15.048,3.838 15.323 C 3.923 15.549,4.169 15.810,4.404 15.925 L 4.557 16.000 7.905 16.000 L 11.254 16.000 11.421 15.917 C 11.920 15.668,12.157 15.196,12.020 14.724 C 11.944 14.463,11.791 14.278,11.533 14.136 L 11.317 14.017 9.547 14.005 L 7.777 13.993 8.549 13.221 C 9.545 12.226,10.045 11.598,10.491 10.783 C 11.156 9.569,11.445 8.072,11.218 7.010 C 11.014 6.052,10.440 5.216,9.625 4.687 C 8.959 4.255,8.439 4.089,7.573 4.033 C 7.027 3.998,7.069 3.997,6.753 4.038 M15.066 14.033 C 14.874 14.056,14.639 14.194,14.488 14.370 C 14.184 14.726,14.191 15.291,14.504 15.646 C 14.799 15.982,15.281 16.083,15.673 15.890 C 15.896 15.781,16.045 15.622,16.159 15.373 C 16.230 15.217,16.239 15.158,16.226 14.938 C 16.216 14.770,16.187 14.637,16.142 14.548 C 15.948 14.172,15.536 13.974,15.066 14.033 " fill="#1A1C1F" stroke="none" fill-rule="evenodd"></path></svg>