<svg width="24" height="24" viewBox="0 0 24 24" fill="none" xmlns="http://www.w3.org/2000/svg"><path d="M8.560 5.027 C 7.283 5.158,5.885 5.588,5.443 5.985 C 5.122 6.274,5.021 6.689,5.174 7.090 C 5.273 7.349,5.573 7.618,5.854 7.700 L 6.076 7.764 6.488 7.617 C 8.187 7.012,9.231 6.901,10.198 7.225 C 10.551 7.343,10.987 7.621,11.158 7.838 C 11.570 8.358,11.750 9.205,11.624 10.032 C 11.335 11.930,9.821 13.814,6.620 16.258 C 5.372 17.210,5.194 17.365,5.095 17.578 C 4.872 18.057,5.081 18.655,5.551 18.887 L 5.740 18.980 9.780 18.980 C 13.035 18.980,13.849 18.970,13.970 18.927 C 14.052 18.898,14.199 18.794,14.297 18.697 C 14.757 18.236,14.677 17.504,14.131 17.176 C 13.938 17.061,13.891 17.051,13.412 17.026 C 13.131 17.012,12.013 17.000,10.930 17.000 C 9.847 17.000,8.961 16.986,8.963 16.970 C 8.964 16.953,9.127 16.805,9.325 16.640 C 9.523 16.475,10.120 15.899,10.653 15.360 C 11.911 14.089,12.466 13.358,12.981 12.300 C 13.808 10.603,13.896 8.796,13.222 7.374 C 13.000 6.904,12.853 6.691,12.503 6.326 C 12.140 5.947,11.830 5.728,11.314 5.482 C 10.734 5.205,10.245 5.090,9.437 5.041 C 9.076 5.019,8.762 5.003,8.740 5.007 C 8.718 5.010,8.637 5.019,8.560 5.027 M17.760 17.035 C 17.428 17.144,17.123 17.442,17.040 17.740 C 16.911 18.200,17.168 18.703,17.640 18.917 C 18.087 19.119,18.636 18.901,18.892 18.420 C 19.003 18.210,19.009 17.802,18.904 17.600 C 18.802 17.405,18.608 17.207,18.425 17.113 C 18.253 17.024,17.914 16.985,17.760 17.035 " fill="#1A1C1F" stroke="none" fill-rule="evenodd"></path></svg>