<svg width="32" height="32" viewBox="0 0 32 32" fill="none" xmlns="http://www.w3.org/2000/svg"><path d="M10.424 6.880 C 9.296 7.096,7.787 7.611,7.383 7.919 C 7.008 8.205,6.937 8.843,7.238 9.215 C 7.454 9.482,7.815 9.668,8.053 9.637 C 8.156 9.623,8.574 9.488,8.982 9.336 C 10.298 8.847,11.410 8.652,12.507 8.719 C 13.343 8.769,13.770 8.870,14.335 9.149 C 15.421 9.685,15.986 10.579,16.112 11.961 C 16.241 13.371,15.979 14.506,15.211 15.867 C 14.142 17.761,12.139 19.811,9.040 22.183 C 6.898 23.822,6.933 23.787,6.934 24.305 C 6.934 24.608,7.055 24.832,7.338 25.047 L 7.538 25.200 13.178 25.200 L 18.817 25.200 19.016 25.039 C 19.447 24.690,19.547 24.147,19.254 23.743 C 18.945 23.316,19.297 23.350,14.818 23.313 L 10.811 23.280 11.605 22.609 C 12.956 21.470,14.363 20.114,15.312 19.039 C 16.674 17.497,17.654 15.672,18.012 14.014 C 18.147 13.388,18.145 11.730,18.008 11.104 C 17.533 8.924,16.211 7.543,14.000 6.919 C 13.684 6.829,13.424 6.811,12.293 6.796 C 11.151 6.781,10.883 6.793,10.424 6.880 M23.681 23.199 C 23.441 23.258,23.069 23.650,22.984 23.933 C 22.725 24.800,23.668 25.574,24.479 25.160 C 24.851 24.970,25.031 24.702,25.055 24.305 C 25.071 24.032,25.052 23.931,24.947 23.733 C 24.724 23.317,24.164 23.080,23.681 23.199 " fill="#1A1C1F" stroke="none" fill-rule="evenodd"></path></svg>