<svg width="20" height="20" viewBox="0 0 20 20" fill="none" xmlns="http://www.w3.org/2000/svg"><path d="M4.700 4.046 C 4.428 4.107,4.109 4.285,3.913 4.485 C 3.092 5.326,3.573 6.738,4.759 6.968 C 5.296 7.073,5.850 6.849,6.186 6.393 C 6.756 5.618,6.504 4.569,5.650 4.163 C 5.317 4.005,5.039 3.971,4.700 4.046 M10.200 4.046 C 9.928 4.107,9.609 4.285,9.413 4.485 C 8.592 5.326,9.073 6.738,10.259 6.968 C 10.796 7.073,11.350 6.849,11.686 6.393 C 12.256 5.618,12.004 4.569,11.150 4.163 C 10.817 4.005,10.539 3.971,10.200 4.046 M15.167 4.043 C 14.790 4.130,14.333 4.473,14.170 4.793 C 13.770 5.578,14.148 6.582,14.967 6.907 C 15.231 7.012,15.738 7.010,16.008 6.904 C 16.399 6.750,16.750 6.399,16.904 6.009 C 17.010 5.738,17.012 5.231,16.907 4.967 C 16.754 4.580,16.344 4.200,15.955 4.082 C 15.717 4.010,15.384 3.994,15.167 4.043 M3.832 9.030 C 3.552 9.051,3.479 9.071,3.218 9.197 C 2.977 9.314,2.869 9.393,2.633 9.629 C 2.398 9.862,2.316 9.971,2.205 10.200 C 2.005 10.609,1.995 10.772,2.007 13.200 L 2.017 15.250 2.094 15.406 C 2.192 15.606,2.394 15.808,2.594 15.906 L 2.750 15.983 4.991 15.993 L 7.231 16.002 7.400 15.917 C 7.641 15.794,7.817 15.623,7.924 15.405 L 8.017 15.217 8.007 12.967 C 7.997 10.478,8.009 10.612,7.773 10.150 C 7.622 9.854,7.172 9.396,6.883 9.245 C 6.488 9.037,6.422 9.028,5.233 9.016 C 4.638 9.011,4.007 9.017,3.832 9.030 M10.350 9.031 C 10.133 9.059,9.964 9.143,9.804 9.304 C 9.625 9.483,9.567 9.622,9.532 9.960 C 9.515 10.119,9.501 11.545,9.501 13.127 L 9.500 16.004 10.858 15.992 C 11.824 15.983,12.253 15.967,12.343 15.937 C 12.531 15.876,12.882 15.519,12.938 15.332 C 12.974 15.214,12.983 14.720,12.983 12.917 C 12.983 10.853,12.978 10.631,12.924 10.437 C 12.777 9.902,12.403 9.472,11.850 9.198 C 11.610 9.080,11.545 9.063,11.200 9.034 C 10.786 8.998,10.609 8.997,10.350 9.031 M15.317 9.031 C 15.108 9.058,14.968 9.132,14.795 9.305 C 14.596 9.504,14.518 9.699,14.517 10.000 C 14.517 10.294,14.594 10.483,14.801 10.697 C 15.023 10.926,15.161 10.977,15.607 10.993 L 15.996 11.008 16.008 13.112 C 16.018 14.720,16.031 15.248,16.064 15.349 C 16.127 15.542,16.449 15.844,16.669 15.917 C 16.917 16.000,17.160 15.990,17.382 15.888 C 17.624 15.778,17.882 15.518,17.939 15.329 C 17.974 15.214,17.983 14.696,17.983 12.900 L 17.983 10.617 17.904 10.383 C 17.713 9.819,17.364 9.436,16.803 9.175 C 16.582 9.072,16.513 9.057,16.137 9.031 C 15.671 8.999,15.560 8.999,15.317 9.031 " fill="#1A1C1F" stroke="none" fill-rule="evenodd"></path></svg>