<svg width="24" height="24" viewBox="0 0 24 24" fill="none" xmlns="http://www.w3.org/2000/svg"><path d="M5.561 4.803 C 4.998 4.902,4.306 5.421,4.025 5.955 C 3.825 6.337,3.746 6.698,3.773 7.120 C 3.809 7.709,4.037 8.195,4.471 8.607 C 4.873 8.990,5.305 9.185,5.847 9.227 C 6.503 9.279,7.070 9.061,7.558 8.571 C 8.291 7.834,8.445 6.852,7.969 5.944 C 7.703 5.436,7.124 4.972,6.600 4.848 C 6.324 4.783,5.805 4.761,5.561 4.803 M11.860 4.800 C 10.874 4.950,10.000 5.964,10.000 6.958 C 10.000 7.197,10.100 7.667,10.200 7.899 C 10.350 8.247,10.724 8.658,11.140 8.932 C 11.540 9.196,12.223 9.304,12.730 9.185 C 13.515 9.000,14.149 8.413,14.386 7.653 C 14.476 7.362,14.487 7.270,14.471 6.911 C 14.459 6.626,14.427 6.427,14.367 6.262 C 14.173 5.729,13.744 5.255,13.223 4.998 C 12.778 4.778,12.384 4.721,11.860 4.800 M17.776 4.874 C 17.146 5.108,16.571 5.694,16.356 6.320 C 16.226 6.699,16.226 7.238,16.358 7.638 C 16.547 8.217,17.026 8.773,17.548 9.021 C 18.221 9.342,19.072 9.295,19.662 8.904 C 21.099 7.951,21.102 6.021,19.669 5.104 C 19.272 4.850,19.191 4.829,18.560 4.813 C 18.066 4.801,17.950 4.810,17.776 4.874 M4.020 11.274 C 3.458 11.305,3.247 11.371,2.852 11.639 C 2.514 11.869,2.241 12.219,2.114 12.586 L 2.020 12.860 2.020 15.703 L 2.020 18.546 2.141 18.742 C 2.287 18.978,2.530 19.157,2.766 19.203 C 2.986 19.245,8.953 19.246,9.212 19.204 C 9.470 19.161,9.712 18.983,9.870 18.720 L 10.000 18.504 10.000 15.673 L 10.000 12.842 9.901 12.580 C 9.653 11.920,9.219 11.522,8.540 11.331 C 8.384 11.288,7.914 11.272,6.420 11.262 C 5.364 11.255,4.284 11.260,4.020 11.274 M12.951 11.279 C 12.696 11.299,12.611 11.325,12.472 11.423 C 12.232 11.592,12.072 11.836,12.036 12.089 C 12.019 12.205,12.005 13.862,12.003 15.772 L 12.000 19.244 13.653 19.232 L 15.306 19.220 15.503 19.099 C 15.611 19.032,15.756 18.895,15.824 18.794 C 15.938 18.624,15.949 18.576,15.973 18.155 C 16.014 17.452,16.002 13.257,15.959 12.920 C 15.905 12.503,15.734 12.171,15.404 11.842 C 15.108 11.548,14.806 11.379,14.480 11.324 C 14.179 11.273,13.327 11.248,12.951 11.279 M18.955 11.278 C 18.718 11.298,18.613 11.327,18.488 11.410 C 18.193 11.605,18.005 11.934,18.002 12.260 C 17.999 12.578,18.316 13.036,18.632 13.169 C 18.691 13.194,19.004 13.225,19.327 13.237 C 19.649 13.250,19.928 13.275,19.947 13.293 C 19.965 13.312,19.989 14.500,20.000 15.934 L 20.021 18.541 20.131 18.729 C 20.534 19.416,21.481 19.404,21.880 18.707 L 21.999 18.500 21.998 15.860 C 21.998 14.404,21.980 13.085,21.959 12.920 C 21.905 12.503,21.734 12.171,21.404 11.842 C 21.112 11.552,20.798 11.377,20.470 11.322 C 20.179 11.273,19.322 11.248,18.955 11.278 " fill="#1A1C1F" stroke="none" fill-rule="evenodd"></path></svg>