<svg width="32" height="32" viewBox="0 0 32 32" fill="none" xmlns="http://www.w3.org/2000/svg"><path d="M6.560 6.061 C 5.176 6.263,4.146 7.100,3.700 8.384 C 3.514 8.922,3.470 9.716,3.597 10.252 C 3.841 11.275,4.502 12.120,5.440 12.608 C 5.995 12.896,6.349 12.980,7.013 12.980 C 7.516 12.981,7.661 12.960,8.027 12.833 C 8.659 12.615,8.991 12.405,9.475 11.919 C 9.819 11.573,9.955 11.388,10.125 11.034 C 10.510 10.234,10.589 9.449,10.369 8.606 C 10.200 7.956,9.691 7.193,9.146 6.773 C 8.802 6.508,8.041 6.149,7.677 6.079 C 7.411 6.029,6.843 6.019,6.560 6.061 M15.191 6.084 C 14.617 6.168,13.757 6.655,13.313 7.147 C 12.983 7.511,12.710 7.978,12.552 8.443 C 12.421 8.829,12.404 8.954,12.408 9.520 C 12.411 10.034,12.436 10.228,12.531 10.507 C 12.944 11.716,13.771 12.513,14.970 12.856 C 16.216 13.213,17.414 12.881,18.366 11.917 C 18.964 11.310,19.291 10.592,19.344 9.768 C 19.411 8.715,19.107 7.874,18.382 7.106 C 17.806 6.495,17.153 6.164,16.360 6.080 C 15.797 6.021,15.615 6.022,15.191 6.084 M24.302 6.085 C 23.679 6.176,22.807 6.716,22.304 7.324 C 21.833 7.892,21.493 8.815,21.493 9.527 C 21.493 10.303,21.879 11.251,22.433 11.839 C 23.038 12.481,23.708 12.833,24.573 12.965 C 25.984 13.180,27.462 12.369,28.131 11.013 C 28.408 10.454,28.498 10.000,28.460 9.360 C 28.405 8.417,28.166 7.824,27.591 7.202 C 26.932 6.490,26.308 6.163,25.450 6.080 C 24.857 6.022,24.730 6.023,24.302 6.085 M25.481 8.117 C 25.612 8.150,25.812 8.266,25.955 8.392 C 26.632 8.988,26.630 10.083,25.950 10.640 C 25.335 11.144,24.533 11.100,23.964 10.531 C 23.750 10.317,23.667 10.184,23.598 9.946 C 23.424 9.350,23.599 8.731,24.039 8.386 C 24.522 8.007,24.824 7.951,25.481 8.117 M5.307 15.045 C 4.230 15.078,4.128 15.097,3.639 15.358 C 2.973 15.713,2.360 16.445,2.127 17.162 C 2.014 17.511,2.010 17.607,1.986 21.021 C 1.958 24.921,1.978 25.283,2.230 25.595 C 2.312 25.696,2.474 25.829,2.590 25.890 C 2.797 25.999,2.856 26.000,7.013 26.000 C 11.769 26.000,11.368 26.037,11.783 25.564 L 12.006 25.312 11.989 21.363 L 11.972 17.413 11.834 17.057 C 11.638 16.552,11.403 16.209,10.988 15.826 C 10.595 15.463,10.079 15.177,9.673 15.097 C 9.353 15.035,6.679 15.002,5.307 15.045 M15.227 15.037 C 14.520 15.073,14.317 15.169,14.124 15.562 L 14.000 15.813 14.000 20.533 L 14.000 25.253 14.146 25.502 C 14.251 25.680,14.363 25.785,14.546 25.875 L 14.800 26.000 17.477 26.016 C 20.048 26.031,20.162 26.028,20.357 25.928 C 20.595 25.805,20.805 25.591,20.930 25.343 C 21.012 25.182,21.018 24.831,21.001 21.290 C 20.982 17.421,20.982 17.413,20.862 17.087 C 20.466 16.013,19.433 15.144,18.461 15.067 C 17.936 15.025,15.836 15.006,15.227 15.037 M24.160 15.037 C 23.560 15.070,23.398 15.133,23.206 15.407 C 22.891 15.856,22.948 16.329,23.362 16.717 C 23.505 16.851,23.629 16.963,23.638 16.967 C 23.646 16.971,24.481 16.989,25.493 17.007 C 27.292 17.039,27.338 17.043,27.531 17.163 C 27.639 17.230,27.783 17.374,27.851 17.483 L 27.973 17.680 28.000 21.497 L 28.027 25.315 28.170 25.531 C 28.477 25.995,29.165 26.115,29.587 25.779 C 29.697 25.691,29.835 25.525,29.893 25.410 C 29.997 25.206,30.000 25.097,29.998 21.333 L 29.995 17.467 29.873 17.120 C 29.692 16.607,29.427 16.208,29.019 15.830 C 28.622 15.463,28.106 15.177,27.699 15.098 C 27.384 15.037,24.934 14.995,24.160 15.037 " fill="#1A1C1F" stroke="none" fill-rule="evenodd"></path></svg>