<svg width="20" height="20" viewBox="0 0 20 20" fill="none" xmlns="http://www.w3.org/2000/svg"><path d="M4.433 4.033 C 3.819 4.052,3.689 4.065,3.522 4.127 C 2.874 4.365,2.350 4.904,2.104 5.584 L 2.000 5.870 2.000 9.727 C 2.001 13.775,2.013 14.211,2.140 14.511 C 2.451 15.247,3.072 15.798,3.754 15.942 C 3.906 15.974,5.323 15.983,10.083 15.983 L 16.217 15.983 16.483 15.876 C 17.180 15.594,17.641 15.115,17.900 14.405 L 18.000 14.131 18.000 10.274 C 18.000 8.037,17.986 6.256,17.967 6.033 C 17.936 5.671,17.925 5.632,17.769 5.317 C 17.595 4.965,17.414 4.726,17.167 4.522 C 16.938 4.334,16.470 4.105,16.228 4.063 C 15.987 4.021,5.654 3.994,4.433 4.033 M6.328 6.202 C 5.923 6.660,5.766 7.029,5.767 7.523 C 5.768 8.053,5.938 8.471,6.304 8.839 C 6.765 9.301,7.435 9.497,8.059 9.350 C 8.497 9.246,8.952 8.919,9.205 8.526 C 9.662 7.814,9.577 6.932,8.986 6.254 L 8.764 6.000 12.382 6.000 L 16.000 6.000 16.000 10.000 L 16.000 14.000 13.314 14.000 L 10.628 14.000 10.726 13.875 C 10.877 13.683,10.928 13.561,10.969 13.300 C 11.042 12.831,10.890 12.428,10.533 12.145 C 10.252 11.921,10.047 11.857,9.681 11.875 C 9.419 11.888,9.350 11.905,9.173 11.999 C 8.921 12.134,8.691 12.374,8.573 12.626 C 8.444 12.902,8.445 13.268,8.577 13.550 C 8.628 13.660,8.715 13.806,8.770 13.875 L 8.870 14.000 6.435 14.000 L 4.000 14.000 4.000 10.000 L 4.000 6.000 5.253 6.000 L 6.507 6.000 6.328 6.202 M11.474 7.128 C 11.105 7.259,10.870 7.404,10.576 7.680 C 10.297 7.942,10.074 8.279,9.941 8.636 C 9.856 8.867,9.850 8.918,9.851 9.400 C 9.851 9.904,9.854 9.923,9.958 10.183 C 10.235 10.871,10.733 11.366,11.417 11.632 C 11.712 11.746,11.725 11.748,12.217 11.748 C 12.709 11.748,12.721 11.746,13.017 11.632 C 13.889 11.293,14.444 10.615,14.594 9.708 C 14.640 9.427,14.639 9.369,14.590 9.065 C 14.441 8.162,13.884 7.482,13.016 7.146 C 12.807 7.065,12.730 7.055,12.267 7.043 C 11.764 7.031,11.743 7.033,11.474 7.128 " fill="#1A1C1F" stroke="none" fill-rule="evenodd"></path></svg>