<svg width="24" height="24" viewBox="0 0 24 24" fill="none" xmlns="http://www.w3.org/2000/svg"><path d="M5.000 5.036 C 3.886 5.061,3.854 5.064,3.613 5.167 C 2.895 5.473,2.299 6.121,2.094 6.820 C 2.028 7.042,2.022 7.421,2.010 11.990 L 1.996 16.920 2.100 17.209 C 2.253 17.632,2.387 17.857,2.669 18.161 C 2.982 18.499,3.282 18.701,3.720 18.868 L 4.060 18.997 11.988 18.999 L 19.915 19.000 20.208 18.896 C 20.616 18.750,20.888 18.588,21.182 18.312 C 21.504 18.011,21.704 17.710,21.868 17.280 L 21.997 16.940 21.999 12.012 L 22.000 7.085 21.896 6.792 C 21.750 6.384,21.588 6.113,21.314 5.820 C 21.035 5.522,20.680 5.281,20.316 5.144 L 20.052 5.045 13.096 5.027 C 9.270 5.018,5.627 5.021,5.000 5.036 M6.950 7.090 C 6.549 7.704,6.465 7.958,6.465 8.560 C 6.465 8.960,6.479 9.059,6.573 9.320 C 6.724 9.735,6.896 10.004,7.200 10.296 C 7.504 10.589,7.732 10.730,8.131 10.871 C 8.377 10.958,8.489 10.974,8.880 10.974 C 9.287 10.974,9.375 10.961,9.640 10.862 C 10.444 10.560,10.992 9.954,11.201 9.136 C 11.245 8.966,11.280 8.733,11.280 8.617 C 11.280 8.126,11.075 7.471,10.815 7.129 L 10.713 6.996 15.194 7.008 C 19.652 7.020,19.675 7.020,19.785 7.103 C 19.846 7.148,19.914 7.238,19.935 7.303 C 19.960 7.376,19.980 9.127,19.990 12.012 L 20.005 16.603 19.919 16.742 C 19.871 16.818,19.794 16.903,19.746 16.931 C 19.680 16.969,18.855 16.983,16.185 16.991 L 12.711 17.003 12.874 16.817 C 13.122 16.536,13.215 16.258,13.215 15.800 C 13.215 15.283,13.118 15.037,12.784 14.702 C 12.648 14.567,12.440 14.407,12.321 14.348 C 12.121 14.248,12.066 14.240,11.616 14.240 C 11.141 14.240,11.120 14.244,10.883 14.370 C 10.407 14.624,10.100 15.034,9.998 15.552 C 9.916 15.969,10.052 16.472,10.345 16.828 L 10.488 17.003 7.414 16.991 C 5.062 16.983,4.320 16.968,4.254 16.931 C 4.206 16.903,4.130 16.820,4.084 16.746 C 4.000 16.611,4.000 16.603,4.002 12.355 C 4.003 10.015,4.019 7.905,4.038 7.666 C 4.075 7.182,4.119 7.098,4.365 7.040 C 4.439 7.023,5.065 7.006,5.755 7.004 L 7.009 7.000 6.950 7.090 M14.400 7.921 C 13.666 8.009,12.916 8.453,12.413 9.097 C 12.154 9.427,12.040 9.640,11.895 10.068 C 11.797 10.353,11.788 10.434,11.788 11.000 C 11.787 11.588,11.793 11.638,11.909 11.970 C 12.105 12.533,12.407 12.972,12.875 13.373 C 13.379 13.804,13.962 14.029,14.681 14.068 C 16.273 14.155,17.607 13.087,17.882 11.503 C 17.941 11.168,17.911 10.509,17.824 10.180 C 17.543 9.128,16.607 8.209,15.585 7.982 C 15.259 7.910,14.721 7.882,14.400 7.921 " fill="#1A1C1F" stroke="none" fill-rule="evenodd"></path></svg>