<svg width="32" height="32" viewBox="0 0 32 32" fill="none" xmlns="http://www.w3.org/2000/svg"><path d="M5.333 6.079 C 3.995 6.114,3.947 6.125,3.314 6.555 C 2.723 6.956,2.366 7.450,2.099 8.236 L 1.973 8.605 1.973 16.008 L 1.973 23.410 2.132 23.845 C 2.516 24.898,3.102 25.487,4.137 25.862 L 4.592 26.027 16.000 26.027 L 27.408 26.027 27.863 25.862 C 28.898 25.487,29.484 24.898,29.868 23.845 L 30.027 23.410 30.027 16.001 L 30.027 8.592 29.860 8.133 C 29.556 7.291,29.052 6.703,28.312 6.328 L 27.914 6.126 26.770 6.078 C 25.535 6.027,7.310 6.028,5.333 6.079 M8.613 8.427 C 7.966 9.229,7.763 9.810,7.764 10.853 C 7.765 11.487,7.779 11.586,7.926 12.002 C 8.129 12.577,8.387 12.967,8.917 13.497 C 9.356 13.936,9.724 14.154,10.372 14.359 C 10.847 14.508,11.724 14.543,12.224 14.432 C 13.506 14.147,14.552 13.178,14.994 11.867 C 15.101 11.550,15.119 11.393,15.116 10.827 C 15.113 10.255,15.092 10.099,14.971 9.733 C 14.796 9.207,14.517 8.728,14.143 8.315 L 13.858 8.000 18.116 8.000 C 20.457 8.000,23.512 8.016,24.905 8.036 L 27.436 8.071 27.691 8.326 L 27.947 8.582 27.947 15.988 L 27.947 23.394 27.755 23.618 C 27.403 24.030,27.838 24.000,22.158 24.000 L 17.058 24.000 17.357 23.669 C 17.933 23.033,18.214 22.210,18.094 21.513 C 17.933 20.574,17.289 19.829,16.367 19.518 C 15.920 19.367,15.169 19.389,14.708 19.568 C 13.827 19.910,13.229 20.721,13.142 21.695 C 13.107 22.079,13.206 22.633,13.366 22.949 C 13.512 23.237,13.869 23.672,14.097 23.840 L 14.314 24.000 9.528 24.000 C 4.197 24.000,4.597 24.029,4.245 23.618 L 4.053 23.394 4.053 16.009 L 4.053 8.623 4.190 8.444 C 4.506 8.030,4.565 8.021,7.159 8.009 L 8.958 8.000 8.613 8.427 M19.867 9.815 C 17.874 10.126,16.319 11.615,15.918 13.596 C 15.797 14.192,15.834 15.215,15.996 15.778 C 16.237 16.610,16.677 17.318,17.345 17.949 C 17.858 18.433,18.407 18.766,19.081 19.005 C 19.515 19.157,19.608 19.170,20.433 19.190 C 21.471 19.214,21.832 19.142,22.640 18.748 C 24.266 17.955,25.279 16.340,25.284 14.536 C 25.284 14.204,25.249 13.778,25.203 13.560 C 24.824 11.769,23.486 10.370,21.717 9.915 C 21.240 9.793,20.327 9.744,19.867 9.815 " fill="#1A1C1F" stroke="none" fill-rule="evenodd"></path></svg>