<svg width="20" height="20" viewBox="0 0 20 20" fill="none" xmlns="http://www.w3.org/2000/svg"><path d="M9.083 4.520 C 8.212 4.607,7.623 4.778,6.900 5.154 C 5.595 5.832,4.614 7.000,4.155 8.423 C 4.000 8.902,3.976 9.101,4.046 9.341 C 4.111 9.566,4.345 9.830,4.567 9.931 C 4.849 10.058,5.270 10.007,5.524 9.813 C 5.692 9.685,5.784 9.522,5.915 9.121 C 6.337 7.826,7.185 6.961,8.433 6.548 C 8.701 6.459,8.757 6.453,9.422 6.441 C 10.058 6.429,10.157 6.435,10.422 6.499 C 10.801 6.592,11.437 6.901,11.783 7.161 C 12.090 7.391,12.391 7.687,12.355 7.723 C 12.341 7.736,12.117 7.711,11.857 7.667 C 11.239 7.561,10.938 7.561,10.718 7.667 C 10.381 7.830,10.184 8.149,10.191 8.520 C 10.199 8.925,10.491 9.276,10.910 9.386 C 11.106 9.437,12.692 9.730,13.700 9.901 C 14.645 10.062,14.919 10.019,15.197 9.667 C 15.349 9.474,15.364 9.416,15.586 8.205 C 16.001 5.936,16.038 5.604,15.905 5.330 C 15.678 4.862,15.123 4.679,14.652 4.917 C 14.410 5.039,14.231 5.241,14.158 5.472 C 14.098 5.662,13.967 6.384,13.967 6.523 C 13.967 6.594,13.912 6.554,13.558 6.221 C 13.027 5.722,12.796 5.539,12.410 5.312 C 11.816 4.962,11.138 4.712,10.481 4.600 C 10.114 4.537,9.350 4.493,9.083 4.520 M3.970 13.036 C 3.641 13.102,3.269 13.416,3.105 13.767 C 3.033 13.921,3.019 13.998,3.019 14.252 C 3.018 14.526,3.028 14.575,3.125 14.772 C 3.255 15.036,3.495 15.271,3.759 15.393 C 3.921 15.467,3.996 15.481,4.250 15.481 C 4.505 15.481,4.579 15.467,4.742 15.392 C 4.987 15.279,5.259 15.008,5.385 14.751 C 5.471 14.575,5.482 14.517,5.481 14.251 C 5.480 13.907,5.416 13.725,5.212 13.475 C 4.926 13.126,4.416 12.946,3.970 13.036 M15.470 13.036 C 15.141 13.102,14.769 13.416,14.605 13.767 C 14.533 13.921,14.519 13.998,14.519 14.252 C 14.518 14.526,14.528 14.575,14.625 14.772 C 14.755 15.036,14.995 15.271,15.259 15.393 C 15.421 15.467,15.496 15.481,15.750 15.481 C 16.005 15.481,16.079 15.467,16.242 15.392 C 16.487 15.279,16.759 15.008,16.885 14.751 C 16.971 14.575,16.982 14.517,16.981 14.251 C 16.980 13.907,16.916 13.725,16.712 13.475 C 16.426 13.126,15.916 12.946,15.470 13.036 " fill="#1A1C1F" stroke="none" fill-rule="evenodd"></path></svg>