<svg width="24" height="24" viewBox="0 0 24 24" fill="none" xmlns="http://www.w3.org/2000/svg"><path d="M10.700 5.505 C 9.038 5.803,7.542 6.580,6.359 7.760 C 5.643 8.474,5.074 9.312,4.715 10.185 C 4.440 10.850,4.461 11.168,4.805 11.541 C 5.187 11.955,5.811 11.920,6.259 11.459 C 6.358 11.357,6.440 11.254,6.440 11.232 C 6.440 11.158,6.875 10.323,7.046 10.068 C 7.920 8.766,9.297 7.843,10.852 7.515 C 11.431 7.393,12.337 7.393,12.909 7.514 C 13.960 7.738,14.854 8.236,15.571 8.998 C 15.851 9.296,16.221 9.793,16.187 9.826 C 16.179 9.834,15.841 9.777,15.436 9.700 C 14.312 9.484,14.069 9.504,13.705 9.839 C 13.431 10.092,13.338 10.444,13.448 10.811 C 13.508 11.012,13.841 11.381,14.012 11.436 C 14.314 11.534,18.211 12.280,18.411 12.279 C 18.706 12.277,19.101 11.985,19.242 11.664 C 19.356 11.406,20.028 7.879,20.066 7.340 C 20.089 7.026,20.086 7.016,19.955 6.821 C 19.881 6.712,19.742 6.568,19.647 6.501 C 19.496 6.396,19.432 6.378,19.158 6.366 C 18.773 6.348,18.553 6.438,18.339 6.699 C 18.163 6.914,18.111 7.069,17.961 7.838 C 17.894 8.178,17.824 8.472,17.804 8.492 C 17.784 8.512,17.668 8.394,17.530 8.214 C 17.185 7.762,16.325 6.943,15.900 6.661 C 14.946 6.029,13.972 5.651,12.909 5.500 C 12.378 5.424,11.133 5.427,10.700 5.505 M5.120 15.636 C 4.380 15.742,3.782 16.571,3.917 17.304 C 4.013 17.821,4.329 18.233,4.800 18.456 C 5.027 18.563,5.103 18.579,5.400 18.579 C 5.699 18.579,5.773 18.564,6.009 18.452 C 6.519 18.211,6.837 17.759,6.871 17.224 C 6.923 16.418,6.415 15.769,5.635 15.642 C 5.495 15.619,5.362 15.603,5.340 15.606 C 5.318 15.608,5.219 15.622,5.120 15.636 M18.120 15.636 C 17.380 15.742,16.782 16.571,16.917 17.304 C 17.012 17.819,17.327 18.228,17.800 18.455 C 18.028 18.564,18.102 18.579,18.400 18.579 C 18.699 18.579,18.773 18.564,19.009 18.452 C 19.519 18.211,19.837 17.759,19.871 17.224 C 19.923 16.418,19.415 15.769,18.635 15.642 C 18.495 15.619,18.362 15.603,18.340 15.606 C 18.318 15.608,18.219 15.622,18.120 15.636 " fill="#1A1C1F" stroke="none" fill-rule="evenodd"></path></svg>