<svg width="32" height="32" viewBox="0 0 32 32" fill="none" xmlns="http://www.w3.org/2000/svg"><path d="M14.560 7.044 C 11.493 7.299,8.381 9.198,6.550 11.931 C 5.897 12.905,5.173 14.564,5.173 15.085 C 5.173 15.530,5.566 15.977,6.011 16.037 C 6.569 16.111,6.931 15.829,7.195 15.115 C 7.465 14.383,8.019 13.286,8.360 12.809 C 9.941 10.598,12.471 9.169,15.067 9.020 C 17.758 8.865,20.070 9.726,21.926 11.571 C 22.653 12.295,23.379 13.240,23.230 13.271 C 23.184 13.280,22.636 13.191,22.013 13.072 C 19.946 12.680,19.968 12.680,19.576 12.965 C 19.316 13.152,19.200 13.390,19.200 13.733 C 19.200 14.035,19.299 14.275,19.503 14.467 C 19.631 14.587,19.807 14.648,20.457 14.799 C 21.362 15.009,23.708 15.454,24.838 15.631 C 25.568 15.745,25.605 15.746,25.837 15.657 C 25.971 15.606,26.128 15.496,26.190 15.409 C 26.251 15.323,26.372 14.964,26.458 14.610 C 26.674 13.730,27.220 10.972,27.366 10.022 L 27.486 9.244 27.356 8.982 C 27.258 8.783,27.169 8.690,26.987 8.596 C 26.528 8.359,25.898 8.512,25.626 8.926 C 25.521 9.087,25.381 9.677,25.139 10.977 C 24.964 11.914,24.928 12.047,24.867 11.964 C 23.488 10.056,22.323 9.025,20.526 8.124 C 18.701 7.210,16.770 6.860,14.560 7.044 M6.003 21.120 C 5.493 21.212,4.774 21.862,4.633 22.359 C 4.598 22.484,4.568 22.803,4.567 23.067 C 4.565 23.473,4.585 23.592,4.701 23.840 C 4.904 24.273,5.227 24.607,5.642 24.811 C 5.969 24.972,6.039 24.987,6.506 24.987 C 6.945 24.987,7.054 24.967,7.318 24.844 C 8.140 24.459,8.645 23.540,8.478 22.735 C 8.384 22.283,8.243 22.001,7.963 21.701 C 7.602 21.315,7.209 21.130,6.685 21.098 C 6.455 21.084,6.148 21.094,6.003 21.120 M23.858 21.166 C 23.289 21.378,22.948 21.695,22.697 22.243 C 22.355 22.991,22.522 23.850,23.126 24.445 C 23.981 25.289,25.396 25.174,26.111 24.202 C 26.414 23.790,26.477 23.585,26.477 23.011 C 26.477 22.587,26.458 22.490,26.321 22.211 C 26.133 21.826,25.753 21.443,25.374 21.258 C 24.976 21.063,24.250 21.019,23.858 21.166 " fill="#1A1C1F" stroke="none" fill-rule="evenodd"></path></svg>