<svg width="20" height="20" viewBox="0 0 20 20" fill="none" xmlns="http://www.w3.org/2000/svg"><path d="M13.539 2.437 C 12.971 2.533,12.507 3.041,12.445 3.633 C 12.357 4.469,13.179 5.227,14.007 5.073 C 14.853 4.916,15.343 4.052,15.033 3.266 C 14.799 2.671,14.180 2.328,13.539 2.437 M12.117 6.761 C 10.362 7.578,10.224 7.654,10.107 7.861 C 10.035 7.989,9.939 8.453,9.785 9.414 C 9.627 10.398,9.635 10.512,9.875 10.785 C 10.213 11.169,10.691 11.182,11.094 10.818 C 11.295 10.637,11.299 10.622,11.550 9.197 L 11.606 8.877 12.078 8.655 C 12.338 8.533,12.570 8.433,12.595 8.433 C 12.629 8.433,12.635 8.486,12.619 8.675 C 12.608 8.808,12.554 9.464,12.499 10.133 L 12.400 11.350 11.093 13.952 C 9.829 16.466,9.785 16.560,9.789 16.735 C 9.794 16.958,9.864 17.126,10.023 17.303 C 10.255 17.559,10.553 17.648,10.872 17.555 C 11.158 17.471,11.258 17.354,11.609 16.683 C 12.111 15.727,13.336 13.336,13.387 13.212 C 13.413 13.151,13.447 13.100,13.462 13.100 C 13.478 13.100,13.780 13.374,14.133 13.708 L 14.774 14.317 15.238 15.617 C 15.493 16.332,15.740 16.995,15.786 17.091 C 15.993 17.517,16.513 17.713,16.909 17.513 C 17.162 17.386,17.351 17.126,17.388 16.853 C 17.405 16.728,17.370 16.592,17.140 15.912 C 16.906 15.218,16.569 14.275,16.335 13.658 C 16.295 13.553,16.205 13.395,16.136 13.308 C 16.015 13.155,14.926 12.099,14.385 11.610 L 14.120 11.370 14.160 10.843 C 14.182 10.554,14.233 9.937,14.273 9.473 C 14.338 8.736,14.354 8.631,14.401 8.643 C 14.430 8.651,14.791 8.867,15.202 9.123 C 16.451 9.901,16.512 9.926,16.882 9.819 C 17.254 9.710,17.543 9.284,17.486 8.928 C 17.465 8.797,17.378 8.604,17.292 8.497 C 17.214 8.400,15.173 7.070,14.120 6.430 C 13.828 6.253,13.818 6.250,13.537 6.241 L 13.250 6.233 12.117 6.761 M3.683 9.263 C 3.036 9.285,3.019 9.289,2.795 9.492 C 2.440 9.813,2.416 10.282,2.737 10.646 C 2.993 10.937,2.794 10.917,5.333 10.917 C 7.092 10.917,7.610 10.907,7.705 10.873 C 7.885 10.810,8.117 10.545,8.181 10.331 C 8.245 10.115,8.246 10.053,8.187 9.856 C 8.125 9.649,7.973 9.465,7.777 9.360 L 7.617 9.274 5.950 9.258 C 5.033 9.250,4.013 9.252,3.683 9.263 M5.600 12.265 C 5.043 12.285,5.015 12.293,4.795 12.492 C 4.440 12.813,4.416 13.282,4.737 13.646 C 4.991 13.935,4.836 13.917,7.000 13.917 C 9.137 13.917,8.991 13.932,9.245 13.678 C 9.416 13.507,9.471 13.393,9.492 13.161 C 9.521 12.840,9.334 12.491,9.053 12.341 C 8.894 12.257,6.991 12.214,5.600 12.265 " fill="#1A1C1F" stroke="none" fill-rule="evenodd"></path></svg>