<svg width="20" height="20" viewBox="0 0 20 20" fill="none" xmlns="http://www.w3.org/2000/svg"><path d="M7.150 2.032 C 6.350 2.059,6.127 2.099,5.692 2.295 C 4.836 2.682,4.357 3.298,3.930 4.564 L 3.784 5.000 3.142 5.000 L 2.500 5.000 2.500 7.000 L 2.500 9.000 3.000 9.000 L 3.500 9.000 3.500 12.144 L 3.500 15.288 3.579 15.519 C 3.660 15.759,3.814 16.078,3.931 16.250 C 3.996 16.344,4.000 16.399,4.000 17.175 L 4.000 18.000 5.250 18.000 L 6.500 18.000 6.500 17.500 L 6.500 17.000 10.000 17.000 L 13.500 17.000 13.500 17.500 L 13.500 18.000 14.750 18.000 L 16.000 18.000 16.000 17.171 L 16.000 16.342 16.146 16.124 C 16.231 15.998,16.336 15.774,16.396 15.595 L 16.500 15.283 16.500 12.142 L 16.500 9.000 17.000 9.000 L 17.500 9.000 17.500 7.000 L 17.500 5.000 16.858 5.000 L 16.217 5.000 16.057 4.525 C 15.683 3.414,15.298 2.867,14.603 2.458 C 14.264 2.258,13.971 2.147,13.614 2.081 C 13.359 2.035,12.933 2.026,10.600 2.017 C 9.106 2.012,7.553 2.019,7.150 2.032 M13.511 4.127 C 13.709 4.233,13.836 4.390,13.981 4.706 C 14.111 4.990,14.467 6.074,14.467 6.189 L 14.467 6.267 10.125 6.266 C 7.737 6.266,5.727 6.257,5.658 6.245 C 5.590 6.234,5.533 6.206,5.533 6.182 C 5.533 6.103,5.841 5.154,5.966 4.848 C 6.136 4.431,6.265 4.253,6.477 4.141 L 6.650 4.050 7.583 4.030 C 8.097 4.019,9.604 4.017,10.933 4.025 L 13.350 4.040 13.511 4.127 M14.500 9.930 L 14.500 12.093 14.392 12.112 C 13.693 12.236,10.567 12.389,9.433 12.353 C 8.207 12.315,5.850 12.168,5.592 12.114 L 5.500 12.095 5.500 9.931 L 5.500 7.767 10.000 7.767 L 14.500 7.767 14.500 9.930 M6.543 13.916 C 6.997 13.970,7.153 14.025,7.305 14.189 C 7.494 14.392,7.533 14.496,7.533 14.802 C 7.533 15.073,7.527 15.097,7.422 15.245 C 7.293 15.427,7.104 15.574,6.926 15.631 C 6.741 15.691,5.441 15.591,5.135 15.494 C 4.967 15.440,4.714 15.188,4.644 15.005 C 4.572 14.819,4.571 14.529,4.641 14.364 C 4.714 14.193,4.887 14.009,5.064 13.914 C 5.210 13.834,5.235 13.832,5.667 13.848 C 5.914 13.858,6.308 13.888,6.543 13.916 M14.874 13.885 C 15.204 13.998,15.400 14.303,15.400 14.704 C 15.400 14.921,15.388 14.973,15.305 15.104 C 15.179 15.303,14.986 15.458,14.794 15.515 C 14.539 15.591,13.278 15.683,13.111 15.637 C 12.498 15.469,12.262 14.755,12.652 14.244 C 12.806 14.042,12.973 13.974,13.451 13.918 C 14.288 13.820,14.658 13.812,14.874 13.885 " fill="#1A1C1F" stroke="none" fill-rule="evenodd"></path></svg>