<svg width="24" height="24" viewBox="0 0 24 24" fill="none" xmlns="http://www.w3.org/2000/svg"><path d="M8.740 2.039 C 7.727 2.072,7.443 2.124,6.829 2.382 C 6.058 2.707,5.373 3.328,5.007 4.032 C 4.802 4.426,4.558 5.162,4.420 5.800 C 4.360 6.075,4.303 6.314,4.293 6.331 C 4.282 6.348,4.217 6.314,4.147 6.255 C 3.953 6.091,3.790 6.040,3.466 6.040 C 3.197 6.040,3.151 6.052,2.976 6.170 C 2.869 6.242,2.729 6.377,2.663 6.471 C 2.549 6.634,2.543 6.666,2.509 7.251 C 2.458 8.123,2.501 10.197,2.572 10.368 C 2.762 10.820,3.353 11.101,3.793 10.948 C 3.919 10.904,3.970 10.900,3.981 10.934 C 3.989 10.959,4.003 12.663,4.012 14.720 C 4.026 18.043,4.035 18.487,4.094 18.700 C 4.201 19.088,4.533 19.714,4.773 19.981 L 4.990 20.222 5.008 20.741 C 5.028 21.327,5.068 21.457,5.301 21.695 C 5.543 21.941,5.659 21.974,6.364 21.992 C 7.068 22.010,7.360 21.968,7.564 21.817 C 7.735 21.691,7.913 21.427,7.970 21.215 L 8.014 21.050 8.277 21.025 C 8.620 20.993,15.380 20.993,15.723 21.025 L 15.986 21.050 16.030 21.215 C 16.087 21.427,16.265 21.691,16.436 21.817 C 16.640 21.968,16.932 22.010,17.636 21.992 C 18.341 21.974,18.457 21.941,18.699 21.695 C 18.932 21.457,18.972 21.327,18.992 20.741 L 19.010 20.222 19.227 19.981 C 19.468 19.713,19.800 19.085,19.905 18.700 C 19.962 18.490,19.973 17.998,19.995 14.713 C 20.009 12.653,20.032 10.955,20.046 10.941 C 20.060 10.927,20.181 10.938,20.314 10.965 C 20.652 11.035,20.931 10.947,21.200 10.687 C 21.496 10.400,21.498 10.390,21.498 8.500 C 21.498 6.685,21.490 6.620,21.255 6.360 C 21.051 6.134,20.830 6.040,20.506 6.040 C 20.206 6.040,19.995 6.111,19.831 6.268 C 19.701 6.393,19.719 6.430,19.559 5.720 C 19.315 4.635,19.018 3.941,18.579 3.426 C 17.986 2.731,17.194 2.279,16.280 2.113 C 15.895 2.043,15.600 2.035,12.760 2.023 C 11.055 2.015,9.246 2.022,8.740 2.039 M15.965 4.080 C 16.494 4.179,16.980 4.552,17.252 5.069 C 17.430 5.408,17.483 5.607,17.777 7.026 L 18.000 8.102 18.000 10.467 L 18.000 12.831 17.870 12.855 C 17.645 12.898,16.049 13.074,15.320 13.138 C 13.111 13.331,10.889 13.331,8.680 13.138 C 7.951 13.074,6.355 12.898,6.130 12.855 L 6.000 12.831 6.000 10.466 L 6.000 8.100 6.240 6.960 C 6.527 5.601,6.610 5.287,6.752 5.023 C 6.989 4.585,7.469 4.229,7.991 4.102 C 8.177 4.057,8.921 4.046,11.985 4.043 C 14.353 4.041,15.829 4.055,15.965 4.080 M9.016 6.035 C 8.760 6.051,8.584 6.081,8.536 6.118 C 8.194 6.378,8.045 6.611,8.011 6.940 C 7.971 7.330,8.283 7.818,8.641 7.926 C 8.785 7.969,9.450 7.980,12.020 7.980 C 13.780 7.980,15.271 7.966,15.332 7.949 C 15.479 7.908,15.787 7.622,15.880 7.441 C 16.068 7.072,16.003 6.617,15.721 6.326 C 15.412 6.008,15.616 6.026,12.340 6.017 C 10.734 6.013,9.238 6.021,9.016 6.035 M6.840 14.959 C 10.428 15.386,13.442 15.391,16.989 14.979 C 17.457 14.924,17.875 14.880,17.919 14.880 C 17.995 14.880,18.000 14.906,17.999 15.270 C 17.999 15.485,17.985 15.682,17.967 15.710 C 17.947 15.741,17.575 15.804,16.958 15.881 C 15.824 16.021,15.553 16.081,15.360 16.235 C 15.143 16.408,14.982 16.734,14.983 17.000 C 14.985 17.505,15.458 17.998,15.941 18.000 C 16.029 18.000,16.523 17.946,17.039 17.881 C 17.554 17.816,17.983 17.770,17.992 17.779 C 18.027 17.813,17.913 18.337,17.840 18.480 C 17.738 18.679,17.518 18.866,17.311 18.928 C 17.176 18.968,16.056 18.979,12.040 18.979 C 6.283 18.980,6.635 18.998,6.318 18.682 C 6.133 18.497,6.064 18.329,6.031 17.980 C 6.018 17.839,5.888 17.844,7.170 17.942 C 7.863 17.996,8.078 18.000,8.227 17.962 C 8.559 17.879,8.820 17.634,8.943 17.291 C 9.135 16.753,8.770 16.144,8.194 16.040 C 8.076 16.019,7.557 15.965,7.040 15.920 C 6.523 15.874,6.078 15.829,6.050 15.820 C 6.014 15.807,6.000 15.674,6.000 15.341 C 6.000 14.797,5.893 14.846,6.840 14.959 " fill="#1A1C1F" stroke="none" fill-rule="evenodd"></path></svg>