<svg width="32" height="32" viewBox="0 0 32 32" fill="none" xmlns="http://www.w3.org/2000/svg"><path d="M9.947 2.076 C 8.793 2.108,8.695 2.119,8.299 2.257 C 7.064 2.688,6.203 3.577,5.821 4.813 C 5.692 5.232,5.470 6.552,5.199 8.502 L 5.008 9.885 5.026 17.196 C 5.043 23.897,5.052 24.532,5.135 24.815 C 5.256 25.224,5.385 25.468,5.699 25.883 L 5.959 26.227 5.987 27.287 C 6.017 28.416,6.074 28.730,6.320 29.120 C 6.501 29.407,6.855 29.689,7.196 29.820 C 7.642 29.990,8.704 30.060,9.790 29.990 C 10.564 29.941,10.696 29.918,10.956 29.791 C 11.328 29.609,11.694 29.205,11.842 28.811 C 11.932 28.572,11.963 28.343,11.986 27.747 L 12.016 26.987 16.000 26.987 L 19.985 26.987 20.015 27.720 C 20.059 28.818,20.227 29.218,20.813 29.618 C 21.229 29.902,21.589 29.979,22.667 30.012 C 24.256 30.060,24.917 29.912,25.445 29.388 C 25.899 28.938,26.024 28.407,26.026 26.923 L 26.027 26.246 26.294 25.892 C 26.615 25.468,26.744 25.225,26.865 24.815 C 26.948 24.533,26.957 23.890,26.974 17.181 L 26.992 9.855 26.774 8.354 C 26.260 4.814,26.130 4.325,25.483 3.493 C 25.175 3.098,24.730 2.750,24.154 2.453 C 23.710 2.225,23.577 2.183,23.167 2.139 C 22.600 2.078,11.694 2.026,9.947 2.076 M21.659 4.046 L 22.917 4.083 23.322 4.282 C 23.938 4.587,24.156 4.921,24.341 5.840 C 24.388 6.075,24.559 7.155,24.720 8.240 L 25.013 10.213 25.013 13.960 C 25.013 16.021,25.006 17.707,24.997 17.707 C 24.988 17.707,24.646 17.753,24.237 17.810 C 23.513 17.911,21.563 18.114,20.000 18.252 C 19.476 18.298,18.176 18.320,15.973 18.320 C 13.297 18.320,12.517 18.303,11.573 18.224 C 10.118 18.102,8.707 17.949,7.787 17.813 C 7.391 17.755,7.049 17.707,7.027 17.707 C 7.005 17.707,6.987 16.014,6.987 13.946 L 6.987 10.185 7.228 8.546 C 7.616 5.919,7.714 5.403,7.896 5.030 C 8.084 4.644,8.272 4.471,8.747 4.245 L 9.093 4.080 10.373 4.051 C 12.275 4.007,20.210 4.004,21.659 4.046 M28.720 7.052 C 28.474 7.139,28.286 7.289,28.150 7.508 L 28.027 7.707 28.027 10.004 L 28.027 12.301 28.175 12.526 C 28.527 13.057,29.160 13.149,29.631 12.736 C 30.033 12.383,30.027 12.425,30.027 10.000 C 30.027 7.975,30.020 7.823,29.925 7.638 C 29.683 7.169,29.139 6.904,28.720 7.052 M2.587 7.124 C 2.355 7.244,2.191 7.411,2.069 7.649 C 1.966 7.850,1.963 7.939,1.982 10.049 L 2.002 12.240 2.134 12.472 C 2.500 13.117,3.380 13.151,3.813 12.537 L 3.973 12.311 3.991 10.356 C 4.011 8.097,3.988 7.703,3.821 7.455 C 3.571 7.085,2.971 6.924,2.587 7.124 M10.502 8.047 C 10.033 8.085,9.789 8.230,9.622 8.570 C 9.390 9.042,9.557 9.567,10.031 9.857 L 10.320 10.034 16.027 10.017 C 21.696 10.000,21.735 9.999,21.947 9.889 C 22.079 9.820,22.220 9.680,22.318 9.522 C 22.622 9.033,22.485 8.461,21.990 8.153 L 21.787 8.027 16.347 8.021 C 13.355 8.017,10.725 8.029,10.502 8.047 M8.587 19.916 C 11.608 20.271,14.113 20.399,17.040 20.346 C 19.539 20.301,21.594 20.153,24.069 19.837 C 24.532 19.778,24.934 19.744,24.962 19.761 C 24.990 19.779,25.013 20.089,25.013 20.452 L 25.013 21.111 24.813 21.141 C 24.703 21.158,24.133 21.233,23.547 21.307 C 21.557 21.560,21.327 21.627,21.150 22.001 C 20.951 22.421,20.991 22.825,21.264 23.150 C 21.579 23.524,21.803 23.539,23.680 23.306 C 24.393 23.217,24.989 23.158,25.005 23.174 C 25.021 23.190,25.008 23.465,24.977 23.785 C 24.908 24.478,24.816 24.663,24.434 24.871 L 24.172 25.013 15.993 25.013 L 7.813 25.012 7.541 24.856 C 7.353 24.748,7.239 24.637,7.172 24.497 C 7.061 24.263,6.945 23.274,7.020 23.199 C 7.049 23.169,7.574 23.213,8.342 23.308 C 9.923 23.505,10.266 23.511,10.511 23.345 C 10.887 23.092,11.052 22.669,10.940 22.248 C 10.852 21.919,10.705 21.733,10.452 21.632 C 10.333 21.585,9.607 21.463,8.838 21.361 C 8.069 21.259,7.338 21.162,7.213 21.145 L 6.987 21.113 6.987 20.508 C 6.987 19.749,6.999 19.713,7.248 19.752 C 7.354 19.768,7.956 19.842,8.587 19.916 M9.973 27.493 L 9.973 28.000 8.987 28.000 L 8.000 28.000 8.000 27.493 L 8.000 26.987 8.987 26.987 L 9.973 26.987 9.973 27.493 M24.000 27.493 L 24.000 28.000 23.013 28.000 L 22.027 28.000 22.027 27.493 L 22.027 26.987 23.013 26.987 L 24.000 26.987 24.000 27.493 " fill="#1A1C1F" stroke="none" fill-rule="evenodd"></path></svg>