<svg width="24" height="24" viewBox="0 0 24 24" fill="none" xmlns="http://www.w3.org/2000/svg"><path d="M4.700 2.038 C 4.099 2.088,3.612 2.280,3.134 2.655 C 2.516 3.138,2.124 3.855,2.040 4.655 C 1.992 5.108,1.990 17.184,2.038 18.680 C 2.076 19.890,2.094 19.975,2.423 20.523 C 2.786 21.128,3.337 21.581,4.029 21.846 L 4.380 21.980 8.920 21.980 C 14.011 21.980,13.654 22.000,14.300 21.682 C 15.077 21.300,15.653 20.595,15.876 19.754 C 15.937 19.523,15.959 19.265,15.978 18.560 C 16.008 17.461,15.963 16.741,15.853 16.553 C 15.672 16.243,15.209 16.040,14.816 16.098 C 14.578 16.134,14.287 16.340,14.142 16.576 L 14.021 16.772 13.997 18.016 C 13.978 18.996,13.960 19.290,13.912 19.400 C 13.844 19.559,13.534 19.860,13.370 19.927 C 13.231 19.984,6.843 20.020,5.513 19.972 L 4.607 19.939 4.453 19.817 C 4.369 19.749,4.242 19.608,4.170 19.503 L 4.040 19.311 4.040 12.000 L 4.040 4.689 4.170 4.496 C 4.242 4.389,4.376 4.249,4.470 4.184 C 4.623 4.077,4.683 4.062,5.070 4.035 C 5.306 4.019,6.031 4.003,6.680 4.001 C 8.057 3.996,8.380 3.968,8.562 3.839 C 8.737 3.714,8.907 3.433,8.965 3.173 C 9.030 2.884,8.939 2.583,8.715 2.339 C 8.417 2.016,8.466 2.024,6.660 2.015 C 5.780 2.011,4.898 2.021,4.700 2.038 M15.336 2.044 C 13.968 2.203,12.766 2.789,11.777 3.777 C 10.897 4.658,10.381 5.612,10.112 6.854 C 9.987 7.435,9.987 8.558,10.113 9.146 C 10.366 10.327,10.876 11.307,11.658 12.114 C 12.388 12.868,13.169 13.366,14.100 13.675 C 14.867 13.930,15.120 13.970,15.960 13.972 C 16.797 13.974,17.140 13.924,17.829 13.698 C 19.158 13.263,20.335 12.352,21.088 11.176 C 21.425 10.650,21.750 9.837,21.882 9.190 C 21.993 8.647,22.003 7.392,21.900 6.900 C 21.480 4.886,20.166 3.270,18.307 2.480 C 17.416 2.101,16.276 1.934,15.336 2.044 M17.230 4.726 C 17.581 4.893,17.834 5.354,17.789 5.747 C 17.759 6.016,17.545 6.297,16.770 7.085 L 16.070 7.798 16.832 8.580 C 17.695 9.465,17.779 9.592,17.779 10.000 C 17.779 10.212,17.757 10.299,17.663 10.471 C 17.384 10.975,16.715 11.153,16.263 10.842 C 16.018 10.673,14.522 9.237,14.003 8.671 C 13.669 8.307,13.601 8.210,13.560 8.039 C 13.482 7.713,13.533 7.517,13.772 7.229 C 14.104 6.828,16.128 4.813,16.269 4.743 C 16.584 4.586,16.923 4.580,17.230 4.726 M5.753 16.057 C 5.330 16.168,4.994 16.587,5.003 16.996 C 5.007 17.187,5.073 17.356,5.227 17.574 C 5.604 18.107,6.332 18.124,6.758 17.610 C 6.916 17.419,7.017 17.085,6.983 16.867 C 6.891 16.297,6.308 15.913,5.753 16.057 M8.650 16.064 C 8.307 16.190,8.000 16.631,8.000 16.997 C 8.000 17.229,8.120 17.513,8.294 17.692 C 8.778 18.190,9.566 18.047,9.904 17.400 C 10.002 17.213,10.003 16.792,9.907 16.596 C 9.682 16.136,9.110 15.895,8.650 16.064 M11.771 16.038 C 11.240 16.166,10.890 16.767,11.056 17.267 C 11.305 18.017,12.193 18.227,12.717 17.658 C 12.930 17.428,12.969 17.322,12.971 16.980 C 12.973 16.658,12.920 16.531,12.693 16.312 C 12.453 16.080,12.070 15.966,11.771 16.038 " fill="#1A1C1F" stroke="none" fill-rule="evenodd"></path></svg>