<svg width="32" height="32" viewBox="0 0 32 32" fill="none" xmlns="http://www.w3.org/2000/svg"><path d="M5.725 2.077 C 5.167 2.108,5.104 2.124,4.684 2.332 C 3.938 2.702,3.405 3.318,3.143 4.114 L 3.013 4.507 3.014 16.027 L 3.014 27.547 3.155 27.934 C 3.513 28.914,4.211 29.561,5.298 29.918 L 5.663 30.038 13.085 30.013 C 19.937 29.990,20.529 29.981,20.800 29.896 C 21.735 29.601,22.531 28.840,22.840 27.948 L 22.960 27.600 22.960 23.120 L 22.960 18.640 22.838 18.469 C 22.610 18.149,22.416 18.053,21.996 18.053 C 21.664 18.053,21.595 18.072,21.421 18.204 C 21.025 18.506,21.056 18.142,21.010 22.932 C 20.963 27.775,20.992 27.462,20.559 27.817 L 20.332 28.003 13.002 27.988 L 5.672 27.973 5.458 27.831 C 5.340 27.753,5.198 27.597,5.142 27.485 C 5.043 27.285,5.040 26.988,5.040 16.000 C 5.040 5.191,5.044 4.712,5.137 4.525 C 5.191 4.417,5.330 4.263,5.448 4.181 L 5.661 4.034 9.727 4.001 C 13.666 3.969,13.799 3.965,13.976 3.862 C 14.076 3.803,14.231 3.652,14.319 3.526 C 14.452 3.337,14.480 3.245,14.480 2.995 C 14.480 2.645,14.358 2.433,14.012 2.182 L 13.797 2.027 10.059 2.035 C 8.002 2.040,6.052 2.059,5.725 2.077 M21.060 2.080 C 19.628 2.246,18.139 2.986,17.047 4.074 C 15.341 5.776,14.625 8.323,15.205 10.627 C 15.547 11.985,16.099 12.956,17.092 13.947 C 18.069 14.920,19.037 15.462,20.448 15.823 C 20.935 15.948,21.084 15.961,22.000 15.961 C 22.916 15.961,23.065 15.948,23.552 15.823 C 24.949 15.465,25.924 14.924,26.882 13.976 C 27.962 12.906,28.541 11.840,28.861 10.330 C 29.012 9.621,29.023 8.347,28.884 7.711 C 28.265 4.873,26.243 2.790,23.520 2.183 C 22.988 2.065,21.671 2.010,21.060 2.080 M23.082 4.137 C 23.625 4.247,24.547 4.692,25.103 5.113 C 25.798 5.638,26.367 6.442,26.727 7.409 C 26.890 7.846,26.898 7.909,26.920 8.800 C 26.946 9.877,26.889 10.251,26.594 10.931 C 25.978 12.352,24.793 13.385,23.274 13.825 C 22.909 13.931,22.738 13.946,21.973 13.943 C 21.175 13.940,21.050 13.927,20.625 13.796 C 19.116 13.334,17.944 12.260,17.356 10.802 C 17.102 10.172,17.051 9.790,17.079 8.757 C 17.101 7.949,17.117 7.830,17.252 7.467 C 17.566 6.619,17.988 5.962,18.579 5.401 C 19.220 4.793,19.940 4.384,20.750 4.166 C 21.264 4.028,22.473 4.013,23.082 4.137 M22.267 6.286 C 22.024 6.397,20.893 7.462,20.234 8.202 C 19.740 8.756,19.657 8.975,19.795 9.368 C 19.890 9.640,21.945 11.719,22.289 11.893 C 23.040 12.271,23.885 11.442,23.555 10.651 C 23.515 10.557,23.177 10.162,22.803 9.773 L 22.122 9.067 22.776 8.387 C 23.135 8.013,23.464 7.623,23.507 7.522 C 23.609 7.278,23.571 6.815,23.433 6.624 C 23.308 6.452,22.811 6.186,22.617 6.188 C 22.542 6.188,22.384 6.233,22.267 6.286 M7.706 22.076 C 7.457 22.136,7.285 22.271,7.147 22.517 C 6.901 22.956,7.015 23.471,7.435 23.810 L 7.637 23.973 8.476 23.973 C 9.296 23.973,9.319 23.970,9.531 23.830 C 9.898 23.587,10.073 23.044,9.917 22.630 C 9.833 22.407,9.550 22.139,9.336 22.080 C 9.121 22.020,7.950 22.018,7.706 22.076 M12.187 22.063 C 11.989 22.115,11.722 22.359,11.622 22.580 C 11.415 23.037,11.553 23.559,11.952 23.823 C 12.176 23.971,12.191 23.973,12.983 23.973 C 13.902 23.973,14.036 23.929,14.312 23.537 C 14.628 23.086,14.525 22.501,14.075 22.204 C 13.854 22.057,13.827 22.053,13.071 22.044 C 12.643 22.039,12.245 22.047,12.187 22.063 M16.738 22.077 C 16.352 22.152,16.091 22.442,16.022 22.870 C 15.951 23.316,16.300 23.850,16.727 23.950 C 17.060 24.027,18.029 24.009,18.327 23.921 C 18.627 23.832,18.778 23.694,18.902 23.393 C 19.019 23.108,19.008 22.838,18.867 22.561 C 18.725 22.284,18.550 22.144,18.263 22.078 C 18.020 22.022,17.025 22.021,16.738 22.077 " fill="#1A1C1F" stroke="none" fill-rule="evenodd"></path></svg>