<svg width="24" height="24" viewBox="0 0 24 24" fill="none" xmlns="http://www.w3.org/2000/svg"><path d="M8.302 2.138 C 7.663 2.406,7.229 2.899,7.060 3.548 C 6.796 4.562,7.477 5.662,8.542 5.939 C 9.795 6.265,11.089 5.166,10.988 3.860 C 10.932 3.124,10.416 2.424,9.733 2.157 C 9.548 2.084,9.401 2.063,9.020 2.052 C 8.581 2.039,8.520 2.046,8.302 2.138 M14.302 4.138 C 13.663 4.406,13.229 4.899,13.060 5.548 C 12.796 6.562,13.477 7.662,14.542 7.939 C 15.795 8.265,17.089 7.166,16.988 5.860 C 16.932 5.124,16.416 4.424,15.733 4.157 C 15.548 4.084,15.401 4.063,15.020 4.052 C 14.581 4.039,14.520 4.046,14.302 4.138 M7.158 7.276 C 6.537 7.300,6.535 7.300,6.224 7.454 C 5.794 7.667,5.404 8.040,5.219 8.415 C 5.008 8.843,4.994 9.066,5.009 11.683 L 5.023 13.980 5.132 14.280 C 5.388 14.983,5.994 15.593,6.688 15.846 C 6.817 15.893,6.935 15.952,6.951 15.976 C 6.967 16.000,6.990 17.199,7.001 18.640 C 7.018 20.631,7.035 21.289,7.074 21.380 C 7.143 21.543,7.386 21.789,7.580 21.892 C 7.792 22.004,8.198 22.011,8.410 21.906 C 8.640 21.791,8.869 21.546,8.928 21.352 C 9.004 21.101,9.004 14.848,8.928 14.633 C 8.868 14.465,8.578 14.180,8.382 14.098 C 8.309 14.068,8.098 14.032,7.914 14.019 C 7.384 13.981,7.214 13.931,7.110 13.786 L 7.020 13.660 7.008 11.452 L 6.996 9.245 8.628 9.232 C 10.474 9.218,10.424 9.226,10.709 8.903 C 11.076 8.486,11.091 8.005,10.748 7.616 C 10.463 7.292,10.467 7.293,9.040 7.271 C 8.347 7.261,7.500 7.263,7.158 7.276 M15.000 9.277 C 14.524 9.314,14.207 9.543,14.061 9.958 C 13.908 10.391,14.092 10.863,14.511 11.109 L 14.700 11.220 15.853 11.233 L 17.006 11.246 16.993 12.955 C 16.977 15.083,17.030 14.946,16.201 15.003 C 15.946 15.021,15.693 15.053,15.639 15.074 C 15.434 15.153,15.209 15.356,15.115 15.546 L 15.020 15.740 15.008 18.471 L 14.996 21.202 15.107 21.405 C 15.539 22.200,16.505 22.174,16.922 21.356 C 16.996 21.210,17.000 21.107,17.000 19.071 L 17.000 16.939 17.285 16.850 C 18.003 16.623,18.615 15.985,18.886 15.180 C 18.980 14.901,18.980 14.896,18.980 12.880 C 18.980 10.876,18.979 10.858,18.889 10.607 C 18.702 10.092,18.376 9.733,17.860 9.476 C 17.599 9.346,17.474 9.310,17.180 9.279 C 16.798 9.239,15.501 9.238,15.000 9.277 M11.660 12.056 C 11.077 12.200,10.665 12.628,10.542 13.217 C 10.406 13.868,10.755 14.556,11.377 14.860 C 11.573 14.956,11.645 14.969,12.000 14.969 C 12.352 14.969,12.428 14.956,12.615 14.864 C 13.209 14.574,13.596 13.862,13.477 13.280 C 13.345 12.640,12.954 12.221,12.333 12.060 C 12.064 11.990,11.932 11.989,11.660 12.056 M11.295 16.036 C 10.803 16.085,10.361 16.424,10.115 16.940 C 10.000 17.180,10.000 17.180,10.000 18.000 L 10.000 18.820 10.117 19.068 C 10.263 19.375,10.515 19.654,10.786 19.807 L 10.992 19.923 11.008 20.592 C 11.020 21.081,11.041 21.298,11.086 21.401 C 11.226 21.718,11.656 21.999,12.000 21.999 C 12.344 21.999,12.774 21.718,12.914 21.401 C 12.959 21.298,12.980 21.081,12.992 20.592 L 13.008 19.923 13.218 19.805 C 13.473 19.661,13.722 19.386,13.870 19.085 C 13.980 18.861,13.980 18.858,13.980 18.000 L 13.980 17.140 13.862 16.900 C 13.715 16.599,13.406 16.287,13.120 16.150 C 12.917 16.053,12.850 16.043,12.240 16.026 C 11.877 16.015,11.452 16.020,11.295 16.036 " fill="#1A1C1F" stroke="none" fill-rule="evenodd"></path></svg>