<svg width="20" height="20" viewBox="0 0 20 20" fill="none" xmlns="http://www.w3.org/2000/svg"><path d="M14.863 7.036 C 14.664 7.067,14.550 7.128,14.342 7.315 C 14.127 7.508,14.051 7.695,14.054 8.016 C 14.057 8.304,14.144 8.492,14.412 8.787 L 14.596 8.990 10.665 9.008 L 6.734 9.027 6.526 9.141 C 6.043 9.405,5.872 9.954,6.117 10.453 C 6.214 10.651,6.366 10.793,6.615 10.918 L 6.780 11.000 10.693 11.000 L 14.605 11.000 14.421 11.207 C 14.123 11.541,14.051 11.699,14.053 12.017 C 14.054 12.332,14.105 12.468,14.300 12.680 C 14.506 12.903,14.692 12.982,15.017 12.982 C 15.163 12.982,15.343 12.962,15.415 12.937 C 15.514 12.902,15.751 12.689,16.362 12.087 C 17.325 11.137,17.803 10.616,17.907 10.404 C 17.966 10.285,17.983 10.193,17.983 10.000 C 17.983 9.558,17.950 9.513,16.685 8.246 C 15.758 7.316,15.560 7.133,15.433 7.090 C 15.241 7.023,15.056 7.006,14.863 7.036 M2.800 9.032 C 2.628 9.066,2.433 9.177,2.293 9.322 C 1.932 9.697,1.919 10.282,2.264 10.675 C 2.535 10.984,3.054 11.078,3.440 10.889 C 3.797 10.715,3.980 10.413,3.980 10.000 C 3.980 9.796,3.964 9.719,3.893 9.582 C 3.686 9.181,3.225 8.949,2.800 9.032 " fill="#1A1C1F" stroke="none" fill-rule="evenodd"></path></svg>