<svg width="24" height="24" viewBox="0 0 24 24" fill="none" xmlns="http://www.w3.org/2000/svg"><path d="M17.480 8.143 C 17.253 8.273,17.141 8.408,17.056 8.656 C 16.968 8.916,16.998 9.268,17.125 9.448 C 17.176 9.521,17.521 9.900,17.892 10.290 L 18.567 11.000 13.209 11.000 L 7.850 11.000 7.797 10.870 C 7.533 10.222,6.937 9.625,6.234 9.304 C 5.811 9.111,5.567 9.064,5.000 9.064 C 4.407 9.064,4.146 9.125,3.644 9.380 C 2.858 9.779,2.382 10.346,2.114 11.202 C 1.994 11.583,1.983 12.314,2.091 12.720 C 2.249 13.311,2.637 13.915,3.101 14.292 C 3.375 14.514,3.870 14.765,4.220 14.859 C 4.811 15.018,5.602 14.970,6.169 14.740 C 6.840 14.467,7.530 13.785,7.797 13.130 L 7.850 13.000 13.210 13.000 L 18.571 13.000 17.872 13.713 C 17.059 14.543,16.979 14.669,17.010 15.062 C 17.044 15.487,17.282 15.800,17.678 15.939 C 17.897 16.017,18.052 16.016,18.320 15.936 C 18.524 15.876,18.617 15.790,20.181 14.226 C 21.087 13.321,21.860 12.518,21.899 12.442 C 21.997 12.253,21.998 11.749,21.901 11.561 C 21.793 11.354,18.601 8.173,18.427 8.100 C 18.340 8.064,18.159 8.040,17.971 8.040 C 17.711 8.041,17.630 8.058,17.480 8.143 M5.469 11.127 C 5.811 11.287,6.022 11.665,5.990 12.058 C 5.954 12.508,5.706 12.824,5.294 12.944 C 4.633 13.136,4.023 12.667,4.028 11.972 C 4.030 11.773,4.054 11.682,4.149 11.512 C 4.278 11.282,4.511 11.091,4.725 11.039 C 4.918 10.993,5.272 11.034,5.469 11.127 " fill="#1A1C1F" stroke="none" fill-rule="evenodd"></path></svg>