<svg width="32" height="32" viewBox="0 0 32 32" fill="none" xmlns="http://www.w3.org/2000/svg"><path d="M24.560 11.124 C 24.320 11.249,24.208 11.365,24.100 11.600 C 23.981 11.860,23.974 12.102,24.080 12.355 C 24.129 12.473,24.624 13.015,25.370 13.766 L 26.580 14.987 21.730 14.993 C 19.062 14.996,15.920 15.014,14.747 15.033 C 12.635 15.066,12.612 15.068,12.442 15.189 C 12.130 15.412,12.027 15.613,12.027 16.000 C 12.027 16.416,12.133 16.596,12.524 16.847 L 12.783 17.013 19.685 17.013 L 26.587 17.013 25.392 18.205 C 24.735 18.861,24.154 19.479,24.101 19.579 C 23.899 19.959,24.003 20.450,24.346 20.733 C 24.618 20.956,24.939 21.033,25.267 20.953 C 25.503 20.895,25.662 20.749,27.634 18.779 C 28.797 17.617,29.799 16.583,29.861 16.480 C 30.014 16.225,30.014 15.775,29.861 15.520 C 29.714 15.277,25.737 11.299,25.493 11.153 C 25.265 11.016,24.796 11.001,24.560 11.124 M5.467 12.062 C 4.251 12.179,3.034 13.030,2.465 14.162 C 2.165 14.759,2.072 15.123,2.042 15.813 C 1.984 17.168,2.421 18.150,3.504 19.099 C 3.855 19.406,4.502 19.739,5.013 19.875 C 5.250 19.937,5.563 19.967,6.000 19.967 C 7.283 19.967,8.187 19.537,9.096 18.494 C 9.641 17.869,9.908 17.153,9.955 16.187 C 10.012 15.028,9.638 14.025,8.853 13.227 C 8.155 12.518,7.327 12.128,6.381 12.064 C 6.084 12.043,5.672 12.043,5.467 12.062 " fill="#1A1C1F" stroke="none" fill-rule="evenodd"></path></svg>