<svg width="24" height="24" viewBox="0 0 24 24" fill="none" xmlns="http://www.w3.org/2000/svg"><path d="M2.722 2.547 C 2.567 2.580,2.304 2.779,2.194 2.947 C 1.922 3.361,1.936 3.736,2.236 4.116 C 2.416 4.342,2.698 4.476,3.088 4.521 C 3.488 4.567,3.687 4.686,3.831 4.966 C 3.965 5.226,3.997 5.671,3.999 7.285 L 4.000 8.630 4.622 11.725 C 5.515 16.174,5.749 17.261,5.875 17.561 C 6.192 18.317,6.878 18.968,7.681 19.278 C 8.239 19.493,8.241 19.493,10.863 19.497 L 13.306 19.500 13.531 19.351 C 13.853 19.138,13.980 18.907,13.979 18.540 C 13.978 18.332,13.955 18.218,13.892 18.097 C 13.804 17.931,13.561 17.686,13.394 17.596 C 13.323 17.558,12.717 17.539,10.940 17.517 C 9.529 17.499,8.528 17.471,8.451 17.447 C 8.097 17.335,7.765 16.967,7.666 16.578 C 7.595 16.300,7.196 14.372,6.519 11.040 L 6.036 8.660 6.001 6.900 C 5.962 4.854,5.945 4.726,5.634 4.089 C 5.468 3.750,5.379 3.624,5.119 3.361 C 4.851 3.091,4.743 3.014,4.392 2.846 C 4.165 2.737,3.892 2.627,3.784 2.602 C 3.564 2.550,2.872 2.514,2.722 2.547 M9.552 2.561 C 9.097 2.638,8.446 3.150,8.225 3.605 C 7.928 4.215,7.927 4.762,8.221 5.380 C 8.598 6.175,9.569 6.660,10.380 6.460 C 10.813 6.353,11.139 6.181,11.400 5.920 C 12.357 4.963,12.106 3.329,10.913 2.743 C 10.481 2.532,10.060 2.475,9.552 2.561 M9.070 8.577 C 8.987 8.607,8.858 8.677,8.783 8.735 C 8.606 8.870,8.400 9.280,8.400 9.496 C 8.400 9.720,8.594 10.116,8.777 10.267 C 8.968 10.424,9.158 10.479,9.647 10.517 C 10.128 10.554,10.228 10.612,10.330 10.915 C 10.369 11.029,10.535 11.856,10.699 12.751 C 10.863 13.647,11.019 14.486,11.045 14.615 C 11.102 14.896,11.282 15.174,11.512 15.336 C 11.734 15.493,11.994 15.513,13.920 15.519 C 14.767 15.522,15.531 15.537,15.617 15.552 L 15.774 15.580 16.340 17.860 C 17.080 20.840,17.123 20.987,17.329 21.195 C 17.777 21.647,18.540 21.551,18.870 21.000 C 19.105 20.608,19.112 20.651,18.194 17.007 C 17.456 14.076,17.441 14.027,17.225 13.826 C 16.901 13.525,17.040 13.542,14.850 13.527 C 13.767 13.519,12.880 13.501,12.880 13.486 C 12.880 13.472,12.771 12.875,12.639 12.160 C 12.282 10.235,12.200 9.970,11.796 9.430 C 11.444 8.961,10.925 8.635,10.408 8.560 C 10.017 8.504,9.248 8.513,9.070 8.577 M16.796 9.556 C 16.573 9.580,16.521 9.606,16.306 9.798 C 16.063 10.017,15.938 10.471,16.038 10.775 C 16.114 11.003,16.371 11.298,16.587 11.405 C 16.779 11.499,16.788 11.500,18.386 11.513 L 19.992 11.526 20.007 12.653 C 20.022 13.714,20.028 13.790,20.109 13.944 C 20.299 14.304,20.635 14.495,21.040 14.471 C 21.334 14.454,21.549 14.365,21.729 14.185 C 21.976 13.938,21.977 13.932,21.992 12.218 C 22.001 11.300,21.990 10.535,21.966 10.364 C 21.914 9.989,21.794 9.811,21.482 9.644 L 21.249 9.520 19.134 9.526 C 17.971 9.529,16.919 9.543,16.796 9.556 " fill="#1A1C1F" stroke="none" fill-rule="evenodd"></path></svg>