<svg width="32" height="32" viewBox="0 0 32 32" fill="none" xmlns="http://www.w3.org/2000/svg"><path d="M2.703 3.569 C 2.431 3.625,2.236 3.776,2.107 4.030 C 1.877 4.483,2.028 5.090,2.425 5.315 C 2.537 5.378,2.846 5.469,3.113 5.518 C 3.949 5.671,4.421 5.998,4.755 6.656 L 4.933 7.006 4.964 8.983 L 4.996 10.960 5.934 15.520 C 7.304 22.179,7.408 22.658,7.569 23.044 C 7.955 23.969,8.749 24.762,9.720 25.192 C 10.321 25.457,10.412 25.463,13.947 25.465 C 17.185 25.467,17.257 25.464,17.439 25.357 C 17.542 25.297,17.697 25.146,17.785 25.021 C 17.918 24.831,17.945 24.743,17.943 24.490 C 17.941 24.111,17.825 23.885,17.536 23.693 L 17.315 23.547 14.111 23.518 C 11.020 23.490,10.896 23.485,10.604 23.377 C 10.281 23.257,9.914 23.024,9.723 22.818 C 9.536 22.618,9.400 22.254,9.203 21.432 C 9.045 20.776,7.202 11.555,7.045 10.640 C 7.014 10.464,6.979 9.540,6.967 8.587 C 6.946 7.008,6.933 6.818,6.828 6.453 C 6.582 5.600,6.139 4.930,5.469 4.393 C 5.075 4.076,4.372 3.713,4.000 3.634 C 3.641 3.558,2.934 3.522,2.703 3.569 M11.573 4.324 C 11.264 4.378,10.597 4.669,10.356 4.855 C 10.025 5.110,9.578 5.594,9.410 5.880 C 9.113 6.386,8.988 6.872,8.988 7.520 C 8.988 8.460,9.272 9.123,9.975 9.821 C 10.792 10.633,11.864 10.940,12.930 10.668 C 14.063 10.378,14.879 9.636,15.277 8.533 C 15.666 7.453,15.392 6.194,14.578 5.332 C 13.907 4.621,13.290 4.326,12.401 4.292 C 12.107 4.281,11.735 4.295,11.573 4.324 M12.898 6.468 C 13.254 6.703,13.409 6.986,13.432 7.444 C 13.449 7.785,13.434 7.863,13.307 8.096 C 12.822 8.988,11.581 8.958,11.125 8.043 C 10.897 7.586,10.960 7.109,11.299 6.712 C 11.572 6.394,11.835 6.287,12.298 6.306 C 12.605 6.318,12.718 6.349,12.898 6.468 M11.387 12.568 C 10.501 12.758,9.973 13.188,9.973 13.720 C 9.973 14.161,10.224 14.558,10.590 14.697 C 10.828 14.788,10.846 14.788,11.244 14.674 C 12.016 14.455,12.417 14.475,12.782 14.750 C 13.113 15.001,13.146 15.110,13.654 17.656 C 14.163 20.204,14.305 20.831,14.431 21.074 C 14.473 21.156,14.611 21.283,14.738 21.358 L 14.969 21.493 17.926 21.493 L 20.883 21.493 21.409 24.227 C 22.091 27.766,22.137 27.967,22.297 28.138 C 22.568 28.428,22.999 28.565,23.331 28.466 C 23.633 28.376,23.981 28.026,24.030 27.764 C 24.084 27.472,24.023 27.110,23.333 23.653 C 22.691 20.430,22.580 19.981,22.388 19.800 C 22.134 19.563,22.082 19.559,19.026 19.532 L 16.105 19.507 16.079 19.393 C 16.064 19.331,15.872 18.380,15.651 17.280 C 15.191 14.981,15.043 14.385,14.839 14.009 C 14.627 13.617,14.106 13.122,13.661 12.888 C 13.037 12.560,12.063 12.423,11.387 12.568 M21.959 14.555 C 21.613 14.581,21.515 14.611,21.359 14.736 C 21.141 14.910,20.960 15.238,20.960 15.457 C 20.960 15.838,21.223 16.231,21.611 16.431 C 21.799 16.528,21.961 16.533,24.901 16.533 L 27.994 16.533 28.010 19.169 L 28.027 21.804 28.187 22.035 C 28.377 22.309,28.733 22.507,29.034 22.507 C 29.340 22.507,29.688 22.320,29.857 22.064 L 30.000 21.848 30.015 18.591 C 30.024 16.799,30.017 15.280,30.001 15.214 C 29.962 15.054,29.676 14.736,29.472 14.624 C 29.322 14.541,28.996 14.533,25.840 14.528 C 23.933 14.526,22.187 14.538,21.959 14.555 " fill="#1A1C1F" stroke="none" fill-rule="evenodd"></path></svg>