<svg width="20" height="20" viewBox="0 0 20 20" fill="none" xmlns="http://www.w3.org/2000/svg"><path d="M4.617 2.068 C 4.286 2.100,4.060 2.168,3.717 2.338 C 3.384 2.504,3.150 2.679,2.845 2.991 C 2.456 3.387,2.247 3.759,2.093 4.328 C 2.001 4.670,1.993 5.382,2.077 5.700 C 2.236 6.295,2.476 6.713,2.901 7.135 C 3.370 7.601,3.889 7.873,4.517 7.982 C 5.024 8.071,5.509 8.029,6.027 7.852 C 6.713 7.618,7.385 7.009,7.711 6.324 L 7.850 6.031 10.383 6.042 L 12.917 6.052 13.099 6.129 C 13.337 6.228,13.666 6.464,13.797 6.630 C 14.138 7.060,14.207 7.681,13.968 8.180 C 13.777 8.581,13.313 8.930,12.876 9.001 C 12.770 9.019,11.888 9.034,10.917 9.035 C 8.787 9.037,7.991 9.068,7.617 9.164 C 7.254 9.258,6.675 9.546,6.340 9.799 C 5.750 10.244,5.329 10.884,5.095 11.693 C 5.030 11.919,5.021 12.023,5.023 12.550 C 5.025 13.043,5.038 13.196,5.094 13.405 C 5.401 14.552,6.270 15.472,7.405 15.849 C 7.779 15.973,7.788 15.974,8.533 16.002 C 8.946 16.018,10.496 16.031,11.978 16.032 L 14.673 16.033 14.465 16.258 C 14.228 16.516,14.144 16.677,14.113 16.941 C 14.063 17.367,14.346 17.801,14.750 17.918 C 15.054 18.006,15.289 17.975,15.524 17.815 C 15.630 17.742,16.191 17.214,16.772 16.640 C 17.959 15.465,17.980 15.437,17.982 15.017 C 17.983 14.818,17.969 14.759,17.886 14.618 C 17.689 14.282,15.717 12.353,15.418 12.204 C 15.285 12.138,15.224 12.128,14.984 12.138 C 14.723 12.149,14.695 12.158,14.514 12.283 C 14.381 12.376,14.292 12.472,14.220 12.600 C 14.130 12.760,14.117 12.815,14.117 13.033 C 14.118 13.361,14.199 13.537,14.488 13.836 L 14.711 14.067 11.730 14.066 C 10.091 14.065,8.593 14.050,8.401 14.033 C 7.974 13.995,7.731 13.888,7.469 13.626 C 7.133 13.290,7.018 12.982,7.039 12.468 C 7.050 12.186,7.066 12.117,7.160 11.925 C 7.402 11.434,7.810 11.148,8.341 11.097 C 8.493 11.083,9.494 11.070,10.567 11.068 C 11.639 11.067,12.689 11.051,12.900 11.033 C 13.773 10.960,14.519 10.615,15.134 10.001 C 15.595 9.540,15.894 9.029,16.069 8.400 C 16.139 8.151,16.148 8.047,16.148 7.533 C 16.147 7.041,16.136 6.908,16.075 6.683 C 15.816 5.721,15.204 4.950,14.330 4.486 C 13.538 4.064,13.280 4.038,9.965 4.035 L 7.847 4.033 7.803 3.908 C 7.682 3.560,7.229 2.962,6.873 2.682 C 6.657 2.512,6.189 2.260,5.907 2.163 C 5.753 2.110,5.049 2.022,4.917 2.039 C 4.898 2.041,4.763 2.054,4.617 2.068 " fill="#1A1C1F" stroke="none" fill-rule="evenodd"></path></svg>