<svg width="24" height="24" viewBox="0 0 24 24" fill="none" xmlns="http://www.w3.org/2000/svg"><path d="M6.420 2.042 C 5.578 2.154,4.732 2.581,4.117 3.207 C 2.968 4.373,2.675 6.289,3.420 7.760 C 3.808 8.527,4.565 9.251,5.349 9.607 C 5.868 9.842,6.307 9.930,7.000 9.935 C 7.524 9.939,7.669 9.926,7.940 9.852 C 9.278 9.485,10.286 8.580,10.725 7.351 L 10.851 7.000 12.775 7.002 C 15.133 7.005,15.458 7.025,15.818 7.193 C 16.276 7.407,16.714 7.896,16.880 8.379 C 17.196 9.299,16.751 10.360,15.866 10.795 C 15.497 10.976,15.222 10.995,12.980 11.001 C 11.990 11.004,10.730 11.020,10.180 11.038 C 9.051 11.074,8.929 11.099,8.247 11.430 C 7.795 11.649,7.502 11.860,7.163 12.210 C 6.353 13.048,5.946 14.112,6.013 15.217 C 6.134 17.205,7.636 18.788,9.564 18.959 C 9.831 18.983,11.585 18.999,13.794 19.000 L 17.569 19.000 16.863 19.725 C 16.474 20.124,16.127 20.506,16.092 20.575 C 15.999 20.752,16.001 21.257,16.094 21.432 C 16.361 21.935,17.017 22.144,17.443 21.863 C 17.629 21.740,19.688 19.716,20.383 18.973 C 20.874 18.448,20.916 18.390,20.958 18.191 C 20.991 18.031,20.991 17.919,20.957 17.758 C 20.912 17.540,20.911 17.540,19.245 15.876 C 18.188 14.819,17.518 14.180,17.411 14.126 C 17.181 14.008,16.773 14.007,16.533 14.124 C 16.078 14.344,15.868 14.992,16.105 15.449 C 16.139 15.516,16.484 15.893,16.870 16.286 L 17.573 17.001 13.534 16.991 L 9.494 16.980 9.145 16.807 C 8.544 16.509,8.189 16.043,8.051 15.367 C 7.851 14.395,8.477 13.379,9.460 13.079 C 9.576 13.044,10.442 13.022,12.600 13.001 C 15.928 12.968,15.811 12.978,16.547 12.668 C 17.653 12.201,18.545 11.143,18.865 9.919 C 18.966 9.532,18.955 8.410,18.847 8.000 C 18.506 6.703,17.499 5.634,16.210 5.198 L 15.820 5.067 14.680 5.037 C 14.053 5.020,12.936 5.005,12.197 5.003 L 10.855 5.000 10.761 4.730 C 10.291 3.376,9.139 2.363,7.775 2.105 C 7.349 2.025,6.760 1.997,6.420 2.042 M7.343 4.044 C 7.473 4.068,7.719 4.159,7.890 4.248 C 8.830 4.736,9.211 5.869,8.759 6.835 C 8.606 7.162,8.151 7.624,7.840 7.769 C 7.072 8.125,6.229 7.975,5.622 7.375 C 4.818 6.579,4.810 5.396,5.603 4.603 C 6.083 4.124,6.699 3.925,7.343 4.044 " fill="#1A1C1F" stroke="none" fill-rule="evenodd"></path></svg>