<svg width="32" height="32" viewBox="0 0 32 32" fill="none" xmlns="http://www.w3.org/2000/svg"><path d="M8.240 2.079 C 7.166 2.205,5.893 2.923,5.146 3.824 C 3.888 5.343,3.657 7.494,4.561 9.284 C 5.341 10.828,6.902 11.863,8.693 12.025 C 9.543 12.102,10.805 11.777,11.614 11.273 C 12.640 10.634,13.375 9.674,13.793 8.427 C 13.937 7.997,13.945 7.924,13.945 7.040 C 13.945 6.227,13.929 6.052,13.823 5.684 C 13.588 4.865,13.160 4.146,12.534 3.517 C 11.368 2.346,9.967 1.876,8.240 2.079 M9.717 4.113 C 10.688 4.319,11.564 5.173,11.872 6.213 C 12.007 6.669,11.998 7.387,11.851 7.867 C 11.531 8.912,10.699 9.697,9.649 9.944 C 8.652 10.179,7.696 9.891,6.928 9.125 C 6.219 8.417,5.937 7.595,6.061 6.593 C 6.194 5.524,7.000 4.542,8.057 4.161 C 8.394 4.040,9.255 4.015,9.717 4.113 M16.799 6.071 C 15.983 6.200,15.737 7.178,16.375 7.755 C 16.490 7.859,16.639 7.956,16.705 7.970 C 16.772 7.984,17.799 8.005,18.987 8.016 L 21.147 8.036 21.534 8.190 C 22.972 8.761,23.923 10.233,23.817 11.724 C 23.718 13.121,22.755 14.385,21.431 14.857 C 21.235 14.927,20.573 14.948,17.121 14.990 C 14.877 15.018,12.842 15.065,12.599 15.095 C 10.991 15.295,9.381 16.499,8.574 18.107 C 7.812 19.623,7.830 21.455,8.623 22.997 C 9.241 24.201,10.316 25.164,11.560 25.630 C 12.578 26.011,12.188 25.990,18.686 26.012 L 24.545 26.033 23.373 27.218 C 22.729 27.870,22.161 28.482,22.111 28.579 C 21.866 29.052,22.128 29.727,22.630 29.917 C 22.876 30.010,23.260 29.985,23.460 29.863 C 23.739 29.693,27.649 25.766,27.835 25.470 C 28.021 25.173,28.043 24.952,27.917 24.652 C 27.861 24.517,27.153 23.772,25.713 22.335 C 23.196 19.821,23.197 19.822,22.556 20.147 C 22.200 20.327,22.029 20.596,22.028 20.975 C 22.026 21.430,22.120 21.557,23.388 22.813 L 24.586 24.000 18.733 24.000 L 12.880 24.000 12.392 23.837 C 11.775 23.632,11.338 23.368,10.904 22.939 C 10.451 22.491,10.200 22.101,10.009 21.549 C 9.876 21.166,9.851 21.009,9.849 20.560 C 9.846 19.926,9.945 19.499,10.226 18.933 C 10.503 18.377,11.123 17.757,11.707 17.456 C 12.517 17.038,12.267 17.059,17.040 17.014 C 21.139 16.976,21.324 16.970,21.746 16.862 C 23.628 16.378,24.982 15.194,25.605 13.489 C 25.878 12.740,25.939 12.372,25.936 11.493 C 25.934 10.813,25.914 10.617,25.798 10.180 C 25.302 8.298,23.950 6.881,22.037 6.241 L 21.571 6.084 19.305 6.058 C 18.059 6.044,16.931 6.050,16.799 6.071 " fill="#1A1C1F" stroke="none" fill-rule="evenodd"></path></svg>