<svg width="24" height="24" viewBox="0 0 24 24" fill="none" xmlns="http://www.w3.org/2000/svg"><path d="M11.324 2.052 C 11.249 2.079,11.150 2.151,11.104 2.213 C 11.022 2.323,11.020 2.371,11.008 4.114 L 10.996 5.903 11.139 6.051 C 11.218 6.133,11.328 6.210,11.382 6.224 C 11.638 6.288,11.926 6.119,11.975 5.874 C 11.989 5.806,12.000 5.503,12.000 5.201 L 12.000 4.652 12.567 4.624 C 13.188 4.593,13.469 4.522,13.691 4.339 C 14.036 4.055,14.186 3.689,14.147 3.222 C 14.113 2.809,14.054 2.652,13.855 2.439 C 13.633 2.202,13.374 2.087,12.948 2.038 C 12.488 1.985,11.490 1.994,11.324 2.052 M5.940 2.084 C 5.623 2.268,5.401 2.646,5.400 3.007 C 5.400 3.293,5.404 3.300,6.661 5.399 C 7.199 6.299,7.640 7.054,7.640 7.078 C 7.640 7.103,7.532 7.120,7.370 7.121 C 6.955 7.123,6.544 7.188,6.339 7.285 C 6.033 7.429,5.740 7.728,5.570 8.072 L 5.420 8.376 5.406 9.059 C 5.388 9.938,5.406 10.001,5.763 10.378 L 6.042 10.671 5.922 10.866 C 5.753 11.140,5.665 11.515,5.699 11.818 C 5.729 12.087,5.840 12.372,5.969 12.509 L 6.053 12.599 5.806 12.857 C 5.437 13.241,5.434 13.253,5.397 14.455 L 5.365 15.491 5.248 15.635 C 5.107 15.810,4.923 15.872,4.540 15.878 C 3.960 15.885,3.582 15.948,3.326 16.077 C 2.708 16.389,2.161 17.201,2.039 17.990 C 2.011 18.172,1.999 18.820,2.007 19.787 C 2.021 21.471,2.011 21.405,2.307 21.686 C 2.607 21.971,2.917 22.053,3.289 21.945 C 3.542 21.871,3.780 21.666,3.899 21.418 C 3.969 21.274,3.978 21.122,4.000 19.694 C 4.025 18.055,4.025 18.053,4.203 17.958 C 4.241 17.938,4.526 17.894,4.836 17.862 C 5.509 17.791,5.804 17.720,6.189 17.536 C 6.513 17.381,6.912 17.036,7.062 16.781 C 7.309 16.359,7.400 15.800,7.400 14.704 L 7.400 14.108 7.731 13.764 C 8.310 13.163,8.461 12.869,8.459 12.340 C 8.459 12.068,8.442 11.988,8.347 11.806 C 8.242 11.607,8.239 11.587,8.300 11.520 C 8.472 11.330,8.527 10.815,8.416 10.437 C 8.328 10.136,8.237 10.000,7.813 9.535 L 7.443 9.131 8.012 9.110 C 8.891 9.076,9.283 8.917,9.578 8.470 C 9.918 7.955,9.920 7.111,9.583 6.446 C 9.363 6.011,7.580 3.108,7.185 2.541 C 6.944 2.195,6.713 2.063,6.323 2.049 C 6.146 2.043,5.987 2.057,5.940 2.084 M20.603 2.470 C 20.556 2.509,20.467 2.666,20.405 2.820 C 20.327 3.013,20.269 3.104,20.216 3.112 C 19.954 3.154,19.808 3.309,19.855 3.496 C 19.889 3.629,20.032 3.760,20.144 3.760 C 20.232 3.760,20.232 3.761,20.246 4.670 C 20.259 5.528,20.265 5.591,20.353 5.770 C 20.405 5.874,20.495 5.994,20.553 6.035 C 20.802 6.212,21.354 6.291,21.688 6.198 C 21.857 6.151,22.000 5.994,22.000 5.855 C 22.000 5.688,21.880 5.615,21.560 5.588 C 21.399 5.575,21.251 5.547,21.232 5.528 C 21.212 5.508,21.185 5.102,21.171 4.626 L 21.148 3.760 21.438 3.760 C 21.711 3.760,21.735 3.753,21.844 3.636 C 21.977 3.494,21.987 3.416,21.889 3.295 C 21.781 3.162,21.665 3.120,21.403 3.120 L 21.160 3.120 21.160 2.903 C 21.160 2.608,21.111 2.499,20.957 2.445 C 20.779 2.383,20.703 2.388,20.603 2.470 M12.988 2.834 C 13.153 2.922,13.218 3.384,13.103 3.659 C 13.008 3.886,12.662 3.997,12.220 3.942 L 12.000 3.914 12.000 3.332 L 12.000 2.749 12.452 2.769 C 12.701 2.780,12.942 2.809,12.988 2.834 M15.260 3.079 C 14.736 3.214,14.487 3.567,14.528 4.115 C 14.564 4.589,14.755 4.779,15.421 5.000 C 15.847 5.142,15.940 5.219,15.901 5.394 C 15.854 5.609,15.569 5.650,14.949 5.531 L 14.591 5.463 14.495 5.574 C 14.394 5.691,14.374 5.836,14.441 5.962 C 14.466 6.009,14.593 6.073,14.771 6.129 C 15.151 6.247,15.834 6.257,16.147 6.148 C 16.558 6.004,16.802 5.584,16.747 5.116 C 16.693 4.663,16.508 4.486,15.881 4.284 C 15.341 4.111,15.199 3.961,15.402 3.778 C 15.497 3.693,15.884 3.683,16.212 3.757 C 16.440 3.809,16.528 3.774,16.599 3.602 C 16.721 3.308,16.513 3.135,15.972 3.078 C 15.567 3.036,15.428 3.036,15.260 3.079 M18.020 3.079 C 17.496 3.214,17.247 3.567,17.288 4.115 C 17.324 4.589,17.515 4.779,18.181 5.000 C 18.607 5.142,18.700 5.219,18.661 5.394 C 18.614 5.609,18.329 5.650,17.709 5.531 L 17.351 5.463 17.255 5.574 C 17.161 5.683,17.136 5.812,17.185 5.938 C 17.280 6.186,18.377 6.323,18.900 6.153 C 18.988 6.124,19.144 6.019,19.246 5.920 C 19.402 5.769,19.439 5.702,19.480 5.502 C 19.572 5.056,19.459 4.701,19.167 4.516 C 19.069 4.454,18.818 4.346,18.610 4.277 C 18.097 4.106,17.964 3.957,18.162 3.778 C 18.257 3.693,18.644 3.683,18.972 3.757 C 19.200 3.809,19.288 3.774,19.359 3.602 C 19.481 3.308,19.273 3.135,18.732 3.078 C 18.327 3.036,18.188 3.036,18.020 3.079 M2.994 4.044 C 2.304 4.149,1.846 4.928,2.063 5.625 C 2.121 5.812,2.185 5.909,2.378 6.100 C 2.688 6.408,2.921 6.498,3.333 6.471 C 3.806 6.440,4.146 6.215,4.358 5.791 C 4.598 5.310,4.498 4.740,4.109 4.372 C 3.804 4.084,3.438 3.976,2.994 4.044 M12.685 7.583 C 12.103 7.740,11.491 8.224,11.246 8.722 C 11.030 9.161,10.991 9.428,10.337 15.008 L 9.987 17.996 10.174 19.141 C 10.469 20.943,10.552 21.332,10.682 21.537 C 10.813 21.744,11.131 21.945,11.386 21.983 C 11.806 22.046,12.281 21.739,12.422 21.314 C 12.512 21.042,12.492 20.821,12.225 19.240 L 12.013 17.980 12.445 14.340 C 12.683 12.338,12.914 10.458,12.959 10.163 C 13.038 9.636,13.099 9.480,13.224 9.480 C 13.322 9.480,13.478 9.572,13.501 9.643 C 13.513 9.682,13.424 10.611,13.302 11.707 C 12.999 14.439,12.989 14.560,13.045 14.790 C 13.166 15.289,13.512 15.732,13.945 15.944 C 14.147 16.043,14.238 16.061,14.637 16.079 L 15.095 16.100 15.226 16.325 C 15.397 16.617,15.755 16.944,15.972 17.007 C 16.064 17.033,16.334 17.053,16.571 17.051 L 17.001 17.047 17.116 17.214 C 17.276 17.447,17.603 17.743,17.786 17.821 C 18.095 17.952,18.477 17.966,18.887 17.860 L 18.995 17.833 19.008 19.546 C 19.019 20.825,19.035 21.290,19.073 21.380 C 19.143 21.543,19.386 21.789,19.580 21.892 C 19.789 22.003,20.195 22.009,20.410 21.904 C 20.615 21.804,20.865 21.545,20.928 21.368 C 21.003 21.156,21.000 17.566,20.924 17.220 C 20.799 16.643,20.426 16.141,19.951 15.910 C 19.740 15.807,19.690 15.800,19.212 15.800 L 18.698 15.800 18.620 15.655 C 18.523 15.476,18.158 15.145,17.937 15.038 C 17.762 14.954,17.240 14.840,17.026 14.840 C 16.919 14.840,16.855 14.790,16.602 14.514 C 16.218 14.095,15.956 13.961,15.457 13.930 C 15.270 13.918,15.110 13.896,15.101 13.881 C 15.092 13.866,15.173 13.063,15.282 12.097 C 15.530 9.899,15.552 9.547,15.464 9.200 C 15.354 8.769,15.213 8.526,14.884 8.200 C 14.403 7.725,13.900 7.518,13.242 7.523 C 13.054 7.524,12.803 7.551,12.685 7.583 " fill="#1A1C1F" stroke="none" fill-rule="evenodd"></path></svg>