<svg width="20" height="20" viewBox="0 0 20 20" fill="none" xmlns="http://www.w3.org/2000/svg"><path d="M7.667 2.035 C 7.048 2.054,6.875 2.071,6.677 2.129 C 5.793 2.388,5.163 2.951,4.838 3.771 C 4.719 4.072,4.538 4.793,4.413 5.470 L 4.323 5.957 3.965 5.976 C 3.547 5.998,3.359 6.073,3.152 6.302 C 2.901 6.579,2.883 6.658,2.883 7.467 C 2.883 8.128,2.889 8.195,2.955 8.337 C 3.126 8.709,3.451 8.933,3.858 8.960 L 4.100 8.975 4.100 12.220 L 4.100 15.464 4.179 15.682 C 4.303 16.023,4.460 16.253,4.766 16.539 L 5.048 16.804 5.070 17.227 C 5.096 17.713,5.120 17.796,5.273 17.904 C 5.374 17.977,5.422 17.984,5.864 17.995 C 6.541 18.011,6.743 17.985,6.881 17.864 C 7.014 17.747,7.067 17.569,7.067 17.235 L 7.067 17.000 10.067 17.000 L 13.067 17.000 13.067 17.252 C 13.067 17.616,13.117 17.784,13.260 17.893 C 13.374 17.980,13.396 17.984,13.862 17.995 C 14.543 18.011,14.743 17.985,14.883 17.863 C 15.025 17.738,15.066 17.559,15.069 17.057 L 15.070 16.683 15.248 16.543 C 15.584 16.278,15.813 15.839,15.869 15.351 C 15.886 15.204,15.900 13.709,15.900 12.029 L 15.900 8.975 16.142 8.960 C 16.549 8.933,16.874 8.709,17.045 8.337 C 17.111 8.195,17.117 8.128,17.117 7.467 C 17.117 6.658,17.099 6.579,16.848 6.302 C 16.641 6.073,16.453 5.998,16.034 5.976 L 15.676 5.957 15.535 5.241 C 15.360 4.350,15.233 3.893,15.067 3.550 C 14.741 2.877,14.066 2.329,13.317 2.131 C 13.109 2.076,12.891 2.054,12.333 2.032 C 11.497 2.000,8.750 2.002,7.667 2.035 M12.273 3.730 C 12.845 3.755,12.869 3.759,13.079 3.862 C 13.427 4.033,13.573 4.262,13.711 4.850 C 13.815 5.295,13.967 6.075,13.967 6.167 C 13.967 6.233,13.940 6.233,10.000 6.233 L 6.033 6.233 6.033 6.155 C 6.033 5.956,6.355 4.525,6.441 4.342 C 6.530 4.152,6.727 3.955,6.941 3.843 L 7.117 3.751 8.300 3.732 C 10.151 3.703,11.630 3.702,12.273 3.730 M14.200 10.428 L 14.200 12.923 13.725 12.945 C 12.394 13.005,10.359 13.039,9.267 13.020 C 7.903 12.996,6.324 12.945,6.008 12.915 L 5.800 12.895 5.800 10.414 L 5.800 7.933 10.000 7.933 L 14.200 7.933 14.200 10.428 M6.733 14.166 C 7.686 14.259,7.767 14.287,7.935 14.580 C 8.016 14.720,8.033 14.788,8.032 14.967 C 8.032 15.219,7.953 15.388,7.767 15.537 C 7.567 15.697,7.407 15.719,6.810 15.671 C 5.531 15.568,5.393 15.532,5.204 15.245 C 4.954 14.869,5.089 14.341,5.481 14.163 C 5.657 14.083,5.880 14.084,6.733 14.166 M14.593 14.152 C 15.108 14.367,15.192 15.077,14.742 15.421 C 14.589 15.538,14.441 15.567,13.579 15.651 C 12.859 15.720,12.684 15.715,12.475 15.618 C 12.281 15.528,12.119 15.316,12.079 15.103 C 12.046 14.927,12.118 14.638,12.228 14.502 C 12.395 14.295,12.551 14.243,13.167 14.185 C 13.469 14.156,13.769 14.128,13.833 14.122 C 14.158 14.091,14.476 14.103,14.593 14.152 " fill="#1A1C1F" stroke="none" fill-rule="evenodd"></path></svg>