<svg width="20" height="20" viewBox="0 0 20 20" fill="none" xmlns="http://www.w3.org/2000/svg"><path d="M9.349 2.038 C 8.141 2.121,6.735 2.599,5.668 3.291 C 5.002 3.723,4.280 4.371,3.783 4.983 C 2.722 6.290,2.091 7.945,2.017 9.617 C 1.934 11.502,2.483 13.294,3.600 14.784 C 3.923 15.216,4.618 15.927,5.056 16.275 C 6.631 17.527,8.729 18.154,10.715 17.965 C 11.157 17.923,11.832 17.795,12.130 17.696 C 12.963 17.418,13.045 16.277,12.260 15.886 C 12.032 15.772,11.788 15.773,11.088 15.889 C 10.645 15.962,10.441 15.978,9.933 15.979 C 9.389 15.980,9.267 15.969,8.895 15.890 C 7.035 15.496,5.661 14.497,4.759 12.883 C 4.074 11.658,3.859 10.248,4.136 8.809 C 4.584 6.491,6.461 4.607,8.793 4.134 C 9.563 3.978,10.256 3.984,11.300 4.154 C 11.603 4.203,11.875 4.231,11.958 4.220 C 12.256 4.181,12.583 3.928,12.731 3.621 C 12.898 3.276,12.794 2.772,12.506 2.532 C 12.217 2.292,11.716 2.125,11.106 2.068 C 10.639 2.024,9.769 2.010,9.349 2.038 " fill="#1A1C1F" stroke="none" fill-rule="evenodd"></path></svg>