<svg width="32" height="32" viewBox="0 0 32 32" fill="none" xmlns="http://www.w3.org/2000/svg"><path d="M14.667 5.095 C 11.864 5.484,9.563 6.703,7.744 8.765 C 7.162 9.424,6.873 9.824,6.470 10.526 C 5.845 11.618,5.401 12.840,5.161 14.133 C 4.997 15.023,4.996 16.976,5.161 17.867 C 5.545 19.941,6.451 21.815,7.770 23.264 C 9.695 25.379,11.943 26.553,14.791 26.931 C 16.005 27.093,18.322 26.877,18.986 26.542 C 19.490 26.287,19.702 25.691,19.454 25.227 C 19.252 24.850,19.055 24.747,18.539 24.747 C 18.301 24.747,17.860 24.795,17.559 24.853 C 16.095 25.138,14.592 25.011,13.020 24.472 C 10.068 23.459,7.865 20.930,7.191 17.780 C 7.081 17.267,7.067 17.062,7.070 16.000 C 7.073 14.656,7.142 14.194,7.499 13.120 C 8.508 10.089,11.085 7.829,14.267 7.186 C 14.765 7.086,15.026 7.068,16.000 7.068 C 16.984 7.068,17.233 7.085,17.755 7.190 C 18.752 7.391,19.047 7.345,19.347 6.940 C 19.630 6.556,19.625 6.063,19.333 5.716 C 19.030 5.356,18.113 5.142,16.536 5.066 C 15.295 5.006,15.310 5.005,14.667 5.095 " fill="#1A1C1F" stroke="none" fill-rule="evenodd"></path></svg>