<svg width="32" height="32" viewBox="0 0 32 32" fill="none" xmlns="http://www.w3.org/2000/svg"><path d="M5.642 3.573 C 5.069 3.746,4.799 4.410,5.080 4.959 C 5.244 5.279,5.396 5.375,5.894 5.469 C 6.796 5.641,7.136 5.814,7.517 6.296 C 7.883 6.759,7.904 6.891,7.930 8.880 L 7.953 10.640 8.887 15.280 C 10.361 22.609,10.377 22.682,10.608 23.172 C 11.011 24.030,11.683 24.701,12.556 25.118 C 13.278 25.464,13.270 25.463,16.907 25.465 C 20.549 25.467,20.431 25.478,20.708 25.112 C 21.078 24.623,20.979 23.973,20.488 23.668 L 20.293 23.547 17.093 23.518 C 13.996 23.490,13.884 23.486,13.588 23.376 C 13.070 23.183,12.698 22.883,12.510 22.507 C 12.279 22.045,12.154 21.469,10.884 15.040 L 9.973 10.427 9.971 9.227 C 9.969 7.524,9.905 6.721,9.733 6.205 C 9.291 4.885,8.116 3.860,6.740 3.597 C 6.303 3.513,5.871 3.504,5.642 3.573 M14.587 4.317 C 13.821 4.443,12.978 5.009,12.482 5.731 C 11.997 6.436,11.831 7.423,12.052 8.288 C 12.209 8.902,12.441 9.299,12.931 9.789 C 13.421 10.279,13.811 10.497,14.515 10.675 C 15.850 11.013,17.378 10.296,18.046 9.019 C 18.551 8.052,18.563 7.114,18.083 6.101 C 17.713 5.318,16.891 4.598,16.148 4.406 C 15.765 4.307,14.938 4.260,14.587 4.317 M15.469 6.293 C 15.797 6.384,16.146 6.643,16.271 6.889 C 16.448 7.235,16.470 7.718,16.322 8.022 C 16.018 8.650,15.312 8.909,14.691 8.620 C 13.919 8.261,13.731 7.243,14.327 6.647 C 14.651 6.323,15.089 6.187,15.469 6.293 M14.587 12.541 C 13.908 12.604,13.256 12.941,13.050 13.335 C 12.977 13.474,12.960 13.597,12.979 13.830 C 13.012 14.235,13.188 14.506,13.527 14.670 L 13.780 14.793 14.130 14.697 C 14.980 14.463,15.383 14.470,15.739 14.724 C 16.075 14.963,16.120 15.115,16.719 18.077 C 17.110 20.011,17.317 20.928,17.391 21.048 C 17.450 21.143,17.588 21.276,17.696 21.344 L 17.893 21.467 20.880 21.483 L 23.867 21.499 24.126 22.869 C 24.749 26.161,25.079 27.761,25.171 27.941 C 25.431 28.447,25.995 28.634,26.495 28.379 C 26.945 28.150,27.089 27.794,26.990 27.162 C 26.899 26.587,26.008 22.082,25.779 21.040 C 25.562 20.055,25.495 19.887,25.237 19.690 L 25.048 19.547 22.062 19.520 L 19.075 19.493 18.686 17.573 C 18.069 14.522,18.012 14.306,17.699 13.838 C 17.316 13.267,16.860 12.926,16.166 12.694 C 15.757 12.558,15.098 12.494,14.587 12.541 " fill="#1A1C1F" stroke="none" fill-rule="evenodd"></path></svg>