<svg width="20" height="20" viewBox="0 0 20 20" fill="none" xmlns="http://www.w3.org/2000/svg"><path d="M4.917 2.033 C 3.344 2.053,3.406 2.045,3.000 2.272 C 2.278 2.678,1.864 3.608,2.037 4.440 C 2.171 5.088,2.837 5.421,3.422 5.133 C 3.786 4.954,4.000 4.608,4.000 4.199 L 4.000 4.000 9.996 4.000 L 15.991 4.000 16.007 4.258 C 16.032 4.674,16.244 4.984,16.622 5.157 C 16.776 5.227,16.842 5.238,17.044 5.227 C 17.430 5.206,17.722 5.015,17.890 4.674 C 17.978 4.495,17.983 4.458,17.981 4.067 C 17.980 3.701,17.968 3.617,17.888 3.385 C 17.678 2.779,17.191 2.286,16.623 2.105 C 16.422 2.041,16.284 2.039,11.383 2.027 C 8.615 2.020,5.705 2.023,4.917 2.033 M4.500 6.030 L 3.483 6.050 3.223 6.175 C 2.929 6.315,2.859 6.364,2.603 6.610 C 2.365 6.840,2.196 7.104,2.098 7.404 L 2.017 7.650 2.017 12.000 L 2.017 16.350 2.098 16.596 C 2.294 17.193,2.809 17.708,3.406 17.903 L 3.650 17.983 10.000 17.983 L 16.350 17.983 16.594 17.903 C 17.188 17.709,17.686 17.215,17.891 16.617 L 17.983 16.350 17.983 12.000 L 17.983 7.650 17.902 7.404 C 17.741 6.914,17.343 6.457,16.867 6.216 C 16.470 6.015,16.834 6.027,10.933 6.018 C 7.954 6.013,5.059 6.019,4.500 6.030 M14.650 8.134 C 14.968 8.163,15.676 8.298,15.715 8.337 C 15.731 8.354,15.601 10.076,15.583 10.095 C 15.575 10.102,15.430 10.069,15.260 10.022 C 14.797 9.893,14.558 9.859,14.117 9.855 C 13.469 9.851,13.106 9.968,12.776 10.290 C 12.435 10.622,12.290 11.136,12.290 12.017 C 12.290 13.215,12.574 13.748,13.350 14.006 C 13.563 14.077,13.639 14.083,14.217 14.081 C 14.796 14.078,14.882 14.070,15.226 13.984 C 15.452 13.927,15.614 13.901,15.632 13.920 C 15.648 13.936,15.700 14.250,15.747 14.617 C 15.795 14.983,15.841 15.337,15.850 15.404 L 15.866 15.524 15.532 15.614 C 14.327 15.937,13.106 15.924,12.241 15.578 C 11.876 15.433,11.631 15.270,11.347 14.986 C 10.920 14.559,10.688 14.099,10.527 13.360 C 10.461 13.055,10.452 12.921,10.451 12.150 C 10.450 11.087,10.510 10.711,10.786 10.057 C 11.393 8.614,12.714 7.957,14.650 8.134 M6.850 8.332 C 7.730 8.358,7.797 8.364,8.027 8.445 C 8.693 8.679,9.090 9.091,9.237 9.700 C 9.302 9.972,9.292 10.510,9.218 10.733 C 9.081 11.145,8.834 11.409,8.376 11.635 C 8.220 11.712,8.137 11.769,8.167 11.780 C 8.194 11.789,8.333 11.835,8.475 11.882 C 9.331 12.162,9.701 12.672,9.700 13.571 C 9.698 14.582,9.231 15.192,8.215 15.511 C 7.759 15.654,7.535 15.669,5.675 15.690 L 3.900 15.709 3.900 12.005 L 3.900 8.300 4.908 8.302 C 5.463 8.304,6.337 8.317,6.850 8.332 M5.700 10.415 L 5.700 11.073 6.358 11.058 C 6.736 11.050,7.070 11.026,7.142 11.003 C 7.338 10.941,7.488 10.769,7.532 10.557 C 7.600 10.227,7.500 10.004,7.219 9.860 C 7.104 9.801,7.002 9.790,6.394 9.775 L 5.700 9.757 5.700 10.415 M5.700 13.387 L 5.700 14.207 6.475 14.192 C 7.367 14.174,7.487 14.148,7.718 13.917 C 8.036 13.599,7.983 12.977,7.617 12.726 C 7.436 12.602,7.168 12.568,6.358 12.567 L 5.700 12.567 5.700 13.387 " fill="#1A1C1F" stroke="none" fill-rule="evenodd"></path></svg>