<svg width="20" height="20" viewBox="0 0 20 20" fill="none" xmlns="http://www.w3.org/2000/svg"><path d="M7.718 2.386 C 6.845 2.547,6.018 2.983,5.382 3.617 C 4.876 4.121,4.559 4.638,4.337 5.325 C 4.151 5.899,4.155 5.799,4.152 9.667 L 4.150 13.250 4.617 13.485 C 5.344 13.852,6.483 14.283,7.243 14.481 C 7.753 14.613,8.355 14.648,10.133 14.648 C 11.276 14.649,11.838 14.636,12.050 14.606 C 12.925 14.480,14.363 13.986,15.474 13.430 L 15.877 13.228 15.856 9.672 C 15.844 7.600,15.822 6.026,15.802 5.900 C 15.553 4.266,14.241 2.878,12.520 2.426 C 12.260 2.357,12.170 2.354,10.117 2.346 C 8.356 2.339,7.937 2.346,7.718 2.386 M12.233 3.282 C 12.703 3.433,13.044 3.690,13.316 4.099 C 13.597 4.522,13.617 4.602,13.613 5.283 C 13.608 6.238,13.341 9.374,13.234 9.735 C 13.118 10.125,12.769 10.559,12.397 10.777 C 11.975 11.024,11.572 11.074,10.000 11.074 C 8.768 11.074,8.279 11.040,7.977 10.934 C 7.480 10.759,6.942 10.223,6.768 9.728 C 6.696 9.524,6.632 8.901,6.466 6.771 C 6.324 4.941,6.332 4.758,6.575 4.267 C 6.823 3.768,7.481 3.286,7.991 3.231 C 8.115 3.217,9.079 3.210,10.133 3.215 C 11.859 3.222,12.068 3.229,12.233 3.282 M7.750 11.772 C 8.462 11.885,8.598 11.962,8.770 12.349 C 8.865 12.565,8.844 12.827,8.713 13.068 C 8.605 13.266,8.476 13.376,8.264 13.451 C 8.138 13.496,8.066 13.498,7.770 13.467 C 7.295 13.416,6.712 13.308,6.600 13.250 C 6.327 13.109,6.185 12.852,6.184 12.500 C 6.183 12.209,6.267 12.023,6.471 11.859 C 6.735 11.647,6.893 11.636,7.750 11.772 M13.365 11.749 C 13.553 11.847,13.750 12.071,13.798 12.244 C 13.887 12.561,13.768 12.986,13.543 13.157 C 13.404 13.263,13.210 13.320,12.700 13.404 C 12.101 13.503,11.824 13.503,11.624 13.405 C 11.086 13.140,11.018 12.339,11.503 11.981 C 11.638 11.881,11.733 11.855,12.250 11.769 C 12.948 11.654,13.173 11.650,13.365 11.749 M15.267 15.188 C 14.877 15.347,13.727 15.731,13.083 15.917 L 12.550 16.071 11.667 16.105 C 11.181 16.123,10.101 16.132,9.267 16.125 C 7.858 16.112,7.726 16.106,7.417 16.038 C 6.716 15.885,6.092 15.696,5.123 15.344 C 4.797 15.226,4.507 15.134,4.479 15.140 C 4.439 15.148,4.460 15.213,4.579 15.450 C 5.062 16.409,5.858 17.175,6.797 17.586 L 7.044 17.694 7.167 17.503 C 7.315 17.274,7.537 17.118,7.788 17.066 C 7.985 17.025,7.972 17.023,8.750 17.157 C 9.218 17.237,9.371 17.248,10.000 17.248 C 10.629 17.248,10.782 17.237,11.250 17.157 C 12.028 17.023,12.015 17.025,12.212 17.066 C 12.463 17.118,12.685 17.274,12.833 17.503 L 12.956 17.694 13.203 17.585 C 13.965 17.251,14.681 16.641,15.156 15.920 C 15.327 15.661,15.579 15.153,15.562 15.105 C 15.555 15.087,15.422 15.124,15.267 15.188 " fill="#1A1C1F" stroke="none" fill-rule="evenodd"></path></svg>