<svg width="20" height="20" viewBox="0 0 20 20" fill="none" xmlns="http://www.w3.org/2000/svg"><path d="M4.805 2.204 C 4.328 2.283,3.645 2.602,3.215 2.946 C 2.703 3.356,2.297 3.995,2.113 4.683 C 2.034 4.976,2.023 5.079,2.022 5.533 C 2.022 5.989,2.032 6.089,2.110 6.381 C 2.432 7.579,3.327 8.471,4.529 8.792 C 4.810 8.867,4.916 8.877,5.383 8.877 C 5.854 8.877,5.955 8.867,6.246 8.789 C 7.365 8.491,8.214 7.675,8.577 6.550 C 8.736 6.056,8.785 5.635,8.734 5.211 C 8.586 3.995,7.921 3.045,6.850 2.517 C 6.411 2.301,6.201 2.244,5.678 2.200 C 5.220 2.162,5.051 2.163,4.805 2.204 M13.233 4.635 C 12.028 4.719,10.774 5.476,10.056 6.555 C 9.573 7.282,9.367 7.988,9.367 8.917 C 9.367 9.848,9.576 10.539,10.091 11.315 C 11.153 12.911,13.166 13.616,14.995 13.032 C 16.722 12.481,17.910 10.908,17.991 9.064 C 18.040 7.937,17.582 6.745,16.778 5.913 C 16.096 5.207,15.041 4.694,14.170 4.647 C 14.012 4.639,13.808 4.628,13.717 4.623 C 13.625 4.618,13.408 4.623,13.233 4.635 M8.667 13.418 C 8.374 13.481,8.030 13.661,7.761 13.892 C 7.473 14.139,7.321 14.326,7.180 14.607 C 7.011 14.943,6.965 15.158,6.965 15.624 C 6.964 15.975,6.976 16.067,7.051 16.290 C 7.166 16.631,7.326 16.889,7.584 17.147 C 7.864 17.427,8.158 17.615,8.483 17.723 C 8.712 17.799,8.809 17.812,9.167 17.814 C 9.514 17.816,9.625 17.804,9.833 17.739 C 10.920 17.401,11.597 16.309,11.397 15.214 C 11.239 14.350,10.547 13.618,9.700 13.419 C 9.434 13.356,8.957 13.356,8.667 13.418 " fill="#1A1C1F" stroke="none" fill-rule="evenodd"></path></svg>