<svg width="24" height="24" viewBox="0 0 24 24" fill="none" xmlns="http://www.w3.org/2000/svg"><path d="M7.000 4.025 C 5.642 4.188,4.540 5.039,4.091 6.272 C 3.402 8.160,4.487 10.199,6.460 10.724 C 6.850 10.828,7.658 10.850,8.000 10.766 C 9.019 10.517,9.862 9.875,10.316 9.002 C 10.567 8.520,10.646 8.191,10.669 7.517 C 10.687 7.012,10.678 6.891,10.604 6.597 C 10.242 5.161,8.955 4.099,7.489 4.025 C 7.297 4.016,7.077 4.015,7.000 4.025 M15.120 6.505 C 14.530 6.582,13.716 6.906,13.206 7.268 C 12.844 7.523,12.300 8.078,12.068 8.428 C 11.810 8.816,11.614 9.252,11.489 9.715 C 11.396 10.062,11.385 10.171,11.385 10.820 C 11.385 11.471,11.395 11.577,11.490 11.928 C 11.828 13.184,12.751 14.293,13.900 14.824 C 14.604 15.149,15.451 15.290,16.198 15.207 C 17.239 15.092,18.055 14.704,18.783 13.981 C 19.412 13.357,19.765 12.747,19.997 11.885 C 20.080 11.575,20.086 11.485,20.070 10.725 C 20.054 9.951,20.046 9.880,19.942 9.580 C 19.586 8.549,19.004 7.767,18.193 7.227 C 17.431 6.721,16.808 6.527,15.861 6.502 C 15.530 6.494,15.197 6.495,15.120 6.505 M10.760 15.442 C 10.181 15.541,9.426 16.094,9.167 16.609 C 9.013 16.915,8.880 17.420,8.880 17.700 C 8.880 17.972,9.011 18.480,9.158 18.780 C 9.373 19.218,9.889 19.659,10.429 19.867 C 10.664 19.958,10.761 19.972,11.160 19.973 C 11.550 19.973,11.663 19.958,11.904 19.873 C 13.107 19.447,13.746 18.154,13.343 16.961 C 13.119 16.298,12.535 15.735,11.848 15.520 C 11.545 15.425,11.061 15.391,10.760 15.442 " fill="#1A1C1F" stroke="none" fill-rule="evenodd"></path></svg>