<svg width="32" height="32" viewBox="0 0 32 32" fill="none" xmlns="http://www.w3.org/2000/svg"><path d="M8.213 4.268 C 7.260 4.363,6.153 4.939,5.380 5.742 C 4.537 6.618,4.072 7.678,4.015 8.856 C 3.942 10.336,4.370 11.535,5.331 12.548 C 5.866 13.113,6.285 13.422,6.888 13.701 C 7.653 14.054,8.127 14.157,8.987 14.156 C 9.792 14.155,10.063 14.104,10.838 13.806 C 11.613 13.507,12.455 12.855,12.998 12.133 C 13.317 11.710,13.620 11.098,13.796 10.522 C 13.924 10.104,13.940 9.967,13.942 9.253 C 13.944 8.362,13.894 8.064,13.627 7.384 C 13.164 6.204,12.300 5.260,11.203 4.736 C 10.502 4.400,10.214 4.320,9.520 4.266 C 8.816 4.211,8.789 4.211,8.213 4.268 M20.667 7.890 C 19.273 8.054,17.981 8.699,16.896 9.775 C 15.973 10.691,15.369 11.854,15.117 13.200 C 14.986 13.904,15.033 15.145,15.218 15.852 C 15.523 17.022,15.986 17.870,16.773 18.708 C 17.740 19.737,18.820 20.353,20.222 20.676 C 20.511 20.743,20.857 20.766,21.547 20.766 C 22.426 20.765,22.517 20.755,23.120 20.594 C 24.332 20.272,25.361 19.663,26.228 18.755 C 27.479 17.445,28.069 15.829,27.982 13.947 C 27.928 12.782,27.607 11.785,26.973 10.813 C 26.055 9.408,24.702 8.438,23.091 8.031 C 22.471 7.874,21.357 7.810,20.667 7.890 M14.160 21.069 C 13.413 21.167,12.684 21.595,12.101 22.277 C 11.116 23.429,11.086 25.251,12.033 26.456 C 12.719 27.330,13.640 27.785,14.720 27.785 C 15.605 27.785,16.374 27.488,17.009 26.899 C 17.475 26.468,17.738 26.072,17.940 25.496 C 18.081 25.093,18.100 24.969,18.102 24.427 C 18.103 23.731,18.024 23.390,17.728 22.826 C 17.243 21.899,16.249 21.195,15.248 21.069 C 14.756 21.007,14.628 21.007,14.160 21.069 " fill="#1A1C1F" stroke="none" fill-rule="evenodd"></path></svg>