<svg width="20" height="20" viewBox="0 0 20 20" fill="none" xmlns="http://www.w3.org/2000/svg"><path d="M15.169 2.023 C 15.037 2.050,14.946 2.127,14.883 2.266 C 14.832 2.381,14.829 2.417,14.866 2.547 C 14.889 2.629,14.934 2.720,14.966 2.749 C 15.055 2.830,15.359 2.866,15.983 2.870 C 16.843 2.877,16.812 2.814,16.293 3.483 C 15.570 4.416,15.030 5.142,14.966 5.268 C 14.933 5.334,14.887 5.476,14.864 5.586 C 14.827 5.766,14.829 5.798,14.892 5.939 C 15.018 6.224,14.970 6.215,16.444 6.227 L 17.742 6.237 17.824 6.160 C 18.007 5.989,18.050 5.765,17.935 5.577 C 17.899 5.519,17.837 5.453,17.796 5.431 C 17.748 5.406,17.445 5.386,16.926 5.374 C 16.295 5.360,16.133 5.348,16.146 5.314 C 16.156 5.290,16.341 5.041,16.559 4.760 C 17.210 3.922,17.820 3.093,17.896 2.942 C 17.987 2.763,18.022 2.450,17.968 2.289 C 17.946 2.221,17.882 2.134,17.823 2.092 C 17.717 2.017,17.708 2.017,16.483 2.012 C 15.805 2.009,15.214 2.014,15.169 2.023 M11.372 3.029 C 11.205 3.046,11.147 3.067,11.097 3.129 C 11.013 3.232,10.988 3.340,11.014 3.479 C 11.055 3.697,11.083 3.705,11.896 3.730 C 12.300 3.742,12.639 3.761,12.650 3.772 C 12.662 3.784,12.362 4.181,11.984 4.655 C 11.145 5.707,11.067 5.819,11.028 6.023 C 10.984 6.256,11.019 6.407,11.147 6.531 L 11.257 6.637 12.431 6.627 L 13.606 6.617 13.703 6.508 C 13.771 6.431,13.800 6.364,13.800 6.281 C 13.800 6.142,13.726 5.985,13.643 5.948 C 13.610 5.934,13.276 5.916,12.900 5.908 C 12.524 5.900,12.203 5.881,12.187 5.866 C 12.160 5.840,12.325 5.620,13.311 4.373 C 13.736 3.835,13.798 3.719,13.799 3.458 C 13.800 3.285,13.788 3.253,13.686 3.141 L 13.572 3.017 12.578 3.012 C 12.031 3.010,11.488 3.018,11.372 3.029 M7.783 4.206 C 7.711 4.292,7.697 4.336,7.712 4.426 C 7.722 4.488,7.747 4.559,7.767 4.584 C 7.825 4.654,8.105 4.700,8.477 4.701 C 8.664 4.701,8.837 4.714,8.862 4.730 C 8.895 4.751,8.770 4.929,8.358 5.445 C 7.624 6.365,7.623 6.366,7.607 6.596 C 7.595 6.765,7.603 6.799,7.683 6.893 L 7.773 7.000 8.785 7.000 L 9.797 7.000 9.885 6.884 C 9.958 6.788,9.970 6.746,9.952 6.650 C 9.914 6.446,9.836 6.421,9.174 6.401 L 8.593 6.383 9.006 5.850 C 9.949 4.631,10.013 4.517,9.884 4.269 C 9.805 4.116,9.700 4.100,8.748 4.100 L 7.873 4.100 7.783 4.206 M2.642 8.558 C 2.403 8.657,2.223 8.810,2.117 9.002 L 2.017 9.183 2.017 10.267 C 2.017 11.465,2.022 11.506,2.252 12.166 C 2.392 12.569,2.544 12.882,2.774 13.241 L 2.939 13.499 2.537 14.924 C 2.045 16.669,1.989 16.901,2.007 17.117 C 2.034 17.438,2.248 17.737,2.559 17.889 C 2.718 17.967,2.791 17.982,3.000 17.981 C 3.310 17.979,3.499 17.896,3.712 17.668 C 3.884 17.484,3.886 17.480,4.371 15.800 C 4.538 15.223,4.678 14.746,4.683 14.741 C 4.687 14.736,4.809 14.769,4.954 14.815 C 5.100 14.861,5.323 14.915,5.451 14.936 C 5.614 14.963,7.091 14.979,10.407 14.991 L 15.130 15.007 15.164 15.178 C 15.183 15.273,15.266 15.755,15.350 16.250 C 15.529 17.308,15.536 17.339,15.661 17.536 C 15.838 17.815,16.281 18.030,16.591 17.987 C 17.083 17.920,17.477 17.493,17.471 17.036 C 17.468 16.844,17.383 16.221,17.264 15.517 C 17.226 15.297,17.193 15.092,17.190 15.062 C 17.185 15.025,17.255 14.970,17.398 14.895 C 17.649 14.764,17.877 14.509,17.936 14.292 C 18.064 13.819,17.852 13.332,17.421 13.108 L 17.250 13.019 11.550 13.008 C 5.882 12.996,5.849 12.996,5.633 12.927 C 4.877 12.684,4.334 12.170,4.102 11.476 C 4.042 11.294,4.030 11.144,4.005 10.258 C 3.979 9.351,3.969 9.231,3.908 9.094 C 3.826 8.908,3.620 8.695,3.429 8.598 C 3.233 8.498,2.835 8.478,2.642 8.558 M5.847 9.163 C 5.300 9.439,5.000 9.919,5.000 10.521 C 5.000 10.928,5.174 11.311,5.490 11.601 C 6.237 12.284,7.402 12.041,7.843 11.110 C 7.944 10.895,7.950 10.863,7.950 10.498 C 7.950 10.120,7.948 10.108,7.825 9.860 C 7.676 9.560,7.404 9.288,7.110 9.147 C 6.940 9.065,6.869 9.053,6.517 9.041 L 6.117 9.027 5.847 9.163 M10.484 9.169 C 10.015 9.247,9.465 9.663,9.225 10.120 C 8.831 10.872,8.969 11.600,9.561 11.890 C 9.962 12.088,10.459 11.977,10.735 11.628 C 10.807 11.537,10.895 11.396,10.931 11.314 C 10.967 11.233,11.011 11.167,11.028 11.167 C 11.116 11.167,12.778 11.398,14.383 11.633 C 16.911 12.004,16.972 12.011,17.177 11.967 C 17.728 11.849,18.084 11.303,17.948 10.783 C 17.888 10.550,17.859 10.495,17.708 10.328 C 17.525 10.126,17.399 10.080,16.730 9.970 C 15.501 9.768,10.884 9.128,10.722 9.137 C 10.682 9.139,10.575 9.154,10.484 9.169 " fill="#1A1C1F" stroke="none" fill-rule="evenodd"></path></svg>