<svg width="32" height="32" viewBox="0 0 32 32" fill="none" xmlns="http://www.w3.org/2000/svg"><path d="M22.351 4.250 C 21.947 4.276,21.742 4.397,21.655 4.661 C 21.583 4.880,21.706 5.245,21.886 5.348 C 21.964 5.393,22.385 5.419,23.213 5.431 C 23.987 5.442,24.427 5.468,24.427 5.503 C 24.427 5.533,23.950 6.173,23.368 6.925 C 21.908 8.813,21.435 9.446,21.380 9.590 C 21.262 9.901,21.393 10.473,21.626 10.667 C 21.709 10.735,22.039 10.747,23.862 10.747 C 26.260 10.747,26.271 10.745,26.427 10.399 C 26.535 10.159,26.508 9.989,26.325 9.777 C 26.209 9.642,26.153 9.625,25.725 9.592 C 25.466 9.572,24.839 9.554,24.333 9.551 C 23.778 9.549,23.413 9.526,23.413 9.495 C 23.413 9.467,24.019 8.631,24.760 7.639 C 25.501 6.647,26.177 5.733,26.263 5.608 C 26.552 5.186,26.492 4.560,26.141 4.329 C 26.021 4.251,25.802 4.239,24.349 4.234 C 23.438 4.231,22.539 4.238,22.351 4.250 M16.883 6.719 C 16.650 6.764,16.427 6.978,16.427 7.157 C 16.427 7.218,16.475 7.345,16.533 7.439 C 16.629 7.595,16.671 7.615,16.967 7.646 C 17.148 7.665,17.550 7.682,17.861 7.684 C 18.172 7.686,18.471 7.705,18.525 7.726 C 18.610 7.760,18.524 7.892,17.910 8.669 C 17.023 9.792,16.412 10.601,16.323 10.767 C 16.213 10.973,16.274 11.491,16.426 11.653 L 16.552 11.787 18.299 11.787 L 20.046 11.787 20.157 11.645 C 20.329 11.427,20.351 11.259,20.235 11.044 C 20.105 10.801,20.037 10.787,18.888 10.780 C 18.094 10.774,17.966 10.762,17.992 10.694 C 18.009 10.651,18.416 10.105,18.897 9.481 C 19.377 8.857,19.885 8.179,20.024 7.975 C 20.268 7.618,20.277 7.591,20.255 7.293 C 20.228 6.919,20.115 6.781,19.779 6.716 C 19.493 6.661,17.173 6.664,16.883 6.719 M12.720 9.155 C 12.661 9.167,12.563 9.188,12.502 9.201 C 12.337 9.236,12.248 9.467,12.333 9.642 C 12.421 9.826,12.547 9.855,13.293 9.861 C 13.705 9.865,13.920 9.887,13.920 9.925 C 13.920 9.956,13.623 10.358,13.261 10.818 C 12.898 11.277,12.538 11.747,12.461 11.861 C 12.231 12.199,12.294 12.626,12.591 12.749 C 12.696 12.792,13.076 12.805,13.816 12.792 C 14.877 12.774,14.891 12.772,14.994 12.644 C 15.138 12.466,15.108 12.210,14.933 12.122 C 14.848 12.079,14.564 12.055,14.147 12.054 C 13.701 12.054,13.493 12.034,13.493 11.994 C 13.493 11.961,13.777 11.571,14.125 11.127 C 15.073 9.915,15.093 9.883,15.093 9.629 C 15.093 9.278,15.010 9.210,14.526 9.166 C 14.076 9.125,12.896 9.118,12.720 9.155 M2.712 13.839 C 2.400 13.954,2.242 14.081,2.124 14.312 C 2.025 14.505,2.012 14.650,1.988 15.757 C 1.953 17.479,2.030 18.716,2.212 19.333 C 2.482 20.251,2.925 21.054,3.580 21.813 C 3.908 22.192,3.908 22.192,3.879 22.469 C 3.863 22.622,3.689 23.491,3.493 24.400 C 3.297 25.309,3.102 26.253,3.059 26.498 C 2.984 26.927,2.985 26.951,3.096 27.179 C 3.393 27.792,4.129 27.949,4.657 27.514 C 4.895 27.318,4.896 27.314,5.387 25.142 C 5.598 24.206,5.781 23.423,5.793 23.403 C 5.806 23.382,5.917 23.402,6.041 23.446 C 6.165 23.490,6.459 23.576,6.693 23.637 C 7.116 23.747,7.214 23.748,16.670 23.773 L 26.219 23.797 26.452 24.739 C 26.960 26.798,27.121 27.316,27.300 27.476 C 27.545 27.695,27.989 27.810,28.267 27.727 C 28.564 27.638,28.875 27.317,28.961 27.010 C 29.027 26.774,29.015 26.705,28.655 25.275 L 28.280 23.787 28.660 23.786 C 29.147 23.786,29.397 23.715,29.631 23.509 C 29.879 23.292,29.973 23.097,29.973 22.806 C 29.973 22.506,29.900 22.309,29.717 22.115 C 29.388 21.768,30.344 21.798,18.373 21.753 C 11.536 21.727,7.355 21.691,7.120 21.657 C 6.439 21.559,5.426 20.944,4.934 20.331 C 4.576 19.884,4.185 19.077,4.112 18.634 C 4.079 18.432,4.031 17.427,4.005 16.400 C 3.958 14.521,3.936 14.330,3.743 14.113 C 3.631 13.987,3.156 13.760,3.013 13.764 C 2.955 13.766,2.819 13.800,2.712 13.839 M7.840 14.349 C 7.332 14.437,6.796 14.741,6.346 15.195 C 5.883 15.662,5.693 15.986,5.546 16.565 C 5.412 17.087,5.413 17.390,5.549 17.972 C 5.689 18.568,5.949 19.010,6.410 19.438 C 7.188 20.159,8.154 20.413,9.151 20.159 C 9.925 19.962,10.414 19.632,10.862 19.005 C 11.507 18.100,11.597 16.927,11.097 15.922 C 10.775 15.276,10.129 14.712,9.432 14.470 C 9.003 14.321,8.310 14.268,7.840 14.349 M8.976 16.458 C 9.258 16.645,9.467 17.092,9.417 17.405 C 9.369 17.711,9.162 18.003,8.897 18.138 C 8.615 18.282,8.128 18.263,7.906 18.098 C 7.409 17.730,7.335 16.989,7.754 16.570 C 8.081 16.242,8.581 16.196,8.976 16.458 M15.294 16.322 C 14.341 16.482,13.478 17.141,12.989 18.081 C 12.684 18.667,12.565 19.315,12.697 19.663 C 12.821 19.990,13.232 20.264,13.600 20.264 C 14.046 20.264,14.403 19.963,14.609 19.411 C 14.772 18.974,15.005 18.638,15.261 18.469 C 15.481 18.325,15.508 18.320,16.131 18.330 C 17.083 18.345,26.560 19.218,27.307 19.360 C 27.668 19.428,27.784 19.539,28.074 20.087 C 28.261 20.442,28.332 20.525,28.532 20.627 C 28.819 20.772,29.125 20.778,29.418 20.646 C 30.504 20.152,29.883 18.347,28.373 17.608 L 27.920 17.387 26.613 17.255 C 24.866 17.079,17.333 16.388,16.427 16.321 C 15.633 16.261,15.652 16.261,15.294 16.322 " fill="#1A1C1F" stroke="none" fill-rule="evenodd"></path></svg>