<svg width="20" height="20" viewBox="0 0 20 20" fill="none" xmlns="http://www.w3.org/2000/svg"><path d="M7.800 2.031 C 7.193 2.057,6.965 2.098,6.568 2.254 C 6.051 2.457,5.599 2.806,5.262 3.264 C 5.113 3.464,4.946 3.830,4.820 4.231 L 4.700 4.611 4.703 9.131 C 4.704 11.616,4.717 14.085,4.731 14.617 C 4.755 15.549,4.759 15.593,4.849 15.867 C 5.197 16.934,5.902 17.601,6.984 17.888 L 7.317 17.977 9.967 17.980 C 12.031 17.982,12.661 17.973,12.817 17.939 C 14.015 17.679,14.781 16.999,15.152 15.867 C 15.242 15.591,15.245 15.556,15.269 14.567 C 15.301 13.246,15.301 6.709,15.269 5.417 C 15.245 4.446,15.242 4.408,15.152 4.133 C 14.845 3.197,14.265 2.569,13.394 2.233 C 12.903 2.044,12.722 2.030,10.450 2.018 C 9.313 2.012,8.121 2.018,7.800 2.031 M12.723 4.108 C 12.925 4.215,13.104 4.388,13.188 4.561 C 13.307 4.804,13.299 5.003,13.016 8.983 C 12.776 12.345,12.785 12.252,12.676 12.464 C 12.620 12.573,12.525 12.691,12.440 12.756 C 12.156 12.973,12.158 12.973,9.981 12.991 C 8.046 13.008,8.009 13.007,7.856 12.940 C 7.548 12.803,7.349 12.586,7.265 12.294 C 7.214 12.116,7.144 11.313,7.001 9.267 C 6.715 5.152,6.699 4.813,6.783 4.613 C 6.921 4.283,7.228 4.069,7.617 4.030 C 7.745 4.018,8.908 4.009,10.200 4.012 L 12.550 4.017 12.723 4.108 M8.355 14.529 C 8.568 14.560,8.725 14.665,8.865 14.869 C 9.048 15.137,9.030 15.434,8.813 15.718 C 8.634 15.954,8.538 15.978,7.746 15.994 C 6.987 16.008,6.758 15.982,6.578 15.858 C 6.440 15.764,6.310 15.561,6.282 15.394 C 6.209 14.960,6.476 14.587,6.899 14.533 C 7.145 14.501,8.140 14.499,8.355 14.529 M13.095 14.532 C 13.503 14.591,13.715 14.837,13.714 15.250 C 13.713 15.402,13.694 15.520,13.657 15.588 C 13.582 15.731,13.347 15.926,13.202 15.967 C 13.060 16.006,11.810 16.009,11.609 15.970 C 11.218 15.894,10.946 15.492,11.031 15.115 C 11.085 14.875,11.196 14.730,11.422 14.608 L 11.617 14.502 12.250 14.502 C 12.598 14.501,12.979 14.515,13.095 14.532 " fill="#1A1C1F" stroke="none" fill-rule="evenodd"></path></svg>