<svg width="24" height="24" viewBox="0 0 24 24" fill="none" xmlns="http://www.w3.org/2000/svg"><path d="M9.320 2.104 C 8.516 2.220,7.854 2.467,7.218 2.887 C 6.116 3.614,5.458 4.614,5.141 6.041 C 5.041 6.487,5.006 8.062,5.006 12.000 C 5.006 16.173,5.039 17.510,5.157 18.020 C 5.334 18.786,5.638 19.487,6.000 19.966 C 6.788 21.011,7.773 21.601,9.206 21.887 C 9.647 21.975,9.729 21.977,11.980 21.977 C 14.502 21.976,14.628 21.968,15.440 21.733 C 17.071 21.261,18.262 20.071,18.733 18.440 C 18.968 17.626,18.965 17.689,18.987 13.300 C 18.999 10.971,18.990 8.625,18.967 7.760 C 18.927 6.286,18.924 6.252,18.806 5.800 C 18.550 4.816,18.160 4.123,17.494 3.471 C 16.657 2.649,15.670 2.195,14.477 2.083 C 13.785 2.018,9.800 2.034,9.320 2.104 M14.468 4.098 C 15.179 4.217,15.627 4.440,16.094 4.906 C 16.559 5.371,16.780 5.815,16.904 6.532 C 16.959 6.847,16.971 7.490,16.987 10.960 C 17.010 15.596,16.974 17.278,16.845 17.771 C 16.604 18.686,15.946 19.438,15.108 19.757 C 15.007 19.795,14.990 19.785,14.850 19.596 C 14.768 19.486,14.622 19.343,14.526 19.279 C 14.258 19.102,14.078 19.092,13.426 19.224 C 12.918 19.326,12.780 19.338,12.080 19.337 C 11.416 19.336,11.208 19.320,10.677 19.228 C 10.334 19.169,9.991 19.120,9.915 19.120 C 9.723 19.120,9.378 19.301,9.248 19.469 C 9.189 19.547,9.104 19.654,9.060 19.708 L 8.979 19.806 8.610 19.621 C 7.998 19.314,7.488 18.741,7.255 18.097 C 7.020 17.450,7.023 17.522,7.021 12.040 C 7.020 6.657,7.020 6.649,7.223 6.000 C 7.503 5.106,8.262 4.406,9.220 4.158 C 9.682 4.038,10.485 4.004,12.420 4.021 C 13.684 4.033,14.191 4.052,14.468 4.098 M9.959 5.037 C 9.540 5.058,9.473 5.072,9.223 5.195 C 8.827 5.390,8.444 5.779,8.255 6.178 C 8.026 6.659,8.026 6.749,8.262 10.780 C 8.370 12.633,8.424 13.299,8.486 13.540 C 8.639 14.135,9.164 14.687,9.776 14.895 C 10.010 14.975,10.101 14.978,11.980 14.979 C 14.130 14.980,14.174 14.976,14.597 14.728 C 14.831 14.591,15.200 14.225,15.332 13.999 C 15.574 13.583,15.609 13.234,15.840 8.971 C 15.943 7.057,15.943 6.680,15.842 6.386 C 15.671 5.888,15.285 5.466,14.769 5.211 C 14.485 5.070,14.438 5.060,13.964 5.034 C 13.370 5.002,10.622 5.004,9.959 5.037 M13.906 7.410 C 13.892 7.635,13.816 8.972,13.737 10.380 C 13.638 12.127,13.578 12.949,13.546 12.969 C 13.486 13.008,10.514 13.008,10.454 12.969 C 10.423 12.949,10.362 12.129,10.263 10.400 C 10.184 9.003,10.108 7.667,10.094 7.430 L 10.069 7.000 12.000 7.000 L 13.931 7.000 13.906 7.410 M9.043 16.041 C 8.733 16.106,8.434 16.362,8.319 16.660 C 8.252 16.834,8.262 17.199,8.338 17.382 C 8.421 17.579,8.611 17.781,8.820 17.891 C 8.960 17.965,9.065 17.978,9.672 17.992 C 10.442 18.011,10.628 17.981,10.847 17.800 C 11.034 17.646,11.201 17.323,11.228 17.064 C 11.246 16.890,11.232 16.809,11.152 16.635 C 11.037 16.383,10.840 16.173,10.641 16.089 C 10.472 16.017,9.319 15.983,9.043 16.041 M13.600 16.035 C 13.181 16.104,12.886 16.378,12.796 16.783 C 12.698 17.221,12.890 17.642,13.288 17.863 L 13.500 17.980 14.263 17.980 L 15.026 17.980 15.222 17.859 C 15.900 17.440,15.909 16.564,15.239 16.152 C 15.068 16.047,15.032 16.041,14.420 16.024 C 14.068 16.013,13.699 16.018,13.600 16.035 " fill="#1A1C1F" stroke="none" fill-rule="evenodd"></path></svg>