<svg width="20" height="20" viewBox="0 0 20 20" fill="none" xmlns="http://www.w3.org/2000/svg"><path d="M8.167 2.033 C 7.257 2.072,6.732 2.187,6.189 2.465 C 5.128 3.010,4.473 3.838,4.158 5.033 C 4.061 5.403,4.057 5.452,4.032 6.417 C 3.995 7.844,3.995 13.492,4.033 14.067 C 4.081 14.806,4.192 15.251,4.469 15.817 C 4.755 16.400,5.217 16.929,5.749 17.284 C 6.076 17.501,6.336 17.623,6.775 17.763 C 7.438 17.974,7.514 17.979,10.000 17.980 C 12.023 17.980,12.284 17.974,12.583 17.920 C 13.615 17.734,14.443 17.283,15.024 16.588 C 15.363 16.183,15.592 15.761,15.759 15.233 C 15.972 14.562,15.970 14.598,15.989 11.100 C 15.999 9.273,15.992 7.377,15.972 6.650 C 15.940 5.474,15.932 5.360,15.856 5.064 C 15.593 4.044,15.055 3.266,14.233 2.716 C 13.697 2.357,13.210 2.177,12.521 2.082 C 12.084 2.022,9.186 1.989,8.167 2.033 M13.345 4.106 C 13.551 4.211,13.750 4.434,13.833 4.653 L 13.907 4.850 13.835 5.783 C 13.666 7.968,13.332 11.932,13.301 12.113 C 13.256 12.382,13.155 12.575,12.978 12.731 C 12.680 12.993,12.795 12.983,10.000 12.983 C 7.143 12.983,7.294 12.998,6.981 12.686 C 6.762 12.466,6.715 12.323,6.651 11.667 C 6.581 10.947,6.318 7.746,6.218 6.383 C 6.172 5.760,6.128 5.162,6.120 5.055 C 6.091 4.666,6.238 4.378,6.574 4.162 L 6.748 4.050 7.482 4.030 C 7.886 4.019,9.342 4.017,10.717 4.025 C 13.118 4.040,13.222 4.043,13.345 4.106 M8.431 14.607 C 8.613 14.695,8.798 14.877,8.883 15.051 C 8.961 15.212,8.991 15.653,8.936 15.837 C 8.886 16.005,8.603 16.310,8.407 16.406 C 8.260 16.478,8.211 16.483,7.633 16.483 C 6.941 16.483,6.838 16.458,6.578 16.223 C 6.368 16.033,6.289 15.838,6.286 15.501 C 6.283 15.168,6.337 15.028,6.554 14.811 C 6.830 14.534,6.988 14.497,7.767 14.520 C 8.205 14.534,8.306 14.547,8.431 14.607 M13.164 14.599 C 13.374 14.706,13.523 14.855,13.624 15.061 C 13.700 15.217,13.717 15.294,13.717 15.500 C 13.717 15.907,13.531 16.208,13.157 16.408 C 13.026 16.479,12.977 16.483,12.383 16.483 C 11.806 16.483,11.736 16.477,11.595 16.412 C 11.104 16.185,10.881 15.588,11.106 15.098 C 11.239 14.807,11.495 14.597,11.800 14.529 C 11.864 14.514,12.167 14.509,12.473 14.516 C 12.952 14.528,13.049 14.540,13.164 14.599 " fill="#1A1C1F" stroke="none" fill-rule="evenodd"></path></svg>