<svg width="24" height="24" viewBox="0 0 24 24" fill="none" xmlns="http://www.w3.org/2000/svg"><path d="M18.100 2.093 C 17.990 2.146,17.842 2.251,17.772 2.325 C 17.553 2.556,17.509 2.716,17.482 3.380 L 17.458 3.980 16.276 5.942 C 15.626 7.020,15.073 7.964,15.047 8.037 C 14.864 8.562,15.196 9.164,15.753 9.319 C 15.846 9.345,16.848 9.360,18.483 9.360 C 21.368 9.360,21.345 9.362,21.645 9.090 C 21.948 8.817,22.067 8.415,21.948 8.066 C 21.914 7.967,21.653 7.519,21.369 7.072 C 21.084 6.626,20.554 5.747,20.190 5.120 L 19.530 3.980 19.511 3.380 C 19.491 2.714,19.449 2.557,19.228 2.326 C 19.045 2.135,18.819 2.032,18.541 2.013 C 18.345 1.999,18.263 2.014,18.100 2.093 M6.820 4.096 C 5.489 4.400,4.434 5.447,4.147 6.749 C 4.052 7.181,4.032 7.516,4.079 7.894 C 4.188 8.768,4.543 9.472,5.173 10.065 C 6.536 11.347,8.632 11.330,9.992 10.026 C 10.286 9.743,10.625 9.253,10.777 8.889 C 11.027 8.292,11.116 7.495,11.002 6.884 C 10.764 5.607,9.824 4.566,8.540 4.158 C 8.184 4.045,7.200 4.010,6.820 4.096 M8.137 6.137 C 8.461 6.295,8.699 6.527,8.849 6.831 C 8.971 7.079,8.980 7.127,8.980 7.499 C 8.980 7.851,8.967 7.928,8.872 8.129 C 8.735 8.423,8.422 8.736,8.129 8.871 C 7.933 8.963,7.846 8.978,7.519 8.979 C 7.169 8.980,7.117 8.970,6.872 8.849 C 6.538 8.684,6.240 8.369,6.117 8.050 C 5.995 7.733,5.995 7.267,6.116 6.952 C 6.273 6.545,6.685 6.175,7.117 6.052 C 7.402 5.971,7.880 6.011,8.137 6.137 M18.833 6.765 C 19.015 7.076,19.156 7.337,19.147 7.346 C 19.139 7.355,18.825 7.357,18.450 7.351 L 17.768 7.340 18.109 6.770 C 18.297 6.457,18.463 6.200,18.477 6.200 C 18.491 6.200,18.652 6.454,18.833 6.765 M17.665 11.056 C 17.452 11.136,17.237 11.317,17.134 11.504 C 17.066 11.627,16.542 13.232,16.172 14.450 C 16.140 14.555,16.096 14.640,16.073 14.640 C 16.027 14.640,14.558 14.020,13.700 13.639 C 12.984 13.321,12.688 13.221,12.142 13.110 C 11.703 13.021,11.677 13.020,7.960 13.020 C 4.963 13.020,4.176 13.031,4.000 13.074 C 3.287 13.248,2.593 13.802,2.288 14.440 C 1.999 15.043,2.000 15.036,2.000 18.271 C 2.000 21.512,1.989 21.392,2.299 21.701 C 2.768 22.170,3.529 22.067,3.869 21.489 L 3.980 21.300 4.000 18.353 C 4.020 15.455,4.021 15.404,4.102 15.295 C 4.148 15.235,4.235 15.148,4.295 15.102 C 4.405 15.021,4.432 15.020,7.993 15.020 C 11.357 15.020,11.600 15.025,11.899 15.095 C 12.097 15.141,12.821 15.429,13.791 15.846 C 14.655 16.217,15.474 16.548,15.611 16.580 C 16.081 16.691,16.545 16.629,17.010 16.395 C 17.327 16.235,17.750 15.815,17.891 15.520 C 17.949 15.399,18.217 14.607,18.486 13.760 C 19.026 12.059,19.057 11.894,18.892 11.579 C 18.655 11.128,18.104 10.893,17.665 11.056 M11.729 17.056 C 11.492 17.134,11.302 17.289,11.171 17.511 L 11.060 17.700 11.048 19.409 C 11.037 21.089,11.038 21.121,11.124 21.320 C 11.455 22.089,12.532 22.124,12.934 21.380 C 13.018 21.224,13.020 21.174,13.032 19.544 C 13.044 17.725,13.039 17.671,12.823 17.387 C 12.596 17.090,12.093 16.938,11.729 17.056 " fill="#1A1C1F" stroke="none" fill-rule="evenodd"></path></svg>