<svg width="32" height="32" viewBox="0 0 32 32" fill="none" xmlns="http://www.w3.org/2000/svg"><path d="M25.154 2.049 C 25.041 2.091,24.876 2.193,24.787 2.276 C 24.510 2.536,24.480 2.678,24.480 3.718 L 24.480 4.667 23.011 7.115 C 22.203 8.461,21.516 9.661,21.484 9.782 C 21.368 10.222,21.647 10.734,22.096 10.905 C 22.294 10.981,22.696 10.989,25.577 10.975 L 28.835 10.960 29.022 10.831 C 29.459 10.532,29.614 9.992,29.389 9.551 C 29.325 9.425,28.653 8.296,27.895 7.040 L 26.518 4.758 26.497 3.752 C 26.477 2.840,26.464 2.726,26.357 2.520 C 26.133 2.094,25.598 1.884,25.154 2.049 M26.074 7.966 C 26.400 8.520,26.667 8.982,26.667 8.993 C 26.667 9.004,26.127 9.013,25.467 9.013 C 24.773 9.013,24.267 8.993,24.267 8.964 C 24.267 8.909,25.449 6.924,25.469 6.946 C 25.476 6.954,25.748 7.413,26.074 7.966 M9.423 7.041 C 8.658 7.134,7.853 7.471,7.209 7.966 C 6.146 8.784,5.493 10.126,5.493 11.493 C 5.493 14.471,8.376 16.644,11.225 15.813 C 12.984 15.300,14.229 13.819,14.453 11.970 C 14.574 10.979,14.305 9.878,13.732 9.013 C 13.458 8.599,12.833 7.981,12.427 7.721 C 11.579 7.180,10.425 6.918,9.423 7.041 M10.642 9.096 C 11.818 9.402,12.627 10.639,12.440 11.845 C 12.249 13.081,11.225 13.977,10.000 13.980 C 8.143 13.984,6.943 12.082,7.744 10.403 C 8.035 9.795,8.736 9.221,9.374 9.071 C 9.696 8.995,10.300 9.007,10.642 9.096 M23.754 13.062 C 23.633 13.117,23.473 13.242,23.398 13.341 C 23.298 13.472,23.009 14.364,22.319 16.667 C 21.801 18.397,21.343 19.867,21.301 19.932 C 21.136 20.191,21.071 20.169,19.137 19.183 C 18.130 18.669,17.175 18.205,17.013 18.152 C 16.738 18.061,16.368 18.054,10.947 18.039 C 5.774 18.025,5.140 18.032,4.841 18.110 C 4.002 18.326,3.222 18.947,2.862 19.684 C 2.494 20.436,2.507 20.254,2.507 24.973 C 2.507 29.053,2.511 29.239,2.608 29.429 C 2.785 29.773,3.160 30.027,3.493 30.027 C 3.830 30.027,4.196 29.777,4.392 29.413 C 4.506 29.201,4.507 29.174,4.533 24.956 L 4.560 20.712 4.711 20.485 C 4.817 20.324,4.944 20.219,5.144 20.128 L 5.427 19.998 10.914 20.012 L 16.400 20.027 18.320 20.995 C 19.376 21.528,20.336 21.990,20.453 22.022 C 21.005 22.171,21.812 22.032,22.309 21.703 C 22.617 21.499,22.958 21.119,23.119 20.800 C 23.186 20.668,23.679 19.100,24.214 17.316 C 25.027 14.602,25.182 14.033,25.160 13.835 C 25.084 13.168,24.377 12.779,23.754 13.062 M15.972 22.156 C 15.852 22.228,15.700 22.386,15.626 22.516 L 15.493 22.747 15.478 25.867 C 15.466 28.221,15.478 29.045,15.528 29.225 C 15.570 29.376,15.674 29.543,15.813 29.682 C 16.205 30.074,16.688 30.091,17.113 29.727 C 17.508 29.389,17.499 29.490,17.482 25.889 L 17.467 22.685 17.320 22.464 C 17.034 22.031,16.416 21.890,15.972 22.156 " fill="#1A1C1F" stroke="none" fill-rule="evenodd"></path></svg>