<svg width="20" height="20" viewBox="0 0 20 20" fill="none" xmlns="http://www.w3.org/2000/svg"><path d="M3.867 2.032 C 3.001 2.093,2.362 2.595,2.083 3.433 L 1.997 3.692 2.009 10.021 C 2.021 16.891,2.010 16.499,2.199 16.867 C 2.368 17.196,2.714 17.555,3.050 17.751 C 3.123 17.793,3.288 17.863,3.417 17.906 L 3.650 17.983 8.000 17.983 L 12.350 17.983 12.583 17.906 C 12.909 17.798,13.079 17.691,13.359 17.422 C 13.648 17.143,13.777 16.950,13.893 16.626 C 13.977 16.391,13.980 16.354,13.993 15.458 C 14.001 14.853,13.993 14.473,13.968 14.359 C 13.913 14.103,13.754 13.879,13.521 13.728 C 13.326 13.602,13.318 13.600,13.000 13.600 C 12.682 13.600,12.674 13.602,12.480 13.727 C 12.372 13.797,12.241 13.916,12.189 13.991 C 12.021 14.235,12.000 14.371,12.000 15.222 L 12.000 16.000 8.000 16.000 L 4.000 16.000 4.000 10.001 L 4.000 4.003 5.625 3.993 C 7.246 3.983,7.250 3.983,7.406 3.906 C 7.909 3.659,8.125 3.082,7.896 2.600 C 7.784 2.365,7.630 2.211,7.400 2.105 L 7.217 2.020 5.717 2.013 C 4.892 2.010,4.059 2.018,3.867 2.032 M11.967 2.117 C 11.222 2.292,10.958 2.441,10.784 2.782 C 10.696 2.954,10.683 3.014,10.684 3.248 C 10.685 3.460,10.701 3.546,10.759 3.657 C 10.873 3.873,11.021 4.022,11.213 4.116 C 11.494 4.254,11.658 4.257,12.135 4.134 C 12.537 4.030,12.566 4.027,13.083 4.042 C 13.547 4.056,13.651 4.069,13.876 4.145 C 14.393 4.321,14.799 4.573,15.154 4.939 C 15.501 5.298,15.710 5.648,15.875 6.150 C 15.966 6.427,15.994 7.282,15.923 7.617 C 15.721 8.572,15.061 9.375,14.173 9.749 C 13.723 9.939,13.502 9.982,12.983 9.979 C 12.576 9.978,12.479 9.966,12.222 9.888 C 11.817 9.765,11.479 9.591,11.169 9.346 C 10.921 9.150,10.518 8.695,10.414 8.495 C 10.367 8.403,10.367 8.403,10.492 8.384 C 10.905 8.320,11.221 8.118,11.373 7.820 C 11.470 7.630,11.491 7.291,11.419 7.074 C 11.316 6.765,11.212 6.662,10.778 6.441 C 10.144 6.118,9.027 5.610,8.816 5.548 C 8.384 5.423,7.949 5.600,7.701 6.003 C 7.591 6.182,6.960 7.517,6.788 7.933 C 6.705 8.135,6.685 8.232,6.684 8.433 C 6.683 8.649,6.697 8.708,6.782 8.861 C 6.891 9.059,7.033 9.196,7.243 9.308 C 7.357 9.368,7.437 9.383,7.667 9.383 C 7.976 9.383,8.122 9.329,8.341 9.137 L 8.451 9.040 8.612 9.349 C 9.128 10.342,10.123 11.233,11.164 11.636 C 12.326 12.085,13.490 12.111,14.638 11.714 C 15.340 11.471,15.923 11.103,16.483 10.550 C 17.013 10.025,17.361 9.513,17.621 8.869 C 18.248 7.319,18.074 5.625,17.143 4.219 C 16.895 3.845,16.334 3.259,15.950 2.974 C 15.657 2.757,15.043 2.439,14.650 2.301 C 14.036 2.085,13.882 2.061,13.067 2.047 C 12.361 2.035,12.296 2.039,11.967 2.117 M5.700 12.050 C 5.617 12.077,5.475 12.156,5.384 12.225 C 5.035 12.491,4.915 12.982,5.097 13.392 C 5.206 13.637,5.481 13.883,5.725 13.954 C 6.182 14.087,6.688 13.852,6.907 13.404 C 7.011 13.191,7.012 12.778,6.910 12.583 C 6.684 12.154,6.129 11.909,5.700 12.050 M8.797 12.032 C 8.443 12.098,8.106 12.433,8.032 12.791 C 7.869 13.576,8.696 14.239,9.405 13.891 C 9.772 13.711,9.980 13.382,9.979 12.983 C 9.979 12.798,9.961 12.716,9.893 12.582 C 9.686 12.180,9.229 11.951,8.797 12.032 " fill="#1A1C1F" stroke="none" fill-rule="evenodd"></path></svg>