<svg width="32" height="32" viewBox="0 0 32 32" fill="none" xmlns="http://www.w3.org/2000/svg"><path d="M5.653 2.079 C 5.051 2.121,4.728 2.236,4.239 2.585 C 3.814 2.889,3.512 3.258,3.263 3.780 C 3.100 4.121,3.069 4.251,3.029 4.765 C 3.004 5.091,2.990 10.374,2.998 16.505 L 3.013 27.653 3.140 27.973 C 3.415 28.665,3.930 29.271,4.533 29.614 C 4.665 29.689,4.959 29.816,5.187 29.896 L 5.600 30.041 13.027 30.013 C 21.243 29.982,20.627 30.010,21.360 29.640 C 21.748 29.445,22.419 28.785,22.626 28.396 C 22.959 27.769,22.952 27.877,22.974 23.488 C 22.995 19.295,22.971 18.654,22.787 18.407 C 22.560 18.103,22.086 17.963,21.666 18.077 C 21.405 18.147,21.100 18.425,21.040 18.648 C 21.018 18.732,20.984 20.722,20.966 23.071 L 20.933 27.341 20.787 27.562 C 20.490 28.011,21.212 27.973,12.987 27.973 L 5.680 27.973 5.478 27.848 C 5.367 27.779,5.217 27.635,5.145 27.529 L 5.013 27.335 5.013 15.996 L 5.013 4.656 5.177 4.431 C 5.474 4.020,5.249 4.041,9.747 4.012 L 13.761 3.985 13.963 3.855 C 14.528 3.488,14.608 2.722,14.129 2.262 C 13.981 2.121,13.922 2.103,13.477 2.072 C 12.848 2.027,6.322 2.033,5.653 2.079 M21.227 2.059 C 20.378 2.162,19.676 2.375,18.853 2.780 C 18.256 3.074,17.767 3.417,17.574 3.680 C 17.186 4.204,17.489 5.000,18.142 5.176 C 18.453 5.259,18.614 5.215,19.198 4.881 C 20.325 4.239,20.973 4.042,21.973 4.040 C 23.203 4.036,24.222 4.395,25.205 5.177 C 25.729 5.594,26.097 6.071,26.458 6.800 C 26.907 7.709,26.961 7.948,26.956 9.013 C 26.952 9.808,26.937 9.939,26.809 10.362 C 26.243 12.219,24.798 13.543,22.951 13.897 C 20.963 14.277,18.876 13.356,17.801 11.624 C 17.460 11.074,17.095 10.133,17.224 10.133 C 17.253 10.133,17.619 10.292,18.038 10.486 C 19.363 11.100,20.343 11.520,20.453 11.520 C 21.069 11.519,21.568 10.945,21.468 10.353 C 21.399 9.944,21.262 9.819,20.425 9.403 C 19.556 8.970,17.196 7.860,16.267 7.447 C 15.515 7.113,15.214 7.087,14.819 7.319 C 14.536 7.485,14.590 7.386,13.322 10.107 C 11.935 13.083,11.889 13.218,12.101 13.684 C 12.278 14.073,12.686 14.285,13.130 14.219 C 13.606 14.147,13.666 14.074,14.265 12.838 C 14.567 12.216,14.899 11.521,15.003 11.293 C 15.108 11.066,15.214 10.880,15.240 10.880 C 15.266 10.880,15.330 11.016,15.383 11.183 C 15.721 12.257,16.642 13.626,17.490 14.316 C 18.782 15.368,20.169 15.909,21.760 15.984 C 23.841 16.083,25.965 15.151,27.333 13.540 C 29.705 10.747,29.544 6.671,26.960 4.078 C 25.636 2.750,24.139 2.110,22.240 2.058 C 21.785 2.046,21.329 2.046,21.227 2.059 M7.692 22.070 C 7.309 22.151,6.987 22.563,6.987 22.971 C 6.987 23.258,7.209 23.678,7.447 23.839 C 7.625 23.959,7.703 23.973,8.348 23.991 C 9.140 24.014,9.348 23.971,9.628 23.725 C 9.996 23.402,10.062 22.863,9.785 22.441 C 9.577 22.126,9.425 22.077,8.597 22.053 C 8.195 22.042,7.788 22.050,7.692 22.070 M12.121 22.086 C 11.889 22.153,11.605 22.457,11.525 22.725 C 11.438 23.015,11.493 23.306,11.683 23.569 C 11.948 23.935,12.073 23.973,12.991 23.973 C 13.773 23.973,13.800 23.970,14.011 23.830 C 14.411 23.565,14.558 23.031,14.353 22.587 C 14.223 22.306,14.031 22.135,13.778 22.077 C 13.513 22.015,12.344 22.022,12.121 22.086 M16.667 22.065 C 16.321 22.149,16.000 22.603,16.000 23.008 C 16.000 23.479,16.227 23.792,16.661 23.921 C 17.063 24.041,18.096 24.027,18.380 23.898 C 18.804 23.705,19.058 23.174,18.938 22.733 C 18.861 22.452,18.576 22.158,18.308 22.083 C 18.110 22.028,16.875 22.014,16.667 22.065 " fill="#1A1C1F" stroke="none" fill-rule="evenodd"></path></svg>