<svg width="20" height="20" viewBox="0 0 20 20" fill="none" xmlns="http://www.w3.org/2000/svg"><path d="M4.500 2.032 C 3.496 2.051,3.481 2.052,3.278 2.139 C 2.727 2.374,2.279 2.855,2.098 3.404 L 2.017 3.650 2.017 10.000 L 2.017 16.350 2.098 16.596 C 2.293 17.188,2.812 17.707,3.404 17.902 L 3.650 17.983 10.000 17.983 L 16.350 17.983 16.596 17.902 C 17.188 17.707,17.707 17.188,17.902 16.596 L 17.983 16.350 17.983 10.000 L 17.983 3.650 17.902 3.404 C 17.714 2.834,17.212 2.315,16.650 2.114 C 16.509 2.063,16.318 2.050,15.417 2.031 C 14.182 2.003,6.005 2.005,4.500 2.032 M16.000 10.000 L 16.000 16.000 10.000 16.000 L 4.000 16.000 4.000 10.000 L 4.000 4.000 10.000 4.000 L 16.000 4.000 16.000 10.000 M10.000 6.224 C 9.359 6.258,8.584 6.468,8.121 6.733 C 7.301 7.202,6.833 7.900,6.594 9.010 C 6.497 9.458,6.488 10.575,6.576 11.055 C 6.893 12.775,7.922 13.650,9.767 13.768 C 10.633 13.824,11.560 13.720,12.140 13.501 C 12.393 13.406,12.630 13.151,12.719 12.879 C 12.778 12.700,12.783 12.576,12.783 11.467 C 12.783 10.316,12.780 10.243,12.717 10.118 C 12.680 10.044,12.598 9.955,12.533 9.918 C 12.423 9.854,12.361 9.850,11.450 9.850 C 10.536 9.850,10.476 9.854,10.351 9.919 C 9.924 10.143,10.009 10.867,10.475 10.984 C 10.524 10.996,10.703 11.016,10.873 11.028 L 11.183 11.050 11.205 11.217 C 11.235 11.440,11.235 12.184,11.206 12.350 C 11.171 12.547,11.062 12.574,10.317 12.575 C 9.767 12.576,9.695 12.569,9.463 12.493 C 8.822 12.284,8.476 11.864,8.310 11.096 C 8.261 10.870,8.250 10.667,8.251 10.033 C 8.252 9.345,8.262 9.212,8.326 8.935 C 8.422 8.524,8.549 8.260,8.762 8.028 C 9.089 7.671,9.422 7.528,10.084 7.464 C 10.541 7.419,10.879 7.450,11.658 7.606 L 12.199 7.714 12.381 7.625 C 12.641 7.497,12.732 7.286,12.664 6.967 C 12.601 6.673,12.326 6.502,11.700 6.366 C 11.245 6.267,10.447 6.201,10.000 6.224 " fill="#1A1C1F" stroke="none" fill-rule="evenodd"></path></svg>