<svg width="24" height="24" viewBox="0 0 24 24" fill="none" xmlns="http://www.w3.org/2000/svg"><path d="M5.020 2.035 C 3.926 2.059,3.894 2.062,3.649 2.166 C 2.844 2.505,2.380 2.993,2.115 3.780 L 2.020 4.060 2.020 12.000 C 2.020 18.490,2.030 19.973,2.073 20.120 C 2.192 20.522,2.403 20.884,2.700 21.194 C 3.030 21.539,3.299 21.716,3.727 21.873 L 4.020 21.980 12.000 21.980 L 19.980 21.980 20.273 21.873 C 20.701 21.716,20.970 21.539,21.300 21.194 C 21.597 20.884,21.808 20.522,21.927 20.120 C 22.006 19.853,22.006 4.147,21.927 3.880 C 21.817 3.509,21.604 3.134,21.341 2.850 C 21.032 2.516,20.730 2.306,20.341 2.155 L 20.057 2.045 13.099 2.028 C 9.271 2.018,5.636 2.021,5.020 2.035 M19.768 4.075 C 19.827 4.106,19.888 4.160,19.902 4.195 C 19.976 4.375,19.996 6.057,19.996 12.000 C 19.996 17.959,19.976 19.625,19.901 19.806 C 19.828 19.985,20.049 19.980,12.040 19.980 C 6.108 19.980,4.424 19.969,4.297 19.930 C 4.188 19.897,4.114 19.844,4.077 19.770 C 4.029 19.677,4.018 18.598,4.008 12.680 C 3.997 6.296,4.018 4.392,4.099 4.193 C 4.141 4.091,4.228 4.066,4.640 4.038 C 4.849 4.024,8.314 4.014,12.340 4.016 C 18.494 4.019,19.677 4.029,19.768 4.075 M11.800 6.680 C 9.536 6.877,7.943 8.258,7.505 10.400 C 7.341 11.202,7.322 12.481,7.461 13.393 C 7.806 15.652,9.291 17.006,11.637 17.200 C 12.707 17.289,13.669 17.228,14.580 17.014 C 15.541 16.788,15.881 16.579,15.959 16.164 C 16.017 15.862,16.013 12.548,15.955 12.340 C 15.929 12.246,15.842 12.112,15.745 12.015 L 15.580 11.849 14.986 11.820 C 14.660 11.803,14.036 11.798,13.600 11.807 C 12.825 11.824,12.803 11.827,12.648 11.930 C 12.374 12.112,12.256 12.476,12.365 12.804 C 12.413 12.948,12.606 13.177,12.740 13.250 C 12.784 13.274,13.066 13.304,13.367 13.318 C 13.669 13.331,13.928 13.355,13.945 13.371 C 13.961 13.388,13.976 13.865,13.977 14.431 L 13.980 15.460 13.798 15.550 C 13.438 15.729,12.120 15.746,11.478 15.580 C 10.819 15.409,10.299 14.985,9.983 14.360 C 9.679 13.760,9.587 13.236,9.587 12.100 C 9.587 11.160,9.641 10.624,9.784 10.130 C 10.012 9.343,10.411 8.855,11.100 8.519 C 11.819 8.169,12.773 8.146,14.310 8.444 C 15.025 8.582,15.220 8.579,15.446 8.427 C 15.827 8.171,15.902 7.666,15.615 7.290 C 15.335 6.922,14.377 6.705,12.860 6.665 C 12.486 6.655,12.009 6.662,11.800 6.680 " fill="#1A1C1F" stroke="none" fill-rule="evenodd"></path></svg>