<svg width="32" height="32" viewBox="0 0 32 32" fill="none" xmlns="http://www.w3.org/2000/svg"><path d="M5.333 2.079 C 3.995 2.114,3.947 2.125,3.314 2.555 C 2.723 2.956,2.366 3.450,2.099 4.236 L 1.973 4.605 1.973 16.008 L 1.973 27.410 2.132 27.845 C 2.516 28.898,3.102 29.487,4.137 29.862 L 4.592 30.027 16.000 30.027 L 27.408 30.027 27.863 29.862 C 28.898 29.487,29.484 28.898,29.868 27.845 L 30.027 27.410 30.027 16.001 L 30.027 4.592 29.860 4.133 C 29.556 3.291,29.052 2.703,28.312 2.328 L 27.914 2.126 26.770 2.078 C 25.535 2.027,7.310 2.028,5.333 2.079 M27.506 4.173 C 27.633 4.256,27.784 4.418,27.852 4.547 L 27.973 4.773 27.973 16.027 L 27.973 27.280 27.848 27.481 C 27.779 27.592,27.637 27.748,27.532 27.828 L 27.342 27.973 15.996 27.973 L 4.650 27.973 4.449 27.810 C 4.338 27.721,4.198 27.553,4.137 27.437 L 4.027 27.227 4.027 15.973 L 4.027 4.720 4.173 4.495 C 4.397 4.151,4.564 4.085,5.307 4.049 C 5.659 4.031,10.747 4.019,16.613 4.022 L 27.280 4.027 27.506 4.173 M14.898 8.558 C 13.328 8.859,12.203 9.392,11.237 10.294 C 9.851 11.588,9.177 13.491,9.174 16.117 C 9.172 18.569,9.735 20.340,10.916 21.597 C 12.381 23.156,14.599 23.775,17.792 23.518 C 19.221 23.403,20.769 22.971,21.191 22.570 C 21.503 22.275,21.493 22.371,21.493 19.429 C 21.493 17.659,21.473 16.648,21.435 16.513 C 21.404 16.400,21.286 16.208,21.173 16.087 C 20.971 15.870,20.963 15.867,20.498 15.832 C 19.766 15.776,17.503 15.781,17.147 15.840 C 16.765 15.902,16.613 16.006,16.402 16.345 C 16.108 16.818,16.232 17.396,16.711 17.781 C 16.914 17.945,16.916 17.945,17.733 17.973 C 18.183 17.988,18.571 18.020,18.596 18.044 C 18.665 18.113,18.684 20.643,18.618 20.890 C 18.580 21.030,18.516 21.123,18.431 21.162 C 18.153 21.288,17.583 21.345,16.587 21.345 C 15.620 21.345,15.514 21.335,15.077 21.205 C 14.005 20.886,13.374 20.390,12.933 19.518 C 12.599 18.860,12.449 18.235,12.373 17.181 C 12.132 13.838,12.793 11.937,14.480 11.121 C 15.568 10.594,17.524 10.554,19.413 11.019 C 20.119 11.193,20.443 11.177,20.761 10.953 C 21.208 10.639,21.363 10.146,21.174 9.639 C 20.984 9.134,20.619 8.943,19.307 8.664 C 18.681 8.531,18.536 8.521,16.960 8.504 C 15.694 8.490,15.186 8.503,14.898 8.558 " fill="#1A1C1F" stroke="none" fill-rule="evenodd"></path></svg>