<svg width="24" height="24" viewBox="0 0 24 24" fill="none" xmlns="http://www.w3.org/2000/svg"><path d="M12.180 3.045 C 9.068 3.335,6.316 5.227,4.928 8.033 C 4.193 9.517,3.870 11.285,4.042 12.872 C 4.270 14.971,5.168 16.878,6.605 18.315 C 8.015 19.725,9.566 20.525,11.587 20.886 C 12.327 21.018,13.665 21.018,14.417 20.885 C 15.039 20.775,15.409 20.667,15.609 20.537 C 15.786 20.422,15.988 20.089,16.023 19.854 C 16.078 19.486,15.822 19.016,15.466 18.832 C 15.251 18.720,15.055 18.726,14.300 18.863 C 13.783 18.957,13.597 18.972,12.960 18.970 C 12.464 18.969,12.095 18.947,11.840 18.903 C 10.895 18.740,9.929 18.354,9.080 17.800 C 8.573 17.470,7.561 16.457,7.220 15.940 C 6.148 14.312,5.781 12.409,6.177 10.520 C 6.353 9.679,6.740 8.778,7.243 8.034 C 7.610 7.492,8.534 6.578,9.083 6.213 C 10.142 5.510,11.152 5.161,12.479 5.040 C 13.079 4.985,13.429 5.008,14.394 5.164 C 15.094 5.278,15.138 5.281,15.340 5.222 C 15.751 5.102,16.087 4.575,16.024 4.151 C 15.982 3.870,15.776 3.568,15.535 3.433 C 15.018 3.144,13.282 2.943,12.180 3.045 M19.731 6.039 C 19.660 6.056,19.552 6.101,19.491 6.139 C 19.430 6.177,17.946 7.649,16.193 9.411 L 13.006 12.614 11.845 11.472 C 11.207 10.844,10.602 10.276,10.502 10.210 C 10.021 9.891,9.365 10.084,9.098 10.622 C 8.995 10.831,8.994 11.244,9.097 11.438 C 9.193 11.618,12.240 14.667,12.499 14.842 C 12.728 14.996,13.046 15.043,13.306 14.960 C 13.430 14.920,13.980 14.392,16.114 12.265 C 17.574 10.810,19.243 9.128,19.824 8.527 C 20.979 7.329,20.991 7.313,20.947 6.888 C 20.912 6.541,20.661 6.200,20.360 6.088 C 20.205 6.031,19.874 6.005,19.731 6.039 " fill="#1A1C1F" stroke="none" fill-rule="evenodd"></path></svg>