<svg width="32" height="32" viewBox="0 0 32 32" fill="none" xmlns="http://www.w3.org/2000/svg"><path d="M22.187 2.082 C 21.151 2.154,19.987 2.586,19.004 3.264 C 18.450 3.646,17.366 4.783,17.051 5.314 C 16.491 6.256,16.140 7.287,16.048 8.266 C 15.886 9.970,16.280 11.519,17.241 12.960 C 17.593 13.486,18.584 14.467,19.120 14.820 C 19.877 15.317,20.741 15.678,21.639 15.871 C 22.158 15.983,23.762 15.999,24.240 15.897 C 25.690 15.588,26.961 14.911,27.947 13.922 C 28.923 12.942,29.543 11.815,29.841 10.480 C 29.973 9.891,30.002 8.508,29.896 7.867 C 29.482 5.342,27.737 3.260,25.321 2.408 C 25.065 2.318,24.669 2.208,24.441 2.165 C 23.949 2.072,22.893 2.033,22.187 2.082 M24.545 4.264 C 26.172 4.813,27.445 6.202,27.846 7.867 C 27.990 8.465,28.002 9.429,27.873 10.030 C 27.485 11.837,26.094 13.311,24.293 13.824 C 23.715 13.989,22.364 14.001,21.787 13.847 C 20.080 13.391,18.720 12.068,18.206 10.362 C 18.078 9.938,18.064 9.809,18.063 9.013 C 18.061 8.267,18.079 8.068,18.178 7.707 C 18.644 6.015,20.033 4.641,21.760 4.164 C 22.110 4.067,22.277 4.056,23.093 4.072 C 23.982 4.089,24.051 4.098,24.545 4.264 M21.774 6.291 C 21.532 6.401,21.367 6.619,21.277 6.947 C 21.174 7.326,21.280 7.512,22.070 8.328 L 22.785 9.067 22.067 9.809 C 21.450 10.447,21.339 10.587,21.285 10.802 C 21.179 11.223,21.402 11.683,21.814 11.894 C 22.227 12.104,22.512 12.018,23.071 11.514 C 23.659 10.983,24.896 9.664,25.048 9.405 C 25.224 9.103,25.188 8.873,24.904 8.505 C 24.598 8.107,22.754 6.304,22.589 6.241 C 22.369 6.157,22.023 6.179,21.774 6.291 M12.373 8.038 C 10.391 8.209,8.967 8.625,7.452 9.475 C 6.362 10.086,5.063 11.219,4.311 12.214 C 3.139 13.765,2.393 15.559,2.106 17.520 C 1.995 18.276,1.994 19.717,2.104 20.543 C 2.666 24.752,5.345 28.137,9.106 29.387 C 11.100 30.051,13.414 30.166,15.413 29.703 C 19.158 28.835,22.184 26.060,23.379 22.400 C 23.819 21.052,24.060 19.317,23.891 18.708 C 23.722 18.100,22.940 17.837,22.363 18.193 C 22.075 18.371,21.990 18.629,21.870 19.690 C 21.696 21.228,21.458 22.110,20.935 23.157 C 20.508 24.011,20.051 24.643,19.361 25.336 C 17.354 27.350,14.298 28.303,11.430 27.811 C 8.569 27.321,6.403 25.868,5.071 23.544 C 3.677 21.113,3.591 17.620,4.861 15.070 C 6.284 12.215,8.922 10.382,12.041 10.080 C 12.917 9.996,13.325 9.927,13.507 9.833 C 13.737 9.714,13.940 9.243,13.908 8.903 C 13.878 8.599,13.671 8.252,13.454 8.142 C 13.303 8.066,12.707 8.009,12.373 8.038 M9.708 14.083 C 9.142 14.321,8.865 14.940,9.110 15.420 C 9.163 15.524,9.823 16.475,10.578 17.534 L 11.950 19.458 12.291 20.926 C 12.479 21.733,12.680 22.502,12.738 22.633 C 12.917 23.038,13.383 23.263,13.806 23.149 C 14.224 23.036,14.560 22.612,14.560 22.197 C 14.560 21.851,13.988 19.202,13.817 18.756 C 13.689 18.420,10.815 14.384,10.574 14.200 C 10.371 14.045,9.937 13.987,9.708 14.083 " fill="#1A1C1F" stroke="none" fill-rule="evenodd"></path></svg>