<svg width="20" height="20" viewBox="0 0 20 20" fill="none" xmlns="http://www.w3.org/2000/svg"><path d="M10.940 4.564 C 10.579 4.609,10.347 4.837,10.308 5.186 C 10.283 5.403,10.371 5.601,10.573 5.782 L 10.741 5.933 11.245 5.934 C 11.523 5.934,11.804 5.943,11.871 5.954 L 11.992 5.974 12.249 6.784 C 12.390 7.230,12.513 7.652,12.522 7.722 C 12.537 7.846,12.513 7.881,11.827 8.769 C 11.436 9.274,10.877 9.998,10.583 10.378 L 10.050 11.068 9.734 11.059 L 9.418 11.050 8.827 9.083 C 8.502 8.002,8.235 7.086,8.235 7.049 C 8.234 6.996,8.266 6.972,8.375 6.943 C 8.965 6.785,9.132 6.050,8.658 5.701 L 8.520 5.600 7.248 5.600 L 5.977 5.600 5.840 5.699 C 5.645 5.840,5.586 5.969,5.585 6.255 C 5.583 6.468,5.594 6.510,5.685 6.639 C 5.845 6.867,6.021 6.945,6.408 6.961 L 6.733 6.974 6.779 7.129 C 6.804 7.214,6.934 7.646,7.067 8.089 L 7.309 8.895 6.913 9.550 C 6.695 9.910,6.478 10.251,6.431 10.307 L 6.346 10.410 5.998 10.275 C 5.578 10.111,5.218 10.051,4.840 10.082 C 3.828 10.163,3.026 10.698,2.586 11.583 C 2.375 12.008,2.325 12.231,2.324 12.750 C 2.323 13.276,2.372 13.486,2.601 13.950 C 2.879 14.512,3.287 14.917,3.850 15.189 C 4.228 15.371,4.514 15.432,5.003 15.433 C 5.469 15.433,5.794 15.361,6.184 15.169 C 6.947 14.794,7.559 13.952,7.655 13.145 L 7.675 12.973 8.929 12.961 C 10.037 12.950,10.196 12.942,10.289 12.892 C 10.427 12.817,10.705 12.485,11.749 11.150 C 12.676 9.964,13.055 9.500,13.096 9.500 C 13.111 9.500,13.195 9.734,13.285 10.020 L 13.447 10.540 13.268 10.695 C 12.871 11.037,12.513 11.603,12.380 12.100 C 12.337 12.259,12.322 12.442,12.323 12.783 C 12.324 13.228,12.329 13.266,12.440 13.590 C 12.572 13.974,12.707 14.216,12.950 14.501 C 13.303 14.916,13.801 15.225,14.350 15.370 C 14.715 15.466,15.278 15.466,15.650 15.370 C 16.607 15.123,17.363 14.361,17.620 13.383 C 17.711 13.038,17.704 12.435,17.605 12.083 C 17.393 11.327,16.907 10.719,16.235 10.370 C 15.889 10.189,15.553 10.101,15.125 10.077 L 14.767 10.057 14.548 9.370 C 14.428 8.992,14.316 8.640,14.298 8.587 C 14.281 8.534,14.267 8.486,14.267 8.481 C 14.267 8.476,14.690 8.467,15.208 8.460 C 16.352 8.445,16.341 8.448,16.621 8.077 C 16.942 7.650,17.161 7.275,17.186 7.111 C 17.249 6.689,16.936 6.329,16.504 6.324 C 16.210 6.322,16.005 6.474,15.738 6.892 L 15.626 7.067 14.719 7.067 L 13.811 7.067 13.668 6.608 C 13.401 5.752,13.074 4.862,12.994 4.777 C 12.952 4.731,12.857 4.663,12.784 4.625 C 12.664 4.564,12.579 4.556,11.901 4.548 C 11.488 4.542,11.055 4.550,10.940 4.564 M5.493 11.601 C 5.742 11.716,5.989 11.956,6.113 12.205 C 6.191 12.363,6.200 12.417,6.200 12.757 C 6.200 13.108,6.193 13.149,6.104 13.326 C 5.990 13.552,5.694 13.844,5.485 13.936 C 5.403 13.972,5.253 14.017,5.151 14.036 C 4.690 14.121,4.145 13.812,3.897 13.326 C 3.807 13.149,3.800 13.109,3.800 12.757 C 3.800 12.414,3.808 12.363,3.890 12.198 C 3.940 12.098,4.056 11.941,4.148 11.848 C 4.525 11.472,5.014 11.382,5.493 11.601 M15.493 11.601 C 15.742 11.716,15.989 11.956,16.113 12.205 C 16.191 12.363,16.200 12.417,16.200 12.757 C 16.200 13.108,16.193 13.149,16.104 13.326 C 15.990 13.552,15.694 13.844,15.485 13.936 C 15.403 13.972,15.253 14.017,15.151 14.036 C 14.690 14.121,14.145 13.812,13.897 13.326 C 13.807 13.149,13.800 13.109,13.800 12.757 C 13.800 12.414,13.808 12.363,13.890 12.198 C 13.940 12.098,14.056 11.941,14.148 11.848 C 14.525 11.472,15.014 11.382,15.493 11.601 " fill="#1A1C1F" stroke="none" fill-rule="evenodd"></path></svg>