<svg width="20" height="20" viewBox="0 0 20 20" fill="none" xmlns="http://www.w3.org/2000/svg"><path d="M16.888 5.036 C 16.800 5.050,16.666 5.104,16.591 5.156 C 16.516 5.208,15.167 6.530,13.594 8.095 L 10.734 10.941 9.652 9.875 C 9.017 9.250,8.517 8.784,8.443 8.749 C 8.352 8.705,8.233 8.688,8.017 8.686 C 7.760 8.684,7.693 8.695,7.554 8.766 C 7.465 8.812,7.328 8.920,7.250 9.007 C 7.004 9.281,6.935 9.723,7.087 10.058 C 7.162 10.225,10.138 13.195,10.320 13.285 C 10.499 13.374,10.968 13.376,11.129 13.289 C 11.191 13.255,11.558 12.923,11.945 12.552 C 13.021 11.520,17.870 6.634,17.983 6.469 C 18.066 6.347,18.085 6.284,18.095 6.081 C 18.111 5.764,18.040 5.552,17.849 5.339 C 17.619 5.083,17.275 4.975,16.888 5.036 " fill="#1A1C1F" stroke="none" fill-rule="evenodd"></path></svg>