<svg width="24" height="24" viewBox="0 0 24 24" fill="none" xmlns="http://www.w3.org/2000/svg"><path d="M19.731 6.039 C 19.660 6.056,19.552 6.101,19.491 6.139 C 19.430 6.177,17.946 7.649,16.193 9.411 L 13.006 12.614 11.845 11.472 C 11.207 10.844,10.602 10.276,10.502 10.210 C 10.021 9.891,9.365 10.084,9.098 10.622 C 8.995 10.831,8.994 11.244,9.097 11.438 C 9.193 11.618,12.240 14.667,12.499 14.842 C 12.728 14.996,13.046 15.043,13.306 14.960 C 13.430 14.920,13.980 14.392,16.114 12.265 C 17.574 10.810,19.243 9.128,19.824 8.527 C 20.979 7.329,20.991 7.313,20.947 6.888 C 20.912 6.541,20.661 6.200,20.360 6.088 C 20.205 6.031,19.874 6.005,19.731 6.039 " fill="#1A1C1F" stroke="none" fill-rule="evenodd"></path></svg>