<svg width="32" height="32" viewBox="0 0 32 32" fill="none" xmlns="http://www.w3.org/2000/svg"><path d="M25.772 8.116 C 25.541 8.179,24.052 9.617,19.548 14.128 L 16.029 17.652 14.321 15.952 C 13.195 14.831,12.533 14.212,12.377 14.134 C 11.793 13.840,11.105 14.271,11.009 14.991 C 10.982 15.196,11.001 15.261,11.154 15.493 C 11.386 15.845,15.205 19.666,15.542 19.884 C 15.895 20.112,16.156 20.112,16.511 19.886 C 16.767 19.723,24.721 11.796,26.213 10.216 L 26.960 9.426 26.960 9.069 C 26.960 8.772,26.936 8.676,26.818 8.498 C 26.605 8.175,26.156 8.012,25.772 8.116 " fill="#1A1C1F" stroke="none" fill-rule="evenodd"></path></svg>