<svg width="20" height="20" viewBox="0 0 20 20" fill="none" xmlns="http://www.w3.org/2000/svg"><path d="M4.433 2.029 C 3.837 2.086,3.292 2.518,3.094 3.092 L 3.017 3.317 3.017 10.000 L 3.017 16.683 3.093 16.905 C 3.297 17.494,3.816 17.903,4.450 17.972 C 4.611 17.990,6.630 17.999,9.223 17.992 L 13.717 17.982 13.908 17.910 C 14.389 17.727,14.729 17.386,14.910 16.904 C 14.977 16.726,14.981 16.643,14.992 15.245 L 15.004 13.773 14.918 13.602 C 14.810 13.389,14.624 13.200,14.429 13.106 C 14.312 13.049,14.218 13.033,14.000 13.033 C 13.658 13.033,13.508 13.097,13.285 13.335 C 13.014 13.625,13.018 13.602,13.006 14.875 L 12.996 16.000 8.998 16.000 L 5.000 16.000 5.000 10.004 L 5.000 4.007 5.642 3.995 C 6.279 3.982,6.284 3.982,6.462 3.884 C 6.645 3.783,6.812 3.607,6.919 3.400 C 7.004 3.236,7.004 2.763,6.918 2.600 C 6.813 2.398,6.679 2.254,6.495 2.143 L 6.317 2.035 5.500 2.020 C 5.051 2.012,4.571 2.016,4.433 2.029 M11.883 2.052 C 11.036 2.186,10.308 2.512,9.633 3.058 C 8.887 3.663,8.375 4.492,8.114 5.517 C 8.028 5.854,8.021 5.932,8.022 6.500 C 8.023 6.961,8.037 7.176,8.079 7.350 C 8.336 8.418,8.769 9.156,9.558 9.872 C 10.112 10.374,10.792 10.715,11.650 10.921 C 11.980 11.000,13.020 11.000,13.350 10.921 C 14.416 10.665,15.188 10.211,15.882 9.433 C 16.388 8.866,16.747 8.143,16.918 7.347 C 16.998 6.979,16.998 6.021,16.918 5.653 C 16.556 3.968,15.349 2.657,13.727 2.187 C 13.196 2.033,12.378 1.973,11.883 2.052 M13.083 4.098 C 13.691 4.245,14.170 4.563,14.521 5.055 C 14.837 5.497,14.976 5.935,14.976 6.483 C 14.976 6.929,14.913 7.211,14.733 7.579 C 14.160 8.753,12.783 9.300,11.601 8.822 C 10.754 8.480,10.154 7.701,10.032 6.787 C 9.974 6.355,10.064 5.781,10.232 5.508 L 10.299 5.400 10.808 5.712 C 11.088 5.883,11.579 6.185,11.900 6.383 C 12.777 6.922,12.689 6.876,12.713 6.814 C 12.724 6.785,12.733 6.147,12.733 5.397 C 12.733 4.328,12.742 4.033,12.775 4.034 C 12.798 4.034,12.937 4.063,13.083 4.098 M7.983 12.029 C 7.800 12.042,7.612 12.072,7.567 12.097 C 7.386 12.195,7.210 12.367,7.117 12.538 C 7.031 12.696,7.020 12.750,7.020 13.000 C 7.020 13.250,7.031 13.304,7.117 13.462 C 7.219 13.649,7.391 13.810,7.616 13.930 C 7.745 13.998,7.791 14.000,8.996 14.000 C 10.222 14.000,10.245 13.999,10.393 13.925 C 10.587 13.829,10.807 13.614,10.904 13.429 C 11.004 13.236,11.012 12.779,10.918 12.600 C 10.813 12.397,10.679 12.253,10.495 12.144 L 10.317 12.038 9.317 12.023 C 8.767 12.014,8.167 12.017,7.983 12.029 " fill="#1A1C1F" stroke="none" fill-rule="evenodd"></path></svg>