<svg width="32" height="32" viewBox="0 0 32 32" fill="none" xmlns="http://www.w3.org/2000/svg"><path d="M6.933 2.077 C 6.216 2.105,6.139 2.119,5.867 2.261 C 5.504 2.451,5.388 2.539,4.999 2.919 C 4.592 3.318,4.403 3.623,4.183 4.240 L 4.000 4.751 4.000 16.000 L 4.000 27.249 4.187 27.771 C 4.585 28.887,5.248 29.551,6.337 29.926 C 6.619 30.023,6.909 30.027,13.972 30.027 C 22.108 30.027,21.520 30.052,22.241 29.675 C 22.980 29.289,23.494 28.665,23.815 27.766 L 24.004 27.239 23.988 22.962 L 23.973 18.685 23.827 18.464 C 23.626 18.161,23.413 18.058,22.978 18.056 C 22.660 18.054,22.603 18.070,22.418 18.218 C 22.306 18.309,22.160 18.477,22.094 18.592 L 21.975 18.800 21.972 22.027 C 21.970 23.801,21.949 25.713,21.925 26.275 C 21.887 27.170,21.868 27.319,21.771 27.476 C 21.544 27.843,21.445 27.895,20.873 27.952 C 20.550 27.984,17.722 27.998,13.538 27.989 L 6.730 27.973 6.525 27.808 C 6.142 27.499,6.125 27.435,6.068 26.116 C 6.037 25.399,6.027 20.987,6.044 14.900 L 6.071 4.866 6.183 4.648 C 6.244 4.528,6.375 4.349,6.474 4.250 L 6.653 4.070 7.340 4.035 C 7.718 4.016,9.035 3.999,10.267 3.996 C 12.822 3.992,13.377 3.960,13.589 3.805 C 13.789 3.660,13.973 3.277,13.973 3.006 C 13.973 2.719,13.898 2.520,13.717 2.329 C 13.421 2.016,13.529 2.026,10.496 2.037 C 8.962 2.042,7.359 2.060,6.933 2.077 M19.707 2.128 C 17.543 2.580,15.682 3.993,14.723 5.911 C 14.472 6.413,14.203 7.264,14.104 7.867 C 13.966 8.707,14.021 9.915,14.235 10.747 C 14.822 13.030,16.628 14.944,18.855 15.643 C 20.674 16.214,22.401 16.085,24.080 15.254 C 26.061 14.272,27.426 12.486,27.878 10.285 C 28.007 9.659,28.004 8.296,27.872 7.682 C 27.405 5.506,26.023 3.707,24.080 2.747 C 23.050 2.239,22.400 2.087,21.095 2.052 C 20.344 2.032,20.104 2.045,19.707 2.128 M19.896 4.299 C 19.927 4.382,19.943 4.998,19.934 5.818 L 19.920 7.198 18.680 6.420 C 17.998 5.993,17.440 5.611,17.440 5.573 C 17.440 5.444,18.304 4.795,18.823 4.533 C 19.112 4.388,19.681 4.166,19.775 4.163 C 19.812 4.161,19.866 4.223,19.896 4.299 M22.560 4.306 C 23.863 4.741,25.074 5.897,25.592 7.200 C 26.059 8.372,26.043 9.830,25.551 10.985 C 24.964 12.365,23.671 13.482,22.208 13.873 C 21.632 14.027,20.366 14.039,19.813 13.895 C 18.284 13.498,17.138 12.538,16.424 11.056 C 16.088 10.361,16.039 10.058,16.068 8.880 C 16.091 7.923,16.136 7.612,16.280 7.428 C 16.352 7.336,16.502 7.419,18.507 8.664 C 19.460 9.256,20.336 9.799,20.453 9.870 C 20.769 10.061,21.244 10.054,21.506 9.854 C 21.611 9.774,21.753 9.618,21.822 9.508 L 21.947 9.307 21.962 6.730 L 21.978 4.153 22.149 4.189 C 22.243 4.209,22.428 4.262,22.560 4.306 M8.708 6.075 C 8.335 6.171,8.088 6.458,8.022 6.870 C 7.975 7.162,8.100 7.495,8.346 7.733 C 8.580 7.959,8.790 7.992,10.000 7.992 C 11.210 7.992,11.420 7.959,11.654 7.733 C 12.124 7.277,12.083 6.549,11.566 6.181 C 11.415 6.074,11.331 6.066,10.143 6.049 C 9.448 6.038,8.803 6.050,8.708 6.075 M8.708 10.075 C 8.335 10.171,8.088 10.458,8.022 10.870 C 7.975 11.162,8.100 11.495,8.346 11.733 C 8.580 11.959,8.790 11.992,10.000 11.992 C 11.210 11.992,11.420 11.959,11.654 11.733 C 12.124 11.277,12.083 10.549,11.566 10.181 C 11.415 10.074,11.331 10.066,10.143 10.049 C 9.448 10.038,8.803 10.050,8.708 10.075 M8.708 14.075 C 8.335 14.171,8.088 14.458,8.022 14.870 C 7.975 15.162,8.100 15.495,8.346 15.733 C 8.580 15.959,8.790 15.992,10.000 15.992 C 11.210 15.992,11.420 15.959,11.654 15.733 C 12.124 15.277,12.083 14.549,11.566 14.181 C 11.415 14.074,11.331 14.066,10.143 14.049 C 9.448 14.038,8.803 14.050,8.708 14.075 M8.931 18.071 C 8.510 18.111,8.331 18.204,8.168 18.466 C 7.928 18.855,7.970 19.308,8.280 19.661 C 8.599 20.023,8.206 20.000,14.000 20.000 C 19.794 20.000,19.401 20.023,19.720 19.661 C 20.123 19.201,20.054 18.529,19.568 18.183 C 19.410 18.071,19.398 18.070,14.358 18.053 C 11.580 18.043,9.137 18.052,8.931 18.071 M8.931 22.071 C 8.510 22.111,8.331 22.204,8.168 22.466 C 7.928 22.855,7.970 23.308,8.280 23.661 C 8.599 24.023,8.206 24.000,14.000 24.000 C 19.794 24.000,19.401 24.023,19.720 23.661 C 20.123 23.201,20.054 22.529,19.568 22.183 C 19.410 22.071,19.398 22.070,14.358 22.053 C 11.580 22.043,9.137 22.052,8.931 22.071 " fill="#1A1C1F" stroke="none" fill-rule="evenodd"></path></svg>