<svg width="20" height="20" viewBox="0 0 20 20" fill="none" xmlns="http://www.w3.org/2000/svg"><path d="M7.250 2.033 C 6.773 2.056,6.724 2.070,6.424 2.272 C 5.962 2.582,5.660 2.840,5.597 2.980 C 5.398 3.418,5.742 3.935,6.178 3.853 C 6.247 3.840,6.464 3.713,6.698 3.549 L 7.100 3.267 7.383 3.267 L 7.667 3.267 7.667 4.128 L 7.667 4.990 7.292 5.010 C 6.863 5.033,6.624 5.088,6.321 5.236 C 5.742 5.518,5.346 6.015,5.100 6.765 L 5.000 7.073 5.000 11.498 L 5.000 15.924 5.113 16.261 C 5.374 17.037,5.792 17.530,6.448 17.837 C 6.662 17.937,6.697 17.943,7.261 17.969 C 8.024 18.004,11.976 18.004,12.739 17.969 C 13.303 17.943,13.338 17.937,13.552 17.837 C 13.884 17.682,14.177 17.458,14.379 17.207 C 14.623 16.903,14.747 16.671,14.884 16.264 L 15.000 15.920 15.000 11.500 L 15.000 7.081 14.898 6.767 C 14.524 5.613,13.732 5.006,12.592 5.001 L 12.333 5.000 12.333 4.133 L 12.333 3.267 12.562 3.267 L 12.791 3.267 13.197 3.531 C 13.420 3.677,13.656 3.813,13.722 3.835 C 14.033 3.938,14.332 3.726,14.415 3.344 C 14.447 3.196,14.382 2.986,14.260 2.848 C 14.129 2.698,13.311 2.150,13.143 2.099 C 12.911 2.029,8.397 1.978,7.250 2.033 M11.233 4.133 L 11.233 5.000 10.000 5.000 L 8.767 5.000 8.767 4.133 L 8.767 3.267 10.000 3.267 L 11.233 3.267 11.233 4.133 M12.594 7.126 C 12.831 7.242,13.054 7.465,13.192 7.723 L 13.300 7.926 13.300 10.000 L 13.300 12.074 13.192 12.277 C 13.053 12.538,12.799 12.796,12.568 12.910 L 12.387 13.000 10.000 13.000 L 7.613 13.000 7.432 12.910 C 7.192 12.791,6.918 12.513,6.812 12.284 C 6.690 12.015,6.668 11.683,6.669 10.050 C 6.670 8.243,6.688 7.988,6.831 7.705 C 6.956 7.457,7.157 7.250,7.386 7.133 C 7.616 7.016,7.950 7.004,10.379 7.021 L 12.408 7.035 12.594 7.126 M8.274 15.039 C 8.481 15.186,8.550 15.497,8.427 15.731 C 8.302 15.971,8.210 16.000,7.601 15.998 C 7.292 15.997,7.037 15.980,6.968 15.956 C 6.644 15.845,6.601 15.197,6.907 15.028 C 7.031 14.960,7.288 14.937,7.748 14.955 C 8.110 14.969,8.196 14.983,8.274 15.039 M13.120 15.051 C 13.181 15.097,13.253 15.199,13.286 15.286 C 13.337 15.419,13.340 15.462,13.305 15.595 C 13.212 15.949,13.108 15.996,12.417 15.996 C 11.724 15.996,11.621 15.949,11.528 15.593 C 11.492 15.454,11.494 15.417,11.552 15.280 C 11.676 14.981,11.840 14.928,12.565 14.953 C 12.977 14.968,13.022 14.976,13.120 15.051 " fill="#1A1C1F" stroke="none" fill-rule="evenodd"></path></svg>