<svg width="24" height="24" viewBox="0 0 24 24" fill="none" xmlns="http://www.w3.org/2000/svg"><path d="M8.460 2.035 C 7.958 2.054,7.742 2.078,7.634 2.127 C 7.363 2.249,6.502 2.813,6.334 2.978 C 6.058 3.250,6.023 3.616,6.244 3.926 C 6.401 4.146,6.829 4.263,7.099 4.160 C 7.157 4.139,7.428 3.977,7.702 3.800 L 8.200 3.480 8.740 3.480 L 9.280 3.480 9.280 4.820 L 9.280 6.160 8.950 6.161 C 8.437 6.162,7.753 6.228,7.501 6.302 C 6.713 6.531,5.991 7.061,5.535 7.747 C 5.290 8.115,5.152 8.424,5.014 8.920 L 4.920 9.259 4.921 13.760 C 4.921 16.235,4.939 18.478,4.959 18.744 C 5.022 19.550,5.330 20.268,5.851 20.825 C 6.319 21.326,6.774 21.615,7.474 21.857 L 7.888 22.000 12.000 22.000 L 16.112 22.000 16.525 21.856 C 17.024 21.683,17.175 21.608,17.549 21.350 C 18.170 20.922,18.636 20.299,18.881 19.569 C 19.008 19.188,19.012 19.159,19.043 18.200 C 19.060 17.661,19.076 15.420,19.077 13.220 L 19.078 9.220 18.983 8.896 C 18.642 7.735,17.996 6.951,16.989 6.480 C 16.521 6.260,16.249 6.207,15.430 6.175 L 14.720 6.148 14.720 4.834 L 14.720 3.520 15.263 3.520 L 15.805 3.520 16.286 3.803 C 16.867 4.146,16.991 4.200,17.196 4.200 C 17.501 4.200,17.714 4.062,17.844 3.780 C 17.943 3.566,17.939 3.374,17.830 3.158 C 17.728 2.956,17.488 2.783,16.711 2.352 C 16.267 2.105,16.224 2.090,15.911 2.067 C 15.430 2.031,9.261 2.005,8.460 2.035 M13.240 4.820 L 13.240 6.160 12.000 6.160 L 10.760 6.160 10.760 4.820 L 10.760 3.480 12.000 3.480 L 13.240 3.480 13.240 4.820 M15.384 7.674 L 16.109 7.702 16.420 7.856 C 16.815 8.051,17.178 8.404,17.356 8.765 C 17.472 9.002,17.486 9.070,17.519 9.602 C 17.573 10.487,17.611 17.928,17.564 18.519 C 17.527 18.984,17.512 19.042,17.361 19.348 C 17.100 19.875,16.711 20.220,16.164 20.409 L 15.900 20.500 12.000 20.500 L 8.100 20.500 7.820 20.404 C 7.256 20.212,6.859 19.851,6.586 19.283 L 6.424 18.947 6.422 14.123 L 6.420 9.300 6.512 9.045 C 6.704 8.514,7.097 8.073,7.592 7.832 C 7.849 7.707,7.884 7.701,8.480 7.678 C 9.377 7.644,14.532 7.641,15.384 7.674 M9.918 9.157 C 9.346 9.180,9.330 9.183,9.031 9.330 C 8.672 9.508,8.390 9.793,8.203 10.166 L 8.080 10.413 8.080 12.061 L 8.080 13.709 8.225 13.998 C 8.483 14.516,8.924 14.858,9.457 14.956 C 9.733 15.007,13.755 15.014,14.366 14.965 C 14.669 14.940,14.799 14.910,14.976 14.820 C 15.275 14.669,15.611 14.310,15.771 13.972 L 15.900 13.700 15.912 12.082 L 15.924 10.464 15.775 10.162 C 15.591 9.788,15.299 9.494,14.937 9.315 C 14.684 9.191,14.640 9.183,14.065 9.155 C 13.373 9.122,10.786 9.123,9.918 9.157 M14.089 10.634 C 14.236 10.650,14.370 10.677,14.386 10.693 C 14.402 10.709,14.416 11.323,14.418 12.059 C 14.419 13.105,14.409 13.407,14.368 13.448 C 14.292 13.524,9.709 13.525,9.632 13.448 C 9.566 13.382,9.533 10.916,9.596 10.750 C 9.629 10.663,9.666 10.642,9.808 10.629 C 10.134 10.600,13.820 10.604,14.089 10.634 M8.737 17.518 C 8.488 17.557,8.398 17.603,8.265 17.761 C 7.930 18.160,8.101 18.795,8.577 18.915 C 8.807 18.973,9.792 18.973,10.022 18.915 C 10.345 18.834,10.559 18.476,10.503 18.109 C 10.471 17.891,10.257 17.624,10.069 17.565 C 9.894 17.511,8.988 17.478,8.737 17.518 M14.051 17.557 C 13.781 17.625,13.564 17.859,13.502 18.147 C 13.435 18.459,13.708 18.889,14.020 18.961 C 14.238 19.011,15.225 19.009,15.409 18.958 C 15.621 18.899,15.776 18.753,15.878 18.517 C 15.986 18.266,15.963 18.072,15.801 17.848 C 15.615 17.591,15.470 17.546,14.780 17.534 C 14.450 17.528,14.122 17.538,14.051 17.557 " fill="#1A1C1F" stroke="none" fill-rule="evenodd"></path></svg>