<svg width="32" height="32" viewBox="0 0 32 32" fill="none" xmlns="http://www.w3.org/2000/svg"><path d="M10.637 2.076 C 10.244 2.107,10.165 2.134,9.704 2.396 C 8.980 2.807,8.300 3.275,8.197 3.432 C 8.033 3.681,7.973 4.018,8.047 4.265 C 8.136 4.564,8.452 4.870,8.759 4.956 C 9.101 5.052,9.358 4.956,10.187 4.427 L 10.853 4.000 11.427 4.000 L 12.000 4.000 12.000 5.013 L 12.000 6.027 11.320 6.028 C 10.385 6.030,9.400 6.112,9.087 6.216 C 8.944 6.263,8.599 6.426,8.320 6.578 C 7.596 6.972,6.956 7.612,6.532 8.367 C 6.361 8.672,6.188 9.044,6.147 9.194 C 6.008 9.709,5.969 12.166,5.986 19.253 C 6.001 25.756,6.009 26.290,6.096 26.582 C 6.584 28.225,7.694 29.351,9.318 29.850 L 9.787 29.994 15.920 29.997 L 22.053 30.000 22.523 29.880 C 23.963 29.513,24.990 28.651,25.682 27.227 C 25.791 27.002,25.888 26.694,25.925 26.453 C 26.010 25.908,26.060 11.337,25.981 10.197 C 25.934 9.518,25.901 9.334,25.768 8.989 C 25.270 7.707,24.207 6.679,22.920 6.236 C 22.495 6.089,22.413 6.080,21.236 6.046 L 20.000 6.010 20.000 5.032 L 20.000 4.053 20.563 4.053 L 21.125 4.053 21.769 4.434 C 22.835 5.065,23.119 5.123,23.564 4.800 C 24.140 4.383,24.129 3.616,23.540 3.191 C 23.084 2.862,22.076 2.282,21.821 2.201 C 21.653 2.148,21.155 2.109,20.267 2.078 C 18.781 2.027,11.290 2.026,10.637 2.076 M17.973 5.013 L 17.973 6.027 16.000 6.027 L 14.027 6.027 14.027 5.013 L 14.027 4.000 16.000 4.000 L 17.973 4.000 17.973 5.013 M21.547 8.046 C 22.143 8.079,22.252 8.101,22.575 8.253 C 23.082 8.491,23.525 8.927,23.775 9.434 L 23.973 9.834 24.008 10.930 C 24.054 12.355,24.054 23.645,24.008 25.070 L 23.973 26.166 23.773 26.570 C 23.402 27.322,22.672 27.862,21.907 27.950 C 21.431 28.006,11.578 28.008,10.507 27.953 C 9.748 27.914,9.726 27.910,9.350 27.712 C 8.885 27.467,8.501 27.077,8.264 26.609 C 8.114 26.313,8.085 26.188,8.049 25.680 C 7.993 24.916,7.993 11.086,8.048 10.320 C 8.083 9.845,8.119 9.672,8.241 9.413 C 8.442 8.986,8.944 8.494,9.419 8.260 C 9.777 8.083,9.799 8.079,10.665 8.050 C 11.961 8.007,20.769 8.003,21.547 8.046 M12.000 10.079 C 11.780 10.099,11.507 10.155,11.394 10.204 C 10.810 10.456,10.319 11.013,10.118 11.651 C 10.005 12.011,10.000 12.111,10.000 14.027 L 10.000 16.027 10.142 16.416 C 10.414 17.159,10.986 17.698,11.715 17.899 C 12.058 17.994,12.326 18.000,16.080 18.000 L 20.080 18.000 20.432 17.873 C 21.332 17.548,21.875 16.894,22.031 15.947 C 22.098 15.541,22.092 12.424,22.023 12.001 C 21.908 11.293,21.488 10.696,20.821 10.293 L 20.511 10.107 19.176 10.073 C 17.435 10.028,12.514 10.032,12.000 10.079 M19.931 12.122 C 20.019 12.210,20.027 12.361,20.027 14.020 C 20.027 15.484,20.013 15.841,19.952 15.913 C 19.884 15.996,19.579 16.002,16.048 15.988 C 12.453 15.974,12.211 15.967,12.122 15.878 C 12.034 15.790,12.027 15.641,12.027 14.006 C 12.027 12.043,12.021 12.076,12.364 12.037 C 12.472 12.025,14.197 12.018,16.198 12.021 C 19.616 12.026,19.842 12.032,19.931 12.122 M14.763 20.051 C 14.655 20.072,14.481 20.154,14.377 20.234 C 13.815 20.662,13.889 21.498,14.521 21.869 L 14.800 22.033 16.000 22.013 C 17.363 21.990,17.494 21.958,17.765 21.585 C 18.067 21.168,18.023 20.669,17.651 20.294 C 17.448 20.090,17.423 20.080,17.000 20.045 C 16.431 19.998,15.017 20.001,14.763 20.051 M10.853 24.045 C 10.224 24.131,9.860 24.779,10.109 25.373 C 10.216 25.629,10.326 25.747,10.587 25.882 C 10.776 25.981,10.917 25.996,11.836 26.017 C 13.123 26.045,13.360 26.003,13.678 25.685 C 13.968 25.395,14.049 25.108,13.942 24.749 C 13.851 24.443,13.702 24.242,13.475 24.122 C 13.335 24.047,13.120 24.030,12.213 24.021 C 11.612 24.014,11.000 24.026,10.853 24.045 M18.822 24.047 C 18.552 24.104,18.310 24.293,18.180 24.547 C 17.946 25.004,18.156 25.627,18.627 25.879 C 18.843 25.994,18.909 26.000,20.027 26.000 C 20.864 26.000,21.257 25.980,21.399 25.929 C 21.649 25.841,21.945 25.501,22.017 25.219 C 22.081 24.963,21.988 24.581,21.804 24.348 C 21.585 24.069,21.413 24.035,20.160 24.020 C 19.529 24.013,18.927 24.025,18.822 24.047 " fill="#1A1C1F" stroke="none" fill-rule="evenodd"></path></svg>