<svg width="20" height="20" viewBox="0 0 20 20" fill="none" xmlns="http://www.w3.org/2000/svg"><path d="M14.480 2.683 C 14.368 2.707,11.998 3.458,9.213 4.350 C 5.833 5.434,4.074 6.013,3.921 6.093 C 3.606 6.257,3.390 6.476,3.249 6.775 C 3.010 7.277,3.021 7.084,3.009 11.056 C 2.998 14.463,3.001 14.643,3.061 14.940 C 3.294 16.078,4.102 16.939,5.251 17.272 L 5.517 17.349 9.897 17.359 C 13.690 17.367,14.317 17.362,14.570 17.318 C 15.755 17.113,16.672 16.275,16.995 15.102 L 17.082 14.783 17.093 11.550 C 17.105 8.130,17.102 8.067,16.950 7.767 C 16.854 7.577,16.580 7.318,16.374 7.223 C 16.217 7.150,16.208 7.150,13.333 7.133 C 11.747 7.124,10.473 7.106,10.500 7.093 C 10.527 7.080,11.773 6.679,13.267 6.201 C 14.761 5.724,16.039 5.308,16.108 5.278 C 16.274 5.205,16.530 4.949,16.605 4.780 C 16.712 4.537,16.743 4.323,16.699 4.109 C 16.557 3.410,15.943 2.821,15.209 2.681 C 14.911 2.624,14.750 2.624,14.480 2.683 M15.093 11.858 L 15.083 14.583 15.007 14.750 C 14.910 14.960,14.731 15.147,14.517 15.261 L 14.350 15.350 10.050 15.350 L 5.750 15.350 5.595 15.278 C 5.397 15.187,5.180 14.970,5.088 14.772 C 5.017 14.618,5.017 14.600,5.008 11.875 L 4.998 9.133 10.051 9.133 L 15.103 9.133 15.093 11.858 M8.977 10.297 C 8.919 10.333,8.855 10.394,8.835 10.431 C 8.809 10.478,8.801 11.044,8.807 12.286 L 8.817 14.072 8.910 14.153 C 9.091 14.308,9.121 14.296,10.556 13.466 C 11.339 13.014,11.927 12.653,11.990 12.586 C 12.176 12.387,12.169 12.075,11.973 11.869 C 11.866 11.756,9.303 10.272,9.173 10.247 C 9.117 10.237,9.044 10.255,8.977 10.297 " fill="#1A1C1F" stroke="none" fill-rule="evenodd"></path></svg>