<svg width="24" height="24" viewBox="0 0 24 24" fill="none" xmlns="http://www.w3.org/2000/svg"><path d="M16.340 2.016 C 16.186 2.045,13.549 2.874,10.480 3.858 C 6.248 5.215,4.824 5.687,4.584 5.813 C 3.647 6.308,3.003 7.368,3.001 8.423 C 3.000 8.824,3.057 9.087,3.313 9.860 L 3.539 10.540 3.561 15.040 C 3.582 19.214,3.589 19.557,3.655 19.779 C 3.971 20.827,4.674 21.560,5.700 21.910 L 6.020 22.019 12.100 22.031 C 16.408 22.040,18.255 22.030,18.438 21.999 C 19.643 21.793,20.582 20.925,20.880 19.744 C 20.958 19.437,20.960 19.291,20.960 14.944 L 20.959 10.460 20.866 10.260 C 20.729 9.968,20.588 9.820,20.312 9.682 L 20.067 9.560 15.524 9.559 C 13.016 9.558,11.007 9.542,11.040 9.524 C 11.073 9.505,12.936 8.902,15.180 8.184 C 17.424 7.466,19.335 6.851,19.427 6.817 C 19.668 6.729,19.938 6.472,20.066 6.212 C 20.247 5.842,20.226 5.614,19.923 4.680 C 19.634 3.786,19.466 3.421,19.192 3.082 C 18.807 2.606,18.167 2.196,17.600 2.061 C 17.224 1.972,16.671 1.952,16.340 2.016 M17.344 4.100 C 17.596 4.248,17.741 4.451,17.863 4.826 C 17.923 5.010,17.963 5.170,17.953 5.181 C 17.942 5.192,15.100 6.109,11.636 7.220 C 8.173 8.331,5.311 9.249,5.276 9.260 C 5.226 9.277,5.190 9.207,5.106 8.931 C 5.047 8.738,4.999 8.526,5.000 8.460 C 5.002 8.110,5.211 7.751,5.506 7.593 C 5.613 7.536,8.157 6.703,11.160 5.742 C 14.163 4.781,16.638 3.988,16.660 3.978 C 16.768 3.933,17.185 4.007,17.344 4.100 M18.959 15.410 C 18.958 19.197,18.957 19.263,18.877 19.440 C 18.776 19.662,18.629 19.821,18.420 19.934 L 18.260 20.020 12.280 20.020 C 6.606 20.020,6.293 20.016,6.156 19.948 C 5.966 19.854,5.774 19.663,5.667 19.462 L 5.580 19.300 5.569 15.430 L 5.558 11.560 12.259 11.560 L 18.960 11.560 18.959 15.410 M10.831 13.343 C 10.598 13.469,10.600 13.447,10.600 15.696 C 10.600 17.208,10.613 17.784,10.648 17.861 C 10.702 17.980,10.869 18.080,11.014 18.080 C 11.152 18.080,14.267 16.277,14.428 16.104 C 14.653 15.862,14.653 15.497,14.428 15.259 C 14.277 15.099,11.141 13.279,11.021 13.282 C 10.976 13.282,10.891 13.310,10.831 13.343 " fill="#1A1C1F" stroke="none" fill-rule="evenodd"></path></svg>