<svg width="20" height="20" viewBox="0 0 20 20" fill="none" xmlns="http://www.w3.org/2000/svg"><path d="M4.275 2.032 C 4.010 2.095,3.988 2.141,3.050 4.583 C 1.914 7.542,1.930 7.491,2.123 7.617 C 2.260 7.707,2.612 7.721,2.816 7.644 C 3.025 7.565,3.088 7.474,3.291 6.950 L 3.448 6.543 3.846 6.521 C 4.065 6.510,4.546 6.500,4.916 6.500 L 5.588 6.500 5.746 6.896 C 6.019 7.584,6.138 7.700,6.567 7.700 C 6.831 7.700,7.019 7.624,7.062 7.498 C 7.104 7.378,7.114 7.408,6.391 5.483 C 5.339 2.684,5.196 2.331,5.052 2.174 C 4.907 2.017,4.588 1.958,4.275 2.032 M8.804 2.031 C 8.742 2.047,8.652 2.089,8.604 2.125 C 8.409 2.269,8.417 2.162,8.417 4.867 C 8.417 7.303,8.418 7.352,8.484 7.467 C 8.623 7.705,8.636 7.707,9.983 7.688 C 11.305 7.670,11.376 7.661,11.820 7.449 C 12.376 7.183,12.667 6.709,12.667 6.067 C 12.667 5.388,12.347 4.935,11.723 4.731 L 11.460 4.644 11.647 4.553 C 11.880 4.439,12.150 4.180,12.232 3.992 C 12.364 3.690,12.346 3.086,12.196 2.775 C 12.029 2.429,11.668 2.178,11.199 2.082 C 10.912 2.023,8.994 1.982,8.804 2.031 M16.100 2.040 C 14.705 2.213,13.900 3.368,13.977 5.083 C 14.041 6.493,14.608 7.300,15.750 7.605 C 16.114 7.702,16.891 7.710,17.286 7.620 C 17.677 7.532,17.834 7.445,17.927 7.265 C 18.075 6.980,17.977 6.637,17.733 6.583 C 17.683 6.572,17.471 6.596,17.263 6.635 C 16.729 6.738,16.203 6.719,15.917 6.588 C 15.363 6.335,15.128 5.818,15.128 4.850 C 15.127 3.319,15.698 2.832,17.233 3.056 C 17.639 3.115,17.762 3.104,17.865 3.002 C 17.951 2.916,17.986 2.661,17.935 2.491 C 17.850 2.207,17.637 2.100,17.026 2.035 C 16.655 1.995,16.452 1.996,16.100 2.040 M10.983 3.033 C 11.155 3.140,11.200 3.251,11.200 3.574 C 11.200 3.832,11.193 3.860,11.101 3.971 C 10.924 4.186,10.826 4.212,10.142 4.227 L 9.533 4.241 9.533 3.582 L 9.533 2.923 10.199 2.942 C 10.808 2.959,10.875 2.967,10.983 3.033 M4.633 3.609 C 4.633 3.614,4.796 4.071,4.996 4.626 L 5.358 5.633 4.610 5.633 L 3.862 5.633 3.885 5.558 C 3.978 5.252,4.588 3.600,4.608 3.600 C 4.622 3.600,4.633 3.604,4.633 3.609 M10.791 5.197 C 11.003 5.217,11.095 5.243,11.198 5.312 C 11.435 5.468,11.545 5.816,11.469 6.169 C 11.369 6.638,10.999 6.798,10.013 6.799 L 9.577 6.800 9.555 6.525 C 9.543 6.374,9.534 6.006,9.534 5.708 L 9.533 5.167 10.025 5.169 C 10.295 5.170,10.640 5.183,10.791 5.197 M4.298 10.032 L 3.213 10.050 2.953 10.179 C 2.442 10.431,2.095 10.911,2.029 11.454 C 2.011 11.604,2.001 12.682,2.007 13.967 C 2.018 16.520,1.996 16.326,2.307 16.654 C 2.599 16.963,2.648 16.978,3.375 16.994 C 3.855 17.004,4.000 17.017,4.000 17.050 C 4.000 17.074,4.030 17.191,4.067 17.311 C 4.147 17.568,4.327 17.774,4.583 17.901 L 4.750 17.983 6.000 17.983 C 7.232 17.983,7.252 17.982,7.403 17.908 C 7.695 17.764,7.938 17.443,7.987 17.136 L 8.009 17.000 10.000 17.000 L 11.991 17.000 12.009 17.133 C 12.050 17.436,12.294 17.758,12.594 17.906 C 12.746 17.982,12.776 17.984,13.893 17.994 C 14.641 18.000,15.098 17.991,15.215 17.967 C 15.569 17.894,15.898 17.559,15.972 17.198 L 16.012 17.007 16.631 16.994 C 17.350 16.978,17.402 16.962,17.690 16.658 C 18.004 16.325,17.982 16.523,17.993 13.967 C 17.999 12.682,17.989 11.604,17.971 11.454 C 17.905 10.910,17.558 10.431,17.047 10.179 L 16.787 10.050 15.768 10.028 C 14.584 10.003,5.895 10.006,4.298 10.032 M16.000 13.000 L 16.000 14.000 10.000 14.000 L 4.000 14.000 4.000 13.000 L 4.000 12.000 10.000 12.000 L 16.000 12.000 16.000 13.000 " fill="#1A1C1F" stroke="none" fill-rule="evenodd"></path></svg>