<svg width="24" height="24" viewBox="0 0 24 24" fill="none" xmlns="http://www.w3.org/2000/svg"><path d="M4.808 2.037 C 4.616 2.086,4.532 2.181,4.358 2.539 C 4.016 3.247,2.000 8.559,2.000 8.754 C 2.000 8.825,2.040 8.922,2.097 8.988 C 2.189 9.096,2.207 9.100,2.567 9.100 C 2.819 9.100,2.978 9.081,3.058 9.040 C 3.251 8.942,3.409 8.688,3.597 8.175 L 3.774 7.691 4.217 7.666 C 4.461 7.652,5.066 7.640,5.563 7.640 L 6.466 7.640 6.655 8.115 C 6.869 8.653,7.025 8.922,7.186 9.027 C 7.273 9.085,7.377 9.100,7.685 9.100 C 8.017 9.100,8.090 9.088,8.187 9.016 C 8.405 8.854,8.393 8.804,7.586 6.660 C 5.910 2.209,5.929 2.251,5.631 2.096 C 5.499 2.027,4.990 1.990,4.808 2.037 M10.245 2.121 C 10.152 2.188,10.056 2.292,10.029 2.351 C 9.994 2.432,9.981 3.246,9.981 5.560 C 9.980 9.008,9.964 8.803,10.249 9.007 C 10.377 9.098,10.402 9.100,11.500 9.113 C 12.135 9.121,12.803 9.108,13.043 9.083 C 13.810 9.003,14.331 8.810,14.709 8.465 C 15.120 8.090,15.258 7.731,15.257 7.040 C 15.256 6.658,15.241 6.541,15.167 6.354 C 14.979 5.880,14.598 5.543,14.064 5.380 L 13.782 5.294 14.024 5.165 C 14.526 4.897,14.720 4.654,14.824 4.154 C 14.896 3.814,14.877 3.547,14.753 3.148 C 14.616 2.706,14.234 2.347,13.697 2.156 C 13.502 2.087,13.313 2.066,12.640 2.038 C 12.189 2.020,11.503 2.004,11.116 2.002 L 10.412 2.000 10.245 2.121 M19.240 2.134 C 18.424 2.351,17.748 2.879,17.390 3.579 C 17.077 4.193,16.913 5.246,16.999 6.090 C 17.166 7.728,17.860 8.646,19.204 9.006 C 19.488 9.083,19.639 9.096,20.180 9.095 C 21.174 9.093,21.765 8.921,21.936 8.583 C 22.094 8.269,22.006 7.862,21.756 7.759 C 21.647 7.713,21.554 7.718,21.085 7.794 C 20.461 7.895,20.093 7.903,19.714 7.822 C 19.361 7.747,19.175 7.647,18.957 7.414 C 18.571 7.001,18.431 6.513,18.432 5.580 C 18.433 4.881,18.501 4.469,18.681 4.086 C 19.031 3.337,19.854 3.094,21.191 3.343 C 21.745 3.447,21.918 3.342,21.951 2.881 C 21.969 2.627,21.961 2.585,21.866 2.441 C 21.808 2.354,21.703 2.253,21.633 2.217 C 21.413 2.103,20.931 2.043,20.240 2.043 C 19.683 2.044,19.527 2.058,19.240 2.134 M13.082 3.248 C 13.398 3.384,13.563 3.739,13.486 4.116 C 13.434 4.370,13.369 4.478,13.187 4.617 C 13.003 4.758,12.733 4.800,12.015 4.800 L 11.400 4.800 11.400 3.975 L 11.400 3.150 12.170 3.169 C 12.735 3.182,12.978 3.204,13.082 3.248 M5.699 5.248 C 5.946 5.937,6.141 6.514,6.132 6.530 C 6.110 6.569,4.394 6.568,4.336 6.529 C 4.307 6.510,4.389 6.231,4.587 5.680 C 5.111 4.216,5.210 3.956,5.230 3.976 C 5.241 3.987,5.452 4.560,5.699 5.248 M13.302 6.058 C 13.486 6.135,13.660 6.290,13.752 6.460 C 13.857 6.652,13.843 7.252,13.729 7.468 C 13.524 7.856,13.219 7.957,12.150 7.989 L 11.400 8.011 11.400 6.980 L 11.400 5.948 12.272 5.970 C 12.954 5.987,13.178 6.006,13.302 6.058 M5.020 13.037 C 3.860 13.066,3.856 13.067,3.378 13.313 C 2.732 13.646,2.249 14.247,2.051 14.963 C 1.987 15.196,1.980 15.449,1.980 17.720 L 1.980 20.220 2.090 20.408 C 2.197 20.589,2.435 20.813,2.640 20.923 C 2.707 20.960,2.940 20.983,3.345 20.993 L 3.949 21.008 4.015 21.246 C 4.065 21.425,4.125 21.527,4.256 21.658 C 4.596 21.998,4.473 21.980,6.480 21.980 L 8.260 21.980 8.446 21.871 C 8.739 21.698,8.960 21.364,8.960 21.094 L 8.960 21.000 11.953 21.000 L 14.947 21.000 15.014 21.242 C 15.065 21.425,15.124 21.526,15.256 21.658 C 15.596 21.998,15.473 21.980,17.480 21.980 L 19.260 21.980 19.446 21.871 C 19.737 21.699,19.960 21.364,19.960 21.098 C 19.960 21.008,19.966 21.007,20.590 20.993 C 21.305 20.977,21.355 20.961,21.679 20.648 C 21.809 20.521,21.890 20.401,21.926 20.280 C 22.002 20.023,22.004 15.509,21.928 15.100 C 21.865 14.763,21.624 14.256,21.391 13.974 C 21.072 13.589,20.636 13.291,20.142 13.121 C 19.930 13.048,19.664 13.044,13.011 13.027 C 9.210 13.018,5.614 13.022,5.020 13.037 M18.914 15.026 L 19.641 15.053 19.786 15.178 L 19.931 15.303 19.951 16.652 L 19.971 18.000 11.986 18.000 L 4.000 18.000 4.000 16.810 C 4.001 16.155,4.012 15.550,4.026 15.465 C 4.043 15.366,4.100 15.263,4.186 15.177 C 4.314 15.048,4.334 15.043,4.670 15.030 C 5.357 15.004,18.201 15.001,18.914 15.026 " fill="#1A1C1F" stroke="none" fill-rule="evenodd"></path></svg>