<svg width="32" height="32" viewBox="0 0 32 32" fill="none" xmlns="http://www.w3.org/2000/svg"><path d="M5.840 2.603 C 5.446 2.791,5.561 2.538,3.893 6.880 C 3.313 8.391,2.640 10.154,2.399 10.799 L 1.959 11.972 2.060 12.159 C 2.190 12.403,2.459 12.495,2.960 12.469 C 3.411 12.445,3.694 12.319,3.867 12.064 C 3.937 11.961,4.120 11.544,4.274 11.138 L 4.553 10.400 5.756 10.400 C 6.418 10.400,7.263 10.416,7.633 10.435 L 8.305 10.469 8.581 11.141 C 9.097 12.401,9.156 12.453,10.045 12.453 C 10.612 12.453,10.625 12.451,10.751 12.304 C 10.822 12.221,10.880 12.089,10.880 12.009 C 10.880 11.804,9.509 8.050,8.082 4.347 C 7.428 2.649,7.363 2.574,6.515 2.527 C 6.135 2.506,6.016 2.519,5.840 2.603 M13.813 2.556 C 13.559 2.606,13.367 2.742,13.258 2.948 C 13.174 3.107,13.169 3.461,13.184 7.556 C 13.200 11.946,13.201 11.994,13.310 12.143 C 13.371 12.226,13.503 12.337,13.604 12.390 C 13.774 12.481,13.932 12.486,15.893 12.462 C 17.854 12.439,18.028 12.430,18.398 12.322 C 19.923 11.879,20.639 10.920,20.574 9.403 C 20.554 8.928,20.530 8.817,20.384 8.523 C 20.293 8.338,20.140 8.093,20.045 7.979 C 19.806 7.691,19.301 7.378,18.862 7.244 L 18.494 7.132 18.852 6.943 C 19.312 6.701,19.623 6.395,19.816 5.997 C 19.961 5.700,19.970 5.640,19.967 5.040 C 19.965 4.527,19.942 4.339,19.852 4.094 C 19.609 3.433,19.222 3.058,18.480 2.768 C 18.068 2.606,18.014 2.599,16.907 2.556 C 15.559 2.504,14.078 2.504,13.813 2.556 M26.099 2.663 C 24.512 3.092,23.542 4.068,23.124 5.655 C 22.614 7.589,22.911 9.772,23.853 11.013 C 24.320 11.629,25.046 12.084,25.947 12.328 C 26.549 12.490,28.147 12.504,28.747 12.352 C 29.657 12.120,29.920 11.879,29.920 11.275 C 29.920 10.792,29.649 10.479,29.280 10.537 C 29.207 10.549,28.850 10.607,28.487 10.666 C 27.713 10.792,27.255 10.800,26.766 10.697 C 25.846 10.501,25.271 9.919,25.039 8.947 C 24.844 8.128,24.890 6.453,25.127 5.733 C 25.341 5.084,25.790 4.623,26.427 4.399 C 26.819 4.261,27.793 4.233,28.473 4.340 C 29.044 4.431,29.426 4.449,29.571 4.393 C 29.619 4.375,29.705 4.268,29.762 4.156 C 29.904 3.877,29.898 3.497,29.747 3.201 C 29.492 2.703,29.176 2.610,27.627 2.581 C 26.616 2.562,26.435 2.572,26.099 2.663 M17.184 4.205 C 17.538 4.237,17.618 4.264,17.757 4.397 C 17.994 4.624,18.101 4.948,18.066 5.331 C 18.025 5.780,17.853 6.067,17.522 6.237 C 17.268 6.367,17.210 6.374,16.202 6.391 L 15.147 6.410 15.147 5.285 L 15.147 4.160 15.960 4.164 C 16.407 4.166,16.958 4.184,17.184 4.205 M6.960 6.507 C 7.547 8.135,7.781 8.841,7.746 8.876 C 7.708 8.914,5.173 8.917,5.173 8.879 C 5.173 8.854,6.273 5.748,6.403 5.406 C 6.434 5.324,6.476 5.283,6.502 5.311 C 6.526 5.338,6.733 5.876,6.960 6.507 M17.440 8.109 C 17.913 8.184,18.224 8.382,18.397 8.719 C 18.513 8.945,18.533 9.051,18.530 9.439 C 18.526 9.821,18.503 9.937,18.384 10.169 C 18.098 10.727,17.804 10.824,16.280 10.865 L 15.147 10.896 15.147 9.475 L 15.147 8.053 16.120 8.054 C 16.655 8.054,17.249 8.079,17.440 8.109 M8.053 17.547 C 5.240 17.568,4.418 17.589,4.293 17.644 C 3.292 18.083,2.706 18.599,2.317 19.387 C 2.012 20.003,2.005 20.096,2.003 23.520 L 2.000 26.640 2.122 26.887 C 2.259 27.166,2.555 27.399,2.863 27.470 C 2.975 27.496,3.637 27.518,4.333 27.519 C 5.030 27.519,5.600 27.538,5.600 27.560 C 5.600 27.582,5.513 27.669,5.408 27.753 C 5.183 27.932,5.015 28.268,5.017 28.533 C 5.018 28.771,5.212 29.163,5.394 29.296 C 5.472 29.353,5.640 29.419,5.768 29.444 C 5.895 29.468,7.180 29.490,8.623 29.491 L 11.245 29.493 11.475 29.318 C 11.602 29.221,11.760 29.062,11.826 28.963 C 12.058 28.619,11.934 28.005,11.575 27.724 L 11.404 27.590 11.817 27.555 C 12.044 27.536,14.138 27.520,16.471 27.520 L 20.712 27.520 20.466 27.683 C 19.873 28.076,19.853 28.879,20.425 29.332 L 20.629 29.493 23.314 29.493 C 25.109 29.493,26.070 29.473,26.212 29.434 C 26.495 29.355,26.800 29.043,26.879 28.752 C 26.992 28.331,26.832 27.886,26.494 27.680 C 26.398 27.621,26.332 27.572,26.347 27.570 C 26.361 27.568,27.059 27.548,27.898 27.525 C 29.238 27.489,29.447 27.472,29.631 27.382 C 30.003 27.200,29.997 27.272,29.998 23.600 C 29.999 20.038,29.999 20.044,29.681 19.388 C 29.256 18.511,28.301 17.742,27.467 17.603 C 27.128 17.547,13.413 17.507,8.053 17.547 M27.400 19.694 C 27.663 19.865,27.870 20.167,27.945 20.491 C 27.974 20.617,27.998 21.350,27.999 22.120 L 28.000 23.520 15.992 23.520 L 3.984 23.520 4.014 21.946 L 4.044 20.372 4.183 20.135 C 4.260 20.004,4.410 19.830,4.517 19.748 C 4.709 19.602,4.724 19.600,5.676 19.569 C 6.206 19.553,11.260 19.541,16.907 19.543 L 27.173 19.547 27.400 19.694 " fill="#1A1C1F" stroke="none" fill-rule="evenodd"></path></svg>