<svg width="20" height="20" viewBox="0 0 20 20" fill="none" xmlns="http://www.w3.org/2000/svg"><path d="M4.500 4.032 C 3.486 4.051,3.483 4.051,3.267 4.143 C 2.866 4.312,2.411 4.719,2.233 5.067 C 2.199 5.133,2.137 5.292,2.094 5.419 L 2.017 5.650 2.017 10.017 L 2.017 14.383 2.105 14.624 C 2.230 14.966,2.345 15.147,2.599 15.401 C 2.853 15.655,3.034 15.770,3.376 15.895 L 3.617 15.983 10.000 15.983 L 16.383 15.983 16.624 15.895 C 16.966 15.770,17.147 15.655,17.401 15.401 C 17.655 15.147,17.770 14.966,17.895 14.624 L 17.983 14.383 17.983 10.000 L 17.983 5.617 17.895 5.376 C 17.847 5.243,17.766 5.065,17.716 4.979 C 17.591 4.767,17.257 4.439,17.016 4.294 C 16.632 4.062,16.597 4.056,15.417 4.031 C 14.177 4.003,5.996 4.005,4.500 4.032 M7.931 5.418 C 8.436 5.537,8.972 5.948,9.193 6.386 C 9.360 6.718,9.412 6.944,9.411 7.333 C 9.411 7.634,9.396 7.724,9.312 7.968 C 8.961 8.976,7.964 9.526,6.953 9.267 C 6.588 9.174,6.321 9.021,6.049 8.750 C 5.647 8.348,5.466 7.909,5.467 7.335 C 5.468 6.856,5.570 6.541,5.853 6.143 C 6.088 5.814,6.600 5.476,6.975 5.402 C 7.209 5.356,7.702 5.364,7.931 5.418 M13.045 6.886 C 13.152 6.912,13.370 7.001,13.528 7.083 C 14.034 7.346,14.405 7.720,14.651 8.217 C 14.873 8.663,14.909 8.850,14.893 9.448 C 14.881 9.905,14.871 9.971,14.785 10.183 C 14.465 10.974,13.912 11.518,13.174 11.769 C 12.868 11.873,12.824 11.880,12.383 11.880 C 11.962 11.880,11.889 11.871,11.633 11.787 C 10.702 11.482,10.062 10.764,9.883 9.824 C 9.725 8.987,9.964 8.184,10.550 7.585 C 10.943 7.184,11.466 6.897,11.918 6.837 C 12.209 6.798,12.789 6.823,13.045 6.886 M10.015 12.018 C 10.347 12.071,10.763 12.408,10.927 12.758 C 11.007 12.930,11.017 12.988,11.017 13.317 C 11.017 13.655,11.009 13.699,10.919 13.883 C 10.666 14.400,10.030 14.742,9.514 14.639 C 9.051 14.546,8.667 14.264,8.482 13.883 C 8.394 13.702,8.385 13.651,8.384 13.332 C 8.383 12.991,8.387 12.972,8.509 12.726 C 8.707 12.325,9.059 12.066,9.492 12.003 C 9.682 11.975,9.762 11.977,10.015 12.018 " fill="#1A1C1F" stroke="none" fill-rule="evenodd"></path></svg>