<svg width="20" height="20" viewBox="0 0 20 20" fill="none" xmlns="http://www.w3.org/2000/svg"><path d="M6.415 2.031 L 5.846 2.050 5.590 2.177 C 5.446 2.248,5.245 2.385,5.133 2.489 C 4.902 2.703,4.635 3.086,4.540 3.340 C 4.466 3.538,4.248 4.453,3.912 5.975 L 3.686 7.000 2.843 7.000 L 2.000 7.000 2.000 8.000 L 2.000 9.000 2.550 9.000 C 2.876 9.000,3.100 9.013,3.100 9.032 C 3.100 9.049,3.153 9.525,3.218 10.090 C 3.427 11.911,3.481 12.129,3.846 12.625 L 4.000 12.834 4.000 13.933 L 4.000 15.033 5.212 15.033 L 6.423 15.033 6.445 14.625 C 6.479 13.975,6.641 13.353,6.926 12.783 C 7.385 11.863,8.128 11.121,9.050 10.659 C 9.694 10.336,10.211 10.210,11.025 10.178 L 11.550 10.157 13.150 8.569 C 14.030 7.695,14.833 6.915,14.933 6.835 C 15.232 6.599,15.741 6.402,16.058 6.400 C 16.118 6.400,16.167 6.387,16.167 6.371 C 16.167 6.238,15.735 4.324,15.567 3.714 C 15.370 2.998,15.211 2.732,14.790 2.413 C 14.412 2.127,14.240 2.067,13.695 2.032 C 13.195 2.000,7.400 1.999,6.415 2.031 M13.947 3.736 C 13.958 3.747,14.102 4.459,14.268 5.319 C 14.433 6.180,14.577 6.910,14.587 6.942 C 14.604 6.997,14.370 7.000,9.999 7.000 L 5.393 7.000 5.411 6.925 C 5.421 6.884,5.558 6.183,5.715 5.367 C 5.873 4.551,6.008 3.851,6.017 3.810 C 6.029 3.758,6.064 3.733,6.142 3.723 C 6.304 3.701,13.925 3.714,13.947 3.736 M14.025 9.938 L 12.110 11.876 11.880 11.830 C 11.509 11.755,10.679 11.772,10.350 11.862 C 9.320 12.142,8.538 12.913,8.133 14.050 L 8.026 14.350 8.046 14.910 C 8.064 15.414,8.076 15.501,8.165 15.768 C 8.349 16.317,8.596 16.722,8.975 17.099 C 9.375 17.497,9.743 17.713,10.317 17.887 C 10.590 17.970,10.664 17.979,11.150 17.978 C 11.775 17.978,12.028 17.924,12.517 17.686 C 13.824 17.048,14.533 15.592,14.214 14.200 C 14.187 14.081,14.134 13.902,14.097 13.802 L 14.030 13.621 14.480 13.169 C 14.727 12.920,14.946 12.674,14.965 12.623 C 14.984 12.571,15.000 12.359,15.000 12.152 L 15.000 11.774 15.592 11.759 C 16.526 11.734,16.512 11.748,16.528 10.808 L 16.538 10.167 17.163 10.167 L 17.787 10.167 17.893 10.057 L 18.000 9.947 18.000 9.080 L 18.000 8.213 17.890 8.107 L 17.780 8.000 16.860 8.000 L 15.939 8.000 14.025 9.938 M5.367 9.454 C 6.029 9.595,6.511 9.732,6.637 9.815 C 6.704 9.859,6.792 9.949,6.832 10.015 C 6.924 10.164,6.958 10.475,6.901 10.648 C 6.824 10.879,6.573 11.102,6.338 11.146 C 6.186 11.174,5.257 10.984,4.541 10.779 C 4.203 10.682,4.025 10.440,4.027 10.081 C 4.029 9.753,4.206 9.484,4.488 9.381 C 4.643 9.324,4.831 9.339,5.367 9.454 M10.880 14.135 C 11.290 14.194,11.599 14.429,11.787 14.827 C 11.866 14.995,11.873 15.039,11.860 15.331 C 11.843 15.709,11.781 15.855,11.530 16.107 C 11.286 16.350,11.048 16.450,10.717 16.449 C 10.373 16.447,10.105 16.333,9.882 16.095 C 9.646 15.843,9.550 15.608,9.550 15.283 C 9.550 15.064,9.566 14.983,9.639 14.826 C 9.808 14.466,10.148 14.186,10.483 14.130 C 10.557 14.118,10.624 14.107,10.633 14.105 C 10.642 14.103,10.753 14.116,10.880 14.135 " fill="#1A1C1F" stroke="none" fill-rule="evenodd"></path></svg>