<svg width="20" height="20" viewBox="0 0 20 20" fill="none" xmlns="http://www.w3.org/2000/svg"><path d="M13.517 3.431 C 13.095 3.517,12.704 3.612,12.648 3.642 C 12.474 3.733,12.334 3.904,12.280 4.092 C 12.218 4.303,12.218 4.306,12.469 5.115 C 12.577 5.462,12.658 5.753,12.650 5.761 C 12.630 5.781,8.486 7.026,8.473 7.016 C 8.468 7.011,8.375 6.793,8.268 6.530 L 8.072 6.052 8.221 6.014 C 8.720 5.887,8.905 5.176,8.540 4.787 C 8.338 4.573,8.307 4.568,6.990 4.567 C 5.881 4.567,5.789 4.571,5.674 4.630 C 5.216 4.866,5.114 5.436,5.462 5.811 C 5.620 5.982,5.785 6.042,6.142 6.060 C 6.320 6.068,6.467 6.078,6.467 6.082 C 6.467 6.085,6.653 6.542,6.881 7.098 L 7.295 8.107 6.790 8.738 C 6.513 9.085,6.270 9.361,6.251 9.353 C 5.719 9.112,5.441 9.056,4.883 9.076 C 4.279 9.099,3.872 9.236,3.383 9.583 C 2.332 10.330,1.959 11.785,2.518 12.964 C 3.161 14.320,4.741 14.912,6.111 14.311 C 7.520 13.693,8.152 11.960,7.467 10.597 L 7.373 10.410 7.657 10.053 L 7.942 9.697 8.319 10.618 C 8.527 11.125,8.736 11.591,8.785 11.655 C 8.967 11.894,9.309 12.067,9.600 12.067 C 9.667 12.067,9.800 12.043,9.896 12.015 C 10.126 11.947,10.218 11.857,12.017 9.956 C 12.823 9.103,13.487 8.410,13.493 8.415 C 13.510 8.432,13.800 9.381,13.800 9.420 C 13.800 9.441,13.698 9.534,13.572 9.627 C 13.105 9.974,12.751 10.511,12.578 11.133 C 12.496 11.432,12.496 12.161,12.579 12.467 C 13.036 14.144,14.815 14.999,16.390 14.298 C 17.116 13.974,17.712 13.260,17.915 12.467 C 18.249 11.166,17.533 9.762,16.275 9.251 C 16.044 9.157,15.625 9.067,15.420 9.067 L 15.271 9.067 15.186 8.792 C 15.140 8.640,14.847 7.700,14.536 6.701 C 14.224 5.703,13.974 4.882,13.979 4.877 C 13.984 4.872,14.137 4.837,14.319 4.800 C 14.765 4.709,14.853 4.677,14.988 4.558 C 15.156 4.410,15.240 4.225,15.239 4.003 C 15.238 3.692,15.107 3.473,14.839 3.336 C 14.637 3.233,14.394 3.251,13.517 3.431 M11.826 7.974 C 11.560 8.254,10.995 8.851,10.569 9.300 C 10.144 9.749,9.784 10.121,9.770 10.126 C 9.745 10.135,9.067 8.513,9.067 8.445 C 9.067 8.415,12.268 7.434,12.296 7.455 C 12.304 7.461,12.092 7.694,11.826 7.974 M5.536 10.675 C 5.770 10.789,6.011 11.030,6.126 11.266 C 6.207 11.431,6.217 11.487,6.217 11.800 C 6.217 12.216,6.161 12.368,5.912 12.635 C 5.704 12.858,5.528 12.958,5.237 13.018 C 5.028 13.062,4.972 13.062,4.763 13.018 C 4.633 12.991,4.463 12.932,4.387 12.887 C 4.197 12.776,3.943 12.498,3.858 12.307 C 3.763 12.093,3.741 11.673,3.812 11.427 C 3.912 11.083,4.231 10.750,4.578 10.626 C 4.840 10.533,5.293 10.556,5.536 10.675 M15.827 10.699 C 16.423 11.018,16.660 11.744,16.367 12.350 C 16.139 12.821,15.581 13.113,15.067 13.031 C 14.806 12.989,14.494 12.825,14.337 12.646 C 13.729 11.956,13.992 10.935,14.861 10.611 C 14.942 10.581,15.092 10.569,15.300 10.576 C 15.586 10.585,15.637 10.597,15.827 10.699 M1.683 15.322 C 1.112 15.623,1.112 16.370,1.683 16.678 L 1.817 16.750 10.000 16.750 L 18.183 16.750 18.317 16.678 C 18.590 16.531,18.744 16.286,18.744 16.000 C 18.744 15.717,18.586 15.464,18.326 15.330 C 18.206 15.268,18.007 15.267,9.993 15.268 C 2.580 15.269,1.774 15.274,1.683 15.322 " fill="#1A1C1F" stroke="none" fill-rule="evenodd"></path></svg>