<svg width="24" height="24" viewBox="0 0 24 24" fill="none" xmlns="http://www.w3.org/2000/svg"><path d="M15.840 3.221 C 15.323 3.294,14.854 3.371,14.798 3.393 C 14.509 3.504,14.283 3.835,14.281 4.148 C 14.280 4.245,14.380 4.631,14.514 5.055 L 14.748 5.793 12.530 6.600 C 11.309 7.044,10.296 7.392,10.278 7.374 C 10.240 7.335,9.600 5.850,9.600 5.800 C 9.600 5.781,9.653 5.755,9.718 5.741 C 9.905 5.699,10.142 5.502,10.235 5.311 C 10.444 4.879,10.257 4.358,9.820 4.156 C 9.674 4.088,9.537 4.082,8.238 4.081 L 6.816 4.080 6.606 4.184 C 6.051 4.461,6.001 5.257,6.516 5.620 C 6.679 5.735,6.708 5.741,7.206 5.760 L 7.726 5.780 8.283 7.079 C 8.589 7.794,8.840 8.402,8.840 8.432 C 8.840 8.479,8.180 9.291,7.869 9.626 L 7.752 9.752 7.495 9.635 C 7.042 9.429,6.608 9.345,6.000 9.344 C 5.569 9.344,5.388 9.362,5.100 9.435 C 4.667 9.544,4.028 9.845,3.694 10.096 C 2.992 10.623,2.479 11.402,2.256 12.280 C 2.143 12.724,2.152 13.697,2.272 14.140 C 2.454 14.810,2.939 15.608,3.421 16.033 C 5.259 17.650,8.057 17.222,9.303 15.134 C 10.028 13.919,10.019 12.385,9.278 11.170 L 9.077 10.840 9.346 10.519 C 9.522 10.308,9.624 10.215,9.641 10.249 C 9.655 10.277,9.881 10.801,10.143 11.414 C 10.672 12.650,10.770 12.804,11.128 12.962 C 11.433 13.097,11.753 13.093,12.044 12.950 C 12.244 12.852,12.455 12.632,13.996 10.920 C 14.947 9.864,15.737 9.000,15.752 9.001 C 15.774 9.001,15.939 9.479,16.029 9.804 C 16.041 9.848,15.989 9.902,15.871 9.971 C 15.462 10.211,14.902 10.819,14.623 11.327 C 14.285 11.941,14.141 12.581,14.170 13.337 C 14.203 14.158,14.434 14.821,14.912 15.466 C 15.937 16.845,17.744 17.376,19.356 16.773 C 20.502 16.344,21.410 15.335,21.723 14.140 C 21.828 13.740,21.866 13.007,21.803 12.603 C 21.608 11.349,20.809 10.273,19.666 9.721 C 19.152 9.474,18.680 9.357,18.105 9.336 L 17.661 9.319 16.954 7.110 C 16.566 5.894,16.251 4.897,16.254 4.894 C 16.257 4.890,16.475 4.857,16.737 4.821 C 17.420 4.727,17.612 4.629,17.764 4.300 C 17.965 3.866,17.754 3.327,17.311 3.142 C 17.110 3.058,16.933 3.067,15.840 3.221 M14.595 7.706 C 14.411 7.929,11.793 10.822,11.769 10.829 C 11.740 10.838,10.943 9.002,10.967 8.981 C 10.980 8.969,14.605 7.646,14.635 7.642 C 14.643 7.641,14.625 7.670,14.595 7.706 M6.559 11.103 C 6.582 11.126,6.348 11.434,5.956 11.900 C 5.190 12.809,5.146 12.884,5.167 13.222 C 5.197 13.685,5.541 14.014,5.995 14.013 C 6.374 14.012,6.472 13.936,7.223 13.042 C 7.594 12.601,7.910 12.240,7.924 12.240 C 7.963 12.240,8.113 12.753,8.140 12.980 C 8.181 13.324,8.098 13.744,7.915 14.115 C 7.128 15.719,4.872 15.719,4.084 14.115 C 3.487 12.900,4.133 11.468,5.444 11.101 C 5.680 11.035,6.492 11.036,6.559 11.103 M18.538 11.101 C 19.859 11.445,20.521 12.910,19.909 14.133 C 19.544 14.862,18.818 15.318,18.018 15.320 C 16.950 15.321,16.038 14.541,15.885 13.495 C 15.787 12.825,16.020 12.101,16.473 11.667 L 16.592 11.553 16.633 11.687 C 17.040 12.988,17.254 13.598,17.343 13.711 C 17.685 14.142,18.372 14.111,18.695 13.651 C 18.909 13.346,18.895 13.186,18.560 12.132 C 18.400 11.630,18.254 11.180,18.236 11.130 C 18.195 11.021,18.220 11.018,18.538 11.101 M1.735 18.964 C 1.501 19.031,1.229 19.249,1.126 19.451 C 0.864 19.964,1.047 20.543,1.555 20.808 L 1.769 20.920 12.000 20.920 L 22.231 20.920 22.445 20.808 C 23.260 20.382,23.135 19.208,22.247 18.961 C 22.058 18.909,1.916 18.911,1.735 18.964 " fill="#1A1C1F" stroke="none" fill-rule="evenodd"></path></svg>