<svg width="32" height="32" viewBox="0 0 32 32" fill="none" xmlns="http://www.w3.org/2000/svg"><path d="M21.733 5.447 C 21.103 5.594,20.555 5.751,20.480 5.806 C 20.255 5.971,20.107 6.236,20.107 6.475 C 20.107 6.595,20.238 7.088,20.397 7.572 C 20.557 8.055,20.681 8.457,20.672 8.465 C 20.661 8.477,17.406 9.223,13.647 10.075 L 13.455 10.119 13.130 9.126 C 12.952 8.580,12.790 8.067,12.771 7.987 L 12.735 7.840 13.467 7.840 C 14.109 7.840,14.223 7.826,14.393 7.730 C 14.678 7.567,14.792 7.383,14.815 7.042 C 14.840 6.695,14.709 6.451,14.400 6.270 C 14.222 6.165,14.120 6.159,12.121 6.144 C 9.945 6.128,9.736 6.144,9.473 6.352 C 9.050 6.684,9.071 7.379,9.513 7.694 C 9.658 7.798,9.761 7.816,10.304 7.831 L 10.927 7.849 11.416 9.350 C 11.827 10.615,11.894 10.867,11.840 10.954 C 11.804 11.010,11.429 11.472,11.005 11.979 L 10.235 12.901 9.859 12.713 C 9.336 12.450,8.996 12.342,8.366 12.236 C 6.684 11.955,4.936 12.513,3.733 13.715 C 1.993 15.456,1.654 18.096,2.900 20.213 C 3.856 21.838,5.588 22.829,7.473 22.831 C 8.890 22.832,10.120 22.355,11.144 21.407 C 13.112 19.585,13.405 16.511,11.815 14.355 C 11.678 14.169,11.577 13.989,11.592 13.955 C 11.655 13.802,12.499 12.851,12.536 12.890 C 12.559 12.914,12.943 14.061,13.390 15.440 C 13.838 16.819,14.247 18.010,14.301 18.087 C 14.476 18.340,14.719 18.411,15.379 18.404 C 16.047 18.398,16.370 18.317,16.625 18.092 C 16.717 18.012,17.848 16.367,19.139 14.437 L 21.486 10.926 21.775 11.823 C 22.024 12.593,22.054 12.728,21.985 12.773 C 21.941 12.803,21.727 12.941,21.509 13.082 C 19.999 14.051,19.053 15.949,19.164 17.783 C 19.300 20.020,20.745 21.898,22.853 22.577 C 23.452 22.770,23.876 22.835,24.533 22.833 C 27.340 22.825,29.641 20.647,29.841 17.808 C 29.968 16.004,29.037 14.114,27.511 13.077 C 27.071 12.778,26.401 12.474,25.873 12.335 C 25.435 12.219,25.236 12.198,24.520 12.193 L 23.680 12.187 23.496 11.627 C 22.882 9.755,22.080 7.239,22.080 7.182 C 22.080 7.140,22.353 7.051,22.821 6.942 C 23.379 6.812,23.597 6.737,23.704 6.638 C 24.292 6.093,23.914 5.161,23.113 5.179 C 22.970 5.183,22.349 5.303,21.733 5.447 M19.650 10.600 C 18.841 11.844,15.611 16.610,15.584 16.601 C 15.563 16.593,15.194 15.501,14.764 14.174 C 14.240 12.558,14.002 11.752,14.044 11.737 C 14.165 11.692,19.548 10.465,19.646 10.459 C 19.742 10.454,19.742 10.458,19.650 10.600 M8.300 13.945 C 8.709 14.042,9.067 14.183,9.067 14.247 C 9.067 14.275,8.586 14.873,7.998 15.576 C 6.616 17.230,6.652 17.176,6.679 17.560 C 6.696 17.809,6.730 17.898,6.857 18.033 C 7.032 18.220,7.289 18.347,7.491 18.347 C 7.871 18.347,8.004 18.226,9.181 16.814 C 9.808 16.064,10.338 15.423,10.361 15.391 C 10.420 15.308,10.598 15.535,10.786 15.932 C 11.444 17.327,11.163 18.969,10.081 20.051 C 9.859 20.272,9.543 20.533,9.377 20.630 C 8.698 21.029,7.786 21.223,7.062 21.123 C 4.839 20.814,3.437 18.737,3.982 16.560 C 4.214 15.637,4.993 14.684,5.872 14.250 C 6.125 14.125,6.485 13.990,6.672 13.949 C 7.123 13.851,7.894 13.849,8.300 13.945 M25.573 14.028 C 26.524 14.321,27.284 14.960,27.734 15.845 C 28.459 17.272,28.193 18.955,27.064 20.085 C 26.292 20.857,25.115 21.267,24.085 21.124 C 23.195 21.000,22.546 20.677,21.911 20.043 C 21.239 19.371,20.853 18.438,20.853 17.486 C 20.853 16.706,21.186 15.796,21.704 15.163 C 22.022 14.773,22.562 14.361,22.617 14.465 C 22.637 14.503,22.887 15.265,23.173 16.160 C 23.459 17.055,23.739 17.863,23.795 17.956 C 23.914 18.154,24.277 18.347,24.530 18.347 C 24.936 18.347,25.333 17.936,25.333 17.516 C 25.333 17.349,24.998 16.242,24.318 14.166 L 24.215 13.851 24.708 13.882 C 24.978 13.899,25.368 13.964,25.573 14.028 M2.587 25.273 C 2.367 25.408,2.265 25.538,2.188 25.778 C 2.058 26.181,2.343 26.696,2.761 26.813 C 2.951 26.866,29.049 26.866,29.239 26.813 C 29.319 26.790,29.466 26.700,29.565 26.613 C 30.005 26.228,29.907 25.525,29.376 25.248 C 29.253 25.184,27.259 25.173,15.989 25.174 C 3.190 25.174,2.741 25.177,2.587 25.273 " fill="#1A1C1F" stroke="none" fill-rule="evenodd"></path></svg>