<svg width="20" height="20" viewBox="0 0 20 20" fill="none" xmlns="http://www.w3.org/2000/svg"><path d="M9.603 2.053 C 9.354 2.120,9.131 2.248,8.949 2.429 C 8.802 2.575,5.427 7.570,5.084 8.150 C 4.218 9.612,3.826 11.025,3.930 12.306 C 4.054 13.828,4.574 15.067,5.519 16.093 C 6.960 17.657,9.215 18.329,11.396 17.845 C 13.764 17.320,15.501 15.522,15.966 13.114 C 16.256 11.608,16.035 10.313,15.207 8.683 C 14.865 8.010,11.367 2.752,11.071 2.467 C 10.656 2.066,10.119 1.914,9.603 2.053 M10.102 4.526 C 10.149 4.594,10.870 5.670,11.704 6.917 C 12.943 8.768,13.268 9.279,13.477 9.695 C 13.905 10.552,14.067 11.160,14.067 11.916 C 14.067 13.111,13.635 14.156,12.826 14.921 C 12.118 15.591,11.228 15.949,10.167 15.991 C 8.503 16.057,7.076 15.245,6.368 13.829 C 5.861 12.817,5.788 11.605,6.169 10.510 C 6.296 10.147,6.601 9.509,6.828 9.134 C 7.043 8.778,9.977 4.401,10.000 4.402 C 10.009 4.402,10.055 4.458,10.102 4.526 " fill="#1A1C1F" stroke="none" fill-rule="evenodd"></path></svg>