<svg width="24" height="24" viewBox="0 0 24 24" fill="none" xmlns="http://www.w3.org/2000/svg"><path d="M11.600 2.054 C 11.303 2.135,11.058 2.279,10.848 2.495 C 10.664 2.685,6.498 8.850,6.024 9.634 C 4.458 12.225,4.097 14.533,4.884 16.934 C 5.573 19.039,7.148 20.695,9.223 21.496 C 10.558 22.011,12.137 22.133,13.620 21.836 C 16.098 21.339,18.128 19.605,19.017 17.227 C 19.511 15.905,19.647 14.331,19.380 13.040 C 19.184 12.094,18.777 11.037,18.238 10.077 C 18.004 9.660,16.487 7.367,14.178 3.940 C 13.689 3.214,13.214 2.546,13.122 2.455 C 12.740 2.079,12.115 1.914,11.600 2.054 M14.087 7.390 C 15.220 9.079,16.251 10.637,16.378 10.854 C 16.869 11.691,17.260 12.655,17.428 13.440 C 17.525 13.897,17.525 14.983,17.428 15.509 C 17.214 16.674,16.700 17.667,15.903 18.460 C 15.143 19.215,14.250 19.681,13.131 19.908 C 12.592 20.017,11.360 20.006,10.812 19.888 C 9.688 19.644,8.774 19.152,8.020 18.383 C 7.292 17.640,6.775 16.616,6.572 15.509 C 6.475 14.983,6.475 13.897,6.572 13.440 C 6.746 12.626,7.188 11.561,7.705 10.716 C 8.025 10.192,11.969 4.320,12.001 4.320 C 12.015 4.320,12.953 5.702,14.087 7.390 " fill="#1A1C1F" stroke="none" fill-rule="evenodd"></path></svg>