<svg width="32" height="32" viewBox="0 0 32 32" fill="none" xmlns="http://www.w3.org/2000/svg"><path d="M15.377 2.103 C 15.074 2.198,14.841 2.350,14.581 2.623 C 14.290 2.929,7.913 12.475,7.412 13.355 C 6.522 14.920,5.956 16.439,5.672 18.027 C 5.560 18.648,5.546 20.179,5.645 20.880 C 5.863 22.429,6.363 23.898,7.073 25.081 C 9.053 28.376,12.734 30.233,16.760 29.967 C 21.762 29.637,25.572 26.092,26.327 21.067 C 26.455 20.217,26.455 18.824,26.328 18.060 C 26.049 16.383,25.375 14.666,24.277 12.835 C 23.628 11.752,23.432 11.573,22.892 11.573 C 22.337 11.573,21.878 12.082,21.932 12.640 C 21.952 12.845,22.036 13.027,22.333 13.503 C 22.871 14.367,23.177 14.926,23.465 15.570 C 24.102 16.991,24.360 17.977,24.411 19.173 C 24.556 22.600,22.839 25.656,19.964 27.089 C 19.271 27.434,18.637 27.652,17.819 27.825 C 17.210 27.954,17.039 27.967,16.000 27.967 C 14.961 27.967,14.790 27.954,14.181 27.825 C 11.921 27.346,10.170 26.181,8.966 24.355 C 8.004 22.896,7.511 21.042,7.590 19.173 C 7.640 17.990,7.913 16.927,8.502 15.623 C 8.974 14.578,9.387 13.907,11.787 10.294 C 13.064 8.372,14.502 6.188,14.984 5.440 C 15.465 4.692,15.876 4.060,15.896 4.036 C 15.917 4.012,16.707 5.140,17.653 6.542 C 18.598 7.945,19.446 9.171,19.536 9.266 C 20.002 9.757,20.758 9.670,21.100 9.087 C 21.219 8.884,21.236 8.803,21.216 8.529 C 21.193 8.212,21.178 8.186,20.055 6.517 C 17.502 2.722,17.404 2.585,17.105 2.380 C 16.952 2.275,16.722 2.153,16.593 2.108 C 16.311 2.010,15.685 2.007,15.377 2.103 M12.098 13.652 C 11.990 13.710,11.846 13.837,11.778 13.932 L 11.653 14.107 11.653 17.636 C 11.653 21.118,11.655 21.167,11.763 21.313 C 11.950 21.563,12.138 21.669,12.438 21.694 C 12.764 21.720,13.004 21.593,13.212 21.284 C 13.331 21.108,13.333 21.074,13.333 19.645 L 13.333 18.187 14.690 18.187 L 16.046 18.187 16.063 19.644 L 16.080 21.101 16.222 21.316 C 16.577 21.851,17.388 21.822,17.694 21.262 C 17.779 21.107,17.787 20.816,17.787 17.627 L 17.787 14.160 17.665 13.964 C 17.530 13.747,17.178 13.547,16.933 13.547 C 16.689 13.547,16.337 13.747,16.202 13.964 C 16.084 14.153,16.079 14.211,16.063 15.533 L 16.045 16.907 14.689 16.907 L 13.333 16.907 13.333 15.528 C 13.333 14.186,13.330 14.144,13.213 13.973 C 13.033 13.707,12.838 13.587,12.551 13.565 C 12.365 13.551,12.239 13.575,12.098 13.652 M19.245 19.487 C 18.775 19.614,18.578 19.833,18.659 20.138 C 18.681 20.219,18.763 20.334,18.841 20.392 C 18.972 20.490,19.009 20.493,19.347 20.433 C 19.948 20.325,20.152 20.490,20.078 21.025 C 20.029 21.381,19.737 21.802,19.141 22.373 C 18.865 22.637,18.598 22.913,18.547 22.987 C 18.418 23.172,18.430 23.381,18.582 23.557 L 18.711 23.707 19.795 23.723 C 20.392 23.732,20.961 23.725,21.059 23.706 C 21.454 23.633,21.640 23.143,21.370 22.889 C 21.260 22.786,21.188 22.773,20.703 22.773 C 20.404 22.773,20.160 22.759,20.160 22.741 C 20.160 22.723,20.324 22.545,20.524 22.345 C 21.026 21.843,21.239 21.431,21.269 20.901 C 21.300 20.367,21.190 20.022,20.907 19.766 C 20.549 19.443,19.847 19.325,19.245 19.487 " fill="#1A1C1F" stroke="none" fill-rule="evenodd"></path></svg>