<svg width="24" height="24" viewBox="0 0 24 24" fill="none" xmlns="http://www.w3.org/2000/svg"><path d="M16.910 5.057 C 16.546 5.187,16.318 5.505,16.287 5.925 C 16.258 6.325,16.299 6.387,17.133 7.230 L 17.896 8.000 15.678 8.001 C 13.431 8.001,12.665 8.032,12.377 8.134 C 11.370 8.489,10.673 9.206,10.347 10.220 L 10.244 10.540 10.232 13.420 L 10.220 16.300 10.110 16.487 C 9.981 16.707,9.776 16.886,9.568 16.961 C 9.451 17.004,8.789 17.020,6.420 17.038 C 3.652 17.058,3.410 17.065,3.291 17.131 C 2.865 17.363,2.666 17.857,2.807 18.328 C 2.871 18.540,3.119 18.813,3.350 18.925 L 3.540 19.017 5.880 19.032 C 7.167 19.040,8.608 19.029,9.081 19.008 C 9.900 18.970,9.958 18.962,10.261 18.845 C 11.196 18.483,11.975 17.615,12.163 16.726 C 12.185 16.624,12.218 15.240,12.237 13.651 C 12.271 10.835,12.274 10.758,12.356 10.589 C 12.459 10.375,12.600 10.238,12.856 10.103 L 13.052 10.000 15.453 10.000 L 17.853 10.000 17.195 10.670 C 16.344 11.536,16.316 11.574,16.290 11.894 C 16.256 12.318,16.404 12.623,16.750 12.843 C 16.977 12.986,17.225 13.025,17.511 12.961 C 17.715 12.915,17.771 12.874,18.256 12.412 C 19.123 11.585,21.000 9.633,21.114 9.440 C 21.205 9.285,21.220 9.214,21.220 8.936 C 21.220 8.619,21.217 8.609,21.061 8.416 C 20.974 8.308,20.200 7.515,19.341 6.654 C 17.649 4.957,17.701 4.999,17.260 5.002 C 17.150 5.003,16.992 5.028,16.910 5.057 M3.405 8.044 C 3.214 8.102,2.869 8.462,2.809 8.665 C 2.703 9.021,2.772 9.351,3.006 9.617 C 3.603 10.296,4.733 9.880,4.734 8.980 C 4.734 8.626,4.557 8.312,4.260 8.138 C 4.061 8.021,3.632 7.974,3.405 8.044 M7.329 8.103 C 6.980 8.277,6.762 8.615,6.762 8.980 C 6.762 9.474,7.235 9.957,7.723 9.959 C 8.484 9.963,8.974 9.178,8.619 8.525 C 8.363 8.055,7.797 7.870,7.329 8.103 " fill="#1A1C1F" stroke="none" fill-rule="evenodd"></path></svg>