<svg width="32" height="32" viewBox="0 0 32 32" fill="none" xmlns="http://www.w3.org/2000/svg"><path d="M23.722 8.053 C 23.331 8.171,23.023 8.584,23.023 8.993 C 23.022 9.321,23.201 9.578,24.088 10.529 C 25.195 11.715,25.440 11.985,25.440 12.022 C 25.440 12.039,23.958 12.055,22.147 12.058 C 20.335 12.061,18.479 12.079,18.022 12.098 L 17.190 12.133 16.688 12.383 C 15.822 12.815,15.258 13.363,14.826 14.194 C 14.416 14.983,14.400 15.112,14.349 17.986 C 14.306 20.402,14.298 20.543,14.193 20.759 C 14.027 21.103,13.774 21.380,13.420 21.609 C 12.801 22.009,13.057 21.989,8.236 22.023 L 3.912 22.053 3.691 22.200 C 3.396 22.395,3.285 22.616,3.282 23.013 C 3.280 23.375,3.386 23.572,3.720 23.827 L 3.912 23.973 7.969 23.990 C 12.532 24.008,13.003 23.986,13.639 23.732 C 14.836 23.254,15.708 22.317,16.141 21.044 C 16.262 20.689,16.267 20.611,16.271 19.044 C 16.273 18.147,16.292 16.957,16.314 16.400 C 16.351 15.421,16.358 15.376,16.505 15.106 C 16.686 14.774,17.115 14.353,17.442 14.186 L 17.676 14.066 21.597 14.039 L 25.518 14.011 24.552 15.019 C 23.071 16.564,23.039 16.607,23.041 17.030 C 23.043 17.452,23.398 17.872,23.819 17.951 C 24.262 18.034,24.321 17.994,25.488 16.810 C 27.372 14.899,28.546 13.637,28.647 13.413 C 28.771 13.141,28.770 12.882,28.644 12.613 C 28.460 12.220,24.609 8.212,24.282 8.073 C 24.092 7.992,23.940 7.987,23.722 8.053 M3.810 12.132 C 3.446 12.315,3.284 12.567,3.282 12.954 C 3.280 13.334,3.417 13.619,3.690 13.799 C 4.301 14.204,5.125 13.839,5.209 13.126 C 5.269 12.621,5.017 12.221,4.539 12.061 C 4.267 11.970,4.102 11.986,3.810 12.132 M7.861 12.102 C 7.403 12.310,7.177 12.758,7.299 13.215 C 7.389 13.549,7.533 13.731,7.817 13.868 C 8.661 14.277,9.517 13.417,9.125 12.555 C 9.018 12.320,8.828 12.160,8.539 12.061 C 8.287 11.976,8.116 11.986,7.861 12.102 M11.862 12.124 C 11.391 12.349,11.178 12.760,11.299 13.212 C 11.388 13.545,11.549 13.754,11.808 13.872 C 12.445 14.161,13.160 13.767,13.215 13.097 C 13.262 12.539,12.904 12.091,12.359 12.023 C 12.189 12.002,12.067 12.027,11.862 12.124 " fill="#1A1C1F" stroke="none" fill-rule="evenodd"></path></svg>