<svg width="20" height="20" viewBox="0 0 20 20" fill="none" xmlns="http://www.w3.org/2000/svg"><path d="M8.250 2.202 C 7.503 2.233,7.125 2.333,6.454 2.676 C 5.839 2.990,5.310 3.447,4.913 4.008 C 4.570 4.492,4.360 4.978,4.225 5.600 C 4.158 5.908,4.156 6.026,4.143 9.757 L 4.129 13.598 4.306 13.711 C 5.134 14.240,7.008 14.897,7.983 15.000 C 8.928 15.099,11.636 15.069,12.353 14.951 C 13.237 14.806,15.373 14.009,15.766 13.679 L 15.875 13.587 15.856 9.802 C 15.845 7.374,15.825 5.926,15.802 5.763 C 15.615 4.446,14.731 3.267,13.450 2.625 C 13.049 2.424,12.600 2.277,12.261 2.237 C 11.914 2.195,9.012 2.170,8.250 2.202 M12.057 3.633 C 12.619 3.830,13.092 4.304,13.307 4.886 C 13.431 5.220,13.416 5.652,13.181 8.400 C 13.135 8.941,13.082 9.473,13.063 9.583 C 12.954 10.210,12.328 10.788,11.615 10.918 C 10.992 11.033,8.866 11.011,8.263 10.885 C 7.801 10.788,7.361 10.463,7.108 10.031 C 6.934 9.735,6.899 9.474,6.714 7.150 C 6.602 5.743,6.594 5.184,6.680 4.933 C 6.872 4.373,7.262 3.939,7.800 3.689 C 8.095 3.552,8.359 3.537,10.283 3.550 C 11.795 3.560,11.857 3.563,12.057 3.633 M7.838 12.048 C 8.397 12.142,8.539 12.211,8.690 12.464 C 8.948 12.895,8.834 13.394,8.419 13.649 C 8.270 13.741,8.232 13.750,7.986 13.745 C 7.691 13.740,6.983 13.632,6.711 13.551 C 6.580 13.511,6.503 13.459,6.389 13.333 C 5.989 12.887,6.160 12.188,6.721 11.980 C 6.880 11.921,7.197 11.940,7.838 12.048 M13.250 11.970 C 13.429 12.015,13.644 12.194,13.742 12.379 C 13.845 12.573,13.845 12.960,13.743 13.153 C 13.646 13.336,13.474 13.481,13.278 13.546 C 13.093 13.607,12.459 13.718,12.117 13.750 C 11.734 13.786,11.457 13.646,11.286 13.333 C 11.049 12.897,11.198 12.369,11.611 12.183 C 11.714 12.136,11.964 12.077,12.233 12.036 C 12.979 11.923,13.045 11.918,13.250 11.970 M4.767 15.648 C 4.767 15.660,4.852 15.786,4.955 15.927 C 5.218 16.284,5.772 16.821,6.108 17.045 C 6.636 17.396,7.379 17.689,7.989 17.786 C 8.761 17.909,11.711 17.874,12.283 17.736 C 13.470 17.449,14.330 16.874,15.101 15.852 C 15.179 15.749,15.234 15.656,15.224 15.646 C 15.213 15.636,14.803 15.764,14.311 15.930 C 13.256 16.288,12.620 16.454,12.117 16.503 C 11.882 16.526,11.031 16.534,9.750 16.525 L 7.750 16.511 7.362 16.424 C 6.858 16.312,6.267 16.138,5.500 15.875 C 5.161 15.759,4.857 15.655,4.825 15.645 C 4.793 15.634,4.767 15.636,4.767 15.648 " fill="#1A1C1F" stroke="none" fill-rule="evenodd"></path></svg>