<svg width="24" height="24" viewBox="0 0 24 24" fill="none" xmlns="http://www.w3.org/2000/svg"><path d="M9.160 2.124 C 7.779 2.416,6.493 3.358,5.733 4.634 C 5.380 5.226,5.114 6.035,5.039 6.739 C 4.991 7.198,4.991 15.251,5.039 16.540 C 5.079 17.603,5.112 17.778,5.432 18.570 C 5.817 19.525,6.599 20.480,7.497 21.091 C 8.022 21.448,8.946 21.822,9.569 21.929 C 9.779 21.965,10.482 21.978,12.080 21.976 L 14.300 21.974 14.779 21.845 C 16.005 21.516,16.925 20.931,17.717 19.975 C 18.244 19.340,18.628 18.586,18.847 17.760 C 18.973 17.281,19.006 15.721,18.989 10.909 C 18.973 6.134,18.989 6.446,18.716 5.624 C 18.212 4.108,17.019 2.879,15.514 2.323 C 14.772 2.049,14.963 2.064,12.120 2.053 C 9.668 2.044,9.521 2.048,9.160 2.124 M14.397 4.083 C 14.516 4.102,14.632 4.136,14.654 4.158 C 14.700 4.204,14.667 4.709,14.458 7.100 C 14.154 10.600,14.053 11.502,13.942 11.716 C 13.909 11.780,13.821 11.870,13.746 11.916 C 13.614 11.998,13.566 12.000,11.953 12.000 L 10.296 12.000 10.172 11.870 C 9.956 11.642,9.926 11.534,9.841 10.673 C 9.740 9.663,9.373 5.267,9.336 4.631 L 9.308 4.162 9.424 4.115 C 9.488 4.089,9.873 4.054,10.280 4.038 C 11.179 4.002,14.096 4.034,14.397 4.083 M7.539 7.500 C 7.933 12.029,7.920 11.923,8.177 12.458 C 8.490 13.110,8.956 13.556,9.628 13.845 L 9.940 13.980 11.807 13.991 C 13.922 14.004,14.035 13.993,14.580 13.723 C 15.414 13.311,15.960 12.493,16.077 11.480 C 16.124 11.079,16.600 5.944,16.600 5.843 C 16.600 5.728,16.673 5.862,16.806 6.220 L 16.940 6.580 16.951 11.262 L 16.962 15.945 15.891 16.292 C 14.538 16.730,13.902 16.911,13.521 16.969 C 13.352 16.994,12.685 17.015,12.000 17.017 C 10.979 17.019,10.721 17.008,10.420 16.948 C 10.222 16.909,9.380 16.649,8.549 16.371 L 7.038 15.864 7.049 11.222 L 7.060 6.580 7.147 6.340 C 7.283 5.968,7.370 5.776,7.384 5.820 C 7.391 5.842,7.461 6.598,7.539 7.500 M8.639 14.610 C 8.216 14.824,8.122 15.372,8.445 15.740 C 8.581 15.895,8.871 16.002,9.581 16.162 C 10.028 16.262,10.192 16.252,10.405 16.108 C 10.972 15.726,10.814 14.983,10.119 14.769 C 9.797 14.669,9.083 14.520,8.931 14.520 C 8.868 14.520,8.737 14.560,8.639 14.610 M14.556 14.598 C 14.127 14.689,13.775 14.790,13.630 14.865 C 13.471 14.948,13.288 15.218,13.258 15.416 C 13.199 15.810,13.573 16.240,13.975 16.240 C 14.132 16.240,15.106 16.001,15.325 15.909 C 15.616 15.787,15.813 15.376,15.724 15.078 C 15.659 14.861,15.429 14.612,15.246 14.561 C 15.053 14.507,14.964 14.512,14.556 14.598 M8.060 17.812 C 10.064 18.472,10.398 18.534,11.960 18.536 C 13.583 18.539,13.951 18.482,15.619 17.963 C 16.190 17.785,16.689 17.640,16.727 17.640 C 16.793 17.640,16.792 17.652,16.719 17.822 C 16.414 18.534,15.807 19.206,15.117 19.594 C 14.866 19.736,14.755 19.751,14.675 19.654 C 14.580 19.538,14.231 19.401,14.034 19.400 C 13.932 19.400,13.636 19.436,13.378 19.480 C 12.317 19.662,11.683 19.662,10.622 19.480 C 9.875 19.353,9.654 19.377,9.369 19.621 L 9.204 19.763 8.972 19.646 C 8.222 19.267,7.554 18.526,7.241 17.725 C 7.184 17.578,7.174 17.517,7.209 17.530 C 7.237 17.540,7.620 17.668,8.060 17.812 " fill="#1A1C1F" stroke="none" fill-rule="evenodd"></path></svg>