<svg width="32" height="32" viewBox="0 0 32 32" fill="none" xmlns="http://www.w3.org/2000/svg"><path d="M12.880 2.079 C 12.399 2.106,11.986 2.161,11.719 2.235 C 9.207 2.926,7.170 4.846,6.376 7.269 C 5.979 8.481,6.002 7.948,6.002 15.947 C 6.002 22.516,6.010 23.161,6.094 23.612 C 6.516 25.863,7.821 27.751,9.741 28.886 C 10.260 29.193,10.606 29.350,11.280 29.583 C 12.128 29.876,12.383 29.919,13.627 29.980 C 14.957 30.046,18.854 30.005,19.440 29.920 C 20.282 29.796,21.470 29.361,22.264 28.884 C 24.161 27.745,25.394 25.999,25.877 23.768 L 25.995 23.227 25.997 16.133 C 25.998 10.725,25.982 8.913,25.931 8.507 C 25.854 7.894,25.543 6.922,25.217 6.274 C 24.195 4.242,22.280 2.717,20.107 2.204 C 19.552 2.073,19.520 2.072,16.587 2.055 C 14.959 2.045,13.291 2.056,12.880 2.079 M19.473 4.107 C 19.631 4.137,19.925 4.213,20.126 4.277 L 20.492 4.392 20.459 4.903 C 20.440 5.184,20.354 7.201,20.267 9.387 C 20.028 15.364,20.037 15.266,19.725 15.557 C 19.380 15.878,16.888 16.264,15.653 16.188 C 14.233 16.100,12.830 15.870,12.455 15.663 C 12.134 15.486,12.020 15.276,11.980 14.789 C 11.879 13.555,11.635 7.400,11.613 5.523 L 11.600 4.353 11.840 4.281 C 12.544 4.069,12.638 4.064,15.953 4.059 C 17.940 4.055,19.296 4.074,19.473 4.107 M9.600 6.911 C 9.629 7.495,9.701 9.209,9.760 10.720 C 9.900 14.276,9.958 15.215,10.060 15.573 C 10.288 16.377,10.872 17.109,11.560 17.453 C 12.466 17.906,14.776 18.237,16.560 18.168 C 18.027 18.112,19.726 17.803,20.405 17.469 C 21.045 17.154,21.633 16.490,21.870 15.816 C 21.931 15.644,22.001 15.309,22.028 15.072 C 22.077 14.621,22.181 12.351,22.319 8.720 C 22.363 7.547,22.414 6.412,22.431 6.197 C 22.468 5.743,22.476 5.744,22.884 6.283 C 23.231 6.740,23.581 7.439,23.785 8.080 L 23.955 8.613 23.986 15.444 L 24.017 22.274 23.515 22.415 C 22.290 22.758,19.777 23.347,18.644 23.555 C 17.979 23.678,17.715 23.697,16.333 23.719 C 15.330 23.736,14.586 23.723,14.253 23.684 C 13.022 23.539,10.212 22.895,8.740 22.421 L 7.984 22.177 8.013 15.391 L 8.043 8.605 8.232 8.040 C 8.446 7.400,8.662 6.945,8.973 6.480 C 9.184 6.163,9.497 5.799,9.530 5.832 C 9.539 5.841,9.570 6.327,9.600 6.911 M10.844 19.407 C 10.441 19.595,10.207 20.136,10.345 20.556 C 10.415 20.766,10.622 21.039,10.774 21.120 C 10.894 21.184,12.193 21.510,12.810 21.630 C 13.386 21.742,13.593 21.707,13.878 21.450 C 14.131 21.222,14.240 20.996,14.240 20.699 C 14.240 20.422,14.178 20.267,13.972 20.033 C 13.775 19.809,13.621 19.756,12.497 19.527 C 11.375 19.298,11.118 19.279,10.844 19.407 M20.240 19.384 C 19.626 19.486,18.656 19.714,18.420 19.813 C 18.149 19.926,18.031 20.038,17.914 20.293 C 17.709 20.739,17.856 21.272,18.256 21.537 C 18.548 21.730,18.878 21.718,19.973 21.472 C 21.219 21.192,21.227 21.189,21.477 20.930 C 21.740 20.657,21.806 20.411,21.713 20.061 C 21.543 19.427,21.129 19.237,20.240 19.384 M9.360 24.689 C 9.741 24.776,10.598 24.979,11.264 25.140 C 11.930 25.301,12.758 25.481,13.105 25.540 C 14.581 25.791,17.019 25.821,18.427 25.606 C 19.230 25.484,20.361 25.247,22.145 24.830 C 22.841 24.667,23.449 24.533,23.497 24.533 C 23.564 24.533,23.533 24.624,23.357 24.947 C 22.679 26.185,21.631 27.110,20.317 27.628 L 20.046 27.735 19.769 27.446 C 19.393 27.051,19.282 27.027,18.305 27.131 C 17.784 27.186,17.008 27.214,16.000 27.214 C 14.992 27.214,14.216 27.186,13.695 27.131 C 12.718 27.027,12.607 27.051,12.231 27.446 L 11.954 27.735 11.683 27.628 C 10.691 27.237,9.752 26.537,9.159 25.746 C 8.897 25.398,8.427 24.606,8.427 24.514 C 8.427 24.494,8.481 24.490,8.547 24.505 C 8.613 24.519,8.979 24.602,9.360 24.689 " fill="#1A1C1F" stroke="none" fill-rule="evenodd"></path></svg>