<svg width="20" height="20" viewBox="0 0 20 20" fill="none" xmlns="http://www.w3.org/2000/svg"><path d="M6.450 2.054 C 5.706 2.186,5.129 2.480,4.586 3.001 C 4.107 3.461,3.782 4.012,3.609 4.660 C 3.533 4.941,3.522 5.052,3.521 5.500 C 3.519 5.963,3.529 6.051,3.611 6.350 C 3.952 7.592,4.949 8.579,6.191 8.903 C 6.402 8.958,6.555 8.971,7.017 8.971 C 7.530 8.971,7.611 8.963,7.883 8.883 C 9.118 8.522,10.025 7.616,10.381 6.388 C 10.459 6.120,10.467 6.037,10.467 5.500 C 10.467 4.965,10.459 4.879,10.382 4.616 C 10.079 3.571,9.447 2.808,8.517 2.363 C 8.131 2.179,7.774 2.078,7.350 2.033 C 6.959 1.991,6.774 1.996,6.450 2.054 M7.464 4.088 C 8.093 4.264,8.554 4.958,8.481 5.615 C 8.355 6.735,7.204 7.344,6.259 6.790 C 5.911 6.586,5.604 6.130,5.529 5.705 C 5.425 5.117,5.781 4.443,6.339 4.170 C 6.691 3.998,7.051 3.972,7.464 4.088 M11.683 9.031 C 11.197 9.050,11.177 9.054,10.950 9.167 C 10.640 9.322,10.313 9.644,10.171 9.935 C 10.091 10.099,10.056 10.228,10.033 10.452 C 9.992 10.841,9.992 16.160,10.033 16.549 C 10.076 16.963,10.219 17.250,10.523 17.534 C 10.806 17.799,11.085 17.934,11.428 17.970 C 11.760 18.005,16.240 18.005,16.572 17.970 C 17.091 17.915,17.582 17.566,17.822 17.080 C 17.930 16.860,17.943 16.801,17.973 16.411 C 17.991 16.166,17.999 14.773,17.992 13.150 C 17.979 10.330,17.979 10.316,17.906 10.119 C 17.751 9.700,17.443 9.357,17.045 9.162 C 16.837 9.059,16.798 9.052,16.321 9.029 C 15.738 9.001,12.422 9.003,11.683 9.031 M4.367 11.032 C 3.617 11.062,3.391 11.138,2.892 11.527 C 2.526 11.813,2.294 12.147,2.114 12.651 L 2.000 12.969 2.000 15.102 L 2.000 17.236 2.083 17.400 C 2.279 17.786,2.579 17.980,2.981 17.981 C 3.111 17.982,3.273 17.962,3.342 17.938 C 3.548 17.867,3.775 17.663,3.890 17.447 L 3.994 17.250 4.005 15.226 L 4.017 13.202 4.107 13.112 L 4.197 13.022 5.740 13.000 C 7.249 12.979,7.286 12.977,7.426 12.905 C 7.609 12.810,7.810 12.609,7.905 12.426 C 7.964 12.311,7.979 12.228,7.979 12.000 C 7.979 11.674,7.917 11.517,7.704 11.304 C 7.443 11.043,7.428 11.041,6.117 11.024 C 5.475 11.015,4.688 11.019,4.367 11.032 M16.000 13.500 L 16.000 16.000 14.000 16.000 L 12.000 16.000 12.000 13.500 L 12.000 11.000 14.000 11.000 L 16.000 11.000 16.000 13.500 " fill="#1A1C1F" stroke="none" fill-rule="evenodd"></path></svg>