<svg width="24" height="24" viewBox="0 0 24 24" fill="none" xmlns="http://www.w3.org/2000/svg"><path d="M9.450 2.040 C 7.805 2.271,6.511 3.428,6.112 5.025 C 5.994 5.497,5.987 6.310,6.095 6.780 C 6.266 7.518,6.581 8.096,7.116 8.652 C 7.639 9.195,8.250 9.556,9.000 9.765 C 9.298 9.848,9.421 9.859,10.000 9.856 C 10.798 9.851,11.080 9.787,11.740 9.462 C 13.909 8.394,14.650 5.797,13.351 3.817 C 12.800 2.979,11.861 2.332,10.887 2.119 C 10.472 2.029,9.795 1.991,9.450 2.040 M10.343 4.043 C 10.734 4.115,11.066 4.298,11.381 4.616 C 11.705 4.944,11.858 5.228,11.949 5.672 C 12.196 6.882,11.122 8.082,9.877 7.987 C 9.127 7.929,8.497 7.487,8.184 6.798 C 7.675 5.679,8.364 4.323,9.576 4.059 C 9.884 3.992,10.045 3.989,10.343 4.043 M15.320 10.039 C 14.873 10.070,14.638 10.135,14.274 10.327 C 13.756 10.601,13.300 11.160,13.105 11.763 L 12.995 12.100 13.008 16.080 L 13.020 20.060 13.153 20.389 C 13.444 21.112,14.005 21.631,14.780 21.894 C 15.008 21.971,15.133 21.976,17.220 21.990 C 19.618 22.006,20.040 21.984,20.449 21.820 C 20.934 21.626,21.463 21.142,21.733 20.647 C 21.983 20.187,21.974 20.329,21.990 16.365 C 22.006 12.555,21.988 11.975,21.842 11.605 C 21.557 10.882,20.816 10.232,20.100 10.076 C 19.862 10.024,15.954 9.994,15.320 10.039 M5.267 11.080 C 4.957 11.119,4.532 11.240,4.214 11.381 C 3.416 11.734,2.641 12.576,2.301 13.460 C 2.012 14.210,2.030 13.934,2.010 17.767 L 1.992 21.234 2.105 21.441 C 2.385 21.957,2.982 22.142,3.460 21.862 C 3.645 21.754,3.821 21.566,3.892 21.402 C 3.922 21.332,3.945 20.261,3.964 18.020 C 3.982 15.802,4.006 14.656,4.038 14.480 C 4.141 13.907,4.502 13.432,5.032 13.170 C 5.461 12.958,5.664 12.968,6.346 13.231 C 7.525 13.687,9.134 14.042,9.786 13.990 C 10.079 13.966,10.331 13.836,10.513 13.616 C 10.840 13.219,10.757 12.535,10.343 12.220 C 10.170 12.088,10.056 12.056,9.465 11.980 C 8.544 11.861,7.639 11.619,6.740 11.252 C 6.344 11.090,6.262 11.071,5.920 11.059 C 5.711 11.051,5.417 11.061,5.267 11.080 M19.790 12.040 C 20.007 12.183,20.000 12.054,20.000 15.997 C 20.000 19.981,20.007 19.866,19.772 19.970 C 19.687 20.008,19.152 20.020,17.580 20.020 C 16.436 20.020,15.433 20.006,15.352 19.988 C 15.252 19.967,15.173 19.915,15.112 19.828 L 15.020 19.700 15.008 15.984 L 14.996 12.267 15.148 12.111 L 15.300 11.955 17.500 11.968 C 19.368 11.978,19.714 11.989,19.790 12.040 M16.249 17.060 C 16.029 17.156,15.991 17.311,16.007 18.044 C 16.022 18.754,16.055 18.849,16.330 18.954 C 16.456 19.002,16.491 18.999,16.653 18.927 C 16.942 18.799,16.980 18.692,16.979 18.000 C 16.979 17.323,16.936 17.174,16.709 17.067 C 16.539 16.986,16.423 16.984,16.249 17.060 M18.239 17.074 C 18.012 17.195,17.996 17.261,18.009 18.020 C 18.021 18.786,18.038 18.838,18.297 18.942 C 18.504 19.025,18.684 18.990,18.836 18.838 C 18.983 18.691,19.017 18.469,18.993 17.808 C 18.974 17.283,18.930 17.172,18.702 17.063 C 18.527 16.981,18.410 16.983,18.239 17.074 " fill="#1A1C1F" stroke="none" fill-rule="evenodd"></path></svg>