<svg width="32" height="32" viewBox="0 0 32 32" fill="none" xmlns="http://www.w3.org/2000/svg"><path d="M10.800 2.379 C 9.230 2.728,7.833 3.691,6.966 5.022 C 6.237 6.143,5.888 7.539,6.025 8.785 C 6.332 11.573,8.310 13.686,11.067 14.169 C 11.745 14.287,12.757 14.240,13.451 14.058 C 15.601 13.492,17.245 11.871,17.797 9.771 C 17.978 9.081,18.024 7.935,17.900 7.218 C 17.498 4.904,15.755 3.027,13.467 2.445 C 12.881 2.296,11.345 2.257,10.800 2.379 M12.494 4.321 C 13.407 4.426,14.072 4.755,14.786 5.457 C 15.331 5.992,15.746 6.725,15.888 7.403 C 15.974 7.814,15.962 8.879,15.867 9.242 C 15.764 9.638,15.369 10.421,15.120 10.722 C 14.213 11.821,12.784 12.409,11.495 12.214 C 9.706 11.942,8.381 10.659,8.076 8.902 C 7.672 6.576,9.480 4.354,11.840 4.274 C 11.943 4.270,12.237 4.292,12.494 4.321 M20.613 14.773 C 19.337 14.800,19.203 14.812,18.926 14.923 C 18.190 15.217,17.631 15.731,17.298 16.418 C 17.137 16.750,17.101 16.893,17.063 17.352 C 17.006 18.037,17.006 26.217,17.062 27.040 C 17.098 27.553,17.131 27.710,17.264 28.000 C 17.594 28.719,18.249 29.303,19.041 29.584 L 19.440 29.726 23.421 29.749 L 27.402 29.773 27.768 29.652 C 28.319 29.471,28.699 29.262,29.028 28.962 C 29.424 28.600,29.660 28.231,29.861 27.662 L 30.027 27.192 30.027 22.207 L 30.027 17.223 29.865 16.804 C 29.486 15.821,28.843 15.177,27.947 14.883 C 27.683 14.796,27.372 14.784,24.827 14.765 C 23.272 14.753,21.376 14.756,20.613 14.773 M6.800 14.990 C 5.998 15.097,5.022 15.467,4.382 15.906 C 3.449 16.547,2.729 17.520,2.354 18.649 C 2.010 19.684,2.019 19.523,2.037 24.511 C 2.055 29.546,2.031 29.225,2.413 29.511 C 2.805 29.803,3.197 29.813,3.572 29.542 C 3.991 29.238,3.956 29.647,4.005 24.545 C 4.047 20.259,4.056 19.948,4.155 19.566 C 4.498 18.229,5.470 17.279,6.792 16.986 L 7.210 16.894 7.885 17.217 C 9.579 18.027,11.263 18.359,12.827 18.190 C 13.778 18.088,14.112 17.994,14.340 17.767 C 14.702 17.405,14.748 16.895,14.455 16.491 C 14.197 16.135,14.057 16.100,13.168 16.167 C 11.274 16.312,10.165 16.106,8.480 15.296 C 7.741 14.942,7.498 14.897,6.800 14.990 M27.531 16.896 C 27.639 16.964,27.783 17.108,27.851 17.216 L 27.973 17.413 27.973 22.213 C 27.973 26.629,27.966 27.027,27.883 27.179 C 27.771 27.383,27.452 27.668,27.292 27.708 C 27.227 27.724,25.478 27.730,23.405 27.722 L 19.637 27.707 19.432 27.543 C 19.012 27.207,19.040 27.594,19.040 22.208 L 19.040 17.402 19.161 17.223 C 19.227 17.125,19.377 16.977,19.494 16.895 L 19.707 16.747 23.520 16.760 L 27.333 16.773 27.531 16.896 M20.907 23.765 C 20.586 23.824,20.525 23.850,20.351 24.003 C 19.837 24.455,19.922 25.233,20.525 25.587 C 20.761 25.726,20.807 25.733,21.467 25.733 C 22.062 25.733,22.195 25.717,22.406 25.620 C 22.937 25.374,23.123 24.838,22.861 24.308 C 22.643 23.865,22.499 23.797,21.707 23.767 C 21.340 23.752,20.980 23.752,20.907 23.765 M24.907 23.765 C 24.586 23.824,24.525 23.850,24.351 24.003 C 23.837 24.455,23.922 25.233,24.525 25.587 C 24.761 25.726,24.807 25.733,25.467 25.733 C 26.062 25.733,26.195 25.717,26.406 25.620 C 26.937 25.374,27.123 24.838,26.861 24.308 C 26.643 23.865,26.499 23.797,25.707 23.767 C 25.340 23.752,24.980 23.752,24.907 23.765 " fill="#1A1C1F" stroke="none" fill-rule="evenodd"></path></svg>