<svg width="20" height="20" viewBox="0 0 20 20" fill="none" xmlns="http://www.w3.org/2000/svg"><path d="M8.300 1.998 C 8.030 2.027,7.532 2.151,7.224 2.266 C 6.973 2.361,6.856 2.463,6.747 2.686 C 6.669 2.846,6.660 2.897,6.674 3.099 C 6.701 3.468,6.898 3.732,7.237 3.851 C 7.430 3.919,7.514 3.914,8.029 3.797 C 8.279 3.741,8.630 3.686,8.808 3.676 L 9.133 3.657 9.133 4.228 L 9.133 4.800 8.708 4.800 C 8.208 4.800,7.601 4.851,7.309 4.918 C 6.775 5.040,6.296 5.299,5.905 5.678 C 5.406 6.163,5.119 6.796,5.034 7.600 C 4.994 7.983,4.992 13.904,5.032 14.917 C 5.055 15.494,5.072 15.657,5.133 15.850 C 5.462 16.890,6.062 17.529,7.017 17.856 C 7.492 18.019,7.757 18.040,9.584 18.058 C 12.214 18.083,12.778 18.023,13.464 17.646 C 14.019 17.341,14.476 16.841,14.710 16.282 C 14.914 15.795,14.939 15.659,14.968 14.900 C 15.008 13.848,15.007 8.054,14.966 7.627 C 14.877 6.689,14.496 5.958,13.833 5.452 C 13.241 5.000,12.688 4.846,11.525 4.810 L 10.867 4.790 10.867 4.223 L 10.867 3.657 11.175 3.677 C 11.345 3.687,11.708 3.743,11.983 3.801 C 12.542 3.919,12.694 3.916,12.914 3.786 C 13.208 3.613,13.338 3.388,13.340 3.050 C 13.341 2.792,13.257 2.590,13.083 2.437 C 12.919 2.294,12.835 2.260,12.294 2.119 L 11.850 2.004 10.200 1.987 C 9.292 1.979,8.438 1.983,8.300 1.998 M12.700 6.606 C 12.881 6.683,13.080 6.869,13.177 7.050 C 13.244 7.174,13.250 7.249,13.271 8.150 C 13.283 8.682,13.295 9.951,13.296 10.971 L 13.300 12.825 13.042 12.846 C 11.696 12.959,8.192 12.959,6.942 12.847 L 6.700 12.826 6.702 10.838 C 6.705 8.615,6.739 7.228,6.794 7.093 C 6.848 6.959,7.058 6.741,7.231 6.640 C 7.382 6.551,7.390 6.550,8.183 6.531 C 8.623 6.521,9.786 6.519,10.767 6.527 C 12.436 6.540,12.560 6.545,12.700 6.606 M9.015 7.828 C 8.706 7.851,8.613 7.887,8.464 8.041 C 8.282 8.231,8.213 8.598,8.314 8.838 C 8.370 8.971,8.571 9.170,8.729 9.249 C 8.831 9.301,8.963 9.305,10.029 9.295 L 11.217 9.283 11.365 9.200 C 11.582 9.078,11.709 8.880,11.727 8.637 C 11.744 8.391,11.692 8.228,11.540 8.060 C 11.338 7.837,11.343 7.838,10.279 7.821 C 9.750 7.813,9.181 7.816,9.015 7.828 M8.653 14.402 C 9.083 14.667,9.159 15.232,8.812 15.579 C 8.618 15.773,8.571 15.783,7.900 15.783 C 7.202 15.783,7.163 15.773,6.953 15.528 C 6.745 15.285,6.710 14.993,6.854 14.704 C 6.957 14.497,7.122 14.375,7.355 14.333 C 7.444 14.316,7.748 14.310,8.030 14.319 C 8.470 14.332,8.560 14.344,8.653 14.402 M12.852 14.376 C 13.104 14.506,13.282 14.786,13.282 15.050 C 13.282 15.314,13.106 15.590,12.852 15.726 C 12.740 15.786,11.926 15.826,11.654 15.786 C 11.459 15.756,11.269 15.627,11.137 15.434 C 10.954 15.166,10.964 14.914,11.170 14.613 C 11.355 14.342,11.514 14.299,12.267 14.313 C 12.629 14.320,12.776 14.336,12.852 14.376 " fill="#1A1C1F" stroke="none" fill-rule="evenodd"></path></svg>