<svg width="20" height="20" viewBox="0 0 20 20" fill="none" xmlns="http://www.w3.org/2000/svg"><path d="M4.500 4.030 L 3.483 4.050 3.223 4.175 C 2.929 4.315,2.859 4.364,2.603 4.610 C 2.365 4.840,2.196 5.104,2.098 5.404 L 2.017 5.650 2.017 10.000 L 2.017 14.350 2.098 14.596 C 2.293 15.188,2.812 15.707,3.404 15.902 L 3.650 15.983 10.000 15.983 L 16.350 15.983 16.596 15.902 C 17.185 15.708,17.688 15.210,17.891 14.617 L 17.983 14.350 17.983 10.000 L 17.983 5.650 17.902 5.404 C 17.741 4.914,17.343 4.457,16.867 4.216 C 16.470 4.015,16.834 4.027,10.933 4.018 C 7.954 4.013,5.059 4.019,4.500 4.030 M16.000 10.000 L 16.000 14.000 10.000 14.000 L 4.000 14.000 4.000 10.000 L 4.000 6.000 10.000 6.000 L 16.000 6.000 16.000 10.000 M12.850 6.922 C 11.437 7.149,10.640 8.046,10.466 9.604 C 10.375 10.420,10.573 11.438,10.932 11.997 C 11.047 12.178,11.358 12.494,11.544 12.619 C 11.767 12.771,12.141 12.931,12.484 13.021 C 12.780 13.100,12.879 13.110,13.383 13.111 C 13.969 13.112,14.305 13.065,14.818 12.907 L 15.017 12.846 15.007 12.681 C 14.995 12.475,14.912 11.791,14.863 11.489 C 14.827 11.265,14.825 11.262,14.738 11.284 C 14.210 11.419,13.513 11.471,13.162 11.402 C 12.733 11.317,12.491 11.116,12.382 10.753 C 12.259 10.345,12.291 9.437,12.440 9.091 C 12.528 8.886,12.730 8.714,12.966 8.640 C 13.287 8.541,14.076 8.575,14.772 8.719 C 14.857 8.737,14.860 8.731,14.882 8.544 C 14.935 8.069,14.993 7.114,14.969 7.090 C 14.955 7.075,14.787 7.033,14.597 6.997 C 14.257 6.932,13.097 6.882,12.850 6.922 M5.033 10.000 L 5.033 13.000 6.358 12.999 C 7.937 12.998,8.348 12.972,8.717 12.849 C 9.576 12.561,9.949 12.088,9.949 11.283 C 9.949 10.562,9.660 10.168,8.956 9.932 L 8.686 9.841 8.901 9.733 C 9.198 9.584,9.332 9.470,9.459 9.259 C 9.609 9.010,9.651 8.750,9.605 8.360 C 9.558 7.970,9.458 7.761,9.205 7.527 C 8.994 7.332,8.741 7.195,8.444 7.115 C 8.228 7.056,7.003 7.005,5.758 7.002 L 5.033 7.000 5.033 10.000 M7.683 8.499 C 7.757 8.516,7.850 8.569,7.892 8.617 C 8.033 8.781,7.964 9.129,7.773 9.206 C 7.724 9.226,7.462 9.250,7.192 9.259 L 6.700 9.275 6.700 8.871 L 6.700 8.467 7.125 8.467 C 7.359 8.468,7.610 8.482,7.683 8.499 M8.030 10.581 C 8.148 10.643,8.216 10.758,8.248 10.954 C 8.295 11.233,8.098 11.471,7.768 11.533 C 7.670 11.552,7.390 11.567,7.145 11.567 L 6.700 11.567 6.700 11.028 L 6.700 10.490 7.314 10.509 C 7.780 10.524,7.952 10.541,8.030 10.581 " fill="#1A1C1F" stroke="none" fill-rule="evenodd"></path></svg>