<svg width="24" height="24" viewBox="0 0 24 24" fill="none" xmlns="http://www.w3.org/2000/svg"><path d="M5.620 5.036 C 4.525 5.058,4.311 5.072,4.140 5.134 C 3.290 5.443,2.651 5.989,2.303 6.702 C 2.004 7.314,2.020 7.020,2.020 12.000 C 2.020 16.156,2.025 16.478,2.091 16.720 C 2.396 17.831,3.300 18.701,4.389 18.931 C 4.739 19.005,19.226 19.002,19.618 18.927 C 20.484 18.764,21.321 18.088,21.721 17.229 C 21.995 16.643,21.980 16.938,21.980 12.000 C 21.980 6.996,22.000 7.355,21.681 6.700 C 21.384 6.091,20.937 5.649,20.273 5.309 C 19.934 5.135,19.864 5.115,19.500 5.081 C 19.021 5.038,7.447 5.000,5.620 5.036 M19.380 7.076 C 19.537 7.140,19.704 7.298,19.845 7.518 L 19.960 7.696 19.960 11.998 C 19.960 16.296,19.960 16.300,19.876 16.440 C 19.753 16.645,19.601 16.796,19.420 16.894 L 19.260 16.980 12.427 16.991 C 8.534 16.998,5.380 16.987,5.096 16.966 C 4.518 16.923,4.380 16.860,4.166 16.537 L 4.040 16.346 4.040 12.007 L 4.040 7.667 4.159 7.482 C 4.274 7.303,4.414 7.175,4.580 7.097 C 4.725 7.030,6.617 7.012,12.980 7.020 C 17.804 7.026,19.288 7.039,19.380 7.076 M15.259 8.282 C 14.852 8.335,14.517 8.437,14.120 8.628 C 13.799 8.782,13.686 8.865,13.396 9.155 C 13.001 9.552,12.803 9.877,12.614 10.440 C 12.429 10.994,12.388 11.353,12.410 12.248 C 12.427 12.922,12.443 13.067,12.533 13.388 C 12.881 14.619,13.562 15.320,14.711 15.630 C 15.067 15.726,15.167 15.735,15.900 15.737 C 16.778 15.740,17.192 15.679,17.446 15.507 C 17.928 15.182,17.897 14.477,17.390 14.215 C 17.281 14.158,17.199 14.154,16.821 14.184 C 16.036 14.245,15.615 14.229,15.290 14.124 C 14.788 13.961,14.515 13.650,14.354 13.057 C 14.238 12.626,14.225 11.497,14.332 11.040 C 14.427 10.633,14.619 10.296,14.863 10.110 C 15.223 9.837,15.304 9.821,16.366 9.820 L 17.313 9.820 17.462 9.699 C 17.659 9.539,17.760 9.343,17.759 9.121 C 17.757 8.769,17.523 8.447,17.208 8.362 C 16.798 8.252,15.799 8.211,15.259 8.282 M6.379 8.437 C 6.214 8.477,6.064 8.580,5.942 8.740 L 5.840 8.875 5.841 11.887 C 5.842 13.810,5.857 14.965,5.883 15.080 C 5.927 15.270,6.099 15.484,6.288 15.583 C 6.416 15.650,8.149 15.662,9.124 15.602 C 9.749 15.564,10.086 15.479,10.552 15.244 C 11.331 14.851,11.693 13.859,11.402 12.915 C 11.249 12.420,10.901 12.107,10.270 11.897 L 9.945 11.789 10.203 11.658 C 10.536 11.490,10.820 11.237,10.937 11.005 C 11.255 10.373,11.144 9.568,10.667 9.050 C 10.326 8.680,9.902 8.500,9.229 8.440 C 8.721 8.395,6.564 8.393,6.379 8.437 M9.087 9.987 C 9.283 10.102,9.373 10.251,9.370 10.455 C 9.363 10.936,9.060 11.077,8.030 11.079 L 7.600 11.080 7.600 10.474 L 7.600 9.868 8.281 9.891 C 8.840 9.910,8.985 9.927,9.087 9.987 M9.344 12.712 C 9.627 12.857,9.697 12.968,9.711 13.293 C 9.740 13.939,9.460 14.103,8.250 14.148 L 7.600 14.172 7.600 13.380 L 7.600 12.588 8.394 12.610 C 9.082 12.629,9.209 12.643,9.344 12.712 " fill="#1A1C1F" stroke="none" fill-rule="evenodd"></path></svg>