<svg width="24" height="24" viewBox="0 0 24 24" fill="none" xmlns="http://www.w3.org/2000/svg"><path d="M7.857 2.557 L 6.894 2.580 6.557 2.747 C 5.978 3.035,5.527 3.531,5.304 4.126 C 5.252 4.266,4.999 5.280,4.744 6.380 C 4.488 7.480,4.264 8.407,4.245 8.440 C 4.217 8.490,4.057 8.503,3.329 8.520 L 2.447 8.540 2.294 8.664 C 2.096 8.825,2.047 8.992,2.044 9.520 C 2.040 10.316,2.249 10.520,3.069 10.520 L 3.500 10.520 3.487 10.791 C 3.466 11.243,3.766 13.951,3.925 14.740 C 3.969 14.960,4.061 15.266,4.129 15.420 L 4.253 15.700 4.279 16.700 C 4.308 17.807,4.320 17.867,4.579 18.153 C 4.817 18.417,4.987 18.460,5.780 18.460 C 6.571 18.460,6.794 18.408,6.998 18.176 C 7.281 17.854,7.280 17.861,7.280 16.446 L 7.280 15.170 6.929 15.153 C 6.193 15.118,5.897 14.794,5.817 13.937 L 5.791 13.654 6.085 13.705 C 6.474 13.773,6.585 13.772,6.838 13.697 C 7.506 13.499,7.746 12.637,7.280 12.107 C 7.108 11.910,6.823 11.804,6.141 11.683 L 5.540 11.576 5.515 11.358 C 5.477 11.029,5.515 10.823,5.641 10.672 L 5.751 10.540 10.505 10.526 C 15.084 10.512,15.265 10.509,15.409 10.436 C 15.812 10.230,16.017 9.923,16.018 9.520 C 16.019 9.122,15.826 8.813,15.440 8.596 C 15.356 8.549,14.607 8.537,10.853 8.520 C 8.386 8.509,6.355 8.489,6.341 8.475 C 6.286 8.419,7.178 4.756,7.277 4.634 C 7.336 4.561,7.407 4.543,7.743 4.516 C 7.961 4.498,10.050 4.483,12.385 4.482 C 16.613 4.480,16.630 4.480,16.734 4.562 C 16.863 4.664,16.949 4.941,17.260 6.248 C 17.513 7.313,17.566 7.424,17.905 7.608 C 18.330 7.839,18.743 7.781,19.081 7.443 C 19.353 7.171,19.416 6.949,19.341 6.529 C 19.172 5.589,18.795 4.133,18.633 3.800 C 18.484 3.494,18.045 3.033,17.740 2.864 C 17.630 2.803,17.405 2.706,17.240 2.647 L 16.940 2.541 12.880 2.537 C 10.647 2.535,8.387 2.544,7.857 2.557 M19.432 8.757 C 19.249 8.794,18.692 9.321,16.145 11.873 L 14.350 13.671 14.105 13.609 C 13.797 13.531,12.693 13.523,12.322 13.596 C 11.488 13.759,10.524 14.385,9.972 15.122 C 9.628 15.580,9.348 16.221,9.237 16.806 C 9.170 17.156,9.180 17.919,9.256 18.268 C 9.535 19.557,10.313 20.543,11.492 21.101 C 12.112 21.395,12.386 21.452,13.180 21.454 C 13.808 21.455,13.888 21.447,14.220 21.346 C 15.395 20.990,16.282 20.243,16.778 19.195 C 17.030 18.661,17.124 18.277,17.149 17.680 C 17.173 17.099,17.127 16.747,16.961 16.230 L 16.843 15.864 17.232 15.500 C 17.445 15.299,17.694 15.068,17.785 14.987 C 17.998 14.797,18.040 14.631,18.040 13.985 L 18.040 13.486 18.850 13.473 C 20.059 13.454,20.040 13.473,20.040 12.270 L 20.040 11.480 20.770 11.478 C 21.607 11.475,21.737 11.447,21.858 11.240 C 21.933 11.112,21.941 11.022,21.953 10.176 C 21.968 9.123,21.945 8.972,21.749 8.832 C 21.623 8.742,21.595 8.740,20.600 8.733 C 20.039 8.730,19.513 8.740,19.432 8.757 M13.277 16.679 C 13.577 16.830,13.888 17.169,14.001 17.470 C 14.073 17.663,14.085 17.762,14.071 18.080 C 14.058 18.397,14.037 18.496,13.944 18.675 C 13.717 19.116,13.318 19.406,12.824 19.491 C 12.043 19.625,11.212 19.003,11.132 18.225 C 11.106 17.972,11.170 17.534,11.262 17.341 C 11.430 16.988,11.869 16.640,12.249 16.560 C 12.556 16.495,13.019 16.548,13.277 16.679 " fill="#1A1C1F" stroke="none" fill-rule="evenodd"></path></svg>