<svg width="32" height="32" viewBox="0 0 32 32" fill="none" xmlns="http://www.w3.org/2000/svg"><path d="M13.387 4.057 C 11.877 4.104,10.466 4.195,9.707 4.293 C 8.775 4.413,8.234 4.665,7.653 5.250 C 7.447 5.457,7.225 5.738,7.158 5.874 C 7.008 6.185,6.613 7.576,5.972 10.059 L 5.475 11.985 4.046 12.011 L 2.616 12.037 2.405 12.183 C 2.123 12.379,2.019 12.651,1.987 13.280 C 1.941 14.170,2.110 14.640,2.558 14.867 C 2.763 14.970,2.880 14.987,3.398 14.987 L 4.000 14.987 4.000 15.383 C 4.000 16.106,4.306 19.408,4.455 20.293 C 4.514 20.642,4.601 20.904,4.773 21.253 L 5.009 21.733 5.025 23.173 C 5.043 24.809,5.059 24.882,5.500 25.361 C 6.014 25.919,6.606 26.057,8.293 26.013 C 9.434 25.983,9.810 25.901,10.271 25.584 C 10.611 25.349,10.650 25.279,10.578 25.029 C 10.204 23.726,10.083 23.006,10.064 21.949 C 10.056 21.453,10.038 21.327,9.973 21.308 C 9.929 21.295,9.677 21.257,9.413 21.224 C 8.674 21.131,7.612 20.916,7.185 20.773 C 6.537 20.556,6.478 20.429,6.320 18.933 C 6.275 18.508,6.227 18.107,6.212 18.041 C 6.186 17.924,6.189 17.923,6.687 17.956 C 7.136 17.985,7.214 17.976,7.434 17.870 C 7.879 17.654,8.066 17.216,7.923 16.723 C 7.776 16.215,7.543 16.090,6.379 15.890 L 6.011 15.826 6.042 15.244 C 6.089 14.361,6.286 14.117,7.001 14.056 C 7.855 13.984,10.544 13.918,14.720 13.868 C 17.140 13.838,19.213 13.801,19.328 13.785 C 20.175 13.667,20.338 12.383,19.554 12.003 C 19.350 11.905,19.169 11.883,18.180 11.839 C 17.068 11.790,15.798 11.807,10.014 11.950 C 8.731 11.982,7.660 11.994,7.633 11.977 C 7.574 11.941,7.553 12.043,7.917 10.581 C 8.158 9.609,8.586 8.011,8.852 7.087 C 9.009 6.544,9.343 6.328,10.160 6.244 C 12.633 5.988,19.208 5.989,21.813 6.245 C 22.901 6.351,22.975 6.437,23.471 8.174 C 23.567 8.509,23.628 8.624,23.791 8.771 C 24.172 9.115,24.661 9.143,25.081 8.843 C 25.266 8.712,25.437 8.366,25.439 8.123 C 25.441 7.767,25.082 6.383,24.871 5.933 C 24.592 5.340,23.758 4.644,23.073 4.432 C 22.071 4.123,17.234 3.935,13.387 4.057 M25.788 10.066 C 25.598 10.094,24.966 10.717,22.719 13.093 C 21.887 13.973,20.890 15.022,20.504 15.423 L 19.801 16.152 19.594 16.104 C 19.088 15.988,18.312 15.942,17.760 15.995 C 16.248 16.141,14.953 16.736,13.918 17.760 C 12.397 19.265,11.792 21.453,12.323 23.531 C 12.910 25.829,14.922 27.612,17.303 27.943 C 20.271 28.356,23.148 26.425,23.977 23.465 C 24.158 22.819,24.215 21.497,24.089 20.853 L 24.011 20.454 24.579 19.850 C 25.376 19.003,25.409 18.949,25.432 18.450 L 25.451 18.038 26.232 18.016 C 27.086 17.991,27.294 17.937,27.538 17.674 C 27.776 17.418,27.840 17.126,27.840 16.306 L 27.840 15.565 28.309 15.602 C 29.138 15.667,29.610 15.496,29.867 15.038 L 30.000 14.800 30.019 12.914 C 30.032 11.530,30.019 10.965,29.971 10.792 C 29.880 10.466,29.576 10.139,29.307 10.078 C 29.097 10.030,26.100 10.020,25.788 10.066 M27.947 12.794 L 27.947 13.588 27.240 13.610 C 26.517 13.632,26.386 13.665,26.142 13.887 C 25.881 14.122,25.845 14.268,25.823 15.160 L 25.802 16.000 25.111 16.000 C 24.308 16.000,24.032 16.056,23.768 16.274 C 23.504 16.491,23.413 16.821,23.413 17.561 L 23.413 18.142 22.813 18.780 C 22.187 19.447,21.940 19.770,21.884 19.993 C 21.865 20.068,21.911 20.368,21.992 20.689 C 22.106 21.146,22.133 21.377,22.133 21.904 C 22.133 22.735,22.077 22.999,21.759 23.653 C 21.322 24.553,20.754 25.126,19.857 25.569 C 19.286 25.852,18.759 25.974,18.111 25.972 C 17.395 25.971,16.932 25.865,16.321 25.562 C 15.897 25.353,15.734 25.232,15.330 24.829 C 14.518 24.020,14.176 23.189,14.176 22.027 C 14.176 20.213,15.227 18.767,16.990 18.152 C 17.370 18.019,17.487 18.004,18.133 18.002 C 18.748 18.000,18.949 18.023,19.506 18.156 C 20.070 18.290,20.186 18.303,20.364 18.249 C 20.602 18.178,21.125 17.655,24.447 14.173 L 26.520 12.000 27.233 12.000 L 27.947 12.000 27.947 12.794 M17.173 21.380 C 16.196 21.702,15.777 22.684,16.254 23.534 C 16.739 24.398,17.886 24.562,18.572 23.866 C 18.886 23.548,19.013 23.238,19.012 22.800 C 19.009 22.208,18.729 21.764,18.188 21.492 C 17.932 21.363,17.401 21.305,17.173 21.380 M7.679 22.988 C 8.015 23.077,8.315 23.174,8.345 23.203 C 8.406 23.264,8.531 23.931,8.489 23.973 C 8.474 23.988,8.130 24.000,7.724 24.000 L 6.987 24.000 6.987 23.413 C 6.987 23.091,7.005 22.827,7.027 22.827 C 7.049 22.827,7.342 22.900,7.679 22.988 " fill="#1A1C1F" stroke="none" fill-rule="evenodd"></path></svg>