<svg width="20" height="20" viewBox="0 0 20 20" fill="none" xmlns="http://www.w3.org/2000/svg"><path d="M9.517 5.033 C 8.081 5.162,6.752 5.954,5.865 7.210 C 5.529 7.686,5.211 8.446,5.088 9.067 C 4.968 9.678,4.992 10.563,5.146 11.170 C 5.376 12.076,5.802 12.827,6.467 13.499 C 7.145 14.185,7.876 14.605,8.818 14.849 C 9.463 15.017,10.483 15.032,11.078 14.882 C 11.733 14.717,12.370 14.434,12.850 14.095 C 13.217 13.836,13.817 13.240,14.073 12.881 C 14.760 11.917,15.070 10.766,14.970 9.558 C 14.845 8.060,14.038 6.712,12.743 5.836 C 12.226 5.487,11.488 5.192,10.867 5.087 C 10.493 5.023,9.889 4.999,9.517 5.033 M10.613 7.090 C 11.474 7.280,12.232 7.898,12.631 8.736 C 12.847 9.188,12.883 9.369,12.883 10.000 C 12.883 10.631,12.847 10.812,12.631 11.264 C 12.291 11.977,11.713 12.514,10.965 12.810 C 10.625 12.945,10.449 12.975,10.000 12.975 C 9.551 12.975,9.375 12.945,9.035 12.810 C 8.140 12.455,7.456 11.717,7.197 10.827 C 7.098 10.484,7.071 9.746,7.146 9.378 C 7.301 8.612,7.790 7.905,8.462 7.474 C 8.785 7.267,9.284 7.078,9.632 7.031 C 9.871 6.999,10.322 7.026,10.613 7.090 " fill="#1A1C1F" stroke="none" fill-rule="evenodd"></path></svg>