<svg width="24" height="24" viewBox="0 0 24 24" fill="none" xmlns="http://www.w3.org/2000/svg"><path d="M10.780 6.138 C 9.587 6.391,8.655 6.899,7.777 7.777 C 7.059 8.496,6.620 9.206,6.304 10.160 C 6.066 10.880,6.029 11.131,6.029 12.000 C 6.029 12.868,6.067 13.123,6.304 13.836 C 6.604 14.740,7.037 15.465,7.673 16.128 C 8.962 17.470,10.676 18.118,12.530 17.964 C 13.576 17.877,14.587 17.499,15.520 16.846 C 15.904 16.577,16.703 15.756,16.966 15.360 C 17.411 14.689,17.758 13.855,17.897 13.125 C 17.984 12.664,17.984 11.336,17.897 10.875 C 17.776 10.237,17.428 9.354,17.088 8.824 C 16.155 7.367,14.550 6.316,12.900 6.081 C 12.746 6.059,12.305 6.042,11.920 6.043 C 11.345 6.045,11.142 6.062,10.780 6.138 M12.712 8.085 C 14.109 8.281,15.350 9.380,15.822 10.840 C 15.916 11.132,15.934 11.267,15.951 11.793 C 15.979 12.700,15.879 13.184,15.524 13.868 C 14.915 15.038,13.739 15.835,12.430 15.965 C 10.491 16.159,8.798 15.043,8.176 13.160 C 8.068 12.832,8.064 12.790,8.063 12.000 C 8.062 11.205,8.065 11.170,8.175 10.840 C 8.610 9.535,9.565 8.582,10.838 8.182 C 11.406 8.004,11.936 7.977,12.712 8.085 " fill="#1A1C1F" stroke="none" fill-rule="evenodd"></path></svg>