<svg width="32" height="32" viewBox="0 0 32 32" fill="none" xmlns="http://www.w3.org/2000/svg"><path d="M15.173 8.050 C 13.315 8.267,11.682 9.056,10.373 10.371 C 9.269 11.481,8.645 12.566,8.241 14.080 C 7.987 15.031,7.944 16.499,8.141 17.493 C 8.349 18.542,8.865 19.742,9.479 20.604 C 9.893 21.184,10.851 22.137,11.440 22.552 C 12.277 23.143,13.421 23.630,14.533 23.869 C 15.135 23.998,16.865 23.998,17.467 23.869 C 18.579 23.630,19.723 23.143,20.560 22.552 C 21.149 22.137,22.107 21.184,22.521 20.604 C 22.959 19.988,23.323 19.268,23.568 18.532 C 23.911 17.497,23.961 17.179,23.961 16.000 C 23.961 14.821,23.911 14.503,23.568 13.468 C 23.171 12.272,22.584 11.333,21.653 10.401 C 20.456 9.202,18.941 8.401,17.365 8.133 C 16.780 8.034,15.673 7.992,15.173 8.050 M17.417 10.188 C 18.191 10.385,18.587 10.561,19.286 11.014 C 20.536 11.825,21.432 13.091,21.814 14.587 C 22.054 15.527,21.991 16.979,21.670 17.920 C 20.962 19.990,19.214 21.487,17.025 21.898 C 16.337 22.027,15.192 21.980,14.480 21.793 C 13.844 21.626,12.916 21.181,12.423 20.806 C 11.352 19.991,10.498 18.697,10.173 17.393 C 10.078 17.011,10.059 16.775,10.058 16.000 C 10.057 14.980,10.136 14.531,10.453 13.751 C 11.241 11.817,13.132 10.335,15.140 10.078 C 15.712 10.005,16.932 10.064,17.417 10.188 " fill="#1A1C1F" stroke="none" fill-rule="evenodd"></path></svg>