<svg width="20" height="20" viewBox="0 0 20 20" fill="none" xmlns="http://www.w3.org/2000/svg"><path d="M10.794 4.532 C 10.550 4.579,10.301 4.857,10.249 5.139 C 10.213 5.338,10.306 5.593,10.474 5.754 C 10.702 5.975,10.724 5.981,11.350 5.994 C 11.662 6.000,11.928 6.016,11.941 6.029 C 11.971 6.057,12.305 7.100,12.417 7.513 L 12.498 7.810 12.226 8.163 C 12.077 8.358,11.521 9.075,10.992 9.758 L 10.029 11.000 9.754 11.000 L 9.480 11.000 8.886 9.042 C 8.559 7.965,8.290 7.072,8.287 7.057 C 8.285 7.043,8.366 7.003,8.467 6.968 C 8.597 6.924,8.690 6.861,8.787 6.755 C 9.114 6.394,9.049 5.890,8.642 5.632 L 8.487 5.533 7.247 5.533 L 6.008 5.533 5.845 5.642 C 5.730 5.719,5.657 5.802,5.592 5.931 C 5.437 6.236,5.485 6.520,5.733 6.769 C 5.911 6.948,6.071 7.000,6.443 7.000 L 6.690 7.000 6.982 7.976 L 7.275 8.951 6.841 9.667 C 6.602 10.061,6.394 10.380,6.378 10.376 C 6.363 10.373,6.227 10.316,6.077 10.250 C 5.669 10.071,5.397 10.024,4.883 10.043 C 4.563 10.055,4.389 10.078,4.217 10.133 C 3.323 10.416,2.617 11.129,2.365 12.003 C 2.263 12.358,2.239 12.975,2.315 13.314 C 2.673 14.922,4.287 15.861,5.833 15.361 C 6.467 15.156,7.057 14.680,7.368 14.121 C 7.503 13.879,7.674 13.397,7.716 13.142 L 7.739 13.000 8.981 13.000 C 10.220 13.000,10.224 13.000,10.337 12.924 C 10.480 12.827,10.816 12.426,11.688 11.307 C 12.873 9.788,13.059 9.561,13.085 9.603 C 13.099 9.625,13.174 9.840,13.253 10.080 L 13.397 10.517 13.184 10.709 C 12.079 11.708,11.951 13.396,12.896 14.511 C 13.233 14.910,13.732 15.237,14.250 15.400 C 14.449 15.463,14.560 15.474,15.000 15.474 C 15.598 15.474,15.778 15.432,16.283 15.173 C 16.532 15.046,16.640 14.963,16.917 14.685 C 17.299 14.301,17.454 14.057,17.608 13.600 C 17.709 13.300,17.715 13.257,17.715 12.783 C 17.715 12.201,17.675 12.012,17.450 11.550 C 17.020 10.663,16.106 10.072,15.085 10.021 C 14.894 10.011,14.845 9.997,14.807 9.939 C 14.747 9.849,14.331 8.558,14.354 8.534 C 14.364 8.525,14.798 8.512,15.318 8.507 L 16.264 8.497 16.450 8.327 C 16.688 8.110,17.148 7.426,17.218 7.185 C 17.283 6.959,17.259 6.812,17.121 6.606 C 16.973 6.385,16.777 6.284,16.500 6.285 C 16.174 6.286,16.016 6.394,15.730 6.808 L 15.598 7.000 14.721 7.000 L 13.844 7.000 13.569 6.158 C 13.114 4.770,13.093 4.729,12.776 4.570 C 12.644 4.504,12.589 4.500,11.776 4.504 C 11.304 4.506,10.861 4.518,10.794 4.532 M5.533 11.653 C 5.797 11.779,6.000 11.977,6.124 12.228 C 6.207 12.397,6.217 12.452,6.216 12.751 C 6.215 13.049,6.205 13.106,6.121 13.277 C 5.998 13.528,5.764 13.764,5.517 13.885 C 5.338 13.972,5.283 13.983,5.000 13.983 C 4.717 13.983,4.662 13.972,4.483 13.885 C 4.237 13.765,4.013 13.540,3.892 13.292 C 3.809 13.123,3.800 13.069,3.800 12.751 C 3.800 12.427,3.808 12.382,3.898 12.204 C 4.019 11.963,4.307 11.695,4.542 11.602 C 4.816 11.495,5.246 11.517,5.533 11.653 M15.533 11.653 C 15.797 11.779,16.000 11.977,16.124 12.228 C 16.207 12.397,16.217 12.452,16.216 12.751 C 16.215 13.049,16.205 13.106,16.121 13.277 C 15.998 13.528,15.764 13.764,15.517 13.885 C 15.338 13.972,15.283 13.983,15.000 13.983 C 14.717 13.983,14.662 13.972,14.483 13.885 C 14.237 13.765,14.013 13.540,13.892 13.292 C 13.809 13.123,13.800 13.069,13.800 12.751 C 13.800 12.427,13.808 12.382,13.898 12.204 C 14.019 11.963,14.307 11.695,14.542 11.602 C 14.816 11.495,15.246 11.517,15.533 11.653 " fill="#1A1C1F" stroke="none" fill-rule="evenodd"></path></svg>