<svg width="24" height="24" viewBox="0 0 24 24" fill="none" xmlns="http://www.w3.org/2000/svg"><path d="M12.960 5.028 C 12.666 5.050,12.604 5.075,12.417 5.247 C 12.039 5.595,12.043 6.165,12.426 6.527 C 12.611 6.702,12.738 6.727,13.569 6.757 C 14.003 6.772,14.365 6.793,14.373 6.803 C 14.381 6.812,14.532 7.244,14.710 7.763 L 15.033 8.705 13.786 10.364 C 12.048 12.677,11.755 13.052,11.720 13.013 C 11.642 12.927,9.594 7.872,9.616 7.817 C 9.625 7.792,9.768 7.762,9.936 7.749 C 10.146 7.733,10.292 7.697,10.410 7.633 C 10.606 7.525,10.824 7.225,10.865 7.009 C 10.918 6.722,10.751 6.356,10.470 6.146 C 10.332 6.043,9.711 6.005,8.128 6.002 C 6.750 6.000,6.663 6.014,6.399 6.277 C 6.081 6.595,6.043 6.977,6.294 7.350 C 6.494 7.649,6.686 7.732,7.223 7.753 L 7.669 7.770 8.054 8.723 C 8.266 9.247,8.440 9.708,8.440 9.749 C 8.440 9.879,7.555 11.174,7.331 11.372 C 7.253 11.441,7.234 11.440,6.835 11.358 C 6.289 11.245,5.423 11.264,4.964 11.398 C 3.150 11.925,1.970 13.648,2.156 15.497 C 2.318 17.108,3.464 18.445,5.055 18.881 C 5.494 19.002,6.471 19.003,6.931 18.883 C 8.285 18.532,9.391 17.418,9.743 16.050 L 9.816 15.767 10.758 15.753 C 11.640 15.739,11.711 15.733,11.868 15.649 C 12.071 15.542,12.370 15.167,14.313 12.582 L 15.694 10.744 15.847 11.201 C 15.931 11.452,16.000 11.689,16.000 11.728 C 16.000 11.769,15.852 11.915,15.647 12.077 C 14.008 13.370,13.654 15.585,14.813 17.300 C 15.319 18.049,16.177 18.648,17.080 18.883 C 17.566 19.010,18.434 19.010,18.920 18.883 C 20.353 18.509,21.493 17.337,21.778 15.945 C 21.873 15.485,21.865 14.630,21.763 14.233 C 21.579 13.511,21.227 12.892,20.723 12.400 C 19.980 11.675,19.219 11.336,18.232 11.292 L 17.723 11.269 17.482 10.547 C 17.350 10.150,17.251 9.815,17.264 9.803 C 17.276 9.790,17.722 9.771,18.253 9.759 C 19.084 9.741,19.239 9.728,19.354 9.666 C 19.511 9.581,20.422 8.707,20.645 8.428 C 20.846 8.175,20.903 7.965,20.843 7.698 C 20.753 7.294,20.409 7.025,19.977 7.022 C 19.674 7.020,19.557 7.092,19.006 7.620 L 18.609 8.001 17.620 7.991 L 16.630 7.980 16.243 6.838 C 16.030 6.210,15.812 5.608,15.758 5.500 C 15.613 5.210,15.428 5.081,15.095 5.038 C 14.837 5.005,13.358 4.998,12.960 5.028 M9.326 11.890 C 9.412 12.051,10.160 13.897,10.160 13.949 C 10.160 13.989,9.898 14.000,8.936 14.000 C 7.934 14.000,7.715 13.990,7.732 13.947 C 7.773 13.840,9.227 11.800,9.262 11.800 C 9.270 11.800,9.299 11.841,9.326 11.890 M6.171 13.024 C 6.185 13.038,5.973 13.378,5.700 13.780 C 5.392 14.235,5.195 14.567,5.178 14.658 C 5.100 15.070,5.253 15.430,5.589 15.628 L 5.780 15.740 6.891 15.754 L 8.003 15.768 7.978 15.854 C 7.874 16.206,7.308 16.844,6.946 17.016 C 6.108 17.412,5.219 17.276,4.555 16.649 C 3.598 15.747,3.699 14.204,4.768 13.417 C 5.017 13.234,5.346 13.092,5.640 13.041 C 5.869 13.001,6.139 12.993,6.171 13.024 M18.776 13.167 C 19.937 13.622,20.433 14.990,19.852 16.135 C 19.736 16.364,19.416 16.717,19.170 16.886 C 18.732 17.188,18.033 17.314,17.520 17.184 C 17.127 17.084,16.858 16.936,16.561 16.655 C 16.072 16.194,15.817 15.487,15.909 14.850 C 15.961 14.488,16.195 13.988,16.445 13.704 L 16.614 13.512 16.879 14.286 C 17.287 15.478,17.353 15.591,17.716 15.714 C 18.064 15.832,18.503 15.693,18.717 15.398 C 18.947 15.081,18.933 14.930,18.571 13.820 C 18.449 13.446,18.340 13.115,18.329 13.086 C 18.303 13.019,18.480 13.051,18.776 13.167 " fill="#1A1C1F" stroke="none" fill-rule="evenodd"></path></svg>