<svg width="32" height="32" viewBox="0 0 32 32" fill="none" xmlns="http://www.w3.org/2000/svg"><path d="M17.760 7.045 C 16.915 7.303,16.759 8.314,17.485 8.824 L 17.716 8.987 18.988 9.003 L 20.261 9.020 20.420 9.537 C 20.507 9.821,20.631 10.228,20.695 10.440 L 20.811 10.828 20.287 11.480 C 18.708 13.452,15.456 17.387,15.408 17.387 C 15.356 17.387,15.411 17.544,14.105 13.641 C 13.450 11.683,12.931 10.072,12.951 10.061 C 12.970 10.050,13.112 10.000,13.264 9.950 C 13.701 9.808,13.973 9.445,13.973 9.008 C 13.973 8.724,13.866 8.491,13.630 8.267 C 13.444 8.089,13.411 8.078,12.944 8.045 C 12.110 7.986,9.965 7.995,9.734 8.060 C 9.406 8.151,9.086 8.500,9.038 8.820 C 8.966 9.303,9.191 9.723,9.613 9.893 C 9.738 9.944,10.036 9.998,10.275 10.013 C 10.515 10.029,10.733 10.056,10.761 10.074 C 10.819 10.111,11.601 12.457,11.653 12.747 C 11.685 12.925,11.654 12.972,10.962 13.800 C 10.564 14.277,10.216 14.667,10.190 14.667 C 10.164 14.667,9.943 14.581,9.698 14.476 C 8.829 14.104,8.601 14.067,7.366 14.093 C 6.105 14.119,5.936 14.157,5.043 14.612 C 3.889 15.199,3.061 16.057,2.509 17.237 C 1.304 19.811,2.366 22.956,4.907 24.339 C 5.097 24.443,5.517 24.618,5.840 24.728 C 6.416 24.925,6.444 24.929,7.373 24.950 C 8.268 24.969,8.346 24.963,8.806 24.831 C 9.858 24.529,10.485 24.193,11.162 23.568 C 11.940 22.850,12.395 22.144,12.723 21.148 L 12.922 20.544 14.048 20.521 C 14.774 20.506,15.235 20.473,15.347 20.430 C 15.555 20.349,15.912 19.939,18.970 16.267 C 20.203 14.785,21.286 13.504,21.378 13.418 C 21.570 13.238,21.533 13.183,21.785 14.021 L 21.963 14.615 21.608 14.845 C 20.292 15.698,19.458 16.891,19.109 18.422 C 18.970 19.031,18.994 20.113,19.162 20.751 C 19.462 21.895,19.882 22.622,20.714 23.440 C 21.475 24.187,22.351 24.661,23.387 24.885 C 24.053 25.028,25.114 25.007,25.764 24.838 C 27.462 24.394,28.711 23.377,29.446 21.840 C 29.864 20.964,29.947 20.568,29.944 19.467 C 29.941 18.608,29.929 18.495,29.795 18.053 C 29.417 16.805,28.777 15.859,27.827 15.143 C 26.785 14.358,25.875 14.074,24.214 14.013 L 23.868 14.000 23.582 13.047 C 23.350 12.277,23.309 12.084,23.368 12.047 C 23.407 12.022,24.052 12.001,24.800 12.000 C 26.049 11.998,26.180 11.989,26.400 11.889 C 26.684 11.762,27.771 10.680,27.910 10.387 C 28.131 9.920,27.897 9.350,27.387 9.114 C 26.924 8.901,26.624 9.008,25.994 9.612 L 25.562 10.027 24.117 10.027 L 22.673 10.027 22.480 9.400 C 21.916 7.565,21.797 7.297,21.479 7.132 C 21.295 7.037,21.135 7.027,19.612 7.008 C 18.524 6.995,17.882 7.008,17.760 7.045 M13.037 16.793 C 13.317 17.639,13.547 18.370,13.547 18.418 C 13.547 18.499,13.377 18.507,11.627 18.507 C 10.571 18.507,9.707 18.488,9.707 18.464 C 9.707 18.420,10.839 17.058,11.854 15.881 C 12.176 15.507,12.459 15.214,12.483 15.229 C 12.507 15.243,12.756 15.947,13.037 16.793 M8.347 16.138 C 8.552 16.181,8.752 16.236,8.792 16.261 C 8.845 16.294,8.696 16.507,8.204 17.099 C 6.697 18.913,6.619 19.016,6.565 19.259 C 6.505 19.523,6.563 19.874,6.702 20.086 C 6.750 20.158,6.898 20.282,7.032 20.360 L 7.275 20.503 8.994 20.533 C 9.940 20.549,10.730 20.579,10.750 20.599 C 10.802 20.651,10.642 21.026,10.421 21.373 C 10.016 22.006,9.347 22.533,8.600 22.808 C 8.231 22.944,8.119 22.960,7.547 22.960 C 6.632 22.959,6.084 22.783,5.401 22.269 C 4.815 21.829,4.327 21.101,4.127 20.369 C 3.981 19.831,4.002 19.017,4.178 18.480 C 4.526 17.414,5.240 16.657,6.299 16.229 C 6.849 16.007,7.568 15.975,8.347 16.138 M25.162 16.083 C 26.437 16.340,27.489 17.304,27.861 18.556 C 27.978 18.953,27.978 20.034,27.861 20.430 C 27.491 21.676,26.447 22.651,25.216 22.903 C 24.696 23.009,24.318 23.009,23.798 22.903 C 22.716 22.683,21.859 22.021,21.389 21.040 C 21.120 20.480,21.045 20.140,21.045 19.493 C 21.045 18.608,21.252 18.017,21.806 17.320 C 22.070 16.989,22.439 16.640,22.525 16.640 C 22.552 16.640,22.822 17.450,23.329 19.050 C 23.521 19.656,23.676 20.050,23.762 20.153 C 24.056 20.502,24.660 20.569,25.072 20.296 C 25.269 20.166,25.493 19.792,25.493 19.595 C 25.493 19.410,24.702 16.610,24.504 16.093 C 24.458 15.973,24.605 15.971,25.162 16.083 " fill="#1A1C1F" stroke="none" fill-rule="evenodd"></path></svg>