<svg width="20" height="20" viewBox="0 0 20 20" fill="none" xmlns="http://www.w3.org/2000/svg"><path d="M4.350 2.033 C 3.669 2.049,3.454 2.064,3.348 2.106 C 2.938 2.267,2.654 2.474,2.420 2.780 C 2.083 3.222,1.925 3.903,2.037 4.440 C 2.171 5.088,2.837 5.421,3.422 5.133 C 3.786 4.954,4.000 4.608,4.000 4.199 L 4.000 4.000 9.996 4.000 L 15.991 4.000 16.007 4.258 C 16.032 4.674,16.244 4.984,16.622 5.157 C 16.776 5.227,16.842 5.238,17.044 5.227 C 17.430 5.206,17.722 5.015,17.890 4.674 C 17.978 4.495,17.983 4.459,17.981 4.067 C 17.976 3.408,17.822 3.018,17.400 2.603 C 17.182 2.388,16.895 2.198,16.662 2.114 C 16.559 2.077,16.302 2.053,15.783 2.032 C 14.989 2.000,5.767 2.001,4.350 2.033 M4.833 6.031 C 3.537 6.050,3.476 6.054,3.298 6.125 C 2.743 6.349,2.313 6.800,2.107 7.373 L 2.020 7.617 2.008 11.950 L 1.996 16.283 2.080 16.529 C 2.306 17.183,2.773 17.685,3.338 17.885 C 3.635 17.990,4.516 18.003,10.467 17.993 C 16.070 17.983,16.359 17.980,16.533 17.921 C 17.217 17.693,17.686 17.224,17.921 16.533 C 17.981 16.358,17.983 16.164,17.983 11.983 L 17.983 7.617 17.895 7.378 C 17.713 6.888,17.361 6.477,16.930 6.250 C 16.464 6.005,16.906 6.024,11.267 6.017 C 8.471 6.014,5.576 6.020,4.833 6.031 M16.000 12.000 L 16.000 16.000 10.000 16.000 L 4.000 16.000 4.000 12.000 L 4.000 8.000 10.000 8.000 L 16.000 8.000 16.000 12.000 M12.781 9.064 C 12.233 9.162,11.927 9.282,11.550 9.550 C 11.024 9.923,10.665 10.502,10.517 11.217 C 10.402 11.774,10.418 12.770,10.549 13.276 C 10.718 13.922,11.081 14.449,11.594 14.789 C 12.121 15.139,12.942 15.308,13.759 15.234 C 14.192 15.195,14.918 15.032,14.985 14.959 C 15.015 14.926,15.000 14.749,14.920 14.193 C 14.863 13.795,14.801 13.454,14.783 13.437 C 14.762 13.416,14.637 13.429,14.433 13.473 C 13.997 13.568,13.235 13.576,12.955 13.490 C 12.706 13.413,12.470 13.188,12.389 12.951 C 12.306 12.708,12.256 12.222,12.279 11.885 C 12.318 11.329,12.451 11.034,12.748 10.851 L 12.911 10.750 13.522 10.740 C 13.972 10.732,14.206 10.743,14.411 10.781 C 14.796 10.854,14.824 10.851,14.847 10.742 C 14.863 10.665,14.966 9.368,14.967 9.244 C 14.967 9.169,14.207 9.052,13.517 9.022 C 13.216 9.009,13.033 9.019,12.781 9.064 M5.000 12.129 L 5.000 15.133 6.368 15.133 C 7.841 15.133,8.216 15.108,8.662 14.979 C 9.023 14.874,9.230 14.762,9.467 14.544 C 9.805 14.232,9.955 13.822,9.923 13.299 C 9.882 12.645,9.605 12.288,8.966 12.066 L 8.688 11.970 8.799 11.910 C 9.270 11.655,9.490 11.412,9.565 11.062 C 9.641 10.706,9.571 10.160,9.422 9.936 C 9.277 9.719,9.021 9.498,8.783 9.384 C 8.365 9.182,8.160 9.161,6.492 9.142 L 5.000 9.125 5.000 12.129 M7.803 10.675 C 7.965 10.785,8.005 10.960,7.912 11.155 C 7.822 11.345,7.715 11.379,7.158 11.394 L 6.667 11.407 6.667 11.001 L 6.667 10.594 7.192 10.605 C 7.626 10.615,7.732 10.627,7.803 10.675 M8.000 12.718 C 8.219 12.845,8.299 13.163,8.171 13.401 C 8.132 13.474,8.051 13.546,7.951 13.598 C 7.806 13.672,7.746 13.680,7.230 13.694 L 6.667 13.709 6.667 13.168 L 6.667 12.628 7.275 12.639 C 7.814 12.649,7.897 12.658,8.000 12.718 " fill="#1A1C1F" stroke="none" fill-rule="evenodd"></path></svg>