<svg width="32" height="32" viewBox="0 0 32 32" fill="none" xmlns="http://www.w3.org/2000/svg"><path d="M6.716 6.558 L 5.191 6.587 4.727 6.817 C 3.922 7.216,3.310 7.937,3.087 8.747 C 3.038 8.925,3.016 10.126,3.001 13.458 C 2.979 18.438,2.956 18.082,3.351 18.853 C 3.593 19.326,4.168 19.911,4.626 20.151 C 4.808 20.247,5.120 20.360,5.319 20.402 C 5.746 20.492,7.122 20.507,7.343 20.423 C 7.669 20.300,7.996 19.842,7.999 19.505 C 8.000 19.313,7.867 18.996,7.717 18.836 C 7.490 18.592,7.320 18.546,6.507 18.507 C 5.958 18.480,5.684 18.445,5.566 18.383 C 5.362 18.278,5.134 18.015,5.080 17.823 C 5.058 17.744,5.041 15.759,5.042 13.411 L 5.044 9.142 5.164 8.973 C 5.230 8.880,5.361 8.749,5.455 8.682 L 5.627 8.560 13.021 8.566 L 20.416 8.572 20.583 8.690 C 20.791 8.839,20.934 9.114,21.006 9.507 C 21.099 10.010,21.282 10.264,21.666 10.424 C 21.898 10.521,21.985 10.525,22.252 10.451 C 22.867 10.280,23.122 9.629,22.903 8.785 C 22.672 7.893,22.063 7.174,21.190 6.762 C 20.881 6.616,20.797 6.603,19.910 6.558 C 18.922 6.508,9.379 6.508,6.716 6.558 M12.213 11.571 C 11.355 11.596,11.132 11.619,10.933 11.704 C 10.185 12.022,9.584 12.607,9.254 13.340 C 9.135 13.604,9.091 13.800,9.060 14.213 C 9.007 14.909,9.007 22.104,9.060 22.812 C 9.097 23.302,9.123 23.402,9.324 23.808 C 9.688 24.541,10.216 25.011,11.034 25.329 L 11.387 25.466 18.507 25.482 C 22.423 25.491,25.897 25.477,26.227 25.451 C 26.776 25.408,26.865 25.385,27.267 25.184 C 28.047 24.796,28.523 24.262,28.853 23.407 L 29.019 22.974 29.000 18.487 C 28.983 14.410,28.973 13.971,28.888 13.680 C 28.669 12.928,28.027 12.177,27.290 11.813 C 26.905 11.623,26.873 11.617,26.048 11.571 C 25.140 11.521,13.947 11.521,12.213 11.571 M26.531 13.697 C 26.647 13.777,26.791 13.925,26.851 14.027 C 26.958 14.211,26.960 14.276,26.960 18.507 L 26.960 22.800 26.833 23.004 C 26.764 23.116,26.610 23.272,26.491 23.350 L 26.274 23.493 19.017 23.493 L 11.760 23.493 11.536 23.373 C 11.396 23.299,11.260 23.167,11.176 23.022 L 11.040 22.791 11.040 18.532 C 11.040 14.385,11.043 14.268,11.147 14.054 C 11.205 13.933,11.331 13.775,11.427 13.703 C 11.600 13.573,11.602 13.573,13.333 13.542 C 14.287 13.524,17.599 13.519,20.693 13.531 L 26.320 13.553 26.531 13.697 M22.160 14.800 C 21.447 14.934,20.913 15.191,20.470 15.613 C 19.754 16.297,19.408 17.228,19.396 18.507 C 19.384 19.863,19.736 20.841,20.472 21.495 C 21.050 22.008,21.662 22.223,22.693 22.275 C 24.107 22.346,24.799 22.058,24.800 21.397 C 24.800 21.100,24.689 20.892,24.451 20.745 C 24.266 20.631,24.243 20.629,23.753 20.694 C 23.128 20.777,22.492 20.739,22.180 20.601 C 21.545 20.320,21.280 19.713,21.280 18.541 C 21.280 16.716,21.856 16.166,23.600 16.327 C 24.107 16.374,24.171 16.370,24.362 16.272 C 24.752 16.074,24.882 15.694,24.700 15.283 C 24.558 14.961,24.318 14.852,23.581 14.777 C 22.896 14.706,22.634 14.711,22.160 14.800 M13.393 14.933 C 13.294 14.957,13.139 15.049,13.050 15.139 C 12.895 15.293,12.885 15.331,12.847 15.878 C 12.798 16.576,12.797 20.461,12.845 21.191 L 12.880 21.714 13.097 21.917 C 13.312 22.117,13.319 22.120,13.870 22.154 C 14.176 22.174,14.931 22.168,15.547 22.141 C 16.545 22.098,16.713 22.077,17.098 21.949 C 18.115 21.609,18.580 20.902,18.490 19.830 C 18.433 19.149,18.010 18.639,17.316 18.411 L 16.993 18.305 17.262 18.169 C 17.793 17.900,18.096 17.395,18.099 16.773 C 18.102 16.220,17.968 15.879,17.604 15.516 C 17.235 15.147,16.878 15.002,16.166 14.933 C 15.552 14.873,13.647 14.873,13.393 14.933 M15.724 16.423 C 16.220 16.481,16.373 16.603,16.373 16.942 C 16.373 17.120,16.339 17.211,16.218 17.346 L 16.062 17.520 15.338 17.539 L 14.613 17.557 14.613 16.965 L 14.613 16.373 14.973 16.376 C 15.171 16.377,15.509 16.398,15.724 16.423 M16.322 19.234 C 16.609 19.349,16.747 19.534,16.747 19.807 C 16.746 20.117,16.600 20.372,16.347 20.503 C 16.167 20.596,16.014 20.616,15.373 20.632 L 14.613 20.650 14.613 19.863 L 14.613 19.077 15.361 19.113 C 15.846 19.136,16.183 19.178,16.322 19.234 " fill="#1A1C1F" stroke="none" fill-rule="evenodd"></path></svg>