<svg width="24" height="24" viewBox="0 0 24 24" fill="none" xmlns="http://www.w3.org/2000/svg"><path d="M5.031 10.641 C 4.555 10.716,3.876 11.127,3.549 11.537 C 3.191 11.986,2.967 12.709,3.014 13.264 C 3.102 14.303,3.836 15.202,4.837 15.496 C 5.169 15.594,5.893 15.583,6.211 15.477 C 6.773 15.288,7.279 14.910,7.584 14.452 C 7.925 13.938,8.070 13.193,7.945 12.600 C 7.758 11.718,7.022 10.923,6.180 10.694 C 5.918 10.622,5.320 10.595,5.031 10.641 M11.479 12.119 C 10.855 12.200,10.207 12.551,9.697 13.085 C 9.563 13.225,9.406 13.423,9.347 13.524 C 9.202 13.773,9.037 14.254,9.011 14.506 C 8.956 15.032,9.335 15.510,9.860 15.579 C 10.405 15.650,10.835 15.329,11.004 14.725 C 11.039 14.600,11.116 14.480,11.243 14.353 C 11.477 14.119,11.591 14.099,12.438 14.135 C 13.317 14.173,19.890 14.596,19.950 14.619 C 19.977 14.629,20.000 14.698,20.000 14.771 C 20.000 15.045,20.117 15.321,20.318 15.522 C 20.595 15.799,20.946 15.871,21.383 15.741 C 21.783 15.622,21.966 15.350,21.991 14.840 C 22.023 14.189,21.815 13.645,21.365 13.199 C 20.890 12.729,20.666 12.660,19.300 12.560 C 18.505 12.502,13.192 12.167,12.640 12.141 C 12.387 12.128,12.072 12.112,11.940 12.104 C 11.808 12.097,11.601 12.103,11.479 12.119 M5.716 12.658 C 5.950 12.779,6.033 13.103,5.897 13.365 C 5.837 13.481,5.635 13.600,5.497 13.600 C 5.372 13.600,5.156 13.468,5.098 13.357 C 5.005 13.177,5.022 12.870,5.130 12.772 C 5.331 12.590,5.515 12.554,5.716 12.658 M3.120 16.636 C 2.590 16.661,2.461 16.705,2.251 16.928 C 2.025 17.169,1.955 17.717,2.111 18.021 C 2.289 18.366,2.579 18.546,3.023 18.588 C 3.325 18.616,3.311 18.564,3.201 19.249 C 3.158 19.519,3.093 19.962,3.059 20.233 C 3.000 20.690,3.000 20.740,3.063 20.929 C 3.202 21.347,3.654 21.638,4.087 21.587 C 4.333 21.557,4.658 21.383,4.791 21.209 C 4.924 21.035,4.962 20.878,5.168 19.660 L 5.340 18.640 12.000 18.640 L 18.660 18.640 18.832 19.661 C 19.032 20.845,19.082 21.034,19.239 21.213 C 19.383 21.377,19.693 21.548,19.908 21.583 C 20.126 21.618,20.422 21.517,20.631 21.339 C 20.823 21.174,21.000 20.841,21.000 20.642 C 21.000 20.564,20.937 20.105,20.860 19.623 C 20.783 19.140,20.720 18.716,20.720 18.679 C 20.720 18.625,20.773 18.607,20.977 18.588 C 21.602 18.529,21.973 18.160,21.969 17.601 C 21.966 17.157,21.780 16.857,21.403 16.685 C 21.272 16.626,20.491 16.620,12.440 16.616 C 7.589 16.614,3.395 16.623,3.120 16.636 " fill="#1A1C1F" stroke="none" fill-rule="evenodd"></path></svg>