<svg width="20" height="20" viewBox="0 0 20 20" fill="none" xmlns="http://www.w3.org/2000/svg"><path d="M7.150 4.428 C 6.405 4.813,5.107 5.518,4.691 5.764 C 4.385 5.945,4.278 6.064,4.199 6.313 C 4.104 6.617,4.230 7.061,4.484 7.315 C 4.668 7.499,4.848 7.576,5.133 7.592 L 5.383 7.606 5.850 7.372 C 6.107 7.243,6.470 7.053,6.658 6.951 L 7.000 6.765 7.000 10.346 L 7.000 13.927 5.875 13.942 C 5.136 13.952,4.707 13.970,4.626 13.996 C 4.453 14.052,4.181 14.328,4.078 14.553 C 4.005 14.711,3.994 14.774,4.008 14.946 C 4.039 15.330,4.274 15.665,4.640 15.847 L 4.813 15.933 8.001 15.933 L 11.189 15.933 11.393 15.831 C 11.938 15.559,12.150 14.963,11.879 14.466 C 11.773 14.270,11.626 14.136,11.385 14.016 L 11.220 13.933 10.110 13.933 L 9.000 13.933 9.000 9.399 L 9.000 4.864 8.917 4.700 C 8.794 4.458,8.654 4.315,8.426 4.202 C 8.260 4.119,8.182 4.100,8.003 4.101 C 7.791 4.101,7.762 4.112,7.150 4.428 M14.712 13.979 C 14.529 14.039,14.289 14.214,14.186 14.363 C 13.911 14.761,13.952 15.232,14.293 15.596 C 14.506 15.822,14.684 15.898,15.003 15.899 C 15.220 15.900,15.285 15.885,15.462 15.797 C 16.187 15.435,16.168 14.408,15.429 14.031 C 15.257 13.943,14.900 13.917,14.712 13.979 " fill="#1A1C1F" stroke="none" fill-rule="evenodd"></path></svg>