<svg width="24" height="24" viewBox="0 0 24 24" fill="none" xmlns="http://www.w3.org/2000/svg"><path d="M9.703 5.048 C 9.466 5.136,6.197 6.866,5.532 7.256 C 5.263 7.414,5.150 7.544,5.059 7.802 C 4.979 8.029,4.985 8.196,5.080 8.450 C 5.217 8.818,5.623 9.119,5.980 9.118 C 6.237 9.117,6.473 9.014,7.694 8.369 C 8.328 8.034,8.861 7.760,8.878 7.760 C 8.945 7.760,8.960 8.608,8.960 12.706 L 8.960 16.992 7.350 17.007 C 5.560 17.024,5.598 17.018,5.303 17.305 C 5.089 17.513,5.025 17.662,5.025 17.960 C 5.025 18.288,5.093 18.490,5.267 18.683 C 5.552 18.998,5.259 18.980,10.000 18.980 C 14.608 18.980,14.391 18.991,14.670 18.746 C 14.873 18.567,14.968 18.328,14.972 17.984 C 14.976 17.660,14.919 17.521,14.697 17.305 C 14.401 17.018,14.442 17.024,12.631 17.007 L 11.003 16.992 10.991 11.366 L 10.980 5.740 10.871 5.554 C 10.749 5.347,10.561 5.173,10.380 5.099 C 10.202 5.026,9.837 4.999,9.703 5.048 M17.752 17.038 C 17.670 17.054,17.528 17.119,17.436 17.183 C 16.810 17.616,16.893 18.616,17.578 18.902 C 17.787 18.989,18.214 18.990,18.420 18.903 C 18.781 18.751,18.972 18.436,18.969 17.996 C 18.966 17.432,18.656 17.087,18.100 17.030 C 17.990 17.018,17.833 17.022,17.752 17.038 " fill="#1A1C1F" stroke="none" fill-rule="evenodd"></path></svg>