<svg width="32" height="32" viewBox="0 0 32 32" fill="none" xmlns="http://www.w3.org/2000/svg"><path d="M12.576 6.872 C 11.909 7.214,9.271 8.636,7.896 9.396 C 7.334 9.706,7.275 9.755,7.149 9.999 C 6.883 10.518,7.042 11.067,7.533 11.320 C 7.977 11.550,8.035 11.535,9.286 10.891 C 9.913 10.567,10.871 10.064,11.413 9.772 L 12.400 9.241 12.435 9.674 C 12.454 9.912,12.472 13.121,12.475 16.805 L 12.480 23.504 9.813 23.532 C 7.146 23.561,7.145 23.561,6.968 23.682 C 6.671 23.885,6.537 24.131,6.535 24.474 C 6.532 25.074,6.853 25.412,7.503 25.496 C 7.703 25.522,10.519 25.544,13.760 25.544 L 19.653 25.546 19.929 25.388 C 20.340 25.152,20.451 24.966,20.450 24.508 C 20.449 24.059,20.363 23.901,20.006 23.691 L 19.760 23.547 17.133 23.531 L 14.507 23.514 14.505 15.664 C 14.504 11.346,14.482 7.651,14.457 7.452 C 14.401 7.019,14.229 6.758,13.900 6.609 C 13.524 6.438,13.358 6.471,12.576 6.872 M24.202 23.573 C 23.958 23.646,23.748 23.830,23.631 24.071 C 23.495 24.353,23.491 24.652,23.620 24.933 C 24.004 25.769,25.227 25.636,25.443 24.735 C 25.618 24.005,24.924 23.355,24.202 23.573 " fill="#1A1C1F" stroke="none" fill-rule="evenodd"></path></svg>