<svg width="20" height="20" viewBox="0 0 20 20" fill="none" xmlns="http://www.w3.org/2000/svg"><path d="M3.333 3.031 C 3.035 3.091,2.776 3.289,2.644 3.559 C 2.566 3.719,2.551 3.792,2.551 4.017 C 2.550 4.341,2.606 4.472,2.851 4.717 C 3.073 4.938,3.239 4.985,3.967 5.033 C 5.894 5.160,7.379 5.542,9.193 6.378 C 11.690 7.529,14.122 9.455,15.280 11.200 C 15.532 11.579,15.776 12.061,15.871 12.367 C 15.936 12.574,15.949 12.688,15.948 13.033 C 15.946 13.586,15.883 13.759,15.570 14.067 C 15.009 14.620,13.959 14.887,12.017 14.968 C 10.652 15.026,10.465 15.043,10.298 15.129 C 10.098 15.232,9.917 15.413,9.829 15.598 C 9.724 15.818,9.724 16.193,9.828 16.407 C 9.927 16.609,10.228 16.886,10.410 16.941 C 10.628 17.007,12.307 16.994,13.017 16.921 C 14.846 16.732,16.030 16.329,16.871 15.610 C 17.507 15.066,17.862 14.356,17.969 13.414 C 18.076 12.484,17.822 11.537,17.172 10.440 C 15.894 8.282,13.164 6.025,10.122 4.611 C 8.099 3.672,6.278 3.180,4.283 3.034 C 3.767 2.997,3.509 2.996,3.333 3.031 M5.317 8.038 C 4.639 8.124,3.904 8.452,3.482 8.857 C 2.974 9.345,2.737 9.926,2.735 10.683 C 2.734 11.303,2.931 11.812,3.344 12.254 C 3.639 12.571,3.951 12.782,4.529 13.058 C 5.921 13.721,5.968 13.749,6.055 13.956 C 6.122 14.116,6.111 14.356,6.029 14.525 C 5.891 14.810,5.520 14.956,4.850 14.989 C 4.400 15.011,4.038 14.973,3.503 14.845 C 3.012 14.729,2.759 14.730,2.535 14.852 C 2.439 14.904,2.322 14.993,2.275 15.048 C 1.894 15.499,1.936 16.207,2.362 16.517 C 2.894 16.904,4.597 17.114,5.619 16.918 C 6.882 16.676,7.785 15.927,8.049 14.904 C 8.181 14.394,8.141 13.732,7.949 13.249 C 7.647 12.487,7.093 12.029,5.741 11.426 C 5.182 11.177,4.906 11.018,4.821 10.896 C 4.788 10.849,4.767 10.751,4.767 10.648 C 4.767 10.417,4.863 10.280,5.115 10.151 C 5.310 10.051,5.317 10.050,5.936 10.039 C 6.518 10.028,6.582 10.033,6.890 10.113 C 7.365 10.235,7.554 10.251,7.770 10.189 C 8.018 10.116,8.206 9.947,8.340 9.674 C 8.435 9.481,8.450 9.418,8.449 9.201 C 8.448 8.988,8.433 8.923,8.350 8.771 C 8.184 8.468,7.961 8.327,7.423 8.182 C 6.814 8.018,5.942 7.959,5.317 8.038 " fill="#1A1C1F" stroke="none" fill-rule="evenodd"></path></svg>