<svg width="24" height="24" viewBox="0 0 24 24" fill="none" xmlns="http://www.w3.org/2000/svg"><path d="M3.729 3.642 C 3.282 3.731,2.911 4.251,2.978 4.697 C 3.028 5.035,3.317 5.405,3.620 5.520 C 3.686 5.545,4.019 5.583,4.360 5.604 C 6.445 5.732,7.999 6.066,9.820 6.780 C 12.356 7.773,14.765 9.262,16.574 10.955 C 18.039 12.326,18.949 13.577,19.344 14.760 C 19.448 15.073,19.457 15.148,19.458 15.700 C 19.458 16.390,19.407 16.579,19.109 16.981 C 18.448 17.872,16.744 18.341,13.830 18.434 C 12.714 18.470,12.636 18.487,12.374 18.749 C 12.103 19.020,12.030 19.469,12.199 19.819 C 12.324 20.077,12.601 20.308,12.833 20.348 C 13.165 20.405,15.131 20.376,15.793 20.304 C 17.906 20.076,19.417 19.500,20.363 18.561 C 20.869 18.059,21.147 17.580,21.345 16.868 C 21.487 16.356,21.521 15.459,21.421 14.893 C 20.752 11.129,15.557 6.560,9.740 4.619 C 8.464 4.193,7.378 3.938,6.100 3.762 C 5.035 3.616,4.101 3.569,3.729 3.642 M6.780 9.506 C 6.057 9.590,5.590 9.721,5.080 9.983 C 4.289 10.390,3.749 11.029,3.536 11.806 C 3.365 12.432,3.438 13.231,3.719 13.820 C 4.078 14.572,4.631 15.004,6.049 15.636 C 7.063 16.089,7.467 16.340,7.647 16.632 C 7.723 16.754,7.739 16.837,7.739 17.100 C 7.740 17.472,7.653 17.693,7.409 17.938 C 7.065 18.284,6.615 18.402,5.640 18.402 C 4.888 18.402,4.718 18.380,3.986 18.192 C 3.447 18.054,3.293 18.058,3.021 18.217 C 2.381 18.592,2.343 19.543,2.954 19.907 C 3.159 20.030,3.775 20.202,4.440 20.324 C 4.864 20.401,6.392 20.388,6.791 20.304 C 8.327 19.980,9.299 19.182,9.634 17.971 C 9.853 17.181,9.743 16.268,9.349 15.603 C 9.163 15.288,8.752 14.885,8.356 14.626 C 8.166 14.503,7.536 14.170,6.956 13.885 C 5.876 13.357,5.623 13.193,5.505 12.945 C 5.419 12.763,5.424 12.420,5.515 12.218 C 5.616 11.996,5.911 11.748,6.210 11.635 C 6.447 11.545,6.506 11.540,7.380 11.542 L 8.300 11.544 8.695 11.672 C 9.184 11.830,9.359 11.834,9.643 11.690 C 10.006 11.506,10.234 11.075,10.186 10.666 C 10.124 10.143,9.718 9.854,8.758 9.646 C 8.145 9.513,7.258 9.450,6.780 9.506 " fill="#1A1C1F" stroke="none" fill-rule="evenodd"></path></svg>