<svg width="32" height="32" viewBox="0 0 32 32" fill="none" xmlns="http://www.w3.org/2000/svg"><path d="M4.660 5.154 C 4.597 5.168,4.449 5.262,4.330 5.363 C 3.693 5.909,3.927 6.848,4.747 7.033 C 4.879 7.063,5.340 7.101,5.772 7.117 C 8.085 7.205,10.782 7.804,13.227 8.773 C 16.499 10.069,19.388 11.875,21.906 14.198 C 23.170 15.365,23.958 16.256,24.655 17.307 C 25.448 18.504,25.861 19.481,25.977 20.436 C 26.277 22.898,24.680 24.275,21.013 24.716 C 20.182 24.816,18.819 24.906,18.081 24.909 C 17.162 24.913,16.770 24.976,16.542 25.158 C 16.253 25.389,16.150 25.619,16.174 25.986 C 16.189 26.229,16.226 26.333,16.355 26.493 C 16.646 26.854,16.642 26.854,18.453 26.849 C 20.279 26.844,21.231 26.764,22.511 26.507 C 25.560 25.894,27.281 24.567,27.873 22.373 C 28.002 21.895,28.016 21.752,28.014 20.987 C 28.010 20.025,27.943 19.616,27.647 18.757 C 26.646 15.852,23.896 12.767,19.973 10.150 C 15.947 7.463,11.344 5.708,7.147 5.257 C 6.380 5.175,4.849 5.111,4.660 5.154 M9.091 12.611 C 7.536 12.894,6.344 13.705,5.782 14.864 C 5.513 15.418,5.423 15.901,5.457 16.613 C 5.507 17.633,5.801 18.287,6.512 18.953 C 6.993 19.404,7.546 19.747,8.378 20.110 C 10.143 20.881,10.867 21.334,11.187 21.866 C 11.355 22.146,11.360 22.174,11.359 22.744 C 11.358 23.201,11.336 23.382,11.259 23.550 C 10.938 24.256,10.068 24.743,8.912 24.862 C 8.164 24.939,6.934 24.884,6.320 24.748 C 6.056 24.689,5.672 24.603,5.467 24.557 C 4.964 24.444,4.690 24.489,4.425 24.727 C 4.068 25.050,3.984 25.595,4.233 25.972 C 4.550 26.451,5.870 26.800,7.600 26.862 C 9.800 26.940,11.265 26.488,12.358 25.392 C 12.782 24.967,12.979 24.656,13.206 24.053 C 13.349 23.674,13.357 23.607,13.358 22.773 C 13.360 21.950,13.351 21.868,13.217 21.502 C 12.852 20.504,12.217 19.845,10.929 19.129 C 10.737 19.022,10.126 18.731,9.573 18.482 C 7.740 17.657,7.360 17.274,7.435 16.328 C 7.490 15.632,7.787 15.204,8.433 14.886 C 9.301 14.460,10.892 14.392,12.139 14.727 C 13.145 14.997,13.315 14.992,13.657 14.684 C 13.902 14.463,14.059 14.031,13.998 13.746 C 13.899 13.277,13.547 13.028,12.667 12.803 C 11.634 12.539,9.977 12.450,9.091 12.611 " fill="#1A1C1F" stroke="none" fill-rule="evenodd"></path></svg>