<svg width="20" height="20" viewBox="0 0 20 20" fill="none" xmlns="http://www.w3.org/2000/svg"><path d="M4.500 2.032 C 3.496 2.051,3.481 2.052,3.278 2.139 C 2.727 2.374,2.279 2.855,2.098 3.404 L 2.017 3.650 2.017 10.000 L 2.017 16.350 2.098 16.596 C 2.293 17.188,2.812 17.707,3.404 17.902 L 3.650 17.983 10.000 17.983 L 16.350 17.983 16.596 17.902 C 17.188 17.707,17.707 17.188,17.902 16.596 L 17.983 16.350 17.983 10.000 L 17.983 3.650 17.902 3.404 C 17.714 2.834,17.212 2.315,16.650 2.114 C 16.509 2.063,16.318 2.050,15.417 2.031 C 14.182 2.003,6.005 2.005,4.500 2.032 M10.842 5.984 C 11.467 6.016,12.285 6.197,12.554 6.363 C 12.794 6.511,12.930 6.837,12.859 7.095 C 12.816 7.251,12.606 7.452,12.429 7.505 C 12.308 7.542,12.231 7.534,11.754 7.439 C 10.817 7.252,10.111 7.224,9.570 7.351 C 9.029 7.479,8.529 7.903,8.331 8.405 C 8.135 8.902,8.033 9.827,8.095 10.563 C 8.186 11.644,8.487 12.227,9.115 12.535 C 9.477 12.712,9.778 12.770,10.350 12.770 C 10.888 12.769,11.144 12.726,11.255 12.614 C 11.332 12.538,11.333 12.524,11.333 11.877 C 11.333 11.514,11.320 11.197,11.304 11.172 C 11.285 11.142,11.152 11.117,10.909 11.098 C 10.388 11.056,10.257 10.992,10.130 10.717 C 10.001 10.439,10.093 10.105,10.343 9.939 L 10.478 9.850 11.567 9.850 L 12.655 9.850 12.776 9.942 C 12.860 10.006,12.905 10.073,12.924 10.159 C 12.938 10.227,12.949 10.914,12.947 11.686 L 12.944 13.088 12.848 13.264 C 12.630 13.665,12.263 13.826,11.200 13.989 C 10.690 14.067,9.710 14.068,9.266 13.991 C 7.703 13.720,6.853 13.002,6.450 11.615 C 6.317 11.154,6.288 10.880,6.288 10.033 C 6.288 9.353,6.297 9.206,6.361 8.910 C 6.577 7.906,6.976 7.222,7.633 6.735 C 8.189 6.322,8.800 6.091,9.567 6.003 C 9.741 5.983,9.928 5.961,9.983 5.955 C 10.038 5.949,10.173 5.948,10.283 5.954 C 10.393 5.960,10.645 5.973,10.842 5.984 " fill="#1A1C1F" stroke="none" fill-rule="evenodd"></path></svg>