<svg width="20" height="20" viewBox="0 0 20 20" fill="none" xmlns="http://www.w3.org/2000/svg"><path d="M3.833 2.031 C 3.466 2.058,3.259 2.121,2.992 2.287 C 2.573 2.549,2.243 2.960,2.098 3.402 L 2.017 3.650 2.017 10.017 L 2.017 16.383 2.094 16.600 C 2.312 17.209,2.758 17.663,3.370 17.899 L 3.631 18.000 8.000 18.000 L 12.369 18.000 12.630 17.899 C 13.245 17.662,13.707 17.189,13.902 16.596 C 13.979 16.364,13.983 16.306,13.983 15.567 C 13.983 14.667,13.971 14.607,13.737 14.355 C 13.513 14.115,13.319 14.034,12.964 14.034 C 12.687 14.033,12.670 14.038,12.477 14.163 C 12.095 14.409,12.035 14.568,12.009 15.392 L 11.990 16.000 7.995 16.000 L 4.000 16.000 4.000 10.017 L 4.000 4.033 5.275 4.033 C 6.862 4.032,7.281 4.004,7.482 3.886 C 7.633 3.798,7.779 3.634,7.887 3.433 C 7.935 3.344,7.950 3.247,7.950 3.017 C 7.950 2.747,7.940 2.699,7.852 2.539 C 7.743 2.342,7.597 2.201,7.402 2.101 C 7.279 2.038,7.187 2.034,5.728 2.020 C 4.878 2.012,4.026 2.017,3.833 2.031 M12.517 2.034 C 11.388 2.135,10.318 2.647,9.483 3.485 C 8.772 4.199,8.298 5.074,8.097 6.041 C 8.004 6.494,7.995 7.463,8.081 7.915 C 8.365 9.409,9.353 10.736,10.698 11.429 C 11.487 11.836,12.071 11.974,13.000 11.974 C 13.930 11.974,14.431 11.857,15.250 11.451 C 16.187 10.985,16.948 10.235,17.429 9.302 C 17.839 8.506,17.970 7.950,17.971 7.000 C 17.972 6.284,17.932 6.021,17.735 5.434 C 17.190 3.806,15.822 2.549,14.165 2.152 C 13.611 2.019,13.091 1.982,12.517 2.034 M11.366 4.091 C 11.448 4.121,11.585 4.210,11.670 4.290 C 12.172 4.760,12.030 5.625,11.403 5.912 C 11.180 6.014,10.807 6.009,10.587 5.901 C 9.978 5.604,9.829 4.803,10.293 4.322 C 10.581 4.024,10.954 3.944,11.366 4.091 M15.333 5.657 C 15.333 5.677,14.507 6.512,13.496 7.513 L 11.660 9.332 11.162 8.859 L 10.664 8.386 12.524 6.526 L 14.383 4.666 14.858 5.143 C 15.120 5.406,15.333 5.637,15.333 5.657 M15.400 8.105 C 15.482 8.141,15.613 8.231,15.690 8.307 C 16.171 8.777,16.017 9.634,15.403 9.911 C 15.163 10.019,14.804 10.010,14.559 9.890 C 14.215 9.720,14.022 9.406,14.022 9.011 C 14.022 8.797,14.037 8.737,14.136 8.543 C 14.230 8.359,14.286 8.296,14.457 8.179 C 14.571 8.102,14.706 8.032,14.757 8.024 C 14.922 7.998,15.246 8.039,15.400 8.105 M5.798 12.031 C 5.710 12.043,5.571 12.099,5.469 12.165 C 4.924 12.515,4.849 13.241,5.310 13.702 C 5.528 13.920,5.672 13.979,5.983 13.977 C 6.334 13.974,6.486 13.910,6.709 13.669 C 6.982 13.374,7.053 13.092,6.946 12.731 C 6.800 12.235,6.345 11.958,5.798 12.031 M8.783 12.029 C 8.353 12.143,8.000 12.575,8.000 12.988 C 8.000 13.386,8.340 13.842,8.719 13.952 C 9.187 14.088,9.670 13.853,9.905 13.375 C 10.024 13.135,10.015 12.809,9.885 12.573 C 9.831 12.475,9.734 12.349,9.670 12.293 C 9.431 12.083,9.032 11.964,8.783 12.029 " fill="#1A1C1F" stroke="none" fill-rule="evenodd"></path></svg>