<svg width="24" height="24" viewBox="0 0 24 24" fill="none" xmlns="http://www.w3.org/2000/svg"><path d="M15.289 2.041 C 15.072 2.089,14.873 2.251,14.539 2.651 C 14.363 2.860,14.150 3.078,14.065 3.134 C 13.783 3.319,13.649 3.316,12.720 3.099 C 12.160 2.969,11.647 3.196,11.519 3.631 C 11.495 3.713,11.450 4.018,11.418 4.309 C 11.386 4.600,11.331 4.911,11.295 5.000 C 11.198 5.243,10.966 5.413,10.420 5.642 C 9.746 5.924,9.600 6.077,9.541 6.563 C 9.509 6.832,9.570 7.017,9.818 7.401 C 10.128 7.880,10.176 7.997,10.177 8.260 C 10.177 8.538,10.096 8.741,9.805 9.198 C 9.517 9.650,9.460 9.891,9.566 10.204 C 9.678 10.535,9.899 10.719,10.449 10.937 C 10.914 11.122,11.108 11.254,11.249 11.481 C 11.347 11.640,11.366 11.730,11.418 12.274 C 11.486 12.988,11.560 13.166,11.867 13.360 C 12.146 13.537,12.277 13.542,12.884 13.398 C 13.794 13.184,13.946 13.232,14.557 13.933 C 14.973 14.409,15.083 14.483,15.415 14.510 C 15.818 14.542,15.901 14.496,16.409 13.951 C 17.072 13.242,17.235 13.185,18.040 13.384 C 18.618 13.528,18.850 13.529,19.088 13.389 C 19.421 13.194,19.516 12.968,19.619 12.124 C 19.712 11.357,19.794 11.256,20.589 10.923 C 21.273 10.637,21.509 10.349,21.473 9.845 C 21.459 9.650,21.420 9.549,21.259 9.274 C 20.893 8.652,20.840 8.527,20.840 8.284 C 20.840 8.080,20.867 8.011,21.147 7.503 C 21.481 6.899,21.532 6.702,21.443 6.372 C 21.355 6.045,21.145 5.873,20.503 5.605 C 19.805 5.314,19.719 5.199,19.620 4.436 C 19.507 3.554,19.400 3.323,19.020 3.143 C 18.767 3.023,18.613 3.025,18.055 3.156 C 17.160 3.367,17.111 3.351,16.441 2.639 C 16.114 2.292,15.916 2.113,15.829 2.086 C 15.630 2.026,15.433 2.010,15.289 2.041 M5.260 2.079 C 4.490 2.127,3.980 2.348,3.430 2.873 C 3.028 3.257,2.760 3.724,2.564 4.384 L 2.480 4.669 2.480 12.012 L 2.480 19.355 2.621 19.787 C 2.784 20.284,2.929 20.559,3.211 20.909 C 3.567 21.349,4.027 21.658,4.653 21.877 L 5.006 22.000 9.480 22.000 L 13.954 22.000 14.307 21.877 C 15.360 21.509,16.038 20.812,16.366 19.760 C 16.456 19.471,16.460 19.413,16.460 18.120 L 16.460 16.780 16.341 16.565 C 16.147 16.215,15.838 16.026,15.456 16.026 C 15.177 16.025,14.928 16.144,14.738 16.369 C 14.516 16.632,14.507 16.688,14.477 17.980 C 14.460 18.703,14.430 19.241,14.401 19.334 C 14.349 19.504,14.084 19.793,13.874 19.907 C 13.747 19.976,13.534 19.980,9.480 19.980 L 5.220 19.980 5.036 19.872 C 4.935 19.813,4.804 19.700,4.744 19.622 C 4.507 19.311,4.520 19.610,4.520 14.591 C 4.520 12.055,4.532 8.776,4.547 7.304 L 4.573 4.629 4.698 4.465 C 4.766 4.376,4.898 4.249,4.990 4.184 L 5.158 4.066 6.931 4.041 C 8.668 4.016,8.707 4.013,8.892 3.924 C 9.391 3.682,9.603 3.080,9.358 2.597 C 9.275 2.434,9.007 2.178,8.848 2.111 C 8.720 2.057,6.006 2.033,5.260 2.079 M13.688 5.388 C 14.229 5.683,14.245 6.456,13.718 6.822 C 13.570 6.924,13.515 6.938,13.260 6.938 C 13.008 6.938,12.949 6.923,12.810 6.827 C 12.375 6.526,12.311 5.841,12.686 5.493 C 12.950 5.247,13.351 5.205,13.688 5.388 M17.570 6.009 C 17.753 6.149,17.840 6.343,17.840 6.610 C 17.840 6.790,17.818 6.859,17.715 7.004 C 17.568 7.210,14.374 10.411,14.143 10.583 C 14.010 10.682,13.949 10.700,13.743 10.700 C 13.345 10.699,13.074 10.477,13.019 10.104 C 12.959 9.709,12.925 9.752,14.873 7.798 C 15.952 6.715,16.716 5.979,16.800 5.942 C 17.019 5.843,17.396 5.877,17.570 6.009 M18.060 9.835 C 18.514 10.044,18.701 10.564,18.482 11.015 C 18.371 11.244,18.247 11.344,17.976 11.423 C 17.582 11.538,17.191 11.361,17.018 10.990 C 16.852 10.633,16.909 10.289,17.180 10.019 C 17.432 9.766,17.760 9.698,18.060 9.835 M6.190 16.055 C 5.983 16.132,5.776 16.297,5.652 16.484 C 5.571 16.608,5.544 16.705,5.531 16.931 C 5.516 17.189,5.526 17.244,5.627 17.440 C 5.993 18.151,6.926 18.174,7.347 17.482 C 7.512 17.211,7.543 17.019,7.465 16.751 C 7.305 16.208,6.687 15.869,6.190 16.055 M9.185 16.056 C 8.825 16.190,8.571 16.516,8.532 16.894 C 8.479 17.407,8.817 17.861,9.331 17.969 C 9.522 18.009,9.589 18.006,9.768 17.949 C 10.294 17.783,10.608 17.241,10.464 16.748 C 10.305 16.205,9.685 15.870,9.185 16.056 M12.190 16.056 C 11.985 16.131,11.777 16.296,11.653 16.483 C 11.501 16.714,11.478 17.108,11.601 17.393 C 11.749 17.738,12.146 18.000,12.520 18.000 C 13.014 18.000,13.495 17.504,13.491 17.000 C 13.487 16.618,13.237 16.237,12.900 16.099 C 12.699 16.017,12.356 15.996,12.190 16.056 " fill="#1A1C1F" stroke="none" fill-rule="evenodd"></path></svg>