<svg width="32" height="32" viewBox="0 0 32 32" fill="none" xmlns="http://www.w3.org/2000/svg"><path d="M6.053 2.076 L 5.093 2.109 4.721 2.294 C 4.272 2.518,3.697 3.043,3.445 3.460 C 3.345 3.625,3.207 3.928,3.138 4.133 L 3.013 4.507 3.013 16.000 L 3.013 27.493 3.141 27.884 C 3.442 28.802,4.150 29.524,5.073 29.853 L 5.467 29.994 12.933 30.015 L 20.400 30.036 20.864 29.867 C 21.733 29.551,22.329 29.019,22.711 28.219 C 22.867 27.893,22.906 27.738,22.940 27.313 C 22.993 26.656,22.994 20.783,22.941 20.308 C 22.896 19.899,22.778 19.730,22.427 19.567 C 21.995 19.368,21.485 19.500,21.174 19.892 L 21.013 20.095 21.013 22.999 C 21.013 24.596,20.997 26.236,20.978 26.642 L 20.942 27.381 20.734 27.608 C 20.619 27.733,20.437 27.866,20.329 27.904 C 20.172 27.960,18.711 27.973,12.921 27.971 L 5.709 27.968 5.484 27.810 C 5.360 27.723,5.209 27.568,5.149 27.466 C 5.040 27.280,5.040 27.272,5.040 15.973 L 5.040 4.667 5.162 4.495 C 5.229 4.401,5.361 4.269,5.455 4.202 L 5.627 4.080 9.653 4.053 C 13.643 4.027,13.682 4.026,13.893 3.912 C 14.265 3.713,14.453 3.407,14.453 3.002 C 14.453 2.688,14.324 2.431,14.056 2.215 L 13.857 2.053 10.435 2.048 C 8.553 2.045,6.581 2.057,6.053 2.076 M21.195 2.084 C 21.088 2.115,20.806 2.365,20.392 2.794 C 19.559 3.657,19.545 3.662,18.479 3.440 C 18.127 3.367,17.768 3.307,17.680 3.307 C 17.198 3.307,16.767 3.620,16.647 4.060 C 16.612 4.188,16.550 4.587,16.509 4.946 C 16.394 5.950,16.297 6.071,15.257 6.507 C 14.612 6.777,14.334 7.013,14.237 7.371 C 14.131 7.764,14.204 8.071,14.525 8.582 C 14.962 9.276,15.008 9.382,15.010 9.710 C 15.012 10.030,14.920 10.247,14.450 11.038 C 14.233 11.402,14.213 11.465,14.213 11.793 C 14.213 12.413,14.431 12.619,15.669 13.166 C 16.010 13.317,16.242 13.504,16.353 13.719 C 16.398 13.807,16.470 14.182,16.513 14.553 C 16.629 15.569,16.697 15.729,17.135 16.010 C 17.466 16.222,17.751 16.233,18.453 16.059 C 19.003 15.924,19.463 15.915,19.717 16.035 C 19.820 16.084,20.108 16.354,20.358 16.635 C 21.011 17.372,21.190 17.476,21.733 17.441 C 22.027 17.422,22.230 17.275,22.777 16.686 C 23.076 16.365,23.396 16.063,23.487 16.016 C 23.721 15.895,24.141 15.914,24.800 16.076 C 25.108 16.151,25.420 16.213,25.493 16.212 C 25.668 16.211,26.011 16.052,26.220 15.876 C 26.479 15.657,26.564 15.414,26.643 14.655 C 26.724 13.882,26.837 13.569,27.105 13.379 C 27.194 13.315,27.510 13.158,27.807 13.029 C 28.643 12.667,28.833 12.497,28.966 11.995 C 29.049 11.682,28.947 11.339,28.609 10.793 C 28.017 9.837,28.020 9.590,28.634 8.642 C 28.894 8.241,29.038 7.798,28.995 7.532 C 28.958 7.308,28.733 6.969,28.520 6.817 C 28.435 6.757,28.099 6.590,27.774 6.448 C 27.448 6.305,27.126 6.136,27.058 6.072 C 26.828 5.856,26.727 5.551,26.646 4.827 C 26.604 4.445,26.545 4.071,26.516 3.995 C 26.440 3.800,26.146 3.521,25.895 3.406 C 25.603 3.274,25.298 3.282,24.667 3.439 C 23.711 3.677,23.609 3.642,22.773 2.778 C 22.289 2.278,22.115 2.132,21.947 2.086 C 21.698 2.017,21.427 2.017,21.195 2.084 M19.187 6.140 C 19.823 6.448,19.915 7.378,19.350 7.788 C 18.968 8.064,18.487 8.049,18.130 7.749 C 17.697 7.385,17.677 6.694,18.089 6.310 C 18.397 6.022,18.811 5.958,19.187 6.140 M23.986 6.695 C 24.240 6.801,24.361 6.913,24.486 7.158 C 24.616 7.413,24.615 7.790,24.484 8.042 C 24.394 8.214,20.776 11.864,20.016 12.550 C 19.752 12.787,19.722 12.800,19.429 12.800 C 19.036 12.800,18.796 12.681,18.588 12.382 C 18.450 12.185,18.427 12.102,18.427 11.817 C 18.427 11.508,18.442 11.465,18.637 11.226 C 18.953 10.841,21.631 8.132,22.440 7.380 C 23.275 6.604,23.514 6.498,23.986 6.695 M24.823 11.679 C 25.366 11.944,25.542 12.710,25.176 13.215 C 25.006 13.449,24.640 13.653,24.391 13.653 C 24.007 13.653,23.583 13.377,23.434 13.028 C 23.338 12.806,23.339 12.302,23.435 12.117 C 23.688 11.631,24.318 11.432,24.823 11.679 M7.699 22.075 C 7.324 22.170,6.990 22.573,6.988 22.933 C 6.985 23.394,7.315 23.829,7.751 23.939 C 8.059 24.016,8.920 24.018,9.200 23.941 C 10.035 23.713,10.237 22.664,9.536 22.200 C 9.325 22.060,9.283 22.053,8.591 22.043 C 8.192 22.037,7.791 22.052,7.699 22.075 M12.248 22.066 C 11.813 22.111,11.394 22.759,11.518 23.194 C 11.597 23.467,11.777 23.719,11.989 23.851 C 12.173 23.965,12.244 23.973,12.991 23.973 C 13.790 23.973,13.798 23.972,14.016 23.821 C 14.672 23.366,14.564 22.366,13.830 22.104 C 13.636 22.035,12.754 22.014,12.248 22.066 M16.700 22.078 C 16.601 22.102,16.457 22.168,16.380 22.224 C 16.198 22.356,16.000 22.748,16.000 22.973 C 16.000 23.192,16.126 23.504,16.283 23.671 C 16.534 23.941,16.665 23.973,17.497 23.973 C 18.258 23.973,18.279 23.970,18.499 23.825 C 18.769 23.646,18.918 23.417,18.964 23.109 C 19.008 22.817,18.833 22.448,18.542 22.216 C 18.338 22.054,18.334 22.053,17.608 22.043 C 17.208 22.037,16.799 22.053,16.700 22.078 " fill="#1A1C1F" stroke="none" fill-rule="evenodd"></path></svg>