<svg width="20" height="20" viewBox="0 0 20 20" fill="none" xmlns="http://www.w3.org/2000/svg"><path d="M7.886 2.317 C 7.749 2.370,7.557 2.503,7.456 2.616 C 7.228 2.872,7.164 3.333,7.312 3.650 C 7.453 3.952,7.604 4.057,8.800 4.685 C 9.783 5.200,9.825 5.226,9.755 5.253 C 9.722 5.265,8.951 5.489,8.040 5.749 L 6.383 6.223 5.994 5.844 C 5.522 5.385,5.426 5.335,5.024 5.334 C 4.678 5.333,4.540 5.389,4.315 5.620 C 4.062 5.881,3.977 6.341,4.122 6.667 C 4.244 6.939,5.349 8.105,5.613 8.240 C 5.694 8.281,5.840 8.316,5.970 8.326 C 6.232 8.345,6.101 8.380,11.167 6.932 C 16.330 5.457,17.400 5.140,17.539 5.049 C 17.991 4.753,18.079 4.032,17.715 3.607 C 17.651 3.532,17.507 3.425,17.394 3.369 C 17.029 3.187,17.034 3.186,14.297 3.964 L 12.645 4.433 11.664 3.922 C 11.125 3.641,10.198 3.159,9.605 2.852 L 8.526 2.293 8.271 2.280 C 8.097 2.271,7.975 2.283,7.886 2.317 M2.495 9.796 C 2.327 9.832,2.222 9.907,2.129 10.057 C 2.053 10.179,2.050 10.210,2.040 10.970 L 2.029 11.756 2.553 11.780 C 3.539 11.824,4.311 11.947,5.200 12.203 C 6.259 12.507,7.402 13.031,8.190 13.574 C 8.448 13.751,8.512 13.826,8.548 13.989 C 8.567 14.077,8.553 14.113,8.463 14.215 C 8.316 14.383,7.977 14.619,7.823 14.661 C 7.676 14.701,7.481 14.676,7.004 14.553 C 5.958 14.285,4.702 14.168,2.857 14.167 L 2.030 14.167 2.040 15.744 L 2.050 17.322 2.139 17.457 C 2.196 17.542,2.289 17.621,2.389 17.671 L 2.550 17.750 4.967 17.761 C 8.233 17.775,9.226 17.722,10.141 17.485 C 11.110 17.233,11.718 16.766,11.942 16.103 C 12.043 15.802,12.056 15.338,11.972 15.005 C 11.630 13.653,10.002 12.095,7.767 10.980 C 6.607 10.402,5.527 10.051,4.340 9.865 C 3.883 9.794,2.708 9.750,2.495 9.796 " fill="#1A1C1F" stroke="none" fill-rule="evenodd"></path></svg>