<svg width="24" height="24" viewBox="0 0 24 24" fill="none" xmlns="http://www.w3.org/2000/svg"><path d="M8.985 2.816 C 8.754 2.902,8.552 3.081,8.445 3.294 C 8.268 3.647,8.345 4.193,8.605 4.425 C 8.736 4.544,9.291 4.858,10.655 5.587 C 11.991 6.301,12.040 6.328,12.040 6.362 C 12.040 6.386,11.184 6.663,9.100 7.315 L 8.220 7.591 7.800 7.182 C 7.246 6.644,7.143 6.571,6.893 6.538 C 6.548 6.492,6.298 6.576,6.055 6.820 C 5.837 7.038,5.761 7.213,5.760 7.495 C 5.760 7.765,5.846 7.955,6.114 8.272 C 6.519 8.752,7.363 9.574,7.536 9.656 C 7.863 9.811,7.437 9.932,17.880 6.696 L 21.220 5.661 21.401 5.481 C 21.650 5.232,21.740 5.035,21.739 4.740 C 21.739 4.547,21.715 4.456,21.616 4.280 C 21.490 4.054,21.214 3.825,21.006 3.773 C 20.761 3.711,20.270 3.844,17.060 4.841 C 15.916 5.197,14.935 5.488,14.880 5.489 C 14.762 5.491,14.103 5.156,11.566 3.803 C 9.741 2.830,9.680 2.801,9.414 2.780 C 9.226 2.765,9.091 2.777,8.985 2.816 M2.767 11.309 C 2.595 11.330,2.340 11.583,2.283 11.787 C 2.260 11.871,2.240 12.242,2.240 12.610 L 2.240 13.280 2.630 13.280 C 3.402 13.280,4.499 13.424,5.386 13.642 C 6.659 13.954,7.874 14.462,9.088 15.188 C 9.930 15.692,10.160 15.974,10.045 16.359 C 9.988 16.548,9.619 16.963,9.362 17.127 C 9.126 17.277,9.006 17.273,8.248 17.082 C 6.798 16.718,5.604 16.601,3.310 16.600 L 2.240 16.600 2.242 18.550 C 2.243 19.622,2.259 20.578,2.277 20.674 C 2.321 20.904,2.424 21.035,2.663 21.172 L 2.860 21.285 6.400 21.265 C 10.101 21.243,10.486 21.227,11.364 21.057 C 13.047 20.731,13.951 20.064,14.180 18.980 C 14.423 17.826,13.863 16.579,12.482 15.199 C 10.620 13.340,7.771 11.869,5.160 11.419 C 4.589 11.321,3.193 11.257,2.767 11.309 " fill="#1A1C1F" stroke="none" fill-rule="evenodd"></path></svg>