<svg width="32" height="32" viewBox="0 0 32 32" fill="none" xmlns="http://www.w3.org/2000/svg"><path d="M15.573 3.800 C 14.944 3.964,14.646 4.701,14.986 5.252 C 15.135 5.493,15.224 5.549,16.818 6.409 C 18.487 7.309,18.507 7.320,18.507 7.364 C 18.507 7.384,18.465 7.413,18.413 7.428 C 18.362 7.442,17.507 7.710,16.513 8.022 L 14.706 8.589 14.217 8.115 C 13.677 7.593,13.469 7.488,13.093 7.544 C 12.569 7.623,12.239 8.054,12.285 8.602 C 12.315 8.970,12.413 9.105,13.306 10.007 C 14.044 10.753,14.140 10.793,14.787 10.617 C 16.720 10.091,27.374 6.794,27.744 6.607 C 27.947 6.505,28.170 6.186,28.235 5.907 C 28.330 5.497,27.970 4.928,27.533 4.797 C 27.254 4.714,27.265 4.711,24.160 5.651 C 22.913 6.028,21.756 6.375,21.588 6.423 L 21.283 6.509 19.855 5.753 C 17.433 4.471,16.196 3.848,15.973 3.799 C 15.848 3.771,15.683 3.772,15.573 3.800 M4.667 14.289 C 4.190 14.353,3.932 14.562,3.790 15.001 C 3.701 15.273,3.761 15.575,3.954 15.842 C 4.193 16.172,4.354 16.215,5.628 16.296 C 7.207 16.397,7.986 16.534,9.129 16.912 C 11.630 17.739,13.950 19.163,15.761 20.982 C 17.236 22.464,17.818 23.548,17.701 24.600 C 17.625 25.291,17.121 25.685,15.947 25.975 C 15.109 26.181,14.783 26.194,9.595 26.235 L 4.497 26.274 4.304 26.393 C 3.640 26.804,3.575 27.439,4.141 27.991 L 4.432 28.274 9.350 28.251 C 14.520 28.227,14.712 28.219,15.967 27.968 C 17.712 27.618,18.863 26.916,19.372 25.890 C 19.658 25.316,19.707 25.073,19.703 24.267 C 19.700 23.599,19.687 23.510,19.526 23.040 C 19.117 21.842,18.401 20.788,17.152 19.544 C 16.241 18.637,15.646 18.146,14.579 17.422 C 11.814 15.546,8.883 14.476,6.080 14.321 C 5.772 14.304,5.388 14.282,5.227 14.272 C 5.065 14.262,4.813 14.270,4.667 14.289 M4.271 17.610 C 3.988 17.763,3.850 17.936,3.784 18.217 C 3.712 18.530,3.721 20.970,3.796 21.267 C 3.883 21.614,4.215 21.939,4.564 22.018 C 4.709 22.051,5.547 22.103,6.427 22.133 C 9.180 22.227,10.168 22.355,11.980 22.852 C 12.357 22.955,12.727 23.040,12.802 23.040 C 12.997 23.040,13.363 22.789,13.722 22.410 C 14.323 21.775,14.343 21.317,13.793 20.811 C 13.340 20.394,11.864 19.480,10.727 18.911 C 8.894 17.993,7.298 17.575,5.387 17.512 C 4.533 17.484,4.500 17.486,4.271 17.610 " fill="#1A1C1F" stroke="none" fill-rule="evenodd"></path></svg>