<svg width="20" height="20" viewBox="0 0 20 20" fill="none" xmlns="http://www.w3.org/2000/svg"><path d="M8.867 2.037 C 8.443 2.119,8.001 2.471,7.795 2.888 C 7.688 3.106,7.683 3.131,7.683 3.500 C 7.683 3.871,7.688 3.893,7.797 4.117 C 7.871 4.268,7.983 4.421,8.114 4.550 C 8.794 5.222,9.802 5.125,10.385 4.331 C 10.725 3.868,10.719 3.112,10.371 2.652 C 9.996 2.155,9.435 1.926,8.867 2.037 M4.242 2.099 C 4.164 2.134,4.026 2.237,3.936 2.328 C 3.658 2.606,3.656 2.615,3.641 4.321 L 3.628 5.791 4.384 8.987 C 5.434 13.433,5.917 15.422,5.992 15.620 C 6.088 15.872,6.275 16.135,6.530 16.375 C 6.797 16.627,7.018 16.760,7.383 16.889 L 7.650 16.983 9.733 16.983 C 11.374 16.983,11.848 16.974,11.964 16.939 C 12.135 16.887,12.426 16.610,12.537 16.392 C 12.636 16.199,12.656 15.917,12.585 15.706 C 12.514 15.490,12.278 15.225,12.054 15.107 L 11.883 15.017 9.935 15.000 L 7.986 14.983 7.915 14.877 C 7.815 14.730,7.750 14.473,6.664 9.909 L 5.700 5.863 5.669 4.356 C 5.634 2.664,5.628 2.617,5.400 2.358 C 5.196 2.126,4.981 2.033,4.652 2.034 C 4.459 2.035,4.343 2.053,4.242 2.099 M8.930 7.030 C 8.655 7.086,8.335 7.361,8.217 7.643 C 8.110 7.900,8.155 8.207,8.546 9.867 C 8.926 11.477,9.136 12.313,9.198 12.452 C 9.275 12.627,9.464 12.809,9.677 12.916 L 9.846 13.000 11.622 13.000 L 13.397 13.000 13.430 13.125 C 13.448 13.194,13.585 13.775,13.734 14.417 C 14.123 16.097,14.389 17.167,14.468 17.378 C 14.549 17.595,14.735 17.794,14.959 17.904 C 15.081 17.964,15.173 17.981,15.367 17.981 C 15.659 17.981,15.852 17.903,16.050 17.706 C 16.375 17.382,16.391 17.140,16.155 16.067 C 15.773 14.332,15.245 12.048,15.147 11.712 C 15.085 11.499,14.836 11.221,14.600 11.100 C 14.453 11.025,14.439 11.024,12.659 11.007 C 10.870 10.990,10.865 10.990,10.849 10.920 C 10.840 10.882,10.719 10.363,10.581 9.767 C 10.230 8.253,10.074 7.645,10.000 7.500 C 9.836 7.179,9.318 6.951,8.930 7.030 " fill="#1A1C1F" stroke="none" fill-rule="evenodd"></path></svg>