<svg width="16" height="16" viewBox="0 0 16 16" fill="none" xmlns="http://www.w3.org/2000/svg"><path d="M7.067 1.637 C 6.725 1.713,6.412 1.967,6.240 2.306 C 6.149 2.485,6.147 2.499,6.147 2.799 C 6.147 3.094,6.150 3.116,6.235 3.287 C 6.477 3.780,6.997 4.064,7.498 3.978 C 7.833 3.921,8.096 3.754,8.308 3.465 C 8.574 3.102,8.575 2.499,8.310 2.138 C 8.110 1.865,7.834 1.686,7.523 1.627 C 7.345 1.593,7.254 1.595,7.067 1.637 M3.393 1.679 C 3.232 1.753,3.032 1.962,2.973 2.121 C 2.928 2.241,2.923 2.367,2.913 3.441 L 2.902 4.628 3.277 6.214 C 4.640 11.995,4.733 12.375,4.846 12.611 C 4.919 12.766,4.991 12.860,5.170 13.038 C 5.528 13.394,5.807 13.531,6.267 13.577 C 6.406 13.591,7.186 13.599,8.000 13.595 C 9.474 13.587,9.480 13.586,9.602 13.527 C 9.782 13.438,9.925 13.304,10.013 13.143 C 10.080 13.022,10.092 12.970,10.092 12.800 C 10.094 12.466,9.940 12.226,9.629 12.075 C 9.513 12.019,9.480 12.017,7.962 12.006 C 6.865 11.997,6.402 11.985,6.376 11.964 C 6.273 11.881,6.254 11.807,5.238 7.535 L 4.559 4.682 4.535 3.481 C 4.507 2.132,4.502 2.093,4.320 1.886 C 4.157 1.701,3.985 1.627,3.721 1.627 C 3.567 1.628,3.475 1.642,3.393 1.679 M7.129 5.624 C 6.911 5.680,6.665 5.897,6.574 6.115 C 6.518 6.248,6.523 6.488,6.588 6.809 C 6.737 7.544,7.290 9.806,7.358 9.960 C 7.384 10.019,7.462 10.119,7.531 10.182 C 7.764 10.396,7.678 10.386,9.285 10.394 C 10.609 10.402,10.718 10.406,10.731 10.448 C 10.738 10.473,10.877 11.063,11.040 11.760 C 11.559 13.983,11.582 14.056,11.810 14.230 C 11.939 14.329,12.142 14.400,12.293 14.400 C 12.561 14.400,12.843 14.234,12.969 14.003 C 13.068 13.822,13.084 13.642,13.027 13.360 C 12.878 12.616,12.212 9.694,12.119 9.375 C 12.068 9.199,11.872 8.978,11.680 8.880 C 11.563 8.820,11.549 8.819,10.174 8.806 C 9.411 8.799,8.763 8.784,8.733 8.773 C 8.688 8.756,8.653 8.634,8.498 7.956 C 8.130 6.350,8.061 6.087,7.973 5.960 C 7.894 5.845,7.740 5.723,7.596 5.660 C 7.499 5.619,7.232 5.598,7.129 5.624 " fill="#1A1C1F" stroke="none" fill-rule="evenodd"></path></svg>