<svg width="32" height="32" viewBox="0 0 32 32" fill="none" xmlns="http://www.w3.org/2000/svg"><path d="M4.436 3.634 C 3.956 3.872,3.761 4.479,4.010 4.957 C 4.078 5.087,4.193 5.237,4.267 5.290 C 4.340 5.343,4.684 5.446,5.031 5.517 C 5.925 5.702,6.308 5.970,6.696 6.679 L 6.849 6.960 6.871 8.853 L 6.892 10.747 7.662 14.533 C 8.086 16.616,8.483 18.566,8.544 18.867 C 8.605 19.168,8.682 19.413,8.715 19.413 C 8.748 19.413,9.133 19.054,9.571 18.616 L 10.367 17.818 9.639 14.096 L 8.912 10.373 8.886 8.640 C 8.864 7.093,8.849 6.862,8.748 6.488 C 8.500 5.564,7.957 4.774,7.219 4.263 C 6.318 3.638,5.020 3.345,4.436 3.634 M26.774 4.270 C 26.634 4.329,6.751 24.200,6.226 24.806 C 5.845 25.245,5.785 25.504,5.972 25.891 C 6.115 26.186,6.343 26.371,6.675 26.460 C 7.128 26.581,7.260 26.492,8.656 25.121 L 9.893 23.907 10.293 24.278 C 11.102 25.026,11.771 25.349,12.708 25.444 C 13.034 25.476,14.449 25.492,16.222 25.483 L 19.191 25.467 19.417 25.307 C 19.994 24.899,20.010 24.060,19.449 23.689 L 19.235 23.547 16.031 23.518 C 12.928 23.490,12.818 23.486,12.547 23.377 C 11.999 23.156,11.672 22.913,11.448 22.558 L 11.363 22.423 13.512 20.275 L 15.661 18.126 15.938 19.499 C 16.237 20.975,16.298 21.138,16.629 21.344 L 16.827 21.467 19.814 21.482 L 22.801 21.498 23.113 23.136 C 23.754 26.491,24.004 27.712,24.090 27.909 C 24.204 28.171,24.476 28.407,24.746 28.480 C 25.180 28.597,25.687 28.337,25.882 27.899 C 25.983 27.671,25.986 27.621,25.925 27.200 C 25.849 26.666,24.983 22.272,24.712 21.040 C 24.495 20.055,24.428 19.887,24.170 19.690 L 23.982 19.547 20.993 19.520 L 18.005 19.493 17.697 17.951 L 17.388 16.409 22.467 11.311 C 25.261 8.507,27.667 6.072,27.813 5.899 C 28.079 5.585,28.080 5.583,28.080 5.201 C 28.080 4.868,28.061 4.794,27.936 4.630 C 27.691 4.308,27.110 4.129,26.774 4.270 M13.493 4.326 C 13.110 4.388,12.430 4.727,12.018 5.063 C 11.607 5.398,11.211 5.982,11.038 6.507 C 10.929 6.842,10.908 7.005,10.912 7.520 C 10.915 8.037,10.937 8.195,11.054 8.525 C 11.252 9.083,11.491 9.451,11.929 9.868 C 12.377 10.294,12.881 10.557,13.515 10.696 C 15.117 11.045,16.830 9.961,17.251 8.330 C 17.353 7.934,17.366 7.116,17.276 6.740 C 17.066 5.863,16.369 5.011,15.520 4.594 C 14.887 4.282,14.272 4.201,13.493 4.326 M14.747 6.448 C 15.421 6.827,15.564 7.772,15.033 8.348 C 14.340 9.100,13.123 8.735,12.932 7.717 C 12.846 7.261,13.080 6.700,13.445 6.485 C 13.914 6.209,14.301 6.198,14.747 6.448 M12.979 12.640 C 12.607 12.762,12.191 13.025,12.035 13.238 C 11.734 13.648,11.952 14.406,12.443 14.659 C 12.683 14.782,12.713 14.786,13.002 14.722 C 13.169 14.685,13.402 14.605,13.519 14.546 C 13.782 14.413,15.327 12.886,15.295 12.791 C 15.251 12.661,14.804 12.575,14.053 12.554 C 13.412 12.536,13.260 12.548,12.979 12.640 " fill="#1A1C1F" stroke="none" fill-rule="evenodd"></path></svg>