<svg width="28" height="28" viewBox="0 0 28 28" fill="none" xmlns="http://www.w3.org/2000/svg"><path d="M4.934 3.121 C 4.752 3.162,4.508 3.371,4.417 3.562 C 4.258 3.897,4.382 4.422,4.668 4.630 C 4.733 4.678,5.006 4.760,5.275 4.813 C 5.856 4.927,6.230 5.109,6.488 5.402 C 6.898 5.868,6.952 6.179,6.953 8.048 L 6.953 9.306 7.820 13.601 C 9.086 19.879,9.078 19.842,9.282 20.277 C 9.494 20.727,9.924 21.279,10.272 21.547 C 10.666 21.850,11.292 22.149,11.679 22.220 C 11.935 22.267,12.702 22.282,14.840 22.283 C 17.975 22.283,17.878 22.293,18.120 21.973 C 18.444 21.545,18.357 20.977,17.927 20.709 L 17.757 20.603 14.957 20.577 C 12.248 20.551,12.148 20.546,11.887 20.450 C 11.433 20.283,11.112 20.024,10.946 19.693 C 10.743 19.286,10.626 18.748,9.527 13.160 L 8.734 9.123 8.708 7.607 C 8.691 6.533,8.663 6.000,8.615 5.780 C 8.325 4.462,7.231 3.403,5.897 3.147 C 5.537 3.078,5.164 3.068,4.934 3.121 M12.775 3.782 C 12.016 3.871,11.104 4.570,10.736 5.343 C 10.234 6.401,10.424 7.630,11.223 8.488 C 11.577 8.868,11.942 9.105,12.428 9.271 C 12.753 9.382,12.883 9.402,13.300 9.401 C 13.713 9.400,13.848 9.379,14.162 9.270 C 15.840 8.686,16.585 6.880,15.807 5.284 C 15.539 4.735,14.881 4.137,14.286 3.903 C 14.119 3.837,13.307 3.723,13.137 3.741 C 13.111 3.743,12.948 3.762,12.775 3.782 M13.763 5.598 C 14.016 5.727,14.308 6.074,14.343 6.288 C 14.443 6.890,14.242 7.312,13.745 7.543 C 12.992 7.894,12.155 7.292,12.240 6.461 C 12.299 5.890,12.720 5.508,13.290 5.507 C 13.490 5.507,13.641 5.536,13.763 5.598 M12.763 10.973 C 12.168 11.029,11.598 11.324,11.419 11.668 C 11.355 11.790,11.340 11.897,11.356 12.101 C 11.385 12.456,11.540 12.693,11.836 12.836 L 12.058 12.944 12.364 12.860 C 13.108 12.656,13.460 12.661,13.771 12.883 C 14.067 13.094,14.105 13.224,14.629 15.817 C 14.972 17.515,15.152 18.311,15.217 18.416 C 15.269 18.500,15.389 18.617,15.484 18.676 L 15.657 18.783 18.270 18.797 L 20.883 18.811 21.110 20.011 C 21.634 22.784,21.948 24.298,22.031 24.461 C 22.139 24.674,22.362 24.849,22.611 24.915 C 22.985 25.014,23.411 24.793,23.580 24.412 C 23.668 24.212,23.671 24.168,23.619 23.800 C 23.548 23.304,22.575 18.423,22.445 17.913 C 22.336 17.487,22.264 17.356,22.056 17.207 C 21.910 17.104,21.905 17.103,19.300 17.080 L 16.690 17.057 16.350 15.377 C 15.809 12.701,15.761 12.519,15.484 12.105 C 15.354 11.911,15.145 11.671,15.018 11.571 C 14.428 11.105,13.623 10.891,12.763 10.973 " fill="#1A1C1F" stroke="none" fill-rule="evenodd"></path></svg>