<svg width="24" height="24" viewBox="0 0 24 24" fill="none" xmlns="http://www.w3.org/2000/svg"><path d="M4.170 2.556 C 3.977 2.606,3.700 2.854,3.596 3.069 C 3.473 3.322,3.472 3.709,3.593 3.946 C 3.749 4.253,4.198 4.520,4.556 4.520 C 4.908 4.520,5.183 4.696,5.344 5.025 L 5.454 5.250 5.471 6.975 L 5.488 8.700 6.106 11.760 C 6.862 15.499,7.220 17.186,7.319 17.466 C 7.446 17.827,7.678 18.165,8.058 18.540 C 8.470 18.947,8.726 19.113,9.253 19.312 C 9.611 19.448,9.640 19.452,10.450 19.487 C 10.906 19.506,12.070 19.517,13.036 19.511 L 14.793 19.500 15.024 19.340 C 15.641 18.914,15.624 18.080,14.990 17.674 L 14.790 17.545 12.425 17.516 C 10.869 17.497,10.009 17.472,9.912 17.442 C 9.674 17.370,9.381 17.112,9.266 16.872 C 9.139 16.606,9.036 16.138,8.190 11.960 L 7.506 8.580 7.479 6.820 C 7.448 4.838,7.436 4.744,7.122 4.102 C 6.761 3.363,6.106 2.823,5.327 2.622 C 5.033 2.546,4.359 2.508,4.170 2.556 M11.044 2.563 C 10.711 2.629,10.367 2.824,10.083 3.110 C 9.795 3.399,9.642 3.668,9.541 4.058 C 9.261 5.149,10.052 6.287,11.227 6.487 C 11.974 6.613,12.887 6.139,13.239 5.441 C 13.660 4.609,13.517 3.714,12.864 3.087 C 12.370 2.613,11.730 2.429,11.044 2.563 M10.609 8.559 C 10.392 8.611,10.169 8.787,10.043 9.008 C 9.886 9.283,9.859 9.466,9.936 9.731 C 10.089 10.257,10.417 10.479,11.101 10.517 C 11.550 10.543,11.674 10.596,11.784 10.809 C 11.821 10.879,11.982 11.659,12.143 12.541 C 12.304 13.424,12.473 14.316,12.518 14.523 C 12.611 14.949,12.728 15.151,12.988 15.335 C 13.219 15.496,13.470 15.514,15.528 15.517 L 17.237 15.520 17.277 15.670 C 17.298 15.752,17.569 16.837,17.877 18.080 C 18.579 20.910,18.597 20.972,18.767 21.150 C 19.357 21.770,20.368 21.457,20.503 20.612 C 20.531 20.434,20.316 19.511,19.516 16.380 C 18.877 13.880,18.914 13.995,18.709 13.819 C 18.368 13.525,18.512 13.542,16.336 13.527 L 14.373 13.513 14.282 13.007 C 14.002 11.441,13.729 10.211,13.604 9.949 C 13.262 9.233,12.576 8.669,11.914 8.562 C 11.623 8.515,10.804 8.513,10.609 8.559 " fill="#1A1C1F" stroke="none" fill-rule="evenodd"></path></svg>