<svg width="14" height="14" viewBox="0 0 14 14" fill="none" xmlns="http://www.w3.org/2000/svg"><path d="M6.183 1.432 C 5.464 1.592,5.130 2.463,5.562 3.050 C 5.917 3.533,6.556 3.641,7.011 3.295 C 7.300 3.076,7.443 2.796,7.443 2.450 C 7.443 2.037,7.222 1.688,6.851 1.515 C 6.614 1.403,6.421 1.380,6.183 1.432 M2.969 1.469 C 2.828 1.534,2.653 1.717,2.601 1.856 C 2.562 1.961,2.557 2.071,2.549 3.012 L 2.540 4.053 3.103 6.442 C 4.061 10.500,4.144 10.837,4.234 11.025 C 4.287 11.135,4.373 11.256,4.480 11.371 C 4.759 11.669,5.074 11.833,5.454 11.876 C 5.734 11.908,8.130 11.907,8.280 11.875 C 8.344 11.861,8.452 11.811,8.521 11.764 C 8.839 11.542,8.930 11.147,8.733 10.837 C 8.660 10.721,8.489 10.581,8.373 10.542 C 8.321 10.525,7.840 10.511,6.943 10.502 L 5.590 10.488 5.540 10.414 C 5.471 10.311,5.427 10.139,4.665 6.939 L 3.990 4.104 3.968 3.049 C 3.943 1.864,3.939 1.831,3.779 1.650 C 3.641 1.492,3.479 1.423,3.251 1.424 C 3.121 1.424,3.040 1.437,2.969 1.469 M6.251 4.921 C 6.059 4.960,5.835 5.153,5.752 5.350 C 5.670 5.546,5.709 5.776,6.101 7.410 C 6.434 8.798,6.437 8.806,6.631 8.953 C 6.831 9.105,6.771 9.099,8.137 9.099 L 9.378 9.100 9.401 9.188 C 9.414 9.236,9.525 9.711,9.649 10.243 C 10.006 11.780,10.115 12.189,10.196 12.307 C 10.483 12.725,11.126 12.677,11.369 12.220 C 11.468 12.033,11.448 11.849,11.215 10.815 C 10.980 9.772,10.662 8.426,10.606 8.232 C 10.555 8.058,10.459 7.930,10.298 7.823 L 10.166 7.735 9.755 7.720 C 9.530 7.712,8.954 7.704,8.476 7.702 L 7.608 7.700 7.595 7.647 C 7.588 7.619,7.505 7.259,7.410 6.848 C 7.168 5.803,7.052 5.352,7.000 5.250 C 6.885 5.025,6.523 4.866,6.251 4.921 " fill="#1A1C1F" stroke="none" fill-rule="evenodd"></path></svg>