<svg width="14" height="14" viewBox="0 0 14 14" fill="none" xmlns="http://www.w3.org/2000/svg"><path d="M5.203 1.432 C 4.909 1.496,4.607 1.741,4.474 2.023 C 4.402 2.173,4.398 2.196,4.398 2.451 C 4.398 2.716,4.400 2.724,4.486 2.898 C 4.747 3.426,5.349 3.639,5.876 3.391 C 6.058 3.305,6.272 3.086,6.371 2.885 C 6.510 2.601,6.494 2.234,6.329 1.931 C 6.197 1.687,5.881 1.471,5.586 1.423 C 5.417 1.395,5.366 1.396,5.203 1.432 M1.967 1.482 C 1.821 1.555,1.695 1.690,1.620 1.852 L 1.564 1.972 1.563 3.022 L 1.563 4.072 2.009 5.962 C 2.596 8.448,2.621 8.546,2.655 8.558 C 2.672 8.563,2.938 8.316,3.248 8.009 L 3.810 7.451 3.393 5.703 L 2.976 3.955 2.964 2.928 C 2.952 1.911,2.951 1.901,2.897 1.791 C 2.785 1.563,2.577 1.440,2.287 1.428 C 2.110 1.421,2.075 1.427,1.967 1.482 M11.546 1.782 C 11.486 1.799,11.397 1.842,11.347 1.879 C 11.209 1.984,2.233 10.964,1.928 11.304 C 1.590 11.680,1.559 11.740,1.586 11.952 C 1.611 12.155,1.681 12.297,1.813 12.412 C 1.964 12.545,2.144 12.608,2.327 12.592 C 2.406 12.584,2.514 12.557,2.566 12.530 C 2.618 12.504,2.879 12.268,3.145 12.007 L 3.629 11.531 3.812 11.644 C 4.044 11.787,4.223 11.848,4.503 11.878 C 4.637 11.893,5.241 11.900,6.020 11.895 C 7.285 11.888,7.317 11.887,7.420 11.839 C 7.571 11.767,7.703 11.644,7.781 11.500 C 7.840 11.393,7.849 11.349,7.850 11.189 C 7.851 11.026,7.843 10.988,7.788 10.894 C 7.707 10.756,7.512 10.579,7.401 10.543 C 7.340 10.524,6.931 10.513,6.014 10.506 C 5.068 10.499,4.713 10.489,4.713 10.470 C 4.713 10.455,5.015 10.141,5.384 9.772 L 6.054 9.100 7.225 9.100 C 8.321 9.100,8.398 9.103,8.409 9.141 C 8.416 9.163,8.537 9.680,8.680 10.290 C 9.141 12.268,9.157 12.317,9.376 12.469 C 9.721 12.708,10.197 12.596,10.376 12.233 C 10.485 12.011,10.472 11.874,10.249 10.885 C 9.868 9.193,9.633 8.224,9.576 8.104 C 9.509 7.964,9.405 7.865,9.234 7.779 L 9.113 7.717 8.288 7.705 L 7.464 7.693 9.736 5.416 C 11.937 3.210,12.300 2.834,12.377 2.686 C 12.424 2.595,12.424 2.350,12.378 2.214 C 12.269 1.896,11.877 1.692,11.546 1.782 M5.262 4.921 C 5.050 4.976,4.840 5.164,4.773 5.360 C 4.753 5.420,4.737 5.532,4.737 5.610 C 4.737 5.766,4.837 6.293,4.873 6.329 C 4.888 6.344,5.092 6.158,5.459 5.795 L 6.022 5.238 5.950 5.152 C 5.813 4.988,5.461 4.869,5.262 4.921 " fill="#1A1C1F" stroke="none" fill-rule="evenodd"></path></svg>