<svg width="16" height="16" viewBox="0 0 16 16" fill="none" xmlns="http://www.w3.org/2000/svg"><path d="M2.413 1.623 C 2.193 1.681,1.958 1.887,1.852 2.114 L 1.787 2.253 1.787 3.453 L 1.786 4.653 2.230 6.533 C 2.913 9.428,2.997 9.768,3.034 9.780 C 3.053 9.787,3.358 9.505,3.711 9.154 L 4.354 8.515 3.878 6.518 L 3.401 4.520 3.387 3.347 C 3.374 2.187,3.373 2.172,3.312 2.048 C 3.237 1.897,3.103 1.773,2.921 1.690 C 2.772 1.622,2.537 1.591,2.413 1.623 M5.972 1.627 C 5.646 1.682,5.267 1.985,5.114 2.311 C 4.941 2.682,4.990 3.151,5.238 3.488 C 5.595 3.973,6.177 4.127,6.707 3.877 C 7.103 3.691,7.388 3.242,7.386 2.808 C 7.385 2.451,7.293 2.224,7.050 1.980 C 6.752 1.679,6.380 1.558,5.972 1.627 M13.207 2.024 C 13.160 2.037,13.076 2.081,13.020 2.123 C 12.720 2.351,2.760 12.294,2.177 12.947 C 1.817 13.350,1.782 13.419,1.812 13.659 C 1.851 13.970,1.995 14.178,2.272 14.325 C 2.424 14.406,2.759 14.410,2.920 14.333 C 2.983 14.303,3.258 14.054,3.587 13.730 L 4.147 13.178 4.360 13.310 C 4.477 13.382,4.669 13.474,4.787 13.513 L 5.000 13.585 6.660 13.594 L 8.321 13.604 8.464 13.538 C 8.651 13.453,8.799 13.316,8.893 13.142 C 8.960 13.020,8.970 12.971,8.971 12.787 C 8.971 12.620,8.959 12.550,8.914 12.465 C 8.848 12.338,8.663 12.146,8.552 12.089 C 8.418 12.020,8.031 12.001,6.687 12.001 C 5.688 12.000,5.387 11.993,5.387 11.968 C 5.387 11.950,5.731 11.590,6.153 11.168 L 6.919 10.400 8.186 10.403 C 8.883 10.405,9.488 10.414,9.531 10.423 L 9.610 10.440 9.897 11.667 C 10.436 13.970,10.463 14.056,10.691 14.231 C 11.228 14.641,11.992 14.237,11.938 13.573 C 11.920 13.343,11.603 11.908,11.156 10.027 C 10.968 9.236,10.940 9.167,10.734 9.001 C 10.503 8.813,10.539 8.819,9.484 8.805 L 8.529 8.793 11.126 6.190 C 13.642 3.669,14.057 3.239,14.145 3.069 C 14.200 2.963,14.199 2.685,14.142 2.519 C 14.088 2.359,13.889 2.152,13.716 2.075 C 13.579 2.015,13.339 1.991,13.207 2.024 M6.024 5.624 C 5.891 5.651,5.704 5.766,5.600 5.884 C 5.463 6.040,5.402 6.200,5.403 6.400 C 5.404 6.571,5.530 7.191,5.573 7.236 C 5.585 7.249,5.887 6.971,6.244 6.618 L 6.893 5.977 6.800 5.880 C 6.617 5.691,6.266 5.575,6.024 5.624 " fill="#1A1C1F" stroke="none" fill-rule="evenodd"></path></svg>