<svg width="24" height="24" viewBox="0 0 24 24" fill="none" xmlns="http://www.w3.org/2000/svg"><path d="M3.472 2.555 C 3.320 2.588,3.262 2.622,3.066 2.798 C 2.680 3.145,2.668 3.828,3.043 4.203 C 3.205 4.365,3.530 4.487,3.940 4.540 C 4.232 4.578,4.444 4.717,4.573 4.954 C 4.725 5.233,4.758 5.651,4.759 7.307 L 4.760 8.674 5.303 11.367 C 5.602 12.848,5.853 14.066,5.860 14.073 C 5.897 14.110,6.086 13.939,6.794 13.228 L 7.569 12.450 7.179 10.535 L 6.790 8.620 6.758 6.840 C 6.727 5.080,6.725 5.056,6.621 4.700 C 6.351 3.776,5.886 3.192,5.123 2.816 C 4.973 2.742,4.735 2.654,4.595 2.621 C 4.285 2.548,3.674 2.512,3.472 2.555 M10.280 2.575 C 9.246 2.801,8.552 3.944,8.821 4.978 C 8.962 5.517,9.369 6.031,9.850 6.275 C 9.987 6.345,10.248 6.432,10.430 6.470 C 10.741 6.534,10.779 6.534,11.090 6.470 C 11.918 6.299,12.492 5.754,12.699 4.942 C 12.810 4.508,12.749 4.013,12.535 3.589 C 12.385 3.294,11.958 2.882,11.640 2.726 C 11.235 2.528,10.744 2.473,10.280 2.575 M20.032 3.039 C 19.951 3.054,19.807 3.118,19.712 3.180 C 19.519 3.308,7.616 15.174,4.724 18.122 C 2.749 20.135,2.760 20.122,2.760 20.490 C 2.760 20.835,3.023 21.247,3.338 21.395 C 3.463 21.454,3.597 21.480,3.772 21.480 C 3.985 21.480,4.055 21.461,4.217 21.358 C 4.322 21.291,5.036 20.614,5.802 19.854 L 7.196 18.471 7.428 18.673 C 7.952 19.128,8.613 19.401,9.385 19.482 C 9.672 19.512,10.530 19.523,11.903 19.514 L 13.986 19.500 14.221 19.379 C 14.505 19.234,14.662 19.030,14.726 18.720 C 14.811 18.312,14.604 17.877,14.210 17.634 C 14.068 17.546,14.044 17.545,11.723 17.515 C 10.435 17.499,9.314 17.469,9.232 17.448 C 9.053 17.401,8.852 17.281,8.721 17.141 L 8.623 17.037 10.142 15.518 L 11.660 13.999 11.710 14.229 C 11.872 14.986,11.979 15.175,12.375 15.402 L 12.580 15.519 14.546 15.520 L 16.512 15.520 17.093 17.870 C 17.789 20.684,17.885 21.004,18.084 21.204 C 18.325 21.445,18.731 21.538,19.096 21.436 C 19.336 21.370,19.654 21.030,19.734 20.755 C 19.795 20.545,19.794 20.516,19.701 20.071 C 19.602 19.590,18.711 16.053,18.367 14.771 C 18.150 13.962,18.082 13.835,17.769 13.651 L 17.580 13.540 15.611 13.527 L 13.643 13.515 13.616 13.367 C 13.601 13.286,13.547 13.004,13.496 12.740 L 13.403 12.260 16.654 9.000 C 20.776 4.866,21.144 4.486,21.198 4.291 C 21.402 3.554,20.790 2.897,20.032 3.039 M9.938 8.556 C 9.691 8.586,9.448 8.765,9.294 9.027 C 9.083 9.387,9.175 9.935,9.498 10.240 L 9.646 10.380 10.503 9.512 C 10.974 9.034,11.360 8.627,11.360 8.607 C 11.360 8.532,10.414 8.498,9.938 8.556 " fill="#1A1C1F" stroke="none" fill-rule="evenodd"></path></svg>