<svg width="20" height="20" viewBox="0 0 20 20" fill="none" xmlns="http://www.w3.org/2000/svg"><path d="M3.017 2.029 C 2.742 2.101,2.447 2.359,2.315 2.643 L 2.234 2.817 2.233 4.317 L 2.233 5.817 2.870 8.517 C 3.709 12.069,3.744 12.209,3.793 12.226 C 3.817 12.233,4.197 11.881,4.639 11.442 L 5.442 10.645 4.847 8.147 L 4.252 5.650 4.234 4.183 C 4.217 2.734,4.216 2.715,4.139 2.560 C 4.046 2.371,3.878 2.217,3.651 2.113 C 3.465 2.028,3.171 1.989,3.017 2.029 M7.465 2.034 C 7.058 2.103,6.583 2.481,6.392 2.889 C 6.177 3.350,6.238 3.939,6.545 4.356 C 7.056 5.051,7.993 5.203,8.635 4.696 C 9.520 3.996,9.402 2.673,8.411 2.172 C 8.109 2.020,7.807 1.976,7.465 2.034 M16.494 2.546 C 16.408 2.570,16.265 2.647,16.177 2.718 C 15.925 2.921,3.189 15.665,2.754 16.149 C 2.272 16.685,2.227 16.771,2.265 17.074 C 2.315 17.472,2.515 17.752,2.863 17.912 C 3.081 18.012,3.461 18.008,3.662 17.904 C 3.745 17.861,4.101 17.539,4.495 17.151 L 5.184 16.473 5.447 16.636 C 5.755 16.826,6.020 16.921,6.367 16.966 C 6.504 16.983,7.476 16.998,8.526 16.999 L 10.436 17.000 10.602 16.915 C 10.831 16.800,11.003 16.637,11.117 16.427 C 11.199 16.276,11.213 16.213,11.215 15.984 C 11.216 15.751,11.205 15.697,11.126 15.562 C 11.011 15.366,10.731 15.113,10.572 15.062 C 10.486 15.034,9.901 15.018,8.592 15.009 C 7.241 14.998,6.733 14.984,6.733 14.957 C 6.733 14.936,7.164 14.487,7.691 13.960 L 8.648 13.000 10.322 13.000 C 11.887 13.000,11.997 13.004,12.013 13.058 C 12.022 13.090,12.196 13.829,12.400 14.700 C 12.930 16.974,13.047 17.415,13.164 17.574 C 13.372 17.856,13.727 18.024,14.047 17.991 C 14.509 17.943,14.926 17.531,14.931 17.117 C 14.935 16.848,14.799 16.202,14.120 13.265 C 13.742 11.632,13.693 11.485,13.453 11.279 C 13.153 11.019,13.188 11.025,11.856 11.007 L 10.662 10.991 13.924 7.720 C 15.719 5.922,17.270 4.352,17.373 4.233 C 17.699 3.853,17.733 3.787,17.733 3.535 C 17.733 3.217,17.655 3.018,17.451 2.814 C 17.205 2.567,16.816 2.459,16.494 2.546 M7.511 7.031 C 7.076 7.140,6.702 7.637,6.744 8.050 C 6.766 8.269,6.931 9.009,6.967 9.045 C 6.982 9.061,7.359 8.714,7.805 8.273 L 8.617 7.472 8.500 7.351 C 8.270 7.111,7.797 6.959,7.511 7.031 " fill="#1A1C1F" stroke="none" fill-rule="evenodd"></path></svg>