<svg width="28" height="28" viewBox="0 0 28 28" fill="none" xmlns="http://www.w3.org/2000/svg"><path d="M4.001 3.117 C 3.816 3.164,3.573 3.373,3.484 3.562 C 3.325 3.897,3.448 4.422,3.735 4.630 C 3.800 4.678,4.073 4.760,4.341 4.813 C 4.922 4.927,5.297 5.109,5.554 5.402 C 5.963 5.867,6.018 6.178,6.019 8.055 L 6.020 9.274 6.790 13.108 C 7.213 15.216,7.560 16.952,7.560 16.964 C 7.560 17.067,7.777 16.888,8.374 16.290 L 9.070 15.593 8.430 12.335 L 7.791 9.077 7.791 8.097 C 7.791 6.767,7.730 5.886,7.609 5.507 C 7.255 4.391,6.322 3.495,5.203 3.197 C 4.890 3.113,4.198 3.068,4.001 3.117 M23.497 3.718 C 23.384 3.735,21.679 5.418,14.677 12.428 C 9.903 17.207,5.808 21.325,5.577 21.578 L 5.158 22.038 5.158 22.305 C 5.158 22.754,5.463 23.106,5.908 23.173 C 6.263 23.226,6.426 23.110,7.588 21.969 L 8.657 20.921 9.123 21.338 C 9.452 21.631,9.701 21.808,9.963 21.935 C 10.702 22.293,10.590 22.283,13.863 22.283 L 16.783 22.283 16.973 22.158 C 17.529 21.790,17.528 21.024,16.971 20.699 L 16.777 20.586 14.023 20.569 C 11.333 20.552,11.263 20.549,10.967 20.449 C 10.606 20.327,10.273 20.092,10.078 19.823 L 9.936 19.628 11.816 17.747 C 12.850 16.713,13.702 15.882,13.708 15.902 C 13.714 15.921,13.825 16.460,13.954 17.101 C 14.208 18.352,14.263 18.497,14.551 18.676 L 14.723 18.783 17.337 18.797 L 19.951 18.811 20.201 20.127 C 20.767 23.105,21.004 24.253,21.090 24.437 C 21.403 25.104,22.346 25.089,22.646 24.412 C 22.735 24.212,22.738 24.168,22.685 23.800 C 22.536 22.755,21.505 17.760,21.386 17.509 C 21.346 17.424,21.239 17.298,21.149 17.229 L 20.984 17.103 18.369 17.080 L 15.754 17.057 15.484 15.707 L 15.214 14.358 19.659 9.897 C 22.103 7.444,24.204 5.318,24.327 5.173 C 24.508 4.959,24.555 4.866,24.577 4.678 C 24.621 4.306,24.460 3.951,24.180 3.807 C 24.035 3.732,23.698 3.688,23.497 3.718 M11.830 3.781 C 11.163 3.886,10.425 4.379,9.989 5.014 C 9.564 5.631,9.419 6.495,9.612 7.252 C 9.750 7.790,9.953 8.136,10.382 8.565 C 10.814 8.997,11.152 9.187,11.759 9.340 C 12.939 9.636,14.269 9.012,14.861 7.886 C 15.091 7.448,15.182 7.062,15.180 6.533 C 15.178 5.732,14.879 5.066,14.266 4.495 C 13.601 3.875,12.777 3.633,11.830 3.781 M12.981 5.672 C 13.527 6.055,13.595 6.867,13.120 7.328 C 12.697 7.737,12.108 7.763,11.673 7.391 C 11.119 6.917,11.195 6.009,11.820 5.644 C 12.043 5.515,12.094 5.504,12.421 5.516 C 12.732 5.529,12.806 5.549,12.981 5.672 M11.433 11.031 C 10.975 11.164,10.579 11.439,10.470 11.698 C 10.278 12.158,10.545 12.745,11.010 12.884 C 11.172 12.933,11.241 12.925,11.583 12.818 L 11.973 12.697 12.688 11.973 C 13.080 11.575,13.393 11.223,13.382 11.191 C 13.345 11.077,12.951 11.003,12.297 10.986 C 11.849 10.975,11.577 10.989,11.433 11.031 " fill="#1A1C1F" stroke="none" fill-rule="evenodd"></path></svg>