<svg width="24" height="24" viewBox="0 0 24 24" fill="none" xmlns="http://www.w3.org/2000/svg"><path d="M18.600 2.510 C 18.350 2.532,18.160 2.730,18.160 2.969 C 18.160 3.127,18.343 3.352,18.510 3.398 C 18.593 3.421,19.043 3.440,19.510 3.440 C 20.052 3.440,20.360 3.455,20.360 3.480 C 20.360 3.502,20.131 3.813,19.851 4.170 C 19.572 4.528,19.108 5.120,18.821 5.487 C 18.535 5.854,18.237 6.258,18.160 6.385 C 18.030 6.601,18.020 6.640,18.020 6.952 C 18.020 7.268,18.026 7.292,18.130 7.382 C 18.191 7.434,18.308 7.495,18.390 7.518 C 18.592 7.574,21.331 7.574,21.593 7.518 C 21.843 7.464,21.963 7.340,21.989 7.109 C 22.012 6.908,21.930 6.709,21.794 6.637 C 21.741 6.608,21.322 6.582,20.671 6.566 L 19.634 6.540 20.543 5.360 C 21.982 3.491,22.017 3.437,21.993 3.062 C 21.973 2.757,21.861 2.581,21.648 2.522 C 21.508 2.483,19.019 2.473,18.600 2.510 M14.280 4.956 C 14.122 4.977,14.091 4.998,14.027 5.129 C 13.958 5.270,13.958 5.284,14.024 5.422 C 14.061 5.501,14.136 5.583,14.189 5.603 C 14.242 5.623,14.590 5.640,14.963 5.640 C 15.415 5.640,15.640 5.654,15.640 5.683 C 15.640 5.706,15.373 6.062,15.047 6.473 C 14.268 7.454,14.135 7.635,14.061 7.811 C 13.952 8.071,14.000 8.319,14.192 8.492 C 14.265 8.559,14.358 8.564,15.408 8.552 C 16.412 8.541,16.556 8.532,16.651 8.469 C 16.831 8.352,16.845 8.113,16.684 7.915 C 16.609 7.823,16.587 7.819,15.859 7.800 L 15.112 7.780 15.714 7.027 C 16.046 6.613,16.406 6.154,16.514 6.007 C 16.817 5.597,16.880 5.262,16.696 5.043 L 16.593 4.920 15.526 4.926 C 14.940 4.929,14.379 4.943,14.280 4.956 M10.960 6.670 C 10.883 6.679,10.798 6.705,10.770 6.728 C 10.714 6.775,10.703 7.032,10.755 7.113 C 10.806 7.193,11.060 7.238,11.468 7.239 C 11.670 7.240,11.846 7.257,11.859 7.278 C 11.872 7.300,11.634 7.628,11.331 8.008 C 11.027 8.389,10.737 8.768,10.685 8.851 C 10.509 9.136,10.579 9.447,10.837 9.524 C 10.926 9.550,11.318 9.561,11.874 9.553 L 12.767 9.540 12.864 9.428 C 12.979 9.293,12.985 9.200,12.885 9.077 C 12.815 8.989,12.779 8.984,12.205 8.967 C 11.872 8.958,11.601 8.939,11.601 8.925 C 11.602 8.911,11.824 8.616,12.096 8.269 C 12.948 7.178,13.014 7.044,12.843 6.770 L 12.761 6.640 11.931 6.646 C 11.474 6.650,11.037 6.660,10.960 6.670 M2.670 9.608 C 2.455 9.665,2.141 9.962,2.053 10.191 C 1.986 10.364,1.980 10.530,1.983 12.180 C 1.985 13.427,2.002 14.078,2.037 14.300 C 2.137 14.928,2.434 15.710,2.773 16.234 L 2.953 16.511 2.593 17.946 C 1.934 20.577,1.925 20.634,2.105 20.996 C 2.336 21.458,2.937 21.672,3.380 21.448 C 3.829 21.221,3.859 21.157,4.260 19.564 C 4.451 18.807,4.623 18.145,4.642 18.094 L 4.678 18.000 4.889 18.086 C 5.261 18.236,5.651 18.364,6.000 18.450 C 6.336 18.533,6.402 18.535,12.301 18.549 L 18.263 18.564 18.556 19.452 C 19.105 21.113,19.179 21.260,19.549 21.429 C 19.732 21.513,19.812 21.526,20.060 21.514 C 20.310 21.501,20.381 21.480,20.527 21.378 C 20.622 21.311,20.760 21.159,20.833 21.038 C 20.957 20.834,20.965 20.802,20.949 20.540 C 20.936 20.335,20.860 20.045,20.666 19.458 C 20.520 19.016,20.400 18.636,20.400 18.614 C 20.400 18.589,20.573 18.562,20.823 18.548 C 21.136 18.530,21.292 18.502,21.422 18.439 C 21.749 18.281,21.958 17.935,21.959 17.549 C 21.961 17.150,21.771 16.850,21.395 16.658 L 21.209 16.563 13.895 16.551 L 6.580 16.538 6.260 16.450 C 5.257 16.172,4.482 15.455,4.152 14.497 L 4.036 14.159 4.005 12.247 C 3.975 10.378,3.972 10.330,3.884 10.149 C 3.664 9.693,3.173 9.474,2.670 9.608 M7.041 10.606 C 6.429 10.707,5.730 11.219,5.374 11.827 C 5.054 12.373,4.967 13.120,5.154 13.720 C 5.289 14.154,5.467 14.465,5.740 14.744 C 6.255 15.270,6.828 15.520,7.512 15.519 C 8.271 15.518,8.775 15.311,9.301 14.782 C 9.825 14.256,10.022 13.761,10.016 12.980 C 10.014 12.601,9.998 12.499,9.902 12.241 C 9.713 11.736,9.433 11.361,9.000 11.036 C 8.487 10.649,7.752 10.488,7.041 10.606 M13.300 12.122 C 12.731 12.239,12.224 12.527,11.759 12.996 C 11.502 13.255,11.382 13.414,11.272 13.640 C 10.937 14.326,10.920 14.823,11.218 15.214 C 11.489 15.569,12.073 15.690,12.449 15.469 C 12.686 15.330,12.807 15.172,12.960 14.800 C 13.117 14.420,13.235 14.269,13.462 14.159 C 13.629 14.078,13.683 14.072,14.053 14.097 C 15.538 14.193,19.259 14.486,19.750 14.544 C 19.942 14.567,19.960 14.578,19.960 14.672 C 19.960 14.884,20.091 15.239,20.229 15.400 C 20.731 15.986,21.729 15.819,21.938 15.115 C 22.017 14.850,22.016 14.636,21.937 14.248 C 21.746 13.319,21.111 12.731,20.140 12.583 C 19.398 12.470,17.750 12.323,15.424 12.161 C 14.226 12.077,13.575 12.065,13.300 12.122 M7.888 12.716 C 8.030 12.875,8.062 13.009,8.004 13.202 C 7.946 13.395,7.767 13.529,7.558 13.534 C 7.372 13.539,7.213 13.433,7.101 13.229 C 7.027 13.094,7.025 13.071,7.081 12.913 C 7.207 12.551,7.645 12.444,7.888 12.716 " fill="#1A1C1F" stroke="none" fill-rule="evenodd"></path></svg>