<svg width="14" height="14" viewBox="0 0 14 14" fill="none" xmlns="http://www.w3.org/2000/svg"><path d="M10.217 2.214 C 10.017 2.230,9.952 2.269,9.921 2.390 C 9.894 2.492,9.913 2.559,9.988 2.635 C 10.075 2.721,10.131 2.730,10.608 2.730 C 10.877 2.730,11.013 2.738,11.013 2.755 C 11.013 2.768,10.816 3.039,10.574 3.356 C 9.931 4.199,9.937 4.189,9.924 4.366 C 9.911 4.556,9.961 4.665,10.080 4.706 C 10.136 4.725,10.395 4.734,10.910 4.735 L 11.658 4.737 11.726 4.665 C 11.784 4.605,11.795 4.575,11.793 4.477 C 11.792 4.383,11.779 4.349,11.729 4.298 L 11.666 4.235 11.176 4.227 C 10.907 4.222,10.687 4.209,10.687 4.198 C 10.687 4.187,10.843 3.975,11.033 3.728 C 11.619 2.968,11.753 2.771,11.783 2.627 C 11.817 2.465,11.795 2.353,11.717 2.280 L 11.655 2.222 11.025 2.211 C 10.678 2.205,10.315 2.206,10.217 2.214 M7.788 2.819 C 7.702 2.841,7.635 2.902,7.616 2.977 C 7.595 3.060,7.660 3.192,7.736 3.221 C 7.769 3.233,7.974 3.243,8.192 3.243 C 8.455 3.243,8.587 3.252,8.587 3.268 C 8.587 3.282,8.431 3.489,8.241 3.729 C 7.655 4.466,7.629 4.505,7.614 4.649 C 7.600 4.784,7.631 4.875,7.719 4.954 C 7.762 4.993,7.815 4.996,8.439 4.989 C 9.181 4.981,9.196 4.978,9.255 4.838 C 9.286 4.763,9.285 4.748,9.245 4.670 C 9.189 4.563,9.141 4.553,8.664 4.551 C 8.469 4.551,8.304 4.542,8.298 4.532 C 8.292 4.522,8.461 4.294,8.673 4.025 C 9.219 3.331,9.287 3.224,9.287 3.052 C 9.287 2.968,9.232 2.858,9.177 2.833 C 9.125 2.810,7.876 2.797,7.788 2.819 M5.672 3.521 C 5.612 3.605,5.611 3.666,5.668 3.737 C 5.709 3.788,5.733 3.792,6.017 3.804 C 6.184 3.811,6.327 3.823,6.335 3.831 C 6.344 3.839,6.206 4.026,6.031 4.246 C 5.577 4.815,5.546 4.864,5.560 4.993 C 5.569 5.067,5.590 5.112,5.634 5.150 C 5.695 5.203,5.705 5.203,6.288 5.203 L 6.880 5.203 6.928 5.136 C 6.989 5.050,6.989 4.992,6.928 4.915 L 6.880 4.853 6.533 4.853 C 6.342 4.853,6.181 4.845,6.176 4.836 C 6.170 4.826,6.327 4.608,6.524 4.352 C 6.722 4.095,6.899 3.852,6.918 3.811 C 6.966 3.712,6.962 3.620,6.907 3.529 L 6.861 3.453 6.290 3.453 L 5.720 3.453 5.672 3.521 M2.642 6.113 C 2.461 6.156,2.266 6.352,2.214 6.543 C 2.176 6.682,2.202 7.758,2.247 7.957 C 2.327 8.306,2.472 8.647,2.654 8.919 L 2.769 9.090 2.562 9.813 C 2.303 10.717,2.193 11.138,2.194 11.232 C 2.194 11.331,2.287 11.523,2.379 11.616 C 2.617 11.854,2.938 11.860,3.192 11.631 C 3.326 11.511,3.339 11.478,3.547 10.745 C 3.668 10.318,3.804 9.863,3.814 9.853 C 3.816 9.849,3.907 9.874,4.015 9.907 C 4.195 9.962,4.264 9.969,4.830 9.987 C 5.170 9.998,6.490 10.008,7.763 10.009 L 10.077 10.010 10.101 10.133 C 10.114 10.200,10.163 10.478,10.209 10.751 C 10.307 11.332,10.336 11.440,10.428 11.567 C 10.505 11.673,10.697 11.780,10.846 11.800 C 11.055 11.828,11.323 11.664,11.425 11.446 C 11.500 11.285,11.496 11.158,11.398 10.567 C 11.353 10.295,11.317 10.054,11.317 10.032 C 11.317 10.007,11.345 9.981,11.388 9.966 C 11.592 9.895,11.757 9.677,11.777 9.450 C 11.799 9.210,11.686 9.005,11.459 8.872 L 11.352 8.808 7.910 8.802 L 4.468 8.795 4.300 8.735 C 3.903 8.595,3.526 8.202,3.454 7.854 C 3.440 7.787,3.419 7.467,3.408 7.142 C 3.387 6.572,3.385 6.548,3.325 6.426 C 3.232 6.236,3.072 6.132,2.835 6.107 C 2.771 6.100,2.684 6.103,2.642 6.113 M4.616 6.448 C 4.372 6.539,4.171 6.723,4.063 6.953 C 4.012 7.063,4.004 7.112,4.006 7.292 C 4.008 7.539,4.046 7.658,4.175 7.829 C 4.280 7.967,4.429 8.074,4.618 8.145 C 4.814 8.219,5.076 8.201,5.281 8.100 C 5.451 8.017,5.613 7.855,5.694 7.688 C 5.905 7.250,5.720 6.715,5.283 6.500 C 5.167 6.443,5.110 6.431,4.923 6.424 C 4.774 6.418,4.674 6.426,4.616 6.448 M7.245 6.518 C 6.953 6.593,6.652 6.834,6.525 7.098 C 6.453 7.246,6.393 7.467,6.393 7.586 C 6.393 7.895,6.635 8.159,6.942 8.185 C 7.195 8.206,7.398 8.089,7.532 7.844 L 7.613 7.696 7.732 7.712 C 7.989 7.745,9.502 7.961,10.265 8.072 C 10.707 8.137,11.118 8.190,11.177 8.190 C 11.733 8.190,11.988 7.529,11.576 7.157 C 11.519 7.106,11.433 7.058,11.358 7.037 C 11.168 6.982,7.922 6.527,7.525 6.499 C 7.429 6.493,7.314 6.500,7.245 6.518 " fill="#1A1C1F" stroke="none" fill-rule="evenodd"></path></svg>