<svg width="16" height="16" viewBox="0 0 16 16" fill="none" xmlns="http://www.w3.org/2000/svg"><path d="M12.135 1.619 C 11.894 1.667,11.791 1.986,11.955 2.174 C 12.034 2.265,12.218 2.292,12.787 2.296 C 13.475 2.301,13.450 2.252,13.035 2.787 C 12.456 3.533,12.024 4.114,11.973 4.215 C 11.946 4.267,11.909 4.382,11.891 4.470 C 11.860 4.620,11.862 4.640,11.917 4.754 C 12.027 4.981,11.981 4.972,13.160 4.981 L 14.201 4.989 14.290 4.897 C 14.446 4.736,14.428 4.472,14.253 4.357 C 14.198 4.321,14.076 4.311,13.546 4.300 C 13.195 4.292,12.907 4.278,12.907 4.269 C 12.907 4.261,13.023 4.103,13.164 3.920 C 13.726 3.190,14.263 2.461,14.320 2.349 C 14.392 2.205,14.418 1.963,14.375 1.831 C 14.357 1.777,14.305 1.707,14.258 1.674 C 14.174 1.614,14.166 1.613,13.187 1.609 C 12.644 1.607,12.171 1.611,12.135 1.619 M9.094 2.424 C 8.936 2.439,8.917 2.447,8.861 2.531 C 8.827 2.580,8.800 2.650,8.800 2.685 C 8.800 2.764,8.864 2.920,8.906 2.947 C 8.924 2.957,9.201 2.974,9.521 2.984 C 9.841 2.993,10.111 3.009,10.121 3.019 C 10.130 3.028,9.966 3.250,9.756 3.511 C 9.140 4.277,8.863 4.657,8.826 4.789 C 8.777 4.964,8.806 5.109,8.911 5.218 L 9.000 5.309 9.942 5.301 L 10.884 5.293 10.962 5.206 C 11.017 5.145,11.040 5.091,11.040 5.025 C 11.040 4.913,10.981 4.788,10.914 4.758 C 10.888 4.747,10.612 4.732,10.300 4.726 C 9.945 4.719,9.733 4.705,9.733 4.688 C 9.733 4.660,9.790 4.586,10.507 3.680 C 10.744 3.379,10.961 3.085,10.989 3.027 C 11.019 2.962,11.039 2.860,11.039 2.766 C 11.040 2.628,11.031 2.603,10.949 2.513 L 10.858 2.413 10.062 2.410 C 9.625 2.409,9.189 2.415,9.094 2.424 M6.226 3.365 C 6.168 3.434,6.158 3.468,6.170 3.543 C 6.178 3.594,6.202 3.654,6.223 3.675 C 6.279 3.730,6.455 3.757,6.773 3.759 C 6.927 3.760,7.069 3.771,7.088 3.783 C 7.113 3.799,7.048 3.897,6.846 4.149 C 6.474 4.614,6.148 5.041,6.111 5.112 C 6.055 5.218,6.073 5.412,6.148 5.511 L 6.216 5.600 7.026 5.600 L 7.835 5.600 7.904 5.518 C 7.942 5.473,7.973 5.421,7.973 5.402 C 7.973 5.325,7.911 5.197,7.860 5.170 C 7.830 5.154,7.603 5.134,7.356 5.126 C 7.109 5.119,6.907 5.101,6.907 5.088 C 6.907 5.075,7.084 4.834,7.301 4.552 C 7.844 3.848,7.887 3.786,7.923 3.648 C 7.950 3.550,7.949 3.510,7.920 3.440 C 7.858 3.291,7.793 3.280,7.003 3.280 L 6.298 3.280 6.226 3.365 M2.147 6.831 C 1.893 6.929,1.742 7.077,1.624 7.346 C 1.566 7.477,1.566 7.494,1.584 8.240 C 1.605 9.083,1.627 9.238,1.800 9.731 C 1.914 10.056,2.035 10.306,2.219 10.593 L 2.352 10.800 2.132 11.580 C 1.615 13.414,1.622 13.388,1.617 13.613 C 1.614 13.772,1.626 13.852,1.662 13.924 C 1.744 14.089,1.888 14.233,2.047 14.311 C 2.174 14.374,2.233 14.386,2.400 14.385 C 2.648 14.383,2.799 14.316,2.970 14.134 C 3.106 13.989,3.114 13.966,3.505 12.615 C 3.630 12.183,3.742 11.821,3.753 11.810 C 3.764 11.800,3.863 11.820,3.973 11.855 C 4.083 11.890,4.257 11.932,4.360 11.949 C 4.490 11.970,5.693 11.983,8.325 11.992 L 12.104 12.005 12.131 12.143 C 12.147 12.218,12.196 12.502,12.240 12.773 C 12.423 13.883,12.463 14.020,12.645 14.174 C 12.772 14.281,12.991 14.375,13.153 14.391 C 13.560 14.432,13.983 14.040,13.977 13.626 C 13.974 13.427,13.798 12.238,13.744 12.049 C 13.734 12.015,13.774 11.983,13.904 11.921 C 14.292 11.736,14.467 11.336,14.334 10.936 C 14.281 10.775,14.081 10.542,13.947 10.486 C 13.797 10.423,12.498 10.403,8.357 10.402 L 4.620 10.400 4.387 10.306 C 3.963 10.135,3.649 9.876,3.444 9.528 C 3.238 9.179,3.225 9.104,3.209 8.215 C 3.195 7.439,3.194 7.424,3.127 7.283 C 3.047 7.113,2.900 6.958,2.743 6.878 C 2.610 6.810,2.271 6.784,2.147 6.831 M4.987 7.227 C 4.687 7.265,4.302 7.533,4.152 7.808 C 3.948 8.184,3.954 8.655,4.169 9.022 C 4.262 9.181,4.515 9.408,4.688 9.487 C 5.282 9.760,5.987 9.493,6.274 8.888 C 6.355 8.716,6.360 8.690,6.360 8.399 C 6.360 8.096,6.358 8.087,6.260 7.888 C 6.086 7.537,5.735 7.273,5.396 7.239 C 5.310 7.230,5.216 7.220,5.187 7.216 C 5.157 7.212,5.067 7.217,4.987 7.227 M8.387 7.335 C 8.012 7.398,7.572 7.730,7.380 8.096 C 7.065 8.698,7.175 9.280,7.648 9.512 C 7.970 9.670,8.367 9.581,8.588 9.302 C 8.645 9.229,8.716 9.116,8.745 9.051 C 8.773 8.986,8.809 8.933,8.823 8.933 C 8.893 8.933,10.222 9.118,11.507 9.307 C 13.529 9.603,13.578 9.609,13.742 9.574 C 14.183 9.479,14.467 9.042,14.359 8.626 C 14.310 8.440,14.287 8.396,14.166 8.262 C 14.020 8.101,13.919 8.064,13.384 7.976 C 12.401 7.815,8.707 7.303,8.577 7.310 C 8.546 7.312,8.460 7.323,8.387 7.335 " fill="#1A1C1F" stroke="none" fill-rule="evenodd"></path></svg>