<svg width="28" height="28" viewBox="0 0 28 28" fill="none" xmlns="http://www.w3.org/2000/svg"><path d="M19.498 3.719 C 19.210 3.736,19.175 3.750,19.043 3.900 C 18.868 4.100,18.856 4.307,19.006 4.531 C 19.146 4.737,19.250 4.754,20.428 4.757 C 21.076 4.759,21.373 4.776,21.373 4.811 C 21.373 4.839,20.989 5.358,20.519 5.966 C 19.353 7.471,18.813 8.191,18.734 8.343 C 18.596 8.606,18.700 9.149,18.923 9.333 C 18.994 9.392,19.285 9.406,20.756 9.417 C 21.925 9.426,22.589 9.414,22.758 9.378 C 22.992 9.330,23.019 9.310,23.109 9.125 C 23.221 8.894,23.202 8.750,23.035 8.555 C 22.935 8.439,22.882 8.422,22.533 8.393 C 22.319 8.375,21.771 8.359,21.315 8.357 C 20.814 8.355,20.487 8.335,20.487 8.308 C 20.487 8.283,21.017 7.553,21.665 6.684 C 22.313 5.816,22.905 5.017,22.980 4.907 C 23.233 4.538,23.181 3.990,22.873 3.788 C 22.769 3.719,22.575 3.709,21.282 3.705 C 20.472 3.703,19.670 3.709,19.498 3.719 M14.887 5.862 C 14.651 5.892,14.527 5.967,14.464 6.119 C 14.399 6.277,14.430 6.427,14.562 6.596 L 14.660 6.720 15.392 6.723 C 15.794 6.725,16.161 6.742,16.208 6.760 C 16.280 6.788,16.198 6.914,15.657 7.601 C 14.677 8.846,14.282 9.381,14.250 9.505 C 14.196 9.720,14.260 10.076,14.375 10.198 L 14.483 10.313 15.988 10.313 L 17.493 10.313 17.591 10.189 C 17.784 9.943,17.773 9.672,17.563 9.534 C 17.461 9.468,17.293 9.451,16.583 9.435 C 16.112 9.424,15.727 9.398,15.727 9.377 C 15.727 9.356,16.097 8.860,16.550 8.274 C 17.698 6.791,17.710 6.772,17.710 6.410 C 17.710 6.156,17.694 6.099,17.590 5.996 L 17.470 5.876 16.260 5.858 C 15.595 5.849,14.977 5.851,14.887 5.862 M11.130 8.003 C 11.104 8.011,11.029 8.030,10.963 8.045 C 10.797 8.081,10.712 8.274,10.791 8.437 C 10.869 8.598,10.978 8.623,11.632 8.629 C 11.995 8.632,12.180 8.651,12.180 8.684 C 12.180 8.713,11.954 9.022,11.678 9.373 C 11.008 10.224,10.950 10.304,10.831 10.538 C 10.741 10.714,10.735 10.761,10.783 10.904 C 10.873 11.180,11.016 11.211,12.099 11.192 C 13.010 11.177,13.030 11.175,13.118 11.066 C 13.242 10.913,13.229 10.758,13.084 10.643 C 12.974 10.557,12.897 10.547,12.384 10.547 C 11.997 10.547,11.807 10.530,11.807 10.496 C 11.807 10.468,12.065 10.116,12.381 9.714 C 13.159 8.723,13.207 8.649,13.207 8.421 C 13.207 8.118,13.133 8.058,12.710 8.020 C 12.340 7.986,11.216 7.974,11.130 8.003 M2.373 12.109 C 2.101 12.209,1.962 12.321,1.854 12.525 C 1.758 12.707,1.752 12.790,1.735 14.107 C 1.724 14.970,1.738 15.679,1.771 15.974 C 1.907 17.184,2.329 18.151,3.139 19.108 C 3.393 19.408,3.451 19.506,3.432 19.599 C 3.419 19.664,3.270 20.357,3.100 21.140 C 2.666 23.145,2.609 23.475,2.663 23.673 C 2.758 24.017,3.306 24.363,3.639 24.290 C 3.858 24.242,4.179 24.009,4.258 23.841 C 4.299 23.754,4.462 23.106,4.621 22.400 C 5.047 20.506,5.059 20.462,5.128 20.477 C 5.162 20.484,5.371 20.544,5.593 20.611 C 5.969 20.724,6.088 20.735,7.327 20.769 C 8.058 20.789,11.870 20.808,15.798 20.810 L 22.939 20.813 23.167 21.735 C 23.520 23.161,23.732 23.885,23.828 23.992 C 24.068 24.257,24.561 24.361,24.853 24.208 C 25.071 24.094,25.274 23.863,25.335 23.659 C 25.396 23.455,25.347 23.199,24.948 21.618 L 24.744 20.813 25.077 20.813 C 25.504 20.813,25.722 20.750,25.927 20.571 C 26.144 20.380,26.227 20.210,26.227 19.955 C 26.227 19.596,26.059 19.318,25.737 19.142 C 25.609 19.072,24.779 19.064,15.983 19.050 L 6.370 19.034 5.917 18.869 C 4.955 18.519,4.256 17.908,3.852 17.062 C 3.570 16.471,3.550 16.321,3.505 14.435 C 3.463 12.702,3.446 12.541,3.275 12.348 C 3.177 12.238,2.762 12.040,2.637 12.044 C 2.585 12.045,2.467 12.075,2.373 12.109 M6.860 12.556 C 6.439 12.628,5.892 12.927,5.545 13.274 C 4.541 14.278,4.506 15.818,5.464 16.863 C 6.108 17.566,7.099 17.883,7.959 17.662 C 8.827 17.437,9.496 16.860,9.832 16.044 C 9.976 15.694,10.032 14.967,9.945 14.561 C 9.769 13.740,9.075 12.952,8.272 12.661 C 7.921 12.533,7.270 12.485,6.860 12.556 M7.834 14.393 C 8.389 14.743,8.367 15.574,7.795 15.866 C 7.593 15.969,7.269 15.989,7.061 15.910 C 6.775 15.802,6.535 15.442,6.535 15.120 C 6.535 14.782,6.818 14.374,7.117 14.281 C 7.325 14.216,7.629 14.263,7.834 14.393 M13.382 14.279 C 12.399 14.454,11.604 15.157,11.195 16.214 C 10.901 16.975,11.084 17.504,11.706 17.690 C 11.936 17.759,12.209 17.697,12.437 17.525 C 12.588 17.411,12.601 17.389,12.856 16.823 C 13.136 16.202,13.391 16.007,13.920 16.007 C 14.353 16.007,22.910 16.790,23.673 16.899 C 24.218 16.977,24.322 17.073,24.715 17.863 C 24.754 17.941,25.094 18.134,25.263 18.173 C 25.607 18.253,26.138 17.887,26.207 17.522 C 26.359 16.711,25.563 15.642,24.540 15.281 C 24.306 15.199,23.586 15.109,22.120 14.979 C 21.517 14.925,19.564 14.748,17.780 14.584 C 14.196 14.256,13.706 14.222,13.382 14.279 " fill="#1A1C1F" stroke="none" fill-rule="evenodd"></path></svg>