<svg width="14" height="14" viewBox="0 0 14 14" fill="none" xmlns="http://www.w3.org/2000/svg"><path d="M10.480 1.481 C 10.385 1.589,10.366 1.699,10.422 1.812 C 10.510 1.989,10.529 1.994,11.143 2.003 C 11.451 2.008,11.690 2.021,11.690 2.033 C 11.690 2.045,11.499 2.303,11.265 2.608 C 10.452 3.668,10.391 3.767,10.399 4.022 C 10.403 4.145,10.445 4.221,10.556 4.304 C 10.618 4.350,10.648 4.352,11.499 4.352 C 12.284 4.352,12.386 4.347,12.451 4.312 C 12.531 4.268,12.600 4.146,12.600 4.048 C 12.600 3.962,12.535 3.831,12.474 3.797 C 12.441 3.777,12.238 3.765,11.845 3.757 L 11.265 3.745 11.695 3.185 C 12.215 2.507,12.488 2.136,12.538 2.038 C 12.558 1.998,12.582 1.880,12.591 1.775 L 12.607 1.584 12.517 1.492 L 12.427 1.400 11.489 1.400 L 10.552 1.400 10.480 1.481 M7.771 2.162 C 7.672 2.288,7.684 2.466,7.797 2.550 C 7.853 2.591,7.912 2.598,8.350 2.611 C 8.620 2.619,8.846 2.631,8.852 2.638 C 8.859 2.644,8.659 2.907,8.409 3.221 C 8.159 3.535,7.903 3.868,7.840 3.961 C 7.673 4.209,7.657 4.404,7.790 4.547 C 7.846 4.606,7.877 4.617,8.028 4.631 C 8.123 4.640,8.485 4.644,8.832 4.639 C 9.366 4.633,9.473 4.625,9.533 4.592 C 9.652 4.527,9.693 4.379,9.627 4.250 C 9.567 4.135,9.503 4.121,8.989 4.111 C 8.706 4.106,8.517 4.093,8.517 4.080 C 8.517 4.068,8.714 3.809,8.956 3.505 C 9.638 2.645,9.657 2.617,9.664 2.433 C 9.668 2.314,9.643 2.241,9.571 2.164 L 9.511 2.100 8.666 2.100 L 7.820 2.100 7.771 2.162 M5.603 2.867 C 5.400 2.894,5.336 3.017,5.443 3.176 L 5.497 3.255 5.863 3.261 C 6.110 3.266,6.230 3.276,6.230 3.293 C 6.230 3.307,6.112 3.467,5.969 3.649 C 5.367 4.407,5.336 4.453,5.325 4.585 C 5.318 4.667,5.327 4.729,5.352 4.778 C 5.409 4.888,5.541 4.906,6.227 4.896 C 6.725 4.889,6.812 4.883,6.865 4.848 C 6.940 4.799,6.963 4.735,6.943 4.630 C 6.920 4.508,6.872 4.495,6.423 4.484 C 6.201 4.479,6.020 4.468,6.020 4.460 C 6.020 4.452,6.184 4.235,6.384 3.978 C 6.817 3.422,6.924 3.266,6.943 3.162 C 6.962 3.060,6.917 2.924,6.852 2.888 C 6.795 2.856,5.815 2.840,5.603 2.867 M1.883 5.959 C 1.651 6.045,1.466 6.245,1.422 6.457 C 1.403 6.547,1.399 6.803,1.406 7.278 C 1.418 8.023,1.431 8.112,1.576 8.517 C 1.659 8.746,1.849 9.125,1.964 9.290 C 2.054 9.418,2.056 9.424,2.030 9.523 C 2.015 9.579,1.899 9.992,1.773 10.442 C 1.439 11.629,1.393 11.819,1.407 11.961 C 1.432 12.207,1.632 12.462,1.860 12.540 C 2.110 12.625,2.404 12.556,2.589 12.369 C 2.714 12.243,2.731 12.194,3.056 11.062 C 3.171 10.659,3.271 10.324,3.278 10.318 C 3.285 10.311,3.356 10.325,3.436 10.348 C 3.516 10.371,3.634 10.405,3.698 10.423 C 3.884 10.477,5.060 10.497,7.961 10.499 L 10.590 10.500 10.615 10.623 C 10.628 10.690,10.671 10.939,10.711 11.177 C 10.820 11.839,10.894 12.182,10.946 12.266 C 11.066 12.460,11.314 12.602,11.537 12.606 C 11.856 12.611,12.158 12.372,12.225 12.063 C 12.245 11.968,12.236 11.859,12.169 11.406 C 12.125 11.106,12.074 10.783,12.055 10.687 C 12.037 10.590,12.026 10.504,12.032 10.495 C 12.037 10.486,12.089 10.457,12.147 10.432 C 12.381 10.328,12.508 10.178,12.568 9.933 C 12.601 9.798,12.601 9.772,12.567 9.639 C 12.519 9.449,12.417 9.305,12.256 9.198 L 12.126 9.112 8.122 9.104 L 4.118 9.096 3.909 9.027 C 3.614 8.929,3.470 8.840,3.255 8.623 C 3.112 8.480,3.046 8.391,2.977 8.248 C 2.825 7.936,2.821 7.916,2.803 7.163 C 2.786 6.494,2.784 6.471,2.726 6.347 C 2.652 6.186,2.544 6.077,2.383 6.002 C 2.230 5.931,2.009 5.912,1.883 5.959 M4.290 6.320 C 4.141 6.352,3.936 6.471,3.804 6.604 C 3.583 6.824,3.486 7.092,3.505 7.423 C 3.514 7.572,3.531 7.636,3.599 7.775 C 3.738 8.056,3.939 8.234,4.227 8.332 C 4.347 8.372,4.415 8.380,4.586 8.372 C 4.770 8.364,4.819 8.352,4.978 8.277 C 5.295 8.127,5.491 7.875,5.564 7.526 C 5.661 7.063,5.390 6.565,4.937 6.371 C 4.814 6.318,4.438 6.289,4.290 6.320 M7.268 6.425 C 7.050 6.482,6.879 6.583,6.694 6.766 C 6.438 7.020,6.301 7.339,6.300 7.682 C 6.299 8.093,6.623 8.397,7.035 8.371 C 7.328 8.352,7.513 8.216,7.643 7.922 C 7.697 7.800,7.706 7.791,7.765 7.803 C 7.800 7.810,8.070 7.848,8.365 7.887 C 8.660 7.927,9.390 8.031,9.987 8.120 C 11.493 8.344,11.603 8.358,11.853 8.362 C 12.118 8.366,12.236 8.320,12.390 8.152 C 12.593 7.932,12.642 7.667,12.526 7.416 C 12.455 7.265,12.316 7.119,12.187 7.063 C 12.097 7.024,11.359 6.909,9.123 6.588 C 7.842 6.404,7.471 6.372,7.268 6.425 " fill="#1A1C1F" stroke="none" fill-rule="evenodd"></path></svg>