<svg width="14" height="14" viewBox="0 0 14 14" fill="none" xmlns="http://www.w3.org/2000/svg"><path d="M2.519 1.475 C 2.081 1.629,1.767 1.941,1.619 2.369 C 1.530 2.628,1.526 2.965,1.609 3.219 C 1.713 3.537,1.965 3.847,2.254 4.014 C 2.431 4.116,2.557 4.156,2.765 4.177 C 3.248 4.224,3.604 4.103,3.921 3.783 C 4.123 3.579,4.227 3.398,4.294 3.136 C 4.462 2.479,4.128 1.819,3.475 1.518 C 3.310 1.441,3.288 1.437,2.987 1.430 C 2.705 1.422,2.655 1.427,2.519 1.475 M10.640 2.132 C 10.453 2.173,10.300 2.257,10.138 2.408 C 9.880 2.648,9.802 2.875,9.799 3.395 L 9.797 3.698 9.660 3.796 C 9.429 3.961,9.231 4.248,9.153 4.529 C 9.115 4.667,9.112 4.856,9.112 7.070 L 9.112 9.462 9.214 9.672 C 9.394 10.042,9.778 10.364,10.150 10.456 C 10.242 10.479,10.451 10.488,10.885 10.488 L 11.492 10.488 11.655 10.423 C 12.072 10.257,12.379 9.942,12.523 9.532 L 12.588 9.345 12.588 7.000 L 12.588 4.655 12.533 4.492 C 12.503 4.402,12.453 4.284,12.421 4.229 C 12.331 4.072,12.151 3.868,12.023 3.780 L 11.906 3.699 11.894 3.314 C 11.884 3.001,11.873 2.902,11.833 2.790 C 11.713 2.456,11.378 2.184,11.011 2.125 C 10.831 2.095,10.805 2.096,10.640 2.132 M5.649 3.024 C 5.155 3.156,4.847 3.592,4.883 4.104 C 4.919 4.619,5.293 5.000,5.835 5.076 C 6.206 5.128,6.672 4.855,6.856 4.480 C 7.027 4.129,6.999 3.780,6.772 3.435 C 6.542 3.085,6.068 2.911,5.649 3.024 M2.578 4.945 C 2.102 5.008,1.659 5.403,1.483 5.920 C 1.392 6.186,1.384 6.359,1.445 6.664 C 1.520 7.032,2.023 9.028,2.104 9.275 C 2.255 9.741,2.577 10.115,3.007 10.327 C 3.320 10.480,3.338 10.482,4.458 10.494 L 5.475 10.504 5.762 11.220 C 6.150 12.184,6.230 12.349,6.352 12.438 C 6.405 12.476,6.521 12.530,6.610 12.557 C 6.880 12.639,7.091 12.583,7.291 12.378 C 7.492 12.171,7.533 11.962,7.433 11.649 C 7.273 11.148,6.705 9.791,6.590 9.634 C 6.399 9.375,6.083 9.185,5.775 9.146 C 5.672 9.133,5.152 9.115,4.618 9.105 L 3.647 9.088 3.562 9.023 C 3.455 8.941,3.440 8.895,3.079 7.460 C 2.900 6.749,2.811 6.355,2.826 6.345 C 2.840 6.337,2.991 6.324,3.163 6.318 C 3.441 6.307,3.490 6.299,3.603 6.244 C 3.819 6.138,3.962 5.930,3.984 5.690 C 4.007 5.438,3.868 5.249,3.494 5.022 C 3.371 4.948,3.361 4.946,3.043 4.936 C 2.865 4.931,2.655 4.935,2.578 4.945 M5.222 5.599 C 5.052 5.632,4.854 5.801,4.770 5.985 C 4.711 6.113,4.409 7.304,4.363 7.586 C 4.321 7.850,4.366 7.987,4.558 8.177 C 4.785 8.403,4.766 8.400,5.948 8.400 L 6.944 8.400 7.063 8.341 C 7.302 8.222,7.490 7.936,7.490 7.692 C 7.490 7.430,7.324 7.172,7.093 7.072 C 6.987 7.027,6.917 7.019,6.487 7.007 C 6.219 6.999,5.989 6.986,5.976 6.978 C 5.960 6.969,5.972 6.877,6.009 6.719 C 6.092 6.360,6.102 6.236,6.058 6.086 C 5.982 5.824,5.787 5.649,5.521 5.602 C 5.361 5.574,5.349 5.574,5.222 5.599 " fill="#1A1C1F" stroke="none" fill-rule="evenodd"></path></svg>