<svg width="28" height="28" viewBox="0 0 28 28" fill="none" xmlns="http://www.w3.org/2000/svg"><path d="M5.740 1.818 C 5.273 1.905,4.810 2.148,4.426 2.508 C 3.783 3.110,3.467 4.102,3.659 4.918 C 3.813 5.570,4.266 6.206,4.853 6.594 C 5.844 7.249,7.183 7.088,8.078 6.207 C 8.574 5.718,8.839 5.061,8.839 4.317 C 8.840 3.273,8.060 2.222,7.053 1.912 C 6.710 1.805,6.054 1.759,5.740 1.818 M6.737 3.702 C 7.161 4.025,7.198 4.609,6.819 4.987 C 6.492 5.315,6.032 5.341,5.689 5.052 C 5.225 4.662,5.285 3.965,5.810 3.631 C 6.027 3.492,6.511 3.530,6.737 3.702 M21.467 4.450 C 21.129 4.551,21.035 4.599,20.786 4.796 C 20.348 5.142,20.116 5.677,20.114 6.347 L 20.113 6.604 19.816 6.820 C 19.222 7.251,18.772 7.891,18.500 8.691 L 18.387 9.023 18.387 13.880 C 18.387 16.673,18.406 18.902,18.432 19.126 C 18.493 19.651,18.642 19.961,19.006 20.317 C 19.364 20.668,19.761 20.885,20.162 20.950 C 20.546 21.013,23.287 21.015,23.613 20.953 C 24.338 20.816,24.979 20.256,25.263 19.512 C 25.362 19.251,25.363 19.231,25.376 14.175 L 25.390 9.100 25.246 8.668 C 25.167 8.431,25.014 8.080,24.906 7.890 C 24.695 7.516,24.197 6.975,23.835 6.727 L 23.613 6.576 23.613 6.253 C 23.613 5.786,23.536 5.495,23.329 5.185 C 22.933 4.592,22.096 4.262,21.467 4.450 M11.123 6.622 C 10.918 6.674,10.672 6.835,10.504 7.026 C 10.255 7.309,10.201 7.457,10.199 7.863 C 10.197 8.192,10.213 8.267,10.334 8.485 C 10.474 8.737,10.672 8.924,10.967 9.081 C 11.208 9.210,11.766 9.202,12.022 9.066 C 12.316 8.911,12.475 8.758,12.625 8.486 C 12.744 8.272,12.763 8.187,12.763 7.887 C 12.763 7.586,12.744 7.502,12.625 7.286 C 12.483 7.031,12.200 6.761,11.990 6.681 C 11.817 6.615,11.292 6.580,11.123 6.622 M4.690 7.927 C 4.236 7.954,4.141 7.976,3.870 8.111 C 3.385 8.354,3.109 8.626,2.896 9.069 C 2.613 9.658,2.548 10.190,2.686 10.780 C 2.811 11.318,4.177 15.706,4.936 18.010 C 5.289 19.081,5.302 19.109,5.543 19.371 C 5.845 19.699,6.164 19.909,6.538 20.025 C 6.789 20.103,6.990 20.114,8.299 20.119 C 9.112 20.122,10.463 20.137,11.303 20.154 L 12.828 20.183 12.993 20.343 C 13.168 20.513,13.342 21.004,14.023 23.240 C 14.653 25.310,14.849 25.871,14.992 26.004 C 15.158 26.160,15.448 26.244,15.714 26.214 C 15.952 26.187,16.098 26.098,16.267 25.876 C 16.485 25.591,16.471 25.401,16.154 24.290 C 15.384 21.598,14.833 19.892,14.631 19.577 C 14.338 19.119,13.618 18.579,13.137 18.456 C 13.060 18.437,11.643 18.408,9.988 18.392 L 6.980 18.363 6.880 18.214 C 6.744 18.012,5.890 15.375,4.928 12.185 C 4.384 10.379,4.362 10.287,4.429 10.045 C 4.521 9.712,4.547 9.706,5.935 9.663 C 7.309 9.620,7.401 9.601,7.646 9.304 C 7.986 8.892,7.925 8.377,7.497 8.053 C 7.354 7.945,7.319 7.941,6.277 7.919 C 5.686 7.907,4.972 7.911,4.690 7.927 M22.492 8.022 C 22.628 8.073,22.820 8.172,22.920 8.241 C 23.255 8.474,23.613 9.139,23.613 9.528 L 23.613 9.660 21.887 9.660 L 20.160 9.660 20.160 9.460 C 20.160 9.195,20.422 8.651,20.668 8.405 C 20.871 8.202,21.219 8.006,21.501 7.934 C 21.749 7.872,22.203 7.912,22.492 8.022 M10.323 10.737 C 10.238 10.763,10.069 10.883,9.946 11.004 C 9.702 11.244,9.766 11.092,8.551 14.280 C 8.146 15.344,8.058 15.619,8.040 15.890 C 8.008 16.358,8.138 16.691,8.490 17.037 C 8.942 17.483,8.845 17.469,11.603 17.489 C 14.214 17.508,14.441 17.493,14.667 17.278 C 15.042 16.922,15.067 16.388,14.726 16.016 L 14.571 15.847 13.994 15.814 C 13.676 15.796,12.624 15.779,11.655 15.777 C 10.195 15.774,9.893 15.762,9.893 15.709 C 9.893 15.674,10.084 15.154,10.317 14.554 C 10.551 13.954,10.783 13.353,10.835 13.217 L 10.928 12.971 11.388 13.409 C 11.642 13.650,11.922 13.882,12.010 13.924 C 12.508 14.160,13.111 13.813,13.188 13.246 C 13.243 12.849,13.174 12.744,12.255 11.825 C 11.790 11.361,11.322 10.923,11.215 10.853 C 10.995 10.709,10.587 10.656,10.323 10.737 M23.605 15.178 C 23.593 18.123,23.577 18.993,23.531 19.073 C 23.432 19.246,23.196 19.273,21.766 19.273 L 20.410 19.273 20.301 19.158 C 20.164 19.012,20.120 18.748,20.116 18.053 L 20.113 17.509 20.712 17.493 C 21.280 17.478,21.319 17.470,21.478 17.349 C 21.843 17.070,21.964 16.683,21.796 16.327 C 21.582 15.870,21.382 15.784,20.522 15.777 L 20.113 15.773 20.113 15.330 L 20.113 14.887 20.592 14.886 C 21.188 14.886,21.379 14.834,21.602 14.611 C 21.913 14.301,21.948 13.834,21.688 13.470 C 21.542 13.265,21.321 13.197,20.715 13.171 L 20.172 13.148 20.143 12.839 C 20.127 12.669,20.114 12.273,20.114 11.958 L 20.113 11.387 21.866 11.387 L 23.619 11.387 23.605 15.178 " fill="#1A1C1F" stroke="none" fill-rule="evenodd"></path></svg>