<svg width="14" height="14" viewBox="0 0 14 14" fill="none" xmlns="http://www.w3.org/2000/svg"><path d="M3.255 2.244 C 3.055 2.282,2.859 2.393,2.688 2.564 C 2.439 2.813,2.333 3.061,2.333 3.395 C 2.333 3.725,2.448 4.010,2.669 4.233 C 3.145 4.711,3.884 4.717,4.365 4.246 C 4.729 3.891,4.821 3.285,4.578 2.838 C 4.494 2.683,4.266 2.454,4.102 2.361 C 3.880 2.234,3.548 2.188,3.255 2.244 M10.131 2.826 C 9.813 2.879,9.520 3.148,9.439 3.464 C 9.417 3.550,9.403 3.711,9.402 3.884 L 9.401 4.165 9.285 4.247 C 9.139 4.349,9.008 4.516,8.912 4.720 C 8.852 4.848,8.834 4.924,8.818 5.117 C 8.792 5.433,8.793 8.651,8.819 8.945 C 8.844 9.230,8.921 9.401,9.113 9.597 C 9.449 9.939,9.738 10.028,10.441 10.004 C 10.709 9.995,10.828 9.980,10.947 9.942 C 11.257 9.844,11.528 9.605,11.679 9.298 C 11.744 9.168,11.765 9.090,11.783 8.913 C 11.813 8.627,11.813 5.405,11.783 5.098 C 11.765 4.907,11.746 4.835,11.680 4.701 C 11.593 4.525,11.376 4.267,11.267 4.210 L 11.200 4.175 11.200 3.909 C 11.200 3.762,11.188 3.587,11.174 3.519 C 11.072 3.039,10.629 2.744,10.131 2.826 M5.789 3.607 C 5.559 3.690,5.360 3.868,5.255 4.083 C 5.199 4.197,5.192 4.238,5.192 4.445 C 5.193 4.648,5.201 4.696,5.256 4.814 C 5.332 4.979,5.544 5.196,5.705 5.274 C 5.806 5.323,5.855 5.331,6.067 5.331 C 6.287 5.332,6.325 5.325,6.443 5.267 C 6.721 5.130,6.899 4.897,6.955 4.595 C 7.014 4.276,6.867 3.929,6.589 3.731 C 6.417 3.608,6.355 3.588,6.113 3.578 C 5.949 3.572,5.865 3.579,5.789 3.607 M3.146 5.251 C 2.910 5.290,2.591 5.518,2.419 5.768 C 2.323 5.907,2.223 6.182,2.202 6.358 C 2.186 6.496,2.230 6.702,2.500 7.776 C 2.741 8.737,2.834 9.059,2.912 9.217 C 3.004 9.405,3.328 9.722,3.537 9.830 C 3.827 9.979,3.886 9.987,4.836 10.007 C 5.307 10.017,5.697 10.030,5.701 10.035 C 5.705 10.041,5.791 10.250,5.891 10.500 C 6.323 11.575,6.359 11.638,6.589 11.740 C 6.885 11.870,7.212 11.748,7.360 11.452 C 7.436 11.299,7.435 11.205,7.359 10.962 C 7.282 10.717,6.890 9.739,6.757 9.462 C 6.587 9.105,6.316 8.895,5.961 8.845 C 5.872 8.833,5.462 8.816,5.052 8.808 C 4.285 8.793,4.074 8.774,4.017 8.717 C 3.972 8.672,3.910 8.451,3.637 7.376 C 3.453 6.651,3.410 6.452,3.434 6.437 C 3.451 6.426,3.560 6.417,3.677 6.417 C 3.971 6.417,4.114 6.371,4.247 6.233 C 4.491 5.982,4.463 5.634,4.183 5.431 C 3.910 5.233,3.889 5.226,3.556 5.229 C 3.391 5.231,3.206 5.240,3.146 5.251 M5.432 5.815 C 5.332 5.841,5.148 5.994,5.097 6.092 C 5.038 6.206,4.734 7.468,4.732 7.607 C 4.730 7.767,4.775 7.877,4.900 8.012 C 5.068 8.194,5.072 8.195,6.080 8.184 C 6.671 8.178,6.993 8.166,7.049 8.147 C 7.152 8.113,7.288 7.985,7.351 7.862 C 7.495 7.579,7.390 7.233,7.113 7.082 C 6.991 7.015,6.979 7.014,6.545 7.001 C 6.270 6.993,6.103 6.979,6.105 6.965 C 6.107 6.952,6.138 6.813,6.172 6.656 C 6.243 6.335,6.240 6.277,6.137 6.097 C 5.990 5.842,5.726 5.736,5.432 5.815 " fill="#1A1C1F" stroke="none" fill-rule="evenodd"></path></svg>