<svg width="16" height="16" viewBox="0 0 16 16" fill="none" xmlns="http://www.w3.org/2000/svg"><path d="M2.878 1.686 C 2.323 1.880,1.948 2.296,1.811 2.870 C 1.709 3.297,1.788 3.714,2.043 4.087 C 2.205 4.324,2.391 4.485,2.653 4.615 C 3.129 4.851,3.595 4.855,4.076 4.626 C 4.349 4.497,4.654 4.193,4.785 3.920 C 5.142 3.175,4.922 2.343,4.245 1.882 C 3.968 1.693,3.808 1.646,3.400 1.635 C 3.092 1.626,3.034 1.632,2.878 1.686 M12.192 2.430 C 11.987 2.464,11.772 2.578,11.586 2.751 C 11.291 3.027,11.202 3.287,11.200 3.880 L 11.199 4.227 11.064 4.318 C 10.816 4.486,10.618 4.749,10.496 5.074 L 10.413 5.293 10.406 7.867 C 10.401 9.501,10.408 10.521,10.425 10.662 C 10.465 10.987,10.588 11.230,10.849 11.493 C 11.070 11.715,11.299 11.859,11.560 11.938 C 11.697 11.979,11.821 11.986,12.427 11.986 L 13.133 11.987 13.320 11.912 C 13.789 11.726,14.124 11.389,14.303 10.925 L 14.387 10.707 14.387 8.013 L 14.387 5.320 14.324 5.133 C 14.289 5.031,14.232 4.896,14.196 4.833 C 14.093 4.653,13.886 4.420,13.741 4.320 L 13.606 4.227 13.593 3.787 C 13.582 3.431,13.569 3.317,13.523 3.190 C 13.385 2.805,13.005 2.496,12.587 2.428 C 12.392 2.397,12.389 2.397,12.192 2.430 M6.456 3.454 C 6.051 3.568,5.750 3.861,5.626 4.263 C 5.416 4.942,5.869 5.663,6.584 5.787 C 7.198 5.894,7.830 5.433,7.949 4.789 C 8.023 4.385,7.799 3.861,7.453 3.632 C 7.164 3.441,6.760 3.369,6.456 3.454 M2.947 5.653 C 2.282 5.734,1.672 6.415,1.609 7.147 C 1.589 7.381,1.628 7.574,1.988 9.013 C 2.456 10.884,2.503 11.008,2.880 11.388 C 3.147 11.657,3.339 11.779,3.681 11.899 L 3.933 11.986 5.095 11.995 L 6.257 12.003 6.585 12.822 C 7.028 13.925,7.119 14.113,7.259 14.215 C 7.414 14.327,7.704 14.411,7.867 14.392 C 8.143 14.359,8.444 14.113,8.519 13.861 C 8.601 13.586,8.569 13.456,8.188 12.499 C 7.645 11.138,7.573 10.996,7.312 10.778 C 7.106 10.607,6.901 10.506,6.674 10.465 C 6.529 10.439,6.121 10.422,5.307 10.410 L 4.147 10.393 4.061 10.312 C 4.006 10.261,3.954 10.169,3.918 10.061 C 3.822 9.773,3.201 7.268,3.221 7.250 C 3.232 7.240,3.404 7.227,3.603 7.221 C 3.932 7.211,3.981 7.202,4.115 7.137 C 4.445 6.976,4.624 6.604,4.532 6.274 C 4.486 6.110,4.326 5.949,4.028 5.765 L 3.802 5.627 3.454 5.630 C 3.263 5.632,3.035 5.643,2.947 5.653 M5.985 6.397 C 5.842 6.434,5.625 6.567,5.546 6.667 C 5.430 6.814,5.165 7.749,5.013 8.553 C 4.958 8.841,4.958 8.859,5.001 9.006 C 5.071 9.249,5.227 9.427,5.467 9.541 C 5.548 9.580,5.697 9.587,6.606 9.594 C 7.957 9.605,8.086 9.587,8.317 9.357 C 8.484 9.190,8.545 9.037,8.546 8.787 C 8.546 8.535,8.499 8.418,8.330 8.249 C 8.120 8.039,8.070 8.025,7.426 8.008 C 7.113 7.999,6.844 7.984,6.829 7.975 C 6.812 7.964,6.827 7.854,6.872 7.666 C 6.961 7.289,6.967 7.019,6.889 6.849 C 6.818 6.695,6.663 6.539,6.503 6.460 C 6.370 6.395,6.114 6.363,5.985 6.397 " fill="#1A1C1F" stroke="none" fill-rule="evenodd"></path></svg>