<svg width="14" height="14" viewBox="0 0 14 14" fill="none" xmlns="http://www.w3.org/2000/svg"><path d="M6.098 6.652 C 5.556 6.743,5.065 7.219,4.934 7.782 C 4.860 8.095,4.920 8.331,5.122 8.528 C 5.276 8.677,5.369 8.714,5.588 8.715 C 5.829 8.715,5.962 8.665,6.090 8.525 C 6.177 8.432,6.220 8.354,6.320 8.112 C 6.345 8.052,6.355 8.047,6.435 8.060 C 6.627 8.091,10.853 8.612,11.370 8.669 C 11.901 8.727,11.930 8.728,12.058 8.691 C 12.304 8.621,12.429 8.521,12.543 8.307 C 12.576 8.245,12.586 8.178,12.585 8.038 C 12.582 7.811,12.546 7.717,12.400 7.560 C 12.267 7.419,12.204 7.397,11.682 7.316 C 11.330 7.262,6.266 6.623,6.233 6.629 C 6.225 6.631,6.164 6.641,6.098 6.652 M2.823 6.693 C 2.654 6.750,2.557 6.811,2.411 6.955 C 2.155 7.208,2.042 7.613,2.138 7.935 C 2.232 8.252,2.434 8.495,2.718 8.635 C 2.875 8.712,2.890 8.715,3.150 8.715 C 3.409 8.715,3.425 8.712,3.582 8.635 C 3.770 8.543,3.996 8.328,4.076 8.166 C 4.194 7.925,4.226 7.672,4.166 7.446 C 4.078 7.117,3.894 6.888,3.603 6.750 C 3.440 6.673,3.403 6.665,3.188 6.658 C 3.004 6.651,2.923 6.659,2.823 6.693 M3.313 9.449 C 1.734 9.463,1.823 9.453,1.624 9.637 C 1.471 9.778,1.413 9.912,1.413 10.127 C 1.412 10.272,1.424 10.325,1.478 10.435 C 1.551 10.586,1.682 10.709,1.848 10.784 C 1.953 10.832,1.960 10.840,1.949 10.907 C 1.918 11.095,1.814 11.778,1.779 12.022 C 1.743 12.279,1.743 12.302,1.781 12.423 C 1.832 12.585,1.974 12.765,2.114 12.847 C 2.257 12.931,2.505 12.951,2.682 12.892 C 2.836 12.841,3.033 12.654,3.088 12.507 C 3.126 12.403,3.234 11.833,3.339 11.183 L 3.393 10.850 7.000 10.850 L 10.607 10.850 10.661 11.183 C 10.764 11.824,10.874 12.403,10.911 12.502 C 10.955 12.620,11.132 12.806,11.261 12.870 C 11.390 12.934,11.711 12.933,11.842 12.869 C 11.970 12.805,12.127 12.643,12.187 12.511 C 12.259 12.351,12.246 12.114,12.127 11.418 L 12.026 10.831 12.147 10.781 C 12.316 10.711,12.446 10.591,12.522 10.435 C 12.609 10.258,12.613 10.009,12.532 9.842 C 12.472 9.718,12.321 9.569,12.188 9.501 C 12.101 9.457,12.001 9.456,8.412 9.446 C 6.384 9.440,4.090 9.442,3.313 9.449 " fill="#1A1C1F" stroke="none" fill-rule="evenodd"></path></svg>