<svg width="28" height="28" viewBox="0 0 28 28" fill="none" xmlns="http://www.w3.org/2000/svg"><path d="M4.737 13.718 C 3.373 13.950,2.359 15.460,2.683 16.777 C 2.956 17.888,3.756 18.656,4.853 18.862 C 5.405 18.966,6.104 18.814,6.623 18.479 C 8.086 17.533,8.293 15.609,7.061 14.414 C 6.551 13.919,6.107 13.725,5.417 13.697 C 5.171 13.687,4.865 13.696,4.737 13.718 M11.112 14.980 C 10.807 15.026,10.184 15.327,9.862 15.583 C 9.297 16.033,8.773 16.994,8.773 17.580 C 8.773 18.254,9.480 18.657,10.061 18.316 C 10.261 18.200,10.355 18.048,10.613 17.429 C 10.705 17.207,10.962 16.922,11.162 16.819 C 11.462 16.664,11.431 16.662,18.433 17.198 C 19.935 17.312,21.783 17.460,22.540 17.525 C 24.211 17.669,24.255 17.683,24.485 18.154 C 24.566 18.320,24.707 18.534,24.796 18.629 C 25.317 19.177,26.227 18.777,26.227 18.001 C 26.227 17.356,25.710 16.620,24.966 16.202 C 24.401 15.884,24.747 15.922,17.267 15.359 C 11.786 14.946,11.470 14.927,11.112 14.980 M5.579 15.488 C 6.088 15.719,6.255 16.340,5.928 16.790 C 5.503 17.378,4.532 17.148,4.411 16.431 C 4.326 15.930,4.757 15.402,5.250 15.402 C 5.327 15.402,5.475 15.441,5.579 15.488 M3.673 19.822 L 2.236 19.835 2.039 20.032 C 1.774 20.298,1.704 20.533,1.797 20.846 C 1.920 21.262,2.156 21.449,2.633 21.509 C 2.917 21.545,2.910 21.457,2.732 22.655 C 2.614 23.451,2.612 23.502,2.684 23.691 C 2.823 24.056,3.265 24.346,3.597 24.289 C 3.825 24.251,4.152 24.034,4.261 23.851 C 4.315 23.759,4.406 23.318,4.516 22.611 L 4.689 21.513 14.001 21.513 L 23.313 21.513 23.463 22.482 C 23.645 23.654,23.672 23.758,23.856 23.967 C 24.049 24.186,24.238 24.277,24.500 24.277 C 24.769 24.277,24.947 24.188,25.169 23.943 C 25.332 23.762,25.340 23.738,25.340 23.421 C 25.340 23.238,25.287 22.754,25.222 22.345 C 25.157 21.936,25.116 21.582,25.131 21.558 C 25.147 21.533,25.247 21.513,25.354 21.512 C 25.708 21.510,26.064 21.282,26.177 20.985 C 26.307 20.642,26.158 20.138,25.869 19.946 C 25.728 19.852,25.648 19.848,23.680 19.818 C 21.790 19.789,6.947 19.792,3.673 19.822 " fill="#1A1C1F" stroke="none" fill-rule="evenodd"></path></svg>