<svg width="16" height="16" viewBox="0 0 16 16" fill="none" xmlns="http://www.w3.org/2000/svg"><path d="M6.969 7.603 C 6.350 7.706,5.789 8.250,5.638 8.893 C 5.554 9.252,5.622 9.521,5.854 9.746 C 6.030 9.917,6.136 9.959,6.387 9.960 C 6.661 9.960,6.813 9.903,6.960 9.743 C 7.059 9.636,7.108 9.547,7.223 9.271 C 7.251 9.202,7.263 9.197,7.354 9.211 C 7.555 9.243,12.800 9.891,13.205 9.934 C 13.596 9.975,13.634 9.975,13.779 9.934 C 14.061 9.852,14.204 9.739,14.335 9.493 C 14.372 9.424,14.384 9.345,14.383 9.187 C 14.381 8.928,14.340 8.821,14.171 8.640 C 14.020 8.478,13.948 8.454,13.351 8.361 C 12.952 8.300,7.160 7.569,7.123 7.576 C 7.114 7.578,7.045 7.590,6.969 7.603 M3.258 7.640 C 2.667 7.806,2.273 8.496,2.443 9.068 C 2.550 9.430,2.781 9.709,3.106 9.869 C 3.285 9.957,3.303 9.960,3.600 9.960 C 3.896 9.960,3.915 9.957,4.094 9.869 C 4.309 9.764,4.567 9.518,4.659 9.332 C 4.794 9.058,4.830 8.768,4.761 8.510 C 4.661 8.134,4.450 7.872,4.118 7.715 C 3.936 7.628,3.888 7.617,3.657 7.609 C 3.485 7.603,3.353 7.613,3.258 7.640 M3.933 10.799 C 1.964 10.815,2.085 10.802,1.856 11.013 C 1.681 11.175,1.615 11.328,1.614 11.573 C 1.614 11.739,1.627 11.800,1.689 11.926 C 1.773 12.098,1.922 12.239,2.109 12.324 C 2.226 12.377,2.235 12.387,2.224 12.464 C 2.218 12.509,2.182 12.745,2.145 12.987 C 1.986 14.026,1.985 14.036,2.035 14.195 C 2.114 14.446,2.306 14.656,2.527 14.735 C 2.662 14.783,2.928 14.782,3.068 14.733 C 3.219 14.680,3.397 14.531,3.481 14.388 C 3.555 14.260,3.608 14.015,3.776 13.020 L 3.880 12.400 8.001 12.400 L 12.122 12.400 12.184 12.780 C 12.302 13.514,12.427 14.174,12.469 14.288 C 12.520 14.423,12.722 14.636,12.870 14.709 C 13.017 14.781,13.385 14.781,13.533 14.707 C 13.680 14.635,13.859 14.449,13.929 14.299 C 14.012 14.118,13.997 13.855,13.858 13.046 L 13.743 12.373 13.839 12.344 C 14.089 12.269,14.319 12.010,14.375 11.740 C 14.449 11.383,14.270 11.030,13.929 10.859 C 13.830 10.809,13.714 10.807,9.760 10.796 C 7.523 10.790,4.901 10.791,3.933 10.799 " fill="#1A1C1F" stroke="none" fill-rule="evenodd"></path></svg>