<svg width="12" height="12" viewBox="0 0 12 12" fill="none" xmlns="http://www.w3.org/2000/svg"><path d="M5.227 5.702 C 4.763 5.779,4.342 6.188,4.229 6.670 C 4.166 6.939,4.217 7.141,4.391 7.310 C 4.522 7.438,4.602 7.470,4.790 7.470 C 4.996 7.470,5.110 7.427,5.220 7.307 C 5.294 7.227,5.331 7.160,5.417 6.953 C 5.439 6.902,5.447 6.898,5.515 6.908 C 5.666 6.933,9.600 7.418,9.904 7.450 C 10.197 7.481,10.226 7.481,10.334 7.450 C 10.546 7.389,10.653 7.304,10.751 7.120 C 10.779 7.068,10.788 7.009,10.787 6.890 C 10.786 6.696,10.755 6.616,10.628 6.480 C 10.515 6.359,10.461 6.340,10.013 6.271 C 9.714 6.225,5.370 5.677,5.342 5.682 C 5.336 5.684,5.284 5.692,5.227 5.702 M2.444 5.730 C 2.000 5.855,1.705 6.372,1.832 6.801 C 1.913 7.073,2.086 7.282,2.330 7.401 C 2.464 7.468,2.478 7.470,2.700 7.470 C 2.922 7.470,2.936 7.467,3.070 7.402 C 3.461 7.210,3.675 6.774,3.571 6.383 C 3.496 6.100,3.337 5.904,3.089 5.786 C 2.952 5.721,2.916 5.713,2.743 5.707 C 2.614 5.702,2.515 5.710,2.444 5.730 M2.880 8.099 C 1.481 8.111,1.563 8.102,1.392 8.260 C 1.260 8.382,1.211 8.496,1.211 8.680 C 1.212 8.789,1.224 8.856,1.254 8.924 C 1.310 9.047,1.447 9.182,1.576 9.240 C 1.674 9.285,1.680 9.291,1.670 9.349 C 1.644 9.510,1.555 10.095,1.525 10.304 C 1.494 10.525,1.494 10.545,1.527 10.648 C 1.570 10.787,1.692 10.942,1.811 11.012 C 1.923 11.078,2.131 11.099,2.272 11.059 C 2.391 11.026,2.543 10.905,2.610 10.792 C 2.667 10.695,2.706 10.515,2.832 9.765 L 2.910 9.300 6.001 9.300 L 9.092 9.300 9.138 9.585 C 9.226 10.132,9.320 10.631,9.352 10.715 C 9.390 10.818,9.525 10.960,9.643 11.023 C 9.767 11.089,10.032 11.090,10.154 11.025 C 10.287 10.954,10.374 10.867,10.434 10.744 C 10.484 10.643,10.489 10.611,10.485 10.460 C 10.482 10.367,10.442 10.064,10.395 9.787 L 10.309 9.284 10.415 9.240 C 10.546 9.185,10.689 9.049,10.745 8.924 C 10.806 8.790,10.804 8.565,10.742 8.436 C 10.690 8.329,10.561 8.202,10.447 8.144 C 10.372 8.106,10.288 8.105,7.250 8.096 C 5.534 8.092,3.567 8.093,2.880 8.099 " fill="#1A1C1F" stroke="none" fill-rule="evenodd"></path></svg>