<svg width="32" height="32" viewBox="0 0 32 32" fill="none" xmlns="http://www.w3.org/2000/svg"><path d="M5.413 15.678 C 3.855 15.943,2.696 17.669,3.066 19.173 C 3.336 20.271,4.075 21.094,5.110 21.449 C 5.611 21.621,6.388 21.621,6.886 21.451 C 7.543 21.225,8.096 20.804,8.471 20.243 C 9.292 19.016,9.131 17.502,8.070 16.473 C 7.487 15.907,6.979 15.686,6.190 15.654 C 5.910 15.642,5.560 15.653,5.413 15.678 M12.699 17.121 C 12.352 17.172,11.640 17.515,11.271 17.810 C 10.625 18.323,10.027 19.422,10.027 20.091 C 10.027 20.861,10.834 21.323,11.499 20.933 C 11.727 20.799,11.833 20.628,12.131 19.915 C 12.256 19.614,12.597 19.278,12.891 19.166 C 13.125 19.077,13.200 19.077,14.475 19.165 C 18.464 19.440,26.421 20.065,27.114 20.157 C 27.589 20.221,27.802 20.386,28.053 20.882 C 28.298 21.366,28.571 21.570,28.978 21.570 C 29.186 21.570,29.321 21.533,29.504 21.426 C 30.437 20.879,29.905 19.282,28.533 18.515 C 27.885 18.153,28.276 18.196,19.733 17.553 C 13.514 17.085,13.114 17.060,12.699 17.121 M6.376 17.700 C 6.958 17.965,7.148 18.674,6.775 19.189 C 6.289 19.860,5.179 19.598,5.041 18.778 C 4.944 18.205,5.436 17.602,6.000 17.602 C 6.088 17.602,6.257 17.646,6.376 17.700 M4.225 22.653 L 2.556 22.668 2.330 22.894 C 2.021 23.203,1.947 23.465,2.059 23.844 C 2.195 24.302,2.588 24.587,3.083 24.587 C 3.173 24.587,3.260 24.608,3.276 24.634 C 3.292 24.660,3.229 25.176,3.136 25.780 C 2.978 26.808,2.972 26.891,3.050 27.055 C 3.272 27.520,3.726 27.824,4.104 27.760 C 4.370 27.715,4.744 27.470,4.869 27.258 C 4.931 27.153,5.035 26.649,5.162 25.841 L 5.358 24.587 16.006 24.587 L 26.654 24.587 26.692 24.893 C 26.753 25.389,26.986 26.783,27.044 27.001 C 27.107 27.236,27.361 27.544,27.591 27.662 C 27.797 27.769,28.202 27.769,28.408 27.663 C 28.496 27.617,28.656 27.483,28.764 27.363 C 28.951 27.156,28.960 27.129,28.960 26.767 C 28.960 26.558,28.899 26.005,28.825 25.538 C 28.751 25.070,28.705 24.665,28.722 24.637 C 28.739 24.609,28.854 24.586,28.976 24.585 C 29.381 24.583,29.788 24.323,29.916 23.983 C 30.065 23.590,29.895 23.015,29.565 22.796 C 29.403 22.688,29.312 22.683,27.032 22.649 C 24.843 22.616,8.027 22.619,4.225 22.653 " fill="#1A1C1F" stroke="none" fill-rule="evenodd"></path></svg>