<svg width="20" height="20" viewBox="0 0 20 20" fill="none" xmlns="http://www.w3.org/2000/svg"><path d="M8.712 9.503 C 7.938 9.632,7.236 10.313,7.048 11.117 C 6.943 11.565,7.028 11.901,7.318 12.183 C 7.537 12.396,7.670 12.449,7.983 12.450 C 8.327 12.450,8.517 12.378,8.700 12.179 C 8.824 12.045,8.886 11.934,9.029 11.589 C 9.064 11.503,9.079 11.496,9.192 11.514 C 9.467 11.558,15.504 12.302,16.243 12.384 C 17.001 12.467,17.043 12.469,17.226 12.416 C 17.577 12.316,17.756 12.173,17.919 11.867 C 17.965 11.780,17.980 11.682,17.979 11.483 C 17.977 11.159,17.925 11.026,17.714 10.801 C 17.524 10.598,17.435 10.567,16.689 10.452 C 16.190 10.374,8.950 9.462,8.904 9.471 C 8.893 9.473,8.806 9.487,8.712 9.503 M4.073 9.550 C 3.343 9.755,2.853 10.598,3.045 11.317 C 3.162 11.754,3.476 12.136,3.883 12.336 C 4.107 12.446,4.129 12.450,4.500 12.450 C 4.870 12.450,4.893 12.446,5.117 12.336 C 5.766 12.018,6.125 11.289,5.952 10.638 C 5.826 10.167,5.562 9.840,5.148 9.644 C 4.920 9.535,4.860 9.522,4.572 9.512 C 4.356 9.504,4.192 9.517,4.073 9.550 M4.900 13.499 L 2.683 13.517 2.533 13.605 C 2.191 13.808,2.018 14.102,2.018 14.483 C 2.018 14.652,2.039 14.761,2.091 14.876 C 2.184 15.080,2.450 15.339,2.644 15.412 C 2.786 15.467,2.794 15.477,2.780 15.577 C 2.772 15.635,2.706 16.077,2.633 16.557 C 2.560 17.038,2.500 17.476,2.500 17.532 C 2.500 17.802,2.750 18.195,3.022 18.355 C 3.224 18.473,3.580 18.501,3.831 18.417 C 4.052 18.344,4.332 18.077,4.411 17.867 C 4.466 17.719,4.621 16.904,4.770 15.975 L 4.847 15.500 10.000 15.500 L 15.153 15.500 15.230 15.975 C 15.377 16.892,15.534 17.718,15.587 17.860 C 15.649 18.028,15.903 18.294,16.087 18.386 C 16.271 18.477,16.731 18.476,16.917 18.384 C 17.100 18.293,17.325 18.061,17.410 17.873 C 17.513 17.645,17.495 17.308,17.324 16.308 L 17.180 15.465 17.300 15.429 C 17.611 15.336,17.898 15.012,17.968 14.675 C 18.061 14.229,17.838 13.787,17.412 13.574 C 17.287 13.511,17.141 13.509,12.200 13.496 C 9.404 13.488,6.119 13.490,4.900 13.499 " fill="#1A1C1F" stroke="none" fill-rule="evenodd"></path></svg>