<svg width="14" height="14" viewBox="0 0 14 14" fill="none" xmlns="http://www.w3.org/2000/svg"><path d="M4.629 1.433 C 4.216 1.512,3.800 1.843,3.626 2.232 C 3.543 2.418,3.492 2.711,3.508 2.904 C 3.522 3.073,3.589 3.309,3.664 3.453 C 3.765 3.650,4.085 3.958,4.284 4.051 C 4.451 4.129,4.744 4.200,4.900 4.200 C 5.058 4.200,5.347 4.130,5.526 4.048 C 5.676 3.979,6.056 3.613,6.131 3.465 C 6.441 2.853,6.300 2.165,5.775 1.727 C 5.459 1.464,5.036 1.355,4.629 1.433 M9.531 2.132 C 9.157 2.204,8.731 2.518,8.564 2.845 C 8.311 3.341,8.370 3.948,8.711 4.360 C 8.993 4.700,9.398 4.900,9.807 4.900 C 9.958 4.900,10.250 4.828,10.426 4.748 C 10.576 4.679,10.956 4.313,11.031 4.165 C 11.341 3.553,11.200 2.865,10.675 2.427 C 10.360 2.165,9.935 2.055,9.531 2.132 M3.351 4.922 C 3.143 4.940,3.099 4.952,2.901 5.050 C 2.531 5.234,2.271 5.535,2.155 5.915 C 2.115 6.044,2.112 6.159,2.112 7.338 C 2.112 8.734,2.113 8.748,2.245 9.024 C 2.354 9.252,2.636 9.532,2.870 9.644 C 3.052 9.731,3.293 9.799,3.423 9.800 L 3.497 9.800 3.506 10.938 C 3.512 11.774,3.522 12.099,3.544 12.166 C 3.580 12.275,3.759 12.460,3.898 12.530 C 4.040 12.603,4.233 12.616,4.398 12.564 C 4.562 12.513,4.756 12.344,4.834 12.185 L 4.888 12.075 4.895 10.505 C 4.902 8.732,4.913 8.841,4.717 8.628 C 4.548 8.445,4.482 8.425,3.958 8.408 L 3.500 8.393 3.500 7.348 L 3.500 6.303 4.288 6.296 C 5.056 6.289,5.078 6.287,5.185 6.234 C 5.325 6.165,5.464 6.026,5.533 5.886 C 5.607 5.734,5.609 5.472,5.538 5.317 C 5.475 5.179,5.337 5.041,5.198 4.976 C 5.096 4.928,5.050 4.924,4.336 4.914 C 3.921 4.908,3.478 4.912,3.351 4.922 M9.651 5.623 C 9.319 5.684,9.069 6.025,9.109 6.363 C 9.138 6.609,9.302 6.840,9.516 6.937 C 9.611 6.980,9.679 6.988,10.063 6.996 L 10.500 7.005 10.500 8.049 L 10.500 9.093 10.062 9.106 C 9.668 9.117,9.613 9.123,9.509 9.172 C 9.364 9.240,9.227 9.376,9.162 9.517 C 9.113 9.622,9.112 9.653,9.105 10.843 L 9.098 12.061 9.158 12.180 C 9.235 12.331,9.378 12.474,9.517 12.538 C 9.674 12.610,9.935 12.608,10.088 12.533 C 10.234 12.461,10.420 12.274,10.456 12.162 C 10.476 12.103,10.488 11.821,10.494 11.287 L 10.503 10.500 10.581 10.500 C 10.689 10.500,11.049 10.392,11.182 10.320 C 11.315 10.247,11.583 9.990,11.685 9.836 C 11.725 9.775,11.787 9.640,11.823 9.535 L 11.888 9.345 11.888 8.050 L 11.888 6.755 11.833 6.592 C 11.766 6.392,11.695 6.266,11.571 6.122 C 11.373 5.893,11.142 5.741,10.873 5.660 C 10.723 5.615,9.840 5.588,9.651 5.623 M6.790 6.326 C 6.526 6.377,6.200 6.621,6.081 6.856 C 5.839 7.333,5.948 7.830,6.373 8.180 C 6.543 8.321,6.752 8.389,7.012 8.387 C 7.259 8.386,7.419 8.333,7.612 8.188 C 8.133 7.799,8.193 7.075,7.743 6.624 C 7.492 6.372,7.131 6.259,6.790 6.326 M6.518 9.122 C 6.212 9.150,5.869 9.383,5.731 9.655 C 5.567 9.979,5.562 10.295,5.718 10.627 C 5.784 10.766,6.035 11.014,6.179 11.081 L 6.295 11.136 6.304 11.605 C 6.314 12.142,6.334 12.217,6.509 12.386 C 6.661 12.534,6.793 12.588,7.000 12.588 C 7.207 12.588,7.339 12.534,7.491 12.386 C 7.666 12.217,7.686 12.142,7.696 11.607 L 7.705 11.140 7.854 11.062 C 8.173 10.897,8.399 10.518,8.399 10.150 C 8.399 9.637,7.994 9.181,7.485 9.122 C 7.290 9.099,6.765 9.099,6.518 9.122 " fill="#1A1C1F" stroke="none" fill-rule="evenodd"></path></svg>