<svg width="28" height="28" viewBox="0 0 28 28" fill="none" xmlns="http://www.w3.org/2000/svg"><path d="M9.949 1.822 C 9.813 1.847,9.571 1.931,9.412 2.010 C 8.010 2.706,7.502 4.248,8.214 5.649 C 8.377 5.969,8.976 6.538,9.333 6.713 C 10.352 7.210,11.468 7.034,12.296 6.248 C 12.645 5.917,12.843 5.604,13.002 5.133 C 13.133 4.748,13.122 3.952,12.980 3.547 C 12.726 2.821,12.074 2.159,11.368 1.911 C 11.051 1.800,10.328 1.754,9.949 1.822 M10.985 3.677 C 11.220 3.840,11.340 4.069,11.340 4.353 C 11.340 5.001,10.686 5.429,10.130 5.145 C 9.857 5.006,9.692 4.753,9.669 4.439 C 9.638 4.009,9.860 3.669,10.252 3.546 C 10.460 3.481,10.785 3.539,10.985 3.677 M17.550 3.641 C 16.810 3.907,16.164 4.540,15.905 5.252 C 15.766 5.636,15.736 6.354,15.842 6.763 C 16.084 7.692,16.815 8.416,17.755 8.656 C 19.575 9.120,21.327 7.443,20.937 5.610 C 20.736 4.668,19.974 3.852,19.069 3.612 C 18.700 3.513,17.860 3.530,17.550 3.641 M18.701 5.345 C 18.933 5.442,19.037 5.541,19.139 5.763 C 19.406 6.345,19.016 6.977,18.391 6.973 C 18.069 6.972,17.870 6.872,17.690 6.623 C 17.180 5.919,17.899 5.010,18.701 5.345 M8.167 8.352 C 7.688 8.392,7.447 8.463,7.144 8.654 C 6.739 8.910,6.440 9.300,6.245 9.827 C 6.144 10.100,6.142 10.147,6.124 13.375 C 6.114 15.273,6.125 16.872,6.151 17.184 C 6.209 17.865,6.357 18.207,6.783 18.641 C 7.096 18.960,7.353 19.114,7.649 19.161 C 7.754 19.178,7.842 19.194,7.845 19.198 C 7.848 19.201,7.864 20.677,7.880 22.479 L 7.910 25.755 8.070 25.920 C 8.405 26.265,8.941 26.324,9.277 26.054 C 9.609 25.787,9.589 26.047,9.604 21.886 L 9.617 18.129 9.477 17.917 C 9.294 17.641,9.097 17.553,8.547 17.501 C 8.147 17.463,8.085 17.445,7.992 17.337 L 7.887 17.215 7.887 13.778 L 7.887 10.342 8.012 10.211 L 8.137 10.080 10.088 10.080 L 12.038 10.080 12.113 10.195 C 12.155 10.258,12.220 10.446,12.258 10.613 C 12.339 10.969,12.444 11.119,12.709 11.257 C 13.004 11.410,13.339 11.396,13.586 11.222 C 13.874 11.018,13.978 10.787,13.972 10.360 C 13.965 9.739,13.666 9.191,13.102 8.761 C 12.576 8.360,12.483 8.345,10.407 8.329 C 9.418 8.321,8.411 8.331,8.167 8.352 M16.481 10.111 C 16.262 10.129,16.208 10.156,16.029 10.335 C 15.803 10.561,15.744 10.748,15.794 11.080 C 15.832 11.337,15.981 11.562,16.193 11.687 C 16.348 11.779,16.448 11.785,18.163 11.807 C 19.557 11.825,19.983 11.844,20.029 11.891 C 20.078 11.939,20.090 12.553,20.090 14.947 C 20.090 16.595,20.074 18.001,20.054 18.071 C 19.999 18.268,19.837 18.343,19.368 18.387 C 18.726 18.447,18.470 18.650,18.410 19.147 C 18.394 19.281,18.387 20.799,18.395 22.520 L 18.410 25.650 18.541 25.849 C 18.880 26.360,19.644 26.342,19.979 25.814 L 20.113 25.602 20.118 23.219 C 20.121 21.909,20.136 20.661,20.153 20.447 L 20.183 20.058 20.458 19.946 C 21.179 19.654,21.731 18.963,21.838 18.221 C 21.898 17.805,21.899 12.323,21.839 11.862 C 21.754 11.202,21.353 10.630,20.734 10.283 L 20.444 10.121 18.587 10.105 C 17.566 10.097,16.618 10.099,16.481 10.111 M13.650 13.180 C 13.266 13.276,13.079 13.376,12.810 13.631 C 12.361 14.055,12.156 14.678,12.291 15.206 C 12.332 15.364,12.409 15.580,12.463 15.686 C 12.606 15.966,12.956 16.295,13.277 16.452 C 13.526 16.574,13.604 16.589,14.000 16.589 C 14.396 16.589,14.474 16.574,14.723 16.452 C 15.800 15.925,16.073 14.569,15.275 13.716 C 14.995 13.417,14.756 13.276,14.373 13.186 C 14.018 13.103,13.960 13.102,13.650 13.180 M13.252 17.542 C 12.423 17.660,11.848 18.107,11.570 18.848 C 11.403 19.297,11.378 19.571,11.398 20.741 C 11.415 21.738,11.428 21.898,11.519 22.174 C 11.719 22.781,12.188 23.251,12.822 23.476 L 13.113 23.579 13.114 24.355 C 13.115 25.260,13.171 25.718,13.301 25.901 C 13.449 26.109,13.772 26.242,14.070 26.217 C 14.376 26.192,14.606 26.046,14.755 25.784 C 14.855 25.608,14.862 25.535,14.879 24.584 L 14.897 23.571 15.067 23.516 C 15.915 23.241,16.469 22.572,16.575 21.697 C 16.601 21.484,16.614 20.846,16.603 20.280 C 16.585 19.307,16.577 19.232,16.462 18.929 C 16.211 18.265,15.820 17.868,15.211 17.656 C 14.938 17.561,14.773 17.540,14.198 17.524 C 13.819 17.514,13.394 17.522,13.252 17.542 M14.559 19.334 C 14.828 19.426,14.857 19.546,14.860 20.557 C 14.865 21.799,14.845 21.828,13.964 21.875 C 13.539 21.897,13.475 21.890,13.388 21.812 C 13.157 21.602,13.137 21.501,13.139 20.557 C 13.141 19.566,13.182 19.394,13.429 19.340 C 13.499 19.324,13.578 19.305,13.603 19.296 C 13.721 19.257,14.414 19.284,14.559 19.334 " fill="#1A1C1F" stroke="none" fill-rule="evenodd"></path></svg>