<svg width="32" height="32" viewBox="0 0 32 32" fill="none" xmlns="http://www.w3.org/2000/svg"><path d="M11.370 2.083 C 11.215 2.110,10.939 2.207,10.757 2.297 C 9.154 3.092,8.574 4.855,9.388 6.456 C 9.574 6.822,10.258 7.472,10.667 7.672 C 11.857 8.252,13.145 8.036,14.086 7.098 C 14.496 6.690,14.676 6.403,14.859 5.867 C 15.009 5.427,14.997 4.518,14.834 4.053 C 14.545 3.224,13.799 2.468,12.992 2.184 C 12.630 2.057,11.803 2.005,11.370 2.083 M12.554 4.204 C 12.669 4.282,12.807 4.430,12.861 4.533 C 13.117 5.013,12.857 5.727,12.357 5.916 C 11.959 6.067,11.513 5.936,11.234 5.586 C 11.028 5.328,10.977 4.868,11.122 4.564 C 11.372 4.037,12.060 3.864,12.554 4.204 M20.057 4.161 C 19.216 4.464,18.470 5.195,18.178 6.002 C 18.036 6.396,17.989 7.132,18.078 7.588 C 18.221 8.330,18.734 9.084,19.382 9.503 C 20.256 10.069,21.466 10.128,22.406 9.650 C 22.881 9.408,23.507 8.728,23.729 8.212 C 24.229 7.050,24.000 5.816,23.120 4.931 C 22.707 4.514,22.186 4.211,21.717 4.113 C 21.252 4.015,20.393 4.040,20.057 4.161 M21.373 6.109 C 21.638 6.219,21.757 6.333,21.873 6.587 C 22.179 7.252,21.732 7.974,21.019 7.970 C 20.651 7.967,20.422 7.853,20.217 7.569 C 19.634 6.765,20.457 5.726,21.373 6.109 M9.333 9.545 C 8.787 9.590,8.511 9.672,8.164 9.891 C 7.702 10.182,7.360 10.629,7.137 11.231 C 7.022 11.542,7.020 11.596,6.999 15.286 C 6.987 17.455,7.000 19.283,7.030 19.639 C 7.096 20.417,7.265 20.808,7.752 21.304 C 8.109 21.668,8.403 21.845,8.742 21.899 C 8.862 21.918,8.963 21.937,8.967 21.940 C 8.970 21.944,8.988 23.631,9.007 25.690 L 9.040 29.434 9.223 29.623 C 9.605 30.017,10.218 30.085,10.602 29.776 C 10.982 29.471,10.958 29.768,10.976 25.013 L 10.991 20.719 10.831 20.477 C 10.622 20.161,10.397 20.060,9.767 20.001 C 9.310 19.958,9.240 19.937,9.133 19.813 L 9.013 19.674 9.013 15.747 L 9.013 11.819 9.157 11.670 L 9.300 11.520 11.529 11.520 L 13.758 11.520 13.844 11.651 C 13.891 11.724,13.965 11.939,14.009 12.129 C 14.100 12.527,14.223 12.709,14.498 12.848 C 14.959 13.081,15.342 13.032,15.678 12.695 C 16.475 11.898,15.652 10.086,14.293 9.647 C 13.970 9.542,13.809 9.534,11.893 9.519 C 10.764 9.510,9.612 9.522,9.333 9.545 M18.836 11.555 C 18.586 11.576,18.523 11.607,18.319 11.812 C 18.060 12.070,17.993 12.283,18.050 12.663 C 18.094 12.957,18.264 13.214,18.507 13.357 C 18.684 13.461,18.797 13.468,20.757 13.493 C 22.351 13.514,22.837 13.536,22.891 13.589 C 22.946 13.645,22.960 14.347,22.960 17.083 C 22.960 18.966,22.942 20.572,22.919 20.653 C 22.856 20.877,22.670 20.963,22.135 21.013 C 21.451 21.077,21.174 21.265,21.064 21.737 C 21.038 21.853,21.015 23.610,21.015 25.644 L 21.013 29.340 21.155 29.526 C 21.444 29.905,21.931 30.067,22.330 29.917 C 22.512 29.848,22.808 29.573,22.911 29.376 C 22.973 29.258,22.988 28.737,22.994 26.469 C 22.997 24.950,23.015 23.530,23.034 23.315 L 23.067 22.923 23.381 22.795 C 24.204 22.461,24.835 21.672,24.958 20.824 C 25.026 20.349,25.028 14.083,24.959 13.556 C 24.887 12.997,24.665 12.565,24.252 12.180 C 24.067 12.008,23.778 11.800,23.610 11.717 L 23.303 11.568 21.212 11.550 C 20.061 11.540,18.992 11.542,18.836 11.555 M15.600 15.063 C 15.179 15.168,14.959 15.281,14.689 15.529 C 14.237 15.946,14.016 16.429,14.018 17.001 C 14.020 17.799,14.437 18.440,15.200 18.815 C 15.457 18.941,15.556 18.959,16.000 18.958 C 16.431 18.957,16.550 18.936,16.800 18.819 C 17.233 18.616,17.568 18.292,17.771 17.878 C 17.934 17.548,17.947 17.484,17.947 16.988 C 17.947 16.344,17.852 16.094,17.444 15.662 C 17.148 15.350,16.765 15.138,16.331 15.046 C 15.993 14.975,15.945 14.976,15.600 15.063 M15.145 20.048 C 14.198 20.183,13.540 20.694,13.223 21.541 C 13.030 22.058,13.002 22.369,13.027 23.733 C 13.048 24.919,13.062 25.071,13.171 25.375 C 13.417 26.060,13.944 26.578,14.653 26.829 L 14.987 26.948 14.988 27.834 C 14.989 28.869,15.052 29.392,15.201 29.601 C 15.370 29.839,15.739 29.991,16.080 29.962 C 16.429 29.933,16.693 29.767,16.863 29.468 C 16.977 29.266,16.986 29.183,17.005 28.096 L 17.025 26.938 17.219 26.875 C 18.188 26.561,18.822 25.797,18.943 24.797 C 18.973 24.553,18.987 23.824,18.975 23.177 C 18.954 22.066,18.945 21.980,18.814 21.633 C 18.526 20.874,18.080 20.421,17.384 20.178 C 17.072 20.070,16.883 20.046,16.226 20.028 C 15.794 20.016,15.307 20.025,15.145 20.048 M16.732 22.136 C 16.951 22.273,16.987 22.469,16.986 23.520 C 16.986 24.909,16.961 24.946,15.959 25.000 C 15.473 25.025,15.400 25.018,15.301 24.928 C 15.036 24.689,15.013 24.573,15.016 23.493 C 15.019 22.061,15.053 22.015,16.080 22.046 C 16.418 22.056,16.657 22.089,16.732 22.136 " fill="#1A1C1F" stroke="none" fill-rule="evenodd"></path></svg>