<svg width="16" height="16" viewBox="0 0 16 16" fill="none" xmlns="http://www.w3.org/2000/svg"><path d="M5.290 1.638 C 4.940 1.704,4.612 1.908,4.356 2.217 C 3.963 2.692,3.899 3.379,4.193 3.960 C 4.279 4.129,4.713 4.548,4.885 4.626 C 5.089 4.720,5.420 4.800,5.600 4.800 C 5.780 4.800,6.111 4.720,6.315 4.626 C 6.487 4.548,6.921 4.129,7.007 3.960 C 7.361 3.260,7.200 2.474,6.600 1.974 C 6.243 1.676,5.751 1.550,5.290 1.638 M10.890 2.438 C 10.540 2.504,10.212 2.708,9.956 3.017 C 9.563 3.492,9.499 4.179,9.793 4.760 C 9.879 4.929,10.313 5.348,10.485 5.426 C 10.689 5.520,11.020 5.600,11.200 5.600 C 11.380 5.600,11.711 5.520,11.915 5.426 C 12.087 5.348,12.521 4.929,12.607 4.760 C 12.961 4.060,12.800 3.274,12.200 2.774 C 11.843 2.476,11.351 2.350,10.890 2.438 M3.820 5.624 C 3.600 5.642,3.545 5.658,3.319 5.770 C 2.892 5.982,2.596 6.325,2.462 6.760 C 2.417 6.907,2.413 7.039,2.413 8.387 C 2.413 9.984,2.415 10.006,2.566 10.318 C 2.690 10.574,3.016 10.895,3.280 11.022 C 3.488 11.121,3.764 11.199,3.912 11.200 L 3.997 11.200 4.007 12.500 C 4.014 13.456,4.026 13.827,4.051 13.903 C 4.094 14.036,4.311 14.254,4.474 14.327 C 4.647 14.405,4.950 14.405,5.125 14.326 C 5.283 14.255,5.455 14.084,5.529 13.924 C 5.586 13.802,5.587 13.777,5.594 12.006 C 5.603 9.980,5.614 10.104,5.391 9.861 C 5.196 9.650,5.119 9.628,4.522 9.608 L 4.000 9.592 4.000 8.397 L 4.000 7.203 4.900 7.195 C 5.778 7.187,5.803 7.185,5.925 7.125 C 6.522 6.831,6.553 6.018,5.979 5.712 L 5.819 5.627 4.943 5.615 C 4.461 5.609,3.955 5.613,3.820 5.624 M11.015 6.427 C 10.642 6.506,10.366 6.892,10.411 7.272 C 10.444 7.553,10.631 7.817,10.876 7.928 C 10.985 7.978,11.062 7.986,11.500 7.995 L 12.000 8.006 12.000 9.199 L 12.000 10.392 11.500 10.406 C 11.049 10.419,10.986 10.427,10.867 10.482 C 10.701 10.561,10.547 10.714,10.472 10.875 C 10.414 10.999,10.413 11.016,10.413 12.400 L 10.413 13.800 10.489 13.955 C 10.678 14.338,11.155 14.503,11.541 14.316 C 11.701 14.239,11.908 14.028,11.950 13.899 C 11.972 13.832,11.986 13.507,11.993 12.900 L 12.004 12.000 12.092 12.000 C 12.203 12.000,12.609 11.884,12.750 11.811 C 12.884 11.743,13.253 11.393,13.358 11.234 C 13.402 11.169,13.471 11.017,13.512 10.897 L 13.587 10.680 13.587 9.200 L 13.587 7.720 13.524 7.533 C 13.447 7.305,13.366 7.161,13.224 6.997 C 12.998 6.736,12.735 6.562,12.427 6.468 C 12.253 6.416,11.210 6.385,11.015 6.427 M7.775 7.227 C 7.467 7.281,7.088 7.560,6.949 7.835 C 6.783 8.162,6.762 8.492,6.886 8.823 C 6.995 9.114,7.281 9.401,7.577 9.517 C 7.814 9.609,8.185 9.612,8.406 9.524 C 8.610 9.443,8.815 9.286,8.951 9.107 C 9.523 8.356,9.033 7.294,8.080 7.218 C 7.985 7.210,7.847 7.214,7.775 7.227 M7.450 10.425 C 6.743 10.491,6.242 11.244,6.453 11.926 C 6.554 12.254,6.774 12.522,7.054 12.659 L 7.195 12.728 7.205 13.264 C 7.217 13.876,7.239 13.962,7.439 14.156 C 7.613 14.325,7.764 14.387,8.000 14.387 C 8.236 14.387,8.387 14.325,8.561 14.156 C 8.761 13.962,8.783 13.876,8.795 13.263 L 8.805 12.727 8.940 12.663 C 9.134 12.573,9.398 12.308,9.480 12.122 C 9.817 11.360,9.367 10.531,8.560 10.427 C 8.340 10.399,7.747 10.398,7.450 10.425 " fill="#1A1C1F" stroke="none" fill-rule="evenodd"></path></svg>