<svg width="20" height="20" viewBox="0 0 20 20" fill="none" xmlns="http://www.w3.org/2000/svg"><path d="M6.613 2.047 C 6.175 2.130,5.765 2.385,5.445 2.771 C 4.958 3.360,4.873 4.235,5.234 4.933 C 5.379 5.214,5.836 5.655,6.120 5.787 C 6.358 5.899,6.777 6.000,7.000 6.000 C 7.225 6.000,7.639 5.899,7.894 5.783 C 8.109 5.684,8.651 5.162,8.759 4.950 C 9.202 4.075,9.000 3.092,8.250 2.468 C 7.799 2.092,7.194 1.936,6.613 2.047 M13.613 3.047 C 13.175 3.130,12.765 3.385,12.445 3.771 C 11.958 4.360,11.873 5.235,12.234 5.933 C 12.379 6.214,12.836 6.655,13.120 6.787 C 13.358 6.899,13.777 7.000,14.000 7.000 C 14.225 7.000,14.639 6.899,14.894 6.783 C 15.109 6.684,15.651 6.162,15.759 5.950 C 16.202 5.075,16.000 4.092,15.250 3.468 C 14.799 3.092,14.194 2.936,13.613 3.047 M4.792 7.030 C 4.497 7.053,4.439 7.069,4.150 7.213 C 3.615 7.478,3.245 7.906,3.078 8.450 C 3.022 8.634,3.017 8.798,3.017 10.483 C 3.017 12.478,3.018 12.497,3.207 12.892 C 3.363 13.217,3.766 13.617,4.101 13.777 C 4.360 13.901,4.705 13.999,4.890 14.000 L 4.996 14.000 5.008 15.625 C 5.017 16.768,5.033 17.286,5.061 17.371 C 5.121 17.552,5.344 17.784,5.559 17.889 C 5.816 18.015,6.168 18.019,6.415 17.899 C 6.625 17.798,6.817 17.607,6.910 17.406 C 6.983 17.251,6.983 17.235,6.993 15.007 C 7.003 12.475,7.018 12.629,6.739 12.326 C 6.496 12.063,6.399 12.034,5.653 12.010 L 5.000 11.989 5.000 10.497 L 5.000 9.004 6.125 8.994 C 7.223 8.984,7.254 8.981,7.406 8.906 C 8.152 8.539,8.192 7.522,7.475 7.140 L 7.276 7.035 6.197 7.020 C 5.603 7.012,4.971 7.016,4.792 7.030 M13.768 8.034 C 13.170 8.161,12.833 8.865,13.103 9.423 C 13.196 9.615,13.409 9.826,13.595 9.910 C 13.731 9.972,13.828 9.982,14.375 9.994 L 15.000 10.007 15.000 11.499 L 15.000 12.990 14.370 13.008 L 13.740 13.026 13.535 13.135 C 13.321 13.249,13.172 13.407,13.075 13.622 C 13.022 13.738,13.017 13.910,13.017 15.500 L 13.017 17.250 13.112 17.444 C 13.346 17.921,13.945 18.128,14.421 17.898 C 14.620 17.802,14.887 17.532,14.938 17.375 C 14.965 17.290,14.983 16.887,14.992 16.125 L 15.005 15.000 15.115 15.000 C 15.254 15.000,15.761 14.855,15.938 14.764 C 16.105 14.679,16.567 14.241,16.698 14.043 C 16.752 13.961,16.839 13.771,16.890 13.622 L 16.983 13.350 16.983 11.500 L 16.983 9.650 16.892 9.383 C 16.679 8.765,16.168 8.277,15.533 8.085 C 15.316 8.020,14.013 7.982,13.768 8.034 M9.719 9.035 C 9.338 9.099,8.861 9.449,8.686 9.794 C 8.479 10.203,8.453 10.615,8.607 11.029 C 8.744 11.393,9.101 11.752,9.472 11.896 C 9.768 12.012,10.231 12.015,10.508 11.905 C 11.236 11.615,11.652 10.814,11.439 10.111 C 11.262 9.527,10.813 9.130,10.223 9.034 C 9.991 8.996,9.951 8.996,9.719 9.035 M9.317 13.032 C 8.457 13.115,7.825 14.022,8.046 14.855 C 8.151 15.247,8.493 15.677,8.822 15.829 L 8.993 15.908 9.006 16.579 C 9.021 17.345,9.049 17.452,9.299 17.695 C 9.516 17.906,9.705 17.983,10.000 17.983 C 10.295 17.983,10.484 17.906,10.701 17.695 C 10.951 17.452,10.979 17.345,10.994 16.579 L 11.007 15.908 11.177 15.829 C 11.434 15.709,11.774 15.357,11.865 15.115 C 12.035 14.668,12.034 14.332,11.865 13.883 C 11.709 13.468,11.186 13.088,10.694 13.031 C 10.414 12.999,9.660 12.999,9.317 13.032 " fill="#1A1C1F" stroke="none" fill-rule="evenodd"></path></svg>