<svg width="28" height="28" viewBox="0 0 28 28" fill="none" xmlns="http://www.w3.org/2000/svg"><path d="M8.225 1.823 C 7.925 1.914,7.653 2.302,7.654 2.637 C 7.654 2.833,7.806 3.109,9.503 6.003 C 10.077 6.982,10.547 7.803,10.547 7.827 C 10.547 7.853,10.196 7.884,9.711 7.900 C 8.927 7.925,8.861 7.935,8.630 8.052 C 8.495 8.120,8.286 8.278,8.164 8.402 C 7.769 8.808,7.654 9.185,7.654 10.075 C 7.653 10.767,7.692 10.861,8.195 11.385 L 8.623 11.831 8.377 12.095 C 8.078 12.416,8.001 12.669,8.040 13.202 C 8.075 13.667,8.184 13.965,8.405 14.197 L 8.584 14.386 8.257 14.737 C 8.076 14.930,7.872 15.184,7.803 15.302 C 7.677 15.515,7.677 15.523,7.653 16.639 C 7.626 17.890,7.622 17.910,7.291 18.128 C 7.017 18.308,6.735 18.346,5.411 18.383 L 4.173 18.418 3.878 18.567 C 3.499 18.760,3.263 18.952,3.038 19.249 C 2.472 19.999,2.359 20.582,2.388 22.613 C 2.407 23.934,2.405 23.925,2.699 24.233 C 2.915 24.459,3.142 24.523,3.476 24.453 C 3.678 24.412,3.762 24.363,3.912 24.200 C 4.085 24.013,4.099 23.975,4.124 23.654 C 4.139 23.465,4.160 22.753,4.171 22.073 C 4.192 20.763,4.209 20.652,4.425 20.424 C 4.671 20.164,4.743 20.149,5.926 20.110 C 7.448 20.059,7.986 19.940,8.528 19.531 C 9.233 18.999,9.421 18.409,9.425 16.712 L 9.427 16.087 9.945 15.552 C 10.501 14.978,10.668 14.705,10.718 14.290 C 10.733 14.158,10.721 13.987,10.689 13.889 C 10.618 13.676,10.323 13.298,10.158 13.210 C 10.089 13.174,10.034 13.132,10.034 13.117 C 10.035 13.102,10.121 13.029,10.226 12.955 C 10.466 12.785,10.667 12.473,10.707 12.208 C 10.776 11.750,10.541 11.304,9.853 10.585 L 9.427 10.138 9.427 9.883 L 9.427 9.627 10.232 9.600 C 11.108 9.571,11.380 9.516,11.705 9.298 C 12.279 8.912,12.493 8.106,12.233 7.303 C 12.094 6.875,11.899 6.519,10.842 4.760 C 9.064 1.803,9.073 1.816,8.618 1.790 C 8.485 1.783,8.309 1.798,8.225 1.823 M16.117 2.644 C 16.037 2.656,15.922 2.718,15.861 2.783 L 15.750 2.901 15.750 4.563 L 15.750 6.226 15.909 6.333 C 16.124 6.479,16.299 6.470,16.484 6.304 L 16.637 6.168 16.653 5.581 L 16.670 4.993 16.933 4.992 C 17.340 4.991,17.812 4.910,18.016 4.805 C 18.531 4.543,18.727 3.733,18.408 3.188 C 18.256 2.930,17.942 2.724,17.649 2.689 C 17.326 2.650,16.286 2.620,16.117 2.644 M24.327 3.092 C 24.274 3.149,24.189 3.293,24.138 3.411 C 24.063 3.585,24.017 3.632,23.899 3.655 C 23.614 3.712,23.591 4.111,23.869 4.181 C 24.020 4.219,24.027 4.255,24.045 5.157 C 24.057 5.764,24.076 5.932,24.143 6.059 C 24.278 6.312,24.639 6.427,25.212 6.401 C 25.427 6.392,25.573 6.257,25.573 6.068 C 25.573 5.894,25.467 5.833,25.163 5.833 L 24.933 5.833 24.903 5.546 C 24.887 5.389,24.873 5.021,24.873 4.730 L 24.873 4.200 25.107 4.200 C 25.372 4.200,25.527 4.090,25.527 3.899 C 25.527 3.739,25.362 3.640,25.096 3.640 C 24.882 3.640,24.873 3.635,24.873 3.507 C 24.873 3.074,24.560 2.836,24.327 3.092 M17.474 3.359 C 17.667 3.433,17.749 3.851,17.618 4.103 C 17.503 4.327,16.989 4.466,16.750 4.338 C 16.669 4.295,16.660 4.236,16.660 3.772 L 16.660 3.254 17.013 3.286 C 17.207 3.303,17.414 3.336,17.474 3.359 M5.080 3.570 C 4.818 3.654,4.421 3.999,4.280 4.265 C 4.135 4.540,4.137 5.077,4.285 5.357 C 4.517 5.797,5.018 6.113,5.483 6.113 C 6.347 6.113,6.978 5.209,6.694 4.377 C 6.482 3.755,5.709 3.369,5.080 3.570 M19.312 3.688 C 18.985 3.861,18.808 4.252,18.897 4.604 C 18.997 5.000,19.155 5.141,19.690 5.316 C 20.134 5.461,20.252 5.596,20.075 5.756 C 19.972 5.849,19.602 5.859,19.204 5.779 C 18.943 5.726,18.929 5.729,18.844 5.833 C 18.646 6.078,18.878 6.303,19.420 6.394 C 20.399 6.560,21.070 6.046,20.859 5.291 C 20.772 4.984,20.598 4.835,20.149 4.688 C 19.732 4.551,19.600 4.466,19.600 4.334 C 19.600 4.183,19.769 4.140,20.216 4.175 C 20.513 4.198,20.651 4.191,20.699 4.151 C 20.771 4.091,20.789 3.887,20.729 3.793 C 20.596 3.584,19.644 3.513,19.312 3.688 M21.741 3.727 C 21.377 3.958,21.247 4.428,21.439 4.819 C 21.549 5.045,21.721 5.165,22.134 5.305 C 22.612 5.466,22.728 5.593,22.548 5.756 C 22.445 5.849,22.076 5.859,21.677 5.779 C 21.418 5.727,21.402 5.729,21.319 5.831 C 21.080 6.126,21.390 6.353,22.126 6.423 C 22.900 6.496,23.455 6.031,23.359 5.389 C 23.307 5.040,23.086 4.843,22.540 4.655 C 22.139 4.518,22.095 4.491,22.082 4.378 C 22.060 4.183,22.198 4.136,22.690 4.175 C 22.987 4.198,23.124 4.191,23.172 4.151 C 23.245 4.091,23.262 3.887,23.203 3.793 C 23.122 3.667,22.821 3.593,22.387 3.593 C 21.988 3.593,21.934 3.604,21.741 3.727 M14.560 9.753 C 13.990 9.962,13.426 10.472,13.273 10.917 C 13.119 11.362,13.016 12.259,12.388 18.613 L 12.031 22.222 12.201 23.746 C 12.392 25.460,12.424 25.647,12.570 25.862 C 12.824 26.239,13.365 26.335,13.761 26.073 C 14.171 25.802,14.182 25.662,13.956 23.673 L 13.806 22.357 13.975 20.593 C 14.067 19.624,14.300 17.253,14.491 15.325 C 14.683 13.397,14.840 11.787,14.840 11.746 C 14.840 11.603,15.042 11.429,15.237 11.403 C 15.390 11.382,15.441 11.396,15.517 11.480 C 15.598 11.571,15.608 11.639,15.597 12.028 C 15.590 12.273,15.470 13.620,15.331 15.022 C 15.191 16.423,15.033 18.060,14.979 18.658 L 14.881 19.746 14.977 19.944 C 15.284 20.578,16.211 20.589,16.514 19.962 C 16.582 19.821,16.634 19.559,16.684 19.108 C 16.773 18.283,16.813 18.137,16.965 18.068 C 17.127 17.994,17.244 17.999,17.415 18.088 L 17.559 18.162 17.530 18.636 C 17.514 18.897,17.489 19.415,17.474 19.787 C 17.448 20.414,17.453 20.474,17.541 20.613 C 17.804 21.027,18.318 21.143,18.736 20.883 C 19.029 20.702,19.118 20.520,19.199 19.940 C 19.277 19.386,19.315 19.301,19.513 19.231 C 19.635 19.189,19.693 19.195,19.829 19.261 L 19.997 19.343 19.997 20.214 C 19.997 21.025,20.003 21.095,20.094 21.218 C 20.320 21.523,20.736 21.670,21.068 21.561 C 21.345 21.469,21.515 21.287,21.703 20.877 C 21.800 20.667,21.921 20.471,21.973 20.444 C 22.106 20.373,22.269 20.381,22.390 20.466 C 22.518 20.556,22.522 20.737,22.425 21.865 C 22.333 22.931,22.247 25.107,22.286 25.412 C 22.342 25.860,22.643 26.177,23.050 26.216 C 23.355 26.245,23.575 26.163,23.769 25.949 C 23.990 25.704,24.021 25.514,24.081 23.987 C 24.109 23.281,24.152 22.462,24.177 22.167 C 24.280 20.952,24.285 20.480,24.199 20.183 C 24.059 19.704,23.787 19.336,23.349 19.035 C 22.975 18.778,22.744 18.708,22.172 18.679 L 21.641 18.652 21.215 18.224 C 20.624 17.629,20.337 17.489,19.664 17.469 L 19.177 17.454 18.957 17.165 C 18.578 16.667,17.943 16.311,17.327 16.254 C 17.164 16.239,17.021 16.211,17.010 16.193 C 16.998 16.174,17.075 15.321,17.179 14.298 C 17.285 13.263,17.373 12.157,17.377 11.807 C 17.383 11.182,17.382 11.174,17.229 10.861 C 17.013 10.419,16.662 10.074,16.208 9.858 C 15.865 9.694,15.813 9.683,15.330 9.671 C 14.908 9.661,14.771 9.675,14.560 9.753 " fill="#1A1C1F" stroke="none" fill-rule="evenodd"></path></svg>