<svg width="14" height="14" viewBox="0 0 14 14" fill="none" xmlns="http://www.w3.org/2000/svg"><path d="M6.924 2.210 C 6.840 2.223,6.730 2.335,6.712 2.428 C 6.686 2.554,6.695 4.297,6.721 4.391 C 6.734 4.438,6.777 4.504,6.816 4.537 C 6.921 4.626,7.029 4.613,7.158 4.496 C 7.208 4.450,7.210 4.433,7.210 4.062 L 7.210 3.675 7.362 3.683 C 7.712 3.701,8.013 3.524,8.111 3.242 C 8.173 3.063,8.168 2.784,8.099 2.609 C 8.043 2.464,7.913 2.329,7.776 2.271 C 7.652 2.219,7.117 2.181,6.924 2.210 M4.141 2.260 C 4.019 2.316,3.866 2.490,3.829 2.616 C 3.775 2.795,3.791 2.926,3.892 3.124 C 3.943 3.222,4.228 3.712,4.527 4.212 C 4.826 4.712,5.076 5.140,5.081 5.162 C 5.091 5.199,5.071 5.203,4.885 5.204 C 4.475 5.205,4.203 5.306,3.948 5.554 C 3.774 5.724,3.674 5.867,3.609 6.039 C 3.561 6.167,3.559 6.213,3.551 7.379 L 3.544 8.587 3.341 8.587 C 2.663 8.589,2.342 8.809,2.132 9.415 L 2.068 9.602 2.066 10.500 C 2.065 11.376,2.066 11.401,2.115 11.492 C 2.181 11.614,2.250 11.676,2.392 11.740 C 2.636 11.851,2.928 11.787,3.089 11.589 C 3.229 11.415,3.228 11.424,3.247 10.722 C 3.256 10.362,3.271 10.024,3.279 9.969 C 3.300 9.824,3.348 9.801,3.702 9.775 C 3.955 9.756,4.024 9.742,4.147 9.684 C 4.424 9.555,4.602 9.332,4.698 8.997 C 4.742 8.843,4.746 8.749,4.754 7.615 L 4.764 6.398 5.234 6.389 C 5.769 6.378,5.892 6.352,6.083 6.208 C 6.456 5.927,6.543 5.398,6.304 4.871 C 6.233 4.714,5.618 3.677,5.128 2.888 C 4.821 2.393,4.751 2.311,4.579 2.250 C 4.453 2.205,4.252 2.210,4.141 2.260 M11.229 2.479 C 11.203 2.508,11.160 2.594,11.136 2.670 C 11.090 2.812,11.077 2.826,10.955 2.862 C 10.819 2.902,10.824 3.105,10.962 3.176 C 10.997 3.194,11.033 3.219,11.042 3.232 C 11.052 3.244,11.059 3.451,11.060 3.691 C 11.060 4.308,11.093 4.425,11.298 4.529 C 11.415 4.589,11.675 4.613,11.792 4.574 C 11.932 4.528,11.992 4.362,11.900 4.270 C 11.865 4.235,11.822 4.223,11.728 4.223 C 11.640 4.223,11.593 4.212,11.570 4.185 C 11.546 4.156,11.536 4.031,11.531 3.671 L 11.523 3.197 11.659 3.196 C 11.801 3.195,11.851 3.172,11.896 3.087 C 11.936 3.012,11.929 2.946,11.877 2.893 C 11.840 2.856,11.799 2.847,11.678 2.847 L 11.527 2.847 11.526 2.701 C 11.525 2.549,11.503 2.500,11.417 2.454 C 11.341 2.413,11.284 2.421,11.229 2.479 M7.554 2.673 C 7.651 2.737,7.682 2.917,7.629 3.109 C 7.593 3.238,7.425 3.326,7.270 3.296 L 7.210 3.285 7.210 2.946 L 7.210 2.607 7.354 2.622 C 7.434 2.630,7.523 2.653,7.554 2.673 M8.592 2.848 C 8.410 2.940,8.307 3.123,8.307 3.350 C 8.307 3.588,8.452 3.785,8.692 3.871 C 8.931 3.957,9.005 3.995,9.019 4.040 C 9.039 4.102,9.011 4.173,8.956 4.202 C 8.898 4.233,8.672 4.233,8.563 4.201 C 8.359 4.140,8.262 4.186,8.261 4.342 C 8.259 4.503,8.429 4.579,8.797 4.583 C 9.015 4.585,9.056 4.578,9.172 4.524 C 9.244 4.490,9.325 4.432,9.352 4.394 C 9.465 4.234,9.481 3.885,9.381 3.724 C 9.329 3.640,9.143 3.534,8.882 3.442 C 8.752 3.395,8.704 3.323,8.744 3.235 C 8.778 3.160,8.881 3.145,9.107 3.182 C 9.312 3.216,9.345 3.204,9.376 3.092 C 9.430 2.896,9.308 2.817,8.937 2.805 C 8.722 2.798,8.679 2.804,8.592 2.848 M9.876 2.849 C 9.747 2.913,9.670 3.007,9.626 3.155 C 9.518 3.519,9.653 3.754,10.054 3.897 C 10.187 3.945,10.278 3.991,10.293 4.019 C 10.326 4.080,10.300 4.170,10.241 4.201 C 10.181 4.233,9.956 4.233,9.847 4.201 C 9.702 4.158,9.602 4.170,9.568 4.233 C 9.530 4.304,9.529 4.399,9.566 4.444 C 9.613 4.501,9.841 4.573,10.018 4.588 C 10.336 4.615,10.582 4.517,10.677 4.325 C 10.733 4.213,10.739 3.880,10.689 3.760 C 10.643 3.652,10.509 3.561,10.286 3.487 C 10.027 3.401,9.959 3.322,10.043 3.207 C 10.070 3.170,10.102 3.162,10.224 3.165 C 10.305 3.166,10.413 3.179,10.462 3.193 C 10.579 3.225,10.631 3.198,10.662 3.087 C 10.715 2.894,10.562 2.803,10.185 2.801 C 10.017 2.800,9.955 2.810,9.876 2.849 M2.415 3.461 C 2.174 3.578,2.065 3.747,2.065 4.002 C 2.065 4.190,2.106 4.291,2.232 4.418 C 2.359 4.544,2.460 4.585,2.648 4.585 C 2.784 4.584,2.832 4.573,2.934 4.517 C 3.196 4.372,3.305 4.085,3.206 3.797 C 3.166 3.677,3.031 3.524,2.912 3.463 C 2.870 3.441,2.767 3.419,2.684 3.414 C 2.558 3.406,2.512 3.414,2.415 3.461 M7.505 5.870 C 7.430 5.894,7.354 5.944,7.280 6.018 C 7.149 6.149,7.206 5.977,6.650 7.909 L 6.250 9.296 6.258 10.324 C 6.265 11.346,6.265 11.352,6.319 11.462 C 6.447 11.720,6.796 11.857,7.054 11.749 C 7.173 11.699,7.348 11.535,7.392 11.433 C 7.419 11.368,7.430 11.154,7.446 10.383 C 7.464 9.503,7.470 9.400,7.515 9.255 L 7.563 9.094 7.874 9.105 L 8.185 9.115 8.508 9.325 C 8.686 9.441,8.895 9.571,8.972 9.615 L 9.112 9.695 9.562 9.703 C 9.898 9.709,10.016 9.719,10.024 9.741 C 10.031 9.757,9.996 9.932,9.947 10.129 C 9.861 10.476,9.858 10.502,9.858 10.897 C 9.858 11.176,9.868 11.333,9.889 11.392 C 9.956 11.582,10.263 11.807,10.453 11.806 C 10.635 11.805,10.874 11.645,10.978 11.454 C 11.041 11.338,11.045 11.309,11.062 10.945 C 11.079 10.592,11.090 10.517,11.198 10.080 C 11.342 9.498,11.362 9.329,11.307 9.182 C 11.247 9.027,11.106 8.919,10.683 8.703 L 10.308 8.511 9.861 8.500 L 9.415 8.488 9.030 8.238 C 8.818 8.100,8.619 7.973,8.587 7.956 C 8.550 7.936,8.420 7.921,8.237 7.915 C 8.076 7.910,7.938 7.898,7.929 7.890 C 7.920 7.882,7.970 7.676,8.041 7.432 C 8.286 6.583,8.322 6.368,8.252 6.200 C 8.139 5.930,7.794 5.778,7.505 5.870 " fill="#1A1C1F" stroke="none" fill-rule="evenodd"></path></svg>