<svg width="16" height="16" viewBox="0 0 16 16" fill="none" xmlns="http://www.w3.org/2000/svg"><path d="M4.347 1.626 C 4.097 1.674,3.858 1.888,3.778 2.134 C 3.726 2.296,3.720 2.540,3.765 2.669 C 3.798 2.765,4.355 3.714,5.050 4.860 C 5.279 5.238,5.467 5.559,5.467 5.574 C 5.467 5.589,5.373 5.600,5.247 5.601 C 4.972 5.602,4.665 5.641,4.500 5.695 C 4.431 5.719,4.287 5.795,4.180 5.865 C 3.842 6.089,3.625 6.362,3.477 6.747 L 3.400 6.947 3.392 8.527 L 3.384 10.107 3.139 10.107 C 2.614 10.109,2.323 10.186,2.045 10.396 C 1.743 10.624,1.516 11.050,1.438 11.534 C 1.415 11.679,1.403 12.070,1.402 12.760 C 1.400 13.757,1.401 13.776,1.461 13.925 C 1.531 14.098,1.677 14.244,1.863 14.329 C 2.041 14.409,2.370 14.407,2.528 14.324 C 2.703 14.233,2.844 14.091,2.925 13.926 L 2.998 13.776 3.014 12.823 C 3.027 12.078,3.038 11.861,3.067 11.827 C 3.139 11.739,3.242 11.714,3.574 11.700 C 3.836 11.689,3.949 11.672,4.099 11.619 C 4.518 11.474,4.789 11.163,4.936 10.663 C 4.990 10.474,4.993 10.403,5.006 8.833 L 5.020 7.200 5.530 7.199 C 6.335 7.198,6.614 7.123,6.903 6.834 C 7.163 6.574,7.270 6.269,7.246 5.857 C 7.220 5.390,7.168 5.282,6.155 3.592 C 5.515 2.524,5.145 1.937,5.049 1.836 C 4.909 1.689,4.560 1.584,4.347 1.626 M7.852 1.628 C 7.742 1.660,7.654 1.760,7.625 1.884 C 7.592 2.028,7.593 4.305,7.627 4.483 C 7.666 4.690,7.766 4.784,7.945 4.784 C 8.056 4.784,8.093 4.770,8.157 4.709 C 8.267 4.604,8.293 4.464,8.293 3.988 L 8.293 3.573 8.500 3.573 C 9.009 3.572,9.324 3.390,9.472 3.013 C 9.518 2.896,9.530 2.807,9.531 2.573 C 9.533 2.304,9.527 2.266,9.456 2.113 C 9.319 1.815,9.097 1.670,8.714 1.626 C 8.444 1.595,7.963 1.596,7.852 1.628 M13.629 1.984 C 13.597 2.019,13.546 2.123,13.517 2.215 C 13.455 2.415,13.427 2.453,13.345 2.453 C 13.311 2.453,13.250 2.482,13.209 2.517 C 13.101 2.610,13.106 2.754,13.222 2.857 C 13.269 2.899,13.325 2.933,13.346 2.933 C 13.402 2.933,13.411 3.034,13.420 3.720 C 13.427 4.303,13.431 4.340,13.491 4.462 C 13.578 4.641,13.716 4.734,13.949 4.774 C 14.149 4.808,14.422 4.779,14.498 4.716 C 14.643 4.596,14.628 4.373,14.472 4.322 C 14.425 4.307,14.329 4.296,14.258 4.297 C 14.187 4.299,14.116 4.286,14.099 4.269 C 14.056 4.227,14.031 3.907,14.029 3.380 L 14.027 2.933 14.207 2.933 C 14.337 2.932,14.402 2.919,14.444 2.886 C 14.555 2.796,14.593 2.645,14.526 2.558 C 14.467 2.482,14.380 2.453,14.202 2.453 L 14.027 2.453 14.027 2.278 C 14.027 2.021,13.960 1.922,13.785 1.921 C 13.718 1.920,13.671 1.939,13.629 1.984 M8.739 2.215 C 8.827 2.270,8.865 2.390,8.866 2.614 C 8.867 2.920,8.770 3.033,8.485 3.059 L 8.328 3.073 8.311 2.906 C 8.301 2.814,8.293 2.607,8.293 2.446 L 8.293 2.153 8.487 2.165 C 8.593 2.172,8.707 2.194,8.739 2.215 M10.324 2.402 C 10.055 2.455,9.853 2.614,9.790 2.825 C 9.746 2.973,9.752 3.316,9.801 3.434 C 9.849 3.549,9.981 3.694,10.087 3.750 C 10.127 3.771,10.259 3.824,10.380 3.869 C 10.642 3.966,10.693 4.007,10.693 4.120 C 10.693 4.310,10.493 4.360,10.095 4.268 C 9.807 4.202,9.753 4.214,9.692 4.358 C 9.647 4.468,9.674 4.580,9.761 4.644 C 9.925 4.764,10.532 4.828,10.792 4.751 C 10.955 4.704,11.119 4.567,11.198 4.413 C 11.256 4.301,11.267 4.244,11.267 4.053 C 11.267 3.864,11.256 3.805,11.200 3.695 C 11.108 3.512,10.993 3.431,10.653 3.308 C 10.356 3.200,10.293 3.155,10.293 3.052 C 10.293 2.902,10.549 2.840,10.852 2.918 C 11.004 2.956,11.028 2.957,11.083 2.921 C 11.117 2.898,11.159 2.833,11.176 2.775 C 11.231 2.591,11.118 2.478,10.810 2.413 C 10.608 2.370,10.498 2.368,10.324 2.402 M11.818 2.468 C 11.578 2.590,11.467 2.807,11.467 3.157 C 11.467 3.526,11.629 3.700,12.154 3.893 C 12.409 3.986,12.489 4.119,12.362 4.238 C 12.266 4.329,12.100 4.337,11.799 4.268 C 11.566 4.214,11.539 4.212,11.481 4.250 C 11.364 4.327,11.361 4.578,11.476 4.653 C 11.647 4.766,12.243 4.822,12.499 4.750 C 12.663 4.704,12.830 4.567,12.905 4.415 C 12.960 4.304,12.970 4.244,12.972 4.027 C 12.973 3.790,12.967 3.760,12.901 3.660 C 12.795 3.501,12.676 3.421,12.382 3.316 C 12.101 3.216,12.000 3.146,12.000 3.051 C 12.000 2.902,12.166 2.857,12.530 2.907 L 12.783 2.941 12.845 2.869 C 12.922 2.780,12.924 2.669,12.851 2.576 C 12.748 2.446,12.655 2.417,12.293 2.406 C 11.974 2.397,11.954 2.399,11.818 2.468 M2.024 3.225 C 1.792 3.271,1.532 3.500,1.455 3.728 C 1.325 4.109,1.484 4.508,1.844 4.708 C 1.969 4.777,2.013 4.787,2.200 4.786 C 2.369 4.786,2.437 4.773,2.526 4.726 C 2.811 4.575,2.987 4.303,2.987 4.014 C 2.987 3.774,2.922 3.612,2.761 3.451 C 2.577 3.267,2.277 3.175,2.024 3.225 M8.662 6.494 C 8.586 6.518,8.479 6.587,8.389 6.669 C 8.257 6.790,8.233 6.828,8.172 7.022 C 8.091 7.279,7.542 9.163,7.212 10.318 L 6.980 11.129 6.991 12.438 L 7.003 13.747 7.070 13.893 C 7.168 14.104,7.260 14.200,7.457 14.297 C 7.788 14.460,8.127 14.392,8.376 14.112 C 8.600 13.860,8.593 13.908,8.617 12.483 C 8.638 11.189,8.641 11.147,8.712 10.923 L 8.753 10.794 9.143 10.805 C 9.599 10.819,9.538 10.795,10.160 11.200 C 10.814 11.625,10.689 11.585,11.404 11.600 C 11.744 11.607,12.030 11.621,12.039 11.630 C 12.048 11.639,11.999 11.867,11.929 12.137 L 11.802 12.627 11.801 13.187 C 11.800 13.831,11.815 13.890,12.040 14.130 C 12.211 14.313,12.365 14.383,12.600 14.383 C 12.835 14.383,12.989 14.313,13.160 14.130 C 13.366 13.911,13.390 13.827,13.416 13.239 C 13.439 12.732,13.441 12.721,13.602 12.090 C 13.738 11.561,13.766 11.413,13.770 11.213 C 13.776 10.774,13.682 10.670,12.907 10.261 L 12.440 10.015 11.831 10.004 L 11.221 9.994 10.745 9.678 C 10.063 9.225,10.064 9.226,9.657 9.210 C 9.472 9.203,9.295 9.192,9.264 9.186 C 9.211 9.175,9.218 9.140,9.461 8.301 C 9.745 7.318,9.765 7.182,9.660 6.951 C 9.517 6.637,9.293 6.477,8.975 6.463 C 8.858 6.457,8.740 6.469,8.662 6.494 " fill="#1A1C1F" stroke="none" fill-rule="evenodd"></path></svg>