<svg width="14" height="14" viewBox="0 0 14 14" fill="none" xmlns="http://www.w3.org/2000/svg"><path d="M3.803 1.422 C 3.580 1.465,3.374 1.653,3.303 1.878 C 3.243 2.067,3.260 2.285,3.346 2.450 C 3.383 2.521,3.721 3.092,4.098 3.719 C 4.475 4.346,4.783 4.867,4.783 4.876 C 4.783 4.885,4.638 4.899,4.461 4.907 C 4.081 4.925,3.905 4.971,3.685 5.112 C 3.384 5.305,3.176 5.558,3.048 5.888 L 2.975 6.078 2.968 7.457 L 2.961 8.837 2.630 8.851 C 2.447 8.858,2.244 8.879,2.178 8.898 C 1.875 8.982,1.586 9.227,1.441 9.523 C 1.249 9.913,1.203 10.283,1.219 11.331 C 1.231 12.115,1.246 12.206,1.392 12.367 C 1.437 12.418,1.534 12.488,1.606 12.523 C 1.783 12.610,2.057 12.615,2.212 12.534 C 2.365 12.454,2.489 12.330,2.559 12.185 L 2.623 12.055 2.636 11.222 C 2.651 10.328,2.648 10.344,2.775 10.280 C 2.809 10.262,2.959 10.244,3.127 10.237 C 3.485 10.221,3.674 10.167,3.867 10.025 C 4.086 9.863,4.235 9.628,4.329 9.295 C 4.363 9.177,4.369 8.963,4.380 7.729 L 4.392 6.300 4.808 6.300 C 5.469 6.300,5.725 6.246,5.958 6.058 C 6.238 5.831,6.366 5.512,6.340 5.100 C 6.316 4.720,6.253 4.592,5.390 3.150 C 4.805 2.172,4.494 1.678,4.418 1.605 C 4.278 1.472,3.989 1.387,3.803 1.422 M6.874 1.424 C 6.780 1.453,6.700 1.534,6.673 1.632 C 6.641 1.747,6.642 3.789,6.675 3.939 C 6.737 4.230,7.076 4.283,7.210 4.023 C 7.236 3.972,7.247 3.852,7.253 3.544 L 7.260 3.133 7.514 3.120 C 7.698 3.110,7.798 3.093,7.878 3.058 C 8.212 2.910,8.375 2.606,8.347 2.184 C 8.329 1.927,8.275 1.786,8.145 1.657 C 8.010 1.522,7.858 1.451,7.646 1.423 C 7.439 1.396,6.965 1.397,6.874 1.424 M11.927 1.728 C 11.902 1.754,11.859 1.846,11.831 1.932 C 11.771 2.116,11.749 2.147,11.677 2.147 C 11.647 2.147,11.594 2.172,11.558 2.202 C 11.464 2.283,11.468 2.409,11.569 2.500 C 11.610 2.536,11.659 2.567,11.678 2.567 C 11.729 2.567,11.735 2.622,11.742 3.232 C 11.748 3.781,11.750 3.795,11.808 3.909 C 11.891 4.069,12.009 4.146,12.224 4.178 C 12.413 4.207,12.583 4.192,12.666 4.138 C 12.747 4.086,12.791 3.964,12.761 3.877 C 12.732 3.792,12.645 3.757,12.469 3.757 C 12.365 3.757,12.341 3.748,12.317 3.705 C 12.300 3.672,12.286 3.462,12.278 3.110 L 12.267 2.567 12.423 2.567 C 12.604 2.567,12.656 2.545,12.705 2.450 C 12.802 2.262,12.697 2.147,12.427 2.147 L 12.273 2.147 12.273 1.993 C 12.273 1.767,12.215 1.682,12.058 1.681 C 12.000 1.680,11.957 1.696,11.927 1.728 M7.565 1.914 C 7.711 1.955,7.747 2.025,7.747 2.276 C 7.747 2.472,7.741 2.500,7.690 2.561 C 7.628 2.634,7.498 2.683,7.368 2.683 C 7.287 2.683,7.286 2.682,7.272 2.561 C 7.264 2.493,7.257 2.315,7.257 2.164 L 7.257 1.890 7.368 1.890 C 7.428 1.890,7.517 1.901,7.565 1.914 M9.010 2.102 C 8.878 2.128,8.719 2.222,8.649 2.316 C 8.515 2.495,8.490 2.814,8.591 3.036 C 8.662 3.190,8.779 3.274,9.076 3.383 C 9.311 3.470,9.357 3.506,9.357 3.605 C 9.357 3.771,9.186 3.814,8.836 3.734 C 8.581 3.676,8.534 3.687,8.481 3.813 C 8.395 4.018,8.535 4.125,8.962 4.179 C 9.312 4.224,9.601 4.143,9.739 3.960 C 9.826 3.845,9.878 3.635,9.862 3.461 C 9.837 3.194,9.708 3.034,9.441 2.940 C 9.362 2.912,9.252 2.873,9.196 2.853 C 9.072 2.809,9.007 2.748,9.007 2.675 C 9.007 2.539,9.227 2.484,9.496 2.553 C 9.628 2.587,9.649 2.587,9.698 2.556 C 9.727 2.536,9.764 2.479,9.779 2.428 C 9.803 2.349,9.801 2.327,9.766 2.274 C 9.715 2.196,9.574 2.133,9.380 2.102 C 9.207 2.074,9.153 2.074,9.010 2.102 M10.401 2.132 C 10.173 2.217,10.056 2.391,10.038 2.671 C 10.013 3.061,10.161 3.246,10.612 3.394 C 10.761 3.443,10.873 3.532,10.873 3.603 C 10.873 3.632,10.848 3.679,10.816 3.709 C 10.733 3.787,10.588 3.795,10.327 3.735 C 10.091 3.681,10.036 3.688,9.987 3.779 C 9.957 3.835,9.956 3.957,9.986 4.012 C 10.042 4.117,10.462 4.217,10.742 4.191 C 11.112 4.156,11.311 3.976,11.352 3.636 C 11.400 3.243,11.269 3.057,10.837 2.903 C 10.588 2.814,10.500 2.753,10.500 2.669 C 10.500 2.558,10.639 2.501,10.846 2.529 C 11.205 2.577,11.188 2.578,11.243 2.508 C 11.337 2.388,11.286 2.240,11.122 2.153 C 11.021 2.100,10.526 2.085,10.401 2.132 M1.771 2.822 C 1.563 2.863,1.339 3.065,1.270 3.273 C 1.213 3.443,1.233 3.695,1.315 3.834 C 1.437 4.044,1.698 4.200,1.925 4.200 C 1.982 4.200,2.085 4.179,2.153 4.153 C 2.514 4.018,2.699 3.630,2.577 3.263 C 2.522 3.097,2.341 2.914,2.181 2.864 C 2.032 2.816,1.877 2.801,1.771 2.822 M7.577 5.680 C 7.477 5.716,7.304 5.851,7.236 5.947 C 7.180 6.025,7.107 6.265,6.546 8.212 L 6.113 9.715 6.114 10.755 C 6.114 11.327,6.125 11.867,6.138 11.956 C 6.179 12.240,6.304 12.410,6.556 12.526 C 6.824 12.649,7.122 12.581,7.329 12.348 C 7.525 12.127,7.519 12.172,7.540 10.897 C 7.557 9.847,7.562 9.754,7.608 9.605 L 7.656 9.444 7.999 9.455 C 8.399 9.467,8.346 9.446,8.890 9.800 C 9.462 10.171,9.353 10.136,9.979 10.150 C 10.276 10.156,10.526 10.168,10.534 10.176 C 10.542 10.184,10.494 10.410,10.429 10.678 L 10.310 11.165 10.319 11.597 C 10.330 12.090,10.350 12.165,10.526 12.355 C 10.675 12.517,10.824 12.585,11.025 12.585 C 11.226 12.585,11.375 12.517,11.524 12.355 C 11.695 12.169,11.716 12.095,11.739 11.581 C 11.759 11.148,11.764 11.111,11.875 10.680 C 12.122 9.717,12.120 9.573,11.857 9.312 C 11.777 9.234,11.632 9.146,11.317 8.984 L 10.885 8.764 10.348 8.751 L 9.812 8.738 9.381 8.449 C 9.144 8.291,8.902 8.139,8.844 8.114 C 8.760 8.076,8.671 8.065,8.406 8.055 C 8.146 8.047,8.073 8.037,8.073 8.012 C 8.073 7.995,8.167 7.652,8.281 7.251 C 8.395 6.850,8.496 6.473,8.505 6.413 C 8.538 6.192,8.402 5.901,8.202 5.764 C 8.042 5.653,7.759 5.615,7.577 5.680 " fill="#1A1C1F" stroke="none" fill-rule="evenodd"></path></svg>