<svg width="32" height="32" viewBox="0 0 32 32" fill="none" xmlns="http://www.w3.org/2000/svg"><path d="M9.400 2.083 C 9.147 2.161,8.883 2.452,8.801 2.742 C 8.680 3.176,8.573 2.963,10.860 6.859 C 11.516 7.977,12.053 8.915,12.053 8.944 C 12.053 8.976,11.680 9.009,11.116 9.027 C 10.232 9.056,10.162 9.066,9.877 9.206 C 9.295 9.490,8.902 10.016,8.799 10.647 C 8.727 11.086,8.734 12.026,8.812 12.285 C 8.858 12.439,9.019 12.650,9.370 13.015 L 9.863 13.529 9.647 13.738 C 9.280 14.093,9.203 14.294,9.202 14.907 C 9.200 15.559,9.308 15.912,9.604 16.224 L 9.810 16.441 9.436 16.842 C 9.230 17.062,8.997 17.353,8.918 17.488 C 8.774 17.732,8.773 17.740,8.746 19.016 C 8.716 20.446,8.710 20.469,8.332 20.718 C 8.026 20.919,7.719 20.961,6.165 21.015 C 4.790 21.063,4.712 21.071,4.455 21.198 C 3.723 21.559,3.172 22.250,2.881 23.173 C 2.773 23.517,2.761 23.687,2.734 25.334 C 2.706 27.063,2.708 27.128,2.814 27.334 C 3.073 27.835,3.493 28.054,3.987 27.944 C 4.258 27.884,4.555 27.647,4.653 27.413 C 4.686 27.336,4.726 26.547,4.748 25.547 C 4.779 24.206,4.805 23.770,4.866 23.624 C 4.951 23.421,5.216 23.170,5.437 23.082 C 5.512 23.052,6.137 23.008,6.827 22.985 C 8.547 22.925,9.184 22.772,9.822 22.265 C 10.558 21.680,10.773 20.965,10.773 19.099 L 10.773 18.385 11.365 17.774 C 12.001 17.117,12.192 16.806,12.249 16.331 C 12.267 16.180,12.252 15.985,12.216 15.873 C 12.135 15.630,11.798 15.198,11.609 15.098 C 11.531 15.056,11.468 15.008,11.469 14.991 C 11.470 14.974,11.561 14.897,11.672 14.821 C 11.783 14.745,11.949 14.568,12.041 14.429 C 12.481 13.764,12.261 13.138,11.197 12.029 L 10.773 11.589 10.773 11.295 L 10.773 11.001 11.693 10.972 C 12.695 10.941,13.002 10.878,13.377 10.626 C 14.033 10.185,14.277 9.264,13.980 8.347 C 13.821 7.857,13.599 7.450,12.390 5.440 C 10.359 2.061,10.369 2.075,9.849 2.046 C 9.698 2.038,9.495 2.054,9.400 2.083 M18.420 3.022 C 18.328 3.035,18.196 3.106,18.127 3.180 L 18.000 3.315 18.000 5.215 L 18.000 7.116 18.181 7.238 C 18.389 7.378,18.645 7.396,18.808 7.282 C 18.963 7.173,19.040 6.818,19.040 6.216 L 19.040 5.707 19.373 5.706 C 19.837 5.706,20.348 5.615,20.594 5.490 C 21.007 5.279,21.274 4.698,21.209 4.149 C 21.143 3.596,20.698 3.135,20.170 3.073 C 19.800 3.030,18.612 2.996,18.420 3.022 M27.802 3.533 C 27.742 3.599,27.644 3.766,27.584 3.903 C 27.498 4.101,27.447 4.156,27.330 4.169 C 27.248 4.179,27.137 4.249,27.077 4.330 C 26.976 4.467,26.975 4.481,27.061 4.612 C 27.111 4.688,27.220 4.764,27.304 4.781 L 27.457 4.811 27.476 5.779 C 27.498 6.852,27.541 7.019,27.842 7.174 C 28.246 7.383,29.002 7.380,29.157 7.168 C 29.262 7.025,29.244 6.786,29.124 6.722 C 29.067 6.692,28.902 6.667,28.758 6.667 L 28.495 6.667 28.461 6.339 C 28.442 6.159,28.427 5.739,28.427 5.406 L 28.427 4.800 28.693 4.800 C 28.997 4.800,29.173 4.674,29.173 4.456 C 29.173 4.274,28.985 4.160,28.681 4.160 C 28.437 4.160,28.427 4.154,28.427 4.008 C 28.427 3.513,28.069 3.241,27.802 3.533 M20.080 3.912 C 20.192 4.064,20.230 4.403,20.159 4.617 C 20.084 4.843,19.784 5.010,19.450 5.012 C 19.064 5.014,19.040 4.975,19.040 4.339 L 19.040 3.776 19.524 3.795 C 19.919 3.810,20.022 3.831,20.080 3.912 M5.804 4.081 C 5.436 4.199,4.994 4.624,4.856 4.991 C 4.796 5.152,4.747 5.378,4.747 5.493 C 4.747 6.066,5.220 6.722,5.758 6.896 C 6.108 7.009,6.354 7.011,6.719 6.902 C 7.111 6.785,7.580 6.323,7.671 5.963 C 7.754 5.629,7.750 5.354,7.655 5.034 C 7.439 4.308,6.540 3.845,5.804 4.081 M22.071 4.215 C 21.839 4.338,21.689 4.533,21.600 4.832 C 21.545 5.015,21.549 5.100,21.621 5.350 C 21.728 5.717,21.906 5.867,22.455 6.054 C 23.012 6.244,23.150 6.391,22.942 6.578 C 22.825 6.685,22.403 6.696,21.947 6.604 C 21.651 6.545,21.632 6.548,21.538 6.664 C 21.233 7.040,21.697 7.317,22.646 7.323 C 23.079 7.326,23.157 7.311,23.374 7.183 C 23.940 6.852,24.053 6.134,23.611 5.668 C 23.497 5.547,23.320 5.454,23.017 5.354 C 22.550 5.201,22.400 5.103,22.400 4.954 C 22.400 4.781,22.593 4.731,23.104 4.771 C 23.637 4.813,23.733 4.776,23.733 4.529 C 23.733 4.347,23.573 4.184,23.350 4.139 C 23.260 4.121,22.980 4.108,22.727 4.109 C 22.378 4.111,22.219 4.136,22.071 4.215 M24.898 4.215 C 24.665 4.338,24.516 4.533,24.427 4.832 C 24.372 5.015,24.375 5.100,24.448 5.350 C 24.555 5.717,24.732 5.867,25.282 6.054 C 25.839 6.244,25.976 6.391,25.769 6.578 C 25.652 6.685,25.229 6.696,24.774 6.604 C 24.478 6.545,24.459 6.548,24.365 6.664 C 24.063 7.037,24.527 7.318,25.445 7.319 C 25.790 7.319,25.963 7.293,26.147 7.211 C 26.575 7.022,26.799 6.525,26.668 6.056 C 26.572 5.714,26.338 5.519,25.811 5.342 C 25.458 5.224,25.343 5.159,25.280 5.046 C 25.206 4.912,25.208 4.894,25.307 4.819 C 25.393 4.753,25.507 4.744,25.910 4.772 C 26.466 4.811,26.560 4.776,26.560 4.529 C 26.560 4.347,26.400 4.184,26.176 4.139 C 26.087 4.121,25.806 4.108,25.553 4.109 C 25.204 4.111,25.046 4.136,24.898 4.215 M16.640 11.146 C 16.220 11.301,15.660 11.701,15.434 12.008 C 15.036 12.550,15.025 12.631,14.291 19.947 L 13.753 25.307 13.866 26.427 C 14.129 29.016,14.215 29.475,14.488 29.714 C 14.836 30.019,15.341 30.053,15.729 29.796 C 16.195 29.488,16.208 29.327,15.950 27.055 L 15.779 25.551 15.971 23.535 C 16.077 22.427,16.342 19.717,16.561 17.514 C 16.781 15.311,16.960 13.470,16.960 13.424 C 16.960 13.275,17.191 13.064,17.388 13.033 C 17.528 13.011,17.609 13.030,17.708 13.110 C 17.834 13.213,17.839 13.240,17.826 13.736 C 17.818 14.022,17.681 15.566,17.521 17.168 C 17.361 18.769,17.180 20.640,17.119 21.323 L 17.007 22.567 17.117 22.793 C 17.374 23.325,18.073 23.513,18.569 23.184 C 18.861 22.991,18.975 22.684,19.067 21.840 C 19.170 20.895,19.215 20.728,19.389 20.649 C 19.573 20.565,19.708 20.571,19.903 20.672 L 20.068 20.757 20.033 21.325 C 19.924 23.071,19.925 23.339,20.043 23.529 C 20.366 24.053,21.006 24.187,21.495 23.832 C 21.769 23.634,21.850 23.442,21.944 22.776 C 22.031 22.156,22.075 22.057,22.301 21.979 C 22.440 21.930,22.506 21.937,22.662 22.013 L 22.853 22.107 22.853 23.102 C 22.853 24.029,22.861 24.108,22.965 24.249 C 23.223 24.598,23.699 24.766,24.077 24.641 C 24.394 24.536,24.588 24.328,24.803 23.860 C 24.914 23.619,25.053 23.396,25.112 23.364 C 25.264 23.283,25.450 23.293,25.588 23.390 C 25.735 23.492,25.740 23.700,25.628 24.989 C 25.525 26.190,25.426 28.746,25.471 29.058 C 25.518 29.381,25.605 29.547,25.836 29.749 C 26.278 30.138,27.049 29.998,27.312 29.483 C 27.428 29.255,27.447 29.034,27.576 26.347 C 27.609 25.657,27.658 24.889,27.684 24.640 C 27.804 23.496,27.705 22.889,27.308 22.335 C 26.830 21.667,26.113 21.333,25.158 21.333 L 24.789 21.333 24.253 20.825 C 23.467 20.077,23.373 20.031,22.573 20.008 L 21.918 19.989 21.728 19.703 C 21.311 19.073,20.606 18.662,19.806 18.580 C 19.618 18.561,19.453 18.528,19.440 18.506 C 19.427 18.485,19.514 17.510,19.634 16.340 C 19.755 15.156,19.855 13.894,19.859 13.493 C 19.867 12.777,19.865 12.770,19.689 12.411 C 19.440 11.905,19.041 11.513,18.524 11.266 C 18.131 11.079,18.072 11.067,17.520 11.053 C 17.038 11.041,16.881 11.057,16.640 11.146 " fill="#1A1C1F" stroke="none" fill-rule="evenodd"></path></svg>