<svg width="20" height="20" viewBox="0 0 20 20" fill="none" xmlns="http://www.w3.org/2000/svg"><path d="M5.433 2.031 C 5.119 2.095,4.822 2.361,4.723 2.667 C 4.654 2.881,4.651 3.179,4.715 3.363 C 4.742 3.439,5.230 4.275,5.799 5.222 C 6.368 6.169,6.833 6.953,6.833 6.966 C 6.833 6.979,6.626 6.999,6.373 7.011 C 5.812 7.036,5.571 7.103,5.229 7.329 C 4.803 7.611,4.531 7.951,4.346 8.433 L 4.251 8.683 4.240 10.658 L 4.230 12.633 3.934 12.633 C 3.554 12.633,3.170 12.687,2.942 12.773 C 2.524 12.929,2.160 13.318,1.964 13.817 C 1.795 14.246,1.768 14.476,1.745 15.700 C 1.716 17.217,1.755 17.470,2.055 17.733 C 2.266 17.918,2.447 17.983,2.750 17.981 C 2.959 17.980,3.047 17.964,3.160 17.905 C 3.378 17.791,3.555 17.614,3.657 17.406 L 3.749 17.218 3.767 16.030 C 3.786 14.754,3.783 14.777,3.964 14.686 C 4.013 14.661,4.228 14.634,4.467 14.624 C 4.939 14.603,5.204 14.535,5.467 14.366 C 5.789 14.160,6.031 13.803,6.168 13.333 C 6.238 13.092,6.241 13.016,6.258 11.045 L 6.275 9.008 7.046 8.992 C 7.720 8.978,7.841 8.967,8.010 8.906 C 8.464 8.741,8.749 8.505,8.911 8.156 C 9.040 7.879,9.078 7.659,9.057 7.303 C 9.023 6.731,8.963 6.608,7.700 4.500 C 6.943 3.237,6.433 2.425,6.324 2.307 C 6.223 2.199,5.877 2.041,5.700 2.023 C 5.617 2.014,5.498 2.018,5.433 2.031 M9.815 2.036 C 9.678 2.075,9.567 2.200,9.531 2.355 C 9.490 2.535,9.492 5.381,9.534 5.604 C 9.583 5.862,9.707 5.979,9.932 5.979 C 10.070 5.979,10.117 5.963,10.197 5.887 C 10.333 5.756,10.367 5.580,10.367 4.990 L 10.367 4.475 10.708 4.459 C 11.147 4.437,11.386 4.351,11.602 4.135 C 12.048 3.688,12.036 2.702,11.579 2.301 C 11.407 2.150,11.215 2.071,10.927 2.034 C 10.626 1.995,9.952 1.996,9.815 2.036 M17.006 2.508 C 16.969 2.568,16.916 2.697,16.887 2.796 C 16.823 3.013,16.782 3.067,16.681 3.067 C 16.639 3.067,16.562 3.102,16.512 3.146 C 16.377 3.262,16.383 3.442,16.527 3.571 C 16.586 3.624,16.656 3.667,16.682 3.667 C 16.752 3.667,16.764 3.793,16.774 4.651 C 16.783 5.400,16.785 5.422,16.868 5.584 C 16.986 5.813,17.155 5.922,17.462 5.969 C 17.733 6.010,17.975 5.988,18.094 5.911 C 18.210 5.837,18.273 5.663,18.230 5.539 C 18.188 5.418,18.064 5.367,17.813 5.367 C 17.666 5.367,17.629 5.355,17.597 5.295 C 17.573 5.250,17.552 4.936,17.541 4.449 L 17.524 3.674 17.782 3.661 C 18.005 3.650,18.049 3.637,18.104 3.570 C 18.193 3.461,18.214 3.348,18.168 3.237 C 18.116 3.111,18.008 3.067,17.748 3.067 L 17.533 3.067 17.533 2.815 C 17.533 2.593,17.524 2.554,17.452 2.482 C 17.389 2.419,17.334 2.400,17.221 2.400 C 17.089 2.400,17.065 2.412,17.006 2.508 M10.807 2.735 C 11.016 2.793,11.067 2.893,11.067 3.252 C 11.067 3.532,11.059 3.571,10.985 3.658 C 10.897 3.763,10.712 3.833,10.526 3.833 C 10.410 3.833,10.409 3.832,10.388 3.658 C 10.377 3.562,10.367 3.307,10.367 3.092 L 10.367 2.700 10.525 2.700 C 10.612 2.700,10.739 2.716,10.807 2.735 M12.900 2.998 C 12.604 3.060,12.378 3.219,12.269 3.445 C 12.215 3.556,12.200 3.652,12.200 3.878 C 12.200 4.415,12.355 4.608,12.967 4.834 C 13.302 4.957,13.367 5.008,13.367 5.150 C 13.367 5.388,13.122 5.448,12.623 5.335 C 12.259 5.252,12.191 5.267,12.115 5.448 C 12.058 5.585,12.092 5.725,12.202 5.805 C 12.406 5.956,13.165 6.034,13.490 5.939 C 13.954 5.803,14.203 5.274,14.051 4.748 C 13.971 4.472,13.795 4.307,13.446 4.184 C 12.982 4.019,12.904 3.978,12.882 3.888 C 12.817 3.629,13.113 3.529,13.581 3.651 C 13.755 3.696,13.784 3.696,13.853 3.651 C 13.896 3.623,13.948 3.541,13.970 3.468 C 14.004 3.355,14.001 3.324,13.952 3.248 C 13.879 3.137,13.677 3.047,13.400 3.002 C 13.160 2.963,13.073 2.963,12.900 2.998 M14.858 3.046 C 14.539 3.164,14.369 3.413,14.341 3.800 C 14.300 4.375,14.484 4.606,15.193 4.866 C 15.512 4.982,15.611 5.148,15.452 5.298 C 15.332 5.411,15.125 5.422,14.749 5.335 C 14.457 5.267,14.423 5.266,14.351 5.313 C 14.206 5.408,14.202 5.723,14.345 5.816 C 14.559 5.957,15.303 6.027,15.624 5.938 C 15.831 5.879,16.037 5.708,16.133 5.516 C 16.203 5.375,16.215 5.303,16.215 5.033 C 16.215 4.687,16.181 4.584,16.011 4.431 C 15.864 4.298,15.768 4.247,15.447 4.134 C 15.125 4.021,15.000 3.931,15.000 3.813 C 15.000 3.627,15.207 3.571,15.663 3.633 L 15.978 3.677 16.056 3.586 C 16.198 3.421,16.126 3.202,15.889 3.076 C 15.744 3.000,15.037 2.979,14.858 3.046 M2.530 4.031 C 2.233 4.090,1.912 4.378,1.814 4.676 C 1.733 4.919,1.762 5.279,1.878 5.477 C 2.053 5.777,2.426 6.000,2.750 6.000 C 3.263 6.000,3.733 5.530,3.733 5.017 C 3.733 4.717,3.652 4.514,3.451 4.314 C 3.221 4.083,2.846 3.968,2.530 4.031 M10.830 8.113 C 10.683 8.165,10.553 8.256,10.405 8.411 C 10.271 8.550,10.278 8.526,9.390 11.583 L 8.750 13.783 8.751 15.483 L 8.752 17.183 8.838 17.367 C 8.960 17.630,9.075 17.750,9.322 17.872 C 9.735 18.075,10.159 17.990,10.470 17.640 C 10.750 17.325,10.741 17.385,10.771 15.603 C 10.798 13.986,10.801 13.934,10.890 13.654 L 10.941 13.492 11.429 13.507 C 11.998 13.524,11.922 13.494,12.700 14.000 C 13.517 14.531,13.362 14.481,14.256 14.500 C 14.680 14.509,15.037 14.526,15.049 14.537 C 15.060 14.549,14.992 14.864,14.898 15.237 L 14.727 15.917 14.741 16.550 C 14.757 17.280,14.785 17.380,15.050 17.663 C 15.264 17.892,15.456 17.978,15.750 17.978 C 16.044 17.978,16.236 17.892,16.450 17.663 C 16.707 17.388,16.737 17.284,16.770 16.548 C 16.798 15.912,16.801 15.899,17.003 15.112 C 17.173 14.451,17.208 14.266,17.212 14.016 C 17.220 13.467,17.102 13.337,16.133 12.827 L 15.550 12.520 14.789 12.506 L 14.029 12.492 13.373 12.059 C 13.012 11.821,12.664 11.603,12.600 11.576 C 12.524 11.543,12.321 11.520,12.009 11.508 C 11.635 11.494,11.533 11.480,11.533 11.444 C 11.533 11.419,11.661 10.955,11.816 10.413 C 12.177 9.157,12.193 9.074,12.118 8.817 C 12.046 8.567,11.905 8.363,11.717 8.234 C 11.490 8.077,11.084 8.022,10.830 8.113 " fill="#1A1C1F" stroke="none" fill-rule="evenodd"></path></svg>