<svg width="14" height="14" viewBox="0 0 14 14" fill="none" xmlns="http://www.w3.org/2000/svg"><path d="M1.948 1.421 C 1.737 1.475,1.567 1.609,1.477 1.791 L 1.412 1.925 1.405 3.010 L 1.398 4.095 2.027 6.767 C 2.982 10.818,3.005 10.909,3.132 11.118 C 3.343 11.467,3.661 11.711,4.086 11.851 C 4.240 11.902,4.254 11.902,5.696 11.895 C 7.341 11.887,7.229 11.900,7.448 11.695 C 7.600 11.553,7.658 11.436,7.671 11.244 C 7.692 10.959,7.560 10.724,7.301 10.583 L 7.177 10.515 5.821 10.501 C 4.295 10.486,4.365 10.494,4.316 10.312 C 4.274 10.155,4.019 9.083,3.395 6.440 L 2.803 3.932 2.796 2.928 L 2.788 1.925 2.731 1.813 C 2.662 1.677,2.506 1.528,2.372 1.470 C 2.258 1.420,2.047 1.395,1.948 1.421 M5.059 1.424 C 4.836 1.462,4.513 1.672,4.388 1.861 C 4.286 2.015,4.221 2.205,4.206 2.395 C 4.168 2.902,4.568 3.393,5.095 3.483 C 5.635 3.575,6.186 3.168,6.283 2.605 C 6.374 2.073,5.977 1.525,5.427 1.425 C 5.273 1.397,5.219 1.397,5.059 1.424 M5.069 4.923 C 4.809 4.985,4.550 5.312,4.550 5.577 C 4.550 5.832,5.207 8.586,5.310 8.765 C 5.373 8.874,5.504 8.987,5.639 9.048 C 5.720 9.084,5.851 9.089,6.978 9.095 L 8.228 9.102 8.421 9.935 C 8.759 11.397,8.957 12.182,9.010 12.267 C 9.136 12.470,9.435 12.618,9.673 12.593 C 9.978 12.562,10.252 12.288,10.282 11.985 C 10.295 11.857,10.171 11.274,9.762 9.533 C 9.508 8.453,9.431 8.150,9.392 8.076 C 9.344 7.985,9.172 7.828,9.054 7.769 C 8.951 7.718,8.935 7.717,7.698 7.705 L 6.447 7.693 6.325 7.154 C 6.158 6.419,5.934 5.497,5.888 5.356 C 5.839 5.209,5.679 5.036,5.535 4.975 C 5.408 4.922,5.179 4.896,5.069 4.923 M9.707 4.921 C 9.526 4.942,9.433 4.987,9.306 5.114 C 9.167 5.253,9.113 5.389,9.113 5.600 C 9.113 5.879,9.249 6.101,9.502 6.234 C 9.599 6.286,9.624 6.287,10.399 6.296 L 11.196 6.305 11.204 6.740 C 11.211 7.128,11.217 7.187,11.263 7.285 C 11.344 7.462,11.502 7.598,11.694 7.656 C 11.970 7.740,12.203 7.677,12.402 7.464 C 12.592 7.260,12.587 7.291,12.588 6.288 C 12.588 5.463,12.585 5.396,12.544 5.320 C 12.461 5.166,12.369 5.071,12.228 4.996 L 12.087 4.921 10.973 4.912 C 10.360 4.907,9.790 4.911,9.707 4.921 " fill="#1A1C1F" stroke="none" fill-rule="evenodd"></path></svg>