<svg width="28" height="28" viewBox="0 0 28 28" fill="none" xmlns="http://www.w3.org/2000/svg"><path d="M19.180 1.774 C 17.633 1.803,17.649 1.801,17.075 2.106 C 16.731 2.290,16.242 2.798,16.060 3.162 C 15.987 3.309,15.879 3.575,15.820 3.753 L 15.714 4.076 15.739 7.953 C 15.763 11.722,15.766 11.839,15.861 12.137 C 16.106 12.908,16.713 13.522,17.547 13.842 L 17.897 13.977 21.747 13.977 C 25.513 13.977,25.600 13.975,25.755 13.883 C 26.248 13.593,26.379 12.970,26.031 12.573 C 25.737 12.239,25.999 12.261,21.887 12.224 C 19.334 12.201,18.123 12.174,18.005 12.137 C 17.794 12.072,17.609 11.862,17.560 11.630 C 17.540 11.535,17.523 9.808,17.523 7.793 C 17.523 3.719,17.502 3.999,17.841 3.701 C 17.998 3.563,18.006 3.562,18.714 3.531 C 19.107 3.514,20.575 3.500,21.976 3.500 C 23.377 3.500,24.793 3.486,25.122 3.469 C 25.817 3.434,25.949 3.376,26.122 3.035 C 26.330 2.623,26.211 2.166,25.830 1.908 L 25.643 1.782 23.123 1.765 C 21.737 1.755,19.963 1.760,19.180 1.774 M2.380 4.421 C 2.028 4.485,1.748 4.921,1.784 5.352 C 1.821 5.804,2.081 6.011,2.772 6.138 C 3.301 6.235,3.558 6.355,3.841 6.638 C 4.318 7.113,4.378 7.420,4.383 9.415 L 4.387 10.639 5.226 14.805 C 6.403 20.652,6.532 21.233,6.732 21.631 C 7.154 22.469,7.777 23.050,8.616 23.385 C 8.931 23.511,9.055 23.533,9.678 23.569 C 10.066 23.592,11.463 23.611,12.782 23.612 L 15.180 23.613 15.377 23.452 C 15.617 23.255,15.727 23.038,15.727 22.758 C 15.727 22.399,15.586 22.154,15.283 21.987 C 15.159 21.919,14.830 21.907,12.367 21.883 C 9.295 21.853,9.340 21.858,8.883 21.544 C 8.758 21.458,8.567 21.274,8.458 21.133 C 8.265 20.886,8.252 20.848,8.047 19.901 C 7.931 19.363,7.457 17.044,6.995 14.747 L 6.155 10.570 6.116 8.867 C 6.079 7.194,6.076 7.157,5.953 6.790 C 5.527 5.518,4.408 4.580,3.143 4.435 C 2.719 4.386,2.583 4.384,2.380 4.421 M10.103 5.106 C 9.157 5.326,8.415 5.987,8.036 6.948 C 7.926 7.226,7.914 7.318,7.914 7.887 C 7.913 8.488,7.920 8.534,8.063 8.890 C 8.340 9.581,8.846 10.125,9.497 10.435 C 10.121 10.732,10.594 10.795,11.254 10.667 C 11.901 10.542,12.465 10.205,12.881 9.693 C 13.330 9.142,13.533 8.573,13.533 7.872 C 13.533 7.141,13.304 6.527,12.840 6.013 C 12.515 5.655,11.987 5.304,11.585 5.180 C 11.185 5.056,10.471 5.021,10.103 5.106 M11.177 6.900 C 11.394 6.999,11.648 7.270,11.748 7.510 C 11.794 7.621,11.810 7.763,11.794 7.937 C 11.738 8.548,11.306 8.961,10.723 8.959 C 10.401 8.958,10.140 8.835,9.925 8.584 C 9.610 8.216,9.567 7.640,9.827 7.270 C 10.112 6.865,10.728 6.696,11.177 6.900 M9.772 12.362 C 9.229 12.517,8.854 12.815,8.793 13.141 C 8.710 13.581,8.883 13.958,9.254 14.147 C 9.466 14.256,9.540 14.249,10.173 14.068 C 10.646 13.932,11.198 14.079,11.405 14.396 C 11.517 14.566,11.649 15.133,12.133 17.522 C 12.494 19.308,12.575 19.643,12.675 19.773 C 12.917 20.091,12.815 20.080,15.691 20.113 C 17.121 20.129,18.298 20.152,18.307 20.163 C 18.315 20.174,18.434 20.771,18.570 21.490 C 19.422 25.974,19.413 25.942,19.854 26.157 C 20.164 26.309,20.376 26.290,20.690 26.081 C 21.196 25.746,21.196 25.746,20.538 22.423 C 20.099 20.209,19.835 18.994,19.760 18.849 C 19.691 18.713,19.394 18.437,19.307 18.427 C 19.276 18.423,18.096 18.407,16.687 18.392 L 14.123 18.363 13.852 17.033 C 13.324 14.439,13.208 13.948,13.051 13.651 C 12.713 13.012,12.021 12.493,11.305 12.342 C 10.872 12.250,10.128 12.260,9.772 12.362 " fill="#1A1C1F" stroke="none" fill-rule="evenodd"></path></svg>