<svg width="14" height="14" viewBox="0 0 14 14" fill="none" xmlns="http://www.w3.org/2000/svg"><path d="M8.983 2.216 C 8.563 2.228,8.490 2.236,8.383 2.281 C 8.038 2.426,7.810 2.656,7.674 2.998 C 7.619 3.138,7.619 3.145,7.611 4.200 C 7.606 4.916,7.613 5.311,7.630 5.413 C 7.710 5.875,8.129 6.297,8.581 6.371 C 8.655 6.383,9.306 6.393,10.028 6.393 C 11.305 6.393,11.344 6.392,11.435 6.346 C 11.555 6.285,11.708 6.131,11.750 6.030 C 11.769 5.987,11.783 5.881,11.783 5.795 C 11.783 5.600,11.724 5.468,11.587 5.355 C 11.395 5.198,11.449 5.203,10.069 5.203 L 8.820 5.203 8.820 4.306 L 8.820 3.409 10.087 3.402 L 11.353 3.395 11.469 3.335 C 11.612 3.262,11.746 3.080,11.785 2.907 C 11.837 2.676,11.704 2.410,11.472 2.278 C 11.375 2.222,11.374 2.222,10.418 2.212 C 9.892 2.207,9.246 2.209,8.983 2.216 M2.575 2.250 C 2.461 2.300,2.307 2.451,2.254 2.567 C 2.207 2.667,2.205 2.716,2.198 3.583 L 2.190 4.495 2.683 6.582 C 3.496 10.017,3.560 10.275,3.645 10.448 C 3.791 10.746,4.109 11.024,4.429 11.134 C 4.585 11.188,4.588 11.188,5.868 11.188 C 7.324 11.188,7.213 11.203,7.422 10.988 C 7.556 10.851,7.591 10.753,7.579 10.558 C 7.568 10.380,7.479 10.221,7.335 10.119 C 7.199 10.024,7.055 10.012,5.938 10.010 C 4.956 10.008,4.796 9.997,4.745 9.928 C 4.712 9.883,4.646 9.614,3.940 6.650 L 3.426 4.492 3.409 3.579 L 3.391 2.665 3.328 2.537 C 3.226 2.327,3.034 2.216,2.780 2.218 C 2.707 2.218,2.615 2.233,2.575 2.250 M5.215 2.257 C 4.911 2.366,4.697 2.611,4.620 2.936 C 4.547 3.248,4.712 3.639,4.999 3.834 C 5.458 4.145,6.081 3.968,6.319 3.458 C 6.373 3.342,6.381 3.295,6.381 3.092 C 6.382 2.883,6.375 2.844,6.316 2.725 C 6.230 2.549,6.082 2.400,5.900 2.307 C 5.771 2.242,5.724 2.230,5.542 2.224 C 5.383 2.217,5.303 2.226,5.215 2.257 M5.314 5.235 C 5.098 5.316,4.938 5.508,4.909 5.722 C 4.894 5.828,5.013 6.394,5.310 7.642 C 5.512 8.491,5.513 8.494,5.622 8.606 C 5.813 8.803,5.771 8.796,6.912 8.799 C 7.467 8.801,7.952 8.809,7.990 8.817 C 8.058 8.832,8.058 8.832,8.182 9.357 C 8.569 11.001,8.682 11.432,8.758 11.544 C 8.838 11.663,9.018 11.773,9.173 11.798 C 9.392 11.834,9.677 11.659,9.776 11.430 C 9.828 11.309,9.828 11.305,9.792 11.073 C 9.756 10.843,9.587 10.080,9.308 8.890 C 9.093 7.975,9.086 7.950,8.978 7.828 C 8.797 7.622,8.840 7.629,7.657 7.614 C 7.084 7.606,6.595 7.593,6.570 7.584 C 6.532 7.570,6.493 7.429,6.321 6.695 C 6.095 5.727,6.045 5.550,5.968 5.437 C 5.849 5.263,5.515 5.160,5.314 5.235 " fill="#1A1C1F" stroke="none" fill-rule="evenodd"></path></svg>