<svg width="16" height="16" viewBox="0 0 16 16" fill="none" xmlns="http://www.w3.org/2000/svg"><path d="M2.227 1.624 C 1.992 1.685,1.782 1.859,1.667 2.089 L 1.600 2.224 1.600 3.467 L 1.600 4.710 2.148 7.028 C 3.286 11.839,3.434 12.445,3.517 12.607 C 3.726 13.018,4.145 13.364,4.627 13.524 L 4.813 13.587 6.493 13.587 L 8.173 13.587 8.306 13.521 C 8.829 13.261,8.944 12.586,8.525 12.225 C 8.271 12.006,8.388 12.020,6.653 12.000 C 5.543 11.987,5.089 11.973,5.047 11.950 C 5.009 11.930,4.973 11.869,4.948 11.779 C 4.891 11.584,4.502 9.968,4.027 7.960 C 3.805 7.021,3.531 5.875,3.419 5.413 L 3.216 4.573 3.200 3.387 C 3.183 2.049,3.191 2.102,2.971 1.867 C 2.905 1.797,2.795 1.715,2.726 1.685 C 2.581 1.623,2.343 1.594,2.227 1.624 M5.760 1.635 C 5.421 1.712,5.092 1.967,4.936 2.274 C 4.573 2.991,5.019 3.838,5.834 3.978 C 6.556 4.102,7.250 3.461,7.193 2.724 C 7.167 2.378,7.000 2.071,6.727 1.863 C 6.442 1.646,6.083 1.561,5.760 1.635 M10.333 1.626 C 9.985 1.649,9.925 1.663,9.706 1.773 C 9.337 1.960,9.048 2.280,8.901 2.667 L 8.814 2.893 8.814 4.400 L 8.814 5.907 8.901 6.133 C 9.050 6.523,9.353 6.857,9.721 7.037 C 10.030 7.187,10.020 7.187,11.987 7.187 C 14.033 7.187,13.887 7.201,14.132 6.972 C 14.312 6.803,14.384 6.647,14.384 6.427 C 14.383 6.086,14.228 5.823,13.943 5.678 C 13.828 5.619,13.816 5.619,12.127 5.606 L 10.427 5.592 10.427 4.396 L 10.427 3.200 12.110 3.200 L 13.794 3.200 13.915 3.140 C 13.982 3.107,14.094 3.023,14.164 2.953 C 14.385 2.733,14.453 2.383,14.332 2.093 C 14.274 1.956,14.090 1.766,13.942 1.691 L 13.814 1.626 12.234 1.615 C 11.365 1.609,10.509 1.614,10.333 1.626 M5.771 5.637 C 5.494 5.726,5.283 5.958,5.224 6.237 C 5.184 6.428,5.213 6.593,5.482 7.743 C 5.906 9.556,5.998 9.908,6.084 10.038 C 6.177 10.179,6.335 10.311,6.459 10.353 C 6.516 10.372,7.039 10.388,7.964 10.398 C 8.744 10.406,9.389 10.420,9.397 10.428 C 9.405 10.436,9.465 10.676,9.531 10.961 C 9.689 11.646,10.142 13.509,10.208 13.749 C 10.277 13.995,10.322 14.080,10.444 14.187 C 10.607 14.330,10.759 14.385,10.987 14.386 C 11.159 14.387,11.206 14.376,11.329 14.308 C 11.624 14.144,11.783 13.868,11.747 13.578 C 11.701 13.206,11.044 10.304,10.821 9.494 C 10.744 9.213,10.727 9.178,10.615 9.066 C 10.548 8.999,10.436 8.917,10.367 8.883 C 10.242 8.823,10.232 8.822,8.800 8.807 C 7.673 8.795,7.360 8.784,7.360 8.758 C 7.360 8.715,6.845 6.512,6.769 6.230 C 6.719 6.045,6.692 5.993,6.581 5.876 C 6.507 5.799,6.396 5.716,6.325 5.686 C 6.157 5.614,5.909 5.592,5.771 5.637 " fill="#1A1C1F" stroke="none" fill-rule="evenodd"></path></svg>