<svg width="28" height="28" viewBox="0 0 28 28" fill="none" xmlns="http://www.w3.org/2000/svg"><path d="M2.271 3.145 C 2.012 3.242,1.877 3.389,1.787 3.674 C 1.721 3.885,1.717 3.957,1.765 4.134 C 1.883 4.576,2.071 4.711,2.728 4.826 C 3.430 4.948,3.825 5.215,4.143 5.783 L 4.315 6.090 4.331 7.723 L 4.347 9.357 5.023 12.693 C 6.293 18.961,6.489 19.870,6.645 20.222 C 7.006 21.040,7.792 21.773,8.657 22.099 C 9.108 22.268,9.796 22.304,12.672 22.305 C 15.002 22.307,15.007 22.306,15.214 22.202 C 15.473 22.071,15.670 21.793,15.709 21.505 C 15.746 21.231,15.606 20.915,15.367 20.733 L 15.203 20.608 12.350 20.578 C 9.576 20.549,9.490 20.545,9.240 20.447 C 8.838 20.290,8.427 19.926,8.240 19.562 C 8.197 19.477,7.707 17.146,7.153 14.382 L 6.145 9.357 6.112 7.700 C 6.082 6.236,6.067 6.002,5.982 5.684 C 5.656 4.474,4.807 3.590,3.617 3.223 C 3.193 3.092,2.516 3.053,2.271 3.145 M10.128 3.783 C 9.348 3.922,8.477 4.601,8.123 5.346 C 7.914 5.786,7.870 6.001,7.871 6.580 C 7.871 7.037,7.889 7.168,7.992 7.458 C 8.598 9.172,10.528 9.918,12.087 9.041 C 12.407 8.861,12.961 8.311,13.128 8.009 C 13.403 7.509,13.501 7.153,13.506 6.627 C 13.509 6.205,13.491 6.079,13.375 5.726 C 13.087 4.845,12.429 4.161,11.588 3.870 C 11.269 3.759,10.516 3.714,10.128 3.783 M11.285 5.659 C 11.596 5.865,11.732 6.113,11.753 6.510 C 11.767 6.798,11.753 6.878,11.647 7.085 C 11.508 7.361,11.288 7.527,10.953 7.610 C 10.485 7.726,10.078 7.566,9.792 7.153 C 9.652 6.952,9.637 6.897,9.637 6.603 C 9.637 6.326,9.658 6.238,9.780 6.020 C 9.895 5.813,9.972 5.738,10.176 5.632 C 10.398 5.517,10.472 5.502,10.761 5.516 C 11.028 5.528,11.129 5.556,11.285 5.659 M9.682 11.061 C 9.328 11.173,8.926 11.453,8.813 11.666 C 8.584 12.097,8.863 12.743,9.340 12.887 C 9.484 12.931,9.565 12.921,9.854 12.830 C 10.082 12.758,10.315 12.720,10.550 12.719 C 10.860 12.717,10.927 12.733,11.098 12.845 C 11.474 13.094,11.483 13.121,11.947 15.445 C 12.392 17.678,12.517 18.227,12.627 18.440 C 12.664 18.511,12.783 18.622,12.892 18.685 L 13.090 18.801 15.664 18.815 C 17.080 18.823,18.250 18.841,18.264 18.855 C 18.278 18.869,18.426 19.594,18.594 20.465 C 19.251 23.891,19.361 24.408,19.463 24.551 C 19.584 24.721,19.999 24.966,20.166 24.966 C 20.598 24.968,21.047 24.522,21.047 24.090 C 21.047 23.770,19.965 18.298,19.790 17.731 C 19.690 17.408,19.574 17.263,19.343 17.170 C 19.242 17.129,18.496 17.107,16.648 17.091 L 14.092 17.068 14.069 16.969 C 14.056 16.915,13.888 16.082,13.695 15.120 C 13.159 12.444,13.100 12.266,12.572 11.737 C 12.242 11.407,11.771 11.141,11.335 11.038 C 10.899 10.936,10.040 10.948,9.682 11.061 M19.214 12.736 C 18.912 12.759,18.826 12.785,18.689 12.894 C 18.503 13.043,18.340 13.332,18.340 13.514 C 18.340 13.895,18.620 14.271,18.978 14.370 C 19.094 14.402,20.088 14.420,21.824 14.420 L 24.491 14.420 24.509 16.718 C 24.529 19.246,24.526 19.223,24.819 19.470 C 25.251 19.833,25.911 19.731,26.168 19.259 C 26.243 19.123,26.251 18.870,26.264 16.263 C 26.271 14.698,26.266 13.370,26.251 13.313 C 26.216 13.172,25.966 12.894,25.788 12.796 C 25.656 12.724,25.371 12.716,22.610 12.712 C 20.942 12.710,19.414 12.720,19.214 12.736 " fill="#1A1C1F" stroke="none" fill-rule="evenodd"></path></svg>