<svg width="32" height="32" viewBox="0 0 32 32" fill="none" xmlns="http://www.w3.org/2000/svg"><path d="M21.893 2.027 C 20.156 2.061,20.167 2.059,19.519 2.405 C 19.345 2.498,19.054 2.729,18.864 2.926 C 18.499 3.304,18.277 3.690,18.080 4.289 L 17.959 4.658 17.986 9.089 C 18.013 13.491,18.013 13.522,18.131 13.867 C 18.364 14.550,18.818 15.129,19.430 15.526 C 19.821 15.779,20.130 15.882,20.698 15.948 C 21.249 16.011,27.757 16.013,28.734 15.950 C 29.520 15.899,29.619 15.861,29.820 15.536 C 30.010 15.230,30.001 14.703,29.801 14.441 C 29.721 14.336,29.567 14.195,29.458 14.128 L 29.261 14.006 25.017 13.971 C 20.269 13.931,20.464 13.948,20.193 13.561 L 20.035 13.336 20.031 9.028 C 20.026 4.235,20.001 4.571,20.389 4.230 L 20.571 4.071 21.467 4.035 C 21.960 4.016,23.686 3.999,25.302 3.997 C 28.632 3.993,29.377 3.960,29.592 3.804 C 29.836 3.625,29.983 3.273,29.960 2.919 C 29.937 2.568,29.832 2.394,29.515 2.178 L 29.307 2.037 26.400 2.016 C 24.801 2.005,22.773 2.010,21.893 2.027 M2.727 5.064 C 2.464 5.130,2.283 5.281,2.147 5.548 C 1.951 5.930,2.005 6.365,2.286 6.685 C 2.429 6.848,2.616 6.919,3.137 7.009 C 3.731 7.111,4.086 7.280,4.405 7.614 C 4.945 8.177,5.005 8.488,5.010 10.747 L 5.013 12.187 5.975 16.944 C 7.349 23.739,7.466 24.269,7.704 24.749 C 8.207 25.764,9.145 26.553,10.213 26.861 C 10.498 26.943,10.910 26.955,13.934 26.974 L 17.335 26.994 17.543 26.829 C 18.065 26.416,18.117 25.687,17.656 25.253 C 17.499 25.105,17.448 25.091,16.970 25.059 C 16.686 25.040,15.213 25.022,13.698 25.019 C 11.042 25.014,10.932 25.009,10.653 24.902 C 10.276 24.758,9.794 24.378,9.600 24.071 C 9.388 23.736,9.283 23.270,8.076 17.264 L 7.034 12.080 6.990 10.133 C 6.947 8.221,6.944 8.179,6.803 7.760 C 6.375 6.480,5.313 5.469,4.064 5.151 C 3.675 5.052,2.959 5.005,2.727 5.064 M11.552 5.844 C 10.610 6.055,9.701 6.788,9.297 7.662 C 8.870 8.585,8.950 9.876,9.484 10.697 C 10.251 11.875,11.522 12.446,12.827 12.198 C 13.353 12.098,13.740 11.929,14.171 11.609 C 14.992 11.000,15.468 10.048,15.466 9.015 C 15.464 8.084,15.190 7.405,14.560 6.769 C 13.916 6.119,13.282 5.829,12.410 5.786 C 12.080 5.769,11.800 5.788,11.552 5.844 M12.708 7.859 C 13.300 8.107,13.616 8.778,13.431 9.394 C 13.349 9.670,13.043 10.018,12.776 10.139 C 12.346 10.335,11.736 10.239,11.424 9.927 C 10.965 9.468,10.908 8.741,11.290 8.227 C 11.567 7.854,12.265 7.673,12.708 7.859 M11.253 14.104 C 10.379 14.350,9.993 14.749,10.037 15.362 C 10.064 15.740,10.247 16.006,10.594 16.175 C 10.831 16.290,10.832 16.290,11.189 16.191 C 12.030 15.958,12.381 15.963,12.785 16.211 C 13.124 16.419,13.179 16.611,13.811 19.787 C 14.293 22.208,14.360 22.480,14.525 22.660 C 14.788 22.949,14.782 22.949,17.958 22.985 C 19.578 23.004,20.912 23.030,20.921 23.043 C 20.931 23.056,21.067 23.739,21.223 24.560 C 21.667 26.901,22.065 28.873,22.164 29.225 C 22.427 30.164,23.580 30.280,24.001 29.410 C 24.097 29.213,24.114 29.111,24.087 28.889 C 24.020 28.326,23.048 23.452,22.737 22.116 C 22.599 21.524,22.454 21.267,22.166 21.106 C 22.085 21.061,21.226 21.035,19.097 21.015 L 16.141 20.987 15.831 19.467 C 15.228 16.502,15.095 15.940,14.915 15.601 C 14.382 14.594,13.327 14.020,12.031 14.031 C 11.735 14.034,11.385 14.067,11.253 14.104 " fill="#1A1C1F" stroke="none" fill-rule="evenodd"></path></svg>