<svg width="14" height="14" viewBox="0 0 14 14" fill="none" xmlns="http://www.w3.org/2000/svg"><path d="M2.559 2.261 C 2.406 2.339,2.316 2.422,2.260 2.537 C 2.205 2.647,2.205 2.656,2.198 3.582 L 2.191 4.515 2.718 6.743 C 3.559 10.298,3.567 10.328,3.701 10.551 C 3.857 10.809,4.138 11.034,4.429 11.134 C 4.585 11.188,4.589 11.188,5.868 11.188 C 7.144 11.188,7.152 11.188,7.247 11.137 C 7.351 11.082,7.468 10.961,7.526 10.848 C 7.628 10.651,7.581 10.369,7.418 10.200 C 7.246 10.022,7.294 10.028,5.977 10.015 L 4.802 10.004 4.759 9.932 C 4.708 9.849,4.518 9.086,3.881 6.405 L 3.421 4.468 3.407 3.570 C 3.391 2.579,3.389 2.566,3.236 2.407 C 3.061 2.224,2.759 2.159,2.559 2.261 M5.223 2.248 C 4.897 2.369,4.687 2.619,4.617 2.971 C 4.557 3.270,4.703 3.619,4.971 3.816 C 5.470 4.182,6.167 3.948,6.350 3.352 C 6.480 2.930,6.285 2.491,5.884 2.303 C 5.752 2.241,5.696 2.229,5.518 2.223 C 5.382 2.219,5.278 2.227,5.223 2.248 M5.309 5.231 C 5.172 5.269,4.965 5.485,4.924 5.631 C 4.897 5.728,4.898 5.777,4.932 5.981 C 5.004 6.421,5.475 8.365,5.541 8.491 C 5.559 8.526,5.608 8.589,5.651 8.632 C 5.806 8.786,5.782 8.783,6.957 8.796 C 7.543 8.803,8.031 8.816,8.040 8.826 C 8.050 8.835,8.176 9.339,8.320 9.946 C 8.627 11.241,8.689 11.472,8.746 11.550 C 8.814 11.643,8.997 11.754,9.131 11.785 C 9.407 11.846,9.707 11.660,9.789 11.376 C 9.827 11.247,9.826 11.234,9.768 10.944 C 9.702 10.615,9.352 9.087,9.181 8.379 C 9.075 7.944,9.067 7.922,8.976 7.823 C 8.791 7.622,8.838 7.630,7.658 7.614 C 7.084 7.606,6.594 7.592,6.568 7.583 C 6.529 7.568,6.505 7.492,6.420 7.125 C 6.242 6.352,6.067 5.637,6.038 5.566 C 5.937 5.315,5.586 5.154,5.309 5.231 M9.271 5.223 C 9.023 5.269,8.797 5.543,8.797 5.800 C 8.797 5.937,8.883 6.125,8.993 6.226 C 9.179 6.397,9.160 6.393,9.913 6.393 L 10.589 6.393 10.597 6.772 C 10.607 7.196,10.624 7.257,10.773 7.406 C 11.023 7.655,11.399 7.651,11.629 7.396 C 11.674 7.346,11.733 7.262,11.760 7.209 C 11.808 7.116,11.809 7.087,11.802 6.386 C 11.795 5.688,11.793 5.654,11.744 5.562 C 11.665 5.415,11.582 5.329,11.469 5.274 C 11.370 5.226,11.330 5.224,10.367 5.215 C 9.818 5.210,9.325 5.213,9.271 5.223 " fill="#1A1C1F" stroke="none" fill-rule="evenodd"></path></svg>