<svg width="16" height="16" viewBox="0 0 16 16" fill="none" xmlns="http://www.w3.org/2000/svg"><path d="M2.227 1.623 C 1.985 1.686,1.770 1.861,1.671 2.076 C 1.614 2.197,1.613 2.226,1.613 3.493 L 1.613 4.787 2.511 8.580 C 3.500 12.758,3.449 12.580,3.747 12.941 C 3.964 13.204,4.251 13.395,4.640 13.535 L 4.826 13.602 6.500 13.594 C 8.380 13.586,8.261 13.598,8.497 13.380 C 8.677 13.214,8.752 13.069,8.767 12.855 C 8.791 12.523,8.642 12.257,8.343 12.094 L 8.200 12.016 6.667 11.999 C 5.638 11.987,5.110 11.972,5.062 11.952 C 4.944 11.904,5.082 12.436,3.891 7.440 L 3.220 4.627 3.203 3.400 L 3.187 2.173 3.112 2.048 C 3.019 1.893,2.855 1.743,2.708 1.678 C 2.578 1.620,2.342 1.593,2.227 1.623 M5.776 1.628 C 5.369 1.696,4.984 2.049,4.852 2.476 C 4.648 3.137,5.114 3.859,5.823 3.980 C 6.441 4.086,7.070 3.622,7.180 2.977 C 7.285 2.369,6.831 1.743,6.202 1.629 C 6.025 1.597,5.965 1.597,5.776 1.628 M5.759 5.635 C 5.446 5.752,5.200 6.072,5.200 6.363 C 5.200 6.522,5.527 7.999,5.842 9.266 C 6.013 9.951,6.065 10.074,6.237 10.211 C 6.467 10.393,6.398 10.386,7.974 10.395 L 9.401 10.403 9.609 11.301 C 10.063 13.262,10.238 13.936,10.322 14.052 C 10.471 14.258,10.744 14.400,10.991 14.400 C 11.241 14.400,11.531 14.217,11.662 13.977 C 11.786 13.749,11.783 13.666,11.615 12.907 C 11.219 11.115,10.796 9.347,10.737 9.234 C 10.680 9.126,10.484 8.948,10.347 8.879 C 10.228 8.819,10.215 8.818,8.799 8.806 L 7.371 8.793 7.217 8.123 C 6.949 6.960,6.749 6.160,6.698 6.045 C 6.639 5.912,6.463 5.746,6.309 5.678 C 6.158 5.612,5.879 5.589,5.759 5.635 M11.093 5.623 C 10.819 5.658,10.584 5.829,10.471 6.076 C 10.393 6.247,10.392 6.552,10.470 6.720 C 10.539 6.869,10.708 7.045,10.859 7.125 C 10.970 7.183,10.999 7.185,11.884 7.195 L 12.794 7.205 12.805 7.703 C 12.814 8.134,12.823 8.216,12.871 8.321 C 13.044 8.704,13.453 8.876,13.859 8.737 C 14.033 8.678,14.240 8.495,14.324 8.327 C 14.387 8.200,14.387 8.199,14.387 7.187 C 14.387 6.244,14.383 6.167,14.336 6.080 C 14.241 5.903,14.135 5.795,13.973 5.709 L 13.811 5.622 12.525 5.613 C 11.818 5.608,11.174 5.612,11.093 5.623 " fill="#1A1C1F" stroke="none" fill-rule="evenodd"></path></svg>