<svg width="14" height="14" viewBox="0 0 14 14" fill="none" xmlns="http://www.w3.org/2000/svg"><path d="M1.960 1.422 C 1.754 1.464,1.551 1.629,1.455 1.832 L 1.400 1.948 1.400 3.034 L 1.400 4.120 1.938 6.394 C 3.071 11.185,3.019 10.990,3.256 11.292 C 3.447 11.535,3.811 11.776,4.107 11.856 C 4.181 11.875,4.604 11.887,5.540 11.894 C 6.894 11.904,7.161 11.892,7.305 11.818 C 7.420 11.758,7.560 11.601,7.625 11.461 C 7.779 11.124,7.633 10.750,7.275 10.568 C 7.177 10.517,7.153 10.516,5.821 10.500 C 4.852 10.489,4.453 10.476,4.416 10.456 C 4.383 10.439,4.352 10.385,4.329 10.307 C 4.268 10.096,3.942 8.749,3.371 6.347 L 2.818 4.025 2.801 2.975 C 2.782 1.795,2.788 1.835,2.602 1.636 C 2.441 1.464,2.181 1.377,1.960 1.422 M5.040 1.432 C 4.850 1.473,4.701 1.554,4.540 1.706 C 4.280 1.948,4.164 2.272,4.219 2.595 C 4.299 3.061,4.639 3.401,5.105 3.481 C 5.708 3.584,6.299 3.074,6.299 2.450 C 6.299 1.965,5.921 1.513,5.439 1.423 C 5.284 1.394,5.204 1.396,5.040 1.432 M9.030 1.420 C 8.764 1.435,8.723 1.443,8.565 1.517 C 8.177 1.697,7.903 1.994,7.767 2.380 C 7.714 2.531,7.713 2.538,7.712 3.827 C 7.712 5.026,7.715 5.132,7.755 5.262 C 7.888 5.689,8.215 6.051,8.610 6.207 C 8.827 6.292,9.116 6.305,10.635 6.295 C 12.257 6.285,12.156 6.297,12.365 6.101 C 12.524 5.952,12.584 5.822,12.584 5.625 C 12.584 5.324,12.451 5.096,12.201 4.969 C 12.101 4.918,12.086 4.917,10.612 4.905 L 9.123 4.893 9.123 3.847 L 9.123 2.800 10.594 2.800 C 12.052 2.800,12.066 2.800,12.163 2.750 C 12.388 2.635,12.499 2.504,12.566 2.274 C 12.609 2.127,12.600 1.975,12.540 1.831 C 12.490 1.712,12.329 1.546,12.200 1.480 L 12.091 1.425 10.706 1.414 C 9.945 1.409,9.190 1.411,9.030 1.420 M5.048 4.932 C 4.817 5.007,4.618 5.228,4.568 5.466 C 4.543 5.588,4.547 5.629,4.617 5.955 C 4.896 7.257,5.237 8.641,5.309 8.765 C 5.374 8.875,5.470 8.963,5.609 9.037 C 5.704 9.088,5.722 9.088,6.957 9.100 C 7.646 9.106,8.216 9.118,8.224 9.126 C 8.232 9.134,8.332 9.538,8.446 10.025 C 8.835 11.687,8.942 12.122,8.989 12.221 C 9.076 12.406,9.314 12.563,9.552 12.591 C 9.813 12.622,10.084 12.469,10.215 12.218 C 10.303 12.049,10.297 11.872,10.188 11.375 C 10.023 10.629,9.702 9.252,9.554 8.662 C 9.390 8.003,9.368 7.959,9.141 7.813 L 9.020 7.735 8.622 7.720 C 8.404 7.711,7.826 7.704,7.338 7.702 L 6.451 7.700 6.408 7.508 C 6.305 7.044,5.974 5.641,5.927 5.465 C 5.882 5.300,5.857 5.252,5.761 5.147 C 5.693 5.073,5.603 5.004,5.536 4.975 C 5.387 4.911,5.172 4.892,5.048 4.932 " fill="#1A1C1F" stroke="none" fill-rule="evenodd"></path></svg>