<svg width="20" height="20" viewBox="0 0 20 20" fill="none" xmlns="http://www.w3.org/2000/svg"><path d="M2.783 2.029 C 2.483 2.108,2.236 2.302,2.110 2.560 L 2.017 2.750 2.007 4.300 L 1.997 5.850 2.900 9.683 C 4.267 15.484,4.293 15.585,4.474 15.883 C 4.776 16.382,5.230 16.730,5.837 16.930 C 6.055 17.002,6.079 17.002,8.137 16.993 L 10.217 16.983 10.372 16.907 C 10.564 16.812,10.816 16.547,10.905 16.346 C 11.098 15.911,10.887 15.367,10.429 15.118 L 10.251 15.021 8.334 14.999 C 7.056 14.984,6.387 14.965,6.327 14.940 C 6.179 14.879,6.334 15.474,4.927 9.567 L 4.026 5.783 4.011 4.283 L 3.995 2.783 3.914 2.612 C 3.818 2.412,3.588 2.187,3.387 2.098 C 3.222 2.025,2.927 1.992,2.783 2.029 M7.198 2.045 C 6.666 2.160,6.230 2.564,6.065 3.095 C 5.907 3.607,6.052 4.139,6.462 4.549 C 7.066 5.153,7.965 5.141,8.561 4.519 C 8.797 4.274,8.923 4.031,8.977 3.715 C 9.104 2.974,8.548 2.200,7.773 2.037 C 7.558 1.992,7.439 1.994,7.198 2.045 M12.880 2.031 C 12.509 2.053,12.455 2.065,12.219 2.177 C 11.929 2.314,11.859 2.364,11.603 2.610 C 11.365 2.840,11.196 3.104,11.098 3.404 L 11.017 3.650 11.017 5.500 L 11.017 7.350 11.098 7.596 C 11.196 7.893,11.366 8.165,11.606 8.405 C 11.953 8.752,12.284 8.915,12.749 8.969 C 12.896 8.986,13.958 9.000,15.109 9.000 C 17.398 9.000,17.278 9.010,17.586 8.798 C 18.148 8.412,18.118 7.567,17.529 7.170 L 17.342 7.044 16.613 7.022 C 16.212 7.010,15.235 7.000,14.442 7.000 L 13.000 7.000 13.000 5.500 L 13.000 4.000 15.121 4.000 L 17.243 4.000 17.393 3.925 C 17.476 3.884,17.608 3.788,17.686 3.712 C 17.944 3.462,18.030 3.186,17.965 2.822 C 17.920 2.567,17.815 2.384,17.632 2.236 C 17.356 2.014,17.422 2.021,15.250 2.014 C 14.168 2.010,13.102 2.018,12.880 2.031 M7.212 7.035 C 7.039 7.088,6.790 7.278,6.677 7.444 C 6.530 7.661,6.482 7.915,6.531 8.215 C 6.580 8.518,6.936 10.070,7.254 11.367 C 7.521 12.453,7.573 12.587,7.797 12.764 C 8.084 12.991,7.998 12.982,9.968 12.993 L 11.753 13.003 12.029 14.193 C 12.610 16.698,12.797 17.419,12.903 17.565 C 13.353 18.187,14.244 18.113,14.607 17.424 C 14.698 17.251,14.702 16.981,14.618 16.567 C 14.404 15.503,13.493 11.680,13.421 11.543 C 13.350 11.407,13.106 11.185,12.934 11.099 C 12.787 11.025,12.765 11.024,10.998 11.007 L 9.211 10.990 9.020 10.154 C 8.681 8.672,8.426 7.653,8.365 7.533 C 8.282 7.370,8.078 7.182,7.900 7.105 C 7.722 7.027,7.359 6.990,7.212 7.035 " fill="#1A1C1F" stroke="none" fill-rule="evenodd"></path></svg>