<svg width="20" height="20" viewBox="0 0 20 20" fill="none" xmlns="http://www.w3.org/2000/svg"><path d="M2.783 2.029 C 2.483 2.108,2.236 2.302,2.110 2.560 L 2.017 2.750 2.007 4.300 L 1.997 5.850 2.900 9.683 C 4.267 15.484,4.293 15.585,4.474 15.883 C 4.776 16.382,5.230 16.730,5.837 16.930 C 6.055 17.002,6.079 17.002,8.137 16.993 L 10.217 16.983 10.372 16.907 C 10.564 16.812,10.816 16.547,10.905 16.346 C 11.098 15.911,10.887 15.367,10.429 15.118 L 10.251 15.021 8.334 14.999 C 7.056 14.984,6.387 14.965,6.327 14.940 C 6.179 14.879,6.334 15.474,4.927 9.567 L 4.026 5.783 4.011 4.283 L 3.995 2.783 3.914 2.612 C 3.818 2.412,3.588 2.187,3.387 2.098 C 3.222 2.025,2.927 1.992,2.783 2.029 M7.198 2.045 C 6.666 2.160,6.230 2.564,6.065 3.095 C 5.907 3.607,6.052 4.139,6.462 4.549 C 7.066 5.153,7.965 5.141,8.561 4.519 C 8.797 4.274,8.923 4.031,8.977 3.715 C 9.104 2.974,8.548 2.200,7.773 2.037 C 7.558 1.992,7.439 1.994,7.198 2.045 M7.212 7.035 C 7.039 7.088,6.790 7.278,6.677 7.444 C 6.530 7.661,6.482 7.915,6.531 8.215 C 6.580 8.518,6.936 10.070,7.254 11.367 C 7.521 12.453,7.573 12.587,7.797 12.764 C 8.084 12.991,7.998 12.982,9.968 12.993 L 11.753 13.003 12.029 14.193 C 12.610 16.698,12.797 17.419,12.903 17.565 C 13.353 18.187,14.244 18.113,14.607 17.424 C 14.698 17.251,14.702 16.981,14.618 16.567 C 14.404 15.503,13.493 11.680,13.421 11.543 C 13.350 11.407,13.106 11.185,12.934 11.099 C 12.787 11.025,12.765 11.024,10.998 11.007 L 9.211 10.990 9.020 10.154 C 8.681 8.672,8.426 7.653,8.365 7.533 C 8.282 7.370,8.078 7.182,7.900 7.105 C 7.722 7.027,7.359 6.990,7.212 7.035 M13.883 7.029 C 13.611 7.059,13.480 7.120,13.295 7.305 C 13.095 7.505,13.018 7.699,13.018 8.000 C 13.018 8.399,13.212 8.715,13.574 8.906 C 13.713 8.979,13.749 8.982,14.858 8.994 L 16.000 9.007 16.000 9.565 C 16.000 10.178,16.032 10.348,16.188 10.573 C 16.312 10.753,16.521 10.890,16.767 10.953 C 17.128 11.045,17.465 10.937,17.734 10.643 C 18.002 10.350,18.008 10.305,17.994 8.906 C 17.983 7.823,17.976 7.706,17.920 7.600 C 17.803 7.381,17.670 7.244,17.470 7.138 L 17.270 7.031 15.693 7.018 C 14.826 7.011,14.012 7.016,13.883 7.029 " fill="#1A1C1F" stroke="none" fill-rule="evenodd"></path></svg>