<svg width="20" height="20" viewBox="0 0 20 20" fill="none" xmlns="http://www.w3.org/2000/svg"><path d="M6.338 2.049 C 5.362 2.271,4.732 3.090,4.774 4.081 C 4.811 4.956,5.339 5.636,6.200 5.919 C 6.474 6.008,7.047 6.001,7.339 5.904 C 7.986 5.688,8.514 5.130,8.682 4.481 C 8.802 4.023,8.710 3.390,8.464 2.983 C 8.227 2.590,7.772 2.233,7.334 2.097 C 7.048 2.008,6.611 1.987,6.338 2.049 M13.613 2.047 C 12.719 2.217,12.000 3.088,12.000 4.000 C 12.000 4.910,12.703 5.762,13.614 5.956 C 14.069 6.053,14.666 5.939,15.060 5.680 C 15.283 5.534,15.608 5.204,15.721 5.012 C 16.129 4.316,16.061 3.381,15.560 2.778 C 15.059 2.176,14.343 1.908,13.613 2.047 M6.750 7.046 C 6.533 7.116,6.421 7.186,6.275 7.345 C 6.011 7.632,6.017 7.593,6.017 9.000 L 6.017 10.250 6.111 10.441 C 6.316 10.859,6.810 11.079,7.253 10.951 C 7.632 10.840,7.893 10.571,7.967 10.214 C 8.020 9.961,7.994 7.832,7.936 7.654 C 7.805 7.247,7.155 6.914,6.750 7.046 M11.850 7.030 C 11.570 7.047,11.436 7.072,11.283 7.136 C 10.713 7.373,10.287 7.826,10.093 8.400 C 10.021 8.611,10.019 8.665,10.007 10.476 C 9.994 12.558,9.983 12.440,10.240 12.940 C 10.391 13.233,10.737 13.589,11.018 13.740 C 11.216 13.846,11.729 14.000,11.885 14.000 L 11.996 14.000 12.008 15.625 C 12.018 16.824,12.032 17.284,12.063 17.380 C 12.116 17.542,12.374 17.797,12.589 17.901 C 12.811 18.008,13.184 18.012,13.405 17.911 C 13.602 17.821,13.797 17.626,13.901 17.415 L 13.983 17.250 13.983 14.983 C 13.983 12.922,13.978 12.705,13.927 12.592 C 13.829 12.377,13.706 12.246,13.495 12.134 L 13.292 12.025 12.646 12.008 L 12.000 11.990 12.000 10.499 L 12.000 9.008 13.108 8.991 C 13.830 8.980,14.263 8.960,14.350 8.934 C 14.439 8.907,14.551 8.825,14.684 8.689 C 14.980 8.386,15.062 8.087,14.950 7.711 C 14.878 7.469,14.708 7.265,14.478 7.144 L 14.283 7.041 13.250 7.025 C 12.682 7.016,12.052 7.018,11.850 7.030 M3.700 8.437 C 3.519 8.492,3.072 8.805,2.842 9.039 C 2.485 9.400,2.284 9.732,2.138 10.200 C 1.785 11.324,2.167 12.570,3.088 13.302 C 3.548 13.667,3.999 13.847,4.677 13.936 L 4.997 13.978 5.007 15.614 L 5.017 17.250 5.097 17.414 C 5.195 17.613,5.381 17.804,5.574 17.906 C 5.779 18.013,6.221 18.013,6.426 17.906 C 6.619 17.804,6.805 17.613,6.903 17.414 L 6.983 17.250 6.983 15.000 C 6.983 13.273,6.973 12.717,6.941 12.610 C 6.885 12.427,6.607 12.123,6.430 12.052 C 6.327 12.011,6.096 11.990,5.492 11.965 C 4.599 11.928,4.519 11.910,4.291 11.686 C 4.101 11.499,4.024 11.321,4.022 11.066 C 4.018 10.707,4.102 10.580,4.629 10.139 C 4.879 9.930,4.981 9.716,4.982 9.400 C 4.983 9.192,4.968 9.118,4.888 8.956 C 4.781 8.738,4.542 8.525,4.340 8.467 C 4.151 8.413,3.830 8.398,3.700 8.437 M14.736 10.035 C 14.413 10.102,14.085 10.418,13.995 10.749 C 13.945 10.937,13.985 11.251,14.086 11.458 C 14.253 11.800,14.554 11.955,15.109 11.985 C 15.588 12.011,15.651 12.024,15.770 12.125 C 15.987 12.307,15.978 12.212,16.001 14.817 C 16.025 17.523,16.010 17.381,16.315 17.686 C 16.819 18.190,17.585 18.054,17.916 17.402 L 18.000 17.236 18.000 14.943 C 17.999 12.642,17.982 12.206,17.878 11.883 C 17.721 11.395,17.399 10.911,17.020 10.596 C 16.715 10.343,16.254 10.113,15.967 10.070 C 15.637 10.021,14.902 10.000,14.736 10.035 " fill="#282D37" stroke="none" fill-rule="evenodd"></path></svg>