<svg width="14" height="14" viewBox="0 0 14 14" fill="none" xmlns="http://www.w3.org/2000/svg"><path d="M4.684 2.262 C 4.439 2.341,4.206 2.523,4.049 2.759 C 3.735 3.232,3.805 3.828,4.223 4.247 C 4.888 4.912,5.984 4.579,6.221 3.640 C 6.366 3.064,5.959 2.410,5.355 2.248 C 5.186 2.203,4.847 2.210,4.684 2.262 M9.052 2.261 C 8.840 2.328,8.686 2.426,8.530 2.592 C 8.286 2.850,8.199 3.098,8.219 3.479 C 8.232 3.742,8.288 3.905,8.436 4.106 C 8.675 4.431,9.101 4.624,9.498 4.588 C 10.229 4.521,10.727 3.826,10.558 3.108 C 10.514 2.920,10.458 2.813,10.315 2.641 C 10.175 2.473,9.957 2.325,9.757 2.263 C 9.564 2.203,9.236 2.202,9.052 2.261 M5.008 5.238 C 4.882 5.282,4.761 5.386,4.678 5.519 L 4.608 5.631 4.608 6.391 C 4.608 7.038,4.614 7.164,4.646 7.233 C 4.818 7.612,5.288 7.707,5.600 7.428 C 5.792 7.254,5.798 7.223,5.798 6.382 C 5.798 5.710,5.795 5.652,5.753 5.566 C 5.617 5.293,5.276 5.142,5.008 5.238 M8.073 5.224 C 7.885 5.237,7.827 5.252,7.691 5.320 C 7.397 5.466,7.182 5.707,7.067 6.020 L 7.012 6.172 7.012 7.303 C 7.012 8.428,7.012 8.436,7.066 8.593 C 7.164 8.875,7.393 9.132,7.665 9.264 C 7.808 9.334,8.043 9.403,8.134 9.403 L 8.185 9.403 8.196 10.366 C 8.203 10.989,8.216 11.358,8.233 11.412 C 8.274 11.539,8.406 11.677,8.545 11.737 C 8.847 11.868,9.197 11.746,9.337 11.462 L 9.392 11.352 9.392 10.010 C 9.392 8.993,9.385 8.645,9.362 8.571 C 9.326 8.451,9.145 8.281,9.012 8.241 C 8.958 8.225,8.772 8.213,8.566 8.213 L 8.213 8.213 8.213 7.303 L 8.213 6.393 8.849 6.393 C 9.215 6.393,9.522 6.383,9.572 6.369 C 9.807 6.304,9.987 6.057,9.986 5.800 C 9.986 5.562,9.871 5.375,9.651 5.255 C 9.588 5.220,9.495 5.215,8.937 5.212 C 8.584 5.210,8.195 5.216,8.073 5.224 M3.197 6.082 C 2.788 6.225,2.393 6.700,2.249 7.222 C 2.199 7.403,2.205 7.886,2.261 8.073 C 2.377 8.469,2.559 8.743,2.864 8.986 C 3.135 9.202,3.455 9.327,3.844 9.370 L 3.990 9.386 3.990 10.347 L 3.990 11.308 4.049 11.425 C 4.209 11.747,4.551 11.885,4.843 11.746 C 4.974 11.684,5.126 11.521,5.161 11.407 C 5.185 11.328,5.192 11.005,5.192 9.963 L 5.192 8.622 5.137 8.511 C 5.074 8.384,4.978 8.295,4.830 8.229 C 4.740 8.189,4.656 8.180,4.245 8.168 C 3.832 8.156,3.756 8.149,3.697 8.111 C 3.519 7.998,3.434 7.863,3.413 7.663 C 3.402 7.559,3.411 7.517,3.462 7.412 C 3.499 7.338,3.561 7.258,3.611 7.220 C 3.878 7.024,3.990 6.848,3.990 6.627 C 3.990 6.224,3.586 5.946,3.197 6.082 M9.847 7.020 C 9.721 7.048,9.632 7.103,9.525 7.218 C 9.414 7.340,9.392 7.401,9.392 7.595 C 9.392 7.789,9.414 7.850,9.526 7.972 C 9.677 8.136,9.768 8.172,10.080 8.190 C 10.361 8.206,10.410 8.221,10.491 8.310 C 10.604 8.434,10.601 8.403,10.618 9.905 C 10.630 10.904,10.643 11.356,10.663 11.422 C 10.678 11.473,10.724 11.550,10.765 11.594 C 10.862 11.697,11.092 11.807,11.212 11.806 C 11.402 11.805,11.652 11.643,11.741 11.462 L 11.795 11.352 11.794 9.835 L 11.794 8.318 11.721 8.114 C 11.620 7.829,11.521 7.672,11.305 7.455 C 11.099 7.247,10.891 7.123,10.647 7.060 C 10.484 7.018,9.972 6.992,9.847 7.020 " fill="#282D37" stroke="none" fill-rule="evenodd"></path></svg>