<svg width="28" height="28" viewBox="0 0 28 28" fill="none" xmlns="http://www.w3.org/2000/svg"><path d="M9.460 1.819 C 8.958 1.910,8.248 2.360,7.918 2.795 C 7.552 3.277,7.333 4.029,7.392 4.602 C 7.550 6.141,9.044 7.261,10.507 6.935 C 11.472 6.721,12.200 6.069,12.485 5.165 C 12.646 4.656,12.670 4.342,12.582 3.920 C 12.387 2.996,11.746 2.240,10.894 1.931 C 10.538 1.801,9.849 1.748,9.460 1.819 M17.827 1.826 C 16.950 1.967,16.093 2.791,15.842 3.735 C 15.747 4.094,15.755 4.719,15.860 5.098 C 16.107 5.987,16.991 6.784,17.920 6.954 C 18.735 7.103,19.668 6.798,20.238 6.195 C 20.757 5.646,20.968 5.127,20.973 4.387 C 20.978 3.602,20.746 3.060,20.171 2.515 C 19.511 1.888,18.779 1.672,17.827 1.826 M10.408 3.618 C 10.707 3.772,10.911 4.189,10.851 4.522 C 10.726 5.213,9.810 5.477,9.367 4.951 C 8.872 4.363,9.319 3.433,10.052 3.523 C 10.178 3.539,10.338 3.581,10.408 3.618 M18.858 3.661 C 19.388 4.011,19.319 4.852,18.737 5.133 C 18.143 5.421,17.531 5.028,17.528 4.357 C 17.525 3.701,18.303 3.293,18.858 3.661 M10.141 8.420 C 9.974 8.498,9.859 8.594,9.768 8.731 L 9.637 8.930 9.623 11.204 L 9.609 13.477 8.433 13.495 C 7.113 13.515,7.047 13.529,6.841 13.850 C 6.616 14.200,6.649 14.638,6.922 14.926 C 7.201 15.219,7.156 15.213,9.054 15.213 L 10.786 15.213 10.944 15.093 C 11.031 15.027,11.167 14.871,11.246 14.747 L 11.391 14.521 11.377 11.725 L 11.363 8.929 11.230 8.736 C 11.086 8.528,10.709 8.306,10.503 8.307 C 10.437 8.307,10.274 8.358,10.141 8.420 M16.240 8.350 C 15.640 8.374,15.534 8.390,15.307 8.498 C 14.757 8.758,14.347 9.206,14.127 9.788 C 14.025 10.056,14.025 10.069,14.024 13.813 C 14.023 17.543,14.024 17.572,14.123 17.834 C 14.379 18.510,14.975 19.072,15.530 19.161 L 15.715 19.190 15.749 19.803 C 15.768 20.141,15.777 21.582,15.768 23.007 C 15.751 25.856,15.738 25.719,16.038 26.002 C 16.418 26.362,17.056 26.285,17.348 25.844 L 17.477 25.650 17.492 22.170 C 17.500 20.256,17.493 18.537,17.476 18.350 C 17.452 18.083,17.420 17.981,17.327 17.870 C 17.140 17.648,16.891 17.548,16.423 17.505 C 16.081 17.473,15.981 17.446,15.888 17.358 L 15.773 17.250 15.776 14.097 C 15.778 12.362,15.794 10.791,15.813 10.605 C 15.867 10.063,15.693 10.103,17.966 10.103 C 19.868 10.103,19.925 10.106,19.993 10.197 C 20.032 10.248,20.077 10.364,20.092 10.453 C 20.182 10.962,20.369 11.210,20.746 11.319 C 21.035 11.404,21.247 11.366,21.518 11.181 C 21.869 10.941,21.955 10.449,21.753 9.842 C 21.559 9.258,21.210 8.850,20.654 8.555 L 20.323 8.379 19.297 8.347 C 18.142 8.311,17.236 8.312,16.240 8.350 M6.492 10.618 C 5.258 10.963,4.230 11.859,3.790 12.973 C 3.586 13.489,3.527 13.812,3.527 14.420 C 3.527 15.116,3.623 15.519,3.946 16.175 C 4.099 16.486,4.251 16.703,4.510 16.982 C 5.309 17.842,6.216 18.264,7.505 18.378 C 7.867 18.410,8.019 18.444,8.112 18.514 L 8.237 18.607 8.260 22.128 L 8.283 25.650 8.415 25.849 C 8.645 26.197,9.140 26.327,9.510 26.138 C 9.724 26.029,9.819 25.926,9.927 25.688 C 10.003 25.518,10.011 25.270,10.024 22.563 C 10.031 20.946,10.018 19.315,9.995 18.938 C 9.956 18.292,9.944 18.234,9.789 17.912 C 9.585 17.487,9.348 17.211,8.988 16.978 C 8.617 16.738,8.348 16.665,7.653 16.614 C 6.785 16.550,6.320 16.357,5.870 15.876 C 5.598 15.585,5.434 15.299,5.346 14.959 C 5.155 14.225,5.368 13.432,5.900 12.901 C 6.188 12.613,6.397 12.499,7.017 12.293 C 7.547 12.117,7.710 11.989,7.818 11.662 C 7.876 11.487,7.882 11.401,7.843 11.257 C 7.776 11.009,7.615 10.780,7.431 10.673 C 7.229 10.555,6.805 10.530,6.492 10.618 M21.172 13.743 C 20.150 14.024,19.406 14.887,19.272 15.948 C 19.216 16.390,19.268 16.624,19.468 16.835 C 20.014 17.408,20.834 17.112,20.997 16.281 C 21.068 15.920,21.140 15.774,21.324 15.620 C 21.739 15.270,22.384 15.386,22.614 15.851 C 22.700 16.023,22.704 16.228,22.727 20.813 L 22.750 25.597 22.859 25.773 C 23.073 26.116,23.450 26.300,23.782 26.225 C 24.000 26.176,24.155 26.063,24.350 25.808 L 24.504 25.608 24.490 20.725 L 24.476 15.843 24.349 15.466 C 24.064 14.624,23.415 14.007,22.543 13.749 C 22.235 13.657,21.496 13.654,21.172 13.743 " fill="#282D37" stroke="none" fill-rule="evenodd"></path></svg>