<svg width="16" height="16" viewBox="0 0 16 16" fill="none" xmlns="http://www.w3.org/2000/svg"><path d="M5.080 1.638 C 4.516 1.768,4.113 2.115,3.902 2.653 C 3.836 2.822,3.829 2.873,3.828 3.187 C 3.827 3.481,3.836 3.560,3.888 3.712 C 4.047 4.171,4.415 4.536,4.895 4.710 C 5.043 4.764,5.119 4.773,5.400 4.773 C 5.680 4.773,5.757 4.764,5.902 4.711 C 6.292 4.570,6.620 4.291,6.796 3.950 C 6.944 3.664,6.987 3.499,6.987 3.212 C 6.987 2.631,6.707 2.134,6.210 1.834 C 5.884 1.637,5.428 1.557,5.080 1.638 M10.890 1.638 C 10.176 1.774,9.600 2.471,9.600 3.200 C 9.600 4.082,10.409 4.849,11.280 4.792 C 11.526 4.776,11.859 4.669,12.048 4.544 C 12.226 4.427,12.487 4.163,12.577 4.010 C 12.903 3.453,12.849 2.705,12.448 2.223 C 12.049 1.744,11.472 1.527,10.890 1.638 M5.400 5.637 C 5.226 5.693,5.137 5.749,5.020 5.876 C 4.808 6.105,4.813 6.074,4.813 7.200 L 4.813 8.200 4.888 8.353 C 5.060 8.703,5.452 8.866,5.837 8.750 C 6.055 8.683,6.233 8.530,6.328 8.327 C 6.385 8.203,6.387 8.177,6.387 7.200 C 6.387 6.236,6.385 6.196,6.330 6.080 C 6.252 5.914,6.122 5.792,5.933 5.705 C 5.738 5.615,5.544 5.590,5.400 5.637 M9.480 5.625 C 9.255 5.638,9.149 5.657,9.026 5.709 C 8.570 5.898,8.230 6.260,8.074 6.720 C 8.017 6.889,8.015 6.932,8.006 8.385 L 7.996 9.876 8.066 10.071 C 8.104 10.179,8.176 10.337,8.226 10.422 C 8.334 10.607,8.628 10.891,8.815 10.992 C 8.973 11.077,9.383 11.200,9.508 11.200 L 9.597 11.200 9.607 12.500 C 9.614 13.459,9.626 13.827,9.651 13.904 C 9.693 14.034,9.899 14.238,10.071 14.321 C 10.248 14.406,10.548 14.410,10.724 14.329 C 10.882 14.256,11.037 14.101,11.121 13.932 L 11.187 13.800 11.187 11.987 C 11.187 10.338,11.183 10.164,11.141 10.073 C 11.064 9.902,10.965 9.797,10.798 9.708 L 10.637 9.622 10.119 9.607 L 9.600 9.592 9.600 8.399 L 9.600 7.206 10.487 7.193 C 11.071 7.184,11.410 7.169,11.480 7.148 C 11.551 7.126,11.641 7.060,11.747 6.951 C 11.984 6.709,12.049 6.469,11.960 6.169 C 11.903 5.975,11.767 5.812,11.583 5.715 L 11.427 5.633 10.600 5.621 C 10.145 5.614,9.641 5.616,9.480 5.625 M3.000 6.744 C 2.702 6.822,2.229 7.211,1.984 7.578 C 1.849 7.780,1.735 8.040,1.665 8.309 C 1.593 8.582,1.599 9.140,1.676 9.425 C 1.805 9.899,2.095 10.343,2.471 10.641 C 2.839 10.934,3.199 11.078,3.741 11.149 L 3.998 11.182 4.006 12.491 L 4.013 13.800 4.079 13.932 C 4.158 14.092,4.305 14.244,4.459 14.325 C 4.623 14.411,4.977 14.411,5.141 14.325 C 5.295 14.244,5.442 14.092,5.521 13.932 L 5.587 13.800 5.587 12.000 C 5.587 10.618,5.579 10.174,5.553 10.088 C 5.508 9.942,5.285 9.699,5.144 9.642 C 5.061 9.609,4.877 9.592,4.393 9.572 C 3.677 9.543,3.616 9.528,3.430 9.346 C 3.288 9.206,3.217 9.038,3.217 8.839 C 3.216 8.565,3.287 8.459,3.703 8.111 C 3.903 7.944,3.985 7.773,3.986 7.520 C 3.987 7.353,3.974 7.294,3.911 7.165 C 3.824 6.990,3.631 6.817,3.472 6.775 C 3.324 6.735,3.090 6.720,3.000 6.744 M11.788 8.028 C 11.530 8.081,11.268 8.334,11.196 8.600 C 11.156 8.749,11.188 9.001,11.269 9.166 C 11.402 9.440,11.643 9.564,12.087 9.588 C 12.470 9.609,12.521 9.620,12.616 9.700 C 12.790 9.846,12.783 9.769,12.801 11.853 C 12.820 14.018,12.807 13.904,13.052 14.149 C 13.456 14.553,14.068 14.443,14.334 13.919 L 14.403 13.782 14.393 11.791 C 14.384 10.037,14.378 9.780,14.338 9.633 C 14.247 9.291,14.088 8.986,13.856 8.710 C 13.599 8.404,13.106 8.106,12.773 8.057 C 12.511 8.017,11.922 8.000,11.788 8.028 " fill="#282D37" stroke="none" fill-rule="evenodd"></path></svg>