<svg width="14" height="14" viewBox="0 0 14 14" fill="none" xmlns="http://www.w3.org/2000/svg"><path d="M4.436 1.434 C 3.972 1.540,3.603 1.855,3.425 2.298 C 3.354 2.475,3.350 2.502,3.349 2.788 C 3.348 3.046,3.356 3.115,3.402 3.248 C 3.541 3.649,3.863 3.969,4.283 4.121 C 4.413 4.168,4.479 4.177,4.725 4.177 C 4.970 4.177,5.038 4.168,5.164 4.122 C 5.521 3.993,5.799 3.750,5.961 3.427 C 6.089 3.171,6.122 3.014,6.108 2.730 C 6.084 2.248,5.848 1.855,5.432 1.603 C 5.145 1.430,4.750 1.363,4.436 1.434 M9.529 1.433 C 9.118 1.511,8.699 1.844,8.528 2.228 C 8.460 2.380,8.400 2.650,8.400 2.800 C 8.400 3.437,8.892 4.034,9.529 4.169 C 9.849 4.237,10.266 4.157,10.542 3.976 C 10.698 3.874,10.926 3.643,11.005 3.509 C 11.290 3.021,11.243 2.367,10.892 1.945 C 10.541 1.524,10.040 1.335,9.529 1.433 M4.725 4.932 C 4.572 4.982,4.495 5.031,4.390 5.145 C 4.208 5.342,4.212 5.315,4.212 6.300 L 4.212 7.175 4.277 7.309 C 4.428 7.615,4.770 7.758,5.107 7.656 C 5.298 7.598,5.456 7.462,5.537 7.285 C 5.587 7.178,5.588 7.150,5.588 6.300 C 5.588 5.454,5.587 5.422,5.538 5.320 C 5.480 5.198,5.398 5.107,5.278 5.031 C 5.109 4.925,4.875 4.883,4.725 4.932 M8.295 4.921 C 8.100 4.933,8.005 4.951,7.898 4.995 C 7.499 5.161,7.201 5.478,7.065 5.880 C 7.015 6.028,7.013 6.066,7.005 7.337 L 6.997 8.641 7.058 8.813 C 7.091 8.907,7.154 9.045,7.198 9.120 C 7.293 9.281,7.550 9.530,7.713 9.618 C 7.851 9.692,8.210 9.800,8.320 9.800 L 8.397 9.800 8.406 10.938 C 8.412 11.776,8.422 12.099,8.444 12.166 C 8.482 12.280,8.662 12.458,8.812 12.531 C 8.967 12.605,9.229 12.609,9.383 12.538 C 9.522 12.474,9.658 12.338,9.731 12.191 L 9.788 12.075 9.788 10.488 C 9.788 9.045,9.785 8.894,9.749 8.814 C 9.681 8.664,9.594 8.572,9.447 8.494 L 9.305 8.418 8.852 8.405 L 8.400 8.393 8.400 7.349 L 8.400 6.305 9.176 6.294 C 9.681 6.286,9.984 6.272,10.045 6.254 C 10.191 6.210,10.409 5.974,10.463 5.802 C 10.565 5.477,10.410 5.122,10.102 4.978 C 10.006 4.932,9.947 4.928,9.275 4.917 C 8.877 4.911,8.436 4.912,8.295 4.921 M2.625 5.900 C 2.419 5.955,2.094 6.191,1.874 6.447 C 1.636 6.723,1.478 7.084,1.423 7.477 C 1.305 8.315,1.755 9.159,2.526 9.546 C 2.740 9.654,2.951 9.713,3.272 9.755 L 3.498 9.784 3.505 10.930 C 3.511 12.045,3.513 12.078,3.562 12.183 C 3.623 12.315,3.766 12.463,3.902 12.534 C 4.045 12.609,4.355 12.609,4.498 12.534 C 4.633 12.463,4.763 12.329,4.832 12.190 L 4.888 12.075 4.888 10.500 C 4.888 9.291,4.881 8.902,4.859 8.827 C 4.820 8.699,4.625 8.486,4.501 8.437 C 4.429 8.408,4.267 8.393,3.844 8.375 C 3.217 8.350,3.164 8.337,3.001 8.177 C 2.877 8.056,2.815 7.908,2.815 7.734 C 2.814 7.494,2.876 7.402,3.240 7.097 C 3.415 6.951,3.487 6.801,3.488 6.580 C 3.488 6.434,3.477 6.382,3.422 6.270 C 3.347 6.117,3.179 5.967,3.038 5.927 C 2.915 5.892,2.707 5.879,2.625 5.900 M10.320 7.023 C 10.130 7.063,9.959 7.193,9.858 7.377 C 9.797 7.486,9.788 7.525,9.789 7.688 C 9.789 7.845,9.799 7.897,9.854 8.009 C 9.977 8.260,10.182 8.368,10.577 8.389 C 10.911 8.408,10.956 8.417,11.039 8.487 C 11.191 8.615,11.185 8.548,11.201 10.372 C 11.217 12.266,11.206 12.166,11.421 12.380 C 11.774 12.734,12.310 12.638,12.542 12.179 L 12.603 12.060 12.594 10.317 C 12.584 8.405,12.589 8.475,12.438 8.118 C 12.213 7.591,11.660 7.122,11.177 7.050 C 10.951 7.016,10.432 7.000,10.320 7.023 " fill="#282D37" stroke="none" fill-rule="evenodd"></path></svg>