<svg width="32" height="32" viewBox="0 0 32 32" fill="none" xmlns="http://www.w3.org/2000/svg"><path d="M10.853 2.080 C 10.271 2.169,9.736 2.475,9.244 3.003 C 8.133 4.193,8.178 5.963,9.348 7.106 C 9.832 7.580,10.172 7.767,10.827 7.918 C 11.292 8.026,11.637 8.020,12.120 7.897 C 12.885 7.701,13.431 7.330,13.866 6.710 C 14.725 5.487,14.588 3.952,13.526 2.906 C 13.009 2.396,12.504 2.146,11.857 2.078 C 11.330 2.023,11.233 2.023,10.853 2.080 M20.373 2.086 C 19.887 2.165,19.331 2.473,18.902 2.902 C 18.305 3.500,18.028 4.168,18.028 5.013 C 18.028 5.966,18.393 6.706,19.179 7.350 C 20.360 8.317,22.131 8.167,23.190 7.012 C 24.083 6.036,24.237 4.700,23.592 3.515 C 23.512 3.368,23.269 3.079,23.051 2.872 C 22.299 2.157,21.460 1.911,20.373 2.086 M11.895 4.134 C 12.237 4.311,12.470 4.787,12.401 5.168 C 12.258 5.957,11.212 6.260,10.706 5.658 C 10.140 4.986,10.650 3.923,11.488 4.027 C 11.632 4.045,11.815 4.093,11.895 4.134 M21.552 4.184 C 22.161 4.587,22.073 5.580,21.402 5.877 C 20.713 6.182,20.035 5.737,20.032 4.980 C 20.028 4.229,20.917 3.764,21.552 4.184 M11.590 9.623 C 11.399 9.712,11.267 9.822,11.163 9.979 L 11.013 10.205 10.998 12.809 L 10.982 15.413 9.659 15.413 L 8.336 15.413 8.123 15.568 C 7.822 15.786,7.691 15.972,7.651 16.240 C 7.607 16.531,7.694 16.805,7.907 17.047 C 8.210 17.393,8.166 17.387,10.348 17.387 L 12.327 17.387 12.507 17.249 C 12.606 17.174,12.762 16.996,12.853 16.854 L 13.019 16.596 13.003 13.400 L 12.987 10.204 12.834 9.984 C 12.670 9.747,12.239 9.493,12.003 9.494 C 11.928 9.494,11.742 9.552,11.590 9.623 M18.532 9.543 C 17.820 9.572,17.766 9.582,17.421 9.752 C 16.818 10.049,16.357 10.585,16.127 11.253 C 16.032 11.531,16.027 11.771,16.027 15.813 C 16.027 20.047,16.028 20.082,16.141 20.382 C 16.433 21.154,17.115 21.796,17.749 21.898 L 17.960 21.932 17.999 22.632 C 18.021 23.018,18.030 24.665,18.020 26.293 C 18.000 29.551,17.986 29.392,18.329 29.717 C 18.759 30.124,19.495 30.037,19.823 29.541 L 19.973 29.315 19.990 25.337 C 20.000 23.150,19.992 21.185,19.972 20.972 C 19.945 20.666,19.909 20.550,19.802 20.423 C 19.589 20.170,19.304 20.055,18.769 20.005 C 18.378 19.969,18.264 19.938,18.158 19.838 L 18.027 19.715 18.030 16.111 C 18.033 12.297,18.053 11.791,18.202 11.642 C 18.284 11.560,18.493 11.549,20.280 11.531 C 21.373 11.521,22.399 11.532,22.560 11.557 C 22.882 11.605,22.888 11.615,23.043 12.254 C 23.162 12.748,23.723 13.093,24.197 12.964 C 24.911 12.770,25.156 12.137,24.860 11.247 C 24.638 10.581,24.240 10.114,23.605 9.777 L 23.227 9.576 22.053 9.539 C 20.730 9.498,19.630 9.499,18.532 9.543 M7.440 12.130 C 6.977 12.263,6.708 12.371,6.363 12.564 C 4.530 13.589,3.629 15.650,4.162 17.600 C 4.513 18.885,5.422 19.945,6.675 20.530 C 7.247 20.797,7.657 20.901,8.474 20.987 C 8.968 21.039,9.170 21.083,9.274 21.161 L 9.413 21.265 9.440 25.290 L 9.467 29.315 9.617 29.541 C 9.880 29.939,10.446 30.088,10.869 29.872 C 11.113 29.748,11.222 29.630,11.345 29.358 C 11.432 29.163,11.441 28.880,11.455 25.787 C 11.464 23.939,11.450 22.074,11.423 21.644 C 11.378 20.906,11.365 20.839,11.188 20.471 C 10.954 19.985,10.683 19.670,10.272 19.404 C 9.847 19.129,9.540 19.045,8.747 18.987 C 7.755 18.914,7.223 18.694,6.708 18.144 C 6.398 17.812,6.211 17.485,6.109 17.095 C 5.891 16.257,6.135 15.351,6.743 14.744 C 7.072 14.415,7.310 14.285,8.020 14.049 C 8.633 13.845,8.821 13.694,8.934 13.313 C 9.059 12.893,8.872 12.419,8.493 12.198 C 8.266 12.065,7.777 12.034,7.440 12.130 M24.190 15.708 C 23.025 16.028,22.179 17.012,22.025 18.226 C 21.961 18.732,22.020 18.999,22.249 19.239 C 22.873 19.895,23.810 19.557,23.997 18.607 C 24.078 18.194,24.160 18.027,24.370 17.851 C 24.844 17.452,25.581 17.584,25.845 18.115 C 25.942 18.312,25.948 18.546,25.973 23.787 L 26.000 29.253 26.125 29.454 C 26.369 29.846,26.800 30.058,27.180 29.972 C 27.429 29.916,27.605 29.786,27.829 29.495 L 28.005 29.266 27.989 23.686 L 27.973 18.107 27.827 17.676 C 27.501 16.713,26.760 16.008,25.764 15.713 C 25.409 15.608,24.566 15.605,24.190 15.708 " fill="#282D37" stroke="none" fill-rule="evenodd"></path></svg>