<svg width="20" height="20" viewBox="0 0 20 20" fill="none" xmlns="http://www.w3.org/2000/svg"><path d="M9.167 4.404 C 7.703 4.572,6.487 5.337,5.966 6.417 C 5.729 6.906,5.683 7.135,5.686 7.800 C 5.687 8.292,5.699 8.425,5.760 8.646 C 5.923 9.236,6.260 9.739,6.729 10.093 C 7.270 10.501,7.739 10.707,8.902 11.050 C 10.784 11.606,11.114 11.740,11.469 12.097 C 11.736 12.364,11.800 12.523,11.800 12.917 C 11.800 13.177,11.794 13.199,11.671 13.389 C 11.170 14.164,9.944 14.380,8.592 13.932 C 7.718 13.643,7.032 13.203,6.350 12.496 C 6.166 12.306,5.956 12.070,5.883 11.973 L 5.750 11.796 5.741 12.906 L 5.731 14.017 5.857 14.127 C 5.927 14.187,6.141 14.342,6.333 14.470 C 7.453 15.218,9.061 15.691,10.244 15.620 C 11.440 15.549,12.457 15.112,13.235 14.334 C 13.741 13.829,14.062 13.288,14.241 12.639 C 14.299 12.429,14.312 12.286,14.314 11.833 C 14.316 11.359,14.306 11.245,14.240 11.003 C 14.062 10.352,13.724 9.887,13.143 9.495 C 12.622 9.144,12.223 8.995,10.783 8.615 C 9.624 8.310,9.261 8.198,8.943 8.046 C 8.618 7.892,8.332 7.623,8.193 7.342 C 8.096 7.145,8.086 7.095,8.088 6.836 C 8.093 6.298,8.346 5.970,8.919 5.762 C 9.089 5.700,9.189 5.690,9.633 5.690 C 10.457 5.689,10.999 5.824,11.817 6.234 C 12.382 6.517,12.791 6.804,13.276 7.258 C 13.476 7.446,13.654 7.600,13.671 7.600 C 13.688 7.600,13.697 7.221,13.692 6.693 L 13.683 5.786 13.300 5.524 C 12.335 4.865,11.324 4.516,10.050 4.400 C 9.637 4.363,9.523 4.363,9.167 4.404 " fill="#1A1C1F" stroke="none" fill-rule="evenodd"></path></svg>